%FSLAX25Y25*%
%MOIN*%
G70*
G01*
G75*
G04 Layer_Color=8388736*
%ADD10C,0.06000*%
%ADD11C,0.01575*%
%ADD12C,0.00787*%
%ADD13C,0.05315*%
%ADD14C,0.05512*%
%ADD15O,0.05000X0.10000*%
%ADD16R,0.05000X0.10000*%
%ADD17C,0.07000*%
%ADD18R,0.25590X0.25590*%
%ADD19C,0.39370*%
%ADD20C,0.01969*%
%ADD21C,0.00984*%
%ADD22C,0.01000*%
%ADD23C,0.00100*%
%ADD24C,0.00090*%
%ADD25C,0.00670*%
%ADD26C,0.00750*%
%ADD27C,0.06800*%
%ADD28C,0.06115*%
%ADD29C,0.06312*%
%ADD30O,0.05800X0.10800*%
%ADD31R,0.05800X0.10800*%
%ADD32C,0.07800*%
G36*
X102299Y30701D02*
X76118Y15642D01*
X49937Y30701D01*
X76118Y45859D01*
X102299Y30701D01*
D02*
G37*
G36*
X103185Y62099D02*
Y32374D01*
X77103Y47433D01*
Y77158D01*
X103185Y62099D01*
D02*
G37*
G36*
X75134Y47532D02*
X49051Y32473D01*
Y62099D01*
X75134Y77158D01*
Y47532D01*
D02*
G37*
D11*
X136158Y787D02*
G03*
X151469Y16034I0J15311D01*
G01*
X788Y16037D02*
G03*
X16077Y787I15311J61D01*
G01*
X151469Y367351D02*
G03*
X136158Y382662I-15311J0D01*
G01*
X16101Y382661D02*
G03*
X789Y367350I0J-15311D01*
G01*
X16077Y787D02*
X136158Y787D01*
X788Y16037D02*
X789Y367350D01*
X16101Y382661D02*
X136158Y382662D01*
X151469Y16034D02*
X151469Y367351D01*
D12*
X0Y-5907D02*
Y-9843D01*
X1968D01*
X2624Y-9187D01*
Y-8531D01*
X1968Y-7875D01*
X0D01*
X1968D01*
X2624Y-7219D01*
Y-6563D01*
X1968Y-5907D01*
X0D01*
X4592Y-9843D02*
X5904D01*
X6560Y-9187D01*
Y-7875D01*
X5904Y-7219D01*
X4592D01*
X3936Y-7875D01*
Y-9187D01*
X4592Y-9843D01*
X8527Y-7219D02*
X9839D01*
X10495Y-7875D01*
Y-9843D01*
X8527D01*
X7871Y-9187D01*
X8527Y-8531D01*
X10495D01*
X11807Y-7219D02*
Y-9843D01*
Y-8531D01*
X12463Y-7875D01*
X13119Y-7219D01*
X13775D01*
X18367Y-5907D02*
Y-9843D01*
X16399D01*
X15743Y-9187D01*
Y-7875D01*
X16399Y-7219D01*
X18367D01*
X26238Y-5907D02*
X23614D01*
Y-9843D01*
X26238D01*
X23614Y-7875D02*
X24926D01*
X30174Y-5907D02*
Y-9843D01*
X28206D01*
X27550Y-9187D01*
Y-7875D01*
X28206Y-7219D01*
X30174D01*
X32798Y-11154D02*
X33454D01*
X34110Y-10498D01*
Y-7219D01*
X32142D01*
X31486Y-7875D01*
Y-9187D01*
X32142Y-9843D01*
X34110D01*
X37389D02*
X36078D01*
X35422Y-9187D01*
Y-7875D01*
X36078Y-7219D01*
X37389D01*
X38045Y-7875D01*
Y-8531D01*
X35422D01*
X43293Y-9843D02*
Y-5907D01*
X45261D01*
X45917Y-6563D01*
Y-7875D01*
X45261Y-8531D01*
X43293D01*
X44605D02*
X45917Y-9843D01*
X47885D02*
X49197D01*
X49853Y-9187D01*
Y-7875D01*
X49197Y-7219D01*
X47885D01*
X47229Y-7875D01*
Y-9187D01*
X47885Y-9843D01*
X51165Y-7219D02*
Y-9187D01*
X51821Y-9843D01*
X53788D01*
Y-7219D01*
X55756Y-6563D02*
Y-7219D01*
X55100D01*
X56412D01*
X55756D01*
Y-9187D01*
X56412Y-9843D01*
X60348D02*
X59036D01*
X58380Y-9187D01*
Y-7875D01*
X59036Y-7219D01*
X60348D01*
X61004Y-7875D01*
Y-8531D01*
X58380D01*
X64940Y-5907D02*
Y-9843D01*
X62972D01*
X62316Y-9187D01*
Y-7875D01*
X62972Y-7219D01*
X64940D01*
D27*
X81729Y68989D02*
D03*
X76807Y38280D02*
D03*
X70607Y68989D02*
D03*
D28*
X125331Y321351D02*
D03*
Y301666D02*
D03*
X107615Y321351D02*
D03*
Y301666D02*
D03*
D29*
X123363Y194776D02*
D03*
Y244776D02*
D03*
X135174Y244776D02*
D03*
Y194776D02*
D03*
X111551Y244776D02*
D03*
Y194776D02*
D03*
X17063Y244776D02*
D03*
Y194776D02*
D03*
X76118Y194776D02*
D03*
Y244776D02*
D03*
X28874Y194776D02*
D03*
Y244776D02*
D03*
X87929Y194776D02*
D03*
Y244776D02*
D03*
X40685Y194776D02*
D03*
Y244776D02*
D03*
X99740Y194776D02*
D03*
Y244776D02*
D03*
X64307Y194776D02*
D03*
Y244776D02*
D03*
X52496Y194776D02*
D03*
Y244776D02*
D03*
D30*
X64150Y310327D02*
D03*
X74150D02*
D03*
X84150D02*
D03*
X135646Y369886D02*
D03*
X125646D02*
D03*
X115646D02*
D03*
X105646D02*
D03*
X135646Y337886D02*
D03*
X125646D02*
D03*
X115646D02*
D03*
X22811Y310327D02*
D03*
X32811D02*
D03*
X42811D02*
D03*
X124504Y271941D02*
D03*
X114504D02*
D03*
X104504D02*
D03*
X84150D02*
D03*
X74150D02*
D03*
X64150D02*
D03*
X42811D02*
D03*
X32811D02*
D03*
X22811D02*
D03*
X85095Y369886D02*
D03*
X75095D02*
D03*
X65095D02*
D03*
X55095D02*
D03*
X45095D02*
D03*
X35095D02*
D03*
X25095D02*
D03*
X15095D02*
D03*
X85095Y337886D02*
D03*
X75095D02*
D03*
X65095D02*
D03*
X55095D02*
D03*
X45095D02*
D03*
X35095D02*
D03*
X25095D02*
D03*
D31*
X105646Y337886D02*
D03*
X15095Y337886D02*
D03*
D32*
X49622Y168595D02*
D03*
X39622D02*
D03*
X112615D02*
D03*
X102614D02*
D03*
X49622Y137099D02*
D03*
X39622D02*
D03*
X81118D02*
D03*
X71118D02*
D03*
X112615D02*
D03*
X102614D02*
D03*
X49622Y105603D02*
D03*
X39622D02*
D03*
X112615D02*
D03*
X102614D02*
D03*
M02*
