%FSLAX24Y24*%
%MOIN*%
G70*
G01*
G75*
G04 Layer_Color=127485*
%ADD10R,0.0591X0.0551*%
%ADD11R,0.0551X0.0591*%
%ADD12R,0.0669X0.0453*%
%ADD13O,0.0984X0.0276*%
%ADD14O,0.0276X0.0984*%
%ADD15O,0.0276X0.0906*%
%ADD16O,0.0906X0.0276*%
%ADD17R,0.0453X0.0669*%
%ADD18R,0.0394X0.0551*%
%ADD19R,0.0551X0.0394*%
%ADD20R,0.0669X0.0984*%
%ADD21R,0.0571X0.1437*%
%ADD22O,0.0118X0.0492*%
%ADD23R,0.0984X0.0669*%
%ADD24R,0.1437X0.0571*%
%ADD25R,0.1201X0.0394*%
%ADD26R,0.2559X0.2185*%
%ADD27C,0.0300*%
%ADD28C,0.0100*%
%ADD29C,0.0200*%
%ADD30C,0.0060*%
%ADD31C,0.0250*%
%ADD32C,0.0500*%
%ADD33C,0.1000*%
%ADD34C,0.0600*%
%ADD35C,0.0400*%
%ADD36C,0.0150*%
%ADD37C,0.0600*%
%ADD38C,0.1496*%
%ADD39C,0.0591*%
%ADD40R,0.0591X0.0591*%
%ADD41C,0.0394*%
%ADD42C,0.2756*%
%ADD43O,0.1339X0.0787*%
%ADD44O,0.1024X0.1339*%
%ADD45C,0.0866*%
%ADD46C,0.0787*%
%ADD47R,0.0591X0.0591*%
%ADD48C,0.1260*%
%ADD49C,0.1000*%
%ADD50C,0.1969*%
%ADD51C,0.1575*%
%ADD52R,0.0600X0.0600*%
%ADD53O,0.0591X0.0827*%
%ADD54R,0.0591X0.0827*%
%ADD55O,0.0827X0.0591*%
%ADD56R,0.0827X0.0591*%
%ADD57C,0.0500*%
%ADD58C,0.0315*%
%ADD59C,0.0236*%
%ADD60C,0.0400*%
%ADD61C,0.0197*%
%ADD62C,0.0754*%
%ADD63C,0.1660*%
%ADD64C,0.0518*%
%ADD65C,0.1778*%
%ADD66O,0.1345X0.0794*%
%ADD67O,0.1030X0.1345*%
%ADD68C,0.1069*%
%ADD69C,0.0991*%
%ADD70C,0.1109*%
G04:AMPARAMS|DCode=71|XSize=119.055mil|YSize=119.055mil|CornerRadius=0mil|HoleSize=0mil|Usage=FLASHONLY|Rotation=0.000|XOffset=0mil|YOffset=0mil|HoleType=Round|Shape=Relief|Width=10mil|Gap=10mil|Entries=4|*
%AMTHD71*
7,0,0,0.1191,0.0991,0.0100,45*
%
%ADD71THD71*%
G04:AMPARAMS|DCode=72|XSize=130.866mil|YSize=130.866mil|CornerRadius=0mil|HoleSize=0mil|Usage=FLASHONLY|Rotation=0.000|XOffset=0mil|YOffset=0mil|HoleType=Round|Shape=Relief|Width=10mil|Gap=10mil|Entries=4|*
%AMTHD72*
7,0,0,0.1309,0.1109,0.0100,45*
%
%ADD72THD72*%
G04:AMPARAMS|DCode=73|XSize=95.433mil|YSize=95.433mil|CornerRadius=0mil|HoleSize=0mil|Usage=FLASHONLY|Rotation=0.000|XOffset=0mil|YOffset=0mil|HoleType=Round|Shape=Relief|Width=10mil|Gap=10mil|Entries=4|*
%AMTHD73*
7,0,0,0.0954,0.0754,0.0100,45*
%
%ADD73THD73*%
%ADD74C,0.1581*%
%ADD75C,0.1620*%
%ADD76C,0.0715*%
%ADD77C,0.0833*%
%ADD78C,0.0794*%
G04:AMPARAMS|DCode=79|XSize=91.496mil|YSize=91.496mil|CornerRadius=0mil|HoleSize=0mil|Usage=FLASHONLY|Rotation=0.000|XOffset=0mil|YOffset=0mil|HoleType=Round|Shape=Relief|Width=10mil|Gap=10mil|Entries=4|*
%AMTHD79*
7,0,0,0.0915,0.0715,0.0100,45*
%
%ADD79THD79*%
G04:AMPARAMS|DCode=80|XSize=88mil|YSize=88mil|CornerRadius=0mil|HoleSize=0mil|Usage=FLASHONLY|Rotation=0.000|XOffset=0mil|YOffset=0mil|HoleType=Round|Shape=Relief|Width=10mil|Gap=10mil|Entries=4|*
%AMTHD80*
7,0,0,0.0880,0.0680,0.0100,45*
%
%ADD80THD80*%
G04:AMPARAMS|DCode=81|XSize=79.685mil|YSize=79.685mil|CornerRadius=0mil|HoleSize=0mil|Usage=FLASHONLY|Rotation=0.000|XOffset=0mil|YOffset=0mil|HoleType=Round|Shape=Relief|Width=10mil|Gap=10mil|Entries=4|*
%AMTHD81*
7,0,0,0.0797,0.0597,0.0100,45*
%
%ADD81THD81*%
%ADD82C,0.0680*%
%ADD83C,0.0597*%
G04:AMPARAMS|DCode=84|XSize=80mil|YSize=80mil|CornerRadius=0mil|HoleSize=0mil|Usage=FLASHONLY|Rotation=0.000|XOffset=0mil|YOffset=0mil|HoleType=Round|Shape=Relief|Width=10mil|Gap=10mil|Entries=4|*
%AMTHD84*
7,0,0,0.0800,0.0600,0.0100,45*
%
%ADD84THD84*%
%ADD85C,0.0650*%
G04:AMPARAMS|DCode=86|XSize=71.811mil|YSize=71.811mil|CornerRadius=0mil|HoleSize=0mil|Usage=FLASHONLY|Rotation=0.000|XOffset=0mil|YOffset=0mil|HoleType=Round|Shape=Relief|Width=10mil|Gap=10mil|Entries=4|*
%AMTHD86*
7,0,0,0.0718,0.0518,0.0100,45*
%
%ADD86THD86*%
G04:AMPARAMS|DCode=87|XSize=185.984mil|YSize=185.984mil|CornerRadius=0mil|HoleSize=0mil|Usage=FLASHONLY|Rotation=0.000|XOffset=0mil|YOffset=0mil|HoleType=Round|Shape=Relief|Width=10mil|Gap=10mil|Entries=4|*
%AMTHD87*
7,0,0,0.1860,0.1660,0.0100,45*
%
%ADD87THD87*%
%AMTHOVALD88*
21,1,0.0551,0.0994,0,0,360.0*
1,1,0.0994,-0.0276,0.0000*
1,1,0.0994,0.0276,0.0000*
21,0,0.0551,0.0794,0,0,360.0*
1,0,0.0794,-0.0276,0.0000*
1,0,0.0794,0.0276,0.0000*
4,0,4,-0.0240,-0.0035,-0.0592,-0.0387,-0.0662,-0.0316,-0.0311,0.0035,-0.0240,-0.0035,0.0*
4,0,4,0.0311,-0.0035,0.0662,0.0316,0.0592,0.0387,0.0240,0.0035,0.0311,-0.0035,0.0*
4,0,4,-0.0311,-0.0035,-0.0662,0.0316,-0.0592,0.0387,-0.0240,0.0035,-0.0311,-0.0035,0.0*
4,0,4,0.0240,-0.0035,0.0592,-0.0387,0.0662,-0.0316,0.0311,0.0035,0.0240,-0.0035,0.0*
%
%ADD88THOVALD88*%

%ADD89C,0.0080*%
%ADD90C,0.0079*%
%ADD91C,0.0118*%
%ADD92C,0.0098*%
%ADD93C,0.0236*%
%ADD94C,0.0315*%
%ADD95C,0.0157*%
%ADD96C,0.0197*%
%ADD97R,0.2520X0.2520*%
%ADD98R,1.0630X0.4724*%
%ADD99R,0.0671X0.0631*%
%ADD100R,0.0631X0.0671*%
%ADD101R,0.0749X0.0533*%
%ADD102O,0.1064X0.0356*%
%ADD103O,0.0356X0.1064*%
%ADD104O,0.0356X0.0986*%
%ADD105O,0.0986X0.0356*%
%ADD106R,0.0533X0.0749*%
%ADD107R,0.0474X0.0631*%
%ADD108R,0.0631X0.0474*%
%ADD109R,0.0749X0.1064*%
%ADD110R,0.0651X0.1517*%
%ADD111O,0.0198X0.0572*%
%ADD112R,0.1064X0.0749*%
%ADD113R,0.1517X0.0651*%
%ADD114R,0.1281X0.0474*%
%ADD115R,0.2639X0.2265*%
%ADD116C,0.1576*%
%ADD117C,0.0671*%
%ADD118R,0.0671X0.0671*%
%ADD119C,0.0474*%
%ADD120C,0.2836*%
%ADD121O,0.1419X0.0867*%
%ADD122O,0.1104X0.1419*%
%ADD123C,0.0946*%
%ADD124C,0.0867*%
%ADD125R,0.0671X0.0671*%
%ADD126C,0.1340*%
%ADD127C,0.1080*%
%ADD128C,0.2049*%
%ADD129C,0.1655*%
%ADD130C,0.2024*%
%ADD131C,0.0655*%
%ADD132R,0.0655X0.0655*%
%ADD133O,0.0671X0.0907*%
%ADD134R,0.0671X0.0907*%
%ADD135O,0.0907X0.0671*%
%ADD136R,0.0907X0.0671*%
%ADD137C,0.0580*%
%ADD138C,0.0395*%
%ADD139C,0.0316*%
%ADD140C,0.0480*%
%ADD141C,0.0277*%
D28*
X15185Y15170D02*
Y50603D01*
Y15170D02*
X86051D01*
Y50603D01*
X15185D02*
X86051D01*
X69872Y123991D02*
X105108D01*
X105305D01*
Y88558D02*
Y123991D01*
X69872Y88558D02*
X105305D01*
X69872D02*
Y123991D01*
X137819Y50703D02*
X157504D01*
Y31018D02*
Y50703D01*
X137819Y31018D02*
X157504D01*
X137819D02*
Y50703D01*
X116236Y14900D02*
X116246Y14890D01*
X116250Y14886D02*
X134891D01*
X116239Y14897D02*
X116250Y14886D01*
X116239Y14897D02*
Y33528D01*
X116249Y33537D01*
X134881D01*
X134891Y33528D01*
Y14886D02*
Y33528D01*
X95936Y14706D02*
X95946Y14696D01*
X95950Y14692D02*
X114591D01*
X95939Y14703D02*
X95950Y14692D01*
X95939Y14703D02*
Y33334D01*
X95949Y33344D01*
X114581D01*
X114591Y33334D01*
Y14692D02*
Y33334D01*
X46695Y118470D02*
Y122013D01*
X23624Y118470D02*
Y122013D01*
Y118470D02*
X46695D01*
X23624Y122013D02*
X46695D01*
X45788Y116977D02*
X49331D01*
X45788Y93906D02*
X49331D01*
Y116977D01*
X45788Y93906D02*
Y116977D01*
X20588Y94706D02*
X24131D01*
X20588Y117777D02*
X24131D01*
X20588Y94706D02*
Y117777D01*
X24131Y94706D02*
Y117777D01*
X20057Y122815D02*
X49584D01*
X20057Y59823D02*
Y122815D01*
X49584Y59823D02*
Y122815D01*
X152913Y106539D02*
Y125437D01*
X114330D02*
X152913D01*
X114330Y106539D02*
Y125437D01*
Y106539D02*
X152913D01*
X134015D02*
X152913D01*
X114330D02*
X134015D01*
X89746Y69078D02*
X109431D01*
Y49393D02*
Y69078D01*
X89746Y49393D02*
X109431D01*
X89746D02*
Y69078D01*
X174705Y984D02*
X226378D01*
X174705Y4429D02*
X196358D01*
X174705Y3445D02*
X196358D01*
X174705D02*
Y4429D01*
X196358Y3445D02*
Y4429D01*
X174705Y3445D02*
X175689Y4429D01*
Y3445D02*
X176673Y4429D01*
Y3445D02*
X177657Y4429D01*
Y3445D02*
X178642Y4429D01*
Y3445D02*
X179626Y4429D01*
Y3445D02*
X180610Y4429D01*
Y3445D02*
X181594Y4429D01*
Y3445D02*
X182579Y4429D01*
Y3445D02*
X183563Y4429D01*
Y3445D02*
X184547Y4429D01*
Y3445D02*
X185532Y4429D01*
Y3445D02*
X186516Y4429D01*
Y3445D02*
X187500Y4429D01*
Y3445D02*
X188484Y4429D01*
Y3445D02*
X189468Y4429D01*
Y3445D02*
X190453Y4429D01*
Y3445D02*
X191437Y4429D01*
Y3445D02*
X192421Y4429D01*
Y3445D02*
X193406Y4429D01*
Y3445D02*
X194390Y4429D01*
Y3445D02*
X195374Y4429D01*
Y3445D02*
X196358Y4429D01*
X174705Y17717D02*
X196358D01*
X174705Y16732D02*
X196358D01*
X174705D02*
Y17717D01*
X196358Y16732D02*
Y17717D01*
X174705Y16732D02*
X175689Y17717D01*
Y16732D02*
X176673Y17717D01*
Y16732D02*
X177657Y17717D01*
Y16732D02*
X178642Y17717D01*
Y16732D02*
X179626Y17717D01*
Y16732D02*
X180610Y17717D01*
Y16732D02*
X181594Y17717D01*
Y16732D02*
X182579Y17717D01*
Y16732D02*
X183563Y17717D01*
Y16732D02*
X184547Y17717D01*
Y16732D02*
X185532Y17717D01*
Y16732D02*
X186516Y17717D01*
Y16732D02*
X187500Y17717D01*
Y16732D02*
X188484Y17717D01*
Y16732D02*
X189468Y17717D01*
Y16732D02*
X190453Y17717D01*
Y16732D02*
X191437Y17717D01*
Y16732D02*
X192421Y17717D01*
Y16732D02*
X193406Y17717D01*
Y16732D02*
X194390Y17717D01*
Y16732D02*
X195374Y17717D01*
Y16732D02*
X196358Y17717D01*
X174705Y5906D02*
X196358D01*
X174705Y4921D02*
X196358D01*
X174705D02*
Y5906D01*
X196358Y4921D02*
Y5906D01*
X174705Y4921D02*
X175689Y5906D01*
Y4921D02*
X176673Y5906D01*
Y4921D02*
X177657Y5906D01*
Y4921D02*
X178642Y5906D01*
Y4921D02*
X179626Y5906D01*
Y4921D02*
X180610Y5906D01*
Y4921D02*
X181594Y5906D01*
Y4921D02*
X182579Y5906D01*
Y4921D02*
X183563Y5906D01*
Y4921D02*
X184547Y5906D01*
Y4921D02*
X185532Y5906D01*
Y4921D02*
X186516Y5906D01*
Y4921D02*
X187500Y5906D01*
Y4921D02*
X188484Y5906D01*
Y4921D02*
X189468Y5906D01*
Y4921D02*
X190453Y5906D01*
Y4921D02*
X191437Y5906D01*
Y4921D02*
X192421Y5906D01*
Y4921D02*
X193406Y5906D01*
Y4921D02*
X194390Y5906D01*
Y4921D02*
X195374Y5906D01*
Y4921D02*
X196358Y5906D01*
X195374D02*
X196358Y6890D01*
X194390Y5906D02*
X195374Y6890D01*
X193406Y5906D02*
X194390Y6890D01*
X192421Y5906D02*
X193406Y6890D01*
X191437Y5906D02*
X192421Y6890D01*
X190453Y5906D02*
X191437Y6890D01*
X189468Y5906D02*
X190453Y6890D01*
X188484Y5906D02*
X189468Y6890D01*
X187500Y5906D02*
X188484Y6890D01*
X186516Y5906D02*
X187500Y6890D01*
X185532Y5906D02*
X186516Y6890D01*
X184547Y5906D02*
X185532Y6890D01*
X183563Y5906D02*
X184547Y6890D01*
X182579Y5906D02*
X183563Y6890D01*
X181594Y5906D02*
X182579Y6890D01*
X180610Y5906D02*
X181594Y6890D01*
X179626Y5906D02*
X180610Y6890D01*
X178642Y5906D02*
X179626Y6890D01*
X177657Y5906D02*
X178642Y6890D01*
X176673Y5906D02*
X177657Y6890D01*
X175689Y5906D02*
X176673Y6890D01*
X174705Y5906D02*
X175689Y6890D01*
X196358Y5906D02*
Y6890D01*
X174705Y5906D02*
Y6890D01*
Y5906D02*
X196358D01*
X174705Y6890D02*
X196358D01*
Y7382D02*
Y8366D01*
X174705Y7382D02*
Y8366D01*
Y7382D02*
X196358D01*
X174705Y8366D02*
X196358D01*
X174705Y9843D02*
X196358D01*
X174705Y8858D02*
X196358D01*
X174705D02*
Y9843D01*
X196358Y8858D02*
Y9843D01*
X174705Y8858D02*
X175689Y9843D01*
Y8858D02*
X176673Y9843D01*
Y8858D02*
X177657Y9843D01*
Y8858D02*
X178642Y9843D01*
Y8858D02*
X179626Y9843D01*
Y8858D02*
X180610Y9843D01*
Y8858D02*
X181594Y9843D01*
Y8858D02*
X182579Y9843D01*
Y8858D02*
X183563Y9843D01*
Y8858D02*
X184547Y9843D01*
Y8858D02*
X185532Y9843D01*
Y8858D02*
X186516Y9843D01*
Y8858D02*
X187500Y9843D01*
Y8858D02*
X188484Y9843D01*
Y8858D02*
X189468Y9843D01*
Y8858D02*
X190453Y9843D01*
Y8858D02*
X191437Y9843D01*
Y8858D02*
X192421Y9843D01*
Y8858D02*
X193406Y9843D01*
Y8858D02*
X194390Y9843D01*
Y8858D02*
X195374Y9843D01*
Y8858D02*
X196358Y9843D01*
Y12795D01*
X174705Y9843D02*
Y12795D01*
Y9843D02*
X196358D01*
X174705Y12795D02*
X196358D01*
X174705Y15256D02*
X196358D01*
X174705Y14272D02*
X196358D01*
X174705D02*
Y15256D01*
X196358Y14272D02*
Y15256D01*
X174705Y13780D02*
X196358D01*
X174705Y12795D02*
X196358D01*
X174705D02*
Y13780D01*
X196358Y12795D02*
Y13780D01*
X174705Y12795D02*
X175689Y13780D01*
Y12795D02*
X176673Y13780D01*
Y12795D02*
X177657Y13780D01*
Y12795D02*
X178642Y13780D01*
Y12795D02*
X179626Y13780D01*
Y12795D02*
X180610Y13780D01*
Y12795D02*
X181594Y13780D01*
Y12795D02*
X182579Y13780D01*
Y12795D02*
X183563Y13780D01*
Y12795D02*
X184547Y13780D01*
Y12795D02*
X185532Y13780D01*
Y12795D02*
X186516Y13780D01*
Y12795D02*
X187500Y13780D01*
Y12795D02*
X188484Y13780D01*
Y12795D02*
X189468Y13780D01*
Y12795D02*
X190453Y13780D01*
Y12795D02*
X191437Y13780D01*
Y12795D02*
X192421Y13780D01*
Y12795D02*
X193406Y13780D01*
Y12795D02*
X194390Y13780D01*
Y12795D02*
X195374Y13780D01*
Y12795D02*
X196358Y13780D01*
X174705Y16732D02*
X196358D01*
X174705Y15748D02*
X196358D01*
X174705D02*
Y16732D01*
X196358Y15748D02*
Y16732D01*
X174705Y15748D02*
X175689Y16732D01*
Y15748D02*
X176673Y16732D01*
Y15748D02*
X177657Y16732D01*
Y15748D02*
X178642Y16732D01*
Y15748D02*
X179626Y16732D01*
Y15748D02*
X180610Y16732D01*
Y15748D02*
X181594Y16732D01*
Y15748D02*
X182579Y16732D01*
Y15748D02*
X183563Y16732D01*
Y15748D02*
X184547Y16732D01*
Y15748D02*
X185532Y16732D01*
Y15748D02*
X186516Y16732D01*
Y15748D02*
X187500Y16732D01*
Y15748D02*
X188484Y16732D01*
Y15748D02*
X189468Y16732D01*
Y15748D02*
X190453Y16732D01*
Y15748D02*
X191437Y16732D01*
Y15748D02*
X192421Y16732D01*
Y15748D02*
X193406Y16732D01*
Y15748D02*
X194390Y16732D01*
Y15748D02*
X195374Y16732D01*
Y15748D02*
X196358Y16732D01*
X195374Y3445D02*
X196358Y4429D01*
X194390Y3445D02*
X195374Y4429D01*
X193406Y3445D02*
X194390Y4429D01*
X192421Y3445D02*
X193406Y4429D01*
X191437Y3445D02*
X192421Y4429D01*
X190453Y3445D02*
X191437Y4429D01*
X189468Y3445D02*
X190453Y4429D01*
X188484Y3445D02*
X189468Y4429D01*
X187500Y3445D02*
X188484Y4429D01*
X186516Y3445D02*
X187500Y4429D01*
X185532Y3445D02*
X186516Y4429D01*
X184547Y3445D02*
X185532Y4429D01*
X183563Y3445D02*
X184547Y4429D01*
X182579Y3445D02*
X183563Y4429D01*
X181594Y3445D02*
X182579Y4429D01*
X180610Y3445D02*
X181594Y4429D01*
X179626Y3445D02*
X180610Y4429D01*
X178642Y3445D02*
X179626Y4429D01*
X177657Y3445D02*
X178642Y4429D01*
X176673Y3445D02*
X177657Y4429D01*
X175689Y3445D02*
X176673Y4429D01*
X174705Y3445D02*
X175689Y4429D01*
X196358Y3445D02*
Y4429D01*
X174705Y3445D02*
Y4429D01*
Y3445D02*
X196358D01*
X174705Y4429D02*
X196358D01*
X195374Y18209D02*
X196358Y19193D01*
X194390Y18209D02*
X195374Y19193D01*
X193406Y18209D02*
X194390Y19193D01*
X192421Y18209D02*
X193406Y19193D01*
X191437Y18209D02*
X192421Y19193D01*
X190453Y18209D02*
X191437Y19193D01*
X189468Y18209D02*
X190453Y19193D01*
X188484Y18209D02*
X189468Y19193D01*
X187500Y18209D02*
X188484Y19193D01*
X186516Y18209D02*
X187500Y19193D01*
X185532Y18209D02*
X186516Y19193D01*
X184547Y18209D02*
X185532Y19193D01*
X183563Y18209D02*
X184547Y19193D01*
X182579Y18209D02*
X183563Y19193D01*
X181594Y18209D02*
X182579Y19193D01*
X180610Y18209D02*
X181594Y19193D01*
X179626Y18209D02*
X180610Y19193D01*
X178642Y18209D02*
X179626Y19193D01*
X177657Y18209D02*
X178642Y19193D01*
X176673Y18209D02*
X177657Y19193D01*
X175689Y18209D02*
X176673Y19193D01*
X174705Y18209D02*
X175689Y19193D01*
X196358Y18209D02*
Y19193D01*
X174705Y18209D02*
Y19193D01*
Y18209D02*
X196358D01*
X174705Y19193D02*
X196358D01*
X195374Y19685D02*
X196358Y20669D01*
X194390Y19685D02*
X195374Y20669D01*
X193406Y19685D02*
X194390Y20669D01*
X192421Y19685D02*
X193406Y20669D01*
X191437Y19685D02*
X192421Y20669D01*
X190453Y19685D02*
X191437Y20669D01*
X189468Y19685D02*
X190453Y20669D01*
X188484Y19685D02*
X189468Y20669D01*
X187500Y19685D02*
X188484Y20669D01*
X186516Y19685D02*
X187500Y20669D01*
X185532Y19685D02*
X186516Y20669D01*
X184547Y19685D02*
X185532Y20669D01*
X183563Y19685D02*
X184547Y20669D01*
X182579Y19685D02*
X183563Y20669D01*
X181594Y19685D02*
X182579Y20669D01*
X180610Y19685D02*
X181594Y20669D01*
X179626Y19685D02*
X180610Y20669D01*
X178642Y19685D02*
X179626Y20669D01*
X177657Y19685D02*
X178642Y20669D01*
X176673Y19685D02*
X177657Y20669D01*
X175689Y19685D02*
X176673Y20669D01*
X174705Y19685D02*
X175689Y20669D01*
X196358Y19685D02*
Y20669D01*
X174705Y19685D02*
Y20669D01*
Y19685D02*
X196358D01*
X174705Y20669D02*
X196358D01*
X195374Y1969D02*
X196358Y2953D01*
X194390Y1969D02*
X195374Y2953D01*
X193406Y1969D02*
X194390Y2953D01*
X192421Y1969D02*
X193406Y2953D01*
X191437Y1969D02*
X192421Y2953D01*
X190453Y1969D02*
X191437Y2953D01*
X189468Y1969D02*
X190453Y2953D01*
X188484Y1969D02*
X189468Y2953D01*
X187500Y1969D02*
X188484Y2953D01*
X186516Y1969D02*
X187500Y2953D01*
X185532Y1969D02*
X186516Y2953D01*
X184547Y1969D02*
X185532Y2953D01*
X183563Y1969D02*
X184547Y2953D01*
X182579Y1969D02*
X183563Y2953D01*
X181594Y1969D02*
X182579Y2953D01*
X180610Y1969D02*
X181594Y2953D01*
X179626Y1969D02*
X180610Y2953D01*
X178642Y1969D02*
X179626Y2953D01*
X177657Y1969D02*
X178642Y2953D01*
X176673Y1969D02*
X177657Y2953D01*
X175689Y1969D02*
X176673Y2953D01*
X174705Y1969D02*
X175689Y2953D01*
X196358Y1969D02*
Y2953D01*
X174705Y1969D02*
Y2953D01*
Y1969D02*
X196358D01*
X174705Y2953D02*
X196358D01*
X196850Y2461D02*
X197343Y1969D01*
Y2953D01*
X196850Y2461D02*
X197343Y2953D01*
X196850Y2461D02*
X201280D01*
X196850Y3937D02*
X197343Y3445D01*
Y4429D01*
X196850Y3937D02*
X197343Y4429D01*
X196850Y3937D02*
X201280D01*
X196850Y5413D02*
X197343Y4921D01*
Y5906D01*
X196850Y5413D02*
X197343Y5906D01*
X196850Y5413D02*
X201280D01*
X196850Y6398D02*
X197343Y5906D01*
Y6890D01*
X196850Y6398D02*
X197343Y6890D01*
X196850Y6398D02*
X201280D01*
X196850Y9350D02*
X197343Y8858D01*
Y9843D01*
X196850Y9350D02*
X197343Y9843D01*
X196850Y9350D02*
X201280D01*
X196850Y13287D02*
X197343Y12795D01*
Y13780D01*
X196850Y13287D02*
X197343Y13780D01*
X196850Y13287D02*
X201280D01*
X196850Y16240D02*
X197343Y15748D01*
Y16732D01*
X196850Y16240D02*
X197343Y16732D01*
X196850Y16240D02*
X201280D01*
X196850Y17224D02*
X197343Y16732D01*
Y17717D01*
X196850Y17224D02*
X197343Y17717D01*
X196850Y17224D02*
X201280D01*
X196850Y11319D02*
X197343Y10827D01*
Y11811D01*
X196850Y11319D02*
X197343Y11811D01*
X196850Y11319D02*
X206201D01*
X196850Y7874D02*
X197343Y7382D01*
Y8366D01*
X196850Y7874D02*
X197343Y8366D01*
X196850Y7874D02*
X206201D01*
X196850Y14764D02*
X197343Y14272D01*
Y15256D01*
X196850Y14764D02*
X197343Y15256D01*
X196850Y14764D02*
X206201D01*
X196850Y18701D02*
X197343Y18209D01*
Y19193D01*
X196850Y18701D02*
X197343Y19193D01*
X196850Y18701D02*
X201280D01*
X196850Y20177D02*
X197343Y19685D01*
Y20669D01*
X196850Y20177D02*
X197343Y20669D01*
X196850Y20177D02*
X201280D01*
X174705Y23130D02*
X226870D01*
D31*
X32114Y31387D02*
Y32887D01*
X32864D01*
X33114Y32637D01*
Y32387D01*
X32864Y32137D01*
X32114D01*
X32864D01*
X33114Y31887D01*
Y31637D01*
X32864Y31387D01*
X32114D01*
X33864Y31887D02*
X34364D01*
X34614Y32137D01*
Y32887D01*
X33864D01*
X33614Y32637D01*
X33864Y32387D01*
X34614D01*
X35363Y31637D02*
Y31887D01*
X35114D01*
X35613D01*
X35363D01*
Y32637D01*
X35613Y32887D01*
X36613Y31637D02*
Y31887D01*
X36363D01*
X36863D01*
X36613D01*
Y32637D01*
X36863Y32887D01*
X38362D02*
X37863D01*
X37613Y32637D01*
Y32137D01*
X37863Y31887D01*
X38362D01*
X38612Y32137D01*
Y32387D01*
X37613D01*
X39112Y31887D02*
Y32887D01*
Y32387D01*
X39362Y32137D01*
X39612Y31887D01*
X39862D01*
X40612D02*
Y32637D01*
X40862Y32887D01*
X41611D01*
Y33137D01*
X41361Y33387D01*
X41112D01*
X41611Y32887D02*
Y31887D01*
X44610Y31637D02*
X44361Y31387D01*
X43861D01*
X43611Y31637D01*
Y32637D01*
X43861Y32887D01*
X44361D01*
X44610Y32637D01*
X45110Y31387D02*
Y32887D01*
Y32137D01*
X45360Y31887D01*
X45860D01*
X46110Y32137D01*
Y32887D01*
X46860Y31887D02*
X47360D01*
X47609Y32137D01*
Y32887D01*
X46860D01*
X46610Y32637D01*
X46860Y32387D01*
X47609D01*
X48109Y31887D02*
Y32887D01*
Y32387D01*
X48359Y32137D01*
X48609Y31887D01*
X48859D01*
X50109Y33387D02*
X50359D01*
X50609Y33137D01*
Y31887D01*
X49859D01*
X49609Y32137D01*
Y32637D01*
X49859Y32887D01*
X50609D01*
X51858D02*
X51358D01*
X51108Y32637D01*
Y32137D01*
X51358Y31887D01*
X51858D01*
X52108Y32137D01*
Y32387D01*
X51108D01*
X54107Y32887D02*
Y31387D01*
X54857D01*
X55107Y31637D01*
Y32137D01*
X54857Y32387D01*
X54107D01*
X54607D02*
X55107Y32887D01*
X56357D02*
X55857D01*
X55607Y32637D01*
Y32137D01*
X55857Y31887D01*
X56357D01*
X56607Y32137D01*
Y32387D01*
X55607D01*
X57606Y33387D02*
X57856D01*
X58106Y33137D01*
Y31887D01*
X57356D01*
X57106Y32137D01*
Y32637D01*
X57356Y32887D01*
X58106D01*
X58606Y31887D02*
Y32637D01*
X58856Y32887D01*
X59606D01*
Y31887D01*
X60105Y32887D02*
X60605D01*
X60355D01*
Y31387D01*
X60105D01*
X61605Y31887D02*
X62105D01*
X62355Y32137D01*
Y32887D01*
X61605D01*
X61355Y32637D01*
X61605Y32387D01*
X62355D01*
X63104Y31637D02*
Y31887D01*
X62855D01*
X63354D01*
X63104D01*
Y32637D01*
X63354Y32887D01*
X64354D02*
X64854D01*
X65104Y32637D01*
Y32137D01*
X64854Y31887D01*
X64354D01*
X64104Y32137D01*
Y32637D01*
X64354Y32887D01*
X65604Y31887D02*
Y32887D01*
Y32387D01*
X65854Y32137D01*
X66103Y31887D01*
X66353D01*
X97021Y106732D02*
X97271Y106982D01*
X97771D01*
X98021Y106732D01*
Y105732D01*
X97771Y105482D01*
X97271D01*
X97021Y105732D01*
X96271Y105482D02*
X95771D01*
X95522Y105732D01*
Y106232D01*
X95771Y106482D01*
X96271D01*
X96521Y106232D01*
Y105732D01*
X96271Y105482D01*
X95022D02*
Y106482D01*
X94772D01*
X94522Y106232D01*
Y105482D01*
Y106232D01*
X94272Y106482D01*
X94022Y106232D01*
Y105482D01*
X93522D02*
Y106482D01*
X93272D01*
X93022Y106232D01*
Y105482D01*
Y106232D01*
X92772Y106482D01*
X92523Y106232D01*
Y105482D01*
X92023Y106482D02*
Y105732D01*
X91773Y105482D01*
X91023D01*
Y106482D01*
X90523Y105482D02*
Y106482D01*
X89773D01*
X89523Y106232D01*
Y105482D01*
X89024D02*
X88524D01*
X88774D01*
Y106482D01*
X89024D01*
X86774D02*
X87524D01*
X87774Y106232D01*
Y105732D01*
X87524Y105482D01*
X86774D01*
X86025Y106482D02*
X85525D01*
X85275Y106232D01*
Y105482D01*
X86025D01*
X86275Y105732D01*
X86025Y105982D01*
X85275D01*
X84525Y106732D02*
Y106482D01*
X84775D01*
X84275D01*
X84525D01*
Y105732D01*
X84275Y105482D01*
X83525D02*
X83026D01*
X83276D01*
Y106482D01*
X83525D01*
X82026Y105482D02*
X81526D01*
X81276Y105732D01*
Y106232D01*
X81526Y106482D01*
X82026D01*
X82276Y106232D01*
Y105732D01*
X82026Y105482D01*
X80776D02*
Y106482D01*
X80027D01*
X79777Y106232D01*
Y105482D01*
X79277D02*
X78527D01*
X78277Y105732D01*
X78527Y105982D01*
X79027D01*
X79277Y106232D01*
X79027Y106482D01*
X78277D01*
X139984Y39952D02*
Y41451D01*
X140984D01*
X141483Y39952D02*
Y40951D01*
X141983Y41451D01*
X142483Y40951D01*
Y39952D01*
X145482Y40202D02*
X145232Y39952D01*
X144732D01*
X144482Y40202D01*
Y40452D01*
X144732Y40702D01*
X145232D01*
X145482Y40951D01*
Y41201D01*
X145232Y41451D01*
X144732D01*
X144482Y41201D01*
X145982Y40452D02*
Y41201D01*
X146232Y41451D01*
X146482Y41201D01*
X146732Y41451D01*
X146982Y41201D01*
Y40452D01*
X147482Y41451D02*
X147981D01*
X147731D01*
Y40452D01*
X147482D01*
X148981Y40202D02*
Y40452D01*
X148731D01*
X149231D01*
X148981D01*
Y41201D01*
X149231Y41451D01*
X150980Y40452D02*
X150231D01*
X149981Y40702D01*
Y41201D01*
X150231Y41451D01*
X150980D01*
X151480Y39952D02*
Y41451D01*
Y40702D01*
X151730Y40452D01*
X152230D01*
X152480Y40702D01*
Y41451D01*
X153729D02*
X153230D01*
X152980Y41201D01*
Y40702D01*
X153230Y40452D01*
X153729D01*
X153979Y40702D01*
Y40951D01*
X152980D01*
X154479Y40452D02*
Y41451D01*
Y40951D01*
X154729Y40702D01*
X154979Y40452D01*
X155229D01*
X123434Y23563D02*
X124434D01*
X123934D01*
Y25063D01*
X124934D02*
Y23563D01*
X125683D01*
X125933Y23813D01*
Y24313D01*
X125683Y24563D01*
X124934D01*
X125433D02*
X125933Y25063D01*
X126433Y23563D02*
X127433Y25063D01*
Y23563D02*
X126433Y25063D01*
X103134Y23370D02*
X104134D01*
X103634D01*
Y24869D01*
X104634D02*
Y23370D01*
X105383D01*
X105633Y23620D01*
Y24120D01*
X105383Y24369D01*
X104634D01*
X105133D02*
X105633Y24869D01*
X106133Y23370D02*
X107133Y24869D01*
Y23370D02*
X106133Y24869D01*
X141710Y85519D02*
Y84020D01*
X140960D01*
X140710Y84270D01*
Y84520D01*
X140960Y84769D01*
X141710D01*
X140960D01*
X140710Y85019D01*
Y85269D01*
X140960Y85519D01*
X141710D01*
X139211D02*
X140210D01*
Y84020D01*
X139211D01*
X140210Y84769D02*
X139710D01*
X138711Y84020D02*
Y85019D01*
X138211Y85519D01*
X137711Y85019D01*
Y84020D01*
Y84769D01*
X138711D01*
X136212Y85269D02*
X136462Y85519D01*
X136961D01*
X137211Y85269D01*
Y84270D01*
X136961Y84020D01*
X136462D01*
X136212Y84270D01*
Y84769D01*
X136711D01*
X135712Y85519D02*
Y84020D01*
X134712D01*
X133213Y85519D02*
X134212D01*
Y84020D01*
X133213D01*
X134212Y84769D02*
X133712D01*
X132713Y85519D02*
Y84020D01*
X131963D01*
X131713Y84270D01*
Y84520D01*
X131963Y84769D01*
X132713D01*
X131963D01*
X131713Y85019D01*
Y85269D01*
X131963Y85519D01*
X132713D01*
X130463D02*
X130963D01*
X131213Y85269D01*
Y84270D01*
X130963Y84020D01*
X130463D01*
X130214Y84270D01*
Y85269D01*
X130463Y85519D01*
X129714Y84020D02*
Y85519D01*
X128714Y84020D01*
Y85519D01*
X127215D02*
X128214D01*
Y84020D01*
X127215D01*
X128214Y84769D02*
X127714D01*
X36070Y73618D02*
X36320Y73368D01*
Y72868D01*
X36070Y72619D01*
X35070D01*
X34820Y72868D01*
Y73368D01*
X35070Y73618D01*
X35820Y74118D02*
X34820D01*
X35320D01*
X35570Y74368D01*
X35820Y74618D01*
Y74868D01*
X34820Y75618D02*
Y76117D01*
Y75868D01*
X35820D01*
Y75618D01*
X36070Y77117D02*
X35820D01*
Y76867D01*
Y77367D01*
Y77117D01*
X35070D01*
X34820Y77367D01*
Y78117D02*
Y78617D01*
Y78367D01*
X35820D01*
Y78117D01*
Y80366D02*
Y79616D01*
X35570Y79366D01*
X35070D01*
X34820Y79616D01*
Y80366D01*
X35820Y81116D02*
Y81616D01*
X35570Y81866D01*
X34820D01*
Y81116D01*
X35070Y80866D01*
X35320Y81116D01*
Y81866D01*
X34820Y82365D02*
Y82865D01*
Y82615D01*
X36320D01*
Y82365D01*
X36070Y86114D02*
X36320Y85864D01*
Y85364D01*
X36070Y85115D01*
X35820D01*
X35570Y85364D01*
Y85864D01*
X35320Y86114D01*
X35070D01*
X34820Y85864D01*
Y85364D01*
X35070Y85115D01*
X35820Y86614D02*
X35070D01*
X34820Y86864D01*
Y87614D01*
X34570D01*
X34320Y87364D01*
Y87114D01*
X34820Y87614D02*
X35820D01*
X34820Y88114D02*
Y88863D01*
X35070Y89113D01*
X35320Y88863D01*
Y88363D01*
X35570Y88114D01*
X35820Y88363D01*
Y89113D01*
X36070Y89863D02*
X35820D01*
Y89613D01*
Y90113D01*
Y89863D01*
X35070D01*
X34820Y90113D01*
Y91612D02*
Y91113D01*
X35070Y90863D01*
X35570D01*
X35820Y91113D01*
Y91612D01*
X35570Y91862D01*
X35320D01*
Y90863D01*
X34820Y92362D02*
X35820D01*
Y92612D01*
X35570Y92862D01*
X34820D01*
X35570D01*
X35820Y93112D01*
X35570Y93362D01*
X34820D01*
Y93862D02*
Y94611D01*
X35070Y94861D01*
X35320Y94611D01*
Y94112D01*
X35570Y93862D01*
X35820Y94112D01*
Y94861D01*
X36070Y97860D02*
X36320Y97610D01*
Y97111D01*
X36070Y96861D01*
X35070D01*
X34820Y97111D01*
Y97610D01*
X35070Y97860D01*
X34820Y98610D02*
Y99110D01*
X35070Y99360D01*
X35570D01*
X35820Y99110D01*
Y98610D01*
X35570Y98360D01*
X35070D01*
X34820Y98610D01*
Y99860D02*
X35820D01*
Y100110D01*
X35570Y100360D01*
X34820D01*
X35570D01*
X35820Y100610D01*
X35570Y100859D01*
X34820D01*
X34320Y101359D02*
X35820D01*
Y102109D01*
X35570Y102359D01*
X35070D01*
X34820Y102109D01*
Y101359D01*
X35820Y102859D02*
X35070D01*
X34820Y103109D01*
Y103858D01*
X35820D01*
X36070Y104608D02*
X35820D01*
Y104358D01*
Y104858D01*
Y104608D01*
X35070D01*
X34820Y104858D01*
Y106358D02*
Y105858D01*
X35070Y105608D01*
X35570D01*
X35820Y105858D01*
Y106358D01*
X35570Y106608D01*
X35320D01*
Y105608D01*
X35820Y107107D02*
X34820D01*
X35320D01*
X35570Y107357D01*
X35820Y107607D01*
Y107857D01*
X135980Y117143D02*
X136230Y117393D01*
X136730D01*
X136980Y117143D01*
Y116144D01*
X136730Y115894D01*
X136230D01*
X135980Y116144D01*
Y116643D01*
X136480D01*
X135480Y115894D02*
Y117393D01*
X134980Y116893D01*
X134480Y117393D01*
Y115894D01*
X132981Y117143D02*
X133231Y117393D01*
X133731D01*
X133981Y117143D01*
Y116893D01*
X133731Y116643D01*
X133231D01*
X132981Y116394D01*
Y116144D01*
X133231Y115894D01*
X133731D01*
X133981Y116144D01*
X132481Y117393D02*
Y115894D01*
Y116394D01*
X131481Y117393D01*
X132231Y116643D01*
X131481Y115894D01*
X91912Y58327D02*
Y59826D01*
X92911D01*
X93411Y58327D02*
Y59327D01*
X93911Y59826D01*
X94411Y59327D01*
Y58327D01*
X97410Y58577D02*
X97160Y58327D01*
X96660D01*
X96410Y58577D01*
Y58827D01*
X96660Y59077D01*
X97160D01*
X97410Y59327D01*
Y59576D01*
X97160Y59826D01*
X96660D01*
X96410Y59576D01*
X97910Y58827D02*
Y59576D01*
X98160Y59826D01*
X98410Y59576D01*
X98660Y59826D01*
X98910Y59576D01*
Y58827D01*
X99409Y59826D02*
X99909D01*
X99659D01*
Y58827D01*
X99409D01*
X100909Y58577D02*
Y58827D01*
X100659D01*
X101159D01*
X100909D01*
Y59576D01*
X101159Y59826D01*
X102908Y58827D02*
X102158D01*
X101909Y59077D01*
Y59576D01*
X102158Y59826D01*
X102908D01*
X103408Y58327D02*
Y59826D01*
Y59077D01*
X103658Y58827D01*
X104158D01*
X104408Y59077D01*
Y59826D01*
X105657D02*
X105158D01*
X104908Y59576D01*
Y59077D01*
X105158Y58827D01*
X105657D01*
X105907Y59077D01*
Y59327D01*
X104908D01*
X106407Y58827D02*
Y59826D01*
Y59327D01*
X106657Y59077D01*
X106907Y58827D01*
X107157D01*
D35*
X169291Y0D02*
Y137795D01*
X0Y0D02*
X169291D01*
X0D02*
Y137795D01*
X169291D01*
D36*
X174705Y55034D02*
X175005D01*
X174855D01*
Y54134D01*
X174705D01*
X175005D01*
X175454D02*
Y55034D01*
X175904D01*
X176054Y54884D01*
Y54584D01*
X175904Y54434D01*
X175454D01*
X176954Y54884D02*
X176804Y55034D01*
X176504D01*
X176354Y54884D01*
Y54284D01*
X176504Y54134D01*
X176804D01*
X176954Y54284D01*
X177254Y54584D02*
X177854D01*
X178753Y55034D02*
X178454Y54884D01*
X178154Y54584D01*
Y54284D01*
X178304Y54134D01*
X178603D01*
X178753Y54284D01*
Y54434D01*
X178603Y54584D01*
X178154D01*
X179053Y54884D02*
X179203Y55034D01*
X179503D01*
X179653Y54884D01*
Y54284D01*
X179503Y54134D01*
X179203D01*
X179053Y54284D01*
Y54884D01*
X179953Y54134D02*
X180253D01*
X180103D01*
Y55034D01*
X179953Y54884D01*
X181303Y54134D02*
X180703D01*
X181303Y54734D01*
Y54884D01*
X181153Y55034D01*
X180853D01*
X180703Y54884D01*
X183102D02*
X182952Y55034D01*
X182652D01*
X182502Y54884D01*
Y54284D01*
X182652Y54134D01*
X182952D01*
X183102Y54284D01*
X183402Y54134D02*
X183702D01*
X183552D01*
Y55034D01*
X183402D01*
X184302Y54734D02*
X184602D01*
X184751Y54584D01*
Y54134D01*
X184302D01*
X184152Y54284D01*
X184302Y54434D01*
X184751D01*
X185051Y54134D02*
X185501D01*
X185651Y54284D01*
X185501Y54434D01*
X185201D01*
X185051Y54584D01*
X185201Y54734D01*
X185651D01*
X185951Y54134D02*
X186401D01*
X186551Y54284D01*
X186401Y54434D01*
X186101D01*
X185951Y54584D01*
X186101Y54734D01*
X186551D01*
X188350Y54134D02*
X187751D01*
X188350Y54734D01*
Y54884D01*
X188200Y55034D01*
X187900D01*
X187751Y54884D01*
X190150Y55034D02*
X189550D01*
Y54134D01*
X190150D01*
X189550Y54584D02*
X189850D01*
X190450Y54734D02*
X191049Y54134D01*
X190750Y54434D01*
X191049Y54734D01*
X190450Y54134D01*
X191949Y54734D02*
X191499D01*
X191349Y54584D01*
Y54284D01*
X191499Y54134D01*
X191949D01*
X192699D02*
X192399D01*
X192249Y54284D01*
Y54584D01*
X192399Y54734D01*
X192699D01*
X192849Y54584D01*
Y54434D01*
X192249D01*
X193149Y53834D02*
Y54734D01*
X193599D01*
X193749Y54584D01*
Y54284D01*
X193599Y54134D01*
X193149D01*
X194198Y54884D02*
Y54734D01*
X194048D01*
X194348D01*
X194198D01*
Y54284D01*
X194348Y54134D01*
X195848Y54734D02*
X196148D01*
X196298Y54584D01*
Y54134D01*
X195848D01*
X195698Y54284D01*
X195848Y54434D01*
X196298D01*
X196598Y54134D02*
X197048D01*
X197197Y54284D01*
X197048Y54434D01*
X196748D01*
X196598Y54584D01*
X196748Y54734D01*
X197197D01*
X198397Y55034D02*
Y54134D01*
X198847D01*
X198997Y54284D01*
Y54434D01*
Y54584D01*
X198847Y54734D01*
X198397D01*
X199747Y54134D02*
X199447D01*
X199297Y54284D01*
Y54584D01*
X199447Y54734D01*
X199747D01*
X199897Y54584D01*
Y54434D01*
X199297D01*
X200196Y54134D02*
X200496D01*
X200346D01*
Y55034D01*
X200196D01*
X201096Y54134D02*
X201396D01*
X201546Y54284D01*
Y54584D01*
X201396Y54734D01*
X201096D01*
X200946Y54584D01*
Y54284D01*
X201096Y54134D01*
X201846Y54734D02*
Y54284D01*
X201996Y54134D01*
X202146Y54284D01*
X202296Y54134D01*
X202446Y54284D01*
Y54734D01*
X174705Y40354D02*
Y40954D01*
X175005Y41254D01*
X175305Y40954D01*
Y40354D01*
Y40804D01*
X174705D01*
X175604Y40354D02*
X175904D01*
X175754D01*
Y41254D01*
X175604D01*
X176354Y40354D02*
X176654D01*
X176504D01*
Y41254D01*
X176354D01*
X178454Y40354D02*
X178154D01*
X178004Y40504D01*
Y40804D01*
X178154Y40954D01*
X178454D01*
X178603Y40804D01*
Y40654D01*
X178004D01*
X178903Y40954D02*
X179503Y40354D01*
X179203Y40654D01*
X179503Y40954D01*
X178903Y40354D01*
X179803Y40054D02*
Y40954D01*
X180253D01*
X180403Y40804D01*
Y40504D01*
X180253Y40354D01*
X179803D01*
X180853D02*
X181153D01*
X181303Y40504D01*
Y40804D01*
X181153Y40954D01*
X180853D01*
X180703Y40804D01*
Y40504D01*
X180853Y40354D01*
X181602D02*
X182052D01*
X182202Y40504D01*
X182052Y40654D01*
X181752D01*
X181602Y40804D01*
X181752Y40954D01*
X182202D01*
X182952Y40354D02*
X182652D01*
X182502Y40504D01*
Y40804D01*
X182652Y40954D01*
X182952D01*
X183102Y40804D01*
Y40654D01*
X182502D01*
X184002Y41254D02*
Y40354D01*
X183552D01*
X183402Y40504D01*
Y40804D01*
X183552Y40954D01*
X184002D01*
X185801D02*
X185351D01*
X185201Y40804D01*
Y40504D01*
X185351Y40354D01*
X185801D01*
X186251D02*
X186551D01*
X186701Y40504D01*
Y40804D01*
X186551Y40954D01*
X186251D01*
X186101Y40804D01*
Y40504D01*
X186251Y40354D01*
X187001Y40054D02*
Y40954D01*
X187451D01*
X187601Y40804D01*
Y40504D01*
X187451Y40354D01*
X187001D01*
X187900Y40054D02*
Y40954D01*
X188350D01*
X188500Y40804D01*
Y40504D01*
X188350Y40354D01*
X187900D01*
X189250D02*
X188950D01*
X188800Y40504D01*
Y40804D01*
X188950Y40954D01*
X189250D01*
X189400Y40804D01*
Y40654D01*
X188800D01*
X189700Y40954D02*
Y40354D01*
Y40654D01*
X189850Y40804D01*
X190000Y40954D01*
X190150D01*
X191649D02*
X191949D01*
X192099Y40804D01*
Y40354D01*
X191649D01*
X191499Y40504D01*
X191649Y40654D01*
X192099D01*
X192399Y40954D02*
Y40354D01*
Y40654D01*
X192549Y40804D01*
X192699Y40954D01*
X192849D01*
X193749Y40354D02*
X193449D01*
X193299Y40504D01*
Y40804D01*
X193449Y40954D01*
X193749D01*
X193899Y40804D01*
Y40654D01*
X193299D01*
X194348Y40954D02*
X194648D01*
X194798Y40804D01*
Y40354D01*
X194348D01*
X194198Y40504D01*
X194348Y40654D01*
X194798D01*
X195098Y40354D02*
X195548D01*
X195698Y40504D01*
X195548Y40654D01*
X195248D01*
X195098Y40804D01*
X195248Y40954D01*
X195698D01*
X196898Y40354D02*
X197347D01*
X197497Y40504D01*
X197347Y40654D01*
X197048D01*
X196898Y40804D01*
X197048Y40954D01*
X197497D01*
X197797Y41254D02*
Y40354D01*
Y40804D01*
X197947Y40954D01*
X198247D01*
X198397Y40804D01*
Y40354D01*
X198847Y40954D02*
X199147D01*
X199297Y40804D01*
Y40354D01*
X198847D01*
X198697Y40504D01*
X198847Y40654D01*
X199297D01*
X199597Y40354D02*
X199897D01*
X199747D01*
Y41254D01*
X199597D01*
X200346Y40354D02*
X200646D01*
X200496D01*
Y41254D01*
X200346D01*
X201996D02*
Y40354D01*
X202446D01*
X202596Y40504D01*
Y40654D01*
Y40804D01*
X202446Y40954D01*
X201996D01*
X203345Y40354D02*
X203046D01*
X202896Y40504D01*
Y40804D01*
X203046Y40954D01*
X203345D01*
X203495Y40804D01*
Y40654D01*
X202896D01*
X205295Y40954D02*
X204845D01*
X204695Y40804D01*
Y40504D01*
X204845Y40354D01*
X205295D01*
X205745D02*
X206045D01*
X206195Y40504D01*
Y40804D01*
X206045Y40954D01*
X205745D01*
X205595Y40804D01*
Y40504D01*
X205745Y40354D01*
X206494Y40954D02*
X206794Y40354D01*
X207094Y40954D01*
X207844Y40354D02*
X207544D01*
X207394Y40504D01*
Y40804D01*
X207544Y40954D01*
X207844D01*
X207994Y40804D01*
Y40654D01*
X207394D01*
X208294Y40954D02*
Y40354D01*
Y40654D01*
X208444Y40804D01*
X208594Y40954D01*
X208744D01*
X209643Y40354D02*
X209344D01*
X209194Y40504D01*
Y40804D01*
X209344Y40954D01*
X209643D01*
X209793Y40804D01*
Y40654D01*
X209194D01*
X210693Y41254D02*
Y40354D01*
X210243D01*
X210093Y40504D01*
Y40804D01*
X210243Y40954D01*
X210693D01*
X211893D02*
Y40504D01*
X212043Y40354D01*
X212193Y40504D01*
X212343Y40354D01*
X212493Y40504D01*
Y40954D01*
X212792Y40354D02*
X213092D01*
X212942D01*
Y40954D01*
X212792D01*
X213692Y41104D02*
Y40954D01*
X213542D01*
X213842D01*
X213692D01*
Y40504D01*
X213842Y40354D01*
X214292Y41254D02*
Y40354D01*
Y40804D01*
X214442Y40954D01*
X214742D01*
X214892Y40804D01*
Y40354D01*
X216691Y41254D02*
X216091D01*
Y40354D01*
X216691D01*
X216091Y40804D02*
X216391D01*
X216991Y40354D02*
Y41254D01*
X217591Y40354D01*
Y41254D01*
X217891D02*
X218191D01*
X218041D01*
Y40354D01*
X217891D01*
X218191D01*
X219240Y41104D02*
X219090Y41254D01*
X218790D01*
X218641Y41104D01*
Y40504D01*
X218790Y40354D01*
X219090D01*
X219240Y40504D01*
Y40804D01*
X218940D01*
X174705Y37317D02*
Y36417D01*
X175155D01*
X175305Y36567D01*
Y36717D01*
X175155Y36867D01*
X174705D01*
X175155D01*
X175305Y37017D01*
Y37167D01*
X175155Y37317D01*
X174705D01*
X175754Y36417D02*
X176054D01*
X176204Y36567D01*
Y36867D01*
X176054Y37017D01*
X175754D01*
X175604Y36867D01*
Y36567D01*
X175754Y36417D01*
X176654Y37017D02*
X176954D01*
X177104Y36867D01*
Y36417D01*
X176654D01*
X176504Y36567D01*
X176654Y36717D01*
X177104D01*
X177404Y37017D02*
Y36417D01*
Y36717D01*
X177554Y36867D01*
X177704Y37017D01*
X177854D01*
X178903Y37317D02*
Y36417D01*
X178454D01*
X178304Y36567D01*
Y36867D01*
X178454Y37017D01*
X178903D01*
X180703Y37167D02*
X180553Y37317D01*
X180253D01*
X180103Y37167D01*
Y37017D01*
X180253Y36867D01*
X180553D01*
X180703Y36717D01*
Y36567D01*
X180553Y36417D01*
X180253D01*
X180103Y36567D01*
X181003Y37317D02*
Y36417D01*
Y36867D01*
X181153Y37017D01*
X181453D01*
X181602Y36867D01*
Y36417D01*
X182052Y37017D02*
X182352D01*
X182502Y36867D01*
Y36417D01*
X182052D01*
X181902Y36567D01*
X182052Y36717D01*
X182502D01*
X182802Y36417D02*
X183102D01*
X182952D01*
Y37317D01*
X182802D01*
X183552Y36417D02*
X183852D01*
X183702D01*
Y37317D01*
X183552D01*
X185201D02*
Y36417D01*
X185651D01*
X185801Y36567D01*
Y36717D01*
Y36867D01*
X185651Y37017D01*
X185201D01*
X186551Y36417D02*
X186251D01*
X186101Y36567D01*
Y36867D01*
X186251Y37017D01*
X186551D01*
X186701Y36867D01*
Y36717D01*
X186101D01*
X187900Y36417D02*
X188350D01*
X188500Y36567D01*
X188350Y36717D01*
X188050D01*
X187900Y36867D01*
X188050Y37017D01*
X188500D01*
X188950Y36417D02*
X189250D01*
X189400Y36567D01*
Y36867D01*
X189250Y37017D01*
X188950D01*
X188800Y36867D01*
Y36567D01*
X188950Y36417D01*
X189700D02*
X190000D01*
X189850D01*
Y37317D01*
X189700D01*
X191049D02*
Y36417D01*
X190600D01*
X190450Y36567D01*
Y36867D01*
X190600Y37017D01*
X191049D01*
X191799Y36417D02*
X191499D01*
X191349Y36567D01*
Y36867D01*
X191499Y37017D01*
X191799D01*
X191949Y36867D01*
Y36717D01*
X191349D01*
X192249Y37017D02*
Y36417D01*
Y36717D01*
X192399Y36867D01*
X192549Y37017D01*
X192699D01*
X194048Y36417D02*
Y37017D01*
X194198D01*
X194348Y36867D01*
Y36417D01*
Y36867D01*
X194498Y37017D01*
X194648Y36867D01*
Y36417D01*
X195098Y37017D02*
X195398D01*
X195548Y36867D01*
Y36417D01*
X195098D01*
X194948Y36567D01*
X195098Y36717D01*
X195548D01*
X195848Y36417D02*
X196298D01*
X196448Y36567D01*
X196298Y36717D01*
X195998D01*
X195848Y36867D01*
X195998Y37017D01*
X196448D01*
X196748Y36417D02*
Y37317D01*
Y36717D02*
X197197Y37017D01*
X196748Y36717D02*
X197197Y36417D01*
X198097D02*
X197797D01*
X197647Y36567D01*
Y36867D01*
X197797Y37017D01*
X198097D01*
X198247Y36867D01*
Y36717D01*
X197647D01*
X199147Y37317D02*
Y36417D01*
X198697D01*
X198547Y36567D01*
Y36867D01*
X198697Y37017D01*
X199147D01*
X199597Y36267D02*
X199747Y36417D01*
Y36567D01*
X199597D01*
Y36417D01*
X199747D01*
X199597Y36267D01*
X199447Y36117D01*
X201246Y37317D02*
Y36417D01*
X201696D01*
X201846Y36567D01*
Y36717D01*
Y36867D01*
X201696Y37017D01*
X201246D01*
X202296Y36417D02*
X202596D01*
X202746Y36567D01*
Y36867D01*
X202596Y37017D01*
X202296D01*
X202146Y36867D01*
Y36567D01*
X202296Y36417D01*
X203196Y37167D02*
Y37017D01*
X203046D01*
X203345D01*
X203196D01*
Y36567D01*
X203345Y36417D01*
X203795Y37317D02*
Y36417D01*
Y36867D01*
X203945Y37017D01*
X204245D01*
X204395Y36867D01*
Y36417D01*
X205595D02*
X206045D01*
X206195Y36567D01*
X206045Y36717D01*
X205745D01*
X205595Y36867D01*
X205745Y37017D01*
X206195D01*
X206494Y36417D02*
X206794D01*
X206644D01*
Y37017D01*
X206494D01*
X207844Y37317D02*
Y36417D01*
X207394D01*
X207244Y36567D01*
Y36867D01*
X207394Y37017D01*
X207844D01*
X208594Y36417D02*
X208294D01*
X208144Y36567D01*
Y36867D01*
X208294Y37017D01*
X208594D01*
X208744Y36867D01*
Y36717D01*
X208144D01*
X209044Y36417D02*
X209493D01*
X209643Y36567D01*
X209493Y36717D01*
X209194D01*
X209044Y36867D01*
X209194Y37017D01*
X209643D01*
X210093Y36267D02*
X210243Y36417D01*
Y36567D01*
X210093D01*
Y36417D01*
X210243D01*
X210093Y36267D01*
X209943Y36117D01*
X174705Y25506D02*
Y24606D01*
X175305D01*
X175754Y25206D02*
X176054D01*
X176204Y25056D01*
Y24606D01*
X175754D01*
X175604Y24756D01*
X175754Y24906D01*
X176204D01*
X176504Y25206D02*
Y24756D01*
X176654Y24606D01*
X177104D01*
Y24456D01*
X176954Y24306D01*
X176804D01*
X177104Y24606D02*
Y25206D01*
X177854Y24606D02*
X177554D01*
X177404Y24756D01*
Y25056D01*
X177554Y25206D01*
X177854D01*
X178004Y25056D01*
Y24906D01*
X177404D01*
X178304Y25206D02*
Y24606D01*
Y24906D01*
X178454Y25056D01*
X178603Y25206D01*
X178753D01*
X180703Y25356D02*
X180553Y25506D01*
X180253D01*
X180103Y25356D01*
Y25206D01*
X180253Y25056D01*
X180553D01*
X180703Y24906D01*
Y24756D01*
X180553Y24606D01*
X180253D01*
X180103Y24756D01*
X181153Y25356D02*
Y25206D01*
X181003D01*
X181303D01*
X181153D01*
Y24756D01*
X181303Y24606D01*
X181902Y25206D02*
X182202D01*
X182352Y25056D01*
Y24606D01*
X181902D01*
X181752Y24756D01*
X181902Y24906D01*
X182352D01*
X183252Y25206D02*
X182802D01*
X182652Y25056D01*
Y24756D01*
X182802Y24606D01*
X183252D01*
X183552D02*
Y25506D01*
Y24906D02*
X184002Y25206D01*
X183552Y24906D02*
X184002Y24606D01*
X185351Y25506D02*
Y24756D01*
X185501Y24606D01*
X185801D01*
X185951Y24756D01*
Y25506D01*
X186251Y24306D02*
Y25206D01*
X186701D01*
X186851Y25056D01*
Y24756D01*
X186701Y24606D01*
X186251D01*
X188200Y25206D02*
X188500D01*
X188650Y25056D01*
Y24606D01*
X188200D01*
X188050Y24756D01*
X188200Y24906D01*
X188650D01*
X188950Y24606D02*
X189400D01*
X189550Y24756D01*
X189400Y24906D01*
X189100D01*
X188950Y25056D01*
X189100Y25206D01*
X189550D01*
X190899Y24606D02*
Y25356D01*
Y25056D01*
X190750D01*
X191049D01*
X190899D01*
Y25356D01*
X191049Y25506D01*
X191649Y24606D02*
X191949D01*
X192099Y24756D01*
Y25056D01*
X191949Y25206D01*
X191649D01*
X191499Y25056D01*
Y24756D01*
X191649Y24606D01*
X192399D02*
X192699D01*
X192549D01*
Y25506D01*
X192399D01*
X193149Y24606D02*
X193449D01*
X193299D01*
Y25506D01*
X193149D01*
X194048Y24606D02*
X194348D01*
X194498Y24756D01*
Y25056D01*
X194348Y25206D01*
X194048D01*
X193899Y25056D01*
Y24756D01*
X194048Y24606D01*
X194798Y25206D02*
Y24756D01*
X194948Y24606D01*
X195098Y24756D01*
X195248Y24606D01*
X195398Y24756D01*
Y25206D01*
X195698Y24606D02*
X196148D01*
X196298Y24756D01*
X196148Y24906D01*
X195848D01*
X195698Y25056D01*
X195848Y25206D01*
X196298D01*
X196598D02*
X196748D01*
Y25056D01*
X196598D01*
Y25206D01*
Y24756D02*
X196748D01*
Y24606D01*
X196598D01*
Y24756D01*
X175305Y50947D02*
X175155Y51097D01*
X174855D01*
X174705Y50947D01*
Y50347D01*
X174855Y50197D01*
X175155D01*
X175305Y50347D01*
X175754Y50197D02*
X176054D01*
X176204Y50347D01*
Y50647D01*
X176054Y50797D01*
X175754D01*
X175604Y50647D01*
Y50347D01*
X175754Y50197D01*
X176504Y50797D02*
Y50197D01*
Y50497D01*
X176654Y50647D01*
X176804Y50797D01*
X176954D01*
X177854Y50197D02*
X177554D01*
X177404Y50347D01*
Y50647D01*
X177554Y50797D01*
X177854D01*
X178004Y50647D01*
Y50497D01*
X177404D01*
X179203Y50197D02*
Y51097D01*
X179503Y50797D01*
X179803Y51097D01*
Y50197D01*
X180253Y50797D02*
X180553D01*
X180703Y50647D01*
Y50197D01*
X180253D01*
X180103Y50347D01*
X180253Y50497D01*
X180703D01*
X181153Y50947D02*
Y50797D01*
X181003D01*
X181303D01*
X181153D01*
Y50347D01*
X181303Y50197D01*
X182202D02*
X181902D01*
X181752Y50347D01*
Y50647D01*
X181902Y50797D01*
X182202D01*
X182352Y50647D01*
Y50497D01*
X181752D01*
X182652Y50797D02*
Y50197D01*
Y50497D01*
X182802Y50647D01*
X182952Y50797D01*
X183102D01*
X183552Y50197D02*
X183852D01*
X183702D01*
Y50797D01*
X183552D01*
X184452D02*
X184751D01*
X184901Y50647D01*
Y50197D01*
X184452D01*
X184302Y50347D01*
X184452Y50497D01*
X184901D01*
X185201Y50197D02*
X185501D01*
X185351D01*
Y51097D01*
X185201D01*
X186851D02*
X187151D01*
X187001D01*
Y50197D01*
X186851D01*
X187151D01*
X187601D02*
Y50797D01*
X188050D01*
X188200Y50647D01*
Y50197D01*
X189400D02*
Y50797D01*
X189700Y51097D01*
X190000Y50797D01*
Y50197D01*
Y50647D01*
X189400D01*
X190899Y50797D02*
X190450D01*
X190300Y50647D01*
Y50347D01*
X190450Y50197D01*
X190899D01*
X191799Y50797D02*
X191349D01*
X191199Y50647D01*
Y50347D01*
X191349Y50197D01*
X191799D01*
X192249D02*
X192549D01*
X192699Y50347D01*
Y50647D01*
X192549Y50797D01*
X192249D01*
X192099Y50647D01*
Y50347D01*
X192249Y50197D01*
X192999Y50797D02*
Y50197D01*
Y50497D01*
X193149Y50647D01*
X193299Y50797D01*
X193449D01*
X194498Y51097D02*
Y50197D01*
X194048D01*
X193899Y50347D01*
Y50647D01*
X194048Y50797D01*
X194498D01*
X194948D02*
X195248D01*
X195398Y50647D01*
Y50197D01*
X194948D01*
X194798Y50347D01*
X194948Y50497D01*
X195398D01*
X195698Y50197D02*
Y50797D01*
X196148D01*
X196298Y50647D01*
Y50197D01*
X197197Y50797D02*
X196748D01*
X196598Y50647D01*
Y50347D01*
X196748Y50197D01*
X197197D01*
X197947D02*
X197647D01*
X197497Y50347D01*
Y50647D01*
X197647Y50797D01*
X197947D01*
X198097Y50647D01*
Y50497D01*
X197497D01*
X199297Y50797D02*
Y50347D01*
X199447Y50197D01*
X199597Y50347D01*
X199747Y50197D01*
X199897Y50347D01*
Y50797D01*
X200196Y50197D02*
X200496D01*
X200346D01*
Y50797D01*
X200196D01*
X201096Y50947D02*
Y50797D01*
X200946D01*
X201246D01*
X201096D01*
Y50347D01*
X201246Y50197D01*
X201696Y51097D02*
Y50197D01*
Y50647D01*
X201846Y50797D01*
X202146D01*
X202296Y50647D01*
Y50197D01*
X203495Y51097D02*
X203795D01*
X203645D01*
Y50197D01*
X203495D01*
X203795D01*
X204245D02*
Y51097D01*
X204695D01*
X204845Y50947D01*
Y50647D01*
X204695Y50497D01*
X204245D01*
X205745Y50947D02*
X205595Y51097D01*
X205295D01*
X205145Y50947D01*
Y50347D01*
X205295Y50197D01*
X205595D01*
X205745Y50347D01*
X206045Y50647D02*
X206644D01*
X207394Y50197D02*
Y51097D01*
X206944Y50647D01*
X207544D01*
X207844Y50197D02*
X208144D01*
X207994D01*
Y51097D01*
X207844Y50947D01*
X208594D02*
X208744Y51097D01*
X209044D01*
X209194Y50947D01*
Y50347D01*
X209044Y50197D01*
X208744D01*
X208594Y50347D01*
Y50947D01*
X209493Y50197D02*
X209793D01*
X209643D01*
Y51097D01*
X209493Y50947D01*
X210243Y50197D02*
X210843Y50797D01*
X211743Y50197D02*
X211143D01*
X211743Y50797D01*
Y50947D01*
X211593Y51097D01*
X211293D01*
X211143Y50947D01*
X212642Y51097D02*
X212343Y50947D01*
X212043Y50647D01*
Y50347D01*
X212193Y50197D01*
X212493D01*
X212642Y50347D01*
Y50497D01*
X212493Y50647D01*
X212043D01*
X174705Y48228D02*
Y49128D01*
X175155D01*
X175305Y48978D01*
Y48678D01*
X175155Y48528D01*
X174705D01*
X175604Y48828D02*
Y48228D01*
Y48528D01*
X175754Y48678D01*
X175904Y48828D01*
X176054D01*
X176954Y48228D02*
X176654D01*
X176504Y48378D01*
Y48678D01*
X176654Y48828D01*
X176954D01*
X177104Y48678D01*
Y48528D01*
X176504D01*
X177404Y48678D02*
X178004D01*
X178304Y48228D02*
Y49128D01*
X178753D01*
X178903Y48978D01*
Y48678D01*
X178753Y48528D01*
X178304D01*
X179203Y48828D02*
Y48228D01*
Y48528D01*
X179353Y48678D01*
X179503Y48828D01*
X179653D01*
X180553Y48228D02*
X180253D01*
X180103Y48378D01*
Y48678D01*
X180253Y48828D01*
X180553D01*
X180703Y48678D01*
Y48528D01*
X180103D01*
X181303Y47928D02*
X181453D01*
X181602Y48078D01*
Y48828D01*
X181153D01*
X181003Y48678D01*
Y48378D01*
X181153Y48228D01*
X181602D01*
X182802D02*
Y49128D01*
X183102Y48828D01*
X183402Y49128D01*
Y48228D01*
X183852Y48828D02*
X184152D01*
X184302Y48678D01*
Y48228D01*
X183852D01*
X183702Y48378D01*
X183852Y48528D01*
X184302D01*
X184751Y48978D02*
Y48828D01*
X184602D01*
X184901D01*
X184751D01*
Y48378D01*
X184901Y48228D01*
X185801D02*
X185501D01*
X185351Y48378D01*
Y48678D01*
X185501Y48828D01*
X185801D01*
X185951Y48678D01*
Y48528D01*
X185351D01*
X186251Y48828D02*
Y48228D01*
Y48528D01*
X186401Y48678D01*
X186551Y48828D01*
X186701D01*
X187151Y48228D02*
X187451D01*
X187301D01*
Y48828D01*
X187151D01*
X188050D02*
X188350D01*
X188500Y48678D01*
Y48228D01*
X188050D01*
X187900Y48378D01*
X188050Y48528D01*
X188500D01*
X188800Y48228D02*
X189100D01*
X188950D01*
Y49128D01*
X188800D01*
X190450D02*
X190750D01*
X190600D01*
Y48228D01*
X190450D01*
X190750D01*
X191199D02*
Y48828D01*
X191649D01*
X191799Y48678D01*
Y48228D01*
X192999D02*
Y48828D01*
X193299Y49128D01*
X193599Y48828D01*
Y48228D01*
Y48678D01*
X192999D01*
X194498Y48828D02*
X194048D01*
X193899Y48678D01*
Y48378D01*
X194048Y48228D01*
X194498D01*
X195398Y48828D02*
X194948D01*
X194798Y48678D01*
Y48378D01*
X194948Y48228D01*
X195398D01*
X195848D02*
X196148D01*
X196298Y48378D01*
Y48678D01*
X196148Y48828D01*
X195848D01*
X195698Y48678D01*
Y48378D01*
X195848Y48228D01*
X196598Y48828D02*
Y48228D01*
Y48528D01*
X196748Y48678D01*
X196898Y48828D01*
X197048D01*
X198097Y49128D02*
Y48228D01*
X197647D01*
X197497Y48378D01*
Y48678D01*
X197647Y48828D01*
X198097D01*
X198547D02*
X198847D01*
X198997Y48678D01*
Y48228D01*
X198547D01*
X198397Y48378D01*
X198547Y48528D01*
X198997D01*
X199297Y48228D02*
Y48828D01*
X199747D01*
X199897Y48678D01*
Y48228D01*
X200796Y48828D02*
X200346D01*
X200196Y48678D01*
Y48378D01*
X200346Y48228D01*
X200796D01*
X201546D02*
X201246D01*
X201096Y48378D01*
Y48678D01*
X201246Y48828D01*
X201546D01*
X201696Y48678D01*
Y48528D01*
X201096D01*
X202896Y48828D02*
Y48378D01*
X203046Y48228D01*
X203196Y48378D01*
X203345Y48228D01*
X203495Y48378D01*
Y48828D01*
X203795Y48228D02*
X204095D01*
X203945D01*
Y48828D01*
X203795D01*
X204695Y48978D02*
Y48828D01*
X204545D01*
X204845D01*
X204695D01*
Y48378D01*
X204845Y48228D01*
X205295Y49128D02*
Y48228D01*
Y48678D01*
X205445Y48828D01*
X205745D01*
X205895Y48678D01*
Y48228D01*
X207094Y49128D02*
X207394D01*
X207244D01*
Y48228D01*
X207094D01*
X207394D01*
X207844D02*
Y49128D01*
X208294D01*
X208444Y48978D01*
Y48678D01*
X208294Y48528D01*
X207844D01*
X209344Y48978D02*
X209194Y49128D01*
X208894D01*
X208744Y48978D01*
Y48378D01*
X208894Y48228D01*
X209194D01*
X209344Y48378D01*
X209643Y48678D02*
X210243D01*
X210993Y48228D02*
Y49128D01*
X210543Y48678D01*
X211143D01*
X211443Y48228D02*
X211743D01*
X211593D01*
Y49128D01*
X211443Y48978D01*
X212193D02*
X212343Y49128D01*
X212642D01*
X212792Y48978D01*
Y48378D01*
X212642Y48228D01*
X212343D01*
X212193Y48378D01*
Y48978D01*
X213092Y48228D02*
X213392D01*
X213242D01*
Y49128D01*
X213092Y48978D01*
X213842Y48228D02*
X214442Y48828D01*
X215342Y48228D02*
X214742D01*
X215342Y48828D01*
Y48978D01*
X215192Y49128D01*
X214892D01*
X214742Y48978D01*
X216241Y49128D02*
X215941Y48978D01*
X215641Y48678D01*
Y48378D01*
X215791Y48228D01*
X216091D01*
X216241Y48378D01*
Y48528D01*
X216091Y48678D01*
X215641D01*
X174705Y30512D02*
Y31412D01*
X175155D01*
X175305Y31262D01*
Y30962D01*
X175155Y30812D01*
X174705D01*
X175005D02*
X175305Y30512D01*
X176054D02*
X175754D01*
X175604Y30662D01*
Y30962D01*
X175754Y31112D01*
X176054D01*
X176204Y30962D01*
Y30812D01*
X175604D01*
X176804Y30212D02*
X176954D01*
X177104Y30362D01*
Y31112D01*
X176654D01*
X176504Y30962D01*
Y30662D01*
X176654Y30512D01*
X177104D01*
X177404D02*
X177704D01*
X177554D01*
Y31112D01*
X177404D01*
X178154Y30512D02*
X178603D01*
X178753Y30662D01*
X178603Y30812D01*
X178304D01*
X178154Y30962D01*
X178304Y31112D01*
X178753D01*
X179203Y31262D02*
Y31112D01*
X179053D01*
X179353D01*
X179203D01*
Y30662D01*
X179353Y30512D01*
X179803Y31112D02*
Y30512D01*
Y30812D01*
X179953Y30962D01*
X180103Y31112D01*
X180253D01*
X180853D02*
X181153D01*
X181303Y30962D01*
Y30512D01*
X180853D01*
X180703Y30662D01*
X180853Y30812D01*
X181303D01*
X181752Y31262D02*
Y31112D01*
X181602D01*
X181902D01*
X181752D01*
Y30662D01*
X181902Y30512D01*
X182352D02*
X182652D01*
X182502D01*
Y31112D01*
X182352D01*
X183252Y30512D02*
X183552D01*
X183702Y30662D01*
Y30962D01*
X183552Y31112D01*
X183252D01*
X183102Y30962D01*
Y30662D01*
X183252Y30512D01*
X184002D02*
Y31112D01*
X184452D01*
X184602Y30962D01*
Y30512D01*
X185801D02*
X186251D01*
X186401Y30662D01*
X186251Y30812D01*
X185951D01*
X185801Y30962D01*
X185951Y31112D01*
X186401D01*
X186701Y31412D02*
Y30512D01*
Y30962D01*
X186851Y31112D01*
X187151D01*
X187301Y30962D01*
Y30512D01*
X187751Y31112D02*
X188050D01*
X188200Y30962D01*
Y30512D01*
X187751D01*
X187601Y30662D01*
X187751Y30812D01*
X188200D01*
X188500Y30512D02*
X188800D01*
X188650D01*
Y31412D01*
X188500D01*
X189250Y30512D02*
X189550D01*
X189400D01*
Y31412D01*
X189250D01*
X190899Y30512D02*
Y31112D01*
X191349D01*
X191499Y30962D01*
Y30512D01*
X191949D02*
X192249D01*
X192399Y30662D01*
Y30962D01*
X192249Y31112D01*
X191949D01*
X191799Y30962D01*
Y30662D01*
X191949Y30512D01*
X192849Y31262D02*
Y31112D01*
X192699D01*
X192999D01*
X192849D01*
Y30662D01*
X192999Y30512D01*
X194798D02*
X194498D01*
X194348Y30662D01*
Y30962D01*
X194498Y31112D01*
X194798D01*
X194948Y30962D01*
Y30812D01*
X194348D01*
X195248Y31112D02*
X195848Y30512D01*
X195548Y30812D01*
X195848Y31112D01*
X195248Y30512D01*
X196748Y31112D02*
X196298D01*
X196148Y30962D01*
Y30662D01*
X196298Y30512D01*
X196748D01*
X197497D02*
X197197D01*
X197048Y30662D01*
Y30962D01*
X197197Y31112D01*
X197497D01*
X197647Y30962D01*
Y30812D01*
X197048D01*
X198397Y30512D02*
X198097D01*
X197947Y30662D01*
Y30962D01*
X198097Y31112D01*
X198397D01*
X198547Y30962D01*
Y30812D01*
X197947D01*
X199447Y31412D02*
Y30512D01*
X198997D01*
X198847Y30662D01*
Y30962D01*
X198997Y31112D01*
X199447D01*
X200646Y30962D02*
X201246D01*
X200946Y31262D02*
Y30662D01*
X201546Y30512D02*
X202146Y31112D01*
X202446Y30962D02*
X203046D01*
X204245Y31262D02*
X204395Y31412D01*
X204695D01*
X204845Y31262D01*
Y30662D01*
X204695Y30512D01*
X204395D01*
X204245Y30662D01*
Y31262D01*
X205145Y30512D02*
Y30662D01*
X205295D01*
Y30512D01*
X205145D01*
X205895Y31262D02*
X206045Y31412D01*
X206344D01*
X206494Y31262D01*
Y30662D01*
X206344Y30512D01*
X206045D01*
X205895Y30662D01*
Y31262D01*
X206794D02*
X206944Y31412D01*
X207244D01*
X207394Y31262D01*
Y30662D01*
X207244Y30512D01*
X206944D01*
X206794Y30662D01*
Y31262D01*
X207694D02*
X207844Y31412D01*
X208144D01*
X208294Y31262D01*
Y31112D01*
X208144Y30962D01*
X207994D01*
X208144D01*
X208294Y30812D01*
Y30662D01*
X208144Y30512D01*
X207844D01*
X207694Y30662D01*
X174705Y35049D02*
Y34599D01*
X174855Y34449D01*
X175305D01*
Y35049D01*
X175604Y34449D02*
X176054D01*
X176204Y34599D01*
X176054Y34749D01*
X175754D01*
X175604Y34899D01*
X175754Y35049D01*
X176204D01*
X176504Y34449D02*
X176804D01*
X176654D01*
Y35049D01*
X176504D01*
X177254Y34449D02*
Y35049D01*
X177704D01*
X177854Y34899D01*
Y34449D01*
X178454Y34149D02*
X178603D01*
X178753Y34299D01*
Y35049D01*
X178304D01*
X178154Y34899D01*
Y34599D01*
X178304Y34449D01*
X178753D01*
X179953D02*
X180253D01*
X180103D01*
Y35349D01*
X179953D01*
X180703Y34449D02*
X181003D01*
X180853D01*
Y35049D01*
X180703D01*
X182052Y34149D02*
Y35049D01*
X181602D01*
X181453Y34899D01*
Y34599D01*
X181602Y34449D01*
X182052D01*
X182352Y35049D02*
Y34599D01*
X182502Y34449D01*
X182952D01*
Y35049D01*
X183252Y34449D02*
X183552D01*
X183402D01*
Y35049D01*
X183252D01*
X184602Y35349D02*
Y34449D01*
X184152D01*
X184002Y34599D01*
Y34899D01*
X184152Y35049D01*
X184602D01*
X185801Y34149D02*
Y35049D01*
X186251D01*
X186401Y34899D01*
Y34599D01*
X186251Y34449D01*
X185801D01*
X186701Y35349D02*
Y34449D01*
Y34899D01*
X186851Y35049D01*
X187151D01*
X187301Y34899D01*
Y34449D01*
X187751D02*
X188050D01*
X188200Y34599D01*
Y34899D01*
X188050Y35049D01*
X187751D01*
X187601Y34899D01*
Y34599D01*
X187751Y34449D01*
X188650Y35199D02*
Y35049D01*
X188500D01*
X188800D01*
X188650D01*
Y34599D01*
X188800Y34449D01*
X189400D02*
X189700D01*
X189850Y34599D01*
Y34899D01*
X189700Y35049D01*
X189400D01*
X189250Y34899D01*
Y34599D01*
X189400Y34449D01*
X190150Y34899D02*
X190750D01*
X191049Y34449D02*
X191349D01*
X191199D01*
Y35049D01*
X191049D01*
X191799Y34449D02*
Y35049D01*
X191949D01*
X192099Y34899D01*
Y34449D01*
Y34899D01*
X192249Y35049D01*
X192399Y34899D01*
Y34449D01*
X192849Y35049D02*
X193149D01*
X193299Y34899D01*
Y34449D01*
X192849D01*
X192699Y34599D01*
X192849Y34749D01*
X193299D01*
X193899Y34149D02*
X194048D01*
X194198Y34299D01*
Y35049D01*
X193749D01*
X193599Y34899D01*
Y34599D01*
X193749Y34449D01*
X194198D01*
X194948D02*
X194648D01*
X194498Y34599D01*
Y34899D01*
X194648Y35049D01*
X194948D01*
X195098Y34899D01*
Y34749D01*
X194498D01*
X195548Y35049D02*
X195848D01*
X195998Y34899D01*
Y34449D01*
X195548D01*
X195398Y34599D01*
X195548Y34749D01*
X195998D01*
X196298Y35349D02*
Y34449D01*
X196748D01*
X196898Y34599D01*
Y34749D01*
Y34899D01*
X196748Y35049D01*
X196298D01*
X197197Y34449D02*
X197497D01*
X197347D01*
Y35349D01*
X197197D01*
X198397Y34449D02*
X198097D01*
X197947Y34599D01*
Y34899D01*
X198097Y35049D01*
X198397D01*
X198547Y34899D01*
Y34749D01*
X197947D01*
X199747Y34449D02*
Y35049D01*
X199897D01*
X200047Y34899D01*
Y34449D01*
Y34899D01*
X200196Y35049D01*
X200346Y34899D01*
Y34449D01*
X200796Y35049D02*
X201096D01*
X201246Y34899D01*
Y34449D01*
X200796D01*
X200646Y34599D01*
X200796Y34749D01*
X201246D01*
X201696Y35199D02*
Y35049D01*
X201546D01*
X201846D01*
X201696D01*
Y34599D01*
X201846Y34449D01*
X202746D02*
X202446D01*
X202296Y34599D01*
Y34899D01*
X202446Y35049D01*
X202746D01*
X202896Y34899D01*
Y34749D01*
X202296D01*
X203196Y35049D02*
Y34449D01*
Y34749D01*
X203345Y34899D01*
X203495Y35049D01*
X203645D01*
X204095Y34449D02*
X204395D01*
X204245D01*
Y35049D01*
X204095D01*
X204995D02*
X205295D01*
X205445Y34899D01*
Y34449D01*
X204995D01*
X204845Y34599D01*
X204995Y34749D01*
X205445D01*
X205745Y34449D02*
X206045D01*
X205895D01*
Y35349D01*
X205745D01*
X207694Y34449D02*
X207394Y34749D01*
Y35049D01*
X207694Y35349D01*
X208144D02*
Y34449D01*
X208744D01*
X209044D02*
Y35349D01*
X209493D01*
X209643Y35199D01*
Y34899D01*
X209493Y34749D01*
X209044D01*
X209943Y35349D02*
X210243D01*
X210093D01*
Y34449D01*
X209943D01*
X210243D01*
X210693D02*
X210993Y34749D01*
Y35049D01*
X210693Y35349D01*
X211443Y34449D02*
Y34599D01*
X211593D01*
Y34449D01*
X211443D01*
X174705Y32480D02*
Y33380D01*
X175005Y33080D01*
X175305Y33380D01*
Y32480D01*
X175754Y33080D02*
X176054D01*
X176204Y32930D01*
Y32480D01*
X175754D01*
X175604Y32630D01*
X175754Y32780D01*
X176204D01*
X176654Y33230D02*
Y33080D01*
X176504D01*
X176804D01*
X176654D01*
Y32630D01*
X176804Y32480D01*
X177704D02*
X177404D01*
X177254Y32630D01*
Y32930D01*
X177404Y33080D01*
X177704D01*
X177854Y32930D01*
Y32780D01*
X177254D01*
X178154Y33080D02*
Y32480D01*
Y32780D01*
X178304Y32930D01*
X178454Y33080D01*
X178603D01*
X179203D02*
X179503D01*
X179653Y32930D01*
Y32480D01*
X179203D01*
X179053Y32630D01*
X179203Y32780D01*
X179653D01*
X179953Y32480D02*
X180253D01*
X180103D01*
Y33080D01*
X179953D01*
X180703Y32480D02*
X181003D01*
X180853D01*
Y33380D01*
X180703D01*
X182352Y32480D02*
X182802D01*
X182952Y32630D01*
X182802Y32780D01*
X182502D01*
X182352Y32930D01*
X182502Y33080D01*
X182952D01*
X183252Y33380D02*
Y32480D01*
Y32930D01*
X183402Y33080D01*
X183702D01*
X183852Y32930D01*
Y32480D01*
X184302Y33080D02*
X184602D01*
X184751Y32930D01*
Y32480D01*
X184302D01*
X184152Y32630D01*
X184302Y32780D01*
X184751D01*
X185051Y32480D02*
X185351D01*
X185201D01*
Y33380D01*
X185051D01*
X185801Y32480D02*
X186101D01*
X185951D01*
Y33380D01*
X185801D01*
X187451D02*
Y32480D01*
X187900D01*
X188050Y32630D01*
Y32780D01*
Y32930D01*
X187900Y33080D01*
X187451D01*
X188800Y32480D02*
X188500D01*
X188350Y32630D01*
Y32930D01*
X188500Y33080D01*
X188800D01*
X188950Y32930D01*
Y32780D01*
X188350D01*
X190150Y33380D02*
Y32480D01*
X190600D01*
X190750Y32630D01*
Y32780D01*
X190600Y32930D01*
X190150D01*
X190600D01*
X190750Y33080D01*
Y33230D01*
X190600Y33380D01*
X190150D01*
X191049Y32480D02*
X191349D01*
X191199D01*
Y33380D01*
X191049D01*
X191949Y33080D02*
X192249D01*
X192399Y32930D01*
Y32480D01*
X191949D01*
X191799Y32630D01*
X191949Y32780D01*
X192399D01*
X193299Y33080D02*
X192849D01*
X192699Y32930D01*
Y32630D01*
X192849Y32480D01*
X193299D01*
X193599D02*
Y33380D01*
Y32780D02*
X194048Y33080D01*
X193599Y32780D02*
X194048Y32480D01*
X195398D02*
X195698D01*
X195548D01*
Y33080D01*
X195398D01*
X196148Y32480D02*
Y33080D01*
X196598D01*
X196748Y32930D01*
Y32480D01*
X198547Y33080D02*
X198097D01*
X197947Y32930D01*
Y32630D01*
X198097Y32480D01*
X198547D01*
X198997D02*
X199297D01*
X199447Y32630D01*
Y32930D01*
X199297Y33080D01*
X198997D01*
X198847Y32930D01*
Y32630D01*
X198997Y32480D01*
X199747D02*
X200047D01*
X199897D01*
Y33380D01*
X199747D01*
X200646Y32480D02*
X200946D01*
X201096Y32630D01*
Y32930D01*
X200946Y33080D01*
X200646D01*
X200496Y32930D01*
Y32630D01*
X200646Y32480D01*
X201396Y33080D02*
Y32480D01*
Y32780D01*
X201546Y32930D01*
X201696Y33080D01*
X201846D01*
X202296Y32480D02*
Y32630D01*
X202446D01*
Y32480D01*
X202296D01*
X175305Y29293D02*
X175155Y29443D01*
X174855D01*
X174705Y29293D01*
Y29143D01*
X174855Y28993D01*
X175155D01*
X175305Y28843D01*
Y28693D01*
X175155Y28543D01*
X174855D01*
X174705Y28693D01*
X175754Y28543D02*
X176054D01*
X176204Y28693D01*
Y28993D01*
X176054Y29143D01*
X175754D01*
X175604Y28993D01*
Y28693D01*
X175754Y28543D01*
X176504D02*
X176804D01*
X176654D01*
Y29443D01*
X176504D01*
X177854D02*
Y28543D01*
X177404D01*
X177254Y28693D01*
Y28993D01*
X177404Y29143D01*
X177854D01*
X178603Y28543D02*
X178304D01*
X178154Y28693D01*
Y28993D01*
X178304Y29143D01*
X178603D01*
X178753Y28993D01*
Y28843D01*
X178154D01*
X179053Y29143D02*
Y28543D01*
Y28843D01*
X179203Y28993D01*
X179353Y29143D01*
X179503D01*
X180853Y28543D02*
Y29143D01*
X181003D01*
X181153Y28993D01*
Y28543D01*
Y28993D01*
X181303Y29143D01*
X181453Y28993D01*
Y28543D01*
X181902Y29143D02*
X182202D01*
X182352Y28993D01*
Y28543D01*
X181902D01*
X181752Y28693D01*
X181902Y28843D01*
X182352D01*
X182652Y28543D02*
X183102D01*
X183252Y28693D01*
X183102Y28843D01*
X182802D01*
X182652Y28993D01*
X182802Y29143D01*
X183252D01*
X183552Y28543D02*
Y29443D01*
Y28843D02*
X184002Y29143D01*
X183552Y28843D02*
X184002Y28543D01*
X185351D02*
X185801D01*
X185951Y28693D01*
X185801Y28843D01*
X185501D01*
X185351Y28993D01*
X185501Y29143D01*
X185951D01*
X186251Y29443D02*
Y28543D01*
Y28993D01*
X186401Y29143D01*
X186701D01*
X186851Y28993D01*
Y28543D01*
X187301Y29143D02*
X187601D01*
X187751Y28993D01*
Y28543D01*
X187301D01*
X187151Y28693D01*
X187301Y28843D01*
X187751D01*
X188050Y28543D02*
X188350D01*
X188200D01*
Y29443D01*
X188050D01*
X188800Y28543D02*
X189100D01*
X188950D01*
Y29443D01*
X188800D01*
X190450D02*
Y28543D01*
X190899D01*
X191049Y28693D01*
Y28843D01*
Y28993D01*
X190899Y29143D01*
X190450D01*
X191799Y28543D02*
X191499D01*
X191349Y28693D01*
Y28993D01*
X191499Y29143D01*
X191799D01*
X191949Y28993D01*
Y28843D01*
X191349D01*
X193149Y28243D02*
Y29143D01*
X193599D01*
X193749Y28993D01*
Y28693D01*
X193599Y28543D01*
X193149D01*
X194048D02*
X194348D01*
X194198D01*
Y29443D01*
X194048D01*
X194948Y29143D02*
X195248D01*
X195398Y28993D01*
Y28543D01*
X194948D01*
X194798Y28693D01*
X194948Y28843D01*
X195398D01*
X196298Y29143D02*
X195848D01*
X195698Y28993D01*
Y28693D01*
X195848Y28543D01*
X196298D01*
X197048D02*
X196748D01*
X196598Y28693D01*
Y28993D01*
X196748Y29143D01*
X197048D01*
X197197Y28993D01*
Y28843D01*
X196598D01*
X198097Y29443D02*
Y28543D01*
X197647D01*
X197497Y28693D01*
Y28993D01*
X197647Y29143D01*
X198097D01*
X199447Y28543D02*
X199747D01*
X199897Y28693D01*
Y28993D01*
X199747Y29143D01*
X199447D01*
X199297Y28993D01*
Y28693D01*
X199447Y28543D01*
X200196Y29143D02*
X200496Y28543D01*
X200796Y29143D01*
X201546Y28543D02*
X201246D01*
X201096Y28693D01*
Y28993D01*
X201246Y29143D01*
X201546D01*
X201696Y28993D01*
Y28843D01*
X201096D01*
X201996Y29143D02*
Y28543D01*
Y28843D01*
X202146Y28993D01*
X202296Y29143D01*
X202446D01*
X203795Y29443D02*
Y28543D01*
X204245D01*
X204395Y28693D01*
Y28843D01*
Y28993D01*
X204245Y29143D01*
X203795D01*
X204845D02*
X205145D01*
X205295Y28993D01*
Y28543D01*
X204845D01*
X204695Y28693D01*
X204845Y28843D01*
X205295D01*
X205595Y29143D02*
Y28543D01*
Y28843D01*
X205745Y28993D01*
X205895Y29143D01*
X206045D01*
X206944Y28543D02*
X206644D01*
X206494Y28693D01*
Y28993D01*
X206644Y29143D01*
X206944D01*
X207094Y28993D01*
Y28843D01*
X206494D01*
X208894Y29143D02*
X208444D01*
X208294Y28993D01*
Y28693D01*
X208444Y28543D01*
X208894D01*
X209344D02*
X209643D01*
X209793Y28693D01*
Y28993D01*
X209643Y29143D01*
X209344D01*
X209194Y28993D01*
Y28693D01*
X209344Y28543D01*
X210093Y28243D02*
Y29143D01*
X210543D01*
X210693Y28993D01*
Y28693D01*
X210543Y28543D01*
X210093D01*
X210993Y28243D02*
Y29143D01*
X211443D01*
X211593Y28993D01*
Y28693D01*
X211443Y28543D01*
X210993D01*
X212343D02*
X212043D01*
X211893Y28693D01*
Y28993D01*
X212043Y29143D01*
X212343D01*
X212493Y28993D01*
Y28843D01*
X211893D01*
X212792Y29143D02*
Y28543D01*
Y28843D01*
X212942Y28993D01*
X213092Y29143D01*
X213242D01*
X174705Y44291D02*
Y45191D01*
X175005Y44891D01*
X175305Y45191D01*
Y44291D01*
X175754Y44891D02*
X176054D01*
X176204Y44741D01*
Y44291D01*
X175754D01*
X175604Y44441D01*
X175754Y44591D01*
X176204D01*
X176504Y44891D02*
X177104Y44291D01*
X176804Y44591D01*
X177104Y44891D01*
X176504Y44291D01*
X177404D02*
X177704D01*
X177554D01*
Y44891D01*
X177404D01*
X178154Y44291D02*
Y44891D01*
X178304D01*
X178454Y44741D01*
Y44291D01*
Y44741D01*
X178603Y44891D01*
X178753Y44741D01*
Y44291D01*
X179053Y44891D02*
Y44441D01*
X179203Y44291D01*
X179653D01*
Y44891D01*
X179953Y44291D02*
Y44891D01*
X180103D01*
X180253Y44741D01*
Y44291D01*
Y44741D01*
X180403Y44891D01*
X180553Y44741D01*
Y44291D01*
X181752Y45191D02*
Y44291D01*
X182202D01*
X182352Y44441D01*
Y44591D01*
Y44741D01*
X182202Y44891D01*
X181752D01*
X182802Y44291D02*
X183102D01*
X183252Y44441D01*
Y44741D01*
X183102Y44891D01*
X182802D01*
X182652Y44741D01*
Y44441D01*
X182802Y44291D01*
X183552Y44891D02*
Y44441D01*
X183702Y44291D01*
X183852Y44441D01*
X184002Y44291D01*
X184152Y44441D01*
Y44891D01*
X185501D02*
X185801D01*
X185951Y44741D01*
Y44291D01*
X185501D01*
X185351Y44441D01*
X185501Y44591D01*
X185951D01*
X186251Y44291D02*
Y44891D01*
X186701D01*
X186851Y44741D01*
Y44291D01*
X187751Y45191D02*
Y44291D01*
X187301D01*
X187151Y44441D01*
Y44741D01*
X187301Y44891D01*
X187751D01*
X189100Y45041D02*
Y44891D01*
X188950D01*
X189250D01*
X189100D01*
Y44441D01*
X189250Y44291D01*
X189700Y44891D02*
Y44441D01*
X189850Y44291D01*
X190000Y44441D01*
X190150Y44291D01*
X190300Y44441D01*
Y44891D01*
X190600Y44291D02*
X190899D01*
X190750D01*
Y44891D01*
X190600D01*
X191349Y44291D02*
X191799D01*
X191949Y44441D01*
X191799Y44591D01*
X191499D01*
X191349Y44741D01*
X191499Y44891D01*
X191949D01*
X192399Y45041D02*
Y44891D01*
X192249D01*
X192549D01*
X192399D01*
Y44441D01*
X192549Y44291D01*
X193899D02*
X194348D01*
X194498Y44441D01*
X194348Y44591D01*
X194048D01*
X193899Y44741D01*
X194048Y44891D01*
X194498D01*
X194798Y45191D02*
Y44291D01*
Y44741D01*
X194948Y44891D01*
X195248D01*
X195398Y44741D01*
Y44291D01*
X195848Y44891D02*
X196148D01*
X196298Y44741D01*
Y44291D01*
X195848D01*
X195698Y44441D01*
X195848Y44591D01*
X196298D01*
X196598Y44291D02*
X196898D01*
X196748D01*
Y45191D01*
X196598D01*
X197347Y44291D02*
X197647D01*
X197497D01*
Y45191D01*
X197347D01*
X198997Y44291D02*
Y44891D01*
X199447D01*
X199597Y44741D01*
Y44291D01*
X200047D02*
X200346D01*
X200496Y44441D01*
Y44741D01*
X200346Y44891D01*
X200047D01*
X199897Y44741D01*
Y44441D01*
X200047Y44291D01*
X200946Y45041D02*
Y44891D01*
X200796D01*
X201096D01*
X200946D01*
Y44441D01*
X201096Y44291D01*
X202896D02*
X202596D01*
X202446Y44441D01*
Y44741D01*
X202596Y44891D01*
X202896D01*
X203046Y44741D01*
Y44591D01*
X202446D01*
X203345Y44891D02*
X203945Y44291D01*
X203645Y44591D01*
X203945Y44891D01*
X203345Y44291D01*
X204845Y44891D02*
X204395D01*
X204245Y44741D01*
Y44441D01*
X204395Y44291D01*
X204845D01*
X205595D02*
X205295D01*
X205145Y44441D01*
Y44741D01*
X205295Y44891D01*
X205595D01*
X205745Y44741D01*
Y44591D01*
X205145D01*
X206494Y44291D02*
X206195D01*
X206045Y44441D01*
Y44741D01*
X206195Y44891D01*
X206494D01*
X206644Y44741D01*
Y44591D01*
X206045D01*
X207544Y45191D02*
Y44291D01*
X207094D01*
X206944Y44441D01*
Y44741D01*
X207094Y44891D01*
X207544D01*
X208744Y44741D02*
X209344D01*
X209044Y45041D02*
Y44441D01*
X209643Y44291D02*
X210243Y44891D01*
X210543Y44741D02*
X211143D01*
X212343Y45041D02*
X212493Y45191D01*
X212792D01*
X212942Y45041D01*
Y44441D01*
X212792Y44291D01*
X212493D01*
X212343Y44441D01*
Y45041D01*
X213242Y44291D02*
Y44441D01*
X213392D01*
Y44291D01*
X213242D01*
X213992Y45041D02*
X214142Y45191D01*
X214442D01*
X214592Y45041D01*
Y44441D01*
X214442Y44291D01*
X214142D01*
X213992Y44441D01*
Y45041D01*
X214892Y44291D02*
X215192D01*
X215042D01*
Y45191D01*
X214892Y45041D01*
X215641D02*
X215791Y45191D01*
X216091D01*
X216241Y45041D01*
Y44441D01*
X216091Y44291D01*
X215791D01*
X215641Y44441D01*
Y45041D01*
X217591Y44291D02*
X217291D01*
Y45191D01*
X217591D01*
X218041Y44291D02*
Y44441D01*
X218191D01*
Y44291D01*
X218041D01*
X219390D02*
X218790D01*
X219390Y44891D01*
Y45041D01*
X219240Y45191D01*
X218940D01*
X218790Y45041D01*
X220290Y45191D02*
X219690D01*
Y44741D01*
X219990Y44891D01*
X220140D01*
X220290Y44741D01*
Y44441D01*
X220140Y44291D01*
X219840D01*
X219690Y44441D01*
X221040Y44291D02*
Y45191D01*
X220590Y44741D01*
X221190D01*
X221490Y44291D02*
Y44891D01*
X221640D01*
X221789Y44741D01*
Y44291D01*
Y44741D01*
X221939Y44891D01*
X222089Y44741D01*
Y44291D01*
X222389D02*
Y44891D01*
X222539D01*
X222689Y44741D01*
Y44291D01*
Y44741D01*
X222839Y44891D01*
X222989Y44741D01*
Y44291D01*
X223289D02*
X223589D01*
Y45191D01*
X223289D01*
X224938Y43991D02*
Y44891D01*
X225388D01*
X225538Y44741D01*
Y44441D01*
X225388Y44291D01*
X224938D01*
X226288D02*
X225988D01*
X225838Y44441D01*
Y44741D01*
X225988Y44891D01*
X226288D01*
X226438Y44741D01*
Y44591D01*
X225838D01*
X226738Y44891D02*
Y44291D01*
Y44591D01*
X226888Y44741D01*
X227038Y44891D01*
X227188D01*
X228537Y44291D02*
X228837D01*
X228687D01*
Y44891D01*
X228537D01*
X229287Y44291D02*
Y44891D01*
X229737D01*
X229887Y44741D01*
Y44291D01*
X230787Y44891D02*
X230337D01*
X230187Y44741D01*
Y44441D01*
X230337Y44291D01*
X230787D01*
X231086Y45191D02*
Y44291D01*
Y44741D01*
X231236Y44891D01*
X231536D01*
X231686Y44741D01*
Y44291D01*
X231986D02*
Y44441D01*
X232136D01*
Y44291D01*
X231986D01*
X218012Y-234D02*
X218162Y-85D01*
X218462D01*
X218612Y-234D01*
Y-834D01*
X218462Y-984D01*
X218162D01*
X218012Y-834D01*
Y-234D01*
X218912Y-984D02*
Y-834D01*
X219061D01*
Y-984D01*
X218912D01*
X219661Y-234D02*
X219811Y-85D01*
X220111D01*
X220261Y-234D01*
Y-834D01*
X220111Y-984D01*
X219811D01*
X219661Y-834D01*
Y-234D01*
X221161Y-85D02*
X220861Y-234D01*
X220561Y-534D01*
Y-834D01*
X220711Y-984D01*
X221011D01*
X221161Y-834D01*
Y-684D01*
X221011Y-534D01*
X220561D01*
X222061Y-984D02*
X221461D01*
X222061Y-384D01*
Y-234D01*
X221911Y-85D01*
X221611D01*
X221461Y-234D01*
X223260Y-984D02*
X223560D01*
X223410D01*
Y-384D01*
X223260D01*
X224010Y-984D02*
Y-384D01*
X224460D01*
X224610Y-534D01*
Y-984D01*
X226109D02*
X225809Y-684D01*
Y-384D01*
X226109Y-85D01*
X226559Y-534D02*
X227159D01*
X226859Y-234D02*
Y-834D01*
X227459Y-984D02*
X228059Y-384D01*
X228358Y-534D02*
X228958D01*
X230158Y-234D02*
X230308Y-85D01*
X230608D01*
X230758Y-234D01*
Y-834D01*
X230608Y-984D01*
X230308D01*
X230158Y-834D01*
Y-234D01*
X231058Y-984D02*
Y-834D01*
X231208D01*
Y-984D01*
X231058D01*
X231807Y-234D02*
X231957Y-85D01*
X232257D01*
X232407Y-234D01*
Y-834D01*
X232257Y-984D01*
X231957D01*
X231807Y-834D01*
Y-234D01*
X232707Y-984D02*
X233007D01*
X232857D01*
Y-85D01*
X232707Y-234D01*
X233457D02*
X233607Y-85D01*
X233907D01*
X234057Y-234D01*
Y-834D01*
X233907Y-984D01*
X233607D01*
X233457Y-834D01*
Y-234D01*
X235256Y-984D02*
X235556D01*
X235406D01*
Y-384D01*
X235256D01*
X236006Y-984D02*
Y-384D01*
X236456D01*
X236606Y-534D01*
Y-984D01*
X236906D02*
X237206Y-684D01*
Y-384D01*
X236906Y-85D01*
X212106D02*
X212706D01*
X212406D01*
Y-984D01*
X213456Y-85D02*
X213156D01*
X213006Y-234D01*
Y-834D01*
X213156Y-984D01*
X213456D01*
X213606Y-834D01*
Y-234D01*
X213456Y-85D01*
X213906D02*
X214506D01*
X214206D01*
Y-984D01*
X214805D02*
Y-384D01*
X215105Y-85D01*
X215405Y-384D01*
Y-984D01*
Y-534D01*
X214805D01*
X215705Y-85D02*
Y-984D01*
X216305D01*
X218012Y5671D02*
X218162Y5821D01*
X218462D01*
X218612Y5671D01*
Y5071D01*
X218462Y4921D01*
X218162D01*
X218012Y5071D01*
Y5671D01*
X218912Y4921D02*
Y5071D01*
X219061D01*
Y4921D01*
X218912D01*
X219661Y5671D02*
X219811Y5821D01*
X220111D01*
X220261Y5671D01*
Y5071D01*
X220111Y4921D01*
X219811D01*
X219661Y5071D01*
Y5671D01*
X220561D02*
X220711Y5821D01*
X221011D01*
X221161Y5671D01*
Y5071D01*
X221011Y4921D01*
X220711D01*
X220561Y5071D01*
Y5671D01*
X221461D02*
X221611Y5821D01*
X221911D01*
X222061Y5671D01*
Y5071D01*
X221911Y4921D01*
X221611D01*
X221461Y5071D01*
Y5671D01*
X222360Y5821D02*
X222960D01*
Y5671D01*
X222360Y5071D01*
Y4921D01*
X224160D02*
X224460D01*
X224310D01*
Y5521D01*
X224160D01*
X224910Y4921D02*
Y5521D01*
X225359D01*
X225509Y5371D01*
Y4921D01*
X218012Y6655D02*
X218162Y6805D01*
X218462D01*
X218612Y6655D01*
Y6055D01*
X218462Y5906D01*
X218162D01*
X218012Y6055D01*
Y6655D01*
X218912Y5906D02*
Y6055D01*
X219061D01*
Y5906D01*
X218912D01*
X219661Y6655D02*
X219811Y6805D01*
X220111D01*
X220261Y6655D01*
Y6055D01*
X220111Y5906D01*
X219811D01*
X219661Y6055D01*
Y6655D01*
X220561D02*
X220711Y6805D01*
X221011D01*
X221161Y6655D01*
Y6055D01*
X221011Y5906D01*
X220711D01*
X220561Y6055D01*
Y6655D01*
X221461D02*
X221611Y6805D01*
X221911D01*
X222061Y6655D01*
Y6055D01*
X221911Y5906D01*
X221611D01*
X221461Y6055D01*
Y6655D01*
X222360Y6805D02*
X222960D01*
Y6655D01*
X222360Y6055D01*
Y5906D01*
X224160D02*
X224460D01*
X224310D01*
Y6505D01*
X224160D01*
X224910Y5906D02*
Y6505D01*
X225359D01*
X225509Y6355D01*
Y5906D01*
X218012Y9608D02*
X218162Y9758D01*
X218462D01*
X218612Y9608D01*
Y9008D01*
X218462Y8858D01*
X218162D01*
X218012Y9008D01*
Y9608D01*
X218912Y8858D02*
Y9008D01*
X219061D01*
Y8858D01*
X218912D01*
X219661Y9608D02*
X219811Y9758D01*
X220111D01*
X220261Y9608D01*
Y9008D01*
X220111Y8858D01*
X219811D01*
X219661Y9008D01*
Y9608D01*
X220561D02*
X220711Y9758D01*
X221011D01*
X221161Y9608D01*
Y9008D01*
X221011Y8858D01*
X220711D01*
X220561Y9008D01*
Y9608D01*
X221461D02*
X221611Y9758D01*
X221911D01*
X222061Y9608D01*
Y9008D01*
X221911Y8858D01*
X221611D01*
X221461Y9008D01*
Y9608D01*
X222360Y9758D02*
X222960D01*
Y9608D01*
X222360Y9008D01*
Y8858D01*
X224160D02*
X224460D01*
X224310D01*
Y9458D01*
X224160D01*
X224910Y8858D02*
Y9458D01*
X225359D01*
X225509Y9308D01*
Y8858D01*
X218012Y13545D02*
X218162Y13695D01*
X218462D01*
X218612Y13545D01*
Y12945D01*
X218462Y12795D01*
X218162D01*
X218012Y12945D01*
Y13545D01*
X218912Y12795D02*
Y12945D01*
X219061D01*
Y12795D01*
X218912D01*
X219661Y13545D02*
X219811Y13695D01*
X220111D01*
X220261Y13545D01*
Y12945D01*
X220111Y12795D01*
X219811D01*
X219661Y12945D01*
Y13545D01*
X220561D02*
X220711Y13695D01*
X221011D01*
X221161Y13545D01*
Y12945D01*
X221011Y12795D01*
X220711D01*
X220561Y12945D01*
Y13545D01*
X221461D02*
X221611Y13695D01*
X221911D01*
X222061Y13545D01*
Y12945D01*
X221911Y12795D01*
X221611D01*
X221461Y12945D01*
Y13545D01*
X222360Y13695D02*
X222960D01*
Y13545D01*
X222360Y12945D01*
Y12795D01*
X224160D02*
X224460D01*
X224310D01*
Y13395D01*
X224160D01*
X224910Y12795D02*
Y13395D01*
X225359D01*
X225509Y13245D01*
Y12795D01*
X218012Y17482D02*
X218162Y17632D01*
X218462D01*
X218612Y17482D01*
Y16882D01*
X218462Y16732D01*
X218162D01*
X218012Y16882D01*
Y17482D01*
X218912Y16732D02*
Y16882D01*
X219061D01*
Y16732D01*
X218912D01*
X219661Y17482D02*
X219811Y17632D01*
X220111D01*
X220261Y17482D01*
Y16882D01*
X220111Y16732D01*
X219811D01*
X219661Y16882D01*
Y17482D01*
X220561D02*
X220711Y17632D01*
X221011D01*
X221161Y17482D01*
Y16882D01*
X221011Y16732D01*
X220711D01*
X220561Y16882D01*
Y17482D01*
X221461D02*
X221611Y17632D01*
X221911D01*
X222061Y17482D01*
Y16882D01*
X221911Y16732D01*
X221611D01*
X221461Y16882D01*
Y17482D01*
X222360Y17632D02*
X222960D01*
Y17482D01*
X222360Y16882D01*
Y16732D01*
X224160D02*
X224460D01*
X224310D01*
Y17332D01*
X224160D01*
X224910Y16732D02*
Y17332D01*
X225359D01*
X225509Y17182D01*
Y16732D01*
X218012Y16498D02*
X218162Y16648D01*
X218462D01*
X218612Y16498D01*
Y15898D01*
X218462Y15748D01*
X218162D01*
X218012Y15898D01*
Y16498D01*
X218912Y15748D02*
Y15898D01*
X219061D01*
Y15748D01*
X218912D01*
X219661Y16498D02*
X219811Y16648D01*
X220111D01*
X220261Y16498D01*
Y15898D01*
X220111Y15748D01*
X219811D01*
X219661Y15898D01*
Y16498D01*
X220561D02*
X220711Y16648D01*
X221011D01*
X221161Y16498D01*
Y15898D01*
X221011Y15748D01*
X220711D01*
X220561Y15898D01*
Y16498D01*
X221461D02*
X221611Y16648D01*
X221911D01*
X222061Y16498D01*
Y15898D01*
X221911Y15748D01*
X221611D01*
X221461Y15898D01*
Y16498D01*
X222360Y16648D02*
X222960D01*
Y16498D01*
X222360Y15898D01*
Y15748D01*
X224160D02*
X224460D01*
X224310D01*
Y16348D01*
X224160D01*
X224910Y15748D02*
Y16348D01*
X225359D01*
X225509Y16198D01*
Y15748D01*
X218012Y22553D02*
X218612D01*
X218312D01*
Y21654D01*
X218912Y22553D02*
Y21654D01*
Y22103D01*
X219061Y22253D01*
X219361D01*
X219511Y22103D01*
Y21654D01*
X219811D02*
X220111D01*
X219961D01*
Y22253D01*
X219811D01*
X221161D02*
X220711D01*
X220561Y22103D01*
Y21804D01*
X220711Y21654D01*
X221161D01*
X221461D02*
Y22553D01*
Y21953D02*
X221911Y22253D01*
X221461Y21953D02*
X221911Y21654D01*
X222360D02*
Y22253D01*
X222810D01*
X222960Y22103D01*
Y21654D01*
X223710D02*
X223410D01*
X223260Y21804D01*
Y22103D01*
X223410Y22253D01*
X223710D01*
X223860Y22103D01*
Y21953D01*
X223260D01*
X224160Y21654D02*
X224610D01*
X224760Y21804D01*
X224610Y21953D01*
X224310D01*
X224160Y22103D01*
X224310Y22253D01*
X224760D01*
X225060Y21654D02*
X225509D01*
X225659Y21804D01*
X225509Y21953D01*
X225209D01*
X225060Y22103D01*
X225209Y22253D01*
X225659D01*
X207185Y21654D02*
Y22553D01*
X207485Y22253D01*
X207785Y22553D01*
Y21654D01*
X208085D02*
Y22253D01*
X208385Y22553D01*
X208685Y22253D01*
Y21654D01*
Y22103D01*
X208085D01*
X208984Y22553D02*
X209584D01*
X209284D01*
Y21654D01*
X210484Y22553D02*
X209884D01*
Y21654D01*
X210484D01*
X209884Y22103D02*
X210184D01*
X210784Y21654D02*
Y22553D01*
X211234D01*
X211384Y22403D01*
Y22103D01*
X211234Y21953D01*
X210784D01*
X211084D02*
X211384Y21654D01*
X211684Y22553D02*
X211983D01*
X211834D01*
Y21654D01*
X211684D01*
X211983D01*
X212433D02*
Y22253D01*
X212733Y22553D01*
X213033Y22253D01*
Y21654D01*
Y22103D01*
X212433D01*
X213333Y22553D02*
Y21654D01*
X213933D01*
X200787Y22553D02*
Y21654D01*
X201387D01*
X201687D02*
Y22253D01*
X201987Y22553D01*
X202287Y22253D01*
Y21654D01*
Y22103D01*
X201687D01*
X202587Y22553D02*
Y22403D01*
X202887Y22103D01*
X203187Y22403D01*
Y22553D01*
X202887Y22103D02*
Y21654D01*
X204086Y22553D02*
X203487D01*
Y21654D01*
X204086D01*
X203487Y22103D02*
X203786D01*
X204386Y21654D02*
Y22553D01*
X204836D01*
X204986Y22403D01*
Y22103D01*
X204836Y21953D01*
X204386D01*
X204686D02*
X204986Y21654D01*
X202371Y2718D02*
X202222Y2868D01*
X201922D01*
X201772Y2718D01*
Y2118D01*
X201922Y1969D01*
X202222D01*
X202371Y2118D01*
Y2418D01*
X202072D01*
X202671Y2868D02*
Y1969D01*
X203121D01*
X203271Y2118D01*
Y2268D01*
X203121Y2418D01*
X202671D01*
X203121D01*
X203271Y2568D01*
Y2718D01*
X203121Y2868D01*
X202671D01*
X204021D02*
X203721D01*
X203571Y2718D01*
Y2118D01*
X203721Y1969D01*
X204021D01*
X204171Y2118D01*
Y2718D01*
X204021Y2868D01*
X202371Y4195D02*
X202222Y4345D01*
X201922D01*
X201772Y4195D01*
Y3595D01*
X201922Y3445D01*
X202222D01*
X202371Y3595D01*
Y3895D01*
X202072D01*
X202671Y4345D02*
Y3445D01*
X203121D01*
X203271Y3595D01*
Y3745D01*
X203121Y3895D01*
X202671D01*
X203121D01*
X203271Y4045D01*
Y4195D01*
X203121Y4345D01*
X202671D01*
X204171Y4195D02*
X204021Y4345D01*
X203721D01*
X203571Y4195D01*
Y4045D01*
X203721Y3895D01*
X204021D01*
X204171Y3745D01*
Y3595D01*
X204021Y3445D01*
X203721D01*
X203571Y3595D01*
X202371Y6163D02*
X202222Y6313D01*
X201922D01*
X201772Y6163D01*
Y5563D01*
X201922Y5413D01*
X202222D01*
X202371Y5563D01*
Y5863D01*
X202072D01*
X202671Y6313D02*
Y5413D01*
X203121D01*
X203271Y5563D01*
Y5713D01*
X203121Y5863D01*
X202671D01*
X203121D01*
X203271Y6013D01*
Y6163D01*
X203121Y6313D01*
X202671D01*
X203571D02*
Y5413D01*
X204171D01*
X202371Y9608D02*
X202222Y9758D01*
X201922D01*
X201772Y9608D01*
Y9008D01*
X201922Y8858D01*
X202222D01*
X202371Y9008D01*
Y9308D01*
X202072D01*
X202671Y8858D02*
Y9758D01*
X203121D01*
X203271Y9608D01*
Y9308D01*
X203121Y9158D01*
X202671D01*
X204171Y8858D02*
X203571D01*
X204171Y9458D01*
Y9608D01*
X204021Y9758D01*
X203721D01*
X203571Y9608D01*
X202371Y13545D02*
X202222Y13695D01*
X201922D01*
X201772Y13545D01*
Y12945D01*
X201922Y12795D01*
X202222D01*
X202371Y12945D01*
Y13245D01*
X202072D01*
X202671Y12795D02*
Y13695D01*
X203121D01*
X203271Y13545D01*
Y13245D01*
X203121Y13095D01*
X202671D01*
X203571Y12795D02*
X203871D01*
X203721D01*
Y13695D01*
X203571Y13545D01*
X202371Y16990D02*
X202222Y17140D01*
X201922D01*
X201772Y16990D01*
Y16390D01*
X201922Y16240D01*
X202222D01*
X202371Y16390D01*
Y16690D01*
X202072D01*
X202671Y17140D02*
X203271D01*
X202971D01*
Y16240D01*
X203571Y17140D02*
Y16240D01*
X204171D01*
X202371Y18958D02*
X202222Y19108D01*
X201922D01*
X201772Y18958D01*
Y18359D01*
X201922Y18209D01*
X202222D01*
X202371Y18359D01*
Y18659D01*
X202072D01*
X202671Y19108D02*
X203271D01*
X202971D01*
Y18209D01*
X204171Y18958D02*
X204021Y19108D01*
X203721D01*
X203571Y18958D01*
Y18808D01*
X203721Y18659D01*
X204021D01*
X204171Y18509D01*
Y18359D01*
X204021Y18209D01*
X203721D01*
X203571Y18359D01*
X202371Y20435D02*
X202222Y20585D01*
X201922D01*
X201772Y20435D01*
Y19835D01*
X201922Y19685D01*
X202222D01*
X202371Y19835D01*
Y20135D01*
X202072D01*
X202671Y20585D02*
X203271D01*
X202971D01*
Y19685D01*
X204021Y20585D02*
X203721D01*
X203571Y20435D01*
Y19835D01*
X203721Y19685D01*
X204021D01*
X204171Y19835D01*
Y20435D01*
X204021Y20585D01*
X207785Y11577D02*
X207635Y11726D01*
X207335D01*
X207185Y11577D01*
Y10977D01*
X207335Y10827D01*
X207635D01*
X207785Y10977D01*
X208235Y10827D02*
X208535D01*
X208685Y10977D01*
Y11277D01*
X208535Y11427D01*
X208235D01*
X208085Y11277D01*
Y10977D01*
X208235Y10827D01*
X208984Y11427D02*
Y10827D01*
Y11127D01*
X209134Y11277D01*
X209284Y11427D01*
X209434D01*
X210334Y10827D02*
X210034D01*
X209884Y10977D01*
Y11277D01*
X210034Y11427D01*
X210334D01*
X210484Y11277D01*
Y11127D01*
X209884D01*
X207185Y14272D02*
Y15171D01*
X207635D01*
X207785Y15021D01*
Y14722D01*
X207635Y14572D01*
X207185D01*
X208085Y14871D02*
Y14272D01*
Y14572D01*
X208235Y14722D01*
X208385Y14871D01*
X208535D01*
X209434Y14272D02*
X209134D01*
X208984Y14422D01*
Y14722D01*
X209134Y14871D01*
X209434D01*
X209584Y14722D01*
Y14572D01*
X208984D01*
X209884Y14722D02*
X210484D01*
X210784Y14272D02*
Y15171D01*
X211234D01*
X211384Y15021D01*
Y14722D01*
X211234Y14572D01*
X210784D01*
X211684Y14871D02*
Y14272D01*
Y14572D01*
X211834Y14722D01*
X211983Y14871D01*
X212133D01*
X213033Y14272D02*
X212733D01*
X212583Y14422D01*
Y14722D01*
X212733Y14871D01*
X213033D01*
X213183Y14722D01*
Y14572D01*
X212583D01*
X213783Y13972D02*
X213933D01*
X214083Y14122D01*
Y14871D01*
X213633D01*
X213483Y14722D01*
Y14422D01*
X213633Y14272D01*
X214083D01*
X207185Y7382D02*
Y8282D01*
X207635D01*
X207785Y8132D01*
Y7832D01*
X207635Y7682D01*
X207185D01*
X208085Y7982D02*
Y7382D01*
Y7682D01*
X208235Y7832D01*
X208385Y7982D01*
X208535D01*
X209434Y7382D02*
X209134D01*
X208984Y7532D01*
Y7832D01*
X209134Y7982D01*
X209434D01*
X209584Y7832D01*
Y7682D01*
X208984D01*
X209884Y7832D02*
X210484D01*
X210784Y7382D02*
Y8282D01*
X211234D01*
X211384Y8132D01*
Y7832D01*
X211234Y7682D01*
X210784D01*
X211684Y7982D02*
Y7382D01*
Y7682D01*
X211834Y7832D01*
X211983Y7982D01*
X212133D01*
X213033Y7382D02*
X212733D01*
X212583Y7532D01*
Y7832D01*
X212733Y7982D01*
X213033D01*
X213183Y7832D01*
Y7682D01*
X212583D01*
X213783Y7082D02*
X213933D01*
X214083Y7232D01*
Y7982D01*
X213633D01*
X213483Y7832D01*
Y7532D01*
X213633Y7382D01*
X214083D01*
X207785Y6655D02*
X207635Y6805D01*
X207335D01*
X207185Y6655D01*
Y6055D01*
X207335Y5906D01*
X207635D01*
X207785Y6055D01*
X208235Y5906D02*
X208535D01*
X208685Y6055D01*
Y6355D01*
X208535Y6505D01*
X208235D01*
X208085Y6355D01*
Y6055D01*
X208235Y5906D01*
X208984Y5606D02*
Y6505D01*
X209434D01*
X209584Y6355D01*
Y6055D01*
X209434Y5906D01*
X208984D01*
X209884Y5606D02*
Y6505D01*
X210334D01*
X210484Y6355D01*
Y6055D01*
X210334Y5906D01*
X209884D01*
X211234D02*
X210934D01*
X210784Y6055D01*
Y6355D01*
X210934Y6505D01*
X211234D01*
X211384Y6355D01*
Y6205D01*
X210784D01*
X211684Y6505D02*
Y5906D01*
Y6205D01*
X211834Y6355D01*
X211983Y6505D01*
X212133D01*
X207185Y4921D02*
Y5821D01*
X207635D01*
X207785Y5671D01*
Y5371D01*
X207635Y5221D01*
X207185D01*
X208085Y4921D02*
X208385D01*
X208235D01*
Y5821D01*
X208085D01*
X208984Y5521D02*
X209284D01*
X209434Y5371D01*
Y4921D01*
X208984D01*
X208835Y5071D01*
X208984Y5221D01*
X209434D01*
X209884Y5671D02*
Y5521D01*
X209734D01*
X210034D01*
X209884D01*
Y5071D01*
X210034Y4921D01*
X210484D02*
X210784D01*
X210634D01*
Y5521D01*
X210484D01*
X211234Y4921D02*
Y5521D01*
X211684D01*
X211834Y5371D01*
Y4921D01*
X212433Y4621D02*
X212583D01*
X212733Y4771D01*
Y5521D01*
X212283D01*
X212133Y5371D01*
Y5071D01*
X212283Y4921D01*
X212733D01*
X207185Y16732D02*
Y17632D01*
X207635D01*
X207785Y17482D01*
Y17182D01*
X207635Y17032D01*
X207185D01*
X208085Y16732D02*
X208385D01*
X208235D01*
Y17632D01*
X208085D01*
X208984Y17332D02*
X209284D01*
X209434Y17182D01*
Y16732D01*
X208984D01*
X208835Y16882D01*
X208984Y17032D01*
X209434D01*
X209884Y17482D02*
Y17332D01*
X209734D01*
X210034D01*
X209884D01*
Y16882D01*
X210034Y16732D01*
X210484D02*
X210784D01*
X210634D01*
Y17332D01*
X210484D01*
X211234Y16732D02*
Y17332D01*
X211684D01*
X211834Y17182D01*
Y16732D01*
X212433Y16432D02*
X212583D01*
X212733Y16582D01*
Y17332D01*
X212283D01*
X212133Y17182D01*
Y16882D01*
X212283Y16732D01*
X212733D01*
X207785Y16498D02*
X207635Y16648D01*
X207335D01*
X207185Y16498D01*
Y15898D01*
X207335Y15748D01*
X207635D01*
X207785Y15898D01*
X208235Y15748D02*
X208535D01*
X208685Y15898D01*
Y16198D01*
X208535Y16348D01*
X208235D01*
X208085Y16198D01*
Y15898D01*
X208235Y15748D01*
X208984Y15448D02*
Y16348D01*
X209434D01*
X209584Y16198D01*
Y15898D01*
X209434Y15748D01*
X208984D01*
X209884Y15448D02*
Y16348D01*
X210334D01*
X210484Y16198D01*
Y15898D01*
X210334Y15748D01*
X209884D01*
X211234D02*
X210934D01*
X210784Y15898D01*
Y16198D01*
X210934Y16348D01*
X211234D01*
X211384Y16198D01*
Y16048D01*
X210784D01*
X211684Y16348D02*
Y15748D01*
Y16048D01*
X211834Y16198D01*
X211983Y16348D01*
X212133D01*
X207785Y9608D02*
X207635Y9758D01*
X207335D01*
X207185Y9608D01*
Y9008D01*
X207335Y8858D01*
X207635D01*
X207785Y9008D01*
X208235Y8858D02*
X208535D01*
X208685Y9008D01*
Y9308D01*
X208535Y9458D01*
X208235D01*
X208085Y9308D01*
Y9008D01*
X208235Y8858D01*
X208984Y8558D02*
Y9458D01*
X209434D01*
X209584Y9308D01*
Y9008D01*
X209434Y8858D01*
X208984D01*
X209884Y8558D02*
Y9458D01*
X210334D01*
X210484Y9308D01*
Y9008D01*
X210334Y8858D01*
X209884D01*
X211234D02*
X210934D01*
X210784Y9008D01*
Y9308D01*
X210934Y9458D01*
X211234D01*
X211384Y9308D01*
Y9158D01*
X210784D01*
X211684Y9458D02*
Y8858D01*
Y9158D01*
X211834Y9308D01*
X211983Y9458D01*
X212133D01*
X207785Y13545D02*
X207635Y13695D01*
X207335D01*
X207185Y13545D01*
Y12945D01*
X207335Y12795D01*
X207635D01*
X207785Y12945D01*
X208235Y12795D02*
X208535D01*
X208685Y12945D01*
Y13245D01*
X208535Y13395D01*
X208235D01*
X208085Y13245D01*
Y12945D01*
X208235Y12795D01*
X208984Y12495D02*
Y13395D01*
X209434D01*
X209584Y13245D01*
Y12945D01*
X209434Y12795D01*
X208984D01*
X209884Y12495D02*
Y13395D01*
X210334D01*
X210484Y13245D01*
Y12945D01*
X210334Y12795D01*
X209884D01*
X211234D02*
X210934D01*
X210784Y12945D01*
Y13245D01*
X210934Y13395D01*
X211234D01*
X211384Y13245D01*
Y13095D01*
X210784D01*
X211684Y13395D02*
Y12795D01*
Y13095D01*
X211834Y13245D01*
X211983Y13395D01*
X212133D01*
D89*
X24387Y120552D02*
X24221D01*
X24304D01*
Y121051D01*
X24387Y120968D01*
X24152Y119469D02*
X24486D01*
X24152Y119802D01*
Y119886D01*
X24236Y119969D01*
X24402D01*
X24486Y119886D01*
X48354Y94372D02*
Y94705D01*
X48021Y94372D01*
X47937D01*
X47854Y94455D01*
Y94622D01*
X47937Y94705D01*
X47310Y94567D02*
Y94401D01*
Y94484D01*
X46811D01*
X46894Y94567D01*
X21533Y117243D02*
Y116910D01*
X21866Y117243D01*
X21949D01*
X22033Y117160D01*
Y116993D01*
X21949Y116910D01*
X22616Y117008D02*
Y117175D01*
Y117092D01*
X23115D01*
X23032Y117008D01*
D90*
X80045Y122200D02*
X96045D01*
X80045D02*
Y123200D01*
X80795D01*
X96045D01*
Y122200D02*
Y123200D01*
X102423Y113976D02*
Y117976D01*
X104423Y113976D02*
Y117976D01*
X102423D02*
X104423D01*
X102423Y113976D02*
X104423D01*
X80045Y89279D02*
Y90279D01*
Y89279D02*
X95295D01*
X96045D01*
Y90279D01*
X80045D02*
X96045D01*
X72734Y114042D02*
Y118042D01*
X70734Y114042D02*
Y118042D01*
Y114042D02*
X72734D01*
X70734Y118042D02*
X72734D01*
X84041Y122200D02*
Y123194D01*
X92048Y122200D02*
Y123194D01*
X84048Y89280D02*
Y90274D01*
X90048Y89280D02*
Y90274D01*
X73386Y69731D02*
X74386D01*
X73386D02*
Y73731D01*
X74386Y69731D02*
Y73731D01*
X73386D02*
X74386D01*
X73386Y65231D02*
X74386D01*
X73386D02*
Y69231D01*
X74386Y65231D02*
Y69231D01*
X73386D02*
X74386D01*
X73386Y60731D02*
X74386D01*
X73386D02*
Y64731D01*
X74386Y60731D02*
Y64731D01*
X73386D02*
X74386D01*
X73386Y74231D02*
X74386D01*
X73386D02*
Y78231D01*
X74386Y74231D02*
Y78231D01*
X73386D02*
X74386D01*
X85886Y61231D02*
Y63231D01*
X84886D02*
X85886D01*
X84886Y61231D02*
Y63231D01*
Y61231D02*
X85886D01*
X122785Y52237D02*
X123785D01*
X122785D02*
Y56237D01*
X123785Y52237D02*
Y56237D01*
X122785D02*
X123785D01*
X122785Y47737D02*
X123785D01*
X122785D02*
Y51737D01*
X123785Y47737D02*
Y51737D01*
X122785D02*
X123785D01*
X122785Y43237D02*
X123785D01*
X122785D02*
Y47237D01*
X123785Y43237D02*
Y47237D01*
X122785D02*
X123785D01*
X122785Y56737D02*
X123785D01*
X122785D02*
Y60737D01*
X123785Y56737D02*
Y60737D01*
X122785D02*
X123785D01*
X135285Y43737D02*
Y45737D01*
X134285D02*
X135285D01*
X134285Y43737D02*
Y45737D01*
Y43737D02*
X135285D01*
X151281Y32083D02*
Y33083D01*
X143281Y32083D02*
X151281D01*
X143281D02*
Y33083D01*
X151281D01*
X142281Y48629D02*
X151531D01*
X152281D01*
Y49629D01*
X142281D02*
X152281D01*
X142281Y48629D02*
Y49629D01*
X103209Y50458D02*
Y51458D01*
X95209Y50458D02*
X103209D01*
X95209D02*
Y51458D01*
X103209D01*
X94209Y67004D02*
X103459D01*
X104209D01*
Y68004D01*
X94209D02*
X104209D01*
X94209Y67004D02*
Y68004D01*
D91*
X72634Y79022D02*
X86374D01*
X72634Y60557D02*
Y79022D01*
Y60557D02*
X86374D01*
Y79022D01*
X122033Y61528D02*
X135773D01*
X122033Y43064D02*
Y61528D01*
Y43064D02*
X135773D01*
Y61528D01*
D95*
X118481Y95043D02*
X152481D01*
X118481Y73543D02*
Y95043D01*
Y73543D02*
X152481D01*
Y95043D01*
X79890Y66629D02*
X80677D01*
Y67023D01*
X80546Y67154D01*
X80284D01*
X80153Y67023D01*
Y66629D01*
Y66891D02*
X79890Y67154D01*
Y67810D02*
Y67547D01*
X80021Y67416D01*
X80284D01*
X80415Y67547D01*
Y67810D01*
X80284Y67941D01*
X80153D01*
Y67416D01*
X79628Y68466D02*
Y68597D01*
X79759Y68728D01*
X80415D01*
Y68335D01*
X80284Y68203D01*
X80021D01*
X79890Y68335D01*
Y68728D01*
X80415Y68991D02*
X80021D01*
X79890Y69122D01*
Y69515D01*
X80415D01*
X79890Y69778D02*
Y70040D01*
Y69909D01*
X80677D01*
Y69778D01*
X80415Y70565D02*
Y70827D01*
X80284Y70958D01*
X79890D01*
Y70565D01*
X80021Y70434D01*
X80153Y70565D01*
Y70958D01*
X80546Y71352D02*
X80415D01*
Y71221D01*
Y71483D01*
Y71352D01*
X80021D01*
X79890Y71483D01*
Y72008D02*
Y72270D01*
X80021Y72402D01*
X80284D01*
X80415Y72270D01*
Y72008D01*
X80284Y71877D01*
X80021D01*
X79890Y72008D01*
X80415Y72664D02*
X79890D01*
X80153D01*
X80284Y72795D01*
X80415Y72926D01*
Y73057D01*
X82055Y65645D02*
X81268D01*
Y66170D01*
Y66563D02*
Y66826D01*
X81399Y66957D01*
X81662D01*
X81793Y66826D01*
Y66563D01*
X81662Y66432D01*
X81399D01*
X81268Y66563D01*
X81793Y67219D02*
X81399D01*
X81268Y67350D01*
X81399Y67482D01*
X81268Y67613D01*
X81399Y67744D01*
X81793D01*
X81662Y68006D02*
Y68531D01*
X82055Y68793D02*
X81268D01*
Y69187D01*
X81399Y69318D01*
X81924D01*
X82055Y69187D01*
Y68793D01*
X81793Y69581D02*
X81268D01*
X81530D01*
X81662Y69712D01*
X81793Y69843D01*
Y69974D01*
X81268Y70499D02*
Y70761D01*
X81399Y70893D01*
X81662D01*
X81793Y70761D01*
Y70499D01*
X81662Y70368D01*
X81399D01*
X81268Y70499D01*
X81006Y71155D02*
X81793D01*
Y71548D01*
X81662Y71680D01*
X81399D01*
X81268Y71548D01*
Y71155D01*
Y72073D02*
Y72336D01*
X81399Y72467D01*
X81662D01*
X81793Y72336D01*
Y72073D01*
X81662Y71942D01*
X81399D01*
X81268Y72073D01*
X81793Y72729D02*
X81399D01*
X81268Y72860D01*
Y73254D01*
X81793D01*
X81924Y73648D02*
X81793D01*
Y73516D01*
Y73779D01*
Y73648D01*
X81399D01*
X81268Y73779D01*
X129289Y49135D02*
X130076D01*
Y49529D01*
X129945Y49660D01*
X129683D01*
X129551Y49529D01*
Y49135D01*
Y49398D02*
X129289Y49660D01*
Y50316D02*
Y50054D01*
X129420Y49923D01*
X129683D01*
X129814Y50054D01*
Y50316D01*
X129683Y50447D01*
X129551D01*
Y49923D01*
X129027Y50972D02*
Y51103D01*
X129158Y51234D01*
X129814D01*
Y50841D01*
X129683Y50710D01*
X129420D01*
X129289Y50841D01*
Y51234D01*
X129814Y51497D02*
X129420D01*
X129289Y51628D01*
Y52022D01*
X129814D01*
X129289Y52284D02*
Y52546D01*
Y52415D01*
X130076D01*
Y52284D01*
X129814Y53071D02*
Y53334D01*
X129683Y53465D01*
X129289D01*
Y53071D01*
X129420Y52940D01*
X129551Y53071D01*
Y53465D01*
X129945Y53858D02*
X129814D01*
Y53727D01*
Y53990D01*
Y53858D01*
X129420D01*
X129289Y53990D01*
Y54514D02*
Y54777D01*
X129420Y54908D01*
X129683D01*
X129814Y54777D01*
Y54514D01*
X129683Y54383D01*
X129420D01*
X129289Y54514D01*
X129814Y55170D02*
X129289D01*
X129551D01*
X129683Y55301D01*
X129814Y55433D01*
Y55564D01*
X131454Y48151D02*
X130667D01*
Y48676D01*
Y49070D02*
Y49332D01*
X130798Y49463D01*
X131060D01*
X131192Y49332D01*
Y49070D01*
X131060Y48938D01*
X130798D01*
X130667Y49070D01*
X131192Y49725D02*
X130798D01*
X130667Y49857D01*
X130798Y49988D01*
X130667Y50119D01*
X130798Y50250D01*
X131192D01*
X131060Y50513D02*
Y51037D01*
X131454Y51300D02*
X130667D01*
Y51693D01*
X130798Y51825D01*
X131323D01*
X131454Y51693D01*
Y51300D01*
X131192Y52087D02*
X130667D01*
X130929D01*
X131060Y52218D01*
X131192Y52349D01*
Y52480D01*
X130667Y53005D02*
Y53268D01*
X130798Y53399D01*
X131060D01*
X131192Y53268D01*
Y53005D01*
X131060Y52874D01*
X130798D01*
X130667Y53005D01*
X130405Y53661D02*
X131192D01*
Y54055D01*
X131060Y54186D01*
X130798D01*
X130667Y54055D01*
Y53661D01*
Y54580D02*
Y54842D01*
X130798Y54973D01*
X131060D01*
X131192Y54842D01*
Y54580D01*
X131060Y54448D01*
X130798D01*
X130667Y54580D01*
X131192Y55236D02*
X130798D01*
X130667Y55367D01*
Y55760D01*
X131192D01*
X131323Y56154D02*
X131192D01*
Y56023D01*
Y56285D01*
Y56154D01*
X130798D01*
X130667Y56285D01*
M02*
