M48
;Layer_Color=9474304
;FILE_FORMAT=4:4
METRIC,LZ
;TYPE=PLATED
T1F00S00C0.2000
T2F00S00C0.3000
T3F00S00C0.5000
T4F00S00C0.9000
T5F00S00C1.5000
T6F00S00C3.5000
%
T01
X01615Y0197425
X0164
X01682775Y01979725
X01688475Y01948
X01695475
X01702475
X01684Y019245
X01781Y01956
X01781Y01964
X01825Y01955
X018275Y0191
X01801Y01897
X01793Y01897
X01809Y0187
X01817
X01825
X01833
X01873Y01897
X01881Y018965
X01895Y01922
X01909Y01924
X01908Y01932
X01905Y01956
Y01964
X01935Y019625
X0198Y019625
X018625Y01935
X02033Y019805
X0206Y01982
X0209Y019805
X02128
X02121Y01971
X02185Y019805
X0219Y018675
X0225
X02295Y01879
X023325Y01945
Y0197
X02425
Y01945
X02665Y019225
X0269
Y0197
X02665
X03248Y02127
X03257Y02176
X03241Y02185
Y02195
Y02204
X03248
X03247Y02294
X03197
X03176Y02248
X03155Y02201
X0314Y02152
X03128Y02303
X02947Y02294
X02897
X02876Y02248
X02855Y02201
X0284Y02152
X02948Y02127
X02957Y02176
X02941Y02185
Y02195
Y02204
X02948
X02828Y02303
X02647Y02294
X02597
X02576Y02248
X02555Y02201
X0254Y02152
X02648Y02127
X02657Y02176
X02641Y02185
Y02195
Y02204
X02648
X02528Y02303
X02495Y02297
Y02272
X02425Y0207
Y02045
Y0202
Y01995
X023325
Y0202
Y02045
Y0207
X02348Y02127
X02357Y02176
X02341Y02185
Y02195
Y02204
X02348
X02347Y02294
X02297
X02276Y02248
X02255Y02201
X0224Y02152
X02242864Y02052
X02217Y02051
Y02019
X02235Y02017007
X02241Y02009
X02257995Y02019996
X02269Y02055
X02178Y02052
X021775Y02025
X02169
X0216
X021985Y02026
X02215Y01995
X02185Y01987
X02155Y01985
X0213Y020065
X021175
X02117Y01998
X0209Y01987
X020825Y02025
X02074
X02065
X0206Y02013
X021035Y02026
X02083Y02052
X02048Y02127
X02057Y02176
X02041Y02185
Y02195
Y02204
X02048
X02047Y02294
X01997
X02228Y02303
X01928
X01976Y02248
X01955Y022
X0194Y02152
X01887Y0212
X01897Y02108
X01907Y02096
X01917Y02084
X01927Y02072
X019075Y02005
X01908Y01996
X01908Y01988
X01935Y019875
X0198Y019875
X018625Y0199
Y02015
X01825Y0201
X01793Y02023
X01781996Y02061996
X017875Y020825
X01793157Y02088157
X01798814Y02093814
X01732Y020905
X017225Y0209
X01713Y020905
X017225Y0207
X01734Y02041
X01735Y0202
X01737Y01996
X01721Y01989
X01715Y01985
X01714525Y01995475
X01677Y0199
X016775Y0201125
X0169515Y02029
X0170215
X0164Y02041
X01623004Y02061996
X01655Y02119
X0164Y02152
X01676Y02248
X01697Y02294
X01747
X01748Y02204
X01741
Y02195
Y02185
X01757Y02176
X01748Y02127
X0161Y023125
X01595Y02325
Y02335
X0159725Y023445
X0156Y02315
X0157525Y0244025
X0158275Y0249025
X0159275Y0245525
X0160275
X0161225Y02453
X0161025Y0255025
X0159025
T02
X0148688Y0185227
X015Y0184875
X0151312Y0185227
X0152273Y0186188
X0152625Y01875
X01522733Y01888125
X0151312Y0189773
X015Y0190125
X01486875Y01897733
X0147727Y0188812
X0147375Y01875
X0147727Y0186188
X0282727
X0282375Y01875
X0282727Y0188812
X02836875Y01897733
X0285Y0190125
X0286312Y0189773
X02872733Y01888125
X0287625Y01875
X0287273Y0186188
X0286312Y0185227
X0285Y0184875
X0283688Y0185227
X0338688
X034Y0184875
X0341312Y0185227
X0342273Y0186188
X0342625Y01875
X03422733Y01888125
X0341312Y0189773
X034Y0190125
X03386875Y01897733
X0337727Y0188812
X0337375Y01875
X0337727Y0186188
X0151312Y0260227
X015Y0259875
X0148688Y0260227
X0147727Y0261188
X0147375Y02625
X0147727Y0263812
X01486875Y02647733
X015Y0265125
X0151312Y0264773
X01522733Y02638125
X0152625Y02625
X0152273Y0261188
X01692Y024245
Y024045
Y023845
X01722
Y024045
Y024245
X01752
Y024045
Y023845
X01992
Y024045
Y024245
X02022
Y024045
Y023845
X02052
Y024045
Y024245
X02292
Y024045
Y023845
X02322
Y024045
Y024245
X02352
Y024045
Y023845
X02592
Y024045
Y024245
X02622
Y024045
Y023845
X02652
Y024045
Y024245
X0246312Y0260227
X0245Y0259875
X0243688Y0260227
X0242727Y0261188
X0242375Y02625
X0242727Y0263812
X02436875Y02647733
X0245Y0265125
X0246312Y0264773
X02472733Y02638125
X0247625Y02625
X0247273Y0261188
X02892Y024245
Y024045
Y023845
X02922
Y024045
Y024245
X02952
Y024045
Y023845
X03192
Y024045
Y024245
X03222
Y024045
Y023845
X03252
Y024045
Y024245
X0338688Y0260227
X034Y0259875
X0341312Y0260227
X0342273Y0261188
X0342625Y02625
X03422733Y02638125
X0341312Y0264773
X034Y0265125
X03386875Y02647733
X0337727Y0263812
X0337375Y02625
X0337727Y0261188
T03
X03188Y0221925
X03229Y0224
X03261Y02235
Y02272
X03222Y02336
X03316Y02201
X03145Y02246
X03163Y02347
X02922Y02336
X02863Y02347
X02845Y02246
X02888Y0221925
X02929Y0224
X02961Y02235
Y02272
X03016Y02201
X02716
X02661Y02235
Y02272
X02629Y0224
X02588Y0221925
X02545Y02246
X02563Y02347
X02622Y02336
X02416Y02201
X02361Y02235
Y02272
X02329Y0224
X02288Y0221925
X02245Y02246
X02263Y02347
X02322Y02336
X02022
X02029Y0224
X02061Y02235
Y02272
X01988Y0221925
X02116Y02201
X01945Y02246
X01963Y02347
X01722Y02336
X01663Y02347
X01645Y02246
X01688Y0221925
X01729Y0224
X01761Y02235
Y02272
X01816Y02201
X01806Y02385
Y0243
Y02475
X02106
X02106Y0243
Y02385
X02406
Y0243
X02406Y02475
X02706
Y0243
Y02385
X03006
Y0243
X03006Y02475
X03306
X03306Y0243
Y02385
T04
X01525Y019314
Y019568
Y019822
X020742Y019
X020996
X02125
Y018746
X020996
X020742
X0223Y0194
Y0198
X02375Y01875
X024004
X024258
X024512
X024766
X02502
X02575
Y019004
X026004
Y01875
X026258
Y019004
X026512
Y01875
X026766
Y019004
X02702
Y01875
X027274
Y019004
X027528
Y01875
X01525Y020076
Y02033
Y020584
Y020838
Y021092
Y021346
Y0216
T05
X03375Y019996
Y020504
X01525Y022246
Y022754
Y023996
Y024504
X016746Y026
X017254
X019746
X020254
X022746
X023254
X025746
X026254
X028746
X029254
X031746
X032254
T06
X015Y01875
X0285
X034
X015Y02625
X0245
X034
M30
