%FSLAX44Y44*%
%MOMM*%
G71*
G01*
G75*
G04 Layer_Physical_Order=2*
G04 Layer_Color=32768*
%ADD10R,1.6000X1.5000*%
%ADD11R,1.5000X1.4000*%
%ADD12R,1.4000X1.5000*%
%ADD13R,0.6500X1.1000*%
%ADD14R,1.5000X1.6000*%
%ADD15R,1.1000X0.6500*%
%ADD16R,0.9500X3.2000*%
%ADD17R,10.5000X8.3000*%
%ADD18R,1.8000X3.5000*%
%ADD19R,1.9000X1.5000*%
%ADD20O,0.4000X2.2500*%
%ADD21R,0.9000X0.6500*%
%ADD22O,1.7000X0.3500*%
%ADD23O,0.5500X1.7500*%
%ADD24O,1.7500X0.5500*%
%ADD25R,2.5000X3.8500*%
%ADD26R,1.5000X2.8000*%
%ADD27R,1.0000X3.0500*%
%ADD28R,5.5500X6.5000*%
%ADD29R,2.1000X5.6000*%
%ADD30R,2.1000X1.4000*%
%ADD31C,0.2000*%
%ADD32C,1.5000*%
%ADD33C,0.8000*%
%ADD34C,1.2000*%
%ADD35C,0.7500*%
%ADD36C,1.0000*%
%ADD37C,0.2540*%
%ADD38R,1.5000X1.5000*%
%ADD39C,1.5000*%
%ADD40R,1.5000X1.5000*%
%ADD41C,1.0000*%
%ADD42C,7.0000*%
%ADD43C,2.5400*%
%ADD44C,0.5000*%
%ADD45C,0.9000*%
%ADD46C,1.0160*%
%ADD47C,1.9160*%
G04:AMPARAMS|DCode=48|XSize=2.424mm|YSize=2.424mm|CornerRadius=0mm|HoleSize=0mm|Usage=FLASHONLY|Rotation=0.000|XOffset=0mm|YOffset=0mm|HoleType=Round|Shape=Relief|Width=0.254mm|Gap=0.254mm|Entries=4|*
%AMTHD48*
7,0,0,2.4240,1.9160,0.2540,45*
%
%ADD48THD48*%
%ADD49C,1.3160*%
%ADD50C,4.5160*%
%ADD51C,2.5160*%
G04:AMPARAMS|DCode=52|XSize=3.024mm|YSize=3.024mm|CornerRadius=0mm|HoleSize=0mm|Usage=FLASHONLY|Rotation=0.000|XOffset=0mm|YOffset=0mm|HoleType=Round|Shape=Relief|Width=0.254mm|Gap=0.254mm|Entries=4|*
%AMTHD52*
7,0,0,3.0240,2.5160,0.2540,45*
%
%ADD52THD52*%
%ADD53C,1.2160*%
%ADD54C,1.5160*%
D37*
X1450000Y1825000D02*
Y2675000D01*
Y1825000D02*
X3450000D01*
Y2675000D01*
X1450000D02*
X3450000D01*
X3025000Y2715235D02*
Y2700000D01*
X3032617D01*
X3035157Y2702539D01*
Y2705078D01*
X3032617Y2707617D01*
X3025000D01*
X3032617D01*
X3035157Y2710157D01*
Y2712696D01*
X3032617Y2715235D01*
X3025000D01*
X3042774Y2700000D02*
X3047852D01*
X3050392Y2702539D01*
Y2707617D01*
X3047852Y2710157D01*
X3042774D01*
X3040235Y2707617D01*
Y2702539D01*
X3042774Y2700000D01*
X3058009Y2710157D02*
X3063088D01*
X3065627Y2707617D01*
Y2700000D01*
X3058009D01*
X3055470Y2702539D01*
X3058009Y2705078D01*
X3065627D01*
X3070705Y2710157D02*
Y2700000D01*
Y2705078D01*
X3073244Y2707617D01*
X3075784Y2710157D01*
X3078323D01*
X3096097Y2715235D02*
Y2700000D01*
X3088480D01*
X3085940Y2702539D01*
Y2707617D01*
X3088480Y2710157D01*
X3096097D01*
X3124028Y2715235D02*
X3118950D01*
X3116411Y2712696D01*
Y2702539D01*
X3118950Y2700000D01*
X3124028D01*
X3126567Y2702539D01*
Y2712696D01*
X3124028Y2715235D01*
X3131646Y2710157D02*
Y2702539D01*
X3134185Y2700000D01*
X3141802D01*
Y2710157D01*
X3149420Y2712696D02*
Y2710157D01*
X3146880D01*
X3151959D01*
X3149420D01*
Y2702539D01*
X3151959Y2700000D01*
X3159576D02*
X3164655D01*
X3162115D01*
Y2715235D01*
X3159576D01*
X3172272Y2700000D02*
X3177351D01*
X3174811D01*
Y2710157D01*
X3172272D01*
X3184968Y2700000D02*
Y2710157D01*
X3192586D01*
X3195125Y2707617D01*
Y2700000D01*
X3207821D02*
X3202743D01*
X3200203Y2702539D01*
Y2707617D01*
X3202743Y2710157D01*
X3207821D01*
X3210360Y2707617D01*
Y2705078D01*
X3200203D01*
X3217978Y2697461D02*
X3220517Y2700000D01*
Y2702539D01*
X3217978D01*
Y2700000D01*
X3220517D01*
X3217978Y2697461D01*
X3215439Y2694922D01*
X3256065Y2700000D02*
X3245909D01*
X3256065Y2710157D01*
Y2712696D01*
X3253526Y2715235D01*
X3248448D01*
X3245909Y2712696D01*
X3261143D02*
X3263683Y2715235D01*
X3268761D01*
X3271300Y2712696D01*
Y2702539D01*
X3268761Y2700000D01*
X3263683D01*
X3261143Y2702539D01*
Y2712696D01*
X3276379D02*
X3278918Y2715235D01*
X3283996D01*
X3286535Y2712696D01*
Y2702539D01*
X3283996Y2700000D01*
X3278918D01*
X3276379Y2702539D01*
Y2712696D01*
X3291614Y2700000D02*
Y2710157D01*
X3294153D01*
X3296692Y2707617D01*
Y2700000D01*
Y2707617D01*
X3299231Y2710157D01*
X3301771Y2707617D01*
Y2700000D01*
X3306849D02*
Y2710157D01*
X3309388D01*
X3311927Y2707617D01*
Y2700000D01*
Y2707617D01*
X3314466Y2710157D01*
X3317006Y2707617D01*
Y2700000D01*
X3337319Y2710157D02*
X3347476Y2700000D01*
X3342397Y2705078D01*
X3347476Y2710157D01*
X3337319Y2700000D01*
X3367789Y2712696D02*
X3370328Y2715235D01*
X3375406D01*
X3377946Y2712696D01*
Y2710157D01*
X3375406Y2707617D01*
X3377946Y2705078D01*
Y2702539D01*
X3375406Y2700000D01*
X3370328D01*
X3367789Y2702539D01*
Y2705078D01*
X3370328Y2707617D01*
X3367789Y2710157D01*
Y2712696D01*
X3370328Y2707617D02*
X3375406D01*
X3393181Y2715235D02*
X3383024D01*
Y2707617D01*
X3388102Y2710157D01*
X3390642D01*
X3393181Y2707617D01*
Y2702539D01*
X3390642Y2700000D01*
X3385563D01*
X3383024Y2702539D01*
X3398259Y2700000D02*
Y2710157D01*
X3400798D01*
X3403338Y2707617D01*
Y2700000D01*
Y2707617D01*
X3405877Y2710157D01*
X3408416Y2707617D01*
Y2700000D01*
X3413494D02*
Y2710157D01*
X3416034D01*
X3418573Y2707617D01*
Y2700000D01*
Y2707617D01*
X3421112Y2710157D01*
X3423651Y2707617D01*
Y2700000D01*
D46*
X1450000Y2675000D02*
X3450000D01*
Y1825000D02*
Y2675000D01*
X1450000Y1825000D02*
X3450000D01*
X1450000D02*
Y2675000D01*
D47*
X2125000Y1900000D02*
D03*
Y1874600D02*
D03*
X2099600Y1900000D02*
D03*
Y1874600D02*
D03*
X2074200Y1900000D02*
D03*
X1525000Y2109200D02*
D03*
Y1931400D02*
D03*
Y1956800D02*
D03*
Y1982200D02*
D03*
Y2007600D02*
D03*
Y2033000D02*
D03*
Y2058400D02*
D03*
Y2083800D02*
D03*
Y2134600D02*
D03*
Y2160000D02*
D03*
X2375000Y1875000D02*
D03*
X2400400D02*
D03*
X2425800D02*
D03*
X2451200D02*
D03*
X2575000D02*
D03*
Y1900400D02*
D03*
X2600400Y1875000D02*
D03*
Y1900400D02*
D03*
X2625800Y1875000D02*
D03*
X2651200D02*
D03*
X2676600D02*
D03*
X2702000D02*
D03*
X2727400D02*
D03*
X2752800D02*
D03*
X2230000Y1980000D02*
D03*
D48*
X2074200Y1874600D02*
D03*
X2476600Y1875000D02*
D03*
X2502000D02*
D03*
X2625800Y1900400D02*
D03*
X2651200D02*
D03*
X2676600D02*
D03*
X2702000D02*
D03*
X2727400D02*
D03*
X2752800D02*
D03*
X2230000Y1940000D02*
D03*
D49*
X2863120Y1897730D02*
D03*
X2872733Y1888125D02*
D03*
X2863120Y1852270D02*
D03*
X2872730Y1861880D02*
D03*
X2836880Y1852270D02*
D03*
X2827270Y1861880D02*
D03*
X2836875Y1897733D02*
D03*
X2827270Y1888120D02*
D03*
X2850000Y1848750D02*
D03*
X2876250Y1875000D02*
D03*
X2850000Y1901250D02*
D03*
X2823750Y1875000D02*
D03*
X3413120Y1897730D02*
D03*
X3422733Y1888125D02*
D03*
X3413120Y1852270D02*
D03*
X3422730Y1861880D02*
D03*
X3386880Y1852270D02*
D03*
X3377270Y1861880D02*
D03*
X3386875Y1897733D02*
D03*
X3377270Y1888120D02*
D03*
X3400000Y1848750D02*
D03*
X3426250Y1875000D02*
D03*
X3400000Y1901250D02*
D03*
X3373750Y1875000D02*
D03*
X3413120Y2647730D02*
D03*
X3422733Y2638125D02*
D03*
X3413120Y2602270D02*
D03*
X3422730Y2611880D02*
D03*
X3386880Y2602270D02*
D03*
X3377270Y2611880D02*
D03*
X3386875Y2647733D02*
D03*
X3377270Y2638120D02*
D03*
X3400000Y2598750D02*
D03*
X3426250Y2625000D02*
D03*
X3400000Y2651250D02*
D03*
X3373750Y2625000D02*
D03*
X2463120Y2647730D02*
D03*
X2472733Y2638125D02*
D03*
X2463120Y2602270D02*
D03*
X2472730Y2611880D02*
D03*
X2436880Y2602270D02*
D03*
X2427270Y2611880D02*
D03*
X2436875Y2647733D02*
D03*
X2427270Y2638120D02*
D03*
X2450000Y2598750D02*
D03*
X2476250Y2625000D02*
D03*
X2450000Y2651250D02*
D03*
X2423750Y2625000D02*
D03*
X1513120Y2647730D02*
D03*
X1522733Y2638125D02*
D03*
X1513120Y2602270D02*
D03*
X1522730Y2611880D02*
D03*
X1486880Y2602270D02*
D03*
X1477270Y2611880D02*
D03*
X1486875Y2647733D02*
D03*
X1477270Y2638120D02*
D03*
X1500000Y2598750D02*
D03*
X1526250Y2625000D02*
D03*
X1500000Y2651250D02*
D03*
X1473750Y2625000D02*
D03*
X1513120Y1897730D02*
D03*
X1522733Y1888125D02*
D03*
X1513120Y1852270D02*
D03*
X1522730Y1861880D02*
D03*
X1486880Y1852270D02*
D03*
X1477270Y1861880D02*
D03*
X1486875Y1897733D02*
D03*
X1477270Y1888120D02*
D03*
X1500000Y1848750D02*
D03*
X1526250Y1875000D02*
D03*
X1500000Y1901250D02*
D03*
X1473750Y1875000D02*
D03*
D50*
X2850000D02*
D03*
X3400000D02*
D03*
Y2625000D02*
D03*
X2450000D02*
D03*
X1500000D02*
D03*
Y1875000D02*
D03*
D51*
X1525000Y2275400D02*
D03*
Y2450400D02*
D03*
X1725400Y2600000D02*
D03*
X3225400D02*
D03*
X2925400D02*
D03*
X2625400D02*
D03*
X2325400D02*
D03*
X2025400D02*
D03*
X3375000Y1999600D02*
D03*
D52*
X1525000Y2224600D02*
D03*
Y2399600D02*
D03*
X1674600Y2600000D02*
D03*
X3174600D02*
D03*
X2874600D02*
D03*
X2574600D02*
D03*
X2274600D02*
D03*
X1974600D02*
D03*
X3375000Y2050400D02*
D03*
D53*
X1735000Y2020000D02*
D03*
X1715000Y1985000D02*
D03*
X1640000Y1974250D02*
D03*
X1615000D02*
D03*
X1640000Y2041000D02*
D03*
X1623004Y2061996D02*
D03*
X1781996D02*
D03*
X1734000Y2041000D02*
D03*
X2295000Y1879000D02*
D03*
X1905000Y1964000D02*
D03*
Y1956000D02*
D03*
X2235000Y2017007D02*
D03*
X2348000Y2204000D02*
D03*
X2048000D02*
D03*
X1748000D02*
D03*
X1908000Y1996000D02*
D03*
X1793000Y2023000D02*
D03*
X1781000Y1956000D02*
D03*
X1801000Y1897000D02*
D03*
X1721000Y1989000D02*
D03*
X1737000Y1996000D02*
D03*
X1741000Y2185000D02*
D03*
X1697000Y2294000D02*
D03*
X1676000Y2248000D02*
D03*
X2041000Y2185000D02*
D03*
X1997000Y2294000D02*
D03*
X2341000Y2185000D02*
D03*
X2297000Y2294000D02*
D03*
X2641000Y2185000D02*
D03*
X2648000Y2204000D02*
D03*
X2597000Y2294000D02*
D03*
X2941000Y2185000D02*
D03*
X2948000Y2204000D02*
D03*
X2897000Y2294000D02*
D03*
X3197000D02*
D03*
X3241000Y2185000D02*
D03*
X3248000Y2204000D02*
D03*
X1980000Y1962500D02*
D03*
Y1987500D02*
D03*
X1881000Y1896500D02*
D03*
X1908000Y1932000D02*
D03*
X2647000Y2294000D02*
D03*
X2947000D02*
D03*
X3247000D02*
D03*
X2948000Y2127000D02*
D03*
X3248000D02*
D03*
X2648000D02*
D03*
X2348000D02*
D03*
X2048000D02*
D03*
X1748000D02*
D03*
X1655000Y2119000D02*
D03*
X1695150Y2029000D02*
D03*
X1702150D02*
D03*
X1897000Y2108000D02*
D03*
X1887000Y2120000D02*
D03*
X2255000Y2201000D02*
D03*
X2276000Y2248000D02*
D03*
X1955000Y2200000D02*
D03*
X1976000Y2248000D02*
D03*
X1702475Y1948000D02*
D03*
X1907000Y2096000D02*
D03*
X2555000Y2201000D02*
D03*
X2576000Y2248000D02*
D03*
X1695475Y1948000D02*
D03*
X1917000Y2084000D02*
D03*
X2855000Y2201000D02*
D03*
X2876000Y2248000D02*
D03*
X1688475Y1948000D02*
D03*
X1927000Y2072000D02*
D03*
X3155000Y2201000D02*
D03*
X3176000Y2248000D02*
D03*
X1907500Y2005000D02*
D03*
X1713000Y2090500D02*
D03*
X1714525Y1995475D02*
D03*
X2130000Y2006500D02*
D03*
X2117500D02*
D03*
X2074000Y2025000D02*
D03*
X2065000D02*
D03*
X2082500D02*
D03*
X2047000Y2294000D02*
D03*
X1747000D02*
D03*
X2347000D02*
D03*
X2177500Y2025000D02*
D03*
X2160000D02*
D03*
X2169000D02*
D03*
X1677500Y2011250D02*
D03*
X2103500Y2026000D02*
D03*
X2198500D02*
D03*
X2257995Y2019996D02*
D03*
X2269000Y2055000D02*
D03*
X1928000Y2303000D02*
D03*
X2228000D02*
D03*
X2528000D02*
D03*
X2828000D02*
D03*
X3128000D02*
D03*
X2495000Y2297000D02*
D03*
X1612250Y2453000D02*
D03*
X1597250Y2344500D02*
D03*
X1787500Y2082500D02*
D03*
X1560000Y2315000D02*
D03*
X1798814Y2093814D02*
D03*
X1793157Y2088157D02*
D03*
X1610250Y2550250D02*
D03*
X1582750Y2490250D02*
D03*
X1825000Y1870000D02*
D03*
X1833000D02*
D03*
X2332500Y1995000D02*
D03*
Y1970000D02*
D03*
Y1945000D02*
D03*
Y2020000D02*
D03*
Y2045000D02*
D03*
Y2070000D02*
D03*
X2121000Y1971000D02*
D03*
X2155000Y1985000D02*
D03*
X2215000Y1995000D02*
D03*
X2117000Y1998000D02*
D03*
X2060000Y1982000D02*
D03*
Y2013000D02*
D03*
X2665000Y1922500D02*
D03*
X2690000D02*
D03*
X1817000Y1870000D02*
D03*
X1809000D02*
D03*
X2665000Y1970000D02*
D03*
X2690000D02*
D03*
D54*
X1816000Y2201000D02*
D03*
X1729000Y2240000D02*
D03*
X1688000Y2219250D02*
D03*
X2116000Y2201000D02*
D03*
X2029000Y2240000D02*
D03*
X1988000Y2219250D02*
D03*
X2416000Y2201000D02*
D03*
X2329000Y2240000D02*
D03*
X2288000Y2219250D02*
D03*
X2716000Y2201000D02*
D03*
X2629000Y2240000D02*
D03*
X2588000Y2219250D02*
D03*
X3016000Y2201000D02*
D03*
X2929000Y2240000D02*
D03*
X2888000Y2219250D02*
D03*
X3188000D02*
D03*
X3229000Y2240000D02*
D03*
X3316000Y2201000D02*
D03*
M02*
