%FSLAX44Y44*%
%MOMM*%
G71*
G01*
G75*
G04 Layer_Color=65535*
%ADD10R,1.6000X1.5000*%
%ADD11R,1.5000X1.4000*%
%ADD12R,1.4000X1.5000*%
%ADD13R,0.6500X1.1000*%
%ADD14R,1.5000X1.6000*%
%ADD15R,1.1000X0.6500*%
%ADD16R,0.9500X3.2000*%
%ADD17R,10.5000X8.3000*%
%ADD18R,1.8000X3.5000*%
%ADD19R,1.9000X1.5000*%
%ADD20O,0.4000X2.2500*%
%ADD21R,0.9000X0.6500*%
%ADD22O,1.7000X0.3500*%
%ADD23O,0.5500X1.7500*%
%ADD24O,1.7500X0.5500*%
%ADD25R,2.5000X3.8500*%
%ADD26R,1.5000X2.8000*%
%ADD27R,1.0000X3.0500*%
%ADD28R,5.5500X6.5000*%
%ADD29R,2.1000X5.6000*%
%ADD30R,2.1000X1.4000*%
%ADD31C,0.2000*%
%ADD32C,1.5000*%
%ADD33C,0.8000*%
%ADD34C,1.2000*%
%ADD35C,0.7500*%
%ADD36C,1.0000*%
%ADD37C,0.2540*%
%ADD38R,1.5000X1.5000*%
%ADD39C,1.5000*%
%ADD40R,1.5000X1.5000*%
%ADD41C,1.0000*%
%ADD42C,7.0000*%
%ADD43C,2.5400*%
%ADD44C,0.5000*%
%ADD45C,0.9000*%
%ADD46C,1.0160*%
%ADD47C,1.9160*%
G04:AMPARAMS|DCode=48|XSize=2.424mm|YSize=2.424mm|CornerRadius=0mm|HoleSize=0mm|Usage=FLASHONLY|Rotation=0.000|XOffset=0mm|YOffset=0mm|HoleType=Round|Shape=Relief|Width=0.254mm|Gap=0.254mm|Entries=4|*
%AMTHD48*
7,0,0,2.4240,1.9160,0.2540,45*
%
%ADD48THD48*%
%ADD49C,1.3160*%
%ADD50C,4.5160*%
%ADD51C,2.5160*%
G04:AMPARAMS|DCode=52|XSize=3.024mm|YSize=3.024mm|CornerRadius=0mm|HoleSize=0mm|Usage=FLASHONLY|Rotation=0.000|XOffset=0mm|YOffset=0mm|HoleType=Round|Shape=Relief|Width=0.254mm|Gap=0.254mm|Entries=4|*
%AMTHD52*
7,0,0,3.0240,2.5160,0.2540,45*
%
%ADD52THD52*%
%ADD53C,1.2160*%
%ADD54C,1.5160*%
%ADD55C,0.2500*%
%ADD56C,0.6000*%
%ADD57C,0.3810*%
%ADD58C,0.2032*%
D31*
X1633500Y2000000D02*
X1646500D01*
X1608500D02*
X1621500D01*
X2061500Y1861900D02*
Y1912700D01*
X2137700Y1861900D02*
Y1912700D01*
X2061500Y1861900D02*
X2137700D01*
X2061500Y1912700D02*
X2137700D01*
X2061500D02*
X2110183D01*
X1537700Y1918700D02*
Y2153650D01*
Y2172700D01*
X1512300D02*
X1537700D01*
X1512300Y1918700D02*
Y2172700D01*
Y1918700D02*
X1537700D01*
X1600250Y2506250D02*
Y2519250D01*
Y2531250D02*
Y2544250D01*
Y2556250D02*
Y2569250D01*
X1587250Y2480250D02*
X1618250D01*
X1587250Y2475250D02*
X1618250D01*
Y2480250D01*
X1587250Y2475250D02*
Y2480250D01*
X1570000Y2319500D02*
Y2350500D01*
X1575000Y2319500D02*
Y2350500D01*
X1570000D02*
X1575000D01*
X1570000Y2319500D02*
X1575000D01*
X1531000Y2337500D02*
X1544000D01*
X2870000Y2341000D02*
Y2363500D01*
Y2341000D02*
X2974000D01*
Y2363500D01*
X1804000Y2458500D02*
X1820000D01*
X1804000Y2491500D02*
X1820000D01*
X2704000Y2458500D02*
X2720000D01*
X2704000Y2491500D02*
X2720000D01*
X2104000Y2458500D02*
X2120000D01*
X2104000Y2491500D02*
X2120000D01*
X3004000Y2458500D02*
X3020000D01*
X3004000Y2491500D02*
X3020000D01*
X2404000Y2458500D02*
X2420000D01*
X2404000Y2491500D02*
X2420000D01*
X3304000Y2458500D02*
X3320000D01*
X3304000Y2491500D02*
X3320000D01*
X3153500Y2271000D02*
Y2279000D01*
X3136500Y2271000D02*
Y2279000D01*
X2253500Y2271000D02*
Y2279000D01*
X2236500Y2271000D02*
Y2279000D01*
X2853500Y2271000D02*
Y2279000D01*
X2836500Y2271000D02*
Y2279000D01*
X1953500Y2271000D02*
Y2279000D01*
X1936500Y2271000D02*
Y2279000D01*
X2553500Y2271000D02*
Y2279000D01*
X2536500Y2271000D02*
Y2279000D01*
X1653500Y2271000D02*
Y2279000D01*
X1636500Y2271000D02*
Y2279000D01*
X1680000Y1978500D02*
X1730000D01*
X1680000Y1996500D02*
X1730000D01*
X1680000Y1978500D02*
Y1996500D01*
X1730000Y1978500D02*
Y1996500D01*
X2234000Y1994500D02*
Y2025500D01*
X2241000Y1994500D02*
Y2025500D01*
X2234000D02*
X2241000D01*
X2234000Y1994500D02*
X2241000D01*
X2059000Y1974500D02*
Y2025500D01*
X2091000Y1974500D02*
Y2025500D01*
X2059000D02*
X2091000D01*
X2059000Y1974500D02*
X2091000D01*
X2154000D02*
Y2025500D01*
X2186000Y1974500D02*
Y2025500D01*
X2154000D02*
X2186000D01*
X2154000Y1974500D02*
X2186000D01*
X2355000Y1938500D02*
Y1951500D01*
Y1963500D02*
Y1976500D01*
Y1988500D02*
Y2001500D01*
Y2013500D02*
Y2026500D01*
Y2038500D02*
Y2051500D01*
Y2063500D02*
Y2076500D01*
X2683500Y1945000D02*
X2696500D01*
X2658500D02*
X2671500D01*
X2288500Y1902500D02*
X2301500D01*
X1781500Y2023500D02*
X1908500D01*
X1781500Y1896500D02*
X1908500D01*
Y2023500D01*
X1781500Y1896500D02*
Y2023500D01*
X1707000Y2065000D02*
X1738000D01*
X1707000Y2070000D02*
X1738000D01*
X1707000Y2065000D02*
Y2070000D01*
X1738000Y2065000D02*
Y2070000D01*
X2514700Y1862300D02*
Y1887700D01*
X2362300Y1862300D02*
Y1887700D01*
X2514700D01*
X2362300Y1862300D02*
X2514700D01*
X2765500D02*
Y1913100D01*
X2562300Y1862300D02*
Y1913100D01*
Y1862300D02*
X2765500D01*
X2562300Y1913100D02*
X2765500D01*
X1670000Y2341000D02*
Y2363500D01*
Y2341000D02*
X1774000D01*
Y2363500D01*
X2570000Y2341000D02*
Y2363500D01*
Y2341000D02*
X2674000D01*
Y2363500D01*
X1970000Y2341000D02*
Y2363500D01*
Y2341000D02*
X2074000D01*
Y2363500D01*
X2270000Y2341000D02*
Y2363500D01*
Y2341000D02*
X2374000D01*
Y2363500D01*
X3170000Y2341000D02*
Y2363500D01*
Y2341000D02*
X3274000D01*
Y2363500D01*
X3165500Y2269000D02*
X3178500D01*
X3215500D02*
X3228500D01*
X3190500D02*
X3203500D01*
X3304000Y2401500D02*
X3320000D01*
X3304000Y2368500D02*
X3320000D01*
X3304000Y2446500D02*
X3320000D01*
X3304000Y2413500D02*
X3320000D01*
X3293500Y2188500D02*
Y2313500D01*
X3418500Y2188500D02*
Y2313500D01*
X3293500Y2188500D02*
X3324500D01*
X3293500Y2313500D02*
X3324500D01*
X3387500Y2188500D02*
X3418500D01*
X3387500Y2313500D02*
X3418500D01*
X3153500Y2327000D02*
Y2335000D01*
X3136500Y2327000D02*
Y2335000D01*
X3132500Y2173000D02*
X3145500D01*
X3308000Y2355000D02*
X3316000D01*
X3308000Y2329000D02*
X3316000D01*
X3350500Y2373000D02*
Y2381500D01*
Y2373000D02*
X3417500D01*
Y2381500D01*
X3242500Y2210500D02*
X3247500D01*
X3242500Y2179500D02*
X3247500D01*
X3242500D02*
Y2210500D01*
X3247500Y2179500D02*
Y2210500D01*
X3132500Y2217000D02*
X3145500D01*
X3259000Y2248000D02*
X3267000D01*
X3259000Y2222000D02*
X3267000D01*
X3259000Y2285000D02*
X3267000D01*
X3259000Y2259000D02*
X3267000D01*
X3271500Y2193000D02*
X3284500D01*
X3221500Y2201500D02*
Y2210000D01*
X3154500D02*
X3221500D01*
X3154500Y2201500D02*
Y2210000D01*
X2265500Y2269000D02*
X2278500D01*
X2315500D02*
X2328500D01*
X2290500D02*
X2303500D01*
X2404000Y2401500D02*
X2420000D01*
X2404000Y2368500D02*
X2420000D01*
X2404000Y2446500D02*
X2420000D01*
X2404000Y2413500D02*
X2420000D01*
X2393500Y2188500D02*
Y2313500D01*
X2518500Y2188500D02*
Y2313500D01*
X2393500Y2188500D02*
X2424500D01*
X2393500Y2313500D02*
X2424500D01*
X2487500Y2188500D02*
X2518500D01*
X2487500Y2313500D02*
X2518500D01*
X2253500Y2327000D02*
Y2335000D01*
X2236500Y2327000D02*
Y2335000D01*
X2232500Y2173000D02*
X2245500D01*
X2408000Y2355000D02*
X2416000D01*
X2408000Y2329000D02*
X2416000D01*
X2450500Y2373000D02*
Y2381500D01*
Y2373000D02*
X2517500D01*
Y2381500D01*
X2342500Y2210500D02*
X2347500D01*
X2342500Y2179500D02*
X2347500D01*
X2342500D02*
Y2210500D01*
X2347500Y2179500D02*
Y2210500D01*
X2232500Y2217000D02*
X2245500D01*
X2359000Y2248000D02*
X2367000D01*
X2359000Y2222000D02*
X2367000D01*
X2359000Y2285000D02*
X2367000D01*
X2359000Y2259000D02*
X2367000D01*
X2371500Y2193000D02*
X2384500D01*
X2321500Y2201500D02*
Y2210000D01*
X2254500D02*
X2321500D01*
X2254500Y2201500D02*
Y2210000D01*
X2865500Y2269000D02*
X2878500D01*
X2915500D02*
X2928500D01*
X2890500D02*
X2903500D01*
X3004000Y2401500D02*
X3020000D01*
X3004000Y2368500D02*
X3020000D01*
X3004000Y2446500D02*
X3020000D01*
X3004000Y2413500D02*
X3020000D01*
X2993500Y2188500D02*
Y2313500D01*
X3118500Y2188500D02*
Y2313500D01*
X2993500Y2188500D02*
X3024500D01*
X2993500Y2313500D02*
X3024500D01*
X3087500Y2188500D02*
X3118500D01*
X3087500Y2313500D02*
X3118500D01*
X2853500Y2327000D02*
Y2335000D01*
X2836500Y2327000D02*
Y2335000D01*
X2832500Y2173000D02*
X2845500D01*
X3008000Y2355000D02*
X3016000D01*
X3008000Y2329000D02*
X3016000D01*
X3050500Y2373000D02*
Y2381500D01*
Y2373000D02*
X3117500D01*
Y2381500D01*
X2942500Y2210500D02*
X2947500D01*
X2942500Y2179500D02*
X2947500D01*
X2942500D02*
Y2210500D01*
X2947500Y2179500D02*
Y2210500D01*
X2832500Y2217000D02*
X2845500D01*
X2959000Y2248000D02*
X2967000D01*
X2959000Y2222000D02*
X2967000D01*
X2959000Y2285000D02*
X2967000D01*
X2959000Y2259000D02*
X2967000D01*
X2971500Y2193000D02*
X2984500D01*
X2921500Y2201500D02*
Y2210000D01*
X2854500D02*
X2921500D01*
X2854500Y2201500D02*
Y2210000D01*
X2565500Y2269000D02*
X2578500D01*
X2615500D02*
X2628500D01*
X2590500D02*
X2603500D01*
X2704000Y2401500D02*
X2720000D01*
X2704000Y2368500D02*
X2720000D01*
X2704000Y2446500D02*
X2720000D01*
X2704000Y2413500D02*
X2720000D01*
X2693500Y2188500D02*
Y2313500D01*
X2818500Y2188500D02*
Y2313500D01*
X2693500Y2188500D02*
X2724500D01*
X2693500Y2313500D02*
X2724500D01*
X2787500Y2188500D02*
X2818500D01*
X2787500Y2313500D02*
X2818500D01*
X2553500Y2327000D02*
Y2335000D01*
X2536500Y2327000D02*
Y2335000D01*
X2532500Y2173000D02*
X2545500D01*
X2708000Y2355000D02*
X2716000D01*
X2708000Y2329000D02*
X2716000D01*
X2750500Y2373000D02*
Y2381500D01*
Y2373000D02*
X2817500D01*
Y2381500D01*
X2642500Y2210500D02*
X2647500D01*
X2642500Y2179500D02*
X2647500D01*
X2642500D02*
Y2210500D01*
X2647500Y2179500D02*
Y2210500D01*
X2532500Y2217000D02*
X2545500D01*
X2659000Y2248000D02*
X2667000D01*
X2659000Y2222000D02*
X2667000D01*
X2659000Y2285000D02*
X2667000D01*
X2659000Y2259000D02*
X2667000D01*
X2671500Y2193000D02*
X2684500D01*
X2621500Y2201500D02*
Y2210000D01*
X2554500D02*
X2621500D01*
X2554500Y2201500D02*
Y2210000D01*
X1665500Y2269000D02*
X1678500D01*
X1715500D02*
X1728500D01*
X1690500D02*
X1703500D01*
X1804000Y2401500D02*
X1820000D01*
X1804000Y2368500D02*
X1820000D01*
X1804000Y2446500D02*
X1820000D01*
X1804000Y2413500D02*
X1820000D01*
X1793500Y2188500D02*
Y2313500D01*
X1918500Y2188500D02*
Y2313500D01*
X1793500Y2188500D02*
X1824500D01*
X1793500Y2313500D02*
X1824500D01*
X1887500Y2188500D02*
X1918500D01*
X1887500Y2313500D02*
X1918500D01*
X1653500Y2327000D02*
Y2335000D01*
X1636500Y2327000D02*
Y2335000D01*
X1632500Y2173000D02*
X1645500D01*
X1808000Y2355000D02*
X1816000D01*
X1808000Y2329000D02*
X1816000D01*
X1850500Y2373000D02*
Y2381500D01*
Y2373000D02*
X1917500D01*
Y2381500D01*
X1742500Y2210500D02*
X1747500D01*
X1742500Y2179500D02*
X1747500D01*
X1742500D02*
Y2210500D01*
X1747500Y2179500D02*
Y2210500D01*
X1632500Y2217000D02*
X1645500D01*
X1759000Y2248000D02*
X1767000D01*
X1759000Y2222000D02*
X1767000D01*
X1759000Y2285000D02*
X1767000D01*
X1759000Y2259000D02*
X1767000D01*
X1771500Y2193000D02*
X1784500D01*
X1721500Y2201500D02*
Y2210000D01*
X1654500D02*
X1721500D01*
X1654500Y2201500D02*
Y2210000D01*
X1965500Y2269000D02*
X1978500D01*
X2015500D02*
X2028500D01*
X1990500D02*
X2003500D01*
X2104000Y2401500D02*
X2120000D01*
X2104000Y2368500D02*
X2120000D01*
X2104000Y2446500D02*
X2120000D01*
X2104000Y2413500D02*
X2120000D01*
X2093500Y2188500D02*
Y2313500D01*
X2218500Y2188500D02*
Y2313500D01*
X2093500Y2188500D02*
X2124500D01*
X2093500Y2313500D02*
X2124500D01*
X2187500Y2188500D02*
X2218500D01*
X2187500Y2313500D02*
X2218500D01*
X1953500Y2327000D02*
Y2335000D01*
X1936500Y2327000D02*
Y2335000D01*
X1932500Y2173000D02*
X1945500D01*
X2108000Y2355000D02*
X2116000D01*
X2108000Y2329000D02*
X2116000D01*
X2150500Y2373000D02*
Y2381500D01*
Y2373000D02*
X2217500D01*
Y2381500D01*
X2042500Y2210500D02*
X2047500D01*
X2042500Y2179500D02*
X2047500D01*
X2042500D02*
Y2210500D01*
X2047500Y2179500D02*
Y2210500D01*
X1932500Y2217000D02*
X1945500D01*
X2059000Y2248000D02*
X2067000D01*
X2059000Y2222000D02*
X2067000D01*
X2059000Y2285000D02*
X2067000D01*
X2059000Y2259000D02*
X2067000D01*
X2071500Y2193000D02*
X2084500D01*
X2021500Y2201500D02*
Y2210000D01*
X1954500D02*
X2021500D01*
X1954500Y2201500D02*
Y2210000D01*
X1790500Y2506250D02*
Y2519250D01*
X2400000Y2063500D02*
Y2076500D01*
Y2038500D02*
Y2051500D01*
Y2013500D02*
Y2026500D01*
Y1988500D02*
Y2001500D01*
Y1963500D02*
Y1976500D01*
Y1938500D02*
Y1951500D01*
X1645000Y2030000D02*
X1635003D01*
Y2034998D01*
X1636669Y2036664D01*
X1640002D01*
X1641668Y2034998D01*
Y2030000D01*
Y2033332D02*
X1645000Y2036664D01*
Y2046661D02*
Y2039997D01*
X1638336Y2046661D01*
X1636669D01*
X1635003Y2044995D01*
Y2041663D01*
X1636669Y2039997D01*
X1645000Y2054992D02*
X1635003D01*
X1640002Y2049994D01*
Y2056658D01*
X1620000Y2030000D02*
X1610003D01*
Y2034998D01*
X1611669Y2036664D01*
X1615002D01*
X1616668Y2034998D01*
Y2030000D01*
Y2033332D02*
X1620000Y2036664D01*
Y2046661D02*
Y2039997D01*
X1613336Y2046661D01*
X1611669D01*
X1610003Y2044995D01*
Y2041663D01*
X1611669Y2039997D01*
Y2049994D02*
X1610003Y2051660D01*
Y2054992D01*
X1611669Y2056658D01*
X1613336D01*
X1615002Y2054992D01*
Y2053326D01*
Y2054992D01*
X1616668Y2056658D01*
X1618334D01*
X1620000Y2054992D01*
Y2051660D01*
X1618334Y2049994D01*
X2094230Y1920748D02*
Y1930745D01*
X2099228D01*
X2100894Y1929079D01*
Y1925746D01*
X2099228Y1924080D01*
X2094230D01*
X2104227Y1930745D02*
Y1920748D01*
X2109225D01*
X2110891Y1922414D01*
Y1929079D01*
X2109225Y1930745D01*
X2104227D01*
X2114224D02*
X2117556D01*
X2115890D01*
Y1920748D01*
X2114224D01*
X2117556D01*
X1953768Y2068667D02*
X1960432Y2058670D01*
Y2068667D02*
X1953768Y2058670D01*
X1963765D02*
X1967097D01*
X1965431D01*
Y2068667D01*
X1963765Y2067001D01*
X1573000Y2363997D02*
Y2355666D01*
X1574666Y2354000D01*
X1577998D01*
X1579664Y2355666D01*
Y2363997D01*
X1582997Y2354000D02*
X1586329D01*
X1584663D01*
Y2363997D01*
X1582997Y2362331D01*
X1591327Y2354000D02*
X1594660D01*
X1592994D01*
Y2363997D01*
X1591327Y2362331D01*
X1686977Y2055114D02*
X1695308D01*
X1696974Y2056780D01*
Y2060112D01*
X1695308Y2061779D01*
X1686977D01*
X1696974Y2065111D02*
Y2068443D01*
Y2066777D01*
X1686977D01*
X1688643Y2065111D01*
Y2073441D02*
X1686977Y2075108D01*
Y2078440D01*
X1688643Y2080106D01*
X1695308D01*
X1696974Y2078440D01*
Y2075108D01*
X1695308Y2073441D01*
X1688643D01*
X2066544Y1964527D02*
Y1956196D01*
X2068210Y1954530D01*
X2071542D01*
X2073208Y1956196D01*
Y1964527D01*
X2076541Y1956196D02*
X2078207Y1954530D01*
X2081539D01*
X2083205Y1956196D01*
Y1962861D01*
X2081539Y1964527D01*
X2078207D01*
X2076541Y1962861D01*
Y1961194D01*
X2078207Y1959528D01*
X2083205D01*
X1561750Y2498747D02*
Y2490416D01*
X1563416Y2488750D01*
X1566748D01*
X1568414Y2490416D01*
Y2498747D01*
X1571747Y2497081D02*
X1573413Y2498747D01*
X1576745D01*
X1578411Y2497081D01*
Y2495414D01*
X1576745Y2493748D01*
X1578411Y2492082D01*
Y2490416D01*
X1576745Y2488750D01*
X1573413D01*
X1571747Y2490416D01*
Y2492082D01*
X1573413Y2493748D01*
X1571747Y2495414D01*
Y2497081D01*
X1573413Y2493748D02*
X1576745D01*
X1713000Y2037997D02*
Y2029666D01*
X1714666Y2028000D01*
X1717998D01*
X1719664Y2029666D01*
Y2037997D01*
X1722997D02*
X1729661D01*
Y2036331D01*
X1722997Y2029666D01*
Y2028000D01*
X1836674Y2064857D02*
Y2056526D01*
X1838340Y2054860D01*
X1841672D01*
X1843338Y2056526D01*
Y2064857D01*
X1853335D02*
X1850003Y2063191D01*
X1846671Y2059858D01*
Y2056526D01*
X1848337Y2054860D01*
X1851669D01*
X1853335Y2056526D01*
Y2058192D01*
X1851669Y2059858D01*
X1846671D01*
X2161794Y1964527D02*
Y1956196D01*
X2163460Y1954530D01*
X2166792D01*
X2168459Y1956196D01*
Y1964527D01*
X2178455D02*
X2171791D01*
Y1959528D01*
X2175123Y1961194D01*
X2176789D01*
X2178455Y1959528D01*
Y1956196D01*
X2176789Y1954530D01*
X2173457D01*
X2171791Y1956196D01*
X2262632Y2013041D02*
Y2004710D01*
X2264298Y2003044D01*
X2267630D01*
X2269297Y2004710D01*
Y2013041D01*
X2277627Y2003044D02*
Y2013041D01*
X2272629Y2008042D01*
X2279293D01*
X2298700Y2065020D02*
Y2075017D01*
X2303698D01*
X2305365Y2073351D01*
Y2070018D01*
X2303698Y2068352D01*
X2298700D01*
X2302032D02*
X2305365Y2065020D01*
X2315361D02*
X2308697D01*
X2315361Y2071685D01*
Y2073351D01*
X2313695Y2075017D01*
X2310363D01*
X2308697Y2073351D01*
X2318694Y2066686D02*
X2320360Y2065020D01*
X2323692D01*
X2325358Y2066686D01*
Y2073351D01*
X2323692Y2075017D01*
X2320360D01*
X2318694Y2073351D01*
Y2071685D01*
X2320360Y2070018D01*
X2325358D01*
X2298700Y2040128D02*
Y2050125D01*
X2303698D01*
X2305365Y2048459D01*
Y2045126D01*
X2303698Y2043460D01*
X2298700D01*
X2302032D02*
X2305365Y2040128D01*
X2315361D02*
X2308697D01*
X2315361Y2046792D01*
Y2048459D01*
X2313695Y2050125D01*
X2310363D01*
X2308697Y2048459D01*
X2318694D02*
X2320360Y2050125D01*
X2323692D01*
X2325358Y2048459D01*
Y2046792D01*
X2323692Y2045126D01*
X2325358Y2043460D01*
Y2041794D01*
X2323692Y2040128D01*
X2320360D01*
X2318694Y2041794D01*
Y2043460D01*
X2320360Y2045126D01*
X2318694Y2046792D01*
Y2048459D01*
X2320360Y2045126D02*
X2323692D01*
X2298700Y2014982D02*
Y2024979D01*
X2303698D01*
X2305365Y2023313D01*
Y2019980D01*
X2303698Y2018314D01*
X2298700D01*
X2302032D02*
X2305365Y2014982D01*
X2315361D02*
X2308697D01*
X2315361Y2021647D01*
Y2023313D01*
X2313695Y2024979D01*
X2310363D01*
X2308697Y2023313D01*
X2318694Y2024979D02*
X2325358D01*
Y2023313D01*
X2318694Y2016648D01*
Y2014982D01*
X2298700Y1990090D02*
Y2000087D01*
X2303698D01*
X2305365Y1998421D01*
Y1995088D01*
X2303698Y1993422D01*
X2298700D01*
X2302032D02*
X2305365Y1990090D01*
X2315361D02*
X2308697D01*
X2315361Y1996754D01*
Y1998421D01*
X2313695Y2000087D01*
X2310363D01*
X2308697Y1998421D01*
X2325358Y1990090D02*
X2318694D01*
X2325358Y1996754D01*
Y1998421D01*
X2323692Y2000087D01*
X2320360D01*
X2318694Y1998421D01*
X1524250Y2326250D02*
X1514253D01*
Y2331248D01*
X1515919Y2332914D01*
X1519252D01*
X1520918Y2331248D01*
Y2326250D01*
Y2329582D02*
X1524250Y2332914D01*
Y2336247D02*
Y2339579D01*
Y2337913D01*
X1514253D01*
X1515919Y2336247D01*
Y2344577D02*
X1514253Y2346244D01*
Y2349576D01*
X1515919Y2351242D01*
X1517585D01*
X1519252Y2349576D01*
X1520918Y2351242D01*
X1522584D01*
X1524250Y2349576D01*
Y2346244D01*
X1522584Y2344577D01*
X1520918D01*
X1519252Y2346244D01*
X1517585Y2344577D01*
X1515919D01*
X1519252Y2346244D02*
Y2349576D01*
X2300478Y1964944D02*
Y1974941D01*
X2305476D01*
X2307142Y1973275D01*
Y1969942D01*
X2305476Y1968276D01*
X2300478D01*
X2303810D02*
X2307142Y1964944D01*
X2310475D02*
X2313807D01*
X2312141D01*
Y1974941D01*
X2310475Y1973275D01*
X2325470Y1974941D02*
X2318805D01*
Y1969942D01*
X2322138Y1971608D01*
X2323804D01*
X2325470Y1969942D01*
Y1966610D01*
X2323804Y1964944D01*
X2320472D01*
X2318805Y1966610D01*
X1545590Y2557780D02*
Y2567777D01*
X1550588D01*
X1552254Y2566111D01*
Y2562778D01*
X1550588Y2561112D01*
X1545590D01*
X1548922D02*
X1552254Y2557780D01*
X1555587D02*
X1558919D01*
X1557253D01*
Y2567777D01*
X1555587Y2566111D01*
X1563917D02*
X1565584Y2567777D01*
X1568916D01*
X1570582Y2566111D01*
Y2564445D01*
X1568916Y2562778D01*
X1567250D01*
X1568916D01*
X1570582Y2561112D01*
Y2559446D01*
X1568916Y2557780D01*
X1565584D01*
X1563917Y2559446D01*
X1545590Y2532634D02*
Y2542631D01*
X1550588D01*
X1552254Y2540965D01*
Y2537632D01*
X1550588Y2535966D01*
X1545590D01*
X1548922D02*
X1552254Y2532634D01*
X1555587D02*
X1558919D01*
X1557253D01*
Y2542631D01*
X1555587Y2540965D01*
X1570582Y2532634D02*
X1563917D01*
X1570582Y2539299D01*
Y2540965D01*
X1568916Y2542631D01*
X1565584D01*
X1563917Y2540965D01*
X1548892Y2507742D02*
Y2517739D01*
X1553890D01*
X1555556Y2516073D01*
Y2512740D01*
X1553890Y2511074D01*
X1548892D01*
X1552224D02*
X1555556Y2507742D01*
X1558889D02*
X1562221D01*
X1560555D01*
Y2517739D01*
X1558889Y2516073D01*
X1567219Y2507742D02*
X1570552D01*
X1568886D01*
Y2517739D01*
X1567219Y2516073D01*
X2308860Y1940052D02*
Y1950049D01*
X2313858D01*
X2315524Y1948383D01*
Y1945050D01*
X2313858Y1943384D01*
X2308860D01*
X2312192D02*
X2315524Y1940052D01*
X2323855D02*
Y1950049D01*
X2318857Y1945050D01*
X2325521D01*
X1766570Y2668232D02*
X1776567D01*
Y2663234D01*
X1774901Y2661567D01*
X1771568D01*
X1769902Y2663234D01*
Y2668232D01*
X1766570Y2658235D02*
X1773235D01*
X1776567Y2654903D01*
X1773235Y2651571D01*
X1766570D01*
X1771568D01*
Y2658235D01*
X1766570Y2648239D02*
X1776567D01*
X1766570Y2641574D01*
X1776567D01*
Y2631577D02*
Y2638242D01*
X1766570D01*
Y2631577D01*
X1771568Y2638242D02*
Y2634909D01*
X1776567Y2628245D02*
X1766570D01*
Y2621581D01*
X1764904Y2618248D02*
Y2611584D01*
X1776567Y2608251D02*
Y2601587D01*
X1774901D01*
X1768236Y2608251D01*
X1766570D01*
Y2601587D01*
X1771568Y2598254D02*
Y2591590D01*
X2666492Y2668232D02*
X2676489D01*
Y2663234D01*
X2674823Y2661567D01*
X2671490D01*
X2669824Y2663234D01*
Y2668232D01*
X2666492Y2658235D02*
X2673156D01*
X2676489Y2654903D01*
X2673156Y2651571D01*
X2666492D01*
X2671490D01*
Y2658235D01*
X2666492Y2648239D02*
X2676489D01*
X2666492Y2641574D01*
X2676489D01*
Y2631577D02*
Y2638242D01*
X2666492D01*
Y2631577D01*
X2671490Y2638242D02*
Y2634909D01*
X2676489Y2628245D02*
X2666492D01*
Y2621581D01*
X2664826Y2618248D02*
Y2611584D01*
X2676489Y2608251D02*
Y2601587D01*
X2674823D01*
X2668158Y2608251D01*
X2666492D01*
Y2601587D01*
X2671490Y2598254D02*
Y2591590D01*
X2674823Y2594922D02*
X2668158D01*
X2066544Y2668232D02*
X2076541D01*
Y2663234D01*
X2074875Y2661567D01*
X2071542D01*
X2069876Y2663234D01*
Y2668232D01*
X2066544Y2658235D02*
X2073208D01*
X2076541Y2654903D01*
X2073208Y2651571D01*
X2066544D01*
X2071542D01*
Y2658235D01*
X2066544Y2648239D02*
X2076541D01*
X2066544Y2641574D01*
X2076541D01*
Y2631577D02*
Y2638242D01*
X2066544D01*
Y2631577D01*
X2071542Y2638242D02*
Y2634909D01*
X2076541Y2628245D02*
X2066544D01*
Y2621581D01*
X2064878Y2618248D02*
Y2611584D01*
X2076541Y2608251D02*
X2074875D01*
X2071542Y2604919D01*
X2074875Y2601587D01*
X2076541D01*
X2071542Y2604919D02*
X2066544D01*
X2071542Y2598254D02*
Y2591590D01*
X2966466Y2668232D02*
X2976463D01*
Y2663234D01*
X2974796Y2661567D01*
X2971465D01*
X2969798Y2663234D01*
Y2668232D01*
X2966466Y2658235D02*
X2973130D01*
X2976463Y2654903D01*
X2973130Y2651571D01*
X2966466D01*
X2971465D01*
Y2658235D01*
X2966466Y2648239D02*
X2976463D01*
X2966466Y2641574D01*
X2976463D01*
Y2631577D02*
Y2638242D01*
X2966466D01*
Y2631577D01*
X2971465Y2638242D02*
Y2634909D01*
X2976463Y2628245D02*
X2966466D01*
Y2621581D01*
X2964800Y2618248D02*
Y2611584D01*
X2976463Y2608251D02*
X2974796D01*
X2971465Y2604919D01*
X2974796Y2601587D01*
X2976463D01*
X2971465Y2604919D02*
X2966466D01*
X2971465Y2598254D02*
Y2591590D01*
X2974796Y2594922D02*
X2968132D01*
X2366518Y2668232D02*
X2376515D01*
Y2663234D01*
X2374849Y2661567D01*
X2371516D01*
X2369850Y2663234D01*
Y2668232D01*
X2366518Y2658235D02*
X2373183D01*
X2376515Y2654903D01*
X2373183Y2651571D01*
X2366518D01*
X2371516D01*
Y2658235D01*
X2366518Y2648239D02*
X2376515D01*
X2366518Y2641574D01*
X2376515D01*
Y2631577D02*
Y2638242D01*
X2366518D01*
Y2631577D01*
X2371516Y2638242D02*
Y2634909D01*
X2376515Y2628245D02*
X2366518D01*
Y2621581D01*
X2364852Y2618248D02*
Y2611584D01*
X2376515Y2608251D02*
X2366518Y2601587D01*
X2376515D02*
X2366518Y2608251D01*
X2371516Y2598254D02*
Y2591590D01*
X3266440Y2668232D02*
X3276437D01*
Y2663234D01*
X3274771Y2661567D01*
X3271438D01*
X3269772Y2663234D01*
Y2668232D01*
X3266440Y2658235D02*
X3273105D01*
X3276437Y2654903D01*
X3273105Y2651571D01*
X3266440D01*
X3271438D01*
Y2658235D01*
X3266440Y2648239D02*
X3276437D01*
X3266440Y2641574D01*
X3276437D01*
Y2631577D02*
Y2638242D01*
X3266440D01*
Y2631577D01*
X3271438Y2638242D02*
Y2634909D01*
X3276437Y2628245D02*
X3266440D01*
Y2621581D01*
X3264774Y2618248D02*
Y2611584D01*
X3276437Y2608251D02*
X3266440Y2601587D01*
X3276437D02*
X3266440Y2608251D01*
X3271438Y2598254D02*
Y2591590D01*
X3274771Y2594922D02*
X3268106D01*
X1456690Y2324953D02*
Y2314956D01*
X1463354D01*
X1471685Y2324953D02*
X1468353D01*
X1466687Y2323287D01*
Y2316622D01*
X1468353Y2314956D01*
X1471685D01*
X1473351Y2316622D01*
Y2323287D01*
X1471685Y2324953D01*
X1476684Y2314956D02*
Y2321620D01*
X1480016Y2324953D01*
X1483348Y2321620D01*
Y2314956D01*
Y2319954D01*
X1476684D01*
X1486680Y2324953D02*
Y2314956D01*
X1491679D01*
X1493345Y2316622D01*
Y2323287D01*
X1491679Y2324953D01*
X1486680D01*
X2369881Y1905853D02*
X2363216D01*
Y1900854D01*
X2366548D01*
X2363216D01*
Y1895856D01*
X2373213Y1905853D02*
X2379877D01*
X2376545D01*
Y1895856D01*
X2383210Y1905853D02*
Y1895856D01*
X2388208D01*
X2389874Y1897522D01*
Y1904187D01*
X2388208Y1905853D01*
X2383210D01*
X2393206D02*
X2396539D01*
X2394872D01*
Y1895856D01*
X2393206D01*
X2396539D01*
X2556317Y1931253D02*
X2549652D01*
Y1926254D01*
X2552984D01*
X2549652D01*
Y1921256D01*
X2559649Y1931253D02*
Y1921256D01*
X2566313D01*
X2569646D02*
Y1927921D01*
X2572978Y1931253D01*
X2576310Y1927921D01*
Y1921256D01*
Y1926254D01*
X2569646D01*
X2579642Y1931253D02*
X2586307D01*
X2582975D01*
Y1921256D01*
X2596304Y1929587D02*
X2594637Y1931253D01*
X2591305D01*
X2589639Y1929587D01*
Y1927921D01*
X2591305Y1926254D01*
X2594637D01*
X2596304Y1924588D01*
Y1922922D01*
X2594637Y1921256D01*
X2591305D01*
X2589639Y1922922D01*
X2599636Y1921256D02*
Y1927921D01*
X2602968Y1931253D01*
X2606300Y1927921D01*
Y1921256D01*
Y1926254D01*
X2599636D01*
X2609633Y1931253D02*
X2616297D01*
X2612965D01*
Y1921256D01*
X1758757Y2105863D02*
X1757090Y2107529D01*
X1753758D01*
X1752092Y2105863D01*
Y2099198D01*
X1753758Y2097532D01*
X1757090D01*
X1758757Y2099198D01*
X1762089Y2105863D02*
X1763755Y2107529D01*
X1767087D01*
X1768753Y2105863D01*
Y2104196D01*
X1767087Y2102530D01*
X1765421D01*
X1767087D01*
X1768753Y2100864D01*
Y2099198D01*
X1767087Y2097532D01*
X1763755D01*
X1762089Y2099198D01*
X1772086Y2107529D02*
X1778750D01*
Y2105863D01*
X1772086Y2099198D01*
Y2097532D01*
X1655379Y1928317D02*
X1653712Y1929983D01*
X1650380D01*
X1648714Y1928317D01*
Y1921652D01*
X1650380Y1919986D01*
X1653712D01*
X1655379Y1921652D01*
X1658711Y1928317D02*
X1660377Y1929983D01*
X1663709D01*
X1665375Y1928317D01*
Y1926651D01*
X1663709Y1924984D01*
X1662043D01*
X1663709D01*
X1665375Y1923318D01*
Y1921652D01*
X1663709Y1919986D01*
X1660377D01*
X1658711Y1921652D01*
X1675372Y1929983D02*
X1672040Y1928317D01*
X1668708Y1924984D01*
Y1921652D01*
X1670374Y1919986D01*
X1673706D01*
X1675372Y1921652D01*
Y1923318D01*
X1673706Y1924984D01*
X1668708D01*
X2323287Y1866331D02*
X2324953Y1867998D01*
Y1871330D01*
X2323287Y1872996D01*
X2316622D01*
X2314956Y1871330D01*
Y1867998D01*
X2316622Y1866331D01*
X2314956Y1856335D02*
Y1862999D01*
X2321620Y1856335D01*
X2323287D01*
X2324953Y1858001D01*
Y1861333D01*
X2323287Y1862999D01*
X2314956Y1848004D02*
X2324953D01*
X2319954Y1853002D01*
Y1846338D01*
X1600665Y2309081D02*
X1598998Y2310747D01*
X1595666D01*
X1594000Y2309081D01*
Y2302416D01*
X1595666Y2300750D01*
X1598998D01*
X1600665Y2302416D01*
X1610661Y2300750D02*
X1603997D01*
X1610661Y2307415D01*
Y2309081D01*
X1608995Y2310747D01*
X1605663D01*
X1603997Y2309081D01*
X1613994D02*
X1615660Y2310747D01*
X1618992D01*
X1620658Y2309081D01*
Y2302416D01*
X1618992Y2300750D01*
X1615660D01*
X1613994Y2302416D01*
Y2309081D01*
X1593165Y2425831D02*
X1591498Y2427497D01*
X1588166D01*
X1586500Y2425831D01*
Y2419166D01*
X1588166Y2417500D01*
X1591498D01*
X1593165Y2419166D01*
X1596497Y2417500D02*
X1599829D01*
X1598163D01*
Y2427497D01*
X1596497Y2425831D01*
X1604827Y2419166D02*
X1606494Y2417500D01*
X1609826D01*
X1611492Y2419166D01*
Y2425831D01*
X1609826Y2427497D01*
X1606494D01*
X1604827Y2425831D01*
Y2424164D01*
X1606494Y2422498D01*
X1611492D01*
X2181667Y2069033D02*
X2180000Y2070699D01*
X2176668D01*
X2175002Y2069033D01*
Y2062368D01*
X2176668Y2060702D01*
X2180000D01*
X2181667Y2062368D01*
X2184999Y2060702D02*
X2188331D01*
X2186665D01*
Y2070699D01*
X2184999Y2069033D01*
X2193329D02*
X2194996Y2070699D01*
X2198328D01*
X2199994Y2069033D01*
Y2067366D01*
X2198328Y2065700D01*
X2199994Y2064034D01*
Y2062368D01*
X2198328Y2060702D01*
X2194996D01*
X2193329Y2062368D01*
Y2064034D01*
X2194996Y2065700D01*
X2193329Y2067366D01*
Y2069033D01*
X2194996Y2065700D02*
X2198328D01*
X1661669Y2036664D02*
X1660003Y2034998D01*
Y2031666D01*
X1661669Y2030000D01*
X1668334D01*
X1670000Y2031666D01*
Y2034998D01*
X1668334Y2036664D01*
X1670000Y2039997D02*
Y2043329D01*
Y2041663D01*
X1660003D01*
X1661669Y2039997D01*
X1660003Y2048327D02*
Y2054992D01*
X1661669D01*
X1668334Y2048327D01*
X1670000D01*
X2086671Y2069033D02*
X2085004Y2070699D01*
X2081672D01*
X2080006Y2069033D01*
Y2062368D01*
X2081672Y2060702D01*
X2085004D01*
X2086671Y2062368D01*
X2090003Y2060702D02*
X2093335D01*
X2091669D01*
Y2070699D01*
X2090003Y2069033D01*
X2104998Y2060702D02*
X2098333D01*
X2104998Y2067366D01*
Y2069033D01*
X2103332Y2070699D01*
X2100000D01*
X2098333Y2069033D01*
X2236785D02*
X2235118Y2070699D01*
X2231786D01*
X2230120Y2069033D01*
Y2062368D01*
X2231786Y2060702D01*
X2235118D01*
X2236785Y2062368D01*
X2240117Y2060702D02*
X2243449D01*
X2241783D01*
Y2070699D01*
X2240117Y2069033D01*
X2248447D02*
X2250114Y2070699D01*
X2253446D01*
X2255112Y2069033D01*
Y2062368D01*
X2253446Y2060702D01*
X2250114D01*
X2248447Y2062368D01*
Y2069033D01*
X1456690Y2499959D02*
Y2489962D01*
X1461688D01*
X1463354Y2491628D01*
Y2493294D01*
X1461688Y2494960D01*
X1456690D01*
X1461688D01*
X1463354Y2496626D01*
Y2498293D01*
X1461688Y2499959D01*
X1456690D01*
X1466687Y2489962D02*
Y2496626D01*
X1470019Y2499959D01*
X1473351Y2496626D01*
Y2489962D01*
Y2494960D01*
X1466687D01*
X1476684Y2499959D02*
X1483348D01*
X1480016D01*
Y2489962D01*
X1486680Y2499959D02*
X1493345D01*
X1490013D01*
Y2489962D01*
X1503342Y2499959D02*
X1496677D01*
Y2489962D01*
X1503342D01*
X1496677Y2494960D02*
X1500009D01*
X1506674Y2489962D02*
Y2499959D01*
X1511672D01*
X1513338Y2498293D01*
Y2494960D01*
X1511672Y2493294D01*
X1506674D01*
X1510006D02*
X1513338Y2489962D01*
X1516671Y2499959D02*
Y2498293D01*
X1520003Y2494960D01*
X1523335Y2498293D01*
Y2499959D01*
X1520003Y2494960D02*
Y2489962D01*
X3376676Y2099767D02*
X3378342Y2101433D01*
X3381674D01*
X3383340Y2099767D01*
Y2098100D01*
X3381674Y2096434D01*
X3380008D01*
X3381674D01*
X3383340Y2094768D01*
Y2093102D01*
X3381674Y2091436D01*
X3378342D01*
X3376676Y2093102D01*
X3386673Y2101433D02*
Y2094768D01*
X3390005Y2091436D01*
X3393337Y2094768D01*
Y2101433D01*
X3396670Y2099767D02*
X3398336Y2101433D01*
X3401668D01*
X3403334Y2099767D01*
Y2098100D01*
X3401668Y2096434D01*
X3400002D01*
X3401668D01*
X3403334Y2094768D01*
Y2093102D01*
X3401668Y2091436D01*
X3398336D01*
X3396670Y2093102D01*
X3406666Y2089770D02*
X3413331D01*
X3423328Y2101433D02*
X3416663D01*
Y2091436D01*
X3423328D01*
X3416663Y2096434D02*
X3419995D01*
X3426660Y2101433D02*
X3433324Y2091436D01*
Y2101433D02*
X3426660Y2091436D01*
X3436657Y2101433D02*
X3443321D01*
X3439989D01*
Y2091436D01*
X2290064Y1872996D02*
X2300061D01*
Y1867998D01*
X2298395Y1866331D01*
X2295062D01*
X2293396Y1867998D01*
Y1872996D01*
Y1869664D02*
X2290064Y1866331D01*
Y1856335D02*
Y1862999D01*
X2296729Y1856335D01*
X2298395D01*
X2300061Y1858001D01*
Y1861333D01*
X2298395Y1862999D01*
X2290064Y1853002D02*
Y1849670D01*
Y1851336D01*
X2300061D01*
X2298395Y1853002D01*
X2165096Y1928368D02*
Y1938365D01*
X2170094D01*
X2171761Y1936699D01*
Y1933366D01*
X2170094Y1931700D01*
X2165096D01*
X2168428D02*
X2171761Y1928368D01*
X2181757Y1938365D02*
X2175093D01*
Y1928368D01*
X2181757D01*
X2175093Y1933366D02*
X2178425D01*
X2191754Y1936699D02*
X2190088Y1938365D01*
X2186756D01*
X2185090Y1936699D01*
Y1935033D01*
X2186756Y1933366D01*
X2190088D01*
X2191754Y1931700D01*
Y1930034D01*
X2190088Y1928368D01*
X2186756D01*
X2185090Y1930034D01*
X2201751Y1938365D02*
X2195086D01*
Y1928368D01*
X2201751D01*
X2195086Y1933366D02*
X2198419D01*
X2205083Y1938365D02*
X2211748D01*
X2208415D01*
Y1928368D01*
X2436174Y2074113D02*
X2434508Y2075779D01*
X2431176D01*
X2429510Y2074113D01*
Y2072446D01*
X2431176Y2070780D01*
X2434508D01*
X2436174Y2069114D01*
Y2067448D01*
X2434508Y2065782D01*
X2431176D01*
X2429510Y2067448D01*
X2439507Y2075779D02*
Y2065782D01*
Y2070780D01*
X2446171D01*
Y2075779D01*
Y2065782D01*
X2449504Y2075779D02*
Y2067448D01*
X2451170Y2065782D01*
X2454502D01*
X2456168Y2067448D01*
Y2075779D01*
X2459500D02*
X2466165D01*
X2462833D01*
Y2065782D01*
X2469497Y2075779D02*
Y2065782D01*
X2474496D01*
X2476162Y2067448D01*
Y2074113D01*
X2474496Y2075779D01*
X2469497D01*
X2484492D02*
X2481160D01*
X2479494Y2074113D01*
Y2067448D01*
X2481160Y2065782D01*
X2484492D01*
X2486158Y2067448D01*
Y2074113D01*
X2484492Y2075779D01*
X2489491D02*
Y2065782D01*
X2492823Y2069114D01*
X2496155Y2065782D01*
Y2075779D01*
X2499487Y2065782D02*
Y2075779D01*
X2506152Y2065782D01*
Y2075779D01*
X2509484Y2064116D02*
X2516149D01*
X2519481Y2075779D02*
X2526145Y2065782D01*
Y2075779D02*
X2519481Y2065782D01*
X2529478Y2070780D02*
X2536142D01*
X2532810Y2074113D02*
Y2067448D01*
X2436174Y1999183D02*
X2434508Y2000849D01*
X2431176D01*
X2429510Y1999183D01*
Y1997516D01*
X2431176Y1995850D01*
X2434508D01*
X2436174Y1994184D01*
Y1992518D01*
X2434508Y1990852D01*
X2431176D01*
X2429510Y1992518D01*
X2439507Y2000849D02*
Y1990852D01*
Y1995850D01*
X2446171D01*
Y2000849D01*
Y1990852D01*
X2449504Y2000849D02*
Y1992518D01*
X2451170Y1990852D01*
X2454502D01*
X2456168Y1992518D01*
Y2000849D01*
X2459500D02*
X2466165D01*
X2462833D01*
Y1990852D01*
X2469497Y2000849D02*
Y1990852D01*
X2474496D01*
X2476162Y1992518D01*
Y1999183D01*
X2474496Y2000849D01*
X2469497D01*
X2484492D02*
X2481160D01*
X2479494Y1999183D01*
Y1992518D01*
X2481160Y1990852D01*
X2484492D01*
X2486158Y1992518D01*
Y1999183D01*
X2484492Y2000849D01*
X2489491D02*
Y1990852D01*
X2492823Y1994184D01*
X2496155Y1990852D01*
Y2000849D01*
X2499487Y1990852D02*
Y2000849D01*
X2506152Y1990852D01*
Y2000849D01*
X2509484Y1989186D02*
X2516149D01*
X2519481Y2000849D02*
X2526145Y1990852D01*
Y2000849D02*
X2519481Y1990852D01*
X2529478Y1995850D02*
X2536142D01*
X2436174Y2049221D02*
X2434508Y2050887D01*
X2431176D01*
X2429510Y2049221D01*
Y2047554D01*
X2431176Y2045888D01*
X2434508D01*
X2436174Y2044222D01*
Y2042556D01*
X2434508Y2040890D01*
X2431176D01*
X2429510Y2042556D01*
X2439507Y2050887D02*
Y2040890D01*
Y2045888D01*
X2446171D01*
Y2050887D01*
Y2040890D01*
X2449504Y2050887D02*
Y2042556D01*
X2451170Y2040890D01*
X2454502D01*
X2456168Y2042556D01*
Y2050887D01*
X2459500D02*
X2466165D01*
X2462833D01*
Y2040890D01*
X2469497Y2050887D02*
Y2040890D01*
X2474496D01*
X2476162Y2042556D01*
Y2049221D01*
X2474496Y2050887D01*
X2469497D01*
X2484492D02*
X2481160D01*
X2479494Y2049221D01*
Y2042556D01*
X2481160Y2040890D01*
X2484492D01*
X2486158Y2042556D01*
Y2049221D01*
X2484492Y2050887D01*
X2489491D02*
Y2040890D01*
X2492823Y2044222D01*
X2496155Y2040890D01*
Y2050887D01*
X2499487Y2040890D02*
Y2050887D01*
X2506152Y2040890D01*
Y2050887D01*
X2509484Y2039224D02*
X2516149D01*
X2519481Y2050887D02*
Y2049221D01*
X2522813Y2045888D01*
X2526145Y2049221D01*
Y2050887D01*
X2522813Y2045888D02*
Y2040890D01*
X2529478Y2045888D02*
X2536142D01*
X2532810Y2049221D02*
Y2042556D01*
X2436174Y1974291D02*
X2434508Y1975957D01*
X2431176D01*
X2429510Y1974291D01*
Y1972625D01*
X2431176Y1970958D01*
X2434508D01*
X2436174Y1969292D01*
Y1967626D01*
X2434508Y1965960D01*
X2431176D01*
X2429510Y1967626D01*
X2439507Y1975957D02*
Y1965960D01*
Y1970958D01*
X2446171D01*
Y1975957D01*
Y1965960D01*
X2449504Y1975957D02*
Y1967626D01*
X2451170Y1965960D01*
X2454502D01*
X2456168Y1967626D01*
Y1975957D01*
X2459500D02*
X2466165D01*
X2462833D01*
Y1965960D01*
X2469497Y1975957D02*
Y1965960D01*
X2474496D01*
X2476162Y1967626D01*
Y1974291D01*
X2474496Y1975957D01*
X2469497D01*
X2484492D02*
X2481160D01*
X2479494Y1974291D01*
Y1967626D01*
X2481160Y1965960D01*
X2484492D01*
X2486158Y1967626D01*
Y1974291D01*
X2484492Y1975957D01*
X2489491D02*
Y1965960D01*
X2492823Y1969292D01*
X2496155Y1965960D01*
Y1975957D01*
X2499487Y1965960D02*
Y1975957D01*
X2506152Y1965960D01*
Y1975957D01*
X2509484Y1964294D02*
X2516149D01*
X2519481Y1975957D02*
Y1974291D01*
X2522813Y1970958D01*
X2526145Y1974291D01*
Y1975957D01*
X2522813Y1970958D02*
Y1965960D01*
X2529478Y1970958D02*
X2536142D01*
X2436174Y2024075D02*
X2434508Y2025741D01*
X2431176D01*
X2429510Y2024075D01*
Y2022408D01*
X2431176Y2020742D01*
X2434508D01*
X2436174Y2019076D01*
Y2017410D01*
X2434508Y2015744D01*
X2431176D01*
X2429510Y2017410D01*
X2439507Y2025741D02*
Y2015744D01*
Y2020742D01*
X2446171D01*
Y2025741D01*
Y2015744D01*
X2449504Y2025741D02*
Y2017410D01*
X2451170Y2015744D01*
X2454502D01*
X2456168Y2017410D01*
Y2025741D01*
X2459500D02*
X2466165D01*
X2462833D01*
Y2015744D01*
X2469497Y2025741D02*
Y2015744D01*
X2474496D01*
X2476162Y2017410D01*
Y2024075D01*
X2474496Y2025741D01*
X2469497D01*
X2484492D02*
X2481160D01*
X2479494Y2024075D01*
Y2017410D01*
X2481160Y2015744D01*
X2484492D01*
X2486158Y2017410D01*
Y2024075D01*
X2484492Y2025741D01*
X2489491D02*
Y2015744D01*
X2492823Y2019076D01*
X2496155Y2015744D01*
Y2025741D01*
X2499487Y2015744D02*
Y2025741D01*
X2506152Y2015744D01*
Y2025741D01*
X2509484Y2014078D02*
X2516149D01*
X2519481Y2025741D02*
X2526145D01*
Y2024075D01*
X2519481Y2017410D01*
Y2015744D01*
X2526145D01*
X2529478Y2020742D02*
X2536142D01*
X2532810Y2024075D02*
Y2017410D01*
X2436174Y1949145D02*
X2434508Y1950811D01*
X2431176D01*
X2429510Y1949145D01*
Y1947478D01*
X2431176Y1945812D01*
X2434508D01*
X2436174Y1944146D01*
Y1942480D01*
X2434508Y1940814D01*
X2431176D01*
X2429510Y1942480D01*
X2439507Y1950811D02*
Y1940814D01*
Y1945812D01*
X2446171D01*
Y1950811D01*
Y1940814D01*
X2449504Y1950811D02*
Y1942480D01*
X2451170Y1940814D01*
X2454502D01*
X2456168Y1942480D01*
Y1950811D01*
X2459500D02*
X2466165D01*
X2462833D01*
Y1940814D01*
X2469497Y1950811D02*
Y1940814D01*
X2474496D01*
X2476162Y1942480D01*
Y1949145D01*
X2474496Y1950811D01*
X2469497D01*
X2484492D02*
X2481160D01*
X2479494Y1949145D01*
Y1942480D01*
X2481160Y1940814D01*
X2484492D01*
X2486158Y1942480D01*
Y1949145D01*
X2484492Y1950811D01*
X2489491D02*
Y1940814D01*
X2492823Y1944146D01*
X2496155Y1940814D01*
Y1950811D01*
X2499487Y1940814D02*
Y1950811D01*
X2506152Y1940814D01*
Y1950811D01*
X2509484Y1939148D02*
X2516149D01*
X2519481Y1950811D02*
X2526145D01*
Y1949145D01*
X2519481Y1942480D01*
Y1940814D01*
X2526145D01*
X2529478Y1945812D02*
X2536142D01*
X2659888Y2001266D02*
X2669885D01*
Y1996268D01*
X2668219Y1994601D01*
X2664886D01*
X2663220Y1996268D01*
Y2001266D01*
Y1997934D02*
X2659888Y1994601D01*
Y1984605D02*
Y1991269D01*
X2666552Y1984605D01*
X2668219D01*
X2669885Y1986271D01*
Y1989603D01*
X2668219Y1991269D01*
Y1981272D02*
X2669885Y1979606D01*
Y1976274D01*
X2668219Y1974608D01*
X2661554D01*
X2659888Y1976274D01*
Y1979606D01*
X2661554Y1981272D01*
X2668219D01*
X2685034Y1999488D02*
X2695031D01*
Y1994490D01*
X2693365Y1992823D01*
X2690032D01*
X2688366Y1994490D01*
Y1999488D01*
Y1996156D02*
X2685034Y1992823D01*
Y1989491D02*
Y1986159D01*
Y1987825D01*
X2695031D01*
X2693365Y1989491D01*
X2686700Y1981161D02*
X2685034Y1979494D01*
Y1976162D01*
X2686700Y1974496D01*
X2693365D01*
X2695031Y1976162D01*
Y1979494D01*
X2693365Y1981161D01*
X2691699D01*
X2690032Y1979494D01*
Y1974496D01*
X1556064Y2163681D02*
X1554398Y2165347D01*
X1551066D01*
X1549400Y2163681D01*
Y2162014D01*
X1551066Y2160348D01*
X1554398D01*
X1556064Y2158682D01*
Y2157016D01*
X1554398Y2155350D01*
X1551066D01*
X1549400Y2157016D01*
X1559397Y2165347D02*
Y2155350D01*
X1564395D01*
X1566061Y2157016D01*
Y2163681D01*
X1564395Y2165347D01*
X1559397D01*
X1569394Y2155350D02*
Y2162014D01*
X1572726Y2165347D01*
X1576058Y2162014D01*
Y2155350D01*
Y2160348D01*
X1569394D01*
X1556064Y2138281D02*
X1554398Y2139947D01*
X1551066D01*
X1549400Y2138281D01*
Y2136615D01*
X1551066Y2134948D01*
X1554398D01*
X1556064Y2133282D01*
Y2131616D01*
X1554398Y2129950D01*
X1551066D01*
X1549400Y2131616D01*
X1566061Y2138281D02*
X1564395Y2139947D01*
X1561063D01*
X1559397Y2138281D01*
Y2131616D01*
X1561063Y2129950D01*
X1564395D01*
X1566061Y2131616D01*
X1569394Y2139947D02*
Y2129950D01*
X1576058D01*
X1473200Y2155350D02*
Y2165347D01*
X1478198D01*
X1479865Y2163681D01*
Y2160348D01*
X1478198Y2158682D01*
X1473200D01*
X1489861Y2163681D02*
X1488195Y2165347D01*
X1484863D01*
X1483197Y2163681D01*
Y2157016D01*
X1484863Y2155350D01*
X1488195D01*
X1489861Y2157016D01*
X1493194Y2163681D02*
X1494860Y2165347D01*
X1498192D01*
X1499858Y2163681D01*
Y2157016D01*
X1498192Y2155350D01*
X1494860D01*
X1493194Y2157016D01*
Y2163681D01*
X1473200Y2129950D02*
Y2139947D01*
X1478198D01*
X1479865Y2138281D01*
Y2134948D01*
X1478198Y2133282D01*
X1473200D01*
X1489861Y2138281D02*
X1488195Y2139947D01*
X1484863D01*
X1483197Y2138281D01*
Y2131616D01*
X1484863Y2129950D01*
X1488195D01*
X1489861Y2131616D01*
X1493194Y2129950D02*
X1496526D01*
X1494860D01*
Y2139947D01*
X1493194Y2138281D01*
X1459998Y2280000D02*
Y2273336D01*
X1463331Y2276668D02*
X1456666D01*
X1459998Y2230016D02*
Y2223352D01*
Y2455000D02*
Y2448336D01*
X1463331Y2451668D02*
X1456666D01*
X1459998Y2405016D02*
Y2398352D01*
X1473200Y2104550D02*
Y2114547D01*
X1478198D01*
X1479865Y2112881D01*
Y2109548D01*
X1478198Y2107882D01*
X1473200D01*
X1483197Y2114547D02*
Y2104550D01*
X1488195D01*
X1489861Y2106216D01*
Y2112881D01*
X1488195Y2114547D01*
X1483197D01*
X1493194Y2112881D02*
X1494860Y2114547D01*
X1498192D01*
X1499858Y2112881D01*
Y2106216D01*
X1498192Y2104550D01*
X1494860D01*
X1493194Y2106216D01*
Y2112881D01*
X1473200Y2079150D02*
Y2089147D01*
X1478198D01*
X1479865Y2087481D01*
Y2084148D01*
X1478198Y2082482D01*
X1473200D01*
X1483197Y2089147D02*
Y2079150D01*
X1488195D01*
X1489861Y2080816D01*
Y2087481D01*
X1488195Y2089147D01*
X1483197D01*
X1493194Y2079150D02*
X1496526D01*
X1494860D01*
Y2089147D01*
X1493194Y2087481D01*
X1473200Y2053750D02*
Y2063747D01*
X1478198D01*
X1479865Y2062081D01*
Y2058748D01*
X1478198Y2057082D01*
X1473200D01*
X1483197Y2063747D02*
Y2053750D01*
X1488195D01*
X1489861Y2055416D01*
Y2062081D01*
X1488195Y2063747D01*
X1483197D01*
X1499858Y2053750D02*
X1493194D01*
X1499858Y2060414D01*
Y2062081D01*
X1498192Y2063747D01*
X1494860D01*
X1493194Y2062081D01*
X1473200Y2028350D02*
Y2038347D01*
X1478198D01*
X1479865Y2036681D01*
Y2033348D01*
X1478198Y2031682D01*
X1473200D01*
X1483197Y2038347D02*
Y2028350D01*
X1488195D01*
X1489861Y2030016D01*
Y2036681D01*
X1488195Y2038347D01*
X1483197D01*
X1493194Y2036681D02*
X1494860Y2038347D01*
X1498192D01*
X1499858Y2036681D01*
Y2035014D01*
X1498192Y2033348D01*
X1496526D01*
X1498192D01*
X1499858Y2031682D01*
Y2030016D01*
X1498192Y2028350D01*
X1494860D01*
X1493194Y2030016D01*
X1473200Y2002950D02*
Y2012947D01*
X1478198D01*
X1479865Y2011281D01*
Y2007948D01*
X1478198Y2006282D01*
X1473200D01*
X1483197Y2012947D02*
Y2002950D01*
X1488195D01*
X1489861Y2004616D01*
Y2011281D01*
X1488195Y2012947D01*
X1483197D01*
X1498192Y2002950D02*
Y2012947D01*
X1493194Y2007948D01*
X1499858D01*
X1473200Y1977550D02*
Y1987547D01*
X1478198D01*
X1479865Y1985881D01*
Y1982548D01*
X1478198Y1980882D01*
X1473200D01*
X1483197Y1987547D02*
Y1977550D01*
X1488195D01*
X1489861Y1979216D01*
Y1985881D01*
X1488195Y1987547D01*
X1483197D01*
X1499858D02*
X1493194D01*
Y1982548D01*
X1496526Y1984214D01*
X1498192D01*
X1499858Y1982548D01*
Y1979216D01*
X1498192Y1977550D01*
X1494860D01*
X1493194Y1979216D01*
X1473200Y1952150D02*
Y1962147D01*
X1478198D01*
X1479865Y1960481D01*
Y1957148D01*
X1478198Y1955482D01*
X1473200D01*
X1483197Y1962147D02*
Y1952150D01*
X1488195D01*
X1489861Y1953816D01*
Y1960481D01*
X1488195Y1962147D01*
X1483197D01*
X1499858D02*
X1496526Y1960481D01*
X1493194Y1957148D01*
Y1953816D01*
X1494860Y1952150D01*
X1498192D01*
X1499858Y1953816D01*
Y1955482D01*
X1498192Y1957148D01*
X1493194D01*
X1473200Y1926750D02*
Y1936747D01*
X1478198D01*
X1479865Y1935081D01*
Y1931748D01*
X1478198Y1930082D01*
X1473200D01*
X1483197Y1936747D02*
Y1926750D01*
X1488195D01*
X1489861Y1928416D01*
Y1935081D01*
X1488195Y1936747D01*
X1483197D01*
X1493194D02*
X1499858D01*
Y1935081D01*
X1493194Y1928416D01*
Y1926750D01*
X1730000Y2665002D02*
X1723336D01*
X1726668Y2661669D02*
Y2668334D01*
X1680016Y2665002D02*
X1673352D01*
X3230000D02*
X3223336D01*
X3226668Y2661669D02*
Y2668334D01*
X3180016Y2665002D02*
X3173352D01*
X2930000D02*
X2923336D01*
X2926668Y2661669D02*
Y2668334D01*
X2880016Y2665002D02*
X2873352D01*
X2630000D02*
X2623336D01*
X2626668Y2661669D02*
Y2668334D01*
X2580016Y2665002D02*
X2573352D01*
X2330000D02*
X2323336D01*
X2326668Y2661669D02*
Y2668334D01*
X2280016Y2665002D02*
X2273352D01*
X2030000D02*
X2023336D01*
X2026668Y2661669D02*
Y2668334D01*
X1980016Y2665002D02*
X1973352D01*
X3440002Y1995000D02*
Y2001664D01*
X3436669Y1998332D02*
X3443334D01*
X3440002Y2044984D02*
Y2051648D01*
X2960000Y1899997D02*
Y1890000D01*
X2964998D01*
X2966664Y1891666D01*
Y1893332D01*
X2964998Y1894998D01*
X2960000D01*
X2964998D01*
X2966664Y1896664D01*
Y1898331D01*
X2964998Y1899997D01*
X2960000D01*
X2969997D02*
Y1890000D01*
X2976661D01*
X2979994Y1899997D02*
Y1891666D01*
X2981660Y1890000D01*
X2984992D01*
X2986658Y1891666D01*
Y1899997D01*
X2996655D02*
X2989991D01*
Y1890000D01*
X2996655D01*
X2989991Y1894998D02*
X2993322D01*
X2999987Y1890000D02*
X3004985D01*
X3006652Y1891666D01*
X3004985Y1893332D01*
X3001653D01*
X2999987Y1894998D01*
X3001653Y1896664D01*
X3006652D01*
X3011650D02*
X3014982D01*
X3016648Y1894998D01*
Y1890000D01*
X3011650D01*
X3009984Y1891666D01*
X3011650Y1893332D01*
X3016648D01*
X3021647Y1898331D02*
Y1896664D01*
X3019981D01*
X3023313D01*
X3021647D01*
Y1891666D01*
X3023313Y1890000D01*
X3038308Y1899997D02*
Y1890000D01*
X3043307D01*
X3044973Y1891666D01*
Y1893332D01*
X3043307Y1894998D01*
X3038308D01*
X3043307D01*
X3044973Y1896664D01*
Y1898331D01*
X3043307Y1899997D01*
X3038308D01*
X3054969Y1898331D02*
X3053303Y1899997D01*
X3049971D01*
X3048305Y1898331D01*
Y1891666D01*
X3049971Y1890000D01*
X3053303D01*
X3054969Y1891666D01*
X3058302Y1890000D02*
Y1899997D01*
X3063300D01*
X3064966Y1898331D01*
Y1894998D01*
X3063300Y1893332D01*
X3058302D01*
X3061634D02*
X3064966Y1890000D01*
X3078295D02*
Y1899997D01*
X3083293D01*
X3084960Y1898331D01*
Y1894998D01*
X3083293Y1893332D01*
X3078295D01*
X3088292Y1896664D02*
Y1890000D01*
Y1893332D01*
X3089958Y1894998D01*
X3091624Y1896664D01*
X3093290D01*
X3099955Y1890000D02*
X3103287D01*
X3104953Y1891666D01*
Y1894998D01*
X3103287Y1896664D01*
X3099955D01*
X3098289Y1894998D01*
Y1891666D01*
X3099955Y1890000D01*
X3109952Y1898331D02*
Y1896664D01*
X3108286D01*
X3111618D01*
X3109952D01*
Y1891666D01*
X3111618Y1890000D01*
X3118282D02*
X3121615D01*
X3123281Y1891666D01*
Y1894998D01*
X3121615Y1896664D01*
X3118282D01*
X3116616Y1894998D01*
Y1891666D01*
X3118282Y1890000D01*
X3128279Y1898331D02*
Y1896664D01*
X3126613D01*
X3129945D01*
X3128279D01*
Y1891666D01*
X3129945Y1890000D01*
X3134944Y1896664D02*
Y1891666D01*
X3136610Y1890000D01*
X3141608D01*
Y1888334D01*
X3139942Y1886668D01*
X3138276D01*
X3141608Y1890000D02*
Y1896664D01*
X3144940Y1886668D02*
Y1896664D01*
X3149939D01*
X3151605Y1894998D01*
Y1891666D01*
X3149939Y1890000D01*
X3144940D01*
X3159936D02*
X3156603D01*
X3154937Y1891666D01*
Y1894998D01*
X3156603Y1896664D01*
X3159936D01*
X3161602Y1894998D01*
Y1893332D01*
X3154937D01*
X3181595Y1890000D02*
X3174931D01*
X3181595Y1896664D01*
Y1898331D01*
X3179929Y1899997D01*
X3176597D01*
X3174931Y1898331D01*
X3184927Y1890000D02*
Y1891666D01*
X3186594D01*
Y1890000D01*
X3184927D01*
X3193258Y1898331D02*
X3194924Y1899997D01*
X3198257D01*
X3199923Y1898331D01*
Y1891666D01*
X3198257Y1890000D01*
X3194924D01*
X3193258Y1891666D01*
Y1898331D01*
X3219916Y1899997D02*
X3216584D01*
X3218250D01*
Y1891666D01*
X3216584Y1890000D01*
X3214918D01*
X3213252Y1891666D01*
X3223249Y1896664D02*
Y1891666D01*
X3224915Y1890000D01*
X3229913D01*
Y1896664D01*
X3233245Y1890000D02*
X3236577D01*
X3234911D01*
Y1899997D01*
X3233245D01*
X3241576Y1896664D02*
Y1891666D01*
X3243242Y1890000D01*
X3248240D01*
Y1888334D01*
X3246574Y1886668D01*
X3244908D01*
X3248240Y1890000D02*
Y1896664D01*
X3268234Y1890000D02*
X3261570D01*
X3268234Y1896664D01*
Y1898331D01*
X3266568Y1899997D01*
X3263235D01*
X3261570Y1898331D01*
X3271566D02*
X3273232Y1899997D01*
X3276565D01*
X3278231Y1898331D01*
Y1891666D01*
X3276565Y1890000D01*
X3273232D01*
X3271566Y1891666D01*
Y1898331D01*
X3281563Y1890000D02*
X3284895D01*
X3283229D01*
Y1899997D01*
X3281563Y1898331D01*
X3296558Y1890000D02*
X3289894D01*
X3296558Y1896664D01*
Y1898331D01*
X3294892Y1899997D01*
X3291560D01*
X3289894Y1898331D01*
X2960000Y1879997D02*
Y1870000D01*
X2964998D01*
X2966664Y1871666D01*
Y1878331D01*
X2964998Y1879997D01*
X2960000D01*
X2974995Y1870000D02*
X2971663D01*
X2969997Y1871666D01*
Y1874998D01*
X2971663Y1876664D01*
X2974995D01*
X2976661Y1874998D01*
Y1873332D01*
X2969997D01*
X2979994Y1870000D02*
X2984992D01*
X2986658Y1871666D01*
X2984992Y1873332D01*
X2981660D01*
X2979994Y1874998D01*
X2981660Y1876664D01*
X2986658D01*
X2989991Y1870000D02*
X2993322D01*
X2991656D01*
Y1876664D01*
X2989991D01*
X3001653Y1866668D02*
X3003319D01*
X3004985Y1868334D01*
Y1876664D01*
X2999987D01*
X2998321Y1874998D01*
Y1871666D01*
X2999987Y1870000D01*
X3004985D01*
X3008318D02*
Y1876664D01*
X3013316D01*
X3014982Y1874998D01*
Y1870000D01*
X3028311Y1879997D02*
Y1870000D01*
X3033310D01*
X3034976Y1871666D01*
Y1873332D01*
Y1874998D01*
X3033310Y1876664D01*
X3028311D01*
X3038308D02*
Y1871666D01*
X3039974Y1870000D01*
X3044973D01*
Y1868334D01*
X3043307Y1866668D01*
X3041640D01*
X3044973Y1870000D02*
Y1876664D01*
X3058302Y1879997D02*
X3064966D01*
X3061634D01*
Y1870000D01*
X3068299Y1879997D02*
Y1870000D01*
Y1874998D01*
X3069965Y1876664D01*
X3073297D01*
X3074963Y1874998D01*
Y1870000D01*
X3079962D02*
X3083293D01*
X3084960Y1871666D01*
Y1874998D01*
X3083293Y1876664D01*
X3079962D01*
X3078295Y1874998D01*
Y1871666D01*
X3079962Y1870000D01*
X3088292D02*
Y1876664D01*
X3089958D01*
X3091624Y1874998D01*
Y1870000D01*
Y1874998D01*
X3093290Y1876664D01*
X3094956Y1874998D01*
Y1870000D01*
X3099955Y1876664D02*
X3103287D01*
X3104953Y1874998D01*
Y1870000D01*
X3099955D01*
X3098289Y1871666D01*
X3099955Y1873332D01*
X3104953D01*
X3108286Y1870000D02*
X3113284D01*
X3114950Y1871666D01*
X3113284Y1873332D01*
X3109952D01*
X3108286Y1874998D01*
X3109952Y1876664D01*
X3114950D01*
X3134944Y1879997D02*
X3128279D01*
Y1874998D01*
X3131611D01*
X3128279D01*
Y1870000D01*
X3138276D02*
X3141608D01*
X3139942D01*
Y1876664D01*
X3138276D01*
X3146607Y1870000D02*
X3151605D01*
X3153271Y1871666D01*
X3151605Y1873332D01*
X3148273D01*
X3146607Y1874998D01*
X3148273Y1876664D01*
X3153271D01*
X3156603Y1870000D02*
Y1879997D01*
Y1873332D02*
X3161602Y1876664D01*
X3156603Y1873332D02*
X3161602Y1870000D01*
X2248665Y1942331D02*
X2246998Y1943997D01*
X2243666D01*
X2242000Y1942331D01*
Y1935666D01*
X2243666Y1934000D01*
X2246998D01*
X2248665Y1935666D01*
Y1938998D01*
X2245332D01*
X2251997Y1934000D02*
Y1943997D01*
X2258661Y1934000D01*
Y1943997D01*
X2261994D02*
Y1934000D01*
X2266992D01*
X2268658Y1935666D01*
Y1942331D01*
X2266992Y1943997D01*
X2261994D01*
X2223665Y1970997D02*
X2217000D01*
Y1965998D01*
X2220332D01*
X2217000D01*
Y1961000D01*
X2226997Y1959334D02*
X2233661D01*
X2243658Y1969331D02*
X2241992Y1970997D01*
X2238660D01*
X2236994Y1969331D01*
Y1967664D01*
X2238660Y1965998D01*
X2241992D01*
X2243658Y1964332D01*
Y1962666D01*
X2241992Y1961000D01*
X2238660D01*
X2236994Y1962666D01*
X2246990Y1970997D02*
Y1969331D01*
X2250323Y1965998D01*
X2253655Y1969331D01*
Y1970997D01*
X2250323Y1965998D02*
Y1961000D01*
X2256987D02*
Y1970997D01*
X2263652Y1961000D01*
Y1970997D01*
X2273648Y1969331D02*
X2271982Y1970997D01*
X2268650D01*
X2266984Y1969331D01*
Y1962666D01*
X2268650Y1961000D01*
X2271982D01*
X2273648Y1962666D01*
D37*
X2237500Y1890000D02*
G03*
X2237500Y1890000I-17500J0D01*
G01*
X1493250Y2194120D02*
Y2305880D01*
Y2369120D02*
Y2480880D01*
X2007000Y1921000D02*
Y2029000D01*
X1995000D02*
X2007000D01*
X1995000Y1921000D02*
X2007000D01*
X1953000D02*
X1965000D01*
X1953000D02*
Y2029000D01*
X1965000D01*
X2250000Y1860000D02*
Y1920000D01*
X2190000D02*
X2250000D01*
X2190000Y1860000D02*
Y1920000D01*
Y1860000D02*
X2250000D01*
X1644120Y2631750D02*
X1755880D01*
X3144120D02*
X3255880D01*
X2844120D02*
X2955880D01*
X2544120D02*
X2655880D01*
X2244120D02*
X2355880D01*
X1944120D02*
X2055880D01*
X3406750Y1969120D02*
Y2080880D01*
X2950000Y1910000D02*
X3305000D01*
Y1860000D02*
Y1910000D01*
X2950000Y1860000D02*
X3305000D01*
X2950000D02*
Y1910000D01*
X1450000Y1825000D02*
Y2675000D01*
Y1825000D02*
X3450000D01*
Y2675000D01*
X1450000D02*
X3450000D01*
X3025000Y2715235D02*
Y2700000D01*
X3032617D01*
X3035157Y2702539D01*
Y2705078D01*
X3032617Y2707617D01*
X3025000D01*
X3032617D01*
X3035157Y2710157D01*
Y2712696D01*
X3032617Y2715235D01*
X3025000D01*
X3042774Y2700000D02*
X3047852D01*
X3050392Y2702539D01*
Y2707617D01*
X3047852Y2710157D01*
X3042774D01*
X3040235Y2707617D01*
Y2702539D01*
X3042774Y2700000D01*
X3058009Y2710157D02*
X3063088D01*
X3065627Y2707617D01*
Y2700000D01*
X3058009D01*
X3055470Y2702539D01*
X3058009Y2705078D01*
X3065627D01*
X3070705Y2710157D02*
Y2700000D01*
Y2705078D01*
X3073244Y2707617D01*
X3075784Y2710157D01*
X3078323D01*
X3096097Y2715235D02*
Y2700000D01*
X3088480D01*
X3085940Y2702539D01*
Y2707617D01*
X3088480Y2710157D01*
X3096097D01*
X3124028Y2715235D02*
X3118950D01*
X3116411Y2712696D01*
Y2702539D01*
X3118950Y2700000D01*
X3124028D01*
X3126567Y2702539D01*
Y2712696D01*
X3124028Y2715235D01*
X3131646Y2710157D02*
Y2702539D01*
X3134185Y2700000D01*
X3141802D01*
Y2710157D01*
X3149420Y2712696D02*
Y2710157D01*
X3146880D01*
X3151959D01*
X3149420D01*
Y2702539D01*
X3151959Y2700000D01*
X3159576D02*
X3164655D01*
X3162115D01*
Y2715235D01*
X3159576D01*
X3172272Y2700000D02*
X3177351D01*
X3174811D01*
Y2710157D01*
X3172272D01*
X3184968Y2700000D02*
Y2710157D01*
X3192586D01*
X3195125Y2707617D01*
Y2700000D01*
X3207821D02*
X3202743D01*
X3200203Y2702539D01*
Y2707617D01*
X3202743Y2710157D01*
X3207821D01*
X3210360Y2707617D01*
Y2705078D01*
X3200203D01*
X3217978Y2697461D02*
X3220517Y2700000D01*
Y2702539D01*
X3217978D01*
Y2700000D01*
X3220517D01*
X3217978Y2697461D01*
X3215439Y2694922D01*
X3256065Y2700000D02*
X3245909D01*
X3256065Y2710157D01*
Y2712696D01*
X3253526Y2715235D01*
X3248448D01*
X3245909Y2712696D01*
X3261143D02*
X3263683Y2715235D01*
X3268761D01*
X3271300Y2712696D01*
Y2702539D01*
X3268761Y2700000D01*
X3263683D01*
X3261143Y2702539D01*
Y2712696D01*
X3276379D02*
X3278918Y2715235D01*
X3283996D01*
X3286535Y2712696D01*
Y2702539D01*
X3283996Y2700000D01*
X3278918D01*
X3276379Y2702539D01*
Y2712696D01*
X3291614Y2700000D02*
Y2710157D01*
X3294153D01*
X3296692Y2707617D01*
Y2700000D01*
Y2707617D01*
X3299231Y2710157D01*
X3301771Y2707617D01*
Y2700000D01*
X3306849D02*
Y2710157D01*
X3309388D01*
X3311927Y2707617D01*
Y2700000D01*
Y2707617D01*
X3314466Y2710157D01*
X3317006Y2707617D01*
Y2700000D01*
X3337319Y2710157D02*
X3347476Y2700000D01*
X3342397Y2705078D01*
X3347476Y2710157D01*
X3337319Y2700000D01*
X3367789Y2712696D02*
X3370328Y2715235D01*
X3375406D01*
X3377946Y2712696D01*
Y2710157D01*
X3375406Y2707617D01*
X3377946Y2705078D01*
Y2702539D01*
X3375406Y2700000D01*
X3370328D01*
X3367789Y2702539D01*
Y2705078D01*
X3370328Y2707617D01*
X3367789Y2710157D01*
Y2712696D01*
X3370328Y2707617D02*
X3375406D01*
X3393181Y2715235D02*
X3383024D01*
Y2707617D01*
X3388102Y2710157D01*
X3390642D01*
X3393181Y2707617D01*
Y2702539D01*
X3390642Y2700000D01*
X3385563D01*
X3383024Y2702539D01*
X3398259Y2700000D02*
Y2710157D01*
X3400798D01*
X3403338Y2707617D01*
Y2700000D01*
Y2707617D01*
X3405877Y2710157D01*
X3408416Y2707617D01*
Y2700000D01*
X3413494D02*
Y2710157D01*
X3416034D01*
X3418573Y2707617D01*
Y2700000D01*
Y2707617D01*
X3421112Y2710157D01*
X3423651Y2707617D01*
Y2700000D01*
D55*
X1585750Y2465750D02*
G03*
X1585750Y2465750I-1250J0D01*
G01*
X1585750Y2316750D02*
G03*
X1585750Y2316750I-1250J0D01*
G01*
X2874900Y2314500D02*
G03*
X2874900Y2314500I-1250J0D01*
G01*
X1676525Y1963750D02*
G03*
X1676525Y1963750I-1250J0D01*
G01*
X2250750Y1991750D02*
G03*
X2250750Y1991750I-1250J0D01*
G01*
X2047750Y2026750D02*
G03*
X2047750Y2026750I-1250J0D01*
G01*
X2142750D02*
G03*
X2142750Y2026750I-1250J0D01*
G01*
X1914500Y2036500D02*
G03*
X1914500Y2036500I-1250J0D01*
G01*
X1742000Y2079500D02*
G03*
X1742000Y2079500I-1250J0D01*
G01*
X1674900Y2314500D02*
G03*
X1674900Y2314500I-1250J0D01*
G01*
X2574900D02*
G03*
X2574900Y2314500I-1250J0D01*
G01*
X1974900D02*
G03*
X1974900Y2314500I-1250J0D01*
G01*
X2274900D02*
G03*
X2274900Y2314500I-1250J0D01*
G01*
X3174900D02*
G03*
X3174900Y2314500I-1250J0D01*
G01*
X3324250Y2182000D02*
G03*
X3324250Y2182000I-1250J0D01*
G01*
X3351850Y2353500D02*
G03*
X3351850Y2353500I-1250J0D01*
G01*
X3234250Y2213250D02*
G03*
X3234250Y2213250I-1250J0D01*
G01*
X3222650Y2229500D02*
G03*
X3222650Y2229500I-1250J0D01*
G01*
X2424250Y2182000D02*
G03*
X2424250Y2182000I-1250J0D01*
G01*
X2451850Y2353500D02*
G03*
X2451850Y2353500I-1250J0D01*
G01*
X2334250Y2213250D02*
G03*
X2334250Y2213250I-1250J0D01*
G01*
X2322650Y2229500D02*
G03*
X2322650Y2229500I-1250J0D01*
G01*
X3024250Y2182000D02*
G03*
X3024250Y2182000I-1250J0D01*
G01*
X3051850Y2353500D02*
G03*
X3051850Y2353500I-1250J0D01*
G01*
X2934250Y2213250D02*
G03*
X2934250Y2213250I-1250J0D01*
G01*
X2922650Y2229500D02*
G03*
X2922650Y2229500I-1250J0D01*
G01*
X2724250Y2182000D02*
G03*
X2724250Y2182000I-1250J0D01*
G01*
X2751850Y2353500D02*
G03*
X2751850Y2353500I-1250J0D01*
G01*
X2634250Y2213250D02*
G03*
X2634250Y2213250I-1250J0D01*
G01*
X2622650Y2229500D02*
G03*
X2622650Y2229500I-1250J0D01*
G01*
X1824250Y2182000D02*
G03*
X1824250Y2182000I-1250J0D01*
G01*
X1851850Y2353500D02*
G03*
X1851850Y2353500I-1250J0D01*
G01*
X1734250Y2213250D02*
G03*
X1734250Y2213250I-1250J0D01*
G01*
X1722650Y2229500D02*
G03*
X1722650Y2229500I-1250J0D01*
G01*
X2124250Y2182000D02*
G03*
X2124250Y2182000I-1250J0D01*
G01*
X2151850Y2353500D02*
G03*
X2151850Y2353500I-1250J0D01*
G01*
X2034250Y2213250D02*
G03*
X2034250Y2213250I-1250J0D01*
G01*
X2022650Y2229500D02*
G03*
X2022650Y2229500I-1250J0D01*
G01*
D56*
X2072000Y2015500D02*
G03*
X2072000Y2015500I-3000J0D01*
G01*
X2167000D02*
G03*
X2167000Y2015500I-3000J0D01*
G01*
X1901500Y2013500D02*
G03*
X1901500Y2013500I-3000J0D01*
G01*
D57*
X1474200Y2250000D02*
Y2305880D01*
X1575800D01*
Y2194120D02*
Y2305880D01*
X1474200Y2194120D02*
X1575800D01*
X1474200D02*
Y2250000D01*
Y2425000D02*
Y2480880D01*
X1575800D01*
Y2369120D02*
Y2480880D01*
X1474200Y2369120D02*
X1575800D01*
X1474200D02*
Y2425000D01*
X1644120Y2650800D02*
X1700000D01*
X1644120Y2549200D02*
Y2650800D01*
Y2549200D02*
X1755880D01*
Y2650800D01*
X1700000D02*
X1755880D01*
X3144120D02*
X3200000D01*
X3144120Y2549200D02*
Y2650800D01*
Y2549200D02*
X3255880D01*
Y2650800D01*
X3200000D02*
X3255880D01*
X2844120D02*
X2900000D01*
X2844120Y2549200D02*
Y2650800D01*
Y2549200D02*
X2955880D01*
Y2650800D01*
X2900000D02*
X2955880D01*
X2544120D02*
X2600000D01*
X2544120Y2549200D02*
Y2650800D01*
Y2549200D02*
X2655880D01*
Y2650800D01*
X2600000D02*
X2655880D01*
X2244120D02*
X2300000D01*
X2244120Y2549200D02*
Y2650800D01*
Y2549200D02*
X2355880D01*
Y2650800D01*
X2300000D02*
X2355880D01*
X1944120D02*
X2000000D01*
X1944120Y2549200D02*
Y2650800D01*
Y2549200D02*
X2055880D01*
Y2650800D01*
X2000000D02*
X2055880D01*
X3425800Y1969120D02*
Y2025000D01*
X3324200Y1969120D02*
X3425800D01*
X3324200D02*
Y2080880D01*
X3425800D01*
Y2025000D02*
Y2080880D01*
D58*
X2145000Y1895000D02*
X2149232D01*
X2147116D01*
Y1907696D01*
X2145000Y1905580D01*
X2558064Y1895320D02*
X2549600D01*
X2558064Y1903784D01*
Y1905900D01*
X2555948Y1908016D01*
X2551716D01*
X2549600Y1905900D01*
Y1869920D02*
X2553832D01*
X2551716D01*
Y1882616D01*
X2549600Y1880500D01*
X2768040Y1869920D02*
X2772272D01*
X2770156D01*
Y1882616D01*
X2768040Y1880500D01*
X2787084Y1882616D02*
X2778620D01*
Y1876268D01*
X2782852Y1878384D01*
X2784968D01*
X2787084Y1876268D01*
Y1872036D01*
X2784968Y1869920D01*
X2780736D01*
X2778620Y1872036D01*
X2768040Y1895320D02*
X2772272D01*
X2770156D01*
Y1908016D01*
X2768040Y1905900D01*
X2787084Y1908016D02*
X2782852Y1905900D01*
X2778620Y1901668D01*
Y1897436D01*
X2780736Y1895320D01*
X2784968D01*
X2787084Y1897436D01*
Y1899552D01*
X2784968Y1901668D01*
X2778620D01*
M02*
