M48
;Layer_Color=9474304
;FILE_FORMAT=4:4
METRIC
;TYPE=PLATED
T1F00S00C1.0900
T2F00S00C3.1800
T3F00S00C3.2600
T4F00S00C3.5000
%
T01
X00408835Y00084600
X00436445
X00464055
X00491665
X00519275
X00546885
X00574495
X00602105
X00588300Y00113000
X00560690
X00533080
X00505470
X00477860
X00450250
X00422640
X00615910
X00395030
X00367420
X00339810
X00312200
X00284590
X00298395Y00084600
X00326005
X00353615
X00381225
X-00366900Y00084600
X-00394600
X-00380750Y00113000
X-00353050Y00113000
X-00408450Y00113000
X-00436150
X-00463850
X-00491550
X-00519250
X-00546950Y00113000
X-00533100Y00084600
X-00505400
X-00477700
X-00450000
X-00422300
T02
X-00283400Y00098800
X-00616600
T03
X00685510Y00098800
X00214990
T04
X00849000Y00171100
X00000000
X-00849000
M30
