%FSDAX44Y44*%
%MOMM*%
%SFA1B1*%

%IPPOS*%
%ADD14C,0.200000*%
%ADD15C,0.253999*%
%ADD16C,0.150000*%
%LNtray3-1*%
%LPD*%
G54D14*
X00890649Y-00000049D02*
D01*
X00890165Y-00000066*
X00889682Y-00000117*
X00889204Y-00000201*
X00888734Y-00000319*
X00888272Y-00000468*
X00887822Y-00000650*
X00887387Y-00000863*
X00886966Y-00001105*
X00886564Y-00001377*
X00886182Y-00001675*
X00885821Y-00002000*
X00885484Y-00002349*
X00885173Y-00002721*
X00884887Y-00003113*
X00884630Y-00003524*
X00884403Y-00003953*
X00884206Y-00004396*
X00884040Y-00004852*
X00883906Y-00005318*
X00883805Y-00005792*
X00883737Y-00006273*
X00883704Y-00006757*
X00883699Y-00006999*
X00876699Y-00059999D02*
D01*
X00877184Y-00059982*
X00877667Y-00059932*
X00878144Y-00059847*
X00878615Y-00059730*
X00879076Y-00059580*
X00879526Y-00059398*
X00879962Y-00059186*
X00880382Y-00058943*
X00880784Y-00058672*
X00881167Y-00058373*
X00881527Y-00058049*
X00881864Y-00057700*
X00882176Y-00057328*
X00882461Y-00056936*
X00882718Y-00056524*
X00882946Y-00056096*
X00883143Y-00055653*
X00883309Y-00055197*
X00883443Y-00054731*
X00883544Y-00054256*
X00883611Y-00053776*
X00883645Y-00053292*
X00883649Y-00053049*
X00706399Y-00006999D02*
D01*
X00706382Y-00006515*
X00706332Y-00006032*
X00706248Y-00005554*
X00706130Y-00005084*
X00705980Y-00004622*
X00705798Y-00004172*
X00705586Y-00003737*
X00705343Y-00003316*
X00705072Y-00002914*
X00704773Y-00002532*
X00704449Y-00002171*
X00704100Y-00001834*
X00703728Y-00001523*
X00703336Y-00001237*
X00702924Y-00000980*
X00702496Y-00000753*
X00702053Y-00000556*
X00701597Y-00000390*
X00701131Y-00000256*
X00700656Y-00000155*
X00700176Y-00000087*
X00699692Y-00000054*
X00699449Y-00000049*
X00706449Y-00053049D02*
D01*
X00706466Y-00053534*
X00706517Y-00054017*
X00706601Y-00054494*
X00706719Y-00054965*
X00706869Y-00055426*
X00707050Y-00055876*
X00707263Y-00056312*
X00707505Y-00056732*
X00707777Y-00057135*
X00708075Y-00057517*
X00708400Y-00057877*
X00708749Y-00058214*
X00709121Y-00058526*
X00709513Y-00058811*
X00709924Y-00059068*
X00710353Y-00059296*
X00710796Y-00059493*
X00711252Y-00059659*
X00711718Y-00059793*
X00712193Y-00059894*
X00712673Y-00059961*
X00713157Y-00059995*
X00713399Y-00059999*
X00500549Y-00000049D02*
D01*
X00500065Y-00000066*
X00499582Y-00000117*
X00499104Y-00000201*
X00498634Y-00000319*
X00498172Y-00000468*
X00497723Y-00000650*
X00497287Y-00000863*
X00496866Y-00001105*
X00496464Y-00001377*
X00496082Y-00001675*
X00495721Y-00002000*
X00495385Y-00002349*
X00495073Y-00002721*
X00494787Y-00003113*
X00494530Y-00003524*
X00494303Y-00003953*
X00494105Y-00004396*
X00493940Y-00004852*
X00493806Y-00005318*
X00493705Y-00005792*
X00493637Y-00006273*
X00493604Y-00006757*
X00493599Y-00006999*
X00486599Y-00059999D02*
D01*
X00487084Y-00059982*
X00487567Y-00059932*
X00488044Y-00059847*
X00488515Y-00059730*
X00488976Y-00059580*
X00489426Y-00059398*
X00489862Y-00059186*
X00490282Y-00058943*
X00490685Y-00058672*
X00491067Y-00058373*
X00491427Y-00058049*
X00491764Y-00057700*
X00492076Y-00057328*
X00492361Y-00056936*
X00492618Y-00056524*
X00492846Y-00056096*
X00493043Y-00055653*
X00493209Y-00055197*
X00493343Y-00054731*
X00493444Y-00054256*
X00493511Y-00053776*
X00493545Y-00053292*
X00493549Y-00053049*
X00316299Y-00006999D02*
D01*
X00316282Y-00006515*
X00316232Y-00006032*
X00316147Y-00005554*
X00316030Y-00005084*
X00315880Y-00004622*
X00315699Y-00004172*
X00315486Y-00003737*
X00315243Y-00003316*
X00314972Y-00002914*
X00314673Y-00002532*
X00314349Y-00002171*
X00314000Y-00001834*
X00313628Y-00001523*
X00313236Y-00001237*
X00312824Y-00000980*
X00312396Y-00000753*
X00311953Y-00000556*
X00311497Y-00000390*
X00311031Y-00000256*
X00310556Y-00000155*
X00310076Y-00000087*
X00309592Y-00000054*
X00309349Y-00000049*
X00316349Y-00053049D02*
D01*
X00316366Y-00053534*
X00316417Y-00054017*
X00316501Y-00054494*
X00316619Y-00054965*
X00316768Y-00055426*
X00316950Y-00055876*
X00317163Y-00056312*
X00317406Y-00056732*
X00317677Y-00057135*
X00317975Y-00057517*
X00318300Y-00057877*
X00318649Y-00058214*
X00319020Y-00058526*
X00319413Y-00058811*
X00319824Y-00059068*
X00320253Y-00059296*
X00320696Y-00059493*
X00321152Y-00059659*
X00321618Y-00059793*
X00322093Y-00059894*
X00322573Y-00059961*
X00323057Y-00059995*
X00323299Y-00059999*
X00641049Y00029999D02*
X00949049D01*
X00641049Y00000000D02*
Y00123999D01*
X00949049Y00000000D02*
Y00123999D01*
X00713399Y-00059999D02*
X00876699D01*
X00641049Y00123999D02*
X00949049D01*
X00725049Y00029999D02*
Y00123999D01*
X00641049Y00000000D02*
X00949049D01*
X00865049Y00029999D02*
Y00123999D01*
X00883699Y-00052999D02*
Y-00006999D01*
X00706399Y-00052999D02*
Y-00006999D01*
X00250949Y00029999D02*
X00558949D01*
X00250949Y00000000D02*
Y00123999D01*
X00558949Y00000000D02*
Y00123999D01*
X00323299Y-00059999D02*
X00486599D01*
X00250949Y00123999D02*
X00558949D01*
X00334949Y00029999D02*
Y00123999D01*
X00250949Y00000000D02*
X00558949D01*
X00474949Y00029999D02*
Y00123999D01*
X00493599Y-00052999D02*
Y-00006999D01*
X00316299Y-00052999D02*
Y-00006999D01*
G54D15*
X00000000Y00000000D02*
X01199999D01*
Y00299999*
X00000000D02*
X01199999D01*
X00000000Y00000000D02*
Y00299999D01*
X00652806Y00168142D02*
X00647727D01*
X00650266*
Y00155446*
X00647727Y00152908*
X00645188*
X00642649Y00155446*
X00657884Y00165603D02*
X00660423Y00168142D01*
X00665502*
X00668041Y00165603*
Y00163064*
X00665502Y00160524*
X00662962*
X00665502*
X00668041Y00157985*
Y00155446*
X00665502Y00152908*
X00660423*
X00657884Y00155446*
X00262706Y00168142D02*
X00257627D01*
X00260167*
Y00155446*
X00257627Y00152908*
X00255088*
X00252549Y00155446*
X00277941Y00152908D02*
X00267784D01*
X00277941Y00163064*
Y00165603*
X00275402Y00168142*
X00270323*
X00267784Y00165603*
G54D16*
X00852949Y00143749D02*
X00847951D01*
X00850450*
Y00128754*
X00852949Y00131253*
X00734652Y00128754D02*
X00744649D01*
Y00136251*
X00739651Y00133752*
X00737151*
X00734652Y00136251*
Y00141250*
X00737151Y00143749*
X00742150*
X00744649Y00141250*
X00758499Y00047250D02*
X00756000Y00049749D01*
X00751001*
X00748502Y00047250*
Y00037253*
X00751001Y00034754*
X00756000*
X00758499Y00037253*
Y00039752*
X00756000Y00042251*
X00748502*
X00831602Y00034754D02*
X00836601Y00037253D01*
X00841599Y00042251*
Y00047250*
X00839100Y00049749*
X00834101*
X00831602Y00047250*
Y00044751*
X00834101Y00042251*
X00841599*
X00462849Y00143749D02*
X00457851D01*
X00460350*
Y00128754*
X00462849Y00131253*
X00344552Y00128754D02*
X00354549D01*
Y00136251*
X00349551Y00133752*
X00347051*
X00344552Y00136251*
Y00141250*
X00347051Y00143749*
X00352050*
X00354549Y00141250*
X00368399Y00047250D02*
X00365900Y00049749D01*
X00360901*
X00358402Y00047250*
Y00037253*
X00360901Y00034754*
X00365900*
X00368399Y00037253*
Y00039752*
X00365900Y00042251*
X00358402*
X00441502Y00034754D02*
X00446501Y00037253D01*
X00451499Y00042251*
Y00047250*
X00449000Y00049749*
X00444001*
X00441502Y00047250*
Y00044751*
X00444001Y00042251*
X00451499*
M02*