%FSLAX25Y25*%
%MOIN*%
G70*
G01*
G75*
G04 Layer_Color=65535*
%ADD10R,0.05906X0.05906*%
%ADD11C,0.05906*%
%ADD12C,0.03937*%
%ADD13C,0.19685*%
%ADD14C,0.01000*%
%ADD15C,0.00787*%
G36*
X370113Y391001D02*
Y390770D01*
X363138Y387795D01*
Y388787D01*
X368026Y390874D01*
X363138Y392949D01*
Y393952D01*
X370113Y391001D01*
D02*
G37*
G36*
X367215Y355458D02*
X367353D01*
X367526Y355435D01*
X367711Y355412D01*
X367918Y355378D01*
X368114Y355332D01*
X368137D01*
X368172Y355320D01*
X368207Y355309D01*
X368322Y355274D01*
X368483Y355228D01*
X368679Y355159D01*
X368898Y355089D01*
X369164Y354986D01*
X369452Y354871D01*
Y353856D01*
X369440Y353867D01*
X369394Y353890D01*
X369325Y353925D01*
X369244Y353971D01*
X369129Y354029D01*
X368991Y354086D01*
X368841Y354156D01*
X368679Y354225D01*
X368495Y354282D01*
X368299Y354352D01*
X367884Y354467D01*
X367665Y354513D01*
X367446Y354548D01*
X367215Y354571D01*
X366984Y354582D01*
X366869D01*
X366800Y354571D01*
X366696Y354559D01*
X366581Y354536D01*
X366454Y354513D01*
X366316Y354490D01*
X366016Y354386D01*
X365855Y354329D01*
X365693Y354248D01*
X365532Y354167D01*
X365370Y354052D01*
X365209Y353937D01*
X365059Y353798D01*
X365047Y353787D01*
X365024Y353764D01*
X364990Y353717D01*
X364944Y353660D01*
X364874Y353591D01*
X364817Y353498D01*
X364748Y353395D01*
X364678Y353268D01*
X364598Y353141D01*
X364528Y352991D01*
X364471Y352841D01*
X364413Y352668D01*
X364356Y352495D01*
X364321Y352299D01*
X364298Y352103D01*
X364286Y351896D01*
Y351884D01*
Y351838D01*
Y351780D01*
X364298Y351700D01*
X364309Y351596D01*
X364333Y351481D01*
X364356Y351354D01*
X364379Y351204D01*
X364471Y350904D01*
X364540Y350743D01*
X364609Y350581D01*
X364702Y350420D01*
X364805Y350258D01*
X364920Y350109D01*
X365059Y349959D01*
X365070Y349947D01*
X365093Y349924D01*
X365140Y349889D01*
X365197Y349843D01*
X365278Y349786D01*
X365370Y349717D01*
X365486Y349659D01*
X365601Y349590D01*
X365739Y349509D01*
X365901Y349451D01*
X366062Y349382D01*
X366247Y349324D01*
X366431Y349278D01*
X366638Y349244D01*
X366846Y349221D01*
X367077Y349209D01*
X367180D01*
X367238Y349221D01*
X367307D01*
X367480Y349244D01*
X367676Y349278D01*
X367918Y349324D01*
X368195Y349382D01*
X368495Y349474D01*
X368599Y349509D01*
Y350962D01*
X367261D01*
Y351850D01*
X369590D01*
Y348898D01*
X369579Y348886D01*
X369532Y348875D01*
X369463Y348852D01*
X369371Y348817D01*
X369256Y348771D01*
X369117Y348725D01*
X368956Y348679D01*
X368783Y348621D01*
X368599Y348575D01*
X368403Y348517D01*
X367976Y348437D01*
X367515Y348368D01*
X367273Y348356D01*
X367042Y348344D01*
X366961D01*
X366881Y348356D01*
X366754D01*
X366615Y348379D01*
X366442Y348402D01*
X366258Y348425D01*
X366051Y348471D01*
X365831Y348529D01*
X365612Y348587D01*
X365382Y348667D01*
X365151Y348771D01*
X364920Y348886D01*
X364702Y349013D01*
X364482Y349175D01*
X364286Y349348D01*
X364275Y349359D01*
X364240Y349394D01*
X364194Y349451D01*
X364125Y349532D01*
X364044Y349624D01*
X363964Y349740D01*
X363871Y349878D01*
X363779Y350039D01*
X363675Y350212D01*
X363583Y350397D01*
X363502Y350604D01*
X363422Y350823D01*
X363352Y351054D01*
X363306Y351308D01*
X363272Y351561D01*
X363260Y351838D01*
Y351861D01*
Y351907D01*
X363272Y351988D01*
Y352103D01*
X363295Y352230D01*
X363318Y352380D01*
X363352Y352553D01*
X363399Y352749D01*
X363445Y352945D01*
X363514Y353152D01*
X363606Y353372D01*
X363710Y353591D01*
X363825Y353810D01*
X363975Y354029D01*
X364137Y354236D01*
X364321Y354432D01*
X364333Y354444D01*
X364367Y354479D01*
X364436Y354525D01*
X364517Y354594D01*
X364621Y354675D01*
X364748Y354767D01*
X364886Y354859D01*
X365059Y354951D01*
X365243Y355043D01*
X365451Y355147D01*
X365670Y355228D01*
X365901Y355309D01*
X366154Y355378D01*
X366419Y355424D01*
X366708Y355458D01*
X366996Y355470D01*
X367100D01*
X367215Y355458D01*
D02*
G37*
G36*
X360631Y355355D02*
X360724D01*
X360816Y355343D01*
X361035Y355297D01*
X361289Y355239D01*
X361554Y355136D01*
X361819Y355009D01*
X361934Y354917D01*
X362050Y354824D01*
X362061Y354813D01*
X362073Y354801D01*
X362107Y354767D01*
X362142Y354732D01*
X362188Y354675D01*
X362234Y354605D01*
X362349Y354444D01*
X362465Y354236D01*
X362557Y353994D01*
X362626Y353706D01*
X362638Y353544D01*
X362649Y353383D01*
Y353372D01*
Y353360D01*
Y353326D01*
Y353279D01*
X362638Y353164D01*
X362614Y353026D01*
X362568Y352853D01*
X362522Y352680D01*
X362442Y352495D01*
X362338Y352311D01*
X362326Y352288D01*
X362280Y352242D01*
X362211Y352149D01*
X362119Y352057D01*
X362003Y351942D01*
X361865Y351838D01*
X361692Y351734D01*
X361508Y351642D01*
X361485Y351630D01*
X361450Y351619D01*
X361415Y351607D01*
X361358Y351596D01*
X361289Y351573D01*
X361219Y351561D01*
X361127Y351538D01*
X361023Y351515D01*
X360908Y351504D01*
X360654Y351469D01*
X360343Y351446D01*
X359997Y351434D01*
X359271D01*
Y348425D01*
X358268D01*
Y355366D01*
X360562D01*
X360631Y355355D01*
D02*
G37*
G36*
X369883Y408007D02*
X369917Y407938D01*
X369963Y407834D01*
X370010Y407685D01*
X370067Y407523D01*
X370113Y407327D01*
X370148Y407120D01*
X370160Y406889D01*
Y406877D01*
Y406866D01*
Y406831D01*
X370148Y406785D01*
X370136Y406670D01*
X370113Y406531D01*
X370067Y406359D01*
X370010Y406186D01*
X369917Y406013D01*
X369802Y405851D01*
X369779Y405828D01*
X369733Y405782D01*
X369652Y405701D01*
X369560Y405632D01*
X369548D01*
X369537Y405621D01*
X369502Y405609D01*
X369468Y405586D01*
X369352Y405540D01*
X369202Y405494D01*
X369191D01*
X369156Y405482D01*
X369099D01*
X369006Y405471D01*
X368891Y405459D01*
X368741D01*
X368568Y405448D01*
X366320D01*
Y404652D01*
X366239D01*
X364556Y406347D01*
X365501D01*
Y407800D01*
X366320D01*
Y406347D01*
X368637D01*
X368684Y406359D01*
X368810Y406382D01*
X368949Y406428D01*
X369099Y406508D01*
X369214Y406624D01*
X369272Y406693D01*
X369306Y406785D01*
X369329Y406877D01*
X369341Y406993D01*
Y407016D01*
Y407073D01*
X369329Y407177D01*
X369306Y407304D01*
X369260Y407454D01*
X369214Y407638D01*
X369133Y407823D01*
X369029Y408030D01*
X369871D01*
X369883Y408007D01*
D02*
G37*
G36*
X370079Y403130D02*
X369491D01*
X369502Y403119D01*
X369548Y403073D01*
X369606Y403015D01*
X369675Y402934D01*
X369756Y402830D01*
X369837Y402727D01*
X369917Y402600D01*
X369987Y402461D01*
X369998Y402450D01*
X370010Y402404D01*
X370044Y402323D01*
X370067Y402231D01*
X370102Y402115D01*
X370136Y402000D01*
X370148Y401862D01*
X370160Y401723D01*
Y401700D01*
Y401654D01*
X370148Y401562D01*
X370136Y401458D01*
X370113Y401332D01*
X370067Y401193D01*
X370021Y401055D01*
X369952Y400916D01*
X369940Y400905D01*
X369906Y400859D01*
X369860Y400790D01*
X369791Y400709D01*
X369710Y400617D01*
X369606Y400524D01*
X369491Y400444D01*
X369364Y400363D01*
X369341Y400351D01*
X369295Y400340D01*
X369202Y400305D01*
X369076Y400271D01*
X368903Y400236D01*
X368684Y400213D01*
X368430Y400190D01*
X368292Y400178D01*
X365501D01*
Y401078D01*
X368234D01*
X368361Y401089D01*
X368511Y401101D01*
X368672Y401124D01*
X368845Y401170D01*
X368995Y401216D01*
X369122Y401285D01*
X369133Y401297D01*
X369168Y401332D01*
X369214Y401378D01*
X369260Y401458D01*
X369306Y401551D01*
X369352Y401677D01*
X369387Y401827D01*
X369398Y402012D01*
Y402023D01*
Y402046D01*
Y402081D01*
X369387Y402127D01*
X369364Y402242D01*
X369318Y402404D01*
X369249Y402577D01*
X369133Y402761D01*
X369064Y402853D01*
X368983Y402946D01*
X368880Y403038D01*
X368776Y403130D01*
X365501D01*
Y404030D01*
X370079D01*
Y403130D01*
D02*
G37*
G36*
X368026Y399187D02*
X368119Y399175D01*
X368211Y399164D01*
X368326Y399141D01*
X368442Y399106D01*
X368707Y399026D01*
X368845Y398968D01*
X368983Y398899D01*
X369122Y398818D01*
X369249Y398726D01*
X369387Y398622D01*
X369514Y398495D01*
X369525Y398484D01*
X369537Y398461D01*
X369571Y398426D01*
X369618Y398368D01*
X369664Y398299D01*
X369721Y398218D01*
X369779Y398126D01*
X369837Y398011D01*
X369894Y397884D01*
X369952Y397757D01*
X370056Y397457D01*
X370136Y397112D01*
X370148Y396927D01*
X370160Y396731D01*
Y396720D01*
Y396685D01*
Y396627D01*
X370148Y396558D01*
X370136Y396466D01*
X370125Y396362D01*
X370102Y396247D01*
X370079Y396131D01*
X369998Y395855D01*
X369940Y395705D01*
X369883Y395567D01*
X369802Y395417D01*
X369721Y395278D01*
X369618Y395140D01*
X369502Y395002D01*
X369491Y394990D01*
X369468Y394967D01*
X369433Y394944D01*
X369387Y394898D01*
X369318Y394840D01*
X369237Y394782D01*
X369145Y394725D01*
X369041Y394667D01*
X368926Y394598D01*
X368799Y394540D01*
X368522Y394425D01*
X368361Y394379D01*
X368199Y394356D01*
X368026Y394333D01*
X367842Y394321D01*
X367750D01*
X367669Y394333D01*
X367588Y394344D01*
X367484Y394356D01*
X367381Y394379D01*
X367254Y394413D01*
X366989Y394494D01*
X366850Y394552D01*
X366712Y394609D01*
X366574Y394690D01*
X366435Y394782D01*
X366297Y394886D01*
X366170Y395013D01*
X366159Y395025D01*
X366136Y395048D01*
X366112Y395082D01*
X366066Y395140D01*
X366009Y395209D01*
X365951Y395290D01*
X365893Y395382D01*
X365824Y395497D01*
X365767Y395613D01*
X365709Y395751D01*
X365594Y396051D01*
X365547Y396212D01*
X365524Y396385D01*
X365501Y396570D01*
X365490Y396766D01*
Y396777D01*
Y396812D01*
Y396869D01*
X365501Y396939D01*
X365513Y397031D01*
X365524Y397135D01*
X365547Y397250D01*
X365570Y397377D01*
X365651Y397653D01*
X365709Y397792D01*
X365778Y397942D01*
X365859Y398092D01*
X365939Y398230D01*
X366055Y398368D01*
X366170Y398507D01*
X366182Y398518D01*
X366205Y398541D01*
X366239Y398576D01*
X366297Y398610D01*
X366355Y398668D01*
X366435Y398726D01*
X366528Y398783D01*
X366631Y398853D01*
X366758Y398922D01*
X366885Y398979D01*
X367173Y399095D01*
X367335Y399129D01*
X367496Y399164D01*
X367681Y399187D01*
X367865Y399199D01*
X367957D01*
X368026Y399187D01*
D02*
G37*
G36*
X362094Y358268D02*
X361230D01*
X356606Y363606D01*
Y358268D01*
X355672D01*
Y365209D01*
X356468D01*
X361149Y359813D01*
Y365209D01*
X362094D01*
Y358268D01*
D02*
G37*
G36*
X369821Y368110D02*
X368956D01*
X364333Y373449D01*
Y368110D01*
X363399D01*
Y375051D01*
X364194D01*
X368875Y369655D01*
Y375051D01*
X369821D01*
Y368110D01*
D02*
G37*
G36*
X362211Y374164D02*
X359259D01*
Y372042D01*
X362107D01*
Y371154D01*
X359259D01*
Y368998D01*
X362303D01*
Y368110D01*
X358268D01*
Y375051D01*
X362211D01*
Y374164D01*
D02*
G37*
G36*
X346679Y365301D02*
X346760D01*
X346840Y365289D01*
X347059Y365255D01*
X347302Y365197D01*
X347578Y365105D01*
X347855Y364978D01*
X347993Y364909D01*
X348132Y364817D01*
Y363687D01*
X348120Y363698D01*
X348097Y363721D01*
X348051Y363756D01*
X348005Y363802D01*
X347924Y363860D01*
X347843Y363917D01*
X347751Y363987D01*
X347647Y364056D01*
X347405Y364183D01*
X347129Y364298D01*
X346979Y364344D01*
X346829Y364379D01*
X346667Y364402D01*
X346506Y364413D01*
X346425D01*
X346333Y364402D01*
X346229Y364390D01*
X346102Y364356D01*
X345964Y364321D01*
X345837Y364263D01*
X345710Y364183D01*
X345699Y364171D01*
X345664Y364148D01*
X345607Y364090D01*
X345561Y364033D01*
X345503Y363941D01*
X345445Y363848D01*
X345411Y363733D01*
X345399Y363606D01*
Y363595D01*
Y363548D01*
X345411Y363491D01*
X345434Y363422D01*
X345457Y363329D01*
X345491Y363226D01*
X345549Y363122D01*
X345630Y363018D01*
X345641Y363007D01*
X345676Y362972D01*
X345733Y362914D01*
X345814Y362845D01*
X345918Y362764D01*
X346045Y362672D01*
X346195Y362568D01*
X346379Y362453D01*
X347129Y362003D01*
X347140Y361992D01*
X347186Y361969D01*
X347244Y361923D01*
X347325Y361865D01*
X347428Y361796D01*
X347532Y361704D01*
X347647Y361600D01*
X347774Y361473D01*
X347889Y361346D01*
X348005Y361196D01*
X348109Y361035D01*
X348212Y360862D01*
X348293Y360678D01*
X348351Y360493D01*
X348397Y360285D01*
X348408Y360066D01*
Y360055D01*
Y360032D01*
Y359986D01*
X348397Y359928D01*
Y359859D01*
X348374Y359778D01*
X348339Y359582D01*
X348270Y359363D01*
X348166Y359133D01*
X348109Y359029D01*
X348028Y358913D01*
X347947Y358810D01*
X347843Y358706D01*
X347832D01*
X347820Y358683D01*
X347786Y358660D01*
X347740Y358625D01*
X347693Y358591D01*
X347624Y358544D01*
X347451Y358452D01*
X347244Y358348D01*
X347002Y358268D01*
X346713Y358210D01*
X346552Y358198D01*
X346391Y358187D01*
X346287D01*
X346218Y358198D01*
X346126Y358210D01*
X346022Y358222D01*
X345906Y358245D01*
X345768Y358268D01*
X345480Y358337D01*
X345168Y358452D01*
X345007Y358521D01*
X344846Y358602D01*
X344684Y358706D01*
X344523Y358810D01*
Y360078D01*
X344534Y360066D01*
X344557Y360032D01*
X344603Y359986D01*
X344661Y359916D01*
X344742Y359847D01*
X344834Y359755D01*
X344938Y359663D01*
X345053Y359571D01*
X345180Y359478D01*
X345330Y359386D01*
X345480Y359294D01*
X345641Y359225D01*
X345814Y359156D01*
X345999Y359109D01*
X346183Y359075D01*
X346379Y359063D01*
X346460D01*
X346540Y359075D01*
X346656Y359098D01*
X346783Y359121D01*
X346909Y359167D01*
X347036Y359236D01*
X347163Y359317D01*
X347175Y359329D01*
X347209Y359363D01*
X347267Y359421D01*
X347325Y359501D01*
X347371Y359594D01*
X347428Y359709D01*
X347463Y359836D01*
X347475Y359974D01*
Y359986D01*
Y359997D01*
Y360032D01*
X347463Y360078D01*
X347428Y360205D01*
X347359Y360366D01*
X347313Y360447D01*
X347255Y360551D01*
X347175Y360643D01*
X347082Y360747D01*
X346979Y360850D01*
X346852Y360954D01*
X346713Y361069D01*
X346552Y361173D01*
X345791Y361634D01*
X345780D01*
X345757Y361658D01*
X345722Y361681D01*
X345676Y361715D01*
X345549Y361796D01*
X345399Y361911D01*
X345238Y362038D01*
X345076Y362176D01*
X344915Y362338D01*
X344788Y362488D01*
X344776Y362511D01*
X344742Y362568D01*
X344696Y362649D01*
X344638Y362764D01*
X344580Y362914D01*
X344534Y363076D01*
X344500Y363260D01*
X344488Y363456D01*
Y363468D01*
Y363491D01*
Y363537D01*
X344500Y363595D01*
X344511Y363664D01*
X344523Y363744D01*
X344557Y363941D01*
X344626Y364148D01*
X344730Y364367D01*
X344788Y364482D01*
X344869Y364586D01*
X344949Y364690D01*
X345053Y364794D01*
X345065Y364805D01*
X345076Y364817D01*
X345111Y364840D01*
X345157Y364874D01*
X345215Y364909D01*
X345284Y364955D01*
X345445Y365059D01*
X345664Y365151D01*
X345918Y365232D01*
X346206Y365289D01*
X346368Y365313D01*
X346610D01*
X346679Y365301D01*
D02*
G37*
G36*
X367260D02*
X367364D01*
X367479Y365278D01*
X367617Y365266D01*
X367779Y365243D01*
X367952Y365209D01*
X368136Y365174D01*
X368344Y365128D01*
X368551Y365070D01*
X368770Y365013D01*
X369012Y364932D01*
X369255Y364851D01*
X369497Y364748D01*
Y363675D01*
X369485Y363687D01*
X369439Y363710D01*
X369381Y363744D01*
X369289Y363779D01*
X369174Y363837D01*
X369047Y363894D01*
X368897Y363952D01*
X368736Y364021D01*
X368563Y364090D01*
X368378Y364148D01*
X367975Y364263D01*
X367767Y364298D01*
X367548Y364333D01*
X367329Y364356D01*
X367110Y364367D01*
X366995D01*
X366914Y364356D01*
X366810Y364344D01*
X366695Y364333D01*
X366557Y364309D01*
X366418Y364275D01*
X366095Y364183D01*
X365934Y364125D01*
X365773Y364044D01*
X365600Y363964D01*
X365438Y363860D01*
X365277Y363744D01*
X365127Y363606D01*
X365115Y363595D01*
X365092Y363572D01*
X365058Y363525D01*
X365000Y363468D01*
X364942Y363399D01*
X364885Y363306D01*
X364804Y363203D01*
X364735Y363087D01*
X364666Y362960D01*
X364597Y362810D01*
X364527Y362661D01*
X364470Y362488D01*
X364412Y362315D01*
X364377Y362130D01*
X364354Y361923D01*
X364343Y361715D01*
Y361704D01*
Y361669D01*
Y361600D01*
X364354Y361519D01*
X364366Y361427D01*
X364389Y361312D01*
X364412Y361185D01*
X364435Y361047D01*
X364527Y360747D01*
X364597Y360585D01*
X364666Y360435D01*
X364758Y360274D01*
X364862Y360113D01*
X364977Y359963D01*
X365115Y359824D01*
X365127Y359813D01*
X365150Y359790D01*
X365196Y359755D01*
X365254Y359709D01*
X365334Y359651D01*
X365427Y359594D01*
X365530Y359524D01*
X365657Y359467D01*
X365784Y359398D01*
X365934Y359329D01*
X366107Y359271D01*
X366280Y359213D01*
X366464Y359167D01*
X366660Y359133D01*
X366879Y359109D01*
X367098Y359098D01*
X367225D01*
X367318Y359109D01*
X367433Y359121D01*
X367560Y359144D01*
X367710Y359167D01*
X367883Y359190D01*
X368056Y359236D01*
X368251Y359282D01*
X368459Y359351D01*
X368667Y359421D01*
X368886Y359513D01*
X369116Y359617D01*
X369335Y359732D01*
X369566Y359870D01*
Y358775D01*
X369554Y358764D01*
X369520Y358752D01*
X369451Y358717D01*
X369370Y358683D01*
X369266Y358637D01*
X369139Y358591D01*
X369001Y358533D01*
X368840Y358487D01*
X368667Y358429D01*
X368471Y358371D01*
X368263Y358325D01*
X368044Y358279D01*
X367802Y358245D01*
X367560Y358210D01*
X367306Y358198D01*
X367041Y358187D01*
X366926D01*
X366845Y358198D01*
X366741D01*
X366626Y358210D01*
X366499Y358222D01*
X366361Y358245D01*
X366049Y358302D01*
X365715Y358383D01*
X365381Y358498D01*
X365058Y358648D01*
X365046Y358660D01*
X365023Y358671D01*
X364977Y358694D01*
X364919Y358740D01*
X364862Y358787D01*
X364781Y358844D01*
X364597Y358983D01*
X364389Y359167D01*
X364181Y359398D01*
X363974Y359651D01*
X363778Y359940D01*
Y359951D01*
X363755Y359974D01*
X363732Y360020D01*
X363709Y360078D01*
X363674Y360159D01*
X363628Y360251D01*
X363593Y360355D01*
X363547Y360470D01*
X363467Y360735D01*
X363386Y361035D01*
X363340Y361369D01*
X363317Y361715D01*
Y361738D01*
Y361784D01*
X363328Y361865D01*
Y361969D01*
X363351Y362096D01*
X363374Y362257D01*
X363409Y362419D01*
X363455Y362603D01*
X363513Y362799D01*
X363582Y363007D01*
X363663Y363226D01*
X363766Y363433D01*
X363893Y363652D01*
X364032Y363871D01*
X364205Y364079D01*
X364389Y364275D01*
X364401Y364286D01*
X364435Y364321D01*
X364504Y364367D01*
X364585Y364436D01*
X364689Y364517D01*
X364816Y364609D01*
X364966Y364702D01*
X365127Y364794D01*
X365311Y364886D01*
X365519Y364990D01*
X365738Y365070D01*
X365980Y365151D01*
X366222Y365220D01*
X366487Y365266D01*
X366776Y365301D01*
X367064Y365313D01*
X367179D01*
X367260Y365301D01*
D02*
G37*
G36*
X352306Y361934D02*
Y358268D01*
X351291D01*
Y361934D01*
X348731Y365209D01*
X349930D01*
X351775Y362810D01*
X353655Y365209D01*
X354877D01*
X352306Y361934D01*
D02*
G37*
G36*
X220498Y379830D02*
X220544Y379819D01*
X220671Y379772D01*
X220740Y379738D01*
X220797Y379680D01*
X220809Y379669D01*
X220820Y379657D01*
X220844Y379622D01*
X220867Y379576D01*
X220924Y379450D01*
X220936Y379369D01*
X220947Y379288D01*
Y379276D01*
Y379254D01*
X220936Y379219D01*
X220924Y379161D01*
X220878Y379046D01*
X220844Y378977D01*
X220786Y378919D01*
X220774Y378908D01*
X220751Y378896D01*
X220728Y378873D01*
X220682Y378850D01*
X220567Y378792D01*
X220498Y378781D01*
X220417Y378769D01*
X220382D01*
X220348Y378781D01*
X220290Y378792D01*
X220175Y378838D01*
X220106Y378873D01*
X220048Y378919D01*
X220037Y378931D01*
X220025Y378954D01*
X219990Y378977D01*
X219956Y379023D01*
X219898Y379138D01*
X219887Y379207D01*
X219875Y379288D01*
Y379300D01*
Y379323D01*
X219887Y379369D01*
X219898Y379426D01*
X219944Y379553D01*
X219979Y379622D01*
X220037Y379680D01*
X220048Y379692D01*
X220059Y379703D01*
X220094Y379726D01*
X220140Y379761D01*
X220255Y379819D01*
X220336Y379830D01*
X220417Y379841D01*
X220451D01*
X220498Y379830D01*
D02*
G37*
G36*
X226378Y420855D02*
X221040Y416232D01*
X226378D01*
Y415298D01*
X219437D01*
Y416093D01*
X224833Y420774D01*
X219437D01*
Y421720D01*
X226378D01*
Y420855D01*
D02*
G37*
G36*
Y378850D02*
X221800D01*
Y379749D01*
X226378D01*
Y378850D01*
D02*
G37*
G36*
X225917Y413799D02*
X225928Y413753D01*
X225951Y413683D01*
X225986Y413591D01*
X226032Y413476D01*
X226078Y413338D01*
X226124Y413176D01*
X226182Y413003D01*
X226228Y412819D01*
X226286Y412623D01*
X226366Y412196D01*
X226436Y411735D01*
X226447Y411493D01*
X226459Y411262D01*
Y411239D01*
Y411181D01*
X226447Y411101D01*
Y410974D01*
X226424Y410836D01*
X226401Y410663D01*
X226378Y410478D01*
X226332Y410271D01*
X226274Y410051D01*
X226217Y409832D01*
X226136Y409602D01*
X226032Y409371D01*
X225917Y409141D01*
X225790Y408922D01*
X225628Y408703D01*
X225455Y408506D01*
X225444Y408495D01*
X225409Y408460D01*
X225352Y408414D01*
X225271Y408345D01*
X225179Y408264D01*
X225063Y408184D01*
X224925Y408091D01*
X224764Y407999D01*
X224591Y407895D01*
X224406Y407803D01*
X224199Y407722D01*
X223980Y407642D01*
X223749Y407573D01*
X223495Y407526D01*
X223242Y407492D01*
X222965Y407480D01*
X222896D01*
X222815Y407492D01*
X222700D01*
X222573Y407515D01*
X222423Y407538D01*
X222250Y407573D01*
X222054Y407619D01*
X221858Y407665D01*
X221651Y407734D01*
X221432Y407826D01*
X221213Y407930D01*
X220993Y408045D01*
X220774Y408195D01*
X220567Y408357D01*
X220371Y408541D01*
X220359Y408553D01*
X220325Y408587D01*
X220279Y408656D01*
X220209Y408737D01*
X220129Y408841D01*
X220037Y408968D01*
X219944Y409106D01*
X219852Y409279D01*
X219760Y409464D01*
X219656Y409671D01*
X219575Y409890D01*
X219495Y410121D01*
X219425Y410374D01*
X219379Y410639D01*
X219345Y410928D01*
X219333Y411216D01*
Y411228D01*
Y411239D01*
Y411274D01*
Y411320D01*
X219345Y411435D01*
Y411574D01*
X219368Y411746D01*
X219391Y411931D01*
X219425Y412138D01*
X219472Y412334D01*
Y412346D01*
Y412358D01*
X219483Y412392D01*
X219495Y412427D01*
X219529Y412542D01*
X219575Y412703D01*
X219644Y412899D01*
X219714Y413119D01*
X219817Y413384D01*
X219933Y413672D01*
X220947D01*
X220936Y413660D01*
X220913Y413614D01*
X220878Y413545D01*
X220832Y413464D01*
X220774Y413349D01*
X220717Y413211D01*
X220648Y413061D01*
X220578Y412899D01*
X220521Y412715D01*
X220451Y412519D01*
X220336Y412104D01*
X220290Y411885D01*
X220255Y411666D01*
X220233Y411435D01*
X220221Y411204D01*
Y411193D01*
Y411158D01*
Y411089D01*
X220233Y411020D01*
X220244Y410916D01*
X220267Y410801D01*
X220290Y410674D01*
X220313Y410536D01*
X220417Y410236D01*
X220475Y410075D01*
X220555Y409913D01*
X220636Y409752D01*
X220751Y409590D01*
X220867Y409429D01*
X221005Y409279D01*
X221017Y409268D01*
X221040Y409244D01*
X221086Y409210D01*
X221143Y409164D01*
X221213Y409094D01*
X221305Y409037D01*
X221409Y408968D01*
X221535Y408898D01*
X221662Y408818D01*
X221812Y408749D01*
X221962Y408691D01*
X222135Y408633D01*
X222308Y408576D01*
X222504Y408541D01*
X222700Y408518D01*
X222907Y408506D01*
X223023D01*
X223103Y408518D01*
X223207Y408530D01*
X223323Y408553D01*
X223449Y408576D01*
X223599Y408599D01*
X223899Y408691D01*
X224060Y408760D01*
X224222Y408829D01*
X224383Y408922D01*
X224545Y409025D01*
X224695Y409141D01*
X224845Y409279D01*
X224856Y409291D01*
X224879Y409314D01*
X224914Y409360D01*
X224960Y409417D01*
X225017Y409498D01*
X225087Y409590D01*
X225144Y409706D01*
X225213Y409821D01*
X225294Y409959D01*
X225352Y410121D01*
X225421Y410282D01*
X225479Y410467D01*
X225525Y410651D01*
X225559Y410859D01*
X225582Y411066D01*
X225594Y411297D01*
Y411308D01*
Y411320D01*
Y411354D01*
Y411401D01*
X225582Y411458D01*
Y411527D01*
X225559Y411700D01*
X225525Y411896D01*
X225479Y412138D01*
X225421Y412415D01*
X225329Y412715D01*
X225294Y412819D01*
X223841D01*
Y411481D01*
X222954D01*
Y413810D01*
X225905D01*
X225917Y413799D01*
D02*
G37*
G36*
X226378Y384004D02*
X223668D01*
X223553Y383992D01*
X223403Y383981D01*
X223242Y383946D01*
X223069Y383912D01*
X222919Y383854D01*
X222792Y383785D01*
X222781Y383773D01*
X222746Y383739D01*
X222688Y383693D01*
X222631Y383612D01*
X222585Y383508D01*
X222527Y383381D01*
X222492Y383231D01*
X222481Y383058D01*
Y383047D01*
Y383035D01*
Y383001D01*
X222492Y382955D01*
X222515Y382839D01*
X222562Y382689D01*
X222642Y382517D01*
X222758Y382332D01*
X222827Y382240D01*
X222907Y382148D01*
X223011Y382067D01*
X223127Y381975D01*
X226378D01*
Y381052D01*
X221800D01*
Y381975D01*
X222400D01*
X222389Y381986D01*
X222365Y381998D01*
X222342Y382032D01*
X222296Y382078D01*
X222239Y382136D01*
X222181Y382205D01*
X222054Y382367D01*
X221939Y382574D01*
X221824Y382805D01*
X221778Y382932D01*
X221754Y383070D01*
X221731Y383208D01*
X221720Y383347D01*
Y383370D01*
Y383416D01*
X221731Y383496D01*
X221743Y383612D01*
X221778Y383727D01*
X221812Y383865D01*
X221870Y384004D01*
X221950Y384142D01*
X221962Y384154D01*
X221985Y384200D01*
X222043Y384269D01*
X222112Y384350D01*
X222193Y384442D01*
X222296Y384534D01*
X222423Y384627D01*
X222562Y384707D01*
X222585Y384719D01*
X222631Y384742D01*
X222723Y384765D01*
X222850Y384811D01*
X223023Y384845D01*
X223230Y384869D01*
X223484Y384892D01*
X223772Y384903D01*
X226378D01*
Y384004D01*
D02*
G37*
G36*
X226413Y375253D02*
Y375022D01*
X219437Y372047D01*
Y373039D01*
X224326Y375126D01*
X219437Y377201D01*
Y378204D01*
X226413Y375253D01*
D02*
G37*
G36*
X369618Y427578D02*
X369629Y427532D01*
X369652Y427463D01*
X369687Y427371D01*
X369733Y427255D01*
X369779Y427117D01*
X369825Y426956D01*
X369883Y426783D01*
X369929Y426598D01*
X369987Y426402D01*
X370067Y425976D01*
X370136Y425514D01*
X370148Y425272D01*
X370160Y425042D01*
Y425019D01*
Y424961D01*
X370148Y424880D01*
Y424753D01*
X370125Y424615D01*
X370102Y424442D01*
X370079Y424258D01*
X370033Y424050D01*
X369975Y423831D01*
X369917Y423612D01*
X369837Y423381D01*
X369733Y423151D01*
X369618Y422920D01*
X369491Y422701D01*
X369329Y422482D01*
X369156Y422286D01*
X369145Y422274D01*
X369110Y422240D01*
X369053Y422194D01*
X368972Y422125D01*
X368880Y422044D01*
X368764Y421963D01*
X368626Y421871D01*
X368464Y421779D01*
X368292Y421675D01*
X368107Y421583D01*
X367900Y421502D01*
X367681Y421421D01*
X367450Y421352D01*
X367196Y421306D01*
X366943Y421271D01*
X366666Y421260D01*
X366597D01*
X366516Y421271D01*
X366401D01*
X366274Y421294D01*
X366124Y421317D01*
X365951Y421352D01*
X365755Y421398D01*
X365559Y421444D01*
X365351Y421514D01*
X365132Y421606D01*
X364913Y421709D01*
X364694Y421825D01*
X364475Y421975D01*
X364268Y422136D01*
X364072Y422321D01*
X364060Y422332D01*
X364025Y422367D01*
X363979Y422436D01*
X363910Y422517D01*
X363829Y422620D01*
X363737Y422747D01*
X363645Y422886D01*
X363553Y423059D01*
X363460Y423243D01*
X363357Y423451D01*
X363276Y423670D01*
X363195Y423900D01*
X363126Y424154D01*
X363080Y424419D01*
X363045Y424707D01*
X363034Y424996D01*
Y425007D01*
Y425019D01*
Y425053D01*
Y425099D01*
X363045Y425215D01*
Y425353D01*
X363069Y425526D01*
X363092Y425710D01*
X363126Y425918D01*
X363172Y426114D01*
Y426125D01*
Y426137D01*
X363184Y426172D01*
X363195Y426206D01*
X363230Y426322D01*
X363276Y426483D01*
X363345Y426679D01*
X363414Y426898D01*
X363518Y427163D01*
X363633Y427452D01*
X364648D01*
X364637Y427440D01*
X364614Y427394D01*
X364579Y427325D01*
X364533Y427244D01*
X364475Y427129D01*
X364418Y426990D01*
X364348Y426840D01*
X364279Y426679D01*
X364222Y426495D01*
X364152Y426298D01*
X364037Y425883D01*
X363991Y425664D01*
X363956Y425445D01*
X363933Y425215D01*
X363922Y424984D01*
Y424972D01*
Y424938D01*
Y424869D01*
X363933Y424799D01*
X363945Y424696D01*
X363968Y424580D01*
X363991Y424454D01*
X364014Y424315D01*
X364118Y424016D01*
X364175Y423854D01*
X364256Y423693D01*
X364337Y423531D01*
X364452Y423370D01*
X364567Y423208D01*
X364706Y423059D01*
X364717Y423047D01*
X364740Y423024D01*
X364787Y422989D01*
X364844Y422943D01*
X364913Y422874D01*
X365005Y422816D01*
X365109Y422747D01*
X365236Y422678D01*
X365363Y422597D01*
X365513Y422528D01*
X365663Y422471D01*
X365836Y422413D01*
X366009Y422355D01*
X366205Y422321D01*
X366401Y422297D01*
X366608Y422286D01*
X366723D01*
X366804Y422297D01*
X366908Y422309D01*
X367023Y422332D01*
X367150Y422355D01*
X367300Y422378D01*
X367600Y422471D01*
X367761Y422540D01*
X367923Y422609D01*
X368084Y422701D01*
X368246Y422805D01*
X368395Y422920D01*
X368545Y423059D01*
X368557Y423070D01*
X368580Y423093D01*
X368614Y423139D01*
X368661Y423197D01*
X368718Y423278D01*
X368787Y423370D01*
X368845Y423485D01*
X368914Y423600D01*
X368995Y423739D01*
X369053Y423900D01*
X369122Y424062D01*
X369179Y424246D01*
X369226Y424431D01*
X369260Y424638D01*
X369283Y424846D01*
X369295Y425076D01*
Y425088D01*
Y425099D01*
Y425134D01*
Y425180D01*
X369283Y425238D01*
Y425307D01*
X369260Y425480D01*
X369226Y425676D01*
X369179Y425918D01*
X369122Y426195D01*
X369029Y426495D01*
X368995Y426598D01*
X367542D01*
Y425261D01*
X366654D01*
Y427590D01*
X369606D01*
X369618Y427578D01*
D02*
G37*
G36*
X370079Y434635D02*
X364740Y430011D01*
X370079D01*
Y429077D01*
X363138D01*
Y429873D01*
X368534Y434554D01*
X363138D01*
Y435499D01*
X370079D01*
Y434635D01*
D02*
G37*
G36*
X223103Y429595D02*
X223173D01*
X223346Y429572D01*
X223553Y429537D01*
X223784Y429491D01*
X224014Y429422D01*
X224256Y429330D01*
X224268D01*
X224279Y429318D01*
X224314Y429307D01*
X224360Y429284D01*
X224487Y429214D01*
X224637Y429134D01*
X224810Y429030D01*
X224994Y428892D01*
X225190Y428742D01*
X225375Y428569D01*
X225398Y428546D01*
X225455Y428476D01*
X225548Y428373D01*
X225652Y428234D01*
X225778Y428061D01*
X225905Y427854D01*
X226021Y427623D01*
X226124Y427381D01*
X226136Y427370D01*
X226147Y427312D01*
X226170Y427243D01*
X226205Y427139D01*
X226240Y427035D01*
X226274Y426908D01*
X226332Y426655D01*
Y426643D01*
X226343Y426585D01*
Y426505D01*
X226355Y426378D01*
Y426297D01*
X226366Y426205D01*
Y426113D01*
Y425997D01*
X226378Y425871D01*
Y425732D01*
Y425571D01*
Y425410D01*
Y423207D01*
X219437D01*
Y425548D01*
Y425559D01*
Y425605D01*
Y425686D01*
X219448Y425778D01*
Y425905D01*
X219460Y426044D01*
X219472Y426194D01*
X219495Y426366D01*
X219541Y426724D01*
X219621Y427093D01*
X219725Y427462D01*
X219783Y427635D01*
X219864Y427796D01*
Y427808D01*
X219887Y427831D01*
X219910Y427877D01*
X219944Y427935D01*
X219990Y428004D01*
X220037Y428084D01*
X220175Y428269D01*
X220359Y428488D01*
X220578Y428707D01*
X220832Y428915D01*
X221120Y429111D01*
X221132Y429122D01*
X221155Y429134D01*
X221201Y429157D01*
X221270Y429191D01*
X221339Y429226D01*
X221432Y429272D01*
X221535Y429318D01*
X221651Y429364D01*
X221927Y429445D01*
X222227Y429526D01*
X222562Y429583D01*
X222734Y429606D01*
X223034D01*
X223103Y429595D01*
D02*
G37*
G36*
X366804Y443374D02*
X366873D01*
X367046Y443351D01*
X367254Y443317D01*
X367484Y443271D01*
X367715Y443201D01*
X367957Y443109D01*
X367969D01*
X367980Y443098D01*
X368015Y443086D01*
X368061Y443063D01*
X368188Y442994D01*
X368338Y442913D01*
X368511Y442809D01*
X368695Y442671D01*
X368891Y442521D01*
X369076Y442348D01*
X369099Y442325D01*
X369156Y442256D01*
X369249Y442152D01*
X369352Y442014D01*
X369479Y441841D01*
X369606Y441633D01*
X369721Y441403D01*
X369825Y441161D01*
X369837Y441149D01*
X369848Y441091D01*
X369871Y441022D01*
X369906Y440918D01*
X369940Y440815D01*
X369975Y440688D01*
X370033Y440434D01*
Y440423D01*
X370044Y440365D01*
Y440284D01*
X370056Y440158D01*
Y440077D01*
X370067Y439985D01*
Y439892D01*
Y439777D01*
X370079Y439650D01*
Y439512D01*
Y439350D01*
Y439189D01*
Y436987D01*
X363138D01*
Y439327D01*
Y439339D01*
Y439385D01*
Y439466D01*
X363149Y439558D01*
Y439685D01*
X363161Y439823D01*
X363172Y439973D01*
X363195Y440146D01*
X363241Y440503D01*
X363322Y440872D01*
X363426Y441241D01*
X363484Y441414D01*
X363564Y441576D01*
Y441587D01*
X363587Y441610D01*
X363610Y441656D01*
X363645Y441714D01*
X363691Y441783D01*
X363737Y441864D01*
X363876Y442048D01*
X364060Y442268D01*
X364279Y442487D01*
X364533Y442694D01*
X364821Y442890D01*
X364833Y442902D01*
X364856Y442913D01*
X364902Y442936D01*
X364971Y442971D01*
X365040Y443005D01*
X365132Y443051D01*
X365236Y443098D01*
X365351Y443144D01*
X365628Y443224D01*
X365928Y443305D01*
X366262Y443363D01*
X366435Y443386D01*
X366735D01*
X366804Y443374D01*
D02*
G37*
%LPC*%
G36*
X222861Y428580D02*
X222758D01*
X222677Y428569D01*
X222585Y428557D01*
X222469Y428546D01*
X222342Y428523D01*
X222216Y428488D01*
X221927Y428396D01*
X221778Y428338D01*
X221616Y428257D01*
X221466Y428177D01*
X221316Y428073D01*
X221178Y427958D01*
X221040Y427819D01*
X221028Y427808D01*
X220993Y427773D01*
X220947Y427704D01*
X220890Y427635D01*
X220820Y427531D01*
X220751Y427427D01*
X220682Y427300D01*
X220613Y427174D01*
X220601Y427162D01*
X220590Y427116D01*
X220555Y427047D01*
X220521Y426955D01*
X220475Y426851D01*
X220440Y426735D01*
X220382Y426482D01*
Y426470D01*
X220371Y426424D01*
X220359Y426343D01*
X220348Y426228D01*
Y426090D01*
X220336Y425905D01*
X220325Y425698D01*
Y425444D01*
Y424199D01*
X225490D01*
Y425467D01*
Y425479D01*
Y425502D01*
Y425536D01*
Y425594D01*
Y425721D01*
X225479Y425894D01*
X225467Y426078D01*
X225455Y426274D01*
X225432Y426459D01*
X225398Y426632D01*
Y426655D01*
X225375Y426701D01*
X225352Y426782D01*
X225329Y426874D01*
X225294Y426989D01*
X225248Y427104D01*
X225202Y427220D01*
X225144Y427323D01*
X225133Y427335D01*
X225110Y427370D01*
X225075Y427427D01*
X225029Y427496D01*
X224914Y427658D01*
X224752Y427831D01*
X224741Y427842D01*
X224718Y427865D01*
X224672Y427900D01*
X224614Y427946D01*
X224545Y428004D01*
X224452Y428073D01*
X224349Y428130D01*
X224233Y428211D01*
X224107Y428280D01*
X223957Y428338D01*
X223807Y428407D01*
X223634Y428465D01*
X223461Y428511D01*
X223265Y428546D01*
X223069Y428569D01*
X222861Y428580D01*
D02*
G37*
G36*
X367819Y398276D02*
X367761D01*
X367715Y398265D01*
X367588Y398253D01*
X367438Y398218D01*
X367277Y398172D01*
X367092Y398092D01*
X366919Y397976D01*
X366747Y397826D01*
X366723Y397803D01*
X366677Y397746D01*
X366608Y397653D01*
X366528Y397527D01*
X366447Y397365D01*
X366378Y397169D01*
X366332Y396950D01*
X366308Y396708D01*
Y396696D01*
Y396685D01*
Y396650D01*
X366320Y396604D01*
X366332Y396477D01*
X366366Y396339D01*
X366412Y396166D01*
X366493Y395993D01*
X366597Y395809D01*
X366747Y395647D01*
X366770Y395624D01*
X366827Y395578D01*
X366919Y395520D01*
X367046Y395440D01*
X367196Y395359D01*
X367381Y395301D01*
X367600Y395255D01*
X367830Y395232D01*
X367888D01*
X367934Y395244D01*
X368061Y395255D01*
X368211Y395290D01*
X368384Y395336D01*
X368557Y395417D01*
X368741Y395520D01*
X368903Y395659D01*
X368926Y395682D01*
X368972Y395739D01*
X369029Y395832D01*
X369110Y395958D01*
X369191Y396108D01*
X369249Y396304D01*
X369295Y396512D01*
X369318Y396754D01*
Y396766D01*
Y396789D01*
Y396823D01*
X369306Y396869D01*
X369295Y396985D01*
X369260Y397146D01*
X369214Y397319D01*
X369145Y397503D01*
X369041Y397676D01*
X368903Y397849D01*
X368880Y397872D01*
X368822Y397919D01*
X368730Y397988D01*
X368603Y398068D01*
X368453Y398138D01*
X368268Y398207D01*
X368050Y398253D01*
X367819Y398276D01*
D02*
G37*
G36*
X366562Y442360D02*
X366458D01*
X366378Y442348D01*
X366285Y442337D01*
X366170Y442325D01*
X366043Y442302D01*
X365916Y442268D01*
X365628Y442175D01*
X365478Y442118D01*
X365317Y442037D01*
X365167Y441956D01*
X365017Y441852D01*
X364879Y441737D01*
X364740Y441599D01*
X364729Y441587D01*
X364694Y441553D01*
X364648Y441483D01*
X364591Y441414D01*
X364521Y441311D01*
X364452Y441207D01*
X364383Y441080D01*
X364314Y440953D01*
X364302Y440942D01*
X364291Y440895D01*
X364256Y440826D01*
X364222Y440734D01*
X364175Y440630D01*
X364141Y440515D01*
X364083Y440261D01*
Y440250D01*
X364072Y440204D01*
X364060Y440123D01*
X364049Y440008D01*
Y439869D01*
X364037Y439685D01*
X364025Y439477D01*
Y439224D01*
Y437978D01*
X369191D01*
Y439247D01*
Y439258D01*
Y439281D01*
Y439316D01*
Y439373D01*
Y439500D01*
X369179Y439673D01*
X369168Y439858D01*
X369156Y440054D01*
X369133Y440238D01*
X369099Y440411D01*
Y440434D01*
X369076Y440480D01*
X369053Y440561D01*
X369029Y440653D01*
X368995Y440769D01*
X368949Y440884D01*
X368903Y440999D01*
X368845Y441103D01*
X368833Y441115D01*
X368810Y441149D01*
X368776Y441207D01*
X368730Y441276D01*
X368614Y441437D01*
X368453Y441610D01*
X368442Y441622D01*
X368418Y441645D01*
X368372Y441679D01*
X368315Y441726D01*
X368246Y441783D01*
X368153Y441852D01*
X368050Y441910D01*
X367934Y441991D01*
X367807Y442060D01*
X367657Y442118D01*
X367508Y442187D01*
X367335Y442244D01*
X367162Y442291D01*
X366966Y442325D01*
X366770Y442348D01*
X366562Y442360D01*
D02*
G37*
G36*
X360297Y354479D02*
X359271D01*
Y352322D01*
X360458D01*
X360562Y352334D01*
X360701Y352357D01*
X360850Y352392D01*
X361012Y352438D01*
X361162Y352507D01*
X361289Y352599D01*
X361300Y352611D01*
X361346Y352657D01*
X361392Y352714D01*
X361461Y352807D01*
X361519Y352922D01*
X361577Y353072D01*
X361611Y353233D01*
X361623Y353418D01*
Y353429D01*
Y353464D01*
X361611Y353521D01*
X361600Y353579D01*
X361588Y353660D01*
X361554Y353752D01*
X361508Y353844D01*
X361461Y353948D01*
X361392Y354052D01*
X361300Y354144D01*
X361196Y354236D01*
X361069Y354317D01*
X360908Y354386D01*
X360735Y354432D01*
X360528Y354467D01*
X360297Y354479D01*
D02*
G37*
%LPD*%
D14*
X362205Y417323D02*
X372047D01*
X362205Y446850D02*
X372047D01*
X362205Y377953D02*
X372047D01*
X218504Y397638D02*
X228346D01*
X218504Y358268D02*
X228346D01*
X218504Y437008D02*
X228346D01*
X393701Y295276D02*
Y492126D01*
X196850Y295276D02*
X393701D01*
X196850D02*
Y492126D01*
X393701D01*
D15*
X372953Y447500D02*
X382953D01*
Y347500D02*
Y447500D01*
X372953Y347500D02*
X382953D01*
X372953D02*
Y355000D01*
Y447500D01*
X217500Y357500D02*
Y437500D01*
X207500D02*
X217500D01*
X207500Y357500D02*
Y437500D01*
Y357500D02*
X217500D01*
X207902Y440699D02*
Y444635D01*
X209869D01*
X210525Y443979D01*
Y442667D01*
X209869Y442011D01*
X207902D01*
X211837Y440699D02*
X213149D01*
X212493D01*
Y444635D01*
X211837Y443979D01*
X373300Y450700D02*
Y454636D01*
X375268D01*
X375924Y453980D01*
Y452668D01*
X375268Y452012D01*
X373300D01*
X379860Y450700D02*
X377236D01*
X379860Y453324D01*
Y453980D01*
X379204Y454636D01*
X377892D01*
X377236Y453980D01*
M02*
