%FSLAX44Y44*%
%MOMM*%
G71*
G01*
G75*
G04 Layer_Physical_Order=4*
G04 Layer_Color=16711680*
%ADD10R,1.6000X1.5000*%
%ADD11R,1.5000X1.4000*%
%ADD12R,1.4000X1.5000*%
%ADD13R,0.6500X1.1000*%
%ADD14R,1.5000X1.6000*%
%ADD15R,1.1000X0.6500*%
%ADD16R,0.9500X3.2000*%
%ADD17R,10.5000X8.3000*%
%ADD18R,1.8000X3.5000*%
%ADD19R,1.9000X1.5000*%
%ADD20O,0.4000X2.2500*%
%ADD21R,0.9000X0.6500*%
%ADD22O,1.7000X0.3500*%
%ADD23O,0.5500X1.7500*%
%ADD24O,1.7500X0.5500*%
%ADD25R,2.5000X3.8500*%
%ADD26R,1.5000X2.8000*%
%ADD27R,1.0000X3.0500*%
%ADD28R,5.5500X6.5000*%
%ADD29R,2.1000X5.6000*%
%ADD30R,2.1000X1.4000*%
%ADD31C,0.2000*%
%ADD32C,1.5000*%
%ADD33C,0.8000*%
%ADD34C,1.2000*%
%ADD35C,0.7500*%
%ADD36C,1.0000*%
%ADD37C,0.2540*%
%ADD38R,1.5000X1.5000*%
%ADD39C,1.5000*%
%ADD40R,1.5000X1.5000*%
%ADD41C,1.0000*%
%ADD42C,7.0000*%
%ADD43C,2.5400*%
%ADD44C,0.5000*%
%ADD45C,0.9000*%
%ADD46C,1.0160*%
%ADD47C,1.9160*%
G04:AMPARAMS|DCode=48|XSize=2.424mm|YSize=2.424mm|CornerRadius=0mm|HoleSize=0mm|Usage=FLASHONLY|Rotation=0.000|XOffset=0mm|YOffset=0mm|HoleType=Round|Shape=Relief|Width=0.254mm|Gap=0.254mm|Entries=4|*
%AMTHD48*
7,0,0,2.4240,1.9160,0.2540,45*
%
%ADD48THD48*%
%ADD49C,1.3160*%
%ADD50C,4.5160*%
%ADD51C,2.5160*%
G04:AMPARAMS|DCode=52|XSize=3.024mm|YSize=3.024mm|CornerRadius=0mm|HoleSize=0mm|Usage=FLASHONLY|Rotation=0.000|XOffset=0mm|YOffset=0mm|HoleType=Round|Shape=Relief|Width=0.254mm|Gap=0.254mm|Entries=4|*
%AMTHD52*
7,0,0,3.0240,2.5160,0.2540,45*
%
%ADD52THD52*%
%ADD53C,1.2160*%
%ADD54C,1.5160*%
G36*
X2375000Y2465000D02*
X2375000D01*
Y2367500D01*
X2370000Y2362500D01*
X2260000D01*
X2255060Y2367440D01*
Y2464940D01*
X2255060Y2464940D01*
D01*
X2260000Y2470000D01*
X2370000D01*
X2375000Y2465000D01*
D02*
G37*
G36*
X2075000D02*
X2075000D01*
Y2367500D01*
X2070000Y2362500D01*
X1960000D01*
X1955060Y2367440D01*
Y2464940D01*
X1955060Y2464940D01*
D01*
X1960000Y2470000D01*
X2070000D01*
X2075000Y2465000D01*
D02*
G37*
G36*
X1775000D02*
X1775000D01*
Y2367500D01*
X1770000Y2362500D01*
X1660000D01*
X1655060Y2367440D01*
Y2464940D01*
X1655060Y2464940D01*
D01*
X1660000Y2470000D01*
X1770000D01*
X1775000Y2465000D01*
D02*
G37*
G36*
X3275000D02*
X3275000D01*
Y2367500D01*
X3270000Y2362500D01*
X3160000D01*
X3155060Y2367440D01*
Y2464940D01*
X3155060Y2464940D01*
D01*
X3160000Y2470000D01*
X3270000D01*
X3275000Y2465000D01*
D02*
G37*
G36*
X2975000D02*
X2975000D01*
Y2367500D01*
X2970000Y2362500D01*
X2860000D01*
X2855060Y2367440D01*
Y2464940D01*
X2855060Y2464940D01*
D01*
X2860000Y2470000D01*
X2970000D01*
X2975000Y2465000D01*
D02*
G37*
G36*
X2675000D02*
X2675000D01*
Y2367500D01*
X2670000Y2362500D01*
X2560000D01*
X2555060Y2367440D01*
Y2464940D01*
X2555060Y2464940D01*
D01*
X2560000Y2470000D01*
X2670000D01*
X2675000Y2465000D01*
D02*
G37*
D11*
X2230000Y2035000D02*
D03*
Y2055000D02*
D03*
X2255000Y2035000D02*
D03*
Y2055000D02*
D03*
D12*
X2495000Y2285000D02*
D03*
X2515000D02*
D03*
Y2260000D02*
D03*
X2495000D02*
D03*
D14*
X1812000Y2010000D02*
D03*
X1793000D02*
D03*
X1875500Y1990000D02*
D03*
X1894500D02*
D03*
X1875500Y2015000D02*
D03*
X1894500D02*
D03*
X1967000Y1962500D02*
D03*
X1948000D02*
D03*
X1948000Y1987500D02*
D03*
X1967000D02*
D03*
X1812000Y1955000D02*
D03*
X1793000D02*
D03*
X1814500Y1910000D02*
D03*
X1795500D02*
D03*
X1894500D02*
D03*
X1875500D02*
D03*
X1875500Y1935000D02*
D03*
X1894500D02*
D03*
D31*
X1709025Y1990975D02*
X1715000Y1985000D01*
X1709025Y1990975D02*
Y1997753D01*
X1715975Y2000975D02*
X1735000Y2020000D01*
X1712247Y2000975D02*
X1715975D01*
X1709025Y1997753D02*
X1712247Y2000975D01*
X1640000Y2041000D02*
X1734000D01*
X1618600D02*
X1640000D01*
X1525000Y2160000D02*
X1623004Y2061996D01*
X1781996D01*
X1525000Y2134600D02*
X1618600Y2041000D01*
X2616000Y2128500D02*
Y2252000D01*
X2607500Y2120000D02*
X2616000Y2128500D01*
X2182500Y2120000D02*
X2607500D01*
X1565328Y2479672D02*
X1575907Y2490250D01*
X1565328Y2405328D02*
Y2479672D01*
X1561328Y2403672D02*
Y2482828D01*
X1610250Y2531750D02*
Y2550250D01*
X1561328Y2482828D02*
X1610250Y2531750D01*
X2071500Y1897500D02*
X2074200D01*
X2064000Y1890000D02*
X2071500Y1897500D01*
X1979000Y1890000D02*
X2064000D01*
X1905000Y1964000D02*
X1979000Y1890000D01*
X2113500Y1886000D02*
X2125000Y1897500D01*
X1975000Y1886000D02*
X2113500D01*
X1905000Y1956000D02*
X1975000Y1886000D01*
X1967000Y1987500D02*
X1967000Y1987500D01*
X1980000D01*
X1967000Y1962500D02*
X1967000Y1962500D01*
X1980000D01*
X1894500Y1921500D02*
X1895000Y1922000D01*
X1894500Y1910000D02*
Y1921500D01*
X1716000Y2127500D02*
X1723500Y2120000D01*
X1716000Y2127500D02*
Y2252000D01*
X1723500Y2120000D02*
X1827500D01*
X1862500Y1935000D02*
X1875500D01*
X1814500Y1910000D02*
X1827500D01*
X1812000Y2010000D02*
X1825000D01*
X1812000Y1955000D02*
X1825000D01*
X1895000Y1993000D02*
X1898000Y1996000D01*
X1908000D01*
X1793000Y2010000D02*
Y2023000D01*
X1792000Y1956000D02*
X1793000Y1955000D01*
X1781000Y1956000D02*
X1792000D01*
X1801000Y1897000D02*
Y1906000D01*
Y1897000D02*
X1801000Y1897000D01*
X1721000Y1989000D02*
X1728000Y1996000D01*
X1737000D01*
X1935000Y1962500D02*
X1948000D01*
X1935000Y1987500D02*
X1948000D01*
X1881000Y1896500D02*
Y1904500D01*
X1894500Y1935000D02*
X1897500Y1932000D01*
X1908000D01*
X2647000Y2283000D02*
Y2294000D01*
X2616000Y2252000D02*
X2647000Y2283000D01*
X2916000Y2127500D02*
Y2252000D01*
X2947000Y2283000D02*
Y2294000D01*
X2916000Y2252000D02*
X2947000Y2283000D01*
X3216000Y2127500D02*
Y2252000D01*
X3247000Y2283000D02*
Y2294000D01*
X3216000Y2252000D02*
X3247000Y2283000D01*
X2948000Y2127000D02*
Y2204000D01*
X3248000Y2127000D02*
Y2204000D01*
X2648000Y2127000D02*
Y2204000D01*
X2348000Y2127000D02*
Y2204000D01*
X2048000Y2127000D02*
Y2204000D01*
X1748000Y2127000D02*
Y2204000D01*
X1676000Y2221000D02*
Y2248000D01*
X1655000Y2200000D02*
X1676000Y2221000D01*
X1655000Y2119000D02*
Y2200000D01*
X2255000Y2201000D02*
X2276000Y2222000D01*
Y2248000D01*
Y2249000D01*
X1955000Y2200000D02*
X1976000Y2221000D01*
Y2248000D01*
X2555000Y2201000D02*
X2576000Y2222000D01*
Y2248000D02*
Y2249000D01*
Y2222000D02*
Y2248000D01*
X2855000Y2201000D02*
X2876000Y2222000D01*
Y2248000D01*
Y2249000D01*
X3155000Y2201000D02*
X3176000Y2222000D01*
Y2248000D01*
Y2249000D01*
X1695475Y1944525D02*
Y1948000D01*
X1688475Y1943525D02*
Y1948000D01*
X1695150Y2029000D02*
Y2029778D01*
X1699872Y2034500D01*
X1762500D01*
X1848000Y2120000D01*
X1887000D01*
X1841657Y2108000D02*
X1897000D01*
X1835314Y2096000D02*
X1907000D01*
X1828970Y2084000D02*
X1917000D01*
X1822627Y2072000D02*
X1927000D01*
X1753000Y1963686D02*
Y2002373D01*
X1822627Y2072000D01*
X1749000Y1965343D02*
Y2004030D01*
X1828970Y2084000D01*
X1745000Y2005686D02*
X1835314Y2096000D01*
X1762657Y2029000D02*
X1841657Y2108000D01*
X1702150Y2029000D02*
X1762657D01*
X1862500Y1990000D02*
X1875500D01*
X1862500Y2015000D02*
X1875500D01*
X1904500Y2005000D02*
X1907500D01*
X1894500Y2015000D02*
X1904500Y2005000D01*
X2117500Y2006500D02*
X2130000D01*
X2016000Y2127500D02*
Y2252000D01*
X2047000Y2283000D01*
Y2294000D01*
X1716000Y2252000D02*
X1747000Y2283000D01*
Y2294000D01*
X2316000Y2252000D02*
X2347000Y2283000D01*
Y2294000D01*
X2160000Y2097500D02*
X2182500Y2120000D01*
X2160000Y2025000D02*
Y2097500D01*
X2904500Y2116000D02*
X2916000Y2127500D01*
X2188500Y2116000D02*
X2904500D01*
X2169000Y2025000D02*
Y2096500D01*
X2188500Y2116000D01*
X3200500Y2112000D02*
X3216000Y2127500D01*
X2202000Y2112000D02*
X3200500D01*
X2183500Y2093500D02*
X2202000Y2112000D01*
X2183500Y2046500D02*
Y2093500D01*
X2177500Y2040500D02*
X2183500Y2046500D01*
X2177500Y2025000D02*
Y2040500D01*
X2088500Y2081000D02*
X2131500Y2124000D01*
X2088500Y2046500D02*
Y2081000D01*
X2082500Y2025000D02*
Y2040500D01*
X2088500Y2046500D01*
X2016000Y2127500D02*
X2074000Y2069500D01*
Y2025000D02*
Y2069500D01*
X1827500Y2120000D02*
X1837500Y2130000D01*
X1997500D01*
X2065000Y2062500D01*
Y2025000D02*
Y2062500D01*
X2257995Y2019996D02*
Y2032005D01*
X2255000Y2035000D02*
X2257995Y2032005D01*
X2230000Y2035000D02*
X2255000D01*
Y2055000D02*
X2269000D01*
X2226000Y2051000D02*
X2230000Y2055000D01*
X2217000Y2051000D02*
X2226000D01*
X1706000Y2303000D02*
X1928000D01*
X1697000Y2294000D02*
X1706000Y2303000D01*
X2006000D02*
X2228000D01*
X1997000Y2294000D02*
X2006000Y2303000D01*
X2306000D02*
X2528000D01*
X2297000Y2294000D02*
X2306000Y2303000D01*
X2606000D02*
X2828000D01*
X2597000Y2294000D02*
X2606000Y2303000D01*
X2906000D02*
X3128000D01*
X2897000Y2294000D02*
X2906000Y2303000D01*
X2515000Y2260000D02*
Y2285000D01*
X2528000Y2298000D01*
Y2303000D01*
X2495000Y2260000D02*
Y2272000D01*
Y2285000D02*
Y2297000D01*
X1767500Y2082500D02*
X1787500D01*
X1752500Y2097500D02*
X1767500Y2082500D01*
X1648686Y2097500D02*
X1752500D01*
X1572000Y2174186D02*
X1648686Y2097500D01*
X1572000Y2174186D02*
Y2292500D01*
X1560000Y2304500D02*
X1572000Y2292500D01*
X1560000Y2304500D02*
Y2315000D01*
X1565328Y2405328D02*
X1580000Y2390657D01*
X1561328Y2403672D02*
X1576000Y2389000D01*
X1580000Y2177500D02*
Y2390657D01*
X1652000Y2105500D02*
X1755814D01*
X1580000Y2177500D02*
X1652000Y2105500D01*
X1755814D02*
X1767500Y2093814D01*
X1798814D01*
X1576000Y2175843D02*
Y2389000D01*
Y2175843D02*
X1650343Y2101500D01*
X1754157D01*
X1767500Y2088157D02*
X1793157D01*
X1754157Y2101500D02*
X1767500Y2088157D01*
X1575907Y2490250D02*
X1582750D01*
X1745000Y1968722D02*
Y2005686D01*
X1702475Y1948000D02*
X1708475Y1954000D01*
X1730278D01*
X1745000Y1968722D01*
X1695500Y1936500D02*
X1725814D01*
X1695475Y1944525D02*
X1699500Y1940500D01*
X1724157D01*
X1749000Y1965343D01*
X1688475Y1943525D02*
X1695500Y1936500D01*
X1725814D02*
X1753000Y1963686D01*
X1833000Y1870000D02*
X1843000Y1860000D01*
X2388000D01*
X1825000Y1870000D02*
X1839000Y1856000D01*
X2388000Y1860000D02*
X2400400Y1872400D01*
Y1875000D01*
X1839000Y1856000D02*
X2406800D01*
X2425800Y1875000D01*
X2155000Y1985000D02*
X2172500D01*
X2179278Y1978222D01*
X2179500D01*
X2117000Y1998000D02*
X2118722Y1996278D01*
X2115500Y1968722D02*
Y1973278D01*
X2118722Y1976500D01*
Y1996278D01*
X2053000Y1975000D02*
Y2006000D01*
X2060000Y2013000D01*
X2215000Y1995000D02*
X2257000D01*
X2332000Y2070000D01*
X2332500D01*
X2312657Y2045000D02*
X2332500D01*
X2293314Y2020000D02*
X2332500D01*
X2273970Y1995000D02*
X2332500D01*
X2254627Y1970000D02*
X2332500D01*
X2665000Y1888800D02*
Y1922500D01*
X2651200Y1875000D02*
X2665000Y1888800D01*
X2690000Y1888400D02*
Y1922500D01*
X2676600Y1875000D02*
X2690000Y1888400D01*
X1817000Y1870000D02*
X1835000Y1852000D01*
X2628200D01*
X2651200Y1875000D01*
X1809000Y1870000D02*
X1831000Y1848000D01*
X2649600D01*
X2676600Y1875000D01*
X2121000Y1971000D02*
X2181065D01*
X2179500Y1978222D02*
X2189722Y1968000D01*
X2235657D01*
X2312657Y2045000D01*
X2188065Y1964000D02*
X2237314D01*
X2124222Y1960000D02*
X2238970D01*
X2086000Y1956000D02*
X2240627D01*
X2181065Y1971000D02*
X2188065Y1964000D01*
X2237314D02*
X2293314Y2020000D01*
X2238970Y1960000D02*
X2273970Y1995000D01*
X2240627Y1956000D02*
X2254627Y1970000D01*
X2325500Y1952000D02*
X2332500Y1945000D01*
X2115500Y1968722D02*
X2124222Y1960000D01*
X2053000Y1975000D02*
X2076000Y1952000D01*
X2060000Y1982000D02*
X2086000Y1956000D01*
X2076000Y1952000D02*
X2325500D01*
X2131500Y2124000D02*
X2306500D01*
X2316000Y2133500D01*
Y2252000D01*
D33*
X1768000Y2201000D02*
X1816000D01*
X1729000Y2240000D02*
X1768000Y2201000D01*
X2068000D02*
X2116000D01*
X2029000Y2240000D02*
X2068000Y2201000D01*
X2368000D02*
X2416000D01*
X2329000Y2240000D02*
X2368000Y2201000D01*
X2668000D02*
X2716000D01*
X2629000Y2240000D02*
X2668000Y2201000D01*
X2968000D02*
X3016000D01*
X2929000Y2240000D02*
X2968000Y2201000D01*
X3229000Y2240000D02*
X3268000Y2201000D01*
X3316000D01*
D36*
X3148000Y2523000D02*
X3225000Y2600000D01*
X3148000Y2309000D02*
Y2523000D01*
X2848000D02*
X2925200Y2600200D01*
X2848000Y2309000D02*
Y2523000D01*
X2548000Y2523000D02*
X2625000Y2600000D01*
X2548000Y2309000D02*
Y2523000D01*
X2248000Y2523000D02*
X2325000Y2600000D01*
X2248000Y2309000D02*
Y2523000D01*
X1948000Y2523000D02*
X2025000Y2600000D01*
X1948000Y2309000D02*
Y2523000D01*
X1648000D02*
X1725000Y2600000D01*
X1648000Y2309000D02*
Y2523000D01*
X1948000Y2309000D02*
X1988000Y2269000D01*
Y2219250D02*
Y2269000D01*
X2248000Y2309000D02*
X2288000Y2269000D01*
Y2219250D02*
Y2269000D01*
X2548000Y2309000D02*
X2588000Y2269000D01*
Y2219250D02*
Y2269000D01*
X2848000Y2309000D02*
X2888000Y2269000D01*
Y2219250D02*
Y2269000D01*
X3148000Y2309000D02*
X3188000Y2269000D01*
Y2219250D02*
Y2269000D01*
X1688000Y2219250D02*
Y2269000D01*
X1648000Y2309000D02*
X1688000Y2269000D01*
D37*
X1450000Y1825000D02*
Y2675000D01*
Y1825000D02*
X3450000D01*
Y2675000D01*
X1450000D02*
X3450000D01*
X3025000Y2715235D02*
Y2700000D01*
X3032617D01*
X3035157Y2702539D01*
Y2705078D01*
X3032617Y2707617D01*
X3025000D01*
X3032617D01*
X3035157Y2710157D01*
Y2712696D01*
X3032617Y2715235D01*
X3025000D01*
X3042774Y2700000D02*
X3047852D01*
X3050392Y2702539D01*
Y2707617D01*
X3047852Y2710157D01*
X3042774D01*
X3040235Y2707617D01*
Y2702539D01*
X3042774Y2700000D01*
X3058009Y2710157D02*
X3063088D01*
X3065627Y2707617D01*
Y2700000D01*
X3058009D01*
X3055470Y2702539D01*
X3058009Y2705078D01*
X3065627D01*
X3070705Y2710157D02*
Y2700000D01*
Y2705078D01*
X3073244Y2707617D01*
X3075784Y2710157D01*
X3078323D01*
X3096097Y2715235D02*
Y2700000D01*
X3088480D01*
X3085940Y2702539D01*
Y2707617D01*
X3088480Y2710157D01*
X3096097D01*
X3124028Y2715235D02*
X3118950D01*
X3116411Y2712696D01*
Y2702539D01*
X3118950Y2700000D01*
X3124028D01*
X3126567Y2702539D01*
Y2712696D01*
X3124028Y2715235D01*
X3131646Y2710157D02*
Y2702539D01*
X3134185Y2700000D01*
X3141802D01*
Y2710157D01*
X3149420Y2712696D02*
Y2710157D01*
X3146880D01*
X3151959D01*
X3149420D01*
Y2702539D01*
X3151959Y2700000D01*
X3159576D02*
X3164655D01*
X3162115D01*
Y2715235D01*
X3159576D01*
X3172272Y2700000D02*
X3177351D01*
X3174811D01*
Y2710157D01*
X3172272D01*
X3184968Y2700000D02*
Y2710157D01*
X3192586D01*
X3195125Y2707617D01*
Y2700000D01*
X3207821D02*
X3202743D01*
X3200203Y2702539D01*
Y2707617D01*
X3202743Y2710157D01*
X3207821D01*
X3210360Y2707617D01*
Y2705078D01*
X3200203D01*
X3217978Y2697461D02*
X3220517Y2700000D01*
Y2702539D01*
X3217978D01*
Y2700000D01*
X3220517D01*
X3217978Y2697461D01*
X3215439Y2694922D01*
X3256065Y2700000D02*
X3245909D01*
X3256065Y2710157D01*
Y2712696D01*
X3253526Y2715235D01*
X3248448D01*
X3245909Y2712696D01*
X3261143D02*
X3263683Y2715235D01*
X3268761D01*
X3271300Y2712696D01*
Y2702539D01*
X3268761Y2700000D01*
X3263683D01*
X3261143Y2702539D01*
Y2712696D01*
X3276379D02*
X3278918Y2715235D01*
X3283996D01*
X3286535Y2712696D01*
Y2702539D01*
X3283996Y2700000D01*
X3278918D01*
X3276379Y2702539D01*
Y2712696D01*
X3291614Y2700000D02*
Y2710157D01*
X3294153D01*
X3296692Y2707617D01*
Y2700000D01*
Y2707617D01*
X3299231Y2710157D01*
X3301771Y2707617D01*
Y2700000D01*
X3306849D02*
Y2710157D01*
X3309388D01*
X3311927Y2707617D01*
Y2700000D01*
Y2707617D01*
X3314466Y2710157D01*
X3317006Y2707617D01*
Y2700000D01*
X3337319Y2710157D02*
X3347476Y2700000D01*
X3342397Y2705078D01*
X3347476Y2710157D01*
X3337319Y2700000D01*
X3367789Y2712696D02*
X3370328Y2715235D01*
X3375406D01*
X3377946Y2712696D01*
Y2710157D01*
X3375406Y2707617D01*
X3377946Y2705078D01*
Y2702539D01*
X3375406Y2700000D01*
X3370328D01*
X3367789Y2702539D01*
Y2705078D01*
X3370328Y2707617D01*
X3367789Y2710157D01*
Y2712696D01*
X3370328Y2707617D02*
X3375406D01*
X3393181Y2715235D02*
X3383024D01*
Y2707617D01*
X3388102Y2710157D01*
X3390642D01*
X3393181Y2707617D01*
Y2702539D01*
X3390642Y2700000D01*
X3385563D01*
X3383024Y2702539D01*
X3398259Y2700000D02*
Y2710157D01*
X3400798D01*
X3403338Y2707617D01*
Y2700000D01*
Y2707617D01*
X3405877Y2710157D01*
X3408416Y2707617D01*
Y2700000D01*
X3413494D02*
Y2710157D01*
X3416034D01*
X3418573Y2707617D01*
Y2700000D01*
Y2707617D01*
X3421112Y2710157D01*
X3423651Y2707617D01*
Y2700000D01*
D38*
X2125000Y1900000D02*
D03*
X2375000Y1875000D02*
D03*
X2575000D02*
D03*
D39*
X2125000Y1874600D02*
D03*
X2099600Y1900000D02*
D03*
Y1874600D02*
D03*
X2074200Y1900000D02*
D03*
Y1874600D02*
D03*
X1525000Y2109200D02*
D03*
Y1931400D02*
D03*
Y1956800D02*
D03*
Y1982200D02*
D03*
Y2007600D02*
D03*
Y2033000D02*
D03*
Y2058400D02*
D03*
Y2083800D02*
D03*
Y2134600D02*
D03*
X2400400Y1875000D02*
D03*
X2425800D02*
D03*
X2451200D02*
D03*
X2476600D02*
D03*
X2502000D02*
D03*
X2575000Y1900400D02*
D03*
X2600400Y1875000D02*
D03*
Y1900400D02*
D03*
X2625800Y1875000D02*
D03*
Y1900400D02*
D03*
X2651200Y1875000D02*
D03*
Y1900400D02*
D03*
X2676600Y1875000D02*
D03*
Y1900400D02*
D03*
X2702000Y1875000D02*
D03*
Y1900400D02*
D03*
X2727400Y1875000D02*
D03*
Y1900400D02*
D03*
X2752800Y1875000D02*
D03*
Y1900400D02*
D03*
X2230000Y1980000D02*
D03*
Y1940000D02*
D03*
D40*
X1525000Y2160000D02*
D03*
D41*
X2863120Y1897730D02*
D03*
X2872733Y1888125D02*
D03*
X2863120Y1852270D02*
D03*
X2872730Y1861880D02*
D03*
X2836880Y1852270D02*
D03*
X2827270Y1861880D02*
D03*
X2836875Y1897733D02*
D03*
X2827270Y1888120D02*
D03*
X2850000Y1848750D02*
D03*
X2876250Y1875000D02*
D03*
X2850000Y1901250D02*
D03*
X2823750Y1875000D02*
D03*
X3413120Y1897730D02*
D03*
X3422733Y1888125D02*
D03*
X3413120Y1852270D02*
D03*
X3422730Y1861880D02*
D03*
X3386880Y1852270D02*
D03*
X3377270Y1861880D02*
D03*
X3386875Y1897733D02*
D03*
X3377270Y1888120D02*
D03*
X3400000Y1848750D02*
D03*
X3426250Y1875000D02*
D03*
X3400000Y1901250D02*
D03*
X3373750Y1875000D02*
D03*
X3413120Y2647730D02*
D03*
X3422733Y2638125D02*
D03*
X3413120Y2602270D02*
D03*
X3422730Y2611880D02*
D03*
X3386880Y2602270D02*
D03*
X3377270Y2611880D02*
D03*
X3386875Y2647733D02*
D03*
X3377270Y2638120D02*
D03*
X3400000Y2598750D02*
D03*
X3426250Y2625000D02*
D03*
X3400000Y2651250D02*
D03*
X3373750Y2625000D02*
D03*
X2463120Y2647730D02*
D03*
X2472733Y2638125D02*
D03*
X2463120Y2602270D02*
D03*
X2472730Y2611880D02*
D03*
X2436880Y2602270D02*
D03*
X2427270Y2611880D02*
D03*
X2436875Y2647733D02*
D03*
X2427270Y2638120D02*
D03*
X2450000Y2598750D02*
D03*
X2476250Y2625000D02*
D03*
X2450000Y2651250D02*
D03*
X2423750Y2625000D02*
D03*
X1513120Y2647730D02*
D03*
X1522733Y2638125D02*
D03*
X1513120Y2602270D02*
D03*
X1522730Y2611880D02*
D03*
X1486880Y2602270D02*
D03*
X1477270Y2611880D02*
D03*
X1486875Y2647733D02*
D03*
X1477270Y2638120D02*
D03*
X1500000Y2598750D02*
D03*
X1526250Y2625000D02*
D03*
X1500000Y2651250D02*
D03*
X1473750Y2625000D02*
D03*
X1513120Y1897730D02*
D03*
X1522733Y1888125D02*
D03*
X1513120Y1852270D02*
D03*
X1522730Y1861880D02*
D03*
X1486880Y1852270D02*
D03*
X1477270Y1861880D02*
D03*
X1486875Y1897733D02*
D03*
X1477270Y1888120D02*
D03*
X1500000Y1848750D02*
D03*
X1526250Y1875000D02*
D03*
X1500000Y1901250D02*
D03*
X1473750Y1875000D02*
D03*
D42*
X2850000D02*
D03*
X3400000D02*
D03*
Y2625000D02*
D03*
X2450000D02*
D03*
X1500000D02*
D03*
Y1875000D02*
D03*
D43*
X1525000Y2275400D02*
D03*
Y2224600D02*
D03*
Y2450400D02*
D03*
Y2399600D02*
D03*
X1674600Y2600000D02*
D03*
X1725400D02*
D03*
X3174600D02*
D03*
X3225400D02*
D03*
X2874600D02*
D03*
X2925400D02*
D03*
X2574600D02*
D03*
X2625400D02*
D03*
X2274600D02*
D03*
X2325400D02*
D03*
X1974600D02*
D03*
X2025400D02*
D03*
X3375000Y1999600D02*
D03*
Y2050400D02*
D03*
D44*
X1735000Y2020000D02*
D03*
X1715000Y1985000D02*
D03*
X1640000Y1974250D02*
D03*
X1615000D02*
D03*
X1640000Y2041000D02*
D03*
X1623004Y2061996D02*
D03*
X1781996D02*
D03*
X1734000Y2041000D02*
D03*
X2892000Y2424500D02*
D03*
Y2404500D02*
D03*
Y2384500D02*
D03*
X2922000Y2424500D02*
D03*
Y2404500D02*
D03*
Y2384500D02*
D03*
X2952000Y2424500D02*
D03*
Y2404500D02*
D03*
Y2384500D02*
D03*
X1895000Y1922000D02*
D03*
X2295000Y1879000D02*
D03*
X1905000Y1964000D02*
D03*
Y1956000D02*
D03*
X2242864Y2052000D02*
D03*
X2235000Y2017007D02*
D03*
X2348000Y2204000D02*
D03*
X2048000D02*
D03*
X1748000D02*
D03*
X1862500Y1935000D02*
D03*
X1827500Y1910000D02*
D03*
X1825000Y2010000D02*
D03*
Y1955000D02*
D03*
X1908000Y1996000D02*
D03*
X1793000Y2023000D02*
D03*
X1781000Y1956000D02*
D03*
X1801000Y1897000D02*
D03*
X1721000Y1989000D02*
D03*
X1737000Y1996000D02*
D03*
X1741000Y2204000D02*
D03*
Y2195000D02*
D03*
Y2185000D02*
D03*
X1697000Y2294000D02*
D03*
X1676000Y2248000D02*
D03*
X1640000Y2152000D02*
D03*
X1757000Y2176000D02*
D03*
X2041000Y2204000D02*
D03*
Y2195000D02*
D03*
Y2185000D02*
D03*
X1997000Y2294000D02*
D03*
X1940000Y2152000D02*
D03*
X2057000Y2176000D02*
D03*
X2341000Y2204000D02*
D03*
Y2195000D02*
D03*
Y2185000D02*
D03*
X2297000Y2294000D02*
D03*
X2240000Y2152000D02*
D03*
X2357000Y2176000D02*
D03*
X2641000Y2204000D02*
D03*
Y2195000D02*
D03*
Y2185000D02*
D03*
X2648000Y2204000D02*
D03*
X2597000Y2294000D02*
D03*
X2540000Y2152000D02*
D03*
X2657000Y2176000D02*
D03*
X2941000Y2204000D02*
D03*
Y2195000D02*
D03*
Y2185000D02*
D03*
X2948000Y2204000D02*
D03*
X2897000Y2294000D02*
D03*
X2840000Y2152000D02*
D03*
X2957000Y2176000D02*
D03*
X3140000Y2152000D02*
D03*
X3197000Y2294000D02*
D03*
X1692000Y2424500D02*
D03*
Y2404500D02*
D03*
Y2384500D02*
D03*
X1722000Y2424500D02*
D03*
Y2404500D02*
D03*
Y2384500D02*
D03*
X1752000Y2424500D02*
D03*
Y2404500D02*
D03*
Y2384500D02*
D03*
X2592000Y2424500D02*
D03*
Y2404500D02*
D03*
Y2384500D02*
D03*
X2622000Y2424500D02*
D03*
Y2404500D02*
D03*
Y2384500D02*
D03*
X2652000Y2424500D02*
D03*
Y2404500D02*
D03*
Y2384500D02*
D03*
X1992000Y2424500D02*
D03*
Y2404500D02*
D03*
Y2384500D02*
D03*
X2022000Y2424500D02*
D03*
Y2404500D02*
D03*
Y2384500D02*
D03*
X2052000Y2424500D02*
D03*
Y2404500D02*
D03*
Y2384500D02*
D03*
X2292000Y2424500D02*
D03*
Y2404500D02*
D03*
Y2384500D02*
D03*
X2322000Y2424500D02*
D03*
Y2404500D02*
D03*
Y2384500D02*
D03*
X2352000Y2424500D02*
D03*
Y2404500D02*
D03*
Y2384500D02*
D03*
X3192000Y2424500D02*
D03*
Y2404500D02*
D03*
Y2384500D02*
D03*
X3222000Y2424500D02*
D03*
Y2404500D02*
D03*
Y2384500D02*
D03*
X3252000Y2424500D02*
D03*
Y2404500D02*
D03*
Y2384500D02*
D03*
X3241000Y2204000D02*
D03*
Y2195000D02*
D03*
Y2185000D02*
D03*
X3248000Y2204000D02*
D03*
X3257000Y2176000D02*
D03*
X1908000Y1988000D02*
D03*
X1980000Y1962500D02*
D03*
Y1987500D02*
D03*
X1935000Y1962500D02*
D03*
Y1987500D02*
D03*
X1677000Y1990000D02*
D03*
X1682775Y1979725D02*
D03*
X1781000Y1964000D02*
D03*
X1793000Y1897000D02*
D03*
X1873000D02*
D03*
X1881000Y1896500D02*
D03*
X1909000Y1924000D02*
D03*
X1908000Y1932000D02*
D03*
X2647000Y2294000D02*
D03*
X2947000D02*
D03*
X3247000D02*
D03*
X2948000Y2127000D02*
D03*
X3248000D02*
D03*
X2648000D02*
D03*
X2348000D02*
D03*
X2048000D02*
D03*
X1748000D02*
D03*
X1655000Y2119000D02*
D03*
X1695150Y2029000D02*
D03*
X1702150D02*
D03*
X1897000Y2108000D02*
D03*
X1887000Y2120000D02*
D03*
X2255000Y2201000D02*
D03*
X2276000Y2248000D02*
D03*
X1955000Y2200000D02*
D03*
X1976000Y2248000D02*
D03*
X1702475Y1948000D02*
D03*
X1907000Y2096000D02*
D03*
X2555000Y2201000D02*
D03*
X2576000Y2248000D02*
D03*
X1695475Y1948000D02*
D03*
X1917000Y2084000D02*
D03*
X2855000Y2201000D02*
D03*
X2876000Y2248000D02*
D03*
X1688475Y1948000D02*
D03*
X1927000Y2072000D02*
D03*
X3155000Y2201000D02*
D03*
X3176000Y2248000D02*
D03*
X1862500Y1990000D02*
D03*
Y2015000D02*
D03*
X1907500Y2005000D02*
D03*
X1722500Y2070000D02*
D03*
Y2090000D02*
D03*
X1732000Y2090500D02*
D03*
X1713000D02*
D03*
X1714525Y1995475D02*
D03*
X2130000Y2006500D02*
D03*
X2117500D02*
D03*
X2074000Y2025000D02*
D03*
X2065000D02*
D03*
X2082500D02*
D03*
X2047000Y2294000D02*
D03*
X1747000D02*
D03*
X2347000D02*
D03*
X2177500Y2025000D02*
D03*
X2160000D02*
D03*
X2169000D02*
D03*
X1677500Y2011250D02*
D03*
X2103500Y2026000D02*
D03*
X2083000Y2052000D02*
D03*
X2178000D02*
D03*
X2198500Y2026000D02*
D03*
X2090000Y1980500D02*
D03*
Y1987000D02*
D03*
X2033000Y1980500D02*
D03*
X2128000D02*
D03*
X2185000D02*
D03*
Y1987000D02*
D03*
X2217000Y2019000D02*
D03*
X2241000Y2009000D02*
D03*
X2257995Y2019996D02*
D03*
X2269000Y2055000D02*
D03*
X2217000Y2051000D02*
D03*
X1928000Y2303000D02*
D03*
X2228000D02*
D03*
X2528000D02*
D03*
X2828000D02*
D03*
X3128000D02*
D03*
X2495000Y2272000D02*
D03*
Y2297000D02*
D03*
X1612250Y2453000D02*
D03*
X1602750Y2455250D02*
D03*
X1592750D02*
D03*
X1575250Y2440250D02*
D03*
X1610000Y2312500D02*
D03*
X1595000Y2325000D02*
D03*
Y2335000D02*
D03*
X1597250Y2344500D02*
D03*
X1590250Y2550250D02*
D03*
X1787500Y2082500D02*
D03*
X1560000Y2315000D02*
D03*
X1798814Y2093814D02*
D03*
X1793157Y2088157D02*
D03*
X1610250Y2550250D02*
D03*
X1582750Y2490250D02*
D03*
X1684000Y1924500D02*
D03*
X1825000Y1870000D02*
D03*
X1833000D02*
D03*
X2190000Y1867500D02*
D03*
X2250000D02*
D03*
X2332500Y1995000D02*
D03*
Y1970000D02*
D03*
Y1945000D02*
D03*
Y2020000D02*
D03*
Y2045000D02*
D03*
Y2070000D02*
D03*
X2121000Y1971000D02*
D03*
X2155000Y1985000D02*
D03*
X2215000Y1995000D02*
D03*
X2425000D02*
D03*
Y1970000D02*
D03*
Y1945000D02*
D03*
Y2020000D02*
D03*
Y2045000D02*
D03*
Y2070000D02*
D03*
X2117000Y1998000D02*
D03*
X2060000Y1982000D02*
D03*
Y2013000D02*
D03*
X2665000Y1922500D02*
D03*
X2690000D02*
D03*
X1817000Y1870000D02*
D03*
X1809000D02*
D03*
X2665000Y1970000D02*
D03*
X2690000D02*
D03*
D45*
X2106000Y2475000D02*
D03*
X2406000D02*
D03*
X2706000D02*
D03*
X3006000D02*
D03*
X3306000D02*
D03*
X1806000D02*
D03*
X1722000Y2336000D02*
D03*
X1816000Y2201000D02*
D03*
X1729000Y2240000D02*
D03*
X1688000Y2219250D02*
D03*
X1645000Y2246000D02*
D03*
X1806000Y2430000D02*
D03*
Y2385000D02*
D03*
X1663000Y2347000D02*
D03*
X1761000Y2272000D02*
D03*
Y2235000D02*
D03*
X2022000Y2336000D02*
D03*
X2116000Y2201000D02*
D03*
X2029000Y2240000D02*
D03*
X1988000Y2219250D02*
D03*
X1945000Y2246000D02*
D03*
X2106000Y2430000D02*
D03*
Y2385000D02*
D03*
X1963000Y2347000D02*
D03*
X2061000Y2272000D02*
D03*
Y2235000D02*
D03*
X2322000Y2336000D02*
D03*
X2416000Y2201000D02*
D03*
X2329000Y2240000D02*
D03*
X2288000Y2219250D02*
D03*
X2245000Y2246000D02*
D03*
X2406000Y2430000D02*
D03*
Y2385000D02*
D03*
X2263000Y2347000D02*
D03*
X2361000Y2272000D02*
D03*
Y2235000D02*
D03*
X2622000Y2336000D02*
D03*
X2716000Y2201000D02*
D03*
X2629000Y2240000D02*
D03*
X2588000Y2219250D02*
D03*
X2545000Y2246000D02*
D03*
X2706000Y2430000D02*
D03*
Y2385000D02*
D03*
X2563000Y2347000D02*
D03*
X2661000Y2272000D02*
D03*
Y2235000D02*
D03*
X2922000Y2336000D02*
D03*
X3016000Y2201000D02*
D03*
X2929000Y2240000D02*
D03*
X2888000Y2219250D02*
D03*
X2845000Y2246000D02*
D03*
X3006000Y2430000D02*
D03*
Y2385000D02*
D03*
X2863000Y2347000D02*
D03*
X2961000Y2272000D02*
D03*
Y2235000D02*
D03*
X3163000Y2347000D02*
D03*
X3306000Y2430000D02*
D03*
Y2385000D02*
D03*
X3261000Y2272000D02*
D03*
Y2235000D02*
D03*
X3188000Y2219250D02*
D03*
X3222000Y2336000D02*
D03*
X3229000Y2240000D02*
D03*
X3316000Y2201000D02*
D03*
X3145000Y2246000D02*
D03*
M02*
