%FSLAX44Y44*%
%MOMM*%
G71*
G01*
G75*
G04 Layer_Color=128*
%ADD10R,1.6000X1.5000*%
%ADD11R,1.5000X1.4000*%
%ADD12R,1.4000X1.5000*%
%ADD13R,0.6500X1.1000*%
%ADD14R,1.5000X1.6000*%
%ADD15R,1.1000X0.6500*%
%ADD16R,0.9500X3.2000*%
%ADD17R,10.5000X8.3000*%
%ADD18R,1.8000X3.5000*%
%ADD19R,1.9000X1.5000*%
%ADD20O,0.4000X2.2500*%
%ADD21R,0.9000X0.6500*%
%ADD22O,1.7000X0.3500*%
%ADD23O,0.5500X1.7500*%
%ADD24O,1.7500X0.5500*%
%ADD25R,2.5000X3.8500*%
%ADD26R,1.5000X2.8000*%
%ADD27R,1.0000X3.0500*%
%ADD28R,5.5500X6.5000*%
%ADD29R,2.1000X5.6000*%
%ADD30R,2.1000X1.4000*%
%ADD31C,0.2000*%
%ADD32C,1.5000*%
%ADD33C,0.8000*%
%ADD34C,1.2000*%
%ADD35C,0.7500*%
%ADD36C,1.0000*%
%ADD37C,0.2540*%
%ADD38R,1.5000X1.5000*%
%ADD39C,1.5000*%
%ADD40R,1.5000X1.5000*%
%ADD41C,1.0000*%
%ADD42C,7.0000*%
%ADD43C,2.5400*%
%ADD44C,0.5000*%
%ADD45C,0.9000*%
%ADD46C,1.0160*%
%ADD47C,1.9160*%
G04:AMPARAMS|DCode=48|XSize=2.424mm|YSize=2.424mm|CornerRadius=0mm|HoleSize=0mm|Usage=FLASHONLY|Rotation=0.000|XOffset=0mm|YOffset=0mm|HoleType=Round|Shape=Relief|Width=0.254mm|Gap=0.254mm|Entries=4|*
%AMTHD48*
7,0,0,2.4240,1.9160,0.2540,45*
%
%ADD48THD48*%
%ADD49C,1.3160*%
%ADD50C,4.5160*%
%ADD51C,2.5160*%
G04:AMPARAMS|DCode=52|XSize=3.024mm|YSize=3.024mm|CornerRadius=0mm|HoleSize=0mm|Usage=FLASHONLY|Rotation=0.000|XOffset=0mm|YOffset=0mm|HoleType=Round|Shape=Relief|Width=0.254mm|Gap=0.254mm|Entries=4|*
%AMTHD52*
7,0,0,3.0240,2.5160,0.2540,45*
%
%ADD52THD52*%
%ADD53C,1.2160*%
%ADD54C,1.5160*%
%ADD55C,0.2500*%
%ADD56C,0.6000*%
%ADD57C,0.3810*%
%ADD58C,0.2032*%
%ADD59R,1.8032X1.7032*%
%ADD60R,1.7032X1.6032*%
%ADD61R,1.6032X1.7032*%
%ADD62R,0.8532X1.3032*%
%ADD63R,1.7032X1.8032*%
%ADD64R,1.3032X0.8532*%
%ADD65R,1.1532X3.4032*%
%ADD66R,10.7032X8.5032*%
%ADD67R,2.0032X3.7032*%
%ADD68R,2.1032X1.7032*%
%ADD69O,0.6032X2.4532*%
%ADD70R,1.1032X0.8532*%
%ADD71O,1.9032X0.5532*%
%ADD72O,0.7532X1.9532*%
%ADD73O,1.9532X0.7532*%
%ADD74R,2.7032X4.0532*%
%ADD75R,1.7032X3.0032*%
%ADD76R,1.2032X3.2532*%
%ADD77R,5.7532X6.7032*%
%ADD78R,2.3032X5.8032*%
%ADD79R,2.3032X1.6032*%
%ADD80R,1.7032X1.7032*%
%ADD81C,1.7032*%
%ADD82R,1.7032X1.7032*%
%ADD83C,1.2032*%
%ADD84C,7.2032*%
%ADD85C,2.7432*%
%ADD86C,0.7032*%
D11*
X2230000Y2035000D02*
D03*
Y2055000D02*
D03*
X2255000Y2035000D02*
D03*
Y2055000D02*
D03*
D12*
X2495000Y2285000D02*
D03*
X2515000D02*
D03*
Y2260000D02*
D03*
X2495000D02*
D03*
D14*
X1812000Y2010000D02*
D03*
X1793000D02*
D03*
X1875500Y1990000D02*
D03*
X1894500D02*
D03*
X1875500Y2015000D02*
D03*
X1894500D02*
D03*
X1967000Y1962500D02*
D03*
X1948000D02*
D03*
X1948000Y1987500D02*
D03*
X1967000D02*
D03*
X1812000Y1955000D02*
D03*
X1793000D02*
D03*
X1814500Y1910000D02*
D03*
X1795500D02*
D03*
X1894500D02*
D03*
X1875500D02*
D03*
X1875500Y1935000D02*
D03*
X1894500D02*
D03*
D37*
X1450000Y1825000D02*
Y2675000D01*
Y1825000D02*
X3450000D01*
Y2675000D01*
X1450000D02*
X3450000D01*
X3025000Y2715235D02*
Y2700000D01*
X3032617D01*
X3035157Y2702539D01*
Y2705078D01*
X3032617Y2707617D01*
X3025000D01*
X3032617D01*
X3035157Y2710157D01*
Y2712696D01*
X3032617Y2715235D01*
X3025000D01*
X3042774Y2700000D02*
X3047852D01*
X3050392Y2702539D01*
Y2707617D01*
X3047852Y2710157D01*
X3042774D01*
X3040235Y2707617D01*
Y2702539D01*
X3042774Y2700000D01*
X3058009Y2710157D02*
X3063088D01*
X3065627Y2707617D01*
Y2700000D01*
X3058009D01*
X3055470Y2702539D01*
X3058009Y2705078D01*
X3065627D01*
X3070705Y2710157D02*
Y2700000D01*
Y2705078D01*
X3073244Y2707617D01*
X3075784Y2710157D01*
X3078323D01*
X3096097Y2715235D02*
Y2700000D01*
X3088480D01*
X3085940Y2702539D01*
Y2707617D01*
X3088480Y2710157D01*
X3096097D01*
X3124028Y2715235D02*
X3118950D01*
X3116411Y2712696D01*
Y2702539D01*
X3118950Y2700000D01*
X3124028D01*
X3126567Y2702539D01*
Y2712696D01*
X3124028Y2715235D01*
X3131646Y2710157D02*
Y2702539D01*
X3134185Y2700000D01*
X3141802D01*
Y2710157D01*
X3149420Y2712696D02*
Y2710157D01*
X3146880D01*
X3151959D01*
X3149420D01*
Y2702539D01*
X3151959Y2700000D01*
X3159576D02*
X3164655D01*
X3162115D01*
Y2715235D01*
X3159576D01*
X3172272Y2700000D02*
X3177351D01*
X3174811D01*
Y2710157D01*
X3172272D01*
X3184968Y2700000D02*
Y2710157D01*
X3192586D01*
X3195125Y2707617D01*
Y2700000D01*
X3207821D02*
X3202743D01*
X3200203Y2702539D01*
Y2707617D01*
X3202743Y2710157D01*
X3207821D01*
X3210360Y2707617D01*
Y2705078D01*
X3200203D01*
X3217978Y2697461D02*
X3220517Y2700000D01*
Y2702539D01*
X3217978D01*
Y2700000D01*
X3220517D01*
X3217978Y2697461D01*
X3215439Y2694922D01*
X3256065Y2700000D02*
X3245909D01*
X3256065Y2710157D01*
Y2712696D01*
X3253526Y2715235D01*
X3248448D01*
X3245909Y2712696D01*
X3261143D02*
X3263683Y2715235D01*
X3268761D01*
X3271300Y2712696D01*
Y2702539D01*
X3268761Y2700000D01*
X3263683D01*
X3261143Y2702539D01*
Y2712696D01*
X3276379D02*
X3278918Y2715235D01*
X3283996D01*
X3286535Y2712696D01*
Y2702539D01*
X3283996Y2700000D01*
X3278918D01*
X3276379Y2702539D01*
Y2712696D01*
X3291614Y2700000D02*
Y2710157D01*
X3294153D01*
X3296692Y2707617D01*
Y2700000D01*
Y2707617D01*
X3299231Y2710157D01*
X3301771Y2707617D01*
Y2700000D01*
X3306849D02*
Y2710157D01*
X3309388D01*
X3311927Y2707617D01*
Y2700000D01*
Y2707617D01*
X3314466Y2710157D01*
X3317006Y2707617D01*
Y2700000D01*
X3337319Y2710157D02*
X3347476Y2700000D01*
X3342397Y2705078D01*
X3347476Y2710157D01*
X3337319Y2700000D01*
X3367789Y2712696D02*
X3370328Y2715235D01*
X3375406D01*
X3377946Y2712696D01*
Y2710157D01*
X3375406Y2707617D01*
X3377946Y2705078D01*
Y2702539D01*
X3375406Y2700000D01*
X3370328D01*
X3367789Y2702539D01*
Y2705078D01*
X3370328Y2707617D01*
X3367789Y2710157D01*
Y2712696D01*
X3370328Y2707617D02*
X3375406D01*
X3393181Y2715235D02*
X3383024D01*
Y2707617D01*
X3388102Y2710157D01*
X3390642D01*
X3393181Y2707617D01*
Y2702539D01*
X3390642Y2700000D01*
X3385563D01*
X3383024Y2702539D01*
X3398259Y2700000D02*
Y2710157D01*
X3400798D01*
X3403338Y2707617D01*
Y2700000D01*
Y2707617D01*
X3405877Y2710157D01*
X3408416Y2707617D01*
Y2700000D01*
X3413494D02*
Y2710157D01*
X3416034D01*
X3418573Y2707617D01*
Y2700000D01*
Y2707617D01*
X3421112Y2710157D01*
X3423651Y2707617D01*
Y2700000D01*
M02*
