M48
;Layer_Color=9474304
;FILE_FORMAT=2:5
INCH,LZ
;TYPE=PLATED
T1F00S00C0.02500
T2F00S00C0.03150
T3F00S00C0.03346
T4F00S00C0.03543
%
T01
X0015095Y0337886
X0025095
X0035095
X0045095
X0055095
Y0369886
X0045095
X0035095
X0025095
X0015095
X0065095
X0075095
X0085095
X0105646Y0369886
X0115646
X0125646
X0135646
Y0337886
X0125646
X0115646
X0105646
X0085095Y0337886
X0075095
X0065095
T02
X0107615Y0301666
X0125331
Y0321351
X0107615
T03
X0064307Y0194776
X0076118
X0087929
X009974Y0194776
X0111551Y0194776
X0123363
X0135174Y0194776
X0052496
X0040685
X0028874Y0194776
X0017063Y0194776
Y0244776
X0028874Y0244776
X0040685Y0244776
X0052496
X0064307
X0076118
X0087929
X009974Y0244776
X0111551Y0244776
X0123363
X0135174Y0244776
T04
X0071118Y0137099
X0081118
X0102614
X0112615
Y0168595
X0102614
Y0105603
X0112615
X0049622
X0039622
Y0137099
X0049622
Y0168595
X0039622
X0042811Y0271941
X0032811
X0022811
X0022811Y0310327
X0032811
X0042811
X006415Y0310327
X007415
X008415
X008415Y0271941
X007415
X006415
X0104504
X0114504
X0124504
M30
