%FSLAX25Y25*%
%MOIN*%
G70*
G01*
G75*
G04 Layer_Physical_Order=2*
G04 Layer_Color=16711680*
%ADD10C,0.06000*%
%ADD11C,0.01575*%
%ADD12C,0.00787*%
%ADD13C,0.05315*%
%ADD14C,0.05512*%
%ADD15O,0.05000X0.10000*%
%ADD16R,0.05000X0.10000*%
%ADD17C,0.07000*%
%ADD18R,0.25590X0.25590*%
%ADD19C,0.39370*%
G36*
X138213Y380326D02*
X140217Y379844D01*
X142122Y379056D01*
X143879Y377978D01*
X145447Y376640D01*
X146785Y375072D01*
X147863Y373315D01*
X148651Y371410D01*
X149133Y369406D01*
X149285Y367469D01*
X149261Y367351D01*
X149261Y16034D01*
X149281Y15933D01*
X149133Y14044D01*
X148651Y12039D01*
X147863Y10135D01*
X146785Y8377D01*
X145447Y6810D01*
X143879Y5471D01*
X142122Y4394D01*
X140217Y3605D01*
X138213Y3124D01*
X136276Y2972D01*
X136158Y2995D01*
X16077Y2995D01*
X15965Y2973D01*
X14044Y3124D01*
X12039Y3605D01*
X10135Y4394D01*
X8377Y5471D01*
X6810Y6810D01*
X5471Y8377D01*
X4394Y10135D01*
X3605Y12039D01*
X3124Y14044D01*
X2975Y15936D01*
X2995Y16037D01*
X2997Y367350D01*
D01*
Y367350D01*
D01*
X2973Y367468D01*
X3126Y369405D01*
X3607Y371409D01*
X4396Y373313D01*
X5473Y375071D01*
X6812Y376639D01*
X8379Y377977D01*
X10137Y379054D01*
X12041Y379843D01*
X14046Y380324D01*
X15982Y380477D01*
X16101Y380453D01*
D01*
X16101D01*
X16101D01*
X136158Y380454D01*
X136276Y380478D01*
X138213Y380326D01*
D02*
G37*
%LPC*%
G36*
X22311Y271441D02*
X18900D01*
Y269441D01*
X19033Y268429D01*
X19424Y267486D01*
X20045Y266676D01*
X20856Y266054D01*
X21799Y265663D01*
X22311Y265596D01*
Y271441D01*
D02*
G37*
G36*
X63650D02*
X60238D01*
Y269441D01*
X60372Y268429D01*
X60763Y267486D01*
X61384Y266676D01*
X62194Y266054D01*
X63138Y265663D01*
X63650Y265596D01*
Y271441D01*
D02*
G37*
G36*
X68061D02*
X64650D01*
Y265596D01*
X65162Y265663D01*
X66106Y266054D01*
X66916Y266676D01*
X67537Y267486D01*
X67928Y268429D01*
X68061Y269441D01*
Y271441D01*
D02*
G37*
G36*
X17063Y248945D02*
X15984Y248803D01*
X14979Y248387D01*
X14115Y247724D01*
X13453Y246861D01*
X13036Y245855D01*
X12894Y244776D01*
X13036Y243697D01*
X13453Y242691D01*
X14115Y241828D01*
X14979Y241165D01*
X15984Y240749D01*
X17063Y240606D01*
X18143Y240749D01*
X19148Y241165D01*
X20012Y241828D01*
X20674Y242691D01*
X21091Y243697D01*
X21233Y244776D01*
X21091Y245855D01*
X20674Y246861D01*
X20012Y247724D01*
X19148Y248387D01*
X18143Y248803D01*
X17063Y248945D01*
D02*
G37*
G36*
X28874Y198945D02*
X27795Y198803D01*
X26790Y198387D01*
X25926Y197724D01*
X25263Y196861D01*
X24847Y195855D01*
X24705Y194776D01*
X24847Y193697D01*
X25263Y192691D01*
X25926Y191828D01*
X26790Y191165D01*
X27795Y190749D01*
X28874Y190606D01*
X29953Y190749D01*
X30959Y191165D01*
X31823Y191828D01*
X32485Y192691D01*
X32902Y193697D01*
X33044Y194776D01*
X32902Y195855D01*
X32485Y196861D01*
X31823Y197724D01*
X30959Y198387D01*
X29953Y198803D01*
X28874Y198945D01*
D02*
G37*
G36*
X52496Y248945D02*
X51417Y248803D01*
X50412Y248387D01*
X49548Y247724D01*
X48886Y246861D01*
X48469Y245855D01*
X48327Y244776D01*
X48469Y243697D01*
X48886Y242691D01*
X49548Y241828D01*
X50412Y241165D01*
X51417Y240748D01*
X52496Y240606D01*
X53576Y240748D01*
X54581Y241165D01*
X55445Y241828D01*
X56107Y242691D01*
X56524Y243697D01*
X56666Y244776D01*
X56524Y245855D01*
X56107Y246861D01*
X55445Y247724D01*
X54581Y248387D01*
X53576Y248803D01*
X52496Y248945D01*
D02*
G37*
G36*
X64307D02*
X63228Y248803D01*
X62223Y248387D01*
X61359Y247724D01*
X60697Y246861D01*
X60280Y245855D01*
X60138Y244776D01*
X60280Y243697D01*
X60697Y242691D01*
X61359Y241828D01*
X62223Y241165D01*
X63228Y240748D01*
X64307Y240606D01*
X65387Y240748D01*
X66392Y241165D01*
X67256Y241828D01*
X67918Y242691D01*
X68335Y243697D01*
X68477Y244776D01*
X68335Y245855D01*
X67918Y246861D01*
X67256Y247724D01*
X66392Y248387D01*
X65387Y248803D01*
X64307Y248945D01*
D02*
G37*
G36*
X108416Y271441D02*
X105004D01*
Y265596D01*
X105517Y265663D01*
X106460Y266054D01*
X107270Y266676D01*
X107892Y267486D01*
X108282Y268429D01*
X108416Y269441D01*
Y271441D01*
D02*
G37*
G36*
X107115Y305670D02*
X106561Y305597D01*
X105579Y305191D01*
X104736Y304544D01*
X104089Y303701D01*
X103683Y302719D01*
X103610Y302166D01*
X107115D01*
Y305670D01*
D02*
G37*
G36*
X108115D02*
Y302166D01*
X111619D01*
X111546Y302719D01*
X111139Y303701D01*
X110493Y304544D01*
X109650Y305191D01*
X108668Y305597D01*
X108115Y305670D01*
D02*
G37*
G36*
X64150Y316739D02*
X63138Y316605D01*
X62194Y316214D01*
X61384Y315593D01*
X60763Y314783D01*
X60372Y313840D01*
X60238Y312827D01*
Y307827D01*
X60372Y306815D01*
X60763Y305871D01*
X61384Y305061D01*
X62194Y304440D01*
X63138Y304049D01*
X64150Y303916D01*
X65162Y304049D01*
X66106Y304440D01*
X66916Y305061D01*
X67537Y305871D01*
X67928Y306815D01*
X68061Y307827D01*
Y312827D01*
X67928Y313840D01*
X67537Y314783D01*
X66916Y315593D01*
X66106Y316214D01*
X65162Y316605D01*
X64150Y316739D01*
D02*
G37*
G36*
X111619Y301166D02*
X108115D01*
Y297661D01*
X108668Y297734D01*
X109650Y298141D01*
X110493Y298788D01*
X111139Y299631D01*
X111546Y300612D01*
X111619Y301166D01*
D02*
G37*
G36*
X22311Y278287D02*
X21799Y278220D01*
X20856Y277829D01*
X20045Y277207D01*
X19424Y276397D01*
X19033Y275454D01*
X18900Y274441D01*
Y272441D01*
X22311D01*
Y278287D01*
D02*
G37*
G36*
X105004D02*
Y272441D01*
X108416D01*
Y274441D01*
X108282Y275454D01*
X107892Y276397D01*
X107270Y277207D01*
X106460Y277829D01*
X105517Y278220D01*
X105004Y278287D01*
D02*
G37*
G36*
X107115Y301166D02*
X103610D01*
X103683Y300612D01*
X104089Y299631D01*
X104736Y298788D01*
X105579Y298141D01*
X106561Y297734D01*
X107115Y297661D01*
Y301166D01*
D02*
G37*
G36*
X76618Y67448D02*
Y46873D01*
X97194D01*
X97046Y49128D01*
X96507Y51836D01*
X95620Y54451D01*
X94399Y56927D01*
X92865Y59223D01*
X91044Y61299D01*
X88968Y63119D01*
X86673Y64653D01*
X84196Y65874D01*
X81582Y66762D01*
X78874Y67301D01*
X76618Y67448D01*
D02*
G37*
G36*
X117469Y105103D02*
X113115D01*
Y100749D01*
X113888Y100850D01*
X115075Y101342D01*
X116094Y102124D01*
X116875Y103143D01*
X117367Y104329D01*
X117469Y105103D01*
D02*
G37*
G36*
X113115Y110457D02*
Y106103D01*
X117469D01*
X117367Y106876D01*
X116875Y108063D01*
X116094Y109082D01*
X115075Y109864D01*
X113888Y110355D01*
X113115Y110457D01*
D02*
G37*
G36*
X75618Y67448D02*
X73363Y67301D01*
X70655Y66762D01*
X68041Y65874D01*
X65564Y64653D01*
X63269Y63119D01*
X61193Y61299D01*
X59372Y59223D01*
X57838Y56927D01*
X56617Y54451D01*
X55730Y51836D01*
X55191Y49128D01*
X55043Y46873D01*
X75618D01*
Y67448D01*
D02*
G37*
G36*
Y45873D02*
X55043D01*
X55191Y43618D01*
X55730Y40910D01*
X56617Y38295D01*
X57838Y35819D01*
X59372Y33523D01*
X61193Y31447D01*
X63269Y29627D01*
X65564Y28093D01*
X68041Y26872D01*
X70655Y25984D01*
X73363Y25445D01*
X75618Y25298D01*
Y45873D01*
D02*
G37*
G36*
X97194D02*
X76618D01*
Y25298D01*
X78874Y25445D01*
X81582Y25984D01*
X84196Y26872D01*
X86673Y28093D01*
X88968Y29627D01*
X91044Y31447D01*
X92865Y33523D01*
X94399Y35819D01*
X95620Y38295D01*
X96507Y40910D01*
X97046Y43618D01*
X97194Y45873D01*
D02*
G37*
G36*
X143441Y60546D02*
X115095D01*
Y32200D01*
X143441D01*
Y60546D01*
D02*
G37*
G36*
X49622Y110523D02*
X48349Y110355D01*
X47162Y109864D01*
X46143Y109082D01*
X45362Y108063D01*
X44872Y106882D01*
X44870D01*
Y106882D01*
D01*
D01*
X44869D01*
X44667D01*
X44260Y107154D01*
X44260Y107152D01*
X43883Y108063D01*
X43101Y109082D01*
X42082Y109864D01*
X40896Y110355D01*
X39622Y110523D01*
X38349Y110355D01*
X37162Y109864D01*
X36143Y109082D01*
X35361Y108063D01*
X34870Y106876D01*
X34702Y105603D01*
X34870Y104329D01*
X34975Y104077D01*
X21760Y90863D01*
X21282Y90147D01*
X21114Y89302D01*
Y60546D01*
X8796D01*
Y32200D01*
X37142D01*
Y60546D01*
X25529D01*
Y88388D01*
X38097Y100955D01*
X38349Y100850D01*
X39622Y100683D01*
X40896Y100850D01*
X42082Y101342D01*
X43101Y102124D01*
X43883Y103143D01*
X44372Y104323D01*
X44375D01*
Y104323D01*
D01*
D01*
X44376D01*
X44870D01*
Y104323D01*
X44872D01*
X45362Y103143D01*
X46143Y102124D01*
X47162Y101342D01*
X48349Y100850D01*
X49622Y100683D01*
X50896Y100850D01*
X52082Y101342D01*
X53101Y102124D01*
X53883Y103143D01*
X54375Y104329D01*
X54542Y105603D01*
X54375Y106876D01*
X53883Y108063D01*
X53101Y109082D01*
X52082Y109864D01*
X50896Y110355D01*
X49622Y110523D01*
D02*
G37*
G36*
X40685Y198945D02*
X39606Y198803D01*
X38601Y198387D01*
X37737Y197724D01*
X37074Y196861D01*
X36658Y195855D01*
X36516Y194776D01*
X36658Y193697D01*
X37074Y192691D01*
X37737Y191828D01*
X38601Y191165D01*
X39606Y190748D01*
X40685Y190606D01*
X41765Y190748D01*
X42770Y191165D01*
X43634Y191828D01*
X44296Y192691D01*
X44713Y193697D01*
X44855Y194776D01*
X44713Y195855D01*
X44296Y196861D01*
X43634Y197724D01*
X42770Y198387D01*
X41765Y198803D01*
X40685Y198945D01*
D02*
G37*
G36*
X52496D02*
X51417Y198803D01*
X50412Y198387D01*
X49548Y197724D01*
X48886Y196861D01*
X48469Y195855D01*
X48327Y194776D01*
X48469Y193697D01*
X48886Y192691D01*
X49548Y191828D01*
X50412Y191165D01*
X51417Y190748D01*
X52496Y190606D01*
X53576Y190748D01*
X54581Y191165D01*
X55445Y191828D01*
X56107Y192691D01*
X56524Y193697D01*
X56666Y194776D01*
X56524Y195855D01*
X56107Y196861D01*
X55445Y197724D01*
X54581Y198387D01*
X53576Y198803D01*
X52496Y198945D01*
D02*
G37*
G36*
X64307D02*
X63228Y198803D01*
X62223Y198387D01*
X61359Y197724D01*
X60697Y196861D01*
X60280Y195855D01*
X60138Y194776D01*
X60280Y193697D01*
X60697Y192691D01*
X61359Y191828D01*
X62223Y191165D01*
X63228Y190748D01*
X64307Y190606D01*
X65387Y190748D01*
X66392Y191165D01*
X67256Y191828D01*
X67918Y192691D01*
X68335Y193697D01*
X68477Y194776D01*
X68335Y195855D01*
X67918Y196861D01*
X67256Y197724D01*
X66392Y198387D01*
X65387Y198803D01*
X64307Y198945D01*
D02*
G37*
G36*
X50122Y173449D02*
Y169095D01*
X54477D01*
X54375Y169868D01*
X53883Y171055D01*
X53101Y172074D01*
X52082Y172856D01*
X50896Y173347D01*
X50122Y173449D01*
D02*
G37*
G36*
X49622Y142019D02*
X48349Y141851D01*
X47162Y141360D01*
X46143Y140578D01*
X45362Y139559D01*
X44872Y138378D01*
X44870D01*
Y138378D01*
D01*
D01*
X44869D01*
X44667D01*
X44260Y138650D01*
X44260Y138648D01*
X43883Y139559D01*
X43101Y140578D01*
X42082Y141360D01*
X40896Y141851D01*
X39622Y142019D01*
X38349Y141851D01*
X37162Y141360D01*
X36143Y140578D01*
X35361Y139559D01*
X34870Y138372D01*
X34702Y137099D01*
X34870Y135825D01*
X35361Y134639D01*
X36143Y133620D01*
X37162Y132838D01*
X38349Y132346D01*
X39622Y132179D01*
X40896Y132346D01*
X42082Y132838D01*
X43101Y133620D01*
X43883Y134639D01*
X44372Y135820D01*
X44375D01*
Y135820D01*
D01*
D01*
X44376D01*
X44870D01*
Y135820D01*
X44872D01*
X45362Y134639D01*
X46143Y133620D01*
X47162Y132838D01*
X48349Y132346D01*
X49622Y132179D01*
X50896Y132346D01*
X52082Y132838D01*
X53101Y133620D01*
X53883Y134639D01*
X54375Y135825D01*
X54542Y137099D01*
X54375Y138372D01*
X53883Y139559D01*
X53101Y140578D01*
X52082Y141360D01*
X50896Y141851D01*
X49622Y142019D01*
D02*
G37*
G36*
X39622Y173515D02*
X38349Y173347D01*
X37162Y172856D01*
X36143Y172074D01*
X35361Y171055D01*
X34870Y169868D01*
X34702Y168595D01*
X34870Y167321D01*
X35361Y166135D01*
X36143Y165116D01*
X37162Y164334D01*
X38349Y163842D01*
X39622Y163675D01*
X40896Y163842D01*
X41148Y163947D01*
X60131Y144964D01*
Y127256D01*
X60299Y126411D01*
X60778Y125695D01*
X60778Y125695D01*
X60778Y125695D01*
X82431Y104042D01*
X83148Y103563D01*
X83992Y103395D01*
X98249D01*
X98354Y103143D01*
X99136Y102124D01*
X100154Y101342D01*
X101341Y100850D01*
X102614Y100683D01*
X103888Y100850D01*
X105075Y101342D01*
X106094Y102124D01*
X106875Y103143D01*
X107364Y104323D01*
X107367D01*
Y104323D01*
D01*
D01*
X107368D01*
X107862D01*
Y104323D01*
X107864D01*
X108354Y103143D01*
X109135Y102124D01*
X110154Y101342D01*
X111341Y100850D01*
X112115Y100749D01*
Y105602D01*
Y110457D01*
X111341Y110355D01*
X110154Y109864D01*
X109135Y109082D01*
X108354Y108063D01*
X107864Y106882D01*
X107862D01*
Y106882D01*
D01*
D01*
X107861D01*
X107659D01*
X107252Y107154D01*
X107253Y107152D01*
X106875Y108063D01*
X106094Y109082D01*
X105075Y109864D01*
X103888Y110355D01*
X102614Y110523D01*
X101341Y110355D01*
X100154Y109864D01*
X99136Y109082D01*
X98354Y108063D01*
X98249Y107810D01*
X84907D01*
X64547Y128171D01*
Y145878D01*
X64379Y146723D01*
X63900Y147439D01*
X47801Y163539D01*
X48079Y163954D01*
X48349Y163842D01*
X49122Y163741D01*
Y168594D01*
Y173449D01*
X48349Y173347D01*
X47162Y172856D01*
X46143Y172074D01*
X45362Y171055D01*
X44872Y169874D01*
X44870D01*
Y169874D01*
D01*
D01*
X44869D01*
X44667D01*
X44260Y170146D01*
X44260Y170144D01*
X43883Y171055D01*
X43101Y172074D01*
X42082Y172856D01*
X40896Y173347D01*
X39622Y173515D01*
D02*
G37*
G36*
X54477Y168095D02*
X50122D01*
Y163741D01*
X50896Y163842D01*
X52082Y164334D01*
X53101Y165116D01*
X53883Y166135D01*
X54375Y167321D01*
X54477Y168095D01*
D02*
G37*
G36*
X74150Y316739D02*
X73137Y316605D01*
X72194Y316214D01*
X71384Y315593D01*
X70762Y314783D01*
X70372Y313840D01*
X70238Y312827D01*
Y307827D01*
X70372Y306815D01*
X70762Y305871D01*
X71384Y305061D01*
X72194Y304440D01*
X73137Y304049D01*
X74150Y303916D01*
X75162Y304049D01*
X76105Y304440D01*
X76916Y305061D01*
X77537Y305871D01*
X77928Y306815D01*
X78061Y307827D01*
Y312827D01*
X77928Y313840D01*
X77537Y314783D01*
X76916Y315593D01*
X76105Y316214D01*
X75162Y316605D01*
X74150Y316739D01*
D02*
G37*
G36*
X115646Y376298D02*
X114634Y376165D01*
X113690Y375774D01*
X112880Y375152D01*
X112259Y374342D01*
X111868Y373399D01*
X111735Y372386D01*
Y367386D01*
X111868Y366374D01*
X112259Y365431D01*
X112880Y364621D01*
X113690Y363999D01*
X114634Y363608D01*
X115646Y363475D01*
X116658Y363608D01*
X117602Y363999D01*
X118412Y364621D01*
X119033Y365431D01*
X119424Y366374D01*
X119557Y367386D01*
Y372386D01*
X119424Y373399D01*
X119033Y374342D01*
X118412Y375152D01*
X117602Y375774D01*
X116658Y376165D01*
X115646Y376298D01*
D02*
G37*
G36*
X89006Y337386D02*
X85595D01*
Y331541D01*
X86107Y331608D01*
X87050Y331999D01*
X87861Y332620D01*
X88482Y333431D01*
X88873Y334374D01*
X89006Y335386D01*
Y337386D01*
D02*
G37*
G36*
X84595Y344232D02*
X84082Y344164D01*
X83139Y343774D01*
X82329Y343152D01*
X81707Y342342D01*
X81317Y341399D01*
X81183Y340386D01*
Y338386D01*
X84595D01*
Y344232D01*
D02*
G37*
G36*
Y337386D02*
X81183D01*
Y335386D01*
X81317Y334374D01*
X81707Y333431D01*
X82329Y332620D01*
X83139Y331999D01*
X84082Y331608D01*
X84595Y331541D01*
Y337386D01*
D02*
G37*
G36*
X18973Y344264D02*
X11217D01*
Y331508D01*
X18973D01*
Y344264D01*
D02*
G37*
G36*
X135646Y376298D02*
X134634Y376165D01*
X133690Y375774D01*
X132880Y375152D01*
X132259Y374342D01*
X131868Y373399D01*
X131735Y372386D01*
Y367386D01*
X131868Y366374D01*
X132259Y365431D01*
X132880Y364621D01*
X133690Y363999D01*
X134634Y363608D01*
X135646Y363475D01*
X136658Y363608D01*
X137602Y363999D01*
X138412Y364621D01*
X139033Y365431D01*
X139424Y366374D01*
X139558Y367386D01*
Y372386D01*
X139424Y373399D01*
X139033Y374342D01*
X138412Y375152D01*
X137602Y375774D01*
X136658Y376165D01*
X135646Y376298D01*
D02*
G37*
G36*
X109524Y337386D02*
X106146D01*
Y331508D01*
X109524D01*
Y337386D01*
D02*
G37*
G36*
X85595Y344232D02*
Y338386D01*
X89006D01*
Y340386D01*
X88873Y341399D01*
X88482Y342342D01*
X87861Y343152D01*
X87050Y343774D01*
X86107Y344164D01*
X85595Y344232D01*
D02*
G37*
G36*
X25095Y376298D02*
X24082Y376164D01*
X23139Y375774D01*
X22329Y375152D01*
X21707Y374342D01*
X21317Y373398D01*
X21183Y372386D01*
Y367386D01*
X21317Y366374D01*
X21707Y365430D01*
X22329Y364620D01*
X23139Y363999D01*
X24082Y363608D01*
X25095Y363475D01*
X26107Y363608D01*
X27051Y363999D01*
X27861Y364620D01*
X28482Y365430D01*
X28873Y366374D01*
X29006Y367386D01*
Y372386D01*
X28873Y373398D01*
X28482Y374342D01*
X27861Y375152D01*
X27051Y375774D01*
X26107Y376164D01*
X25095Y376298D01*
D02*
G37*
G36*
X35095D02*
X34082Y376164D01*
X33139Y375774D01*
X32329Y375152D01*
X31707Y374342D01*
X31317Y373398D01*
X31183Y372386D01*
Y367386D01*
X31317Y366374D01*
X31707Y365430D01*
X32329Y364620D01*
X33139Y363999D01*
X34082Y363608D01*
X35095Y363475D01*
X36107Y363608D01*
X37051Y363999D01*
X37861Y364620D01*
X38482Y365430D01*
X38873Y366374D01*
X39006Y367386D01*
Y372386D01*
X38873Y373398D01*
X38482Y374342D01*
X37861Y375152D01*
X37051Y375774D01*
X36107Y376164D01*
X35095Y376298D01*
D02*
G37*
G36*
X55095D02*
X54082Y376164D01*
X53139Y375774D01*
X52329Y375152D01*
X51707Y374342D01*
X51317Y373398D01*
X51183Y372386D01*
Y367386D01*
X51317Y366374D01*
X51707Y365430D01*
X52329Y364620D01*
X53139Y363999D01*
X54082Y363608D01*
X55095Y363475D01*
X56107Y363608D01*
X57051Y363999D01*
X57861Y364620D01*
X58482Y365430D01*
X58873Y366374D01*
X59006Y367386D01*
Y372386D01*
X58873Y373398D01*
X58482Y374342D01*
X57861Y375152D01*
X57051Y375774D01*
X56107Y376164D01*
X55095Y376298D01*
D02*
G37*
G36*
X65095D02*
X64082Y376164D01*
X63139Y375774D01*
X62329Y375152D01*
X61707Y374342D01*
X61317Y373398D01*
X61183Y372386D01*
Y367386D01*
X61317Y366374D01*
X61707Y365430D01*
X62329Y364620D01*
X63139Y363999D01*
X64082Y363608D01*
X65095Y363475D01*
X66107Y363608D01*
X67050Y363999D01*
X67861Y364620D01*
X68482Y365430D01*
X68873Y366374D01*
X69006Y367386D01*
Y372386D01*
X68873Y373398D01*
X68482Y374342D01*
X67861Y375152D01*
X67050Y375774D01*
X66107Y376164D01*
X65095Y376298D01*
D02*
G37*
G36*
X109524Y344264D02*
X106146D01*
Y338386D01*
X109524D01*
Y344264D01*
D02*
G37*
G36*
X105646Y376298D02*
X104634Y376165D01*
X103690Y375774D01*
X102880Y375152D01*
X102259Y374342D01*
X101868Y373399D01*
X101735Y372386D01*
Y367386D01*
X101868Y366374D01*
X102259Y365431D01*
X102880Y364621D01*
X103690Y363999D01*
X104634Y363608D01*
X105646Y363475D01*
X106658Y363608D01*
X107602Y363999D01*
X108412Y364621D01*
X109033Y365431D01*
X109424Y366374D01*
X109557Y367386D01*
Y372386D01*
X109424Y373399D01*
X109033Y374342D01*
X108412Y375152D01*
X107602Y375774D01*
X106658Y376165D01*
X105646Y376298D01*
D02*
G37*
G36*
X15095Y376298D02*
X14082Y376164D01*
X13139Y375774D01*
X12329Y375152D01*
X11707Y374342D01*
X11317Y373398D01*
X11183Y372386D01*
Y367386D01*
X11317Y366374D01*
X11707Y365430D01*
X12329Y364620D01*
X13139Y363999D01*
X14082Y363608D01*
X15095Y363475D01*
X16107Y363608D01*
X17051Y363999D01*
X17861Y364620D01*
X18482Y365430D01*
X18873Y366374D01*
X19006Y367386D01*
Y372386D01*
X18873Y373398D01*
X18482Y374342D01*
X17861Y375152D01*
X17051Y375774D01*
X16107Y376164D01*
X15095Y376298D01*
D02*
G37*
G36*
X125646Y376298D02*
X124634Y376165D01*
X123690Y375774D01*
X122880Y375152D01*
X122259Y374342D01*
X121868Y373399D01*
X121735Y372386D01*
Y367386D01*
X121868Y366374D01*
X122259Y365431D01*
X122880Y364621D01*
X123438Y364192D01*
Y356832D01*
X114085Y347479D01*
X113606Y346763D01*
X113438Y345918D01*
Y343580D01*
X112880Y343152D01*
X112259Y342342D01*
X111868Y341399D01*
X111735Y340386D01*
Y335386D01*
X111868Y334374D01*
X112259Y333431D01*
X112880Y332621D01*
X113438Y332192D01*
Y330297D01*
X108452Y325311D01*
X107615Y325421D01*
X106561Y325282D01*
X105579Y324876D01*
X104736Y324229D01*
X104089Y323386D01*
X103683Y322404D01*
X103544Y321351D01*
X103683Y320297D01*
X104089Y319316D01*
X104736Y318473D01*
X105407Y317958D01*
Y313280D01*
X105575Y312435D01*
X106053Y311719D01*
X106053Y311719D01*
X106053D01*
Y311719D01*
X106053Y311719D01*
X117084Y300689D01*
Y277916D01*
X116635Y277694D01*
X116460Y277829D01*
X115517Y278220D01*
X114504Y278353D01*
X113492Y278220D01*
X112549Y277829D01*
X111739Y277207D01*
X111117Y276397D01*
X110726Y275454D01*
X110593Y274441D01*
Y269441D01*
X110726Y268429D01*
X111117Y267486D01*
X111739Y266676D01*
X112549Y266054D01*
X113492Y265663D01*
X114504Y265530D01*
X115517Y265663D01*
X115974Y265853D01*
X116252Y265437D01*
X115368Y264553D01*
X114889Y263837D01*
X114721Y262992D01*
Y248119D01*
X114273Y247898D01*
X113636Y248387D01*
X112631Y248803D01*
X111551Y248945D01*
X110472Y248803D01*
X109467Y248387D01*
X108603Y247724D01*
X107940Y246861D01*
X107524Y245855D01*
X107382Y244776D01*
X107524Y243697D01*
X107940Y242691D01*
X108603Y241828D01*
X109467Y241165D01*
X110472Y240749D01*
X111551Y240606D01*
X112631Y240749D01*
X113636Y241165D01*
X114273Y241654D01*
X114721Y241432D01*
Y238182D01*
X109990Y233451D01*
X109512Y232735D01*
X109344Y231890D01*
Y198293D01*
X108603Y197724D01*
X107940Y196861D01*
X107524Y195855D01*
X107382Y194776D01*
X107524Y193697D01*
X107940Y192691D01*
X108603Y191828D01*
X109467Y191165D01*
X110472Y190749D01*
X111551Y190606D01*
X112631Y190749D01*
X113636Y191165D01*
X114500Y191828D01*
X115162Y192691D01*
X115579Y193697D01*
X115721Y194776D01*
X115579Y195855D01*
X115162Y196861D01*
X114500Y197724D01*
X113759Y198293D01*
Y230975D01*
X118490Y235706D01*
X118490Y235706D01*
X118490Y235706D01*
X118969Y236423D01*
X119137Y237267D01*
Y242894D01*
X119627Y242991D01*
X119752Y242691D01*
X120414Y241828D01*
X121278Y241165D01*
X122283Y240749D01*
X123363Y240606D01*
X124442Y240749D01*
X125447Y241165D01*
X126311Y241828D01*
X126587Y242187D01*
X127060Y242027D01*
Y197525D01*
X126587Y197365D01*
X126311Y197724D01*
X125447Y198387D01*
X124442Y198803D01*
X123363Y198945D01*
X122283Y198803D01*
X121278Y198387D01*
X120414Y197724D01*
X119752Y196861D01*
X119335Y195855D01*
X119193Y194776D01*
X119335Y193697D01*
X119752Y192691D01*
X120414Y191828D01*
X121155Y191260D01*
Y169509D01*
X116594Y164949D01*
X116218Y165278D01*
Y165278D01*
X116218Y165278D01*
D01*
X116875Y166135D01*
X117367Y167321D01*
X117534Y168595D01*
X117367Y169868D01*
X116875Y171055D01*
X116094Y172074D01*
X115075Y172856D01*
X113888Y173347D01*
X112615Y173515D01*
X111341Y173347D01*
X111089Y173243D01*
X96043Y188289D01*
Y192027D01*
X96516Y192187D01*
X96792Y191828D01*
X97656Y191165D01*
X98661Y190749D01*
X99740Y190606D01*
X100820Y190749D01*
X101825Y191165D01*
X102689Y191828D01*
X103351Y192691D01*
X103768Y193697D01*
X103910Y194776D01*
X103768Y195855D01*
X103351Y196861D01*
X102689Y197724D01*
X101825Y198387D01*
X100820Y198803D01*
X99740Y198945D01*
X98661Y198803D01*
X97656Y198387D01*
X96792Y197724D01*
X96516Y197364D01*
X96043Y197525D01*
Y242027D01*
X96516Y242187D01*
X96792Y241828D01*
X97656Y241165D01*
X98661Y240749D01*
X99740Y240606D01*
X100820Y240749D01*
X101825Y241165D01*
X102689Y241828D01*
X103351Y242691D01*
X103768Y243697D01*
X103910Y244776D01*
X103768Y245855D01*
X103351Y246861D01*
X102689Y247724D01*
X101948Y248292D01*
Y265949D01*
X102397Y266171D01*
X102549Y266054D01*
X103492Y265663D01*
X104004Y265596D01*
Y271940D01*
Y278287D01*
X103492Y278220D01*
X102549Y277829D01*
X102397Y277712D01*
X101948Y277933D01*
Y331508D01*
X105146D01*
Y337885D01*
Y344264D01*
X101948D01*
Y345240D01*
X101780Y346085D01*
X101302Y346802D01*
X84941Y363162D01*
X85095Y363475D01*
X86107Y363608D01*
X87050Y363999D01*
X87861Y364620D01*
X88482Y365430D01*
X88873Y366374D01*
X89006Y367386D01*
Y372386D01*
X88873Y373398D01*
X88482Y374342D01*
X87861Y375152D01*
X87050Y375774D01*
X86107Y376164D01*
X85095Y376298D01*
X84082Y376164D01*
X83139Y375774D01*
X82329Y375152D01*
X81707Y374342D01*
X81317Y373398D01*
X81183Y372386D01*
Y367573D01*
X80721Y367382D01*
X79006Y369097D01*
Y372386D01*
X78873Y373398D01*
X78482Y374342D01*
X77861Y375152D01*
X77051Y375774D01*
X76107Y376164D01*
X75095Y376298D01*
X74082Y376164D01*
X73139Y375774D01*
X72329Y375152D01*
X71707Y374342D01*
X71317Y373398D01*
X71183Y372386D01*
Y367386D01*
X71317Y366374D01*
X71707Y365430D01*
X72329Y364620D01*
X73139Y363999D01*
X74082Y363608D01*
X75095Y363475D01*
X76107Y363608D01*
X77051Y363999D01*
X77508Y364350D01*
X97533Y344326D01*
Y287929D01*
X45563D01*
X44718Y287760D01*
X44002Y287282D01*
X36171Y279451D01*
X35693Y278735D01*
X35525Y277890D01*
Y277813D01*
X35076Y277591D01*
X34767Y277829D01*
X33824Y278220D01*
X32811Y278353D01*
X32044Y278252D01*
X31822Y278700D01*
X56026Y302904D01*
X56026Y302904D01*
X56026Y302904D01*
X56505Y303620D01*
X56673Y304465D01*
Y316342D01*
X72681Y332350D01*
X73139Y331999D01*
X74082Y331608D01*
X75095Y331475D01*
X76107Y331608D01*
X77051Y331999D01*
X77861Y332620D01*
X78482Y333431D01*
X78873Y334374D01*
X79006Y335386D01*
Y340386D01*
X78873Y341399D01*
X78482Y342342D01*
X77861Y343152D01*
X77051Y343774D01*
X76107Y344164D01*
X75095Y344298D01*
X74082Y344164D01*
X73139Y343774D01*
X72329Y343152D01*
X71707Y342342D01*
X71317Y341399D01*
X71183Y340386D01*
Y337097D01*
X69468Y335382D01*
X69006Y335573D01*
Y340386D01*
X68873Y341399D01*
X68482Y342342D01*
X67861Y343152D01*
X67050Y343774D01*
X66107Y344164D01*
X65095Y344298D01*
X64082Y344164D01*
X63139Y343774D01*
X62329Y343152D01*
X61707Y342342D01*
X61317Y341399D01*
X61183Y340386D01*
Y335386D01*
X61317Y334374D01*
X61707Y333431D01*
X62329Y332620D01*
X63139Y331999D01*
X64082Y331608D01*
X64947Y331494D01*
X65107Y331021D01*
X52904Y318817D01*
X52425Y318101D01*
X52257Y317256D01*
Y305379D01*
X25998Y279120D01*
X25519Y278404D01*
X25413Y277868D01*
X24945Y277692D01*
X24767Y277829D01*
X23824Y278220D01*
X23311Y278287D01*
Y271940D01*
Y265596D01*
X23824Y265663D01*
X24767Y266054D01*
X24903Y266158D01*
X25351Y265937D01*
Y246975D01*
X25263Y246861D01*
X24847Y245855D01*
X24705Y244776D01*
X24847Y243697D01*
X25263Y242691D01*
X25926Y241828D01*
X26790Y241165D01*
X27795Y240749D01*
X28874Y240606D01*
X29953Y240749D01*
X30959Y241165D01*
X31823Y241828D01*
X32485Y242691D01*
X32902Y243697D01*
X33044Y244776D01*
X32902Y245855D01*
X32485Y246861D01*
X31823Y247724D01*
X30959Y248387D01*
X29953Y248803D01*
X29767Y248828D01*
Y266324D01*
X30215Y266545D01*
X30856Y266054D01*
X31799Y265663D01*
X32811Y265530D01*
X33824Y265663D01*
X34767Y266054D01*
X35076Y266291D01*
X35525Y266070D01*
Y247729D01*
X35693Y246884D01*
X36171Y246167D01*
X36638Y245701D01*
X36516Y244776D01*
X36658Y243697D01*
X37074Y242691D01*
X37737Y241828D01*
X38601Y241165D01*
X39606Y240748D01*
X40685Y240606D01*
X41765Y240748D01*
X42770Y241165D01*
X43634Y241828D01*
X44296Y242691D01*
X44713Y243697D01*
X44855Y244776D01*
X44713Y245855D01*
X44296Y246861D01*
X43634Y247724D01*
X42770Y248387D01*
X41765Y248803D01*
X40685Y248945D01*
X40316Y248897D01*
X39940Y249226D01*
Y266191D01*
X40389Y266412D01*
X40856Y266054D01*
X41799Y265663D01*
X42811Y265530D01*
X43824Y265663D01*
X44767Y266054D01*
X45577Y266676D01*
X46199Y267486D01*
X46589Y268429D01*
X46723Y269441D01*
Y272730D01*
X52584Y278592D01*
X62755D01*
X62852Y278101D01*
X62194Y277829D01*
X61384Y277207D01*
X60763Y276397D01*
X60372Y275454D01*
X60238Y274441D01*
Y272441D01*
X68061D01*
Y274441D01*
X67928Y275454D01*
X67537Y276397D01*
X66916Y277207D01*
X66106Y277829D01*
X65447Y278101D01*
X65545Y278592D01*
X72755D01*
X72852Y278101D01*
X72194Y277829D01*
X71384Y277207D01*
X70762Y276397D01*
X70372Y275454D01*
X70239Y274441D01*
Y269441D01*
X70372Y268429D01*
X70762Y267486D01*
X71384Y266676D01*
X72194Y266054D01*
X73137Y265663D01*
X74150Y265530D01*
X75162Y265663D01*
X76106Y266054D01*
X76916Y266676D01*
X77537Y267486D01*
X77928Y268429D01*
X78061Y269441D01*
Y274441D01*
X77928Y275454D01*
X77537Y276397D01*
X76916Y277207D01*
X76106Y277829D01*
X75447Y278101D01*
X75545Y278592D01*
X82755D01*
X82852Y278101D01*
X82194Y277829D01*
X81384Y277207D01*
X80762Y276397D01*
X80372Y275454D01*
X80238Y274441D01*
Y270893D01*
X80076Y270075D01*
Y247187D01*
X79602Y247026D01*
X79067Y247724D01*
X78203Y248387D01*
X77197Y248803D01*
X76118Y248945D01*
X75039Y248803D01*
X74034Y248387D01*
X73170Y247724D01*
X72508Y246861D01*
X72091Y245855D01*
X71949Y244776D01*
X72071Y243850D01*
X51188Y222968D01*
X43048D01*
X42203Y222800D01*
X41486Y222321D01*
X17989Y198824D01*
X17063Y198945D01*
X15984Y198803D01*
X14979Y198387D01*
X14115Y197724D01*
X13453Y196861D01*
X13036Y195855D01*
X12894Y194776D01*
X13036Y193697D01*
X13453Y192691D01*
X14115Y191828D01*
X14979Y191165D01*
X15984Y190749D01*
X17063Y190606D01*
X18143Y190749D01*
X19148Y191165D01*
X20012Y191828D01*
X20674Y192691D01*
X21091Y193697D01*
X21233Y194776D01*
X21111Y195701D01*
X43962Y218552D01*
X52103D01*
X52947Y218721D01*
X53664Y219199D01*
X53664Y219199D01*
X53664Y219199D01*
X75193Y240728D01*
X76118Y240606D01*
X77197Y240748D01*
X78203Y241165D01*
X79067Y241828D01*
X79602Y242526D01*
X80076Y242365D01*
Y197187D01*
X79602Y197026D01*
X79067Y197724D01*
X78203Y198387D01*
X77197Y198803D01*
X76118Y198945D01*
X75039Y198803D01*
X74034Y198387D01*
X73170Y197724D01*
X72508Y196861D01*
X72091Y195855D01*
X71949Y194776D01*
X72091Y193697D01*
X72508Y192691D01*
X73170Y191828D01*
X74034Y191165D01*
X75039Y190748D01*
X76118Y190606D01*
X77197Y190748D01*
X78203Y191165D01*
X79067Y191828D01*
X79602Y192525D01*
X80076Y192365D01*
Y167430D01*
X80244Y166585D01*
X80722Y165869D01*
X80722Y165869D01*
X80722Y165869D01*
X104436Y142155D01*
X104158Y141739D01*
X103888Y141851D01*
X102614Y142019D01*
X101341Y141851D01*
X100154Y141360D01*
X99136Y140578D01*
X98354Y139559D01*
X97862Y138372D01*
X97694Y137099D01*
X97862Y135825D01*
X98354Y134639D01*
X98959Y133850D01*
X98738Y133401D01*
X87938D01*
X85766Y135573D01*
X85871Y135825D01*
X86039Y137099D01*
X85871Y138372D01*
X85379Y139559D01*
X84597Y140578D01*
X83578Y141360D01*
X82392Y141851D01*
X81118Y142019D01*
X79845Y141851D01*
X78658Y141360D01*
X77639Y140578D01*
X76858Y139559D01*
X76368Y138378D01*
X76366D01*
Y138378D01*
D01*
D01*
X76365D01*
X76163D01*
X75756Y138650D01*
X75756Y138648D01*
X75379Y139559D01*
X74597Y140578D01*
X73578Y141360D01*
X72392Y141851D01*
X71118Y142019D01*
X69845Y141851D01*
X68658Y141360D01*
X67639Y140578D01*
X66857Y139559D01*
X66366Y138372D01*
X66198Y137099D01*
X66366Y135825D01*
X66857Y134639D01*
X67639Y133620D01*
X68658Y132838D01*
X69845Y132346D01*
X71118Y132179D01*
X72392Y132346D01*
X73578Y132838D01*
X74597Y133620D01*
X75379Y134639D01*
X75868Y135820D01*
X75871D01*
Y135820D01*
D01*
D01*
X75872D01*
X76366D01*
Y135820D01*
X76368D01*
X76858Y134639D01*
X77639Y133620D01*
X78658Y132838D01*
X79845Y132346D01*
X81118Y132179D01*
X82392Y132346D01*
X82644Y132451D01*
X85463Y129632D01*
X86179Y129154D01*
X87024Y128986D01*
X121394D01*
X122239Y129154D01*
X122955Y129632D01*
X122955Y129632D01*
X122955Y129632D01*
X130829Y137506D01*
X130829Y137506D01*
X130829Y137506D01*
X131308Y138222D01*
X131476Y139067D01*
Y192027D01*
X131949Y192187D01*
X132225Y191828D01*
X133089Y191165D01*
X134095Y190748D01*
X135174Y190606D01*
X136253Y190748D01*
X137258Y191165D01*
X138122Y191828D01*
X138785Y192691D01*
X139201Y193697D01*
X139343Y194776D01*
X139221Y195701D01*
X141656Y198136D01*
X142134Y198852D01*
X142303Y199697D01*
Y306587D01*
X142134Y307432D01*
X141656Y308148D01*
X129291Y320513D01*
X129401Y321351D01*
X129263Y322404D01*
X128856Y323386D01*
X128209Y324229D01*
X127366Y324876D01*
X126384Y325282D01*
X125331Y325421D01*
X124278Y325282D01*
X123296Y324876D01*
X122453Y324229D01*
X121806Y323386D01*
X121399Y322404D01*
X121261Y321351D01*
X121399Y320297D01*
X121806Y319316D01*
X122453Y318473D01*
X123296Y317826D01*
X124278Y317419D01*
X125331Y317281D01*
X126169Y317391D01*
X137887Y305673D01*
Y248470D01*
X137439Y248249D01*
X137258Y248387D01*
X136253Y248803D01*
X135174Y248945D01*
X134095Y248803D01*
X133089Y248387D01*
X132225Y247724D01*
X131949Y247364D01*
X131476Y247525D01*
Y249866D01*
X131308Y250711D01*
X130829Y251427D01*
X126712Y255544D01*
Y266247D01*
X127270Y266676D01*
X127892Y267486D01*
X128282Y268429D01*
X128416Y269441D01*
Y274441D01*
X128282Y275454D01*
X127892Y276397D01*
X127270Y277207D01*
X126460Y277829D01*
X125517Y278220D01*
X124504Y278353D01*
X123492Y278220D01*
X122549Y277829D01*
X121948Y277368D01*
X121499Y277589D01*
Y299253D01*
X121973Y299414D01*
X122453Y298788D01*
X123296Y298141D01*
X124278Y297734D01*
X125331Y297596D01*
X126384Y297734D01*
X127366Y298141D01*
X128209Y298788D01*
X128856Y299631D01*
X129263Y300612D01*
X129401Y301666D01*
X129263Y302719D01*
X128856Y303701D01*
X128209Y304544D01*
X127366Y305191D01*
X126384Y305597D01*
X125331Y305736D01*
X124278Y305597D01*
X123296Y305191D01*
X122453Y304544D01*
X121806Y303701D01*
X121507Y302978D01*
X121009Y302929D01*
X120852Y303164D01*
X109822Y314194D01*
Y317958D01*
X110493Y318473D01*
X111139Y319316D01*
X111546Y320297D01*
X111685Y321351D01*
X111574Y322188D01*
X117207Y327821D01*
X117207Y327821D01*
X117207Y327821D01*
X117686Y328538D01*
X117854Y329382D01*
Y332192D01*
X118412Y332621D01*
X119033Y333431D01*
X119424Y334374D01*
X119557Y335386D01*
Y340386D01*
X119424Y341399D01*
X119033Y342342D01*
X118412Y343152D01*
X117854Y343580D01*
Y345003D01*
X127207Y354357D01*
X127686Y355073D01*
X127854Y355918D01*
X127854Y355918D01*
X127854Y355918D01*
Y355918D01*
Y364192D01*
X128412Y364621D01*
X129033Y365431D01*
X129424Y366374D01*
X129558Y367386D01*
Y372386D01*
X129424Y373399D01*
X129033Y374342D01*
X128412Y375152D01*
X127602Y375774D01*
X126658Y376165D01*
X125646Y376298D01*
D02*
G37*
G36*
X45595Y376232D02*
Y370386D01*
X49006D01*
Y372386D01*
X48873Y373398D01*
X48482Y374342D01*
X47861Y375152D01*
X47050Y375774D01*
X46107Y376164D01*
X45595Y376232D01*
D02*
G37*
G36*
X25095Y344298D02*
X24082Y344164D01*
X23139Y343774D01*
X22329Y343152D01*
X21707Y342342D01*
X21317Y341399D01*
X21183Y340386D01*
Y335386D01*
X21317Y334374D01*
X21707Y333431D01*
X22329Y332620D01*
X23139Y331999D01*
X24082Y331608D01*
X25095Y331475D01*
X26107Y331608D01*
X27051Y331999D01*
X27861Y332620D01*
X28482Y333431D01*
X28873Y334374D01*
X29006Y335386D01*
Y340386D01*
X28873Y341399D01*
X28482Y342342D01*
X27861Y343152D01*
X27051Y343774D01*
X26107Y344164D01*
X25095Y344298D01*
D02*
G37*
G36*
X42811Y316739D02*
X41799Y316605D01*
X40856Y316215D01*
X40045Y315593D01*
X39424Y314783D01*
X39033Y313840D01*
X38900Y312827D01*
Y307827D01*
X39033Y306815D01*
X39424Y305872D01*
X40045Y305062D01*
X40856Y304440D01*
X41799Y304049D01*
X42811Y303916D01*
X43824Y304049D01*
X44767Y304440D01*
X45577Y305062D01*
X46199Y305872D01*
X46589Y306815D01*
X46723Y307827D01*
Y312827D01*
X46589Y313840D01*
X46199Y314783D01*
X45577Y315593D01*
X44767Y316215D01*
X43824Y316605D01*
X42811Y316739D01*
D02*
G37*
G36*
X84150Y316739D02*
X83138Y316605D01*
X82194Y316214D01*
X81384Y315593D01*
X80762Y314783D01*
X80372Y313840D01*
X80238Y312827D01*
Y307827D01*
X80372Y306815D01*
X80762Y305871D01*
X81384Y305061D01*
X82194Y304440D01*
X83138Y304049D01*
X84150Y303916D01*
X85162Y304049D01*
X86106Y304440D01*
X86916Y305061D01*
X87537Y305871D01*
X87928Y306815D01*
X88061Y307827D01*
Y312827D01*
X87928Y313840D01*
X87537Y314783D01*
X86916Y315593D01*
X86106Y316214D01*
X85162Y316605D01*
X84150Y316739D01*
D02*
G37*
G36*
X22811Y316739D02*
X21799Y316605D01*
X20856Y316215D01*
X20045Y315593D01*
X19424Y314783D01*
X19033Y313840D01*
X18900Y312827D01*
Y307827D01*
X19033Y306815D01*
X19424Y305872D01*
X20045Y305062D01*
X20856Y304440D01*
X21799Y304049D01*
X22811Y303916D01*
X23824Y304049D01*
X24767Y304440D01*
X25577Y305062D01*
X26199Y305872D01*
X26589Y306815D01*
X26723Y307827D01*
Y312827D01*
X26589Y313840D01*
X26199Y314783D01*
X25577Y315593D01*
X24767Y316215D01*
X23824Y316605D01*
X22811Y316739D01*
D02*
G37*
G36*
X32811D02*
X31799Y316605D01*
X30856Y316215D01*
X30046Y315593D01*
X29424Y314783D01*
X29033Y313840D01*
X28900Y312827D01*
Y307827D01*
X29033Y306815D01*
X29424Y305872D01*
X30046Y305062D01*
X30856Y304440D01*
X31799Y304049D01*
X32811Y303916D01*
X33824Y304049D01*
X34767Y304440D01*
X35577Y305062D01*
X36199Y305872D01*
X36589Y306815D01*
X36723Y307827D01*
Y312827D01*
X36589Y313840D01*
X36199Y314783D01*
X35577Y315593D01*
X34767Y316215D01*
X33824Y316605D01*
X32811Y316739D01*
D02*
G37*
G36*
X35095Y344298D02*
X34082Y344164D01*
X33139Y343774D01*
X32329Y343152D01*
X31707Y342342D01*
X31317Y341399D01*
X31183Y340386D01*
Y335386D01*
X31317Y334374D01*
X31707Y333431D01*
X32329Y332620D01*
X33139Y331999D01*
X34082Y331608D01*
X35095Y331475D01*
X36107Y331608D01*
X37051Y331999D01*
X37861Y332620D01*
X38482Y333431D01*
X38873Y334374D01*
X39006Y335386D01*
Y340386D01*
X38873Y341399D01*
X38482Y342342D01*
X37861Y343152D01*
X37051Y343774D01*
X36107Y344164D01*
X35095Y344298D01*
D02*
G37*
G36*
X44595Y376232D02*
X44082Y376164D01*
X43139Y375774D01*
X42329Y375152D01*
X41707Y374342D01*
X41317Y373398D01*
X41183Y372386D01*
Y370386D01*
X44595D01*
Y376232D01*
D02*
G37*
G36*
X49006Y369386D02*
X45595D01*
Y363541D01*
X46107Y363608D01*
X47050Y363999D01*
X47861Y364620D01*
X48482Y365430D01*
X48873Y366374D01*
X49006Y367386D01*
Y369386D01*
D02*
G37*
G36*
X44595D02*
X41183D01*
Y367386D01*
X41317Y366374D01*
X41707Y365430D01*
X42329Y364620D01*
X43139Y363999D01*
X44082Y363608D01*
X44595Y363541D01*
Y369386D01*
D02*
G37*
G36*
X135646Y344298D02*
X134634Y344164D01*
X133690Y343774D01*
X132880Y343152D01*
X132259Y342342D01*
X131868Y341399D01*
X131735Y340386D01*
Y335386D01*
X131868Y334374D01*
X132259Y333431D01*
X132880Y332621D01*
X133690Y331999D01*
X134634Y331608D01*
X135646Y331475D01*
X136658Y331608D01*
X137602Y331999D01*
X138412Y332621D01*
X139033Y333431D01*
X139424Y334374D01*
X139558Y335386D01*
Y340386D01*
X139424Y341399D01*
X139033Y342342D01*
X138412Y343152D01*
X137602Y343774D01*
X136658Y344164D01*
X135646Y344298D01*
D02*
G37*
G36*
X45095Y344298D02*
X44082Y344164D01*
X43139Y343774D01*
X42329Y343152D01*
X41707Y342342D01*
X41317Y341399D01*
X41183Y340386D01*
Y335386D01*
X41317Y334374D01*
X41707Y333431D01*
X42329Y332620D01*
X43139Y331999D01*
X44082Y331608D01*
X45095Y331475D01*
X46107Y331608D01*
X47050Y331999D01*
X47861Y332620D01*
X48482Y333431D01*
X48873Y334374D01*
X49006Y335386D01*
Y340386D01*
X48873Y341399D01*
X48482Y342342D01*
X47861Y343152D01*
X47050Y343774D01*
X46107Y344164D01*
X45095Y344298D01*
D02*
G37*
G36*
X55095D02*
X54082Y344164D01*
X53139Y343774D01*
X52329Y343152D01*
X51707Y342342D01*
X51317Y341399D01*
X51183Y340386D01*
Y335386D01*
X51317Y334374D01*
X51707Y333431D01*
X52329Y332620D01*
X53139Y331999D01*
X54082Y331608D01*
X55095Y331475D01*
X56107Y331608D01*
X57051Y331999D01*
X57861Y332620D01*
X58482Y333431D01*
X58873Y334374D01*
X59006Y335386D01*
Y340386D01*
X58873Y341399D01*
X58482Y342342D01*
X57861Y343152D01*
X57051Y343774D01*
X56107Y344164D01*
X55095Y344298D01*
D02*
G37*
G36*
X125646Y344298D02*
X124634Y344164D01*
X123690Y343774D01*
X122880Y343152D01*
X122259Y342342D01*
X121868Y341399D01*
X121735Y340386D01*
Y335386D01*
X121868Y334374D01*
X122259Y333431D01*
X122880Y332621D01*
X123690Y331999D01*
X124634Y331608D01*
X125646Y331475D01*
X126658Y331608D01*
X127602Y331999D01*
X128412Y332621D01*
X129033Y333431D01*
X129424Y334374D01*
X129558Y335386D01*
Y340386D01*
X129424Y341399D01*
X129033Y342342D01*
X128412Y343152D01*
X127602Y343774D01*
X126658Y344164D01*
X125646Y344298D01*
D02*
G37*
%LPD*%
G36*
X108354Y134639D02*
X108959Y133850D01*
X108738Y133401D01*
X106491D01*
X106270Y133850D01*
X106875Y134639D01*
X107364Y135820D01*
X107864D01*
X108354Y134639D01*
D02*
G37*
G36*
X91627Y272995D02*
Y247525D01*
X91154Y247364D01*
X90878Y247724D01*
X90014Y248387D01*
X89009Y248803D01*
X87929Y248945D01*
X86850Y248803D01*
X85845Y248387D01*
X84981Y247724D01*
X84965Y247703D01*
X84491Y247864D01*
Y265575D01*
X85162Y265663D01*
X86106Y266054D01*
X86916Y266676D01*
X87537Y267486D01*
X87928Y268429D01*
X88061Y269441D01*
Y274441D01*
X87928Y275454D01*
X87541Y276388D01*
X87957Y276666D01*
X91627Y272995D01*
D02*
G37*
G36*
X97533Y248292D02*
X96792Y247724D01*
X96516Y247364D01*
X96043Y247525D01*
Y273910D01*
X96043Y273910D01*
X96043Y273910D01*
Y273910D01*
X96043D01*
X96043Y273910D01*
X95875Y274755D01*
X95396Y275471D01*
X88506Y282361D01*
X87790Y282839D01*
X86945Y283007D01*
X51669D01*
X50824Y282839D01*
X50108Y282361D01*
X45225Y277477D01*
X44767Y277829D01*
X43824Y278220D01*
X42811Y278353D01*
X41862Y278228D01*
X41641Y278676D01*
X46478Y283513D01*
X97533D01*
Y248292D01*
D02*
G37*
G36*
X86374Y278248D02*
X86096Y277833D01*
X85447Y278101D01*
X85545Y278592D01*
X86031D01*
X86374Y278248D01*
D02*
G37*
G36*
X122297Y266214D02*
Y254630D01*
X122465Y253785D01*
X122943Y253068D01*
X127060Y248951D01*
Y247525D01*
X126587Y247365D01*
X126311Y247724D01*
X125447Y248387D01*
X124442Y248803D01*
X123363Y248945D01*
X122283Y248803D01*
X121278Y248387D01*
X120414Y247724D01*
X119752Y246861D01*
X119627Y246561D01*
X119137Y246658D01*
Y262078D01*
X120852Y263793D01*
X121331Y264510D01*
X121499Y265354D01*
Y266294D01*
X121872Y266478D01*
X122297Y266214D01*
D02*
G37*
G36*
X127060Y192027D02*
Y139982D01*
X120480Y133401D01*
X116491D01*
X116270Y133850D01*
X116875Y134639D01*
X117367Y135825D01*
X117534Y137099D01*
X117367Y138372D01*
X116875Y139559D01*
X116094Y140578D01*
X115075Y141360D01*
X113888Y141851D01*
X112615Y142019D01*
X111341Y141851D01*
X111089Y141747D01*
X84491Y168344D01*
Y191688D01*
X84965Y191849D01*
X84981Y191828D01*
X85845Y191165D01*
X86850Y190748D01*
X87929Y190606D01*
X89009Y190748D01*
X90014Y191165D01*
X90878Y191828D01*
X91154Y192187D01*
X91627Y192026D01*
Y187374D01*
X91795Y186529D01*
X92274Y185813D01*
X92274Y185813D01*
X92274Y185813D01*
X104436Y173651D01*
X104158Y173235D01*
X103888Y173347D01*
X102614Y173515D01*
X101341Y173347D01*
X100154Y172856D01*
X99136Y172074D01*
X98354Y171055D01*
X97862Y169868D01*
X97694Y168595D01*
X97862Y167321D01*
X98354Y166135D01*
X99136Y165116D01*
X100154Y164334D01*
X101341Y163842D01*
X102614Y163675D01*
X103888Y163842D01*
X104140Y163947D01*
X107943Y160144D01*
X107943D01*
X107943Y160144D01*
X107943Y160144D01*
Y160144D01*
X108659Y159665D01*
X109504Y159497D01*
X116473D01*
X117318Y159665D01*
X118034Y160144D01*
X118034Y160144D01*
X118034Y160144D01*
X124924Y167034D01*
X125402Y167750D01*
X125570Y168595D01*
X125570Y168595D01*
X125570Y168595D01*
Y168595D01*
Y191260D01*
X126311Y191828D01*
X126587Y192187D01*
X127060Y192027D01*
D02*
G37*
G36*
X116261Y164615D02*
X115703Y164057D01*
X115216Y164171D01*
X115143Y164386D01*
X115931Y164991D01*
X116261Y164615D01*
D02*
G37*
G36*
X91627Y242026D02*
Y197525D01*
X91154Y197364D01*
X90878Y197724D01*
X90014Y198387D01*
X89009Y198803D01*
X87929Y198945D01*
X86850Y198803D01*
X85845Y198387D01*
X84981Y197724D01*
X84965Y197703D01*
X84491Y197863D01*
Y241688D01*
X84965Y241849D01*
X84981Y241828D01*
X85845Y241165D01*
X86850Y240748D01*
X87929Y240606D01*
X89009Y240748D01*
X90014Y241165D01*
X90878Y241828D01*
X91154Y242187D01*
X91627Y242026D01*
D02*
G37*
G36*
X132225Y241828D02*
X133089Y241165D01*
X134095Y240748D01*
X135174Y240606D01*
X136253Y240748D01*
X137258Y241165D01*
X137439Y241303D01*
X137887Y241082D01*
Y200612D01*
X136099Y198824D01*
X135174Y198945D01*
X134095Y198803D01*
X133089Y198387D01*
X132225Y197724D01*
X131949Y197364D01*
X131476Y197525D01*
Y242027D01*
X131949Y242187D01*
X132225Y241828D01*
D02*
G37*
D11*
X116929Y237267D02*
Y262992D01*
X111551Y231890D02*
X116929Y237267D01*
Y262992D02*
X119291Y265354D01*
X129268Y139067D02*
Y249866D01*
X121394Y131193D02*
X129268Y139067D01*
X124504Y254630D02*
X129268Y249866D01*
X140095Y199697D02*
Y306587D01*
X135174Y194776D02*
X140095Y199697D01*
X125331Y321351D02*
X140095Y306587D01*
X124504Y254630D02*
Y271941D01*
X116473Y161705D02*
X123363Y168595D01*
X109504Y161705D02*
X116473D01*
X123363Y168595D02*
Y194776D01*
X17063D02*
X43048Y220760D01*
X52103D01*
X76118Y244776D01*
X87024Y131193D02*
X121394D01*
X81118Y137099D02*
X87024Y131193D01*
X42811Y271941D02*
X51669Y280800D01*
X86945D01*
X93835Y273910D01*
X39622Y168595D02*
X62339Y145878D01*
Y127256D02*
Y145878D01*
Y127256D02*
X83992Y105603D01*
X102614D01*
Y168595D02*
X109504Y161705D01*
X54465Y317256D02*
X75095Y337886D01*
X115646Y329382D02*
Y337886D01*
X107615Y321351D02*
X115646Y329382D01*
Y337886D02*
Y345918D01*
X125646Y355918D01*
Y369886D01*
X37733Y247729D02*
X40685Y244776D01*
X107615Y313280D02*
Y321351D01*
X99740Y244776D02*
Y345240D01*
X75095Y369886D02*
X99740Y345240D01*
X27559Y246091D02*
X28874Y244776D01*
X82284Y167430D02*
X112615Y137099D01*
X82284Y167430D02*
Y270075D01*
X84150Y271941D01*
X23322Y89302D02*
X39622Y105603D01*
X23322Y50588D02*
Y89302D01*
X107615Y313280D02*
X119291Y301603D01*
X111551Y194776D02*
Y231890D01*
X119291Y265354D02*
Y301603D01*
X27559Y246091D02*
Y277559D01*
X54465Y304465D01*
Y317256D01*
X37733Y247729D02*
Y277890D01*
X45563Y285721D01*
X99301D01*
X93835Y187374D02*
Y273910D01*
Y187374D02*
X112615Y168595D01*
X136158Y787D02*
G03*
X151469Y16034I0J15311D01*
G01*
X788Y16037D02*
G03*
X16077Y787I15311J61D01*
G01*
X151469Y367351D02*
G03*
X136158Y382662I-15311J0D01*
G01*
X16101Y382661D02*
G03*
X789Y367350I0J-15311D01*
G01*
X16077Y787D02*
X136158Y787D01*
X788Y16037D02*
X789Y367350D01*
X16101Y382661D02*
X136158Y382662D01*
X151469Y16034D02*
X151469Y367351D01*
D12*
X0Y-5907D02*
Y-9843D01*
X1968D01*
X2624Y-9187D01*
Y-8531D01*
X1968Y-7875D01*
X0D01*
X1968D01*
X2624Y-7219D01*
Y-6563D01*
X1968Y-5907D01*
X0D01*
X4592Y-9843D02*
X5904D01*
X6560Y-9187D01*
Y-7875D01*
X5904Y-7219D01*
X4592D01*
X3936Y-7875D01*
Y-9187D01*
X4592Y-9843D01*
X8527Y-7219D02*
X9839D01*
X10495Y-7875D01*
Y-9843D01*
X8527D01*
X7871Y-9187D01*
X8527Y-8531D01*
X10495D01*
X11807Y-7219D02*
Y-9843D01*
Y-8531D01*
X12463Y-7875D01*
X13119Y-7219D01*
X13775D01*
X18367Y-5907D02*
Y-9843D01*
X16399D01*
X15743Y-9187D01*
Y-7875D01*
X16399Y-7219D01*
X18367D01*
X26238Y-5907D02*
X23614D01*
Y-9843D01*
X26238D01*
X23614Y-7875D02*
X24926D01*
X30174Y-5907D02*
Y-9843D01*
X28206D01*
X27550Y-9187D01*
Y-7875D01*
X28206Y-7219D01*
X30174D01*
X32798Y-11154D02*
X33454D01*
X34110Y-10498D01*
Y-7219D01*
X32142D01*
X31486Y-7875D01*
Y-9187D01*
X32142Y-9843D01*
X34110D01*
X37389D02*
X36078D01*
X35422Y-9187D01*
Y-7875D01*
X36078Y-7219D01*
X37389D01*
X38045Y-7875D01*
Y-8531D01*
X35422D01*
X43293Y-9843D02*
Y-5907D01*
X45261D01*
X45917Y-6563D01*
Y-7875D01*
X45261Y-8531D01*
X43293D01*
X44605D02*
X45917Y-9843D01*
X47885D02*
X49197D01*
X49853Y-9187D01*
Y-7875D01*
X49197Y-7219D01*
X47885D01*
X47229Y-7875D01*
Y-9187D01*
X47885Y-9843D01*
X51165Y-7219D02*
Y-9187D01*
X51821Y-9843D01*
X53788D01*
Y-7219D01*
X55756Y-6563D02*
Y-7219D01*
X55100D01*
X56412D01*
X55756D01*
Y-9187D01*
X56412Y-9843D01*
X60348D02*
X59036D01*
X58380Y-9187D01*
Y-7875D01*
X59036Y-7219D01*
X60348D01*
X61004Y-7875D01*
Y-8531D01*
X58380D01*
X64940Y-5907D02*
Y-9843D01*
X62972D01*
X62316Y-9187D01*
Y-7875D01*
X62972Y-7219D01*
X64940D01*
D13*
X125331Y321351D02*
D03*
Y301666D02*
D03*
X107615Y321351D02*
D03*
Y301666D02*
D03*
D14*
X123363Y194776D02*
D03*
Y244776D02*
D03*
X135174Y244776D02*
D03*
Y194776D02*
D03*
X111551Y244776D02*
D03*
Y194776D02*
D03*
X17063Y244776D02*
D03*
Y194776D02*
D03*
X76118Y194776D02*
D03*
Y244776D02*
D03*
X28874Y194776D02*
D03*
Y244776D02*
D03*
X87929Y194776D02*
D03*
Y244776D02*
D03*
X40685Y194776D02*
D03*
Y244776D02*
D03*
X99740Y194776D02*
D03*
Y244776D02*
D03*
X64307Y194776D02*
D03*
Y244776D02*
D03*
X52496Y194776D02*
D03*
Y244776D02*
D03*
D15*
X64150Y310327D02*
D03*
X74150D02*
D03*
X84150D02*
D03*
X135646Y369886D02*
D03*
X125646D02*
D03*
X115646D02*
D03*
X105646D02*
D03*
X135646Y337886D02*
D03*
X125646D02*
D03*
X115646D02*
D03*
X22811Y310327D02*
D03*
X32811D02*
D03*
X42811D02*
D03*
X124504Y271941D02*
D03*
X114504D02*
D03*
X104504D02*
D03*
X84150D02*
D03*
X74150D02*
D03*
X64150D02*
D03*
X42811D02*
D03*
X32811D02*
D03*
X22811D02*
D03*
X85095Y369886D02*
D03*
X75095D02*
D03*
X65095D02*
D03*
X55095D02*
D03*
X45095D02*
D03*
X35095D02*
D03*
X25095D02*
D03*
X15095D02*
D03*
X85095Y337886D02*
D03*
X75095D02*
D03*
X65095D02*
D03*
X55095D02*
D03*
X45095D02*
D03*
X35095D02*
D03*
X25095D02*
D03*
D16*
X105646Y337886D02*
D03*
X15095Y337886D02*
D03*
D17*
X49622Y168595D02*
D03*
X39622D02*
D03*
X112615D02*
D03*
X102614D02*
D03*
X49622Y137099D02*
D03*
X39622D02*
D03*
X81118D02*
D03*
X71118D02*
D03*
X112615D02*
D03*
X102614D02*
D03*
X49622Y105603D02*
D03*
X39622D02*
D03*
X112615D02*
D03*
X102614D02*
D03*
D18*
X129268Y46373D02*
D03*
X22969D02*
D03*
D19*
X76118D02*
D03*
M02*
