%FSTAX23Y23*%
%MOIN*%
%SFA1B1*%

%IPPOS*%
%ADD40R,0.118236X0.061149*%
%ADD41R,0.061149X0.055244*%
%ADD42R,0.055244X0.061149*%
%ADD43R,0.226503X0.175322*%
%ADD44R,0.175322X0.226503*%
%ADD45R,0.106425X0.074929*%
%ADD46R,0.104456X0.096582*%
%ADD47R,0.061149X0.118236*%
%ADD48O,0.074929X0.021779*%
%ADD49R,0.126110X0.173354*%
%ADD50R,0.173354X0.126110*%
%ADD51O,0.021779X0.074929*%
%ADD52C,0.165480*%
%ADD53C,0.067055*%
%ADD54R,0.067055X0.067055*%
%ADD55C,0.031622*%
%LNv2-1*%
%LPD*%
G54D40*
X03318Y03334D03*
Y03451D03*
X02966Y03092D03*
Y03209D03*
G54D41*
X03113Y0357D03*
Y03495D03*
X03369Y04777D03*
Y04852D03*
X03525D03*
Y04777D03*
X03447D03*
Y04852D03*
X03113Y03422D03*
Y03347D03*
X03819Y03327D03*
Y03402D03*
Y03475D03*
Y0355D03*
X02298Y04589D03*
Y04664D03*
X02468Y0423D03*
Y04155D03*
G54D42*
X03747Y04253D03*
X03672D03*
X03747Y04336D03*
X03672D03*
X02449Y04804D03*
X02374D03*
X02416Y03589D03*
X02341D03*
X02267D03*
X02192D03*
X02221Y0451D03*
X02296D03*
X02221Y04429D03*
X02296D03*
X02399Y03163D03*
X02324D03*
X03614Y04628D03*
X03539D03*
X02471Y03163D03*
X02546D03*
X0276Y04111D03*
X02685D03*
X03686Y04628D03*
X03761D03*
G54D43*
X0358Y041D03*
Y03701D03*
G54D44*
X02649Y04555D03*
X03048D03*
X02565Y03525D03*
X02964D03*
G54D45*
X02447Y04669D03*
Y04512D03*
X02497Y03876D03*
Y04033D03*
G54D46*
X02145Y04195D03*
X02336D03*
X02145Y04035D03*
X02336D03*
X02145Y03875D03*
X02336D03*
X02144Y03716D03*
X02335D03*
G54D47*
X03414Y04293D03*
X03297D03*
G54D48*
X02162Y03505D03*
Y0348D03*
Y03454D03*
Y03429D03*
Y03403D03*
Y03377D03*
Y03352D03*
X02387Y03505D03*
Y0348D03*
Y03454D03*
Y03429D03*
Y03403D03*
Y03377D03*
Y03352D03*
X03691Y03337D03*
Y03363D03*
Y03389D03*
Y03414D03*
Y0344D03*
Y03465D03*
Y03491D03*
Y03516D03*
Y03542D03*
Y03568D03*
X03466Y03337D03*
Y03363D03*
Y03389D03*
Y03414D03*
Y0344D03*
Y03465D03*
Y03491D03*
Y03516D03*
Y03542D03*
Y03568D03*
G54D49*
X03579Y03453D03*
G54D50*
X03298Y04553D03*
G54D51*
X03413Y04665D03*
X03387D03*
X03361D03*
X03336D03*
X0331D03*
X03285D03*
X03259D03*
X03234D03*
X03208D03*
X03182D03*
X03413Y0444D03*
X03387D03*
X03361D03*
X03336D03*
X0331D03*
X03285D03*
X03259D03*
X03234D03*
X03208D03*
X03182D03*
G54D52*
X02196Y03196D03*
X03771D03*
Y04771D03*
X02196D03*
G54D53*
X03131Y03189D03*
X03231D03*
X03331D03*
X03431D03*
X03531D03*
X02211Y04334D03*
X02311D03*
X02411D03*
X03752Y04461D03*
X03652D03*
X03552D03*
X02834Y0422D03*
X02734D03*
X02634D03*
G54D54*
X03631Y03189D03*
X02111Y04334D03*
X03852Y04461D03*
X02934Y0422D03*
G54D55*
X03757Y03454D03*
X03404Y03453D03*
X03298Y0473D03*
X03297Y04379D03*
X03403Y03413D03*
X03362Y03537D03*
X03404Y03374D03*
X03691Y03277D03*
X03752Y03414D03*
X03338Y0438D03*
X03208Y04338D03*
X03406Y03336D03*
X03374Y04379D03*
X03413Y0438D03*
X03387Y04718D03*
X02298Y04734D03*
X0259Y04032D03*
X02241Y03492D03*
X02241Y03423D03*
X028Y03273D03*
X03109Y04052D03*
X0334Y04173D03*
X02697Y0362D03*
X02877Y03292D03*
X03057Y03346D03*
X02984Y03754D03*
X03172Y04302D03*
X02756Y03677D03*
X03831Y0464D03*
X02098Y03098D03*
X02295D03*
X02492D03*
X02688D03*
X02885Y03092D03*
X03082D03*
X03279Y03098D03*
X03476D03*
X03673D03*
X0387D03*
Y03295D03*
Y03688D03*
Y03885D03*
Y04082D03*
Y04279D03*
Y04574D03*
Y0487D03*
X03673D03*
X03279D03*
X03082D03*
X02885D03*
X02688D03*
X02492D03*
X02295D03*
X02098D03*
Y04673D03*
Y04476D03*
Y0359D03*
Y03295D03*
X02295D03*
X02492D03*
X03279Y0359D03*
X03673Y03885D03*
X03476D03*
X03279D03*
Y04082D03*
X03476Y04279D03*
X02885Y03787D03*
X02492Y03688D03*
X02885Y04673D03*
Y04476D03*
X03879Y03492D03*
M02*