%FSTAX23Y23*%
%MOIN*%
%SFA1B1*%

%IPPOS*%
%ADD10C,0.006000*%
%ADD11C,0.006000*%
%ADD12C,0.039370*%
%ADD13R,0.110236X0.053150*%
%ADD14R,0.053150X0.047244*%
%ADD15R,0.047244X0.053150*%
%ADD16R,0.218503X0.167322*%
%ADD17R,0.167322X0.218503*%
%ADD18R,0.098425X0.066929*%
%ADD19R,0.096457X0.088582*%
%ADD20R,0.053150X0.110236*%
%ADD21O,0.066929X0.013780*%
%ADD22R,0.118110X0.165354*%
%ADD23R,0.165354X0.118110*%
%ADD24O,0.013780X0.066929*%
%ADD25C,0.008000*%
%ADD26C,0.157480*%
%ADD27C,0.059055*%
%ADD28R,0.059055X0.059055*%
%ADD29C,0.023622*%
%ADD59C,0.005000*%
%LNv2-1*%
%LPD*%
G54D59*
X039Y03501D02*
X039Y03501D01*
X039Y035*
X03895Y03508*
X03888Y03513*
X03882Y03514*
Y03492*
Y0347*
X03888Y03471*
X03895Y03476*
X039Y03483*
X039Y03482*
X039Y03482*
Y03067*
X03031*
Y0309*
X02968*
Y03095*
X02963*
Y03129*
X029*
Y03111*
X02898Y0311*
X02894Y03113*
X02888Y03115*
Y03092*
Y0307*
X02894Y03072*
X02898Y03074*
X029Y03073*
Y03067*
X02067*
Y049*
X039*
Y03501*
X0207Y03069D02*
Y04901D01*
X02075Y03069D02*
Y04901D01*
X0208Y03069D02*
Y04901D01*
X02085Y03069D02*
Y04901D01*
X0209Y03069D02*
Y04901D01*
X02095Y03069D02*
Y04901D01*
X021Y03069D02*
Y04901D01*
X02105Y03069D02*
Y04901D01*
X0211Y03069D02*
Y04901D01*
X02115Y03069D02*
Y04901D01*
X0212Y03069D02*
Y04901D01*
X02125Y03069D02*
Y04901D01*
X0213Y03069D02*
Y04901D01*
X02135Y03069D02*
Y04901D01*
X0214Y03069D02*
Y04901D01*
X02145Y03069D02*
Y04901D01*
X0215Y03069D02*
Y04901D01*
X02155Y03069D02*
Y04901D01*
X0216Y03069D02*
Y04901D01*
X02165Y03069D02*
Y04901D01*
X0217Y03069D02*
Y04901D01*
X02175Y03069D02*
Y04901D01*
X0218Y03069D02*
Y04901D01*
X02185Y03069D02*
Y04901D01*
X0219Y03069D02*
Y04901D01*
X02195Y03069D02*
Y04901D01*
X022Y03069D02*
Y04901D01*
X02205Y03069D02*
Y04901D01*
X0221Y03069D02*
Y04901D01*
X02215Y03069D02*
Y04901D01*
X0222Y03069D02*
Y04901D01*
X02225Y03069D02*
Y04901D01*
X0223Y03069D02*
Y04901D01*
X02235Y03069D02*
Y04901D01*
X0224Y03069D02*
Y04901D01*
X02245Y03069D02*
Y04901D01*
X0225Y03069D02*
Y04901D01*
X02255Y03069D02*
Y04901D01*
X0226Y03069D02*
Y04901D01*
X02265Y03069D02*
Y04901D01*
X0227Y03069D02*
Y04901D01*
X02275Y03069D02*
Y04901D01*
X0228Y03069D02*
Y04901D01*
X02285Y03069D02*
Y04901D01*
X0229Y03069D02*
Y04901D01*
X02295Y03069D02*
Y04901D01*
X023Y03069D02*
Y04901D01*
X02305Y03069D02*
Y04901D01*
X0231Y03069D02*
Y04901D01*
X02315Y03069D02*
Y04901D01*
X0232Y03069D02*
Y04901D01*
X02325Y03069D02*
Y04901D01*
X0233Y03069D02*
Y04901D01*
X02335Y03069D02*
Y04901D01*
X0234Y03069D02*
Y04901D01*
X02345Y03069D02*
Y04901D01*
X0235Y03069D02*
Y04901D01*
X02355Y03069D02*
Y04901D01*
X0236Y03069D02*
Y04901D01*
X02365Y03069D02*
Y04901D01*
X0237Y03069D02*
Y04901D01*
X02375Y03069D02*
Y04901D01*
X0238Y03069D02*
Y04901D01*
X02385Y03069D02*
Y04901D01*
X0239Y03069D02*
Y04901D01*
X02395Y03069D02*
Y04901D01*
X024Y03069D02*
Y04901D01*
X02405Y03069D02*
Y04901D01*
X0241Y03069D02*
Y04901D01*
X02415Y03069D02*
Y04901D01*
X0242Y03069D02*
Y04901D01*
X02425Y03069D02*
Y04901D01*
X0243Y03069D02*
Y04901D01*
X02435Y03069D02*
Y04901D01*
X0244Y03069D02*
Y04901D01*
X02445Y03069D02*
Y04901D01*
X0245Y03069D02*
Y04901D01*
X02455Y03069D02*
Y04901D01*
X0246Y03069D02*
Y04901D01*
X02465Y03069D02*
Y04901D01*
X0247Y03069D02*
Y04901D01*
X02475Y03069D02*
Y04901D01*
X0248Y03069D02*
Y04901D01*
X02485Y03069D02*
Y04901D01*
X0249Y03069D02*
Y04901D01*
X02495Y03069D02*
Y04901D01*
X025Y03069D02*
Y04901D01*
X02505Y03069D02*
Y04901D01*
X0251Y03069D02*
Y04901D01*
X02515Y03069D02*
Y04901D01*
X0252Y03069D02*
Y04901D01*
X02525Y03069D02*
Y04901D01*
X0253Y03069D02*
Y04901D01*
X02535Y03069D02*
Y04901D01*
X0254Y03069D02*
Y04901D01*
X02545Y03069D02*
Y04901D01*
X0255Y03069D02*
Y04901D01*
X02555Y03069D02*
Y04901D01*
X0256Y03069D02*
Y04901D01*
X02565Y03069D02*
Y04901D01*
X0257Y03069D02*
Y04901D01*
X02575Y03069D02*
Y04901D01*
X0258Y03069D02*
Y04901D01*
X02585Y03069D02*
Y04901D01*
X0259Y03069D02*
Y04901D01*
X02595Y03069D02*
Y04901D01*
X026Y03069D02*
Y04901D01*
X02605Y03069D02*
Y04901D01*
X0261Y03069D02*
Y04901D01*
X02615Y03069D02*
Y04901D01*
X0262Y03069D02*
Y04901D01*
X02625Y03069D02*
Y04901D01*
X0263Y03069D02*
Y04901D01*
X02635Y03069D02*
Y04901D01*
X0264Y03069D02*
Y04901D01*
X02645Y03069D02*
Y04901D01*
X0265Y03069D02*
Y04901D01*
X02655Y03069D02*
Y04901D01*
X0266Y03069D02*
Y04901D01*
X02665Y03069D02*
Y04901D01*
X0267Y03069D02*
Y04901D01*
X02675Y03069D02*
Y04901D01*
X0268Y03069D02*
Y04901D01*
X02685Y03069D02*
Y04901D01*
X0269Y03069D02*
Y04901D01*
X02695Y03069D02*
Y04901D01*
X027Y03069D02*
Y04901D01*
X02705Y03069D02*
Y04901D01*
X0271Y03069D02*
Y04901D01*
X02715Y03069D02*
Y04901D01*
X0272Y03069D02*
Y04901D01*
X02725Y03069D02*
Y04901D01*
X0273Y03069D02*
Y04901D01*
X02735Y03069D02*
Y04901D01*
X0274Y03069D02*
Y04901D01*
X02745Y03069D02*
Y04901D01*
X0275Y03069D02*
Y04901D01*
X02755Y03069D02*
Y04901D01*
X0276Y03069D02*
Y04901D01*
X02765Y03069D02*
Y04901D01*
X0277Y03069D02*
Y04901D01*
X02775Y03069D02*
Y04901D01*
X0278Y03069D02*
Y04901D01*
X02785Y03069D02*
Y04901D01*
X0279Y03069D02*
Y04901D01*
X02795Y03069D02*
Y04901D01*
X028Y03069D02*
Y04901D01*
X02805Y03069D02*
Y04901D01*
X0281Y03069D02*
Y04901D01*
X02815Y03069D02*
Y04901D01*
X0282Y03069D02*
Y04901D01*
X02825Y03069D02*
Y04901D01*
X0283Y03069D02*
Y04901D01*
X02835Y03069D02*
Y04901D01*
X0284Y03069D02*
Y04901D01*
X02845Y03069D02*
Y04901D01*
X0285Y03069D02*
Y04901D01*
X02855Y03069D02*
Y04901D01*
X0286Y03069D02*
Y04901D01*
X02865Y03069D02*
Y04901D01*
X0287Y03069D02*
Y04901D01*
X02875Y03069D02*
Y04901D01*
X0288Y03069D02*
Y04901D01*
X02885Y03069D02*
Y04901D01*
X0289Y03069D02*
Y03071D01*
Y03116D02*
Y04901D01*
X02895Y03069D02*
Y03072D01*
Y03115D02*
Y04901D01*
X029Y03069D02*
Y03074D01*
Y03113D02*
Y04901D01*
X02905Y03131D02*
Y04901D01*
X0291Y03131D02*
Y04901D01*
X02915Y03131D02*
Y04901D01*
X0292Y03131D02*
Y04901D01*
X02925Y03131D02*
Y04901D01*
X0293Y03131D02*
Y04901D01*
X02935Y03131D02*
Y04901D01*
X0294Y03131D02*
Y04901D01*
X02945Y03131D02*
Y04901D01*
X0295Y03131D02*
Y04901D01*
X02955Y03131D02*
Y04901D01*
X0296Y03131D02*
Y04901D01*
X02965Y03096D02*
Y04901D01*
X0297Y03091D02*
Y04901D01*
X02975Y03091D02*
Y04901D01*
X0298Y03091D02*
Y04901D01*
X02985Y03091D02*
Y04901D01*
X0299Y03091D02*
Y04901D01*
X02995Y03091D02*
Y04901D01*
X03Y03091D02*
Y04901D01*
X03005Y03091D02*
Y04901D01*
X0301Y03091D02*
Y04901D01*
X03015Y03091D02*
Y04901D01*
X0302Y03091D02*
Y04901D01*
X03025Y03091D02*
Y04901D01*
X0303Y03091D02*
Y04901D01*
X03035Y03069D02*
Y04901D01*
X0304Y03069D02*
Y04901D01*
X03045Y03069D02*
Y04901D01*
X0305Y03069D02*
Y04901D01*
X03055Y03069D02*
Y04901D01*
X0306Y03069D02*
Y04901D01*
X03065Y03069D02*
Y04901D01*
X0307Y03069D02*
Y04901D01*
X03075Y03069D02*
Y04901D01*
X0308Y03069D02*
Y04901D01*
X03085Y03069D02*
Y04901D01*
X0309Y03069D02*
Y04901D01*
X03095Y03069D02*
Y04901D01*
X031Y03069D02*
Y04901D01*
X03105Y03069D02*
Y04901D01*
X0311Y03069D02*
Y04901D01*
X03115Y03069D02*
Y04901D01*
X0312Y03069D02*
Y04901D01*
X03125Y03069D02*
Y04901D01*
X0313Y03069D02*
Y04901D01*
X03135Y03069D02*
Y04901D01*
X0314Y03069D02*
Y04901D01*
X03145Y03069D02*
Y04901D01*
X0315Y03069D02*
Y04901D01*
X03155Y03069D02*
Y04901D01*
X0316Y03069D02*
Y04901D01*
X03165Y03069D02*
Y04901D01*
X0317Y03069D02*
Y04901D01*
X03175Y03069D02*
Y04901D01*
X0318Y03069D02*
Y04901D01*
X03185Y03069D02*
Y04901D01*
X0319Y03069D02*
Y04901D01*
X03195Y03069D02*
Y04901D01*
X032Y03069D02*
Y04901D01*
X03205Y03069D02*
Y04901D01*
X0321Y03069D02*
Y04901D01*
X03215Y03069D02*
Y04901D01*
X0322Y03069D02*
Y04901D01*
X03225Y03069D02*
Y04901D01*
X0323Y03069D02*
Y04901D01*
X03235Y03069D02*
Y04901D01*
X0324Y03069D02*
Y04901D01*
X03245Y03069D02*
Y04901D01*
X0325Y03069D02*
Y04901D01*
X03255Y03069D02*
Y04901D01*
X0326Y03069D02*
Y04901D01*
X03265Y03069D02*
Y04901D01*
X0327Y03069D02*
Y04901D01*
X03275Y03069D02*
Y04901D01*
X0328Y03069D02*
Y04901D01*
X03285Y03069D02*
Y04901D01*
X0329Y03069D02*
Y04901D01*
X03295Y03069D02*
Y04901D01*
X033Y03069D02*
Y04901D01*
X03305Y03069D02*
Y04901D01*
X0331Y03069D02*
Y04901D01*
X03315Y03069D02*
Y04901D01*
X0332Y03069D02*
Y04901D01*
X03325Y03069D02*
Y04901D01*
X0333Y03069D02*
Y04901D01*
X03335Y03069D02*
Y04901D01*
X0334Y03069D02*
Y04901D01*
X03345Y03069D02*
Y04901D01*
X0335Y03069D02*
Y04901D01*
X03355Y03069D02*
Y04901D01*
X0336Y03069D02*
Y04901D01*
X03365Y03069D02*
Y04901D01*
X0337Y03069D02*
Y04901D01*
X03375Y03069D02*
Y04901D01*
X0338Y03069D02*
Y04901D01*
X03385Y03069D02*
Y04901D01*
X0339Y03069D02*
Y04901D01*
X03395Y03069D02*
Y04901D01*
X034Y03069D02*
Y04901D01*
X03405Y03069D02*
Y04901D01*
X0341Y03069D02*
Y04901D01*
X03415Y03069D02*
Y04901D01*
X0342Y03069D02*
Y04901D01*
X03425Y03069D02*
Y04901D01*
X0343Y03069D02*
Y04901D01*
X03435Y03069D02*
Y04901D01*
X0344Y03069D02*
Y04901D01*
X03445Y03069D02*
Y04901D01*
X0345Y03069D02*
Y04901D01*
X03455Y03069D02*
Y04901D01*
X0346Y03069D02*
Y04901D01*
X03465Y03069D02*
Y04901D01*
X0347Y03069D02*
Y04901D01*
X03475Y03069D02*
Y04901D01*
X0348Y03069D02*
Y04901D01*
X03485Y03069D02*
Y04901D01*
X0349Y03069D02*
Y04901D01*
X03495Y03069D02*
Y04901D01*
X035Y03069D02*
Y04901D01*
X03505Y03069D02*
Y04901D01*
X0351Y03069D02*
Y04901D01*
X03515Y03069D02*
Y04901D01*
X0352Y03069D02*
Y04901D01*
X03525Y03069D02*
Y04901D01*
X0353Y03069D02*
Y04901D01*
X03535Y03069D02*
Y04901D01*
X0354Y03069D02*
Y04901D01*
X03545Y03069D02*
Y04901D01*
X0355Y03069D02*
Y04901D01*
X03555Y03069D02*
Y04901D01*
X0356Y03069D02*
Y04901D01*
X03565Y03069D02*
Y04901D01*
X0357Y03069D02*
Y04901D01*
X03575Y03069D02*
Y04901D01*
X0358Y03069D02*
Y04901D01*
X03585Y03069D02*
Y04901D01*
X0359Y03069D02*
Y04901D01*
X03595Y03069D02*
Y04901D01*
X036Y03069D02*
Y04901D01*
X03605Y03069D02*
Y04901D01*
X0361Y03069D02*
Y04901D01*
X03615Y03069D02*
Y04901D01*
X0362Y03069D02*
Y04901D01*
X03625Y03069D02*
Y04901D01*
X0363Y03069D02*
Y04901D01*
X03635Y03069D02*
Y04901D01*
X0364Y03069D02*
Y04901D01*
X03645Y03069D02*
Y04901D01*
X0365Y03069D02*
Y04901D01*
X03655Y03069D02*
Y04901D01*
X0366Y03069D02*
Y04901D01*
X03665Y03069D02*
Y04901D01*
X0367Y03069D02*
Y04901D01*
X03675Y03069D02*
Y04901D01*
X0368Y03069D02*
Y04901D01*
X03685Y03069D02*
Y04901D01*
X0369Y03069D02*
Y04901D01*
X03695Y03069D02*
Y04901D01*
X037Y03069D02*
Y04901D01*
X03705Y03069D02*
Y04901D01*
X0371Y03069D02*
Y04901D01*
X03715Y03069D02*
Y04901D01*
X0372Y03069D02*
Y04901D01*
X03725Y03069D02*
Y04901D01*
X0373Y03069D02*
Y04901D01*
X03735Y03069D02*
Y04901D01*
X0374Y03069D02*
Y04901D01*
X03745Y03069D02*
Y04901D01*
X0375Y03069D02*
Y04901D01*
X03755Y03069D02*
Y04901D01*
X0376Y03069D02*
Y04901D01*
X03765Y03069D02*
Y04901D01*
X0377Y03069D02*
Y04901D01*
X03775Y03069D02*
Y04901D01*
X0378Y03069D02*
Y04901D01*
X03785Y03069D02*
Y04901D01*
X0379Y03069D02*
Y04901D01*
X03795Y03069D02*
Y04901D01*
X038Y03069D02*
Y04901D01*
X03805Y03069D02*
Y04901D01*
X0381Y03069D02*
Y04901D01*
X03815Y03069D02*
Y04901D01*
X0382Y03069D02*
Y04901D01*
X03825Y03069D02*
Y04901D01*
X0383Y03069D02*
Y04901D01*
X03835Y03069D02*
Y04901D01*
X0384Y03069D02*
Y04901D01*
X03845Y03069D02*
Y04901D01*
X0385Y03069D02*
Y04901D01*
X03855Y03069D02*
Y04901D01*
X0386Y03069D02*
Y04901D01*
X03865Y03069D02*
Y04901D01*
X0387Y03069D02*
Y04901D01*
X03875Y03069D02*
Y04901D01*
X0388Y03069D02*
Y04901D01*
X03885Y03069D02*
Y0347D01*
Y03515D02*
Y04901D01*
X0389Y03069D02*
Y03472D01*
Y03513D02*
Y04901D01*
X03895Y03069D02*
Y03475D01*
Y0351D02*
Y04901D01*
X039Y03069D02*
Y03482D01*
Y03502D02*
Y04901D01*
%LNv2-2*%
%LPC*%
G36*
X02411Y03623D02*
X02384D01*
Y03594*
X02411*
Y03623*
G37*
G36*
X02093Y03609D02*
X0209Y03609D01*
X02084Y03604*
X02079Y03598*
X02079Y03595*
X02093*
Y03609*
G37*
G36*
X02447Y03623D02*
X02421D01*
Y03594*
X02447*
Y03623*
G37*
G36*
X03686Y03583D02*
X03664D01*
X03658Y03582*
X03653Y03578*
X0365Y03573*
X0365Y03573*
X03686*
Y03583*
G37*
G36*
X03274Y03585D02*
X0326D01*
X0326Y03582*
X03265Y03576*
X03271Y03572*
X03274Y03571*
Y03585*
G37*
G36*
X02117D02*
X02103D01*
Y03571*
X02106Y03572*
X02112Y03576*
X02116Y03582*
X02117Y03585*
G37*
G36*
X03493Y03583D02*
X03471D01*
Y03573*
X03507*
X03507Y03573*
X03504Y03578*
X03499Y03582*
X03493Y03583*
G37*
G36*
X03298Y03585D02*
X03284D01*
Y03571*
X03287Y03572*
X03293Y03576*
X03298Y03582*
X03298Y03585*
G37*
G36*
X02103Y03609D02*
Y03595D01*
X02117*
X02116Y03598*
X02112Y03604*
X02106Y03609*
X02103Y03609*
G37*
G36*
X022Y03711D02*
X02149D01*
Y03663*
X022*
Y03711*
G37*
G36*
X02139D02*
X02088D01*
Y03663*
X02139*
Y03711*
G37*
G36*
X02511Y03683D02*
X02497D01*
Y03669*
X02499Y0367*
X02506Y03674*
X0251Y03681*
X02511Y03683*
G37*
G36*
X02487D02*
X02473D01*
X02473Y03681*
X02477Y03674*
X02484Y0367*
X02487Y03669*
Y03683*
G37*
G36*
X02775Y03672D02*
X02761D01*
Y03658*
X02763Y03658*
X0277Y03663*
X02774Y03669*
X02775Y03672*
G37*
G36*
X03284Y03609D02*
Y03595D01*
X03298*
X03298Y03598*
X03293Y03604*
X03287Y03609*
X03284Y03609*
G37*
G36*
X03274D02*
X03271Y03609D01*
X03265Y03604*
X0326Y03598*
X0326Y03595*
X03274*
Y03609*
G37*
G36*
X02751Y03672D02*
X02737D01*
X02737Y03669*
X02742Y03663*
X02748Y03658*
X02751Y03658*
Y03672*
G37*
G36*
X02373Y03623D02*
X0231D01*
Y03601*
X02298*
Y03623*
X02235*
Y03554*
X02298*
Y03576*
X0231*
Y03554*
X02373*
Y03623*
G37*
G36*
X03313Y03369D02*
X03255D01*
Y03339*
X03313*
Y03369*
G37*
G36*
X02203Y03347D02*
X02167D01*
Y03337*
X02189*
X02195Y03338*
X022Y03341*
X02203Y03346*
X02203Y03347*
G37*
G36*
Y03398D02*
X02122D01*
X02122Y03397*
X02125Y03392*
Y03388*
X02122Y03383*
X02122Y03382*
X02203*
X02203Y03383*
X022Y03388*
Y03392*
X02203Y03397*
X02203Y03398*
G37*
G36*
Y03372D02*
X02122D01*
X02122Y03372*
X02125Y03367*
Y03362*
X02122Y03357*
X02122Y03357*
X02203*
X02203Y03357*
X022Y03362*
Y03367*
X02203Y03372*
X02203Y03372*
G37*
G36*
X02157Y03347D02*
X02122D01*
X02122Y03346*
X02125Y03341*
X0213Y03338*
X02136Y03337*
X02157*
Y03347*
G37*
G36*
X0338Y03329D02*
X03323D01*
Y033*
X0338*
Y03329*
G37*
G36*
X03313D02*
X03255D01*
Y033*
X03313*
Y03329*
G37*
G36*
X03853Y03359D02*
X03824D01*
Y03332*
X03853*
Y03359*
G37*
G36*
X03814D02*
X03784D01*
Y03332*
X03814*
Y03359*
G37*
G36*
X02411Y03584D02*
X02384D01*
Y03554*
X02411*
Y03584*
G37*
G36*
X02413Y0352D02*
X02392D01*
Y0351*
X02427*
X02427Y03511*
X02424Y03516*
X02419Y03519*
X02413Y0352*
G37*
G36*
X02093Y03585D02*
X02079D01*
X02079Y03582*
X02084Y03576*
X0209Y03572*
X02093Y03571*
Y03585*
G37*
G36*
X02447Y03584D02*
X02421D01*
Y03554*
X02447*
Y03584*
G37*
G36*
X02382Y0352D02*
X0236D01*
X02354Y03519*
X02349Y03516*
X02346Y03511*
X02346Y0351*
X02382*
Y0352*
G37*
G36*
X02224Y03623D02*
X02161D01*
Y03554*
X02176*
X02178Y03549*
X02154Y03525*
X02151Y03521*
X02151Y0352*
X02136*
X0213Y03519*
X02125Y03516*
X02122Y03511*
X02121Y03505*
X02122Y035*
X02125Y03495*
Y0349*
X02122Y03485*
X02121Y0348*
X02122Y03474*
X02125Y03469*
Y03465*
X02122Y0346*
X02121Y03454*
X02122Y03448*
X02125Y03443*
Y03439*
X02122Y03434*
X02122Y03434*
X02203*
X02203Y03434*
X022Y03439*
X02197Y03441*
X02199Y03442*
X02204*
X02221Y03425*
X0222Y03423*
X02222Y03415*
X02226Y03408*
X02233Y03404*
X02241Y03402*
X02248Y03404*
X02255Y03408*
X02259Y03415*
X02261Y03423*
X02259Y0343*
X02255Y03437*
X02248Y03441*
X02241Y03443*
X02238Y03442*
X02217Y03463*
X02214Y03465*
X02209Y03466*
X0221Y03468*
X02226*
X0223Y03468*
X02234Y03471*
X02236Y03473*
X02241Y03472*
X02249Y03474*
X02255Y03478*
X02259Y03484*
X02261Y03492*
X02259Y035*
X02255Y03506*
X02249Y03511*
X02241Y03512*
X02233Y03511*
X02227Y03506*
X02222Y035*
X02221Y03492*
X02219Y03492*
X02203*
X02201Y03496*
X02203Y035*
X02204Y03505*
X02203Y03511*
X022Y03516*
X02195Y03519*
X02189Y0352*
X02187Y03524*
X02201Y03538*
X02203Y03541*
X02204Y03546*
Y03554*
X02224*
Y03623*
G37*
G36*
X02203Y03424D02*
X02122D01*
X02122Y03423*
X02125Y03418*
Y03414*
X02122Y03409*
X02122Y03408*
X02203*
X02203Y03409*
X022Y03414*
Y03418*
X02203Y03423*
X02203Y03424*
G37*
G36*
X03874Y03511D02*
X03871Y0351D01*
X03865Y03506*
X0386Y03499*
X0386Y03497*
X03874*
Y03511*
G37*
G36*
Y03487D02*
X0386D01*
X0386Y03484*
X03865Y03477*
X03871Y03473*
X03874Y03473*
Y03487*
G37*
G36*
X03471Y03904D02*
X03468Y03904D01*
X03462Y039*
X03457Y03893*
X03457Y0389*
X03471*
Y03904*
G37*
G36*
X02201Y03927D02*
X0215D01*
Y0388*
X02201*
Y03927*
G37*
G36*
X03668Y03904D02*
X03665Y03904D01*
X03659Y039*
X03654Y03893*
X03654Y0389*
X03668*
Y03904*
G37*
G36*
X03481D02*
Y0389D01*
X03495*
X03494Y03893*
X0349Y039*
X03484Y03904*
X03481Y03904*
G37*
G36*
X0214Y03927D02*
X02089D01*
Y0388*
X0214*
Y03927*
G37*
G36*
X03692Y0388D02*
X03678D01*
Y03866*
X0368Y03867*
X03687Y03871*
X03691Y03878*
X03692Y0388*
G37*
G36*
X03668D02*
X03654D01*
X03654Y03878*
X03659Y03871*
X03665Y03867*
X03668Y03866*
Y0388*
G37*
G36*
X03889D02*
X03875D01*
Y03866*
X03877Y03867*
X03884Y03871*
X03888Y03878*
X03889Y0388*
G37*
G36*
X03865D02*
X03851D01*
X03851Y03878*
X03855Y03871*
X03862Y03867*
X03865Y03866*
Y0388*
G37*
G36*
X03128Y04047D02*
X03114D01*
Y04032*
X03116Y04033*
X03123Y04037*
X03127Y04044*
X03128Y04047*
G37*
G36*
X03104D02*
X03089D01*
X0309Y04044*
X03094Y04037*
X03101Y04033*
X03104Y04032*
Y04047*
G37*
G36*
X02201Y04087D02*
X0215D01*
Y0404*
X02201*
Y04087*
G37*
G36*
X0214D02*
X02089D01*
Y0404*
X0214*
Y04087*
G37*
G36*
X02201Y0403D02*
X0215D01*
Y03982*
X02201*
Y0403*
G37*
G36*
X03865Y03904D02*
X03862Y03904D01*
X03855Y039*
X03851Y03893*
X03851Y0389*
X03865*
Y03904*
G37*
G36*
X03678D02*
Y0389D01*
X03692*
X03691Y03893*
X03687Y039*
X0368Y03904*
X03678Y03904*
G37*
G36*
X0214Y0403D02*
X02089D01*
Y03982*
X0214*
Y0403*
G37*
G36*
X03875Y03904D02*
Y0389D01*
X03889*
X03888Y03893*
X03884Y039*
X03877Y03904*
X03875Y03904*
G37*
G36*
X03495Y0388D02*
X03481D01*
Y03866*
X03484Y03867*
X0349Y03871*
X03494Y03878*
X03495Y0388*
G37*
G36*
X03865Y03708D02*
X03862Y03707D01*
X03855Y03703*
X03851Y03696*
X03851Y03693*
X03865*
Y03708*
G37*
G36*
X02497D02*
Y03693D01*
X02511*
X0251Y03696*
X02506Y03703*
X02499Y03707*
X02497Y03708*
G37*
G36*
X02139Y03768D02*
X02088D01*
Y03721*
X02139*
Y03768*
G37*
G36*
X03875Y03708D02*
Y03693D01*
X03889*
X03888Y03696*
X03884Y03703*
X03877Y03707*
X03875Y03708*
G37*
G36*
X02487D02*
X02484Y03707D01*
X02477Y03703*
X02473Y03696*
X02473Y03693*
X02487*
Y03708*
G37*
G36*
X03889Y03683D02*
X03875D01*
Y03669*
X03877Y0367*
X03884Y03674*
X03888Y03681*
X03889Y03683*
G37*
G36*
X03865D02*
X03851D01*
X03851Y03681*
X03855Y03674*
X03862Y0367*
X03865Y03669*
Y03683*
G37*
G36*
X02761Y03696D02*
Y03682D01*
X02775*
X02774Y03684*
X0277Y03691*
X02763Y03695*
X02761Y03696*
G37*
G36*
X02751D02*
X02748Y03695D01*
X02742Y03691*
X02737Y03684*
X02737Y03682*
X02751*
Y03696*
G37*
G36*
X02201Y0387D02*
X0215D01*
Y03822*
X02201*
Y0387*
G37*
G36*
X0214D02*
X02089D01*
Y03822*
X0214*
Y0387*
G37*
G36*
X03471Y0388D02*
X03457D01*
X03457Y03878*
X03462Y03871*
X03468Y03867*
X03471Y03866*
Y0388*
G37*
G36*
X03279Y03905D02*
X03271Y03904D01*
X03265Y039*
X0326Y03893*
X03259Y03885*
X0326Y03878*
X03265Y03871*
X03271Y03867*
X03279Y03865*
X03287Y03867*
X03293Y03871*
X03298Y03878*
X03299Y03885*
X03298Y03893*
X03293Y039*
X03287Y03904*
X03279Y03905*
G37*
G36*
X0289Y03806D02*
Y03792D01*
X02904*
X02904Y03795*
X029Y03801*
X02893Y03805*
X0289Y03806*
G37*
G36*
X0288Y03782D02*
X02866D01*
X02867Y03779*
X02871Y03773*
X02878Y03768*
X0288Y03768*
Y03782*
G37*
G36*
X022Y03768D02*
X02149D01*
Y03721*
X022*
Y03768*
G37*
G36*
X0288Y03806D02*
X02878Y03805D01*
X02871Y03801*
X02867Y03795*
X02866Y03792*
X0288*
Y03806*
G37*
G36*
X02904Y03782D02*
X0289D01*
Y03768*
X02893Y03768*
X029Y03773*
X02904Y03779*
X02904Y03782*
G37*
G36*
X0229Y03117D02*
X02287Y03116D01*
X02281Y03112*
X02276Y03106*
X02276Y03103*
X0229*
Y03117*
G37*
G36*
X02103D02*
Y03103D01*
X02117*
X02116Y03106*
X02112Y03112*
X02106Y03116*
X02103Y03117*
G37*
G36*
X02487D02*
X02484Y03116D01*
X02477Y03112*
X02473Y03106*
X02473Y03103*
X02487*
Y03117*
G37*
G36*
X023D02*
Y03103D01*
X02314*
X02313Y03106*
X02309Y03112*
X02302Y03116*
X023Y03117*
G37*
G36*
X02093D02*
X0209Y03116D01*
X02084Y03112*
X02079Y03106*
X02079Y03103*
X02093*
Y03117*
G37*
G36*
X03028Y03127D02*
X02971D01*
Y03097*
X03028*
Y03127*
G37*
G36*
X0288Y03112D02*
X02878Y03111D01*
X02871Y03107*
X02867Y031*
X02866Y03097*
X0288*
Y03112*
G37*
G36*
X03087D02*
Y03097D01*
X03101*
X03101Y031*
X03096Y03107*
X0309Y03111*
X03087Y03112*
G37*
G36*
X03077D02*
X03074Y03111D01*
X03068Y03107*
X03064Y031*
X03063Y03097*
X03077*
Y03112*
G37*
G36*
X03481Y03117D02*
Y03103D01*
X03495*
X03494Y03106*
X0349Y03112*
X03484Y03116*
X03481Y03117*
G37*
G36*
X03471D02*
X03468Y03116D01*
X03462Y03112*
X03457Y03106*
X03457Y03103*
X03471*
Y03117*
G37*
G36*
X03678D02*
Y03103D01*
X03692*
X03691Y03106*
X03687Y03112*
X0368Y03116*
X03678Y03117*
G37*
G36*
X03668D02*
X03665Y03116D01*
X03659Y03112*
X03654Y03106*
X03654Y03103*
X03668*
Y03117*
G37*
G36*
X03284D02*
Y03103D01*
X03298*
X03298Y03106*
X03293Y03112*
X03287Y03116*
X03284Y03117*
G37*
G36*
X02683D02*
X02681Y03116D01*
X02674Y03112*
X0267Y03106*
X02669Y03103*
X02683*
Y03117*
G37*
G36*
X02497D02*
Y03103D01*
X02511*
X0251Y03106*
X02506Y03112*
X02499Y03116*
X02497Y03117*
G37*
G36*
X03274D02*
X03271Y03116D01*
X03265Y03112*
X0326Y03106*
X0326Y03103*
X03274*
Y03117*
G37*
G36*
X02693D02*
Y03103D01*
X02708*
X02707Y03106*
X02703Y03112*
X02696Y03116*
X02693Y03117*
G37*
G36*
X03889Y03093D02*
X03875D01*
Y03079*
X03877Y03079*
X03884Y03084*
X03888Y0309*
X03889Y03093*
G37*
G36*
X02314D02*
X023D01*
Y03079*
X02302Y03079*
X02309Y03084*
X02313Y0309*
X02314Y03093*
G37*
G36*
X0229D02*
X02276D01*
X02276Y0309*
X02281Y03084*
X02287Y03079*
X0229Y03079*
Y03093*
G37*
G36*
X02511D02*
X02497D01*
Y03079*
X02499Y03079*
X02506Y03084*
X0251Y0309*
X02511Y03093*
G37*
G36*
X02487D02*
X02473D01*
X02473Y0309*
X02477Y03084*
X02484Y03079*
X02487Y03079*
Y03093*
G37*
G36*
X02117D02*
X02103D01*
Y03079*
X02106Y03079*
X02112Y03084*
X02116Y0309*
X02117Y03093*
G37*
G36*
X03077Y03087D02*
X03063D01*
X03064Y03085*
X03068Y03078*
X03074Y03074*
X03077Y03073*
Y03087*
G37*
G36*
X0288D02*
X02866D01*
X02867Y03085*
X02871Y03078*
X02878Y03074*
X0288Y03073*
Y03087*
G37*
G36*
X02093Y03093D02*
X02079D01*
X02079Y0309*
X02084Y03084*
X0209Y03079*
X02093Y03079*
Y03093*
G37*
G36*
X03101Y03087D02*
X03087D01*
Y03073*
X0309Y03074*
X03096Y03078*
X03101Y03085*
X03101Y03087*
G37*
G36*
X03668Y03093D02*
X03654D01*
X03654Y0309*
X03659Y03084*
X03665Y03079*
X03668Y03079*
Y03093*
G37*
G36*
X03495D02*
X03481D01*
Y03079*
X03484Y03079*
X0349Y03084*
X03494Y0309*
X03495Y03093*
G37*
G36*
X03865D02*
X03851D01*
X03851Y0309*
X03855Y03084*
X03862Y03079*
X03865Y03079*
Y03093*
G37*
G36*
X03692D02*
X03678D01*
Y03079*
X0368Y03079*
X03687Y03084*
X03691Y0309*
X03692Y03093*
G37*
G36*
X03471D02*
X03457D01*
X03457Y0309*
X03462Y03084*
X03468Y03079*
X03471Y03079*
Y03093*
G37*
G36*
X02708D02*
X02693D01*
Y03079*
X02696Y03079*
X02703Y03084*
X02707Y0309*
X02708Y03093*
G37*
G36*
X02683D02*
X02669D01*
X0267Y0309*
X02674Y03084*
X02681Y03079*
X02683Y03079*
Y03093*
G37*
G36*
X03298D02*
X03284D01*
Y03079*
X03287Y03079*
X03293Y03084*
X03298Y0309*
X03298Y03093*
G37*
G36*
X03274D02*
X0326D01*
X0326Y0309*
X03265Y03084*
X03271Y03079*
X03274Y03079*
Y03093*
G37*
G36*
X02511Y0329D02*
X02497D01*
Y03276*
X02499Y03276*
X02506Y03281*
X0251Y03287*
X02511Y0329*
G37*
G36*
X02487D02*
X02473D01*
X02473Y03287*
X02477Y03281*
X02484Y03276*
X02487Y03276*
Y0329*
G37*
G36*
X03889D02*
X03875D01*
Y03276*
X03877Y03276*
X03884Y03281*
X03888Y03287*
X03889Y0329*
G37*
G36*
X03865D02*
X03851D01*
X03851Y03287*
X03855Y03281*
X03862Y03276*
X03865Y03276*
Y0329*
G37*
G36*
X02314D02*
X023D01*
Y03276*
X02302Y03276*
X02309Y03281*
X02313Y03287*
X02314Y0329*
G37*
G36*
X02093D02*
X02079D01*
X02079Y03287*
X02084Y03281*
X0209Y03276*
X02093Y03276*
Y0329*
G37*
G36*
X03668Y03226D02*
X03636D01*
Y03194*
X03668*
Y03226*
G37*
G36*
X0229Y0329D02*
X02276D01*
X02276Y03287*
X02281Y03281*
X02287Y03276*
X0229Y03276*
Y0329*
G37*
G36*
X02117D02*
X02103D01*
Y03276*
X02106Y03276*
X02112Y03281*
X02116Y03287*
X02117Y0329*
G37*
G36*
X02487Y03314D02*
X02484Y03313D01*
X02477Y03309*
X02473Y03302*
X02473Y033*
X02487*
Y03314*
G37*
G36*
X023D02*
Y033D01*
X02314*
X02313Y03302*
X02309Y03309*
X02302Y03313*
X023Y03314*
G37*
G36*
X03875D02*
Y033D01*
X03889*
X03888Y03302*
X03884Y03309*
X03877Y03313*
X03875Y03314*
G37*
G36*
X02497D02*
Y033D01*
X02511*
X0251Y03302*
X02506Y03309*
X02499Y03313*
X02497Y03314*
G37*
G36*
X0229D02*
X02287Y03313D01*
X02281Y03309*
X02276Y03302*
X02276Y033*
X0229*
Y03314*
G37*
G36*
X03814Y03322D02*
X03784D01*
Y03296*
X03814*
Y03322*
G37*
G36*
X03853D02*
X03824D01*
Y03296*
X03849*
X0385Y03295*
X03851Y033*
X03865*
Y03314*
X03862Y03313*
X03857Y0331*
X03853Y03313*
Y03322*
G37*
G36*
X02103Y03314D02*
Y033D01*
X02117*
X02116Y03302*
X02112Y03309*
X02106Y03313*
X02103Y03314*
G37*
G36*
X02093D02*
X0209Y03313D01*
X02084Y03309*
X02079Y03302*
X02079Y033*
X02093*
Y03314*
G37*
G36*
X03626Y03226D02*
X03593D01*
Y03194*
X03626*
Y03226*
G37*
G36*
Y03184D02*
X03593D01*
Y03151*
X03626*
Y03184*
G37*
G36*
X02356Y03158D02*
X02329D01*
Y03128*
X02356*
Y03158*
G37*
G36*
X03426Y03184D02*
X03393D01*
X03394Y03179*
X03398Y0317*
X03404Y03162*
X03412Y03156*
X03421Y03152*
X03426Y03151*
Y03184*
G37*
G36*
X03668D02*
X03636D01*
Y03151*
X03668*
Y03184*
G37*
G36*
X02319Y03158D02*
X02293D01*
Y03128*
X02319*
Y03158*
G37*
G36*
X03875Y03117D02*
Y03103D01*
X03889*
X03888Y03106*
X03884Y03112*
X03877Y03116*
X03875Y03117*
G37*
G36*
X03865D02*
X03862Y03116D01*
X03855Y03112*
X03851Y03106*
X03851Y03103*
X03865*
Y03117*
G37*
G36*
X03771Y03283D02*
X03754Y03282D01*
X03738Y03277*
X03723Y03269*
X0371Y03258*
X03699Y03245*
X03691Y0323*
X03686Y03213*
X03684Y03196*
X03686Y03179*
X03691Y03163*
X03699Y03148*
X0371Y03135*
X03723Y03124*
X03738Y03116*
X03754Y03111*
X03771Y03109*
X03788Y03111*
X03804Y03116*
X0382Y03124*
X03833Y03135*
X03844Y03148*
X03852Y03163*
X03857Y03179*
X03858Y03196*
X03857Y03213*
X03852Y0323*
X03844Y03245*
X03833Y03258*
X0382Y03269*
X03804Y03277*
X03788Y03282*
X03771Y03283*
G37*
G36*
X02196D02*
X02179Y03282D01*
X02163Y03277*
X02148Y03269*
X02135Y03258*
X02124Y03245*
X02116Y0323*
X02111Y03213*
X02109Y03196*
X02111Y03179*
X02116Y03163*
X02124Y03148*
X02135Y03135*
X02148Y03124*
X02163Y03116*
X02179Y03111*
X02196Y03109*
X02213Y03111*
X0223Y03116*
X02245Y03124*
X02258Y03135*
X02269Y03148*
X02277Y03163*
X02282Y03179*
X02283Y03196*
X02282Y03213*
X02277Y0323*
X02269Y03245*
X02258Y03258*
X02245Y03269*
X0223Y03277*
X02213Y03282*
X02196Y03283*
G37*
G36*
X03436Y03226D02*
Y03194D01*
X03468*
X03467Y03198*
X03463Y03207*
X03457Y03215*
X03449Y03221*
X0344Y03225*
X03436Y03226*
G37*
G36*
X03426D02*
X03421Y03225D01*
X03412Y03221*
X03404Y03215*
X03398Y03207*
X03394Y03198*
X03393Y03194*
X03426*
Y03226*
G37*
G36*
X03536D02*
Y03194D01*
X03568*
X03567Y03198*
X03563Y03207*
X03557Y03215*
X03549Y03221*
X0354Y03225*
X03536Y03226*
G37*
G36*
X03526D02*
X03521Y03225D01*
X03512Y03221*
X03504Y03215*
X03498Y03207*
X03494Y03198*
X03493Y03194*
X03526*
Y03226*
G37*
G36*
X02356Y03197D02*
X02329D01*
Y03168*
X02356*
Y03197*
G37*
G36*
X03526Y03184D02*
X03493D01*
X03494Y03179*
X03498Y0317*
X03504Y03162*
X03512Y03156*
X03521Y03152*
X03526Y03151*
Y03184*
G37*
G36*
X03468D02*
X03436D01*
Y03151*
X0344Y03152*
X03449Y03156*
X03457Y03162*
X03463Y0317*
X03467Y03179*
X03468Y03184*
G37*
G36*
X02319Y03197D02*
X02293D01*
Y03168*
X02319*
Y03197*
G37*
G36*
X03568Y03184D02*
X03536D01*
Y03151*
X0354Y03152*
X03549Y03156*
X03557Y03162*
X03563Y0317*
X03567Y03179*
X03568Y03184*
G37*
G36*
X03104Y04071D02*
X03101Y0407D01*
X03094Y04066*
X0309Y04059*
X03089Y04057*
X03104*
Y04071*
G37*
G36*
X02093Y04692D02*
X0209Y04691D01*
X02084Y04687*
X02079Y0468*
X02079Y04678*
X02093*
Y04692*
G37*
G36*
X02904Y04668D02*
X0289D01*
Y04654*
X02893Y04654*
X029Y04659*
X02904Y04665*
X02904Y04668*
G37*
G36*
X0288Y04692D02*
X02878Y04691D01*
X02871Y04687*
X02867Y0468*
X02866Y04678*
X0288*
Y04692*
G37*
G36*
X02103D02*
Y04678D01*
X02117*
X02116Y0468*
X02112Y04687*
X02106Y04691*
X02103Y04692*
G37*
G36*
X0288Y04668D02*
X02866D01*
X02867Y04665*
X02871Y04659*
X02878Y04654*
X0288Y04654*
Y04668*
G37*
G36*
X03718Y04662D02*
X03655D01*
Y0464*
X03645*
Y04662*
X03582*
Y04593*
X03645*
Y04615*
X03655*
Y04593*
X03718*
Y04662*
G37*
G36*
X03571D02*
X03544D01*
Y04633*
X03571*
Y04662*
G37*
G36*
X02117Y04668D02*
X02103D01*
Y04654*
X02106Y04654*
X02112Y04659*
X02116Y04665*
X02117Y04668*
G37*
G36*
X02093D02*
X02079D01*
X02079Y04665*
X02084Y04659*
X0209Y04654*
X02093Y04654*
Y04668*
G37*
G36*
X03559Y04847D02*
X0353D01*
Y0482*
X03559*
Y04847*
G37*
G36*
X0352D02*
X0349D01*
Y0482*
X0352*
Y04847*
G37*
G36*
X02117Y04865D02*
X02103D01*
Y04851*
X02106Y04851*
X02112Y04855*
X02116Y04862*
X02117Y04865*
G37*
G36*
X02093D02*
X02079D01*
X02079Y04862*
X02084Y04855*
X0209Y04851*
X02093Y04851*
Y04865*
G37*
G36*
X03403Y04809D02*
X03374D01*
Y04782*
X03403*
Y04809*
G37*
G36*
X03771Y04858D02*
X03754Y04857D01*
X03738Y04852*
X03723Y04844*
X0371Y04833*
X03699Y0482*
X03691Y04804*
X03686Y04788*
X03684Y04771*
X03686Y04754*
X03691Y04738*
X03699Y04723*
X0371Y0471*
X03723Y04699*
X03738Y04691*
X03754Y04686*
X03771Y04684*
X03788Y04686*
X03804Y04691*
X0382Y04699*
X03833Y0471*
X03844Y04723*
X03852Y04738*
X03857Y04754*
X03858Y04771*
X03857Y04788*
X03852Y04804*
X03844Y0482*
X03833Y04833*
X0382Y04844*
X03804Y04852*
X03788Y04857*
X03771Y04858*
G37*
G36*
X0289Y04692D02*
Y04678D01*
X02904*
X02904Y0468*
X029Y04687*
X02893Y04691*
X0289Y04692*
G37*
G36*
X03364Y04809D02*
X03334D01*
Y04782*
X03364*
Y04809*
G37*
G36*
X03559D02*
X0349D01*
Y0476*
X03486Y04755*
X03481Y04757*
Y04809*
X03412*
Y04754*
X03403*
Y04772*
X03334*
Y04746*
X03337*
X03339Y04741*
X0333Y04732*
X03325Y04733*
X03324Y04737*
X03322Y04743*
X03317Y04749*
X03311Y04754*
X03305Y04756*
X03298Y04757*
X0329Y04756*
X03284Y04754*
X03278Y04749*
X03273Y04743*
X03268*
X03266Y04746*
X0326Y04751*
X03254Y04754*
X03247Y04755*
X03148*
X03144Y04754*
X03141Y04754*
X03141Y04754*
X03141*
X03137Y04752*
X03134Y04751*
X03134Y04751*
X03134Y04751*
X03131Y04749*
X03128Y04746*
X03128Y04746*
X03128Y04746*
X03126Y04743*
X03124Y04741*
X03124Y04741*
X03084Y04672*
X02957*
Y04437*
X03083*
X03124Y04366*
X03124Y04365*
X03124Y04365*
X03126Y04363*
X03128Y0436*
X03128Y0436*
X03128Y0436*
X03131Y04357*
X03134Y04355*
X03134Y04355*
X03134Y04355*
X03137Y04354*
X03141Y04352*
X03141Y04352*
X03141Y04352*
X03144Y04352*
X03148Y04351*
X03148Y04351*
X03148Y04351*
X03188*
X0319Y04347*
X03189Y04345*
X03187Y04338*
X03189Y0433*
X03193Y04323*
X032Y04319*
X03208Y04317*
X03208Y04317*
X0321Y04313*
X03209Y04312*
X03197Y043*
X03192Y04302*
X0319Y04309*
X03186Y04316*
X03179Y0432*
X03172Y04322*
X03164Y0432*
X03157Y04316*
X03153Y04309*
X03151Y04302*
X03153Y04294*
X03157Y04287*
X03164Y04283*
X03172Y04281*
X03173Y04276*
X0316Y04263*
X03155Y04257*
X03153Y04251*
X03152Y04244*
Y03601*
X03147*
X03125*
Y03625*
X03124Y03629*
X03121Y03633*
X03003Y03751*
X03004Y03754*
X03002Y03761*
X02998Y03768*
X02991Y03772*
X02984Y03774*
X02976Y03772*
X02969Y03768*
X02965Y03761*
X02963Y03754*
X02965Y03746*
X02969Y03739*
X02976Y03735*
X02984Y03733*
X02986Y03734*
X031Y03619*
Y03601*
X03078*
Y03538*
X03147*
X03148*
X03152Y03535*
Y03527*
X03147*
X03078*
Y03464*
X031*
Y03453*
X03078*
Y0339*
X03147*
X03148*
X03152Y03387*
Y03379*
X03147*
X03078*
Y03359*
X03071*
X03071Y0336*
X03064Y03364*
X03057Y03366*
X03049Y03364*
X03042Y0336*
X03038Y03353*
X03036Y03346*
X03038Y03338*
X03042Y03331*
X03049Y03327*
X03057Y03325*
X03064Y03327*
X03071Y03331*
X03073Y03335*
X03078*
Y03316*
X03147*
X03148*
X03152Y03312*
Y03225*
X03148Y03222*
X0314Y03225*
X03131Y03226*
X03121Y03225*
X03112Y03221*
X03105Y03216*
X03062*
X0305Y03228*
X03044Y03233*
X03038Y03235*
X0303Y03236*
X03028*
Y03243*
X02993*
Y03407*
X03056*
Y03642*
X02873*
Y03407*
X02938*
Y0328*
X02897*
X02895Y03284*
X02897Y03292*
X02895Y03299*
X02891Y03306*
X02884Y0331*
X02882Y03311*
X02714Y03479*
Y0361*
X02715Y03612*
X02717Y0362*
X02715Y03627*
X02711Y03634*
X02704Y03638*
X02697Y0364*
X02689Y03638*
X02682Y03634*
X02678Y03627*
X02676Y0362*
X02678Y03612*
X02682Y03605*
X02689Y03601*
X02689Y03601*
Y03474*
X0269Y03469*
X02693Y03465*
X02858Y033*
X02858Y03299*
X02856Y03292*
X02858Y03284*
X02856Y0328*
X02818*
X02818Y0328*
X02814Y03287*
X02807Y03291*
X028Y03293*
X02792Y03291*
X02785Y03287*
X02781Y0328*
X02779Y03273*
X02781Y03265*
X02785Y03258*
X02792Y03254*
X028Y03252*
X02807Y03254*
X0281Y03256*
X02938*
Y03243*
X02903*
Y03221*
X02449*
X02346Y03324*
Y03338*
X0235Y0334*
X02354Y03338*
X0236Y03337*
X02413*
X02419Y03338*
X02424Y03341*
X02427Y03346*
X02428Y0335*
X02565*
X02572Y0335*
X02579Y03353*
X02584Y03358*
X02589Y03363*
X02592Y0337*
X02592Y03377*
Y03407*
X02656*
Y03642*
X02592*
Y03732*
X02592Y03739*
X02589Y03746*
X02584Y03752*
X02528Y03808*
Y03834*
X02554*
Y03917*
X02439*
Y03834*
X02473*
Y03797*
X02474Y03789*
X02476Y03783*
X02481Y03777*
X02537Y03721*
Y03642*
X02473*
Y03407*
X02471Y03405*
X02428*
X02427Y03409*
X02424Y03414*
Y03418*
X02427Y03423*
X02427Y03424*
X02387*
Y03434*
X02427*
X02427Y03434*
X02424Y03439*
Y03443*
X02427Y03448*
X02428Y03454*
X02427Y0346*
X02424Y03465*
Y03469*
X02427Y03474*
X02428Y0348*
X02427Y03485*
X02424Y0349*
Y03495*
X02427Y035*
X02427Y035*
X02346*
X02346Y035*
X02349Y03495*
Y0349*
X02346Y03485*
X02346Y03484*
X02325Y03464*
X02323Y0346*
X02322Y03455*
Y0343*
Y03319*
X02323Y03314*
X02325Y03311*
X02436Y032*
X0244Y03198*
Y03197*
Y03175*
X0243*
Y03197*
X02367*
Y03128*
X0243*
Y0315*
X0244*
Y03128*
X02503*
Y03196*
X02514*
Y03128*
X02577*
Y03196*
X02903*
Y03174*
X03026*
X03031Y03169*
X03037Y03164*
X03043Y03162*
X03051Y03161*
X03105*
X03112Y03156*
X03121Y03152*
X03131Y03151*
X0314Y03152*
X03149Y03156*
X03156Y03161*
X03205*
X03212Y03156*
X03221Y03152*
X03231Y03151*
X0324Y03152*
X03249Y03156*
X03256Y03161*
X03305*
X03312Y03156*
X03321Y03152*
X03331Y03151*
X0334Y03152*
X03349Y03156*
X03357Y03162*
X03363Y0317*
X03367Y03179*
X03368Y03189*
X03367Y03198*
X03363Y03207*
X03357Y03215*
X03349Y03221*
X0334Y03225*
X03331Y03226*
X03321Y03225*
X03312Y03221*
X03305Y03216*
X03256*
X03249Y03221*
X0324Y03225*
X03231Y03226*
X03221Y03225*
X03212Y03221*
X03207Y03223*
Y03423*
X03255*
Y03416*
X03364*
X03382Y03413*
X03384Y03405*
X03388Y03398*
X03393Y03395*
Y0339*
X03389Y03388*
X03385Y03381*
X03383Y03374*
X03384Y03373*
X0338Y03369*
X0338*
X03323*
Y03339*
X0338*
Y03332*
X03383Y03335*
X03384Y03335*
X03385Y03335*
X03387Y03328*
X03391Y03321*
X03398Y03317*
X03406Y03315*
X03413Y03317*
X0342Y03321*
X03424Y03327*
X03427*
X03429Y03327*
X03429Y03327*
X03434Y03323*
X0344Y03322*
X03493*
X03499Y03323*
X03504Y03327*
X03507Y03332*
X03508Y03337*
X03507Y03343*
X03504Y03348*
Y03352*
X03507Y03357*
X03508Y03362*
X03512*
X03574*
Y03452*
Y03543*
X03512*
X03508*
X03508Y03542*
X03507Y03537*
X03466*
Y03547*
X03507*
X03507Y03548*
X03504Y03553*
Y03557*
X03507Y03562*
X03507Y03563*
X03466*
Y03568*
X03461*
Y03583*
X0344*
X03437Y03582*
X03436Y03583*
X03434Y03587*
X03474Y03609*
X03683*
X03723Y03587*
X03722Y03583*
X0372Y03582*
X03717Y03583*
X03696*
Y03568*
X03691*
Y03563*
X0365*
X0365Y03562*
X03653Y03557*
Y03553*
X0365Y03548*
X0365Y03547*
X03691*
Y03537*
X0365*
X03649Y03542*
X03649Y03543*
X03645*
X03584*
Y03452*
Y03362*
X03645*
X03649*
X0365Y03357*
X03653Y03352*
Y03348*
X0365Y03343*
X03649Y03337*
X0365Y03332*
X03653Y03327*
X03658Y03323*
X03664Y03322*
X03679*
Y03302*
X03678Y03301*
Y03292*
X03676Y03291*
X03672Y03284*
X0367Y03277*
X03672Y03269*
X03676Y03262*
X03683Y03258*
X03691Y03256*
X03698Y03258*
X03705Y03262*
X03709Y03269*
X03711Y03277*
X03709Y03284*
X03705Y03291*
X03703Y03292*
Y033*
X03703Y03301*
Y03322*
X03717*
X03723Y03323*
X03728Y03327*
X03731Y03332*
X03732Y03337*
X03731Y03343*
X03728Y03348*
X03726Y03349*
X03727Y03351*
X03737*
X03742Y03352*
X03745Y03354*
X03779Y03388*
X03784Y03386*
Y0337*
X03853*
Y03433*
X03831*
Y03444*
X03853*
Y03507*
X03784*
X03783*
X0378Y0351*
Y03518*
X03784*
X03853*
Y03581*
X03831*
Y03997*
X0383Y04001*
X03827Y04005*
X03723Y04109*
X03719Y04111*
X03715Y04112*
X03697*
Y04192*
X03607*
Y04211*
X03621Y04225*
X03641*
Y04218*
X03704*
Y04287*
X037*
Y04301*
X03704*
Y0437*
X037*
Y04461*
X03699Y04468*
X03696Y04474*
X03692Y0448*
X03686Y04485*
X03679Y04487*
X03678Y04488*
X0367Y04493*
X03661Y04497*
X03652Y04498*
X03642Y04497*
X03633Y04493*
X03626Y04488*
X03577*
X0357Y04493*
X03561Y04497*
X03552Y04498*
X03542Y04497*
X03533Y04493*
X03525Y04487*
X03519Y04479*
X03515Y0447*
X03514Y04461*
X03515Y04451*
X03519Y04442*
X03525Y04434*
X03533Y04428*
X03542Y04424*
X03552Y04423*
X03561Y04424*
X0357Y04428*
X03577Y04433*
X03626*
X03633Y04428*
X03642Y04424*
X03644Y04424*
Y0437*
X03641*
Y04301*
X03644*
Y04287*
X03641*
Y0428*
X0361*
X03602Y04279*
X03596Y04277*
X0359Y04272*
X0356Y04242*
X03555Y04236*
X03553Y0423*
X03552Y04223*
Y04192*
X03462*
Y04009*
X03697*
Y04088*
X0371*
X03806Y03991*
Y03581*
X03784*
X03783*
X0378Y03585*
Y03602*
X0378Y03602*
X0378Y03602*
X03779Y03606*
X03779Y03609*
X03779Y03609*
X03779Y03609*
X03777Y03613*
X03776Y03616*
X03776Y03616*
X03776Y03616*
X03774Y03619*
X03771Y03622*
X03771Y03622*
X03771Y03622*
X03768Y03624*
X03766Y03626*
X03766Y03626*
X03766Y03626*
X03697Y03666*
Y03792*
X03462*
Y03666*
X03392Y03626*
X03391Y03626*
X03391Y03626*
X03389Y03624*
X03386Y03622*
X03386Y03622*
X03386Y03622*
X03383Y03619*
X03381Y03616*
X03381Y03616*
X03381Y03616*
X0338Y03613*
X03378Y0361*
X03378Y03609*
X03378Y03609*
X03378Y03606*
X03377Y03602*
X03377Y03602*
X03377Y03602*
Y03555*
X03373Y03552*
X03369Y03555*
X03362Y03557*
X03354Y03555*
X03347Y03551*
X03343Y03544*
X03341Y03537*
X03343Y03529*
X03347Y03522*
X03354Y03518*
X03362Y03516*
X03369Y03518*
X03373Y03521*
X03377Y03518*
Y03504*
X03378Y03496*
X03381Y0349*
X03381Y0349*
X03379Y03485*
X03255*
Y03478*
X03207*
Y04232*
X0324Y04265*
X03263*
Y0423*
X03332*
Y04355*
X03329*
X03328Y0436*
X0333Y04361*
X0333Y04361*
X03338Y04359*
X03345Y04361*
X03352Y04365*
X03353Y04367*
X03358*
X03359Y04364*
X03366Y0436*
X03374Y04358*
X03375Y04359*
X03379Y04356*
X03379Y04355*
Y04354*
Y04298*
X03409*
Y04355*
X03418*
X03418Y0436*
X0342Y04361*
X03427Y04365*
X03431Y04372*
X03433Y0438*
X03431Y04387*
X03427Y04394*
X0342Y04398*
X0342Y04398*
X03418Y044*
X03423Y04403*
Y04403*
X03427Y04408*
X03428Y04414*
Y04467*
X03427Y04473*
X03423Y04478*
X03418Y04481*
X03413Y04482*
X03407Y04481*
X03402Y04478*
X03398*
X03393Y04481*
X03387Y04482*
Y04485*
X03388Y04486*
Y04548*
X03207*
Y04486*
Y04482*
X03208Y04482*
X03213Y04481*
Y0444*
X03203*
Y04481*
X03202Y04481*
X03197Y04478*
X03193*
X03188Y04481*
X03187Y04481*
Y0444*
X03182*
Y04435*
X03167*
Y04414*
X03168Y04411*
X03167Y0441*
X03162Y0441*
X0314Y0445*
Y04657*
X03162Y04696*
X03167Y04696*
X03168Y04695*
X03167Y04691*
Y0467*
X03182*
Y04665*
X03187*
Y04624*
X03188Y04624*
X03193Y04627*
X03197*
X03202Y04624*
X03203Y04624*
Y04665*
X03213*
Y04624*
X03208Y04623*
X03207Y04623*
Y04619*
Y04558*
X03388*
Y04619*
Y04623*
X03393Y04624*
X03398Y04627*
X03402*
X03407Y04624*
X03413Y04623*
X03418Y04624*
X03423Y04627*
X03427Y04632*
X03428Y04638*
Y04691*
X03427Y04697*
X03425Y047*
Y04708*
X03467*
X03472Y04708*
X03476Y04711*
X0351Y04746*
X03559*
Y04809*
G37*
G36*
X03534Y04662D02*
X03508D01*
Y04633*
X03534*
Y04662*
G37*
G36*
X0289Y04495D02*
Y04481D01*
X02904*
X02904Y04484*
X029Y0449*
X02893Y04494*
X0289Y04495*
G37*
G36*
X0288D02*
X02878Y04494D01*
X02871Y0449*
X02867Y04484*
X02866Y04481*
X0288*
Y04495*
G37*
G36*
X02253Y04544D02*
X02226D01*
Y04515*
X02253*
Y04544*
G37*
G36*
X02216D02*
X0219D01*
Y04515*
X02216*
Y04544*
G37*
G36*
X02103Y04495D02*
Y04481D01*
X02117*
X02116Y04484*
X02112Y0449*
X02106Y04494*
X02103Y04495*
G37*
G36*
X02216Y04505D02*
X0219D01*
Y04475*
X02216*
Y04505*
G37*
G36*
X02332Y04621D02*
X02263D01*
Y04558*
X02284*
Y04544*
X02264*
Y04475*
X02268*
Y04463*
X02264*
Y04394*
X02268*
Y04348*
X02269Y04341*
X02272Y04334*
X02273Y04333*
X02274Y04324*
X02278Y04315*
X02284Y04307*
X02292Y04301*
X02301Y04297*
X02308Y04296*
Y04247*
X0228*
Y04142*
X02305*
X02308Y04139*
X02308Y04087*
X0228*
Y03982*
X02304*
X02308Y03979*
X02308Y03927*
X0228*
Y03822*
X02304*
X02307Y03819*
X02307Y03768*
X02279*
Y03663*
X02391*
Y03768*
X02366*
X02363Y03771*
X02363Y03822*
X02392*
Y03927*
X02367*
X02363Y0393*
X02363Y03982*
X02392*
Y04005*
X02439*
Y03992*
X02554*
Y04021*
X02573*
X02575Y04017*
X02582Y04013*
X0259Y04011*
X02597Y04013*
X02604Y04017*
X02608Y04024*
X0261Y04032*
X02608Y04039*
X02604Y04046*
X02597Y0405*
X0259Y04052*
X02582Y0405*
X02575Y04046*
X02575Y04045*
X02554*
Y04075*
X02439*
Y04061*
X02392*
Y04087*
X02367*
X02364Y0409*
X02364Y04142*
X02392*
Y04247*
X02364*
Y04306*
X02385*
X02392Y04301*
X02401Y04297*
X02411Y04296*
X0242Y04297*
X02427Y043*
X02455Y04271*
Y04261*
X02433*
Y04198*
X02502*
Y04261*
X0248*
Y04277*
X02479Y0428*
X02479Y04281*
X02476Y04285*
X02444Y04317*
X02447Y04324*
X02448Y04334*
X02447Y04343*
X02443Y04352*
X02437Y0436*
X02429Y04366*
X0242Y0437*
X02411Y04371*
X02401Y0437*
X02392Y04366*
X02385Y04361*
X02336*
X02329Y04366*
X02324Y04369*
Y04394*
X02327*
Y04463*
X02324*
Y04475*
X02327*
Y04482*
X02389*
Y0447*
X02504*
Y04553*
X02389*
Y04537*
X02327*
Y04544*
X02308*
Y04558*
X02332*
Y04621*
G37*
G36*
X02093Y04495D02*
X0209Y04494D01*
X02084Y0449*
X02079Y04484*
X02079Y04481*
X02093*
Y04495*
G37*
G36*
X02253Y04505D02*
X02226D01*
Y04475*
X02253*
Y04505*
G37*
G36*
X03792Y04662D02*
X03729D01*
Y04593*
X03792*
Y04627*
X03815*
X03816Y04625*
X03823Y04621*
X03831Y04619*
X03838Y04621*
X03845Y04625*
X03849Y04632*
X03851Y0464*
X03849Y04647*
X03845Y04654*
X03838Y04658*
X03831Y0466*
X03823Y04658*
X03816Y04654*
X03815Y04652*
X03792*
Y04662*
G37*
G36*
X03571Y04623D02*
X03544D01*
Y04593*
X03571*
Y04623*
G37*
G36*
X02196Y04858D02*
X02179Y04857D01*
X02163Y04852*
X02148Y04844*
X02135Y04833*
X02124Y0482*
X02116Y04804*
X02111Y04788*
X02109Y04771*
X02111Y04754*
X02116Y04738*
X02124Y04723*
X02135Y0471*
X02148Y04699*
X02163Y04691*
X02179Y04686*
X02196Y04684*
X02213Y04686*
X0223Y04691*
X02245Y04699*
X02258Y0471*
X02269Y04723*
X02273Y04731*
X02278Y0473*
X02279Y04726*
X02283Y04719*
X02285Y04718*
Y04695*
X02263*
Y04632*
X02332*
Y04695*
X0231*
Y04718*
X02312Y04719*
X02316Y04726*
X02318Y04734*
X02317Y04736*
X0235Y04769*
X02406*
Y04838*
X02343*
Y04796*
X023Y04753*
X02298Y04754*
X0229Y04752*
X02285Y04749*
X02281Y04752*
X02282Y04754*
X02283Y04771*
X02282Y04788*
X02277Y04804*
X02269Y0482*
X02258Y04833*
X02245Y04844*
X0223Y04852*
X02213Y04857*
X02196Y04858*
G37*
G36*
X03177Y0466D02*
X03167D01*
Y04638*
X03168Y04632*
X03172Y04627*
X03177Y04624*
X03177Y04624*
Y0466*
G37*
G36*
X03534Y04623D02*
X03508D01*
Y04593*
X03534*
Y04623*
G37*
G36*
X03889Y04569D02*
X03875D01*
Y04555*
X03877Y04556*
X03884Y0456*
X03888Y04567*
X03889Y04569*
G37*
G36*
X03865D02*
X03851D01*
X03851Y04567*
X03855Y0456*
X03862Y04556*
X03865Y04555*
Y04569*
G37*
G36*
X03875Y04593D02*
Y04579D01*
X03889*
X03888Y04582*
X03884Y04588*
X03877Y04593*
X03875Y04593*
G37*
G36*
X03865D02*
X03862Y04593D01*
X03855Y04588*
X03851Y04582*
X03851Y04579*
X03865*
Y04593*
G37*
G36*
X02683Y04889D02*
X02681Y04888D01*
X02674Y04884*
X0267Y04877*
X02669Y04875*
X02683*
Y04889*
G37*
G36*
X02497D02*
Y04875D01*
X02511*
X0251Y04877*
X02506Y04884*
X02499Y04888*
X02497Y04889*
G37*
G36*
X0288D02*
X02878Y04888D01*
X02871Y04884*
X02867Y04877*
X02866Y04875*
X0288*
Y04889*
G37*
G36*
X02693D02*
Y04875D01*
X02708*
X02707Y04877*
X02703Y04884*
X02696Y04888*
X02693Y04889*
G37*
G36*
X02487D02*
X02484Y04888D01*
X02477Y04884*
X02473Y04877*
X02473Y04875*
X02487*
Y04889*
G37*
G36*
X02103D02*
Y04875D01*
X02117*
X02116Y04877*
X02112Y04884*
X02106Y04888*
X02103Y04889*
G37*
G36*
X02093D02*
X0209Y04888D01*
X02084Y04884*
X02079Y04877*
X02079Y04875*
X02093*
Y04889*
G37*
G36*
X023D02*
Y04875D01*
X02314*
X02313Y04877*
X02309Y04884*
X02302Y04888*
X023Y04889*
G37*
G36*
X0229D02*
X02287Y04888D01*
X02281Y04884*
X02276Y04877*
X02276Y04875*
X0229*
Y04889*
G37*
G36*
X03678D02*
Y04875D01*
X03692*
X03691Y04877*
X03687Y04884*
X0368Y04888*
X03678Y04889*
G37*
G36*
X03668D02*
X03665Y04888D01*
X03659Y04884*
X03654Y04877*
X03654Y04875*
X03668*
Y04889*
G37*
G36*
X03875D02*
Y04875D01*
X03889*
X03888Y04877*
X03884Y04884*
X03877Y04888*
X03875Y04889*
G37*
G36*
X03865D02*
X03862Y04888D01*
X03855Y04884*
X03851Y04877*
X03851Y04875*
X03865*
Y04889*
G37*
G36*
X03284D02*
Y04875D01*
X03298*
X03298Y04877*
X03293Y04884*
X03287Y04888*
X03284Y04889*
G37*
G36*
X03077D02*
X03074Y04888D01*
X03068Y04884*
X03064Y04877*
X03063Y04875*
X03077*
Y04889*
G37*
G36*
X0289D02*
Y04875D01*
X02904*
X02904Y04877*
X029Y04884*
X02893Y04888*
X0289Y04889*
G37*
G36*
X03274D02*
X03271Y04888D01*
X03265Y04884*
X0326Y04877*
X0326Y04875*
X03274*
Y04889*
G37*
G36*
X03087D02*
Y04875D01*
X03101*
X03101Y04877*
X03096Y04884*
X0309Y04888*
X03087Y04889*
G37*
G36*
X03481Y04883D02*
X03412D01*
Y04864*
X03403*
Y04883*
X03334*
Y0482*
X03403*
Y0484*
X03412*
Y0482*
X03481*
Y04883*
G37*
G36*
X0288Y04865D02*
X02866D01*
X02867Y04862*
X02871Y04855*
X02878Y04851*
X0288Y04851*
Y04865*
G37*
G36*
X02708D02*
X02693D01*
Y04851*
X02696Y04851*
X02703Y04855*
X02707Y04862*
X02708Y04865*
G37*
G36*
X03077D02*
X03063D01*
X03064Y04862*
X03068Y04855*
X03074Y04851*
X03077Y04851*
Y04865*
G37*
G36*
X02904D02*
X0289D01*
Y04851*
X02893Y04851*
X029Y04855*
X02904Y04862*
X02904Y04865*
G37*
G36*
X02683D02*
X02669D01*
X0267Y04862*
X02674Y04855*
X02681Y04851*
X02683Y04851*
Y04865*
G37*
G36*
X02314D02*
X023D01*
Y04851*
X02302Y04851*
X02309Y04855*
X02313Y04862*
X02314Y04865*
G37*
G36*
X0229D02*
X02276D01*
X02276Y04862*
X02281Y04855*
X02287Y04851*
X0229Y04851*
Y04865*
G37*
G36*
X02511D02*
X02497D01*
Y04851*
X02499Y04851*
X02506Y04855*
X0251Y04862*
X02511Y04865*
G37*
G36*
X02487D02*
X02473D01*
X02473Y04862*
X02477Y04855*
X02484Y04851*
X02487Y04851*
Y04865*
G37*
G36*
X03889D02*
X03875D01*
Y04851*
X03877Y04851*
X03884Y04855*
X03888Y04862*
X03889Y04865*
G37*
G36*
X03865D02*
X03851D01*
X03851Y04862*
X03855Y04855*
X03862Y04851*
X03865Y04851*
Y04865*
G37*
G36*
X03559Y04883D02*
X0353D01*
Y04857*
X03559*
Y04883*
G37*
G36*
X0352D02*
X0349D01*
Y04857*
X0352*
Y04883*
G37*
G36*
X03692Y04865D02*
X03678D01*
Y04851*
X0368Y04851*
X03687Y04855*
X03691Y04862*
X03692Y04865*
G37*
G36*
X03274D02*
X0326D01*
X0326Y04862*
X03265Y04855*
X03271Y04851*
X03274Y04851*
Y04865*
G37*
G36*
X03101D02*
X03087D01*
Y04851*
X0309Y04851*
X03096Y04855*
X03101Y04862*
X03101Y04865*
G37*
G36*
X03668D02*
X03654D01*
X03654Y04862*
X03659Y04855*
X03665Y04851*
X03668Y04851*
Y04865*
G37*
G36*
X03298D02*
X03284D01*
Y04851*
X03287Y04851*
X03293Y04855*
X03298Y04862*
X03298Y04865*
G37*
G36*
X0214Y04247D02*
X02089D01*
Y042*
X0214*
Y04247*
G37*
G36*
X02971Y04215D02*
X02939D01*
Y04182*
X02971*
Y04215*
G37*
G36*
X03742Y04248D02*
X03715D01*
Y04218*
X03742*
Y04248*
G37*
G36*
X02201Y04247D02*
X0215D01*
Y042*
X02201*
Y04247*
G37*
G36*
X02929Y04215D02*
X02896D01*
Y04182*
X02929*
Y04215*
G37*
G36*
X02634Y04257D02*
X02624Y04256D01*
X02615Y04252*
X02607Y04246*
X02601Y04238*
X02597Y04229*
X02596Y0422*
X02597Y0421*
X02601Y04201*
X02607Y04193*
X02615Y04187*
X02624Y04183*
X02634Y04182*
X02643Y04183*
X02652Y04187*
X0266Y04193*
X02666Y04201*
X0267Y0421*
X02671Y0422*
X0267Y04229*
X02666Y04238*
X0266Y04246*
X02652Y04252*
X02643Y04256*
X02634Y04257*
G37*
G36*
X03345Y04192D02*
Y04178D01*
X03359*
X03359Y04181*
X03354Y04187*
X03348Y04192*
X03345Y04192*
G37*
G36*
X02834Y04257D02*
X02824Y04256D01*
X02815Y04252*
X02807Y04246*
X02801Y04238*
X02797Y04229*
X02796Y0422*
X02797Y0421*
X02801Y04201*
X02807Y04193*
X02815Y04187*
X02824Y04183*
X02834Y04182*
X02843Y04183*
X02852Y04187*
X0286Y04193*
X02866Y04201*
X0287Y0421*
X02871Y0422*
X0287Y04229*
X02866Y04238*
X0286Y04246*
X02852Y04252*
X02843Y04256*
X02834Y04257*
G37*
G36*
X02734D02*
X02724Y04256D01*
X02715Y04252*
X02707Y04246*
X02701Y04238*
X02697Y04229*
X02696Y0422*
X02697Y0421*
X02701Y04201*
X02707Y04193*
X02715Y04187*
X02724Y04183*
X02734Y04182*
X02743Y04183*
X02752Y04187*
X0276Y04193*
X02766Y04201*
X0277Y0421*
X02771Y0422*
X0277Y04229*
X02766Y04238*
X0276Y04246*
X02752Y04252*
X02743Y04256*
X02734Y04257*
G37*
G36*
X03778Y04287D02*
X03752D01*
Y04258*
X03778*
Y04287*
G37*
G36*
X03742D02*
X03715D01*
Y04258*
X03742*
Y04287*
G37*
G36*
X03495Y04274D02*
X03481D01*
Y0426*
X03484Y0426*
X0349Y04265*
X03494Y04271*
X03495Y04274*
G37*
G36*
X03471D02*
X03457D01*
X03457Y04271*
X03462Y04265*
X03468Y0426*
X03471Y0426*
Y04274*
G37*
G36*
X03448Y04288D02*
X03419D01*
Y0423*
X03448*
Y04288*
G37*
G36*
X02929Y04257D02*
X02896D01*
Y04225*
X02929*
Y04257*
G37*
G36*
X03778Y04248D02*
X03752D01*
Y04218*
X03778*
Y04248*
G37*
G36*
X03409Y04288D02*
X03379D01*
Y0423*
X03409*
Y04288*
G37*
G36*
X02971Y04257D02*
X02939D01*
Y04225*
X02971*
Y04257*
G37*
G36*
X03335Y04192D02*
X03332Y04192D01*
X03326Y04187*
X03322Y04181*
X03321Y04178*
X03335*
Y04192*
G37*
G36*
X02755Y04106D02*
X02728D01*
Y04076*
X02755*
Y04106*
G37*
G36*
X02502Y04187D02*
X02433D01*
Y04124*
X02502*
Y04143*
X02554*
X02595Y04102*
X02599Y04099*
X02604Y04098*
X02654*
Y04076*
X02717*
Y04145*
X02654*
Y04123*
X02609*
X02567Y04164*
X02564Y04166*
X02559Y04167*
X02502*
Y04187*
G37*
G36*
X03274Y04101D02*
X03271Y04101D01*
X03265Y04096*
X0326Y0409*
X0326Y04087*
X03274*
Y04101*
G37*
G36*
X02791Y04106D02*
X02765D01*
Y04076*
X02791*
Y04106*
G37*
G36*
X03889Y04077D02*
X03875D01*
Y04063*
X03877Y04064*
X03884Y04068*
X03888Y04074*
X03889Y04077*
G37*
G36*
X03274D02*
X0326D01*
X0326Y04074*
X03265Y04068*
X03271Y04064*
X03274Y04063*
Y04077*
G37*
G36*
X03114Y04071D02*
Y04057D01*
X03128*
X03127Y04059*
X03123Y04066*
X03116Y0407*
X03114Y04071*
G37*
G36*
X03865Y04077D02*
X03851D01*
X03851Y04074*
X03855Y04068*
X03862Y04064*
X03865Y04063*
Y04077*
G37*
G36*
X03298D02*
X03284D01*
Y04063*
X03287Y04064*
X03293Y04068*
X03298Y04074*
X03298Y04077*
G37*
G36*
X02201Y0419D02*
X0215D01*
Y04142*
X02201*
Y0419*
G37*
G36*
X0214D02*
X02089D01*
Y04142*
X0214*
Y0419*
G37*
G36*
X03359Y04168D02*
X03345D01*
Y04154*
X03348Y04155*
X03354Y04159*
X03359Y04165*
X03359Y04168*
G37*
G36*
X03335D02*
X03321D01*
X03322Y04165*
X03326Y04159*
X03332Y04155*
X03335Y04154*
Y04168*
G37*
G36*
X02791Y04145D02*
X02765D01*
Y04116*
X02791*
Y04145*
G37*
G36*
X03865Y04101D02*
X03862Y04101D01*
X03855Y04096*
X03851Y0409*
X03851Y04087*
X03865*
Y04101*
G37*
G36*
X03284D02*
Y04087D01*
X03298*
X03298Y0409*
X03293Y04096*
X03287Y04101*
X03284Y04101*
G37*
G36*
X02755Y04145D02*
X02728D01*
Y04116*
X02755*
Y04145*
G37*
G36*
X03875Y04101D02*
Y04087D01*
X03889*
X03888Y0409*
X03884Y04096*
X03877Y04101*
X03875Y04101*
G37*
G36*
X02216Y04463D02*
X0219D01*
Y04434*
X02216*
Y04463*
G37*
G36*
X03789Y04456D02*
X03757D01*
Y04423*
X03761Y04424*
X0377Y04428*
X03778Y04434*
X03784Y04442*
X03788Y04451*
X03789Y04456*
G37*
G36*
X0248Y04838D02*
X02417D01*
Y04769*
X02434*
Y04711*
X02389*
Y04628*
X02504*
Y04641*
X02522*
X02557Y04607*
Y04437*
X0274*
Y04672*
X02571*
X02554Y04689*
X02548Y04693*
X02541Y04696*
X02534Y04697*
X02504*
Y04711*
X02459*
Y04769*
X0248*
Y04838*
G37*
G36*
X02253Y04463D02*
X02226D01*
Y04434*
X02253*
Y04463*
G37*
G36*
X03747Y04456D02*
X03714D01*
X03715Y04451*
X03719Y04442*
X03725Y04434*
X03733Y04428*
X03742Y04424*
X03747Y04423*
Y04456*
G37*
G36*
X02253Y04424D02*
X02226D01*
Y04394*
X02253*
Y04424*
G37*
G36*
X02216D02*
X0219D01*
Y04394*
X02216*
Y04424*
G37*
G36*
X03889Y04456D02*
X03857D01*
Y04423*
X03889*
Y04456*
G37*
G36*
X03847D02*
X03814D01*
Y04423*
X03847*
Y04456*
G37*
G36*
X03757Y04498D02*
Y04466D01*
X03789*
X03788Y0447*
X03784Y04479*
X03778Y04487*
X0377Y04493*
X03761Y04497*
X03757Y04498*
G37*
G36*
X03747D02*
X03742Y04497D01*
X03733Y04493*
X03725Y04487*
X03719Y04479*
X03715Y0447*
X03714Y04466*
X03747*
Y04498*
G37*
G36*
X03889Y04498D02*
X03857D01*
Y04466*
X03889*
Y04498*
G37*
G36*
X03847D02*
X03814D01*
Y04466*
X03847*
Y04498*
G37*
G36*
X02904Y04471D02*
X0289D01*
Y04457*
X02893Y04457*
X029Y04462*
X02904Y04468*
X02904Y04471*
G37*
G36*
X02093D02*
X02079D01*
X02079Y04468*
X02084Y04462*
X0209Y04457*
X02093Y04457*
Y04471*
G37*
G36*
X03177Y04481D02*
X03177Y04481D01*
X03172Y04478*
X03168Y04473*
X03167Y04467*
Y04445*
X03177*
Y04481*
G37*
G36*
X0288Y04471D02*
X02866D01*
X02867Y04468*
X02871Y04462*
X02878Y04457*
X0288Y04457*
Y04471*
G37*
G36*
X02117D02*
X02103D01*
Y04457*
X02106Y04457*
X02112Y04462*
X02116Y04468*
X02117Y04471*
G37*
G36*
X03778Y0437D02*
X03752D01*
Y04341*
X03778*
Y0437*
G37*
G36*
X02106Y04329D02*
X02073D01*
Y04296*
X02106*
Y04329*
G37*
G36*
X03875Y04298D02*
Y04284D01*
X03889*
X03888Y04287*
X03884Y04293*
X03877Y04298*
X03875Y04298*
G37*
G36*
X02206Y04329D02*
X02173D01*
X02174Y04324*
X02178Y04315*
X02184Y04307*
X02192Y04301*
X02201Y04297*
X02206Y04296*
Y04329*
G37*
G36*
X02148D02*
X02116D01*
Y04296*
X02148*
Y04329*
G37*
G36*
X03865Y04298D02*
X03862Y04298D01*
X03855Y04293*
X03851Y04287*
X03851Y04284*
X03865*
Y04298*
G37*
G36*
X03889Y04274D02*
X03875D01*
Y0426*
X03877Y0426*
X03884Y04265*
X03888Y04271*
X03889Y04274*
G37*
G36*
X03865D02*
X03851D01*
X03851Y04271*
X03855Y04265*
X03862Y0426*
X03865Y0426*
Y04274*
G37*
G36*
X03481Y04298D02*
Y04284D01*
X03495*
X03494Y04287*
X0349Y04293*
X03484Y04298*
X03481Y04298*
G37*
G36*
X03471D02*
X03468Y04298D01*
X03462Y04293*
X03457Y04287*
X03457Y04284*
X03471*
Y04298*
G37*
G36*
X02206Y04371D02*
X02201Y0437D01*
X02192Y04366*
X02184Y0436*
X02178Y04352*
X02174Y04343*
X02173Y04339*
X02206*
Y04371*
G37*
G36*
X02148Y04371D02*
X02116D01*
Y04339*
X02148*
Y04371*
G37*
G36*
X03742Y0437D02*
X03715D01*
Y04341*
X03742*
Y0437*
G37*
G36*
X02216Y04371D02*
Y04339D01*
X02248*
X02247Y04343*
X02243Y04352*
X02237Y0436*
X02229Y04366*
X0222Y0437*
X02216Y04371*
G37*
G36*
X02106Y04371D02*
X02073D01*
Y04339*
X02106*
Y04371*
G37*
G36*
X03448Y04355D02*
X03419D01*
Y04298*
X03448*
Y04355*
G37*
G36*
X02248Y04329D02*
X02216D01*
Y04296*
X0222Y04297*
X02229Y04301*
X02237Y04307*
X02243Y04315*
X02247Y04324*
X02248Y04329*
G37*
G36*
X03778Y04331D02*
X03752D01*
Y04301*
X03778*
Y04331*
G37*
G36*
X03742D02*
X03715D01*
Y04301*
X03742*
Y04331*
G37*
%LNv2-3*%
%LPD*%
G54D10*
X03929Y03D03*
G54D11*
X02Y03039D02*
D01*
X02Y03036*
X02Y03033*
X02Y03031*
X02001Y03028*
X02002Y03025*
X02003Y03023*
X02004Y0302*
X02005Y03018*
X02007Y03016*
X02009Y03014*
X02011Y03012*
X02013Y0301*
X02015Y03008*
X02017Y03006*
X02019Y03005*
X02022Y03003*
X02024Y03002*
X02027Y03001*
X02029Y03001*
X02032Y03*
X02035Y03*
X02037Y03*
X02039Y03*
X03929D02*
D01*
X03931Y03*
X03934Y03*
X03937Y03*
X03939Y03001*
X03942Y03002*
X03945Y03003*
X03947Y03004*
X03949Y03005*
X03952Y03007*
X03954Y03009*
X03956Y03011*
X03958Y03013*
X0396Y03015*
X03961Y03017*
X03963Y03019*
X03964Y03022*
X03965Y03024*
X03966Y03027*
X03967Y03029*
X03967Y03032*
X03968Y03035*
X03968Y03037*
X03968Y03039*
Y04929D02*
D01*
X03968Y04931*
X03968Y04934*
X03967Y04937*
X03966Y04939*
X03966Y04942*
X03965Y04945*
X03963Y04947*
X03962Y04949*
X0396Y04952*
X03959Y04954*
X03957Y04956*
X03955Y04958*
X03953Y0496*
X03951Y04961*
X03948Y04963*
X03946Y04964*
X03943Y04965*
X03941Y04966*
X03938Y04967*
X03935Y04967*
X03933Y04968*
X0393Y04968*
X03929Y04968*
X02039D02*
D01*
X02036Y04968*
X02033Y04968*
X02031Y04967*
X02028Y04966*
X02025Y04966*
X02023Y04965*
X0202Y04963*
X02018Y04962*
X02016Y0496*
X02014Y04959*
X02012Y04957*
X0201Y04955*
X02008Y04953*
X02006Y04951*
X02005Y04948*
X02003Y04946*
X02002Y04943*
X02001Y04941*
X02001Y04938*
X02Y04935*
X02Y04933*
X02Y0493*
X02Y04929*
X02039Y04968D02*
X03929D01*
X03968Y03039D02*
Y04929D01*
X02039Y03D02*
X03929D01*
X02Y03039D02*
Y04929D01*
G54D12*
X03319Y03453D02*
D01*
X03319Y03452*
X03319Y03452*
X03319Y03452*
X03319Y03452*
X03319Y03452*
X03319Y03452*
X03319Y03452*
X03318Y03452*
X03318Y03452*
X03318Y03452*
X03318Y03452*
X03318Y03452*
X03318Y03452*
X03318Y03452*
X03318Y03452*
X03318Y03451*
X03318Y03451*
X03318Y03451*
X03318Y03451*
X03318Y03451*
X03318Y03451*
X03318Y03451*
X03318Y03451*
X03319Y03453D02*
D01*
X03319Y03452*
X03319Y03452*
X03319Y03452*
X03319Y03452*
X03319Y03452*
X03319Y03452*
X03319Y03452*
X03318Y03452*
X03318Y03452*
X03318Y03452*
X03318Y03452*
X03318Y03452*
X03318Y03452*
X03318Y03452*
X03318Y03452*
X03318Y03451*
X03318Y03451*
X03318Y03451*
X03318Y03451*
X03318Y03451*
X03318Y03451*
X03318Y03451*
X03318Y03451*
X03319Y03453D02*
D01*
X03319Y03452*
X03319Y03452*
X03319Y03452*
X03319Y03452*
X03319Y03452*
X03319Y03452*
X03319Y03452*
X03318Y03452*
X03318Y03452*
X03318Y03452*
X03318Y03452*
X03318Y03452*
X03318Y03452*
X03318Y03452*
X03318Y03452*
X03318Y03451*
X03318Y03451*
X03318Y03451*
X03318Y03451*
X03318Y03451*
X03318Y03451*
X03318Y03451*
X03318Y03451*
X03319Y03453D02*
D01*
X03319Y03452*
X03319Y03452*
X03319Y03452*
X03319Y03452*
X03319Y03452*
X03319Y03452*
X03319Y03452*
X03318Y03452*
X03318Y03452*
X03318Y03452*
X03318Y03452*
X03318Y03452*
X03318Y03452*
X03318Y03452*
X03318Y03452*
X03318Y03451*
X03318Y03451*
X03318Y03451*
X03318Y03451*
X03318Y03451*
X03318Y03451*
X03318Y03451*
X03318Y03451*
X03319Y03453D02*
D01*
X03319Y03452*
X03319Y03452*
X03319Y03452*
X03319Y03452*
X03319Y03452*
X03319Y03452*
X03319Y03452*
X03318Y03452*
X03318Y03452*
X03318Y03452*
X03318Y03452*
X03318Y03452*
X03318Y03452*
X03318Y03452*
X03318Y03452*
X03318Y03451*
X03318Y03451*
X03318Y03451*
X03318Y03451*
X03318Y03451*
X03318Y03451*
X03318Y03451*
X03318Y03451*
X02084Y03157D02*
Y03588D01*
Y03092D02*
Y03157D01*
X03231Y03189D02*
X03331D01*
X03131D02*
X0318D01*
X03231*
X03453Y03555D02*
X03579D01*
Y03512D02*
Y03555D01*
Y03472D02*
Y03512D01*
Y03555D02*
X03705D01*
X03752Y03504D02*
Y03602D01*
X0358Y03701D02*
X03752Y03602D01*
X03405D02*
X0358Y03701D01*
X03676Y03504D02*
X03752D01*
X03196Y04553D02*
X03238D01*
X03148Y04727D02*
X03247D01*
X03048Y04555D02*
X03148Y04727D01*
X03048Y04555D02*
X03148Y04379D01*
X03247Y04651D02*
Y04727D01*
X02335Y03716D02*
X02335Y03875D01*
X02144D02*
X02145Y04035D01*
X02144Y03716D02*
X02144Y03875D01*
X03531Y03084D02*
Y03189D01*
X03431D02*
X03531D01*
X03579*
X03631*
X0318Y03451D02*
X03318D01*
X03319Y03453*
X03431Y03189D02*
Y03264D01*
X03318D02*
X03431D01*
X03318D02*
Y03334D01*
X03297Y043D02*
X033Y04303D01*
X02221Y04429D02*
Y0451D01*
X02296Y04429D02*
Y0451D01*
X03297Y04293D02*
Y043D01*
X0318Y03451D02*
Y04244D01*
X03229Y04293D02*
X03297D01*
X03852Y04461D02*
Y04523D01*
X03752Y04461D02*
X03852D01*
X03552D02*
X03652D01*
X03747Y04253D02*
Y04336D01*
X03672Y04253D02*
Y04336D01*
X03747D02*
X03852D01*
Y04461*
X03672Y04336D02*
Y04461D01*
X0358Y041D02*
Y04223D01*
X0361Y04253*
X03672*
X03531Y03084D02*
X03883D01*
X03852Y04336D02*
X03883D01*
X02964Y03525D02*
X02966D01*
X02565Y03377D02*
Y03525D01*
X02366Y03377D02*
X02387D01*
X02565*
Y03525D02*
Y03732D01*
X02144Y03647D02*
Y03716D01*
X02084Y03588D02*
X02144Y03647D01*
X02084Y03092D02*
X0209D01*
Y0309D02*
Y03092D01*
Y0309D02*
X02303D01*
Y03092*
X02966Y03209D02*
X0303D01*
X03051Y03189*
X03131*
X02501Y03797D02*
X02565Y03732D01*
X02501Y03797D02*
Y03872D01*
X02497Y03876D02*
X02501Y03872D01*
X02337Y04033D02*
X02497D01*
X02335Y03875D02*
X02336Y04033D01*
X02336Y04035*
X02296Y0451D02*
X02444D01*
X02447Y04669D02*
X02534D01*
X02649Y04555*
X03319Y03453D02*
X03404D01*
X03297Y043D02*
Y04379D01*
X03405Y03504D02*
Y03537D01*
Y03602*
Y03504D02*
X03482D01*
X03883Y03084D02*
Y04336D01*
X03148Y04379D02*
X03208D01*
X03247*
Y04454*
X02966Y03209D02*
Y03525D01*
X02296Y04348D02*
Y04429D01*
X02221Y04344D02*
Y04429D01*
X02145Y04195D02*
Y04325D01*
X02111Y04334D02*
X02211D01*
X02145Y04035D02*
X02145Y04195D01*
X02336D02*
Y04327D01*
X02311Y04334D02*
X02411D01*
X02336Y04035D02*
X02336Y04195D01*
X0318Y03189D02*
Y03451D01*
Y04244D02*
X03229Y04293D01*
X03404Y03453D02*
X0348D01*
X03678Y03454D02*
X03757D01*
X03297Y04379D02*
Y04454D01*
X03298Y04652D02*
Y0473D01*
X03431Y03092D02*
Y03189D01*
X02966Y03092D02*
X03431D01*
X02303D02*
X02966D01*
X03414Y04293D02*
X0348D01*
Y04551*
X03824D02*
X03852Y04523D01*
X03783Y04551D02*
X03824D01*
X0348D02*
X03783D01*
X03579Y03367D02*
Y03393D01*
Y03189D02*
Y03367D01*
X03528D02*
X03579D01*
X0363*
X03385Y04553D02*
X03479D01*
X03196D02*
Y0468D01*
Y04427D02*
Y04553D01*
X03385Y04505D02*
X03388Y04501D01*
X03357Y04553D02*
X03385D01*
Y04604*
Y04505D02*
Y04553D01*
G54D13*
X03318Y03334D03*
Y03451D03*
X02966Y03092D03*
Y03209D03*
G54D14*
X03113Y0357D03*
Y03495D03*
X03369Y04777D03*
Y04852D03*
X03525D03*
Y04777D03*
X03447D03*
Y04852D03*
X03113Y03422D03*
Y03347D03*
X03819Y03327D03*
Y03402D03*
Y03475D03*
Y0355D03*
X02298Y04589D03*
Y04664D03*
X02468Y0423D03*
Y04155D03*
G54D15*
X03747Y04253D03*
X03672D03*
X03747Y04336D03*
X03672D03*
X02449Y04804D03*
X02374D03*
X02416Y03589D03*
X02341D03*
X02267D03*
X02192D03*
X02221Y0451D03*
X02296D03*
X02221Y04429D03*
X02296D03*
X02399Y03163D03*
X02324D03*
X03614Y04628D03*
X03539D03*
X02471Y03163D03*
X02546D03*
X0276Y04111D03*
X02685D03*
X03686Y04628D03*
X03761D03*
G54D16*
X0358Y041D03*
Y03701D03*
G54D17*
X02649Y04555D03*
X03048D03*
X02565Y03525D03*
X02964D03*
G54D18*
X02447Y04669D03*
Y04512D03*
X02497Y03876D03*
Y04033D03*
G54D19*
X02145Y04195D03*
X02336D03*
X02145Y04035D03*
X02336D03*
X02145Y03875D03*
X02336D03*
X02144Y03716D03*
X02335D03*
G54D20*
X03414Y04293D03*
X03297D03*
G54D21*
X02162Y03505D03*
Y0348D03*
Y03454D03*
Y03429D03*
Y03403D03*
Y03377D03*
Y03352D03*
X02387Y03505D03*
Y0348D03*
Y03454D03*
Y03429D03*
Y03403D03*
Y03377D03*
Y03352D03*
X03691Y03337D03*
Y03363D03*
Y03389D03*
Y03414D03*
Y0344D03*
Y03465D03*
Y03491D03*
Y03516D03*
Y03542D03*
Y03568D03*
X03466Y03337D03*
Y03363D03*
Y03389D03*
Y03414D03*
Y0344D03*
Y03465D03*
Y03491D03*
Y03516D03*
Y03542D03*
Y03568D03*
G54D22*
X03579Y03453D03*
G54D23*
X03298Y04553D03*
G54D24*
X03413Y04665D03*
X03387D03*
X03361D03*
X03336D03*
X0331D03*
X03285D03*
X03259D03*
X03234D03*
X03208D03*
X03182D03*
X03413Y0444D03*
X03387D03*
X03361D03*
X03336D03*
X0331D03*
X03285D03*
X03259D03*
X03234D03*
X03208D03*
X03182D03*
G54D25*
X02334Y03319D02*
X02444Y03209D01*
X02334Y03319D02*
Y0343D01*
X02358Y03454*
X02387*
X02334Y03455D02*
X02359Y0348D01*
X02387*
X02334Y0343D02*
Y03455D01*
X03403Y03413D02*
X03404Y03414D01*
X03466*
X03362Y03537D02*
X03405D01*
X03819Y03327D02*
X03878D01*
X03819Y03402D02*
Y03475D01*
Y0355D02*
Y03997D01*
X03715Y041D02*
X03819Y03997D01*
X0358Y041D02*
X03715D01*
X03691Y03363D02*
X03737D01*
X03776Y03402*
X03819*
X03691Y03414D02*
X03752D01*
X03338Y0438D02*
Y04439D01*
X03208Y04338D02*
Y04379D01*
X03691Y03301D02*
Y03337D01*
X03691Y03301D02*
X03691Y03301D01*
X03691Y03277D02*
Y03301D01*
X03419Y03389D02*
X03466D01*
X03433Y03363D02*
X03466D01*
X03406Y03336D02*
X03433Y03363D01*
X03404Y03374D02*
X03419Y03389D01*
X03361Y04391D02*
X03374Y04379D01*
X03361Y04391D02*
Y0444D01*
X03387Y04405D02*
Y0444D01*
Y04405D02*
X03413Y0438D01*
X03899Y04667D02*
Y04899D01*
X03369Y04852D02*
X03447D01*
X03525Y04899D02*
X03899D01*
X03525Y04852D02*
Y04899D01*
X03336Y04665D02*
Y04721D01*
X03357Y04742*
X03467Y0472D02*
X03525Y04777D01*
X03447Y04742D02*
Y04777D01*
X03357Y04742D02*
X03447D01*
X03413Y04665D02*
Y04714D01*
X03419Y0472*
X03467*
X03387Y04665D02*
Y04717D01*
X02447Y04669D02*
Y04801D01*
X02296Y0451D02*
Y04588D01*
X02298Y04664D02*
Y04734D01*
X02368Y04804*
X02162Y03505D02*
Y03516D01*
X02192Y03546*
Y03589*
X02267D02*
X02341D01*
X02416D02*
Y03632D01*
X02401Y03647D02*
X02416Y03632D01*
X02144Y03647D02*
X02401D01*
X02416Y03552D02*
Y03589D01*
Y03552D02*
X02445Y03524D01*
X02388Y03428D02*
X02445D01*
X02387Y03505D02*
X02444D01*
X02445Y03428D02*
Y03524D01*
X02588Y04033D02*
X0259Y04032D01*
X02497Y04033D02*
X02588D01*
X0224Y03494D02*
X02241Y03492D01*
X02162Y0348D02*
X02226D01*
X0224Y03494*
X02209Y03454D02*
X02241Y03423D01*
X02162Y03454D02*
X02209D01*
X03186Y04899D02*
X03525D01*
X03308Y04777D02*
X03369D01*
X02834Y04327D02*
Y04896D01*
X02068Y04899D02*
X03186D01*
X03308Y04777*
X0334Y04173D02*
X03377D01*
X03414Y0421*
Y04293*
X02702Y03474D02*
X02877Y03299D01*
X02702Y03474D02*
Y03615D01*
X02697Y0362D02*
X02702Y03615D01*
X02877Y03292D02*
Y03299D01*
X028Y03273D02*
X02804Y03268D01*
X02959D02*
X02964Y03273D01*
X02804Y03268D02*
X02959D01*
X03057Y03346D02*
X03058Y03347D01*
X03113*
Y03422D02*
Y03495D01*
Y0357D02*
Y03625D01*
X02984Y03754D02*
X03113Y03625D01*
X03172Y04302D02*
X03204Y04269D01*
X02085Y03429D02*
X02162D01*
X02085Y03403D02*
X02162D01*
X02087Y03377D02*
X02162D01*
X02084Y03352D02*
X02162D01*
X02934Y03924D02*
Y0422D01*
X02756Y03746D02*
X02934Y03924D01*
X02756Y03677D02*
Y03746D01*
X02324Y03094D02*
Y03163D01*
X02399D02*
X02471D01*
X02546D02*
Y03208D01*
X02444Y03209D02*
X02966D01*
X03783Y04551D02*
X03899Y04667D01*
X03773Y0464D02*
X03831D01*
X03614Y04628D02*
X03686D01*
X03539Y04554D02*
Y04628D01*
X02411Y04334D02*
X02468Y04277D01*
Y0423D02*
Y04277D01*
Y04155D02*
X02559D01*
X02604Y04111*
X02685*
X0276D02*
X02825D01*
X02934Y0422*
X03186Y04899D02*
X03221D01*
X02068Y03596D02*
Y04899D01*
X02834Y04327D02*
X03109Y04052D01*
G54D26*
X02196Y03196D03*
X03771D03*
Y04771D03*
X02196D03*
G54D27*
X03131Y03189D03*
X03231D03*
X03331D03*
X03431D03*
X03531D03*
X02211Y04334D03*
X02311D03*
X02411D03*
X03752Y04461D03*
X03652D03*
X03552D03*
X02834Y0422D03*
X02734D03*
X02634D03*
G54D28*
X03631Y03189D03*
X02111Y04334D03*
X03852Y04461D03*
X02934Y0422D03*
G54D29*
X03757Y03454D03*
X03404Y03453D03*
X03298Y0473D03*
X03297Y04379D03*
X03403Y03413D03*
X03362Y03537D03*
X03404Y03374D03*
X03691Y03277D03*
X03752Y03414D03*
X03338Y0438D03*
X03208Y04338D03*
X03406Y03336D03*
X03374Y04379D03*
X03413Y0438D03*
X03387Y04718D03*
X02298Y04734D03*
X0259Y04032D03*
X02241Y03492D03*
X02241Y03423D03*
X028Y03273D03*
X03109Y04052D03*
X0334Y04173D03*
X02697Y0362D03*
X02877Y03292D03*
X03057Y03346D03*
X02984Y03754D03*
X03172Y04302D03*
X02756Y03677D03*
X03579Y03433D03*
X03539D03*
X03579Y03472D03*
X03539D03*
X03579Y03512D03*
X03539D03*
X03618D03*
Y03472D03*
Y03433D03*
Y03393D03*
X03539D03*
X03579D03*
X03357Y04592D03*
X03831Y0464D03*
X03317Y04592D03*
X03357Y04553D03*
Y04513D03*
X03317D03*
X03278Y04592D03*
X03238D03*
Y04513D03*
X03278Y04553D03*
X03238D03*
X03317D03*
X03278Y04513D03*
X02098Y03098D03*
X02295D03*
X02492D03*
X02688D03*
X02885Y03092D03*
X03082D03*
X03279Y03098D03*
X03476D03*
X03673D03*
X0387D03*
Y03295D03*
Y03688D03*
Y03885D03*
Y04082D03*
Y04279D03*
Y04574D03*
Y0487D03*
X03673D03*
X03279D03*
X03082D03*
X02885D03*
X02688D03*
X02492D03*
X02295D03*
X02098D03*
Y04673D03*
Y04476D03*
Y0359D03*
Y03295D03*
X02295D03*
X02492D03*
X03279Y0359D03*
X03673Y03885D03*
X03476D03*
X03279D03*
Y04082D03*
X03476Y04279D03*
X02885Y03787D03*
X02492Y03688D03*
X02885Y04673D03*
Y04476D03*
X03879Y03492D03*
M02*