%FSTAX23Y23*%
%MOIN*%
%SFA1B1*%

%IPPOS*%
%ADD12C,0.039370*%
%ADD14R,0.053150X0.047244*%
%ADD15R,0.047244X0.053150*%
%ADD25C,0.008000*%
%ADD26C,0.157480*%
%ADD27C,0.059055*%
%ADD28R,0.059055X0.059055*%
%ADD29C,0.023622*%
%ADD30O,0.017717X0.094488*%
%ADD31R,0.023622X0.045275*%
%ADD32R,0.189240X0.129689*%
%ADD33R,0.124271X0.192653*%
%ADD34R,0.082000X0.026000*%
%ADD35R,0.066000X0.082000*%
%ADD59C,0.005000*%
%ADD60C,0.010000*%
%LNv2-1*%
%LPD*%
G54D59*
X039Y03501D02*
X039Y03501D01*
X039Y035*
X03895Y03508*
X03888Y03513*
X03882Y03514*
Y03492*
Y0347*
X03888Y03471*
X03895Y03476*
X039Y03483*
X039Y03482*
X039Y03482*
Y03067*
X02067*
Y049*
X039*
Y03501*
G54D60*
X03895Y03505D02*
X03894Y03505D01*
X0389Y03524*
X03899Y03511*
X0389Y03517*
X03877Y0352*
Y03492*
Y03463*
X0389Y03466*
X03899Y03472*
X0389Y03459*
X03894Y03478*
X03895Y03478*
Y03072*
X02072*
Y04895*
X03895*
Y03505*
X02074Y03078D02*
X03895D01*
X02074Y03088D02*
X03895D01*
X02074Y03098D02*
X03895D01*
X02074Y03108D02*
X03895D01*
X02074Y03118D02*
X03895D01*
X02074Y03128D02*
X03895D01*
X02074Y03138D02*
X03895D01*
X02074Y03148D02*
X03895D01*
X02074Y03158D02*
X03895D01*
X02074Y03168D02*
X03895D01*
X02074Y03178D02*
X03895D01*
X02074Y03188D02*
X03895D01*
X02074Y03198D02*
X03895D01*
X02074Y03208D02*
X03895D01*
X02074Y03218D02*
X03895D01*
X02074Y03228D02*
X03895D01*
X02074Y03238D02*
X03895D01*
X02074Y03248D02*
X03895D01*
X02074Y03258D02*
X03895D01*
X02074Y03268D02*
X03895D01*
X02074Y03278D02*
X03895D01*
X02074Y03288D02*
X03895D01*
X02074Y03298D02*
X03895D01*
X02074Y03308D02*
X03895D01*
X02074Y03318D02*
X03895D01*
X02074Y03328D02*
X03895D01*
X02074Y03338D02*
X03895D01*
X02074Y03348D02*
X03895D01*
X02074Y03358D02*
X03895D01*
X02074Y03368D02*
X03895D01*
X02074Y03378D02*
X03895D01*
X02074Y03388D02*
X03895D01*
X02074Y03398D02*
X03895D01*
X02074Y03408D02*
X03895D01*
X02074Y03418D02*
X03895D01*
X02074Y03428D02*
X03895D01*
X02074Y03438D02*
X03895D01*
X02074Y03448D02*
X03895D01*
X02074Y03458D02*
X03895D01*
X02074Y03468D02*
X03875D01*
X03894D02*
X03895D01*
X02074Y03478D02*
X03875D01*
X02074Y03488D02*
X03875D01*
X02074Y03498D02*
X03875D01*
X02074Y03508D02*
X03875D01*
X03896D02*
X03895D01*
X02074Y03518D02*
X03875D01*
X03892D02*
X03895D01*
X02074Y03528D02*
X03895D01*
X02074Y03538D02*
X03895D01*
X02074Y03548D02*
X03895D01*
X02074Y03558D02*
X03895D01*
X02074Y03568D02*
X03895D01*
X02074Y03578D02*
X03895D01*
X02074Y03588D02*
X03895D01*
X02074Y03598D02*
X03895D01*
X02074Y03608D02*
X03895D01*
X02074Y03618D02*
X03895D01*
X02074Y03628D02*
X03895D01*
X02074Y03638D02*
X03895D01*
X02074Y03648D02*
X03895D01*
X02074Y03658D02*
X03895D01*
X02074Y03668D02*
X03895D01*
X02074Y03678D02*
X03895D01*
X02074Y03688D02*
X03895D01*
X02074Y03698D02*
X03895D01*
X02074Y03708D02*
X03895D01*
X02074Y03718D02*
X03895D01*
X02074Y03728D02*
X03895D01*
X02074Y03738D02*
X03895D01*
X02074Y03748D02*
X03895D01*
X02074Y03758D02*
X03895D01*
X02074Y03768D02*
X03895D01*
X02074Y03778D02*
X03895D01*
X02074Y03788D02*
X03895D01*
X02074Y03798D02*
X03895D01*
X02074Y03808D02*
X03895D01*
X02074Y03818D02*
X03895D01*
X02074Y03828D02*
X03895D01*
X02074Y03838D02*
X03895D01*
X02074Y03848D02*
X03895D01*
X02074Y03858D02*
X03895D01*
X02074Y03868D02*
X03895D01*
X02074Y03878D02*
X03895D01*
X02074Y03888D02*
X03895D01*
X02074Y03898D02*
X03895D01*
X02074Y03908D02*
X03895D01*
X02074Y03918D02*
X03895D01*
X02074Y03928D02*
X03895D01*
X02074Y03938D02*
X03895D01*
X02074Y03948D02*
X03895D01*
X02074Y03958D02*
X03895D01*
X02074Y03968D02*
X03895D01*
X02074Y03978D02*
X03895D01*
X02074Y03988D02*
X03895D01*
X02074Y03998D02*
X03895D01*
X02074Y04008D02*
X03895D01*
X02074Y04018D02*
X03895D01*
X02074Y04028D02*
X03895D01*
X02074Y04038D02*
X03895D01*
X02074Y04048D02*
X03895D01*
X02074Y04058D02*
X03895D01*
X02074Y04068D02*
X03895D01*
X02074Y04078D02*
X03895D01*
X02074Y04088D02*
X03895D01*
X02074Y04098D02*
X03895D01*
X02074Y04108D02*
X03895D01*
X02074Y04118D02*
X03895D01*
X02074Y04128D02*
X03895D01*
X02074Y04138D02*
X03895D01*
X02074Y04148D02*
X03895D01*
X02074Y04158D02*
X03895D01*
X02074Y04168D02*
X03895D01*
X02074Y04178D02*
X03895D01*
X02074Y04188D02*
X03895D01*
X02074Y04198D02*
X03895D01*
X02074Y04208D02*
X03895D01*
X02074Y04218D02*
X03895D01*
X02074Y04228D02*
X03895D01*
X02074Y04238D02*
X03895D01*
X02074Y04248D02*
X03895D01*
X02074Y04258D02*
X03895D01*
X02074Y04268D02*
X03895D01*
X02074Y04278D02*
X03895D01*
X02074Y04288D02*
X03895D01*
X02074Y04298D02*
X03895D01*
X02074Y04308D02*
X03895D01*
X02074Y04318D02*
X03895D01*
X02074Y04328D02*
X03895D01*
X02074Y04338D02*
X03895D01*
X02074Y04348D02*
X03895D01*
X02074Y04358D02*
X03895D01*
X02074Y04368D02*
X03895D01*
X02074Y04378D02*
X03895D01*
X02074Y04388D02*
X03895D01*
X02074Y04398D02*
X03895D01*
X02074Y04408D02*
X03895D01*
X02074Y04418D02*
X03895D01*
X02074Y04428D02*
X03895D01*
X02074Y04438D02*
X03895D01*
X02074Y04448D02*
X03895D01*
X02074Y04458D02*
X03895D01*
X02074Y04468D02*
X03895D01*
X02074Y04478D02*
X03895D01*
X02074Y04488D02*
X03895D01*
X02074Y04498D02*
X03895D01*
X02074Y04508D02*
X03895D01*
X02074Y04518D02*
X03895D01*
X02074Y04528D02*
X03895D01*
X02074Y04538D02*
X03895D01*
X02074Y04548D02*
X03895D01*
X02074Y04558D02*
X03895D01*
X02074Y04568D02*
X03895D01*
X02074Y04578D02*
X03895D01*
X02074Y04588D02*
X03895D01*
X02074Y04598D02*
X03895D01*
X02074Y04608D02*
X03895D01*
X02074Y04618D02*
X03895D01*
X02074Y04628D02*
X03895D01*
X02074Y04638D02*
X03895D01*
X02074Y04648D02*
X03895D01*
X02074Y04658D02*
X03895D01*
X02074Y04668D02*
X03895D01*
X02074Y04678D02*
X03895D01*
X02074Y04688D02*
X03895D01*
X02074Y04698D02*
X03895D01*
X02074Y04708D02*
X03895D01*
X02074Y04718D02*
X03895D01*
X02074Y04728D02*
X03895D01*
X02074Y04738D02*
X03895D01*
X02074Y04748D02*
X03895D01*
X02074Y04758D02*
X03895D01*
X02074Y04768D02*
X03895D01*
X02074Y04778D02*
X03895D01*
X02074Y04788D02*
X03895D01*
X02074Y04798D02*
X03895D01*
X02074Y04808D02*
X03895D01*
X02074Y04818D02*
X03895D01*
X02074Y04828D02*
X03895D01*
X02074Y04838D02*
X03895D01*
X02074Y04848D02*
X03895D01*
X02074Y04858D02*
X03895D01*
X02074Y04868D02*
X03895D01*
X02074Y04878D02*
X03895D01*
X02074Y04888D02*
X03895D01*
X02988Y04105D02*
X03002D01*
X03Y04111*
X03001Y04112*
X0297Y04081*
X02966Y04075*
X02965Y04068*
Y04012*
X02968Y04013*
X02968Y04014*
X02959Y04015*
X02949Y04014*
X02946Y04011*
X02943Y04014*
X02933Y04015*
X02924Y04014*
X02924Y04013*
X02927Y04012*
Y04076*
X02976Y04124*
X02988*
Y04105*
X02929Y04018D02*
Y04077D01*
X02939Y04016D02*
Y04087D01*
X02949Y04016D02*
Y04097D01*
X02959Y04018D02*
Y04107D01*
X02969Y0408D02*
Y04117D01*
X02979Y04092D02*
Y04125D01*
X02989Y04102D02*
Y04105D01*
X02999Y04108D02*
Y04109D01*
X03393Y0436D02*
X03393Y0436D01*
Y04285*
X03363Y04255*
X03359Y04249*
X03358Y04242*
Y04175*
X03363Y04177*
X03355Y04187*
X03353Y04176*
X03338*
Y04145*
X03351Y04147*
X03354Y0415*
X0335Y04151*
Y04155*
X03307*
Y04182*
X03224*
Y04164*
X03228*
Y04183*
X03145*
Y04116*
X03145Y04116*
X0315Y04125*
Y04113*
Y04183*
X03067*
Y04164*
X03071*
Y04183*
X02988*
Y04164*
X02967*
X02961Y04162*
X02955Y04158*
X02933Y04137*
X02906Y04098*
X02902Y04099*
Y04172*
X02901Y04176*
X029Y04178*
X02896Y04184*
X02876Y04205*
X02877Y04208*
X02879Y0422*
X02877Y04231*
X02873Y04242*
X02866Y04252*
X02856Y04259*
X02845Y04263*
X02834Y04265*
X02822Y04263*
X02811Y04259*
X02801Y04252*
X02794Y04242*
X0279Y04231*
X02788Y0422*
X0279Y04208*
X02794Y04197*
X02801Y04187*
X02811Y0418*
X02822Y04176*
X02834Y04174*
X02845Y04176*
X02848Y04177*
X02863Y04163*
Y04112*
X02858Y04111*
X02831Y04149*
X02776Y04205*
X02777Y04208*
X02779Y0422*
X02777Y04231*
X02773Y04242*
X02766Y04252*
X02756Y04259*
X02745Y04263*
X02734Y04265*
X02722Y04263*
X02711Y04259*
X02701Y04252*
X02694Y04242*
X0269Y04231*
X02688Y0422*
X0269Y04208*
X02694Y04197*
X02701Y04187*
X02711Y0418*
X02722Y04176*
X02734Y04174*
X02745Y04176*
X02748Y04177*
X02837Y04088*
Y04012*
X0284Y04013*
X0284Y04014*
X02831Y04015*
X02821Y04014*
X02818Y04011*
X02815Y04014*
X02805Y04015*
X02796Y04014*
X02788Y04008*
X02783Y04*
X02781Y03991*
Y03972*
X02653*
Y04179*
X02656Y0418*
X02666Y04187*
X02673Y04197*
X02677Y04208*
X02679Y0422*
X02677Y04231*
X02676Y04234*
X02712Y0427*
X03089*
Y04258*
X03067*
Y0418*
X0315*
Y04258*
X03128*
Y0427*
X03127*
X03134Y04271*
X03139Y04275*
X03151Y04287*
X03148Y04287*
X03152Y04282*
X03161Y04276*
X03165Y04275*
X03167Y04266*
Y04258*
X03145*
Y0418*
X03228*
Y04258*
X03206*
Y04279*
X03204Y04278*
X03201Y04278*
X03227Y04252*
X03229Y04257*
X03224*
Y04179*
X03307*
Y04257*
X03278*
X03251Y04284*
X03249Y0428*
X033*
Y04344*
X03299Y04343*
X03298Y04343*
X03298Y04343*
X03297Y04344*
Y0428*
X03375*
Y04352*
X03373Y04351*
X03373Y04351*
X03384Y04353*
X03393Y04359*
X03395Y04362*
X03392*
X03393Y0436*
X02655Y03977D02*
X0278D01*
X02655Y03987D02*
X0278D01*
X02655Y03997D02*
X02782D01*
X02655Y04007D02*
X02786D01*
X02655Y04017D02*
X02836D01*
X02655Y04027D02*
X02836D01*
X02655Y04037D02*
X02836D01*
X02655Y04047D02*
X02836D01*
X02655Y04057D02*
X02836D01*
X02655Y04067D02*
X02836D01*
X02655Y04077D02*
X02836D01*
X02655Y04087D02*
X02836D01*
X02655Y04097D02*
X02828D01*
X02655Y04107D02*
X02818D01*
X02903D02*
X02912D01*
X02655Y04117D02*
X02808D01*
X02857D02*
X02862D01*
X02903D02*
X02918D01*
X02655Y04127D02*
X02798D01*
X02849D02*
X02862D01*
X02903D02*
X02926D01*
X03147D02*
X0315D01*
X02655Y04137D02*
X02788D01*
X02843D02*
X02862D01*
X02903D02*
X02932D01*
X03147D02*
X0315D01*
X02655Y04147D02*
X02778D01*
X02837D02*
X02862D01*
X02903D02*
X02942D01*
X03147D02*
X0315D01*
X03339D02*
X03346D01*
X02655Y04157D02*
X02768D01*
X02827D02*
X02862D01*
X02903D02*
X02952D01*
X03147D02*
X0315D01*
X03309D02*
X03336D01*
X02655Y04167D02*
X02758D01*
X02817D02*
X02858D01*
X02903D02*
X02986D01*
X03069D02*
X0307D01*
X03147D02*
X0315D01*
X03225D02*
X03228D01*
X03309D02*
X03336D01*
X02655Y04177D02*
X02718D01*
X02749D02*
X02748D01*
X02807D02*
X02818D01*
X02849D02*
X02848D01*
X02903D02*
X02986D01*
X03069D02*
X0307D01*
X03147D02*
X0315D01*
X03225D02*
X03228D01*
X03309D02*
X03354D01*
X03359D02*
X03362D01*
X02667Y04187D02*
X02702D01*
X02797D02*
X02802D01*
X02897D02*
X03066D01*
X03147D02*
X0315D01*
X03225D02*
X03228D01*
X03309D02*
X03356D01*
X02675Y04197D02*
X02694D01*
X02787D02*
X02794D01*
X02887D02*
X03066D01*
X03147D02*
X0315D01*
X03225D02*
X03228D01*
X03309D02*
X03356D01*
X02679Y04207D02*
X0269D01*
X02779D02*
X0279D01*
X02879D02*
X03066D01*
X03147D02*
X0315D01*
X03225D02*
X03228D01*
X03309D02*
X03356D01*
X02681Y04217D02*
X02688D01*
X02781D02*
X02788D01*
X02881D02*
X03066D01*
X03147D02*
X0315D01*
X03225D02*
X03228D01*
X03309D02*
X03356D01*
X02681Y04227D02*
X02688D01*
X02781D02*
X02788D01*
X02881D02*
X03066D01*
X03147D02*
X0315D01*
X03225D02*
X03228D01*
X03309D02*
X03356D01*
X02681Y04237D02*
X02692D01*
X02777D02*
X02792D01*
X02877D02*
X03066D01*
X03147D02*
X0315D01*
X03225D02*
X03228D01*
X03309D02*
X03356D01*
X02691Y04247D02*
X02698D01*
X02771D02*
X02798D01*
X02871D02*
X03066D01*
X03147D02*
X0315D01*
X03225D02*
X03228D01*
X03309D02*
X03358D01*
X02701Y04257D02*
X02708D01*
X02761D02*
X02808D01*
X02861D02*
X03066D01*
X03147D02*
X0315D01*
X03225D02*
X03228D01*
X03279D02*
X03364D01*
X02711Y04267D02*
X03088D01*
X03131D02*
X03166D01*
X03209D02*
X03212D01*
X03271D02*
X03374D01*
X03143Y04277D02*
X03158D01*
X03205D02*
X03206D01*
X03261D02*
X03384D01*
X03151Y04287D02*
X0315D01*
X03299D02*
X033D01*
X03377D02*
X03392D01*
X03299Y04297D02*
X033D01*
X03377D02*
X03392D01*
X03299Y04307D02*
X033D01*
X03377D02*
X03392D01*
X03299Y04317D02*
X033D01*
X03377D02*
X03392D01*
X03299Y04327D02*
X033D01*
X03377D02*
X03392D01*
X03299Y04337D02*
X033D01*
X03377D02*
X03392D01*
X03377Y04347D02*
X03392D01*
X03393Y04357D02*
X03392D01*
X02781Y03913D02*
X02783Y03904D01*
X02788Y03896*
X02796Y03891*
X02805Y03889*
X02815Y03891*
X02818Y03893*
X02816Y03895*
X02816Y03897*
X02815Y03896*
X0275*
Y03918*
X02672*
Y03835*
X0275*
Y03857*
X02808*
X02806Y03862*
X02761Y03817*
X0275*
Y03839*
X02672*
Y03779*
X02675*
Y03839*
X02653*
Y03835*
X02675*
Y03918*
X02653*
Y03933*
X02781*
Y03913*
X02673Y03784D02*
X02674D01*
X02673Y03794D02*
X02674D01*
X02673Y03804D02*
X02674D01*
X02673Y03814D02*
X02674D01*
X02673Y03824D02*
X02674D01*
X02751D02*
X02766D01*
X02673Y03834D02*
X02674D01*
X02751D02*
X02776D01*
X02673Y03844D02*
X02674D01*
X02751D02*
X02786D01*
X02673Y03854D02*
X02674D01*
X02751D02*
X02796D01*
X02673Y03864D02*
X02674D01*
X02673Y03874D02*
X02674D01*
X02673Y03884D02*
X02674D01*
X02673Y03894D02*
X02674D01*
X02795D02*
X02819D01*
X02673Y03904D02*
X02674D01*
X02751D02*
X02782D01*
X02673Y03914D02*
X02674D01*
X02751D02*
X0278D01*
X02655Y03924D02*
X0278D01*
%LNv2-2*%
%LPC*%
G36*
X02659Y03363D02*
X02619D01*
Y03302*
X02659*
Y03363*
G37*
G36*
X02734Y03327D02*
X02719D01*
Y03302*
X02734*
Y03327*
G37*
G36*
X02709D02*
X02694D01*
Y03302*
X02709*
Y03327*
G37*
G36*
X03875Y03314D02*
Y033D01*
X03889*
X03888Y03302*
X03884Y03309*
X03877Y03313*
X03875Y03314*
G37*
G36*
X02487D02*
X02484Y03313D01*
X02477Y03309*
X02473Y03302*
X02473Y033*
X02487*
Y03314*
G37*
G36*
X02497D02*
Y033D01*
X02511*
X0251Y03302*
X02506Y03309*
X02499Y03313*
X02497Y03314*
G37*
G36*
X03865D02*
X03862Y03313D01*
X03855Y03309*
X03851Y03302*
X03851Y033*
X03865*
Y03314*
G37*
G36*
X02709Y03363D02*
X02694D01*
Y03337*
X02709*
Y03363*
G37*
G36*
X03858Y03594D02*
X03789D01*
Y03531*
X03811*
Y0352*
X03789*
Y03457*
X03858*
Y03479*
X03863Y03481*
X03865Y03477*
X03871Y03473*
X03874Y03473*
Y03492*
Y03511*
X03871Y0351*
X03865Y03506*
X03863Y03503*
X03858Y03504*
Y0352*
X03836*
Y03531*
X03858*
Y03594*
G37*
G36*
X02835Y03524D02*
X02766D01*
Y03504*
X02757*
Y03524*
X02688*
Y03504*
X02679*
Y03524*
X0261*
Y03504*
X02256*
X02255Y03506*
X02249Y03511*
X02241Y03512*
X02233Y03511*
X02227Y03506*
X02222Y035*
X02221Y03492*
X02222Y03484*
X02227Y03478*
X02233Y03474*
X02241Y03472*
X02249Y03474*
X02255Y03478*
X02256Y0348*
X0261*
Y03461*
X02679*
Y0348*
X02688*
Y03461*
X02757*
Y0348*
X02766*
Y03461*
X02835*
Y0348*
X02844*
Y03461*
X02913*
Y03524*
X02844*
Y03504*
X02835*
Y03524*
G37*
G36*
X02718Y03562D02*
X02688D01*
Y03535*
X02718*
Y03562*
G37*
G36*
X03362Y03557D02*
X03354Y03555D01*
X03347Y03551*
X03343Y03544*
X03341Y03537*
X03342Y03534*
X03328Y0352*
X03302*
Y03457*
X03371*
Y03519*
X03376Y03522*
X0338Y03529*
X03382Y03537*
X0338Y03544*
X03376Y03551*
X03369Y03555*
X03362Y03557*
G37*
G36*
X02734Y03363D02*
X02719D01*
Y03337*
X02734*
Y03363*
G37*
G36*
X03534Y03388D02*
X0352D01*
X03521Y03386*
X03525Y03379*
X03531Y03375*
X03534Y03374*
Y03388*
G37*
G36*
X03637D02*
X03623D01*
Y03374*
X03626Y03375*
X03632Y03379*
X03636Y03386*
X03637Y03388*
G37*
G36*
X023Y03314D02*
Y033D01*
X02314*
X02313Y03302*
X02309Y03309*
X02302Y03313*
X023Y03314*
G37*
G36*
X02314Y0329D02*
X023D01*
Y03276*
X02302Y03276*
X02309Y03281*
X02313Y03287*
X02314Y0329*
G37*
G36*
X0229D02*
X02276D01*
X02276Y03287*
X02281Y03281*
X02287Y03276*
X0229Y03276*
Y0329*
G37*
G36*
X02511D02*
X02497D01*
Y03276*
X02499Y03276*
X02506Y03281*
X0251Y03287*
X02511Y0329*
G37*
G36*
X02487D02*
X02473D01*
X02473Y03287*
X02477Y03281*
X02484Y03276*
X02487Y03276*
Y0329*
G37*
G36*
X02659Y03289D02*
X02644D01*
Y03264*
X02659*
Y03289*
G37*
G36*
X02634D02*
X02619D01*
Y03264*
X02634*
Y03289*
G37*
G36*
X02117Y0329D02*
X02103D01*
Y03276*
X02106Y03276*
X02112Y03281*
X02116Y03287*
X02117Y0329*
G37*
G36*
X02093D02*
X02079D01*
X02079Y03287*
X02084Y03281*
X0209Y03276*
X02093Y03276*
Y0329*
G37*
G36*
Y03314D02*
X0209Y03313D01*
X02084Y03309*
X02079Y03302*
X02079Y033*
X02093*
Y03314*
G37*
G36*
X03582Y03311D02*
X03555D01*
Y03282*
X03582*
Y03311*
G37*
G36*
X0229Y03314D02*
X02287Y03313D01*
X02281Y03309*
X02276Y03302*
X02276Y033*
X0229*
Y03314*
G37*
G36*
X02103D02*
Y033D01*
X02117*
X02116Y03302*
X02112Y03309*
X02106Y03313*
X02103Y03314*
G37*
G36*
X03889Y0329D02*
X03875D01*
Y03276*
X03877Y03276*
X03884Y03281*
X03888Y03287*
X03889Y0329*
G37*
G36*
X03865D02*
X03851D01*
X03851Y03287*
X03855Y03281*
X03862Y03276*
X03865Y03276*
Y0329*
G37*
G36*
X03545Y03311D02*
X03519D01*
Y03282*
X03545*
Y03311*
G37*
G36*
X03509D02*
X03483D01*
Y03282*
X03509*
Y03311*
G37*
G36*
X028Y03731D02*
X02799Y03731D01*
X02793Y03727*
X0279Y03722*
X02788Y03715*
Y03682*
X028*
Y03731*
G37*
G36*
X02761Y03696D02*
Y03682D01*
X02775*
X02774Y03684*
X0277Y03691*
X02763Y03695*
X02761Y03696*
G37*
G36*
X02497Y03708D02*
Y03693D01*
X02511*
X0251Y03696*
X02506Y03703*
X02499Y03707*
X02497Y03708*
G37*
G36*
X02487D02*
X02484Y03707D01*
X02477Y03703*
X02473Y03696*
X02473Y03693*
X02487*
Y03708*
G37*
G36*
X03889Y03683D02*
X03875D01*
Y03669*
X03877Y0367*
X03884Y03674*
X03888Y03681*
X03889Y03683*
G37*
G36*
X02511D02*
X02497D01*
Y03669*
X02499Y0367*
X02506Y03674*
X0251Y03681*
X02511Y03683*
G37*
G36*
X02751Y03696D02*
X02748Y03695D01*
X02742Y03691*
X02737Y03684*
X02737Y03682*
X02751*
Y03696*
G37*
G36*
X03865Y03683D02*
X03851D01*
X03851Y03681*
X03855Y03674*
X03857Y03673*
X03856Y0367*
X03856Y03668*
X03829*
Y03642*
X03858*
Y03664*
X03859Y03666*
X03861Y03668*
X03862Y0367*
X03865Y03669*
Y03683*
G37*
G36*
X0288Y03806D02*
X02878Y03805D01*
X02871Y03801*
X02867Y03795*
X02866Y03792*
X0288*
Y03806*
G37*
G36*
X02904Y03782D02*
X0289D01*
Y03768*
X02893Y03768*
X029Y03773*
X02904Y03779*
X02904Y03782*
G37*
G36*
X03471Y0388D02*
X03457D01*
X03457Y03878*
X03462Y03871*
X03468Y03867*
X03471Y03866*
Y0388*
G37*
G36*
X0289Y03806D02*
Y03792D01*
X02904*
X02904Y03795*
X029Y03801*
X02893Y03805*
X0289Y03806*
G37*
G36*
X03875Y03708D02*
Y03693D01*
X03889*
X03888Y03696*
X03884Y03703*
X03877Y03707*
X03875Y03708*
G37*
G36*
X03865D02*
X03862Y03707D01*
X03855Y03703*
X03851Y03696*
X03851Y03693*
X03865*
Y03708*
G37*
G36*
X0288Y03782D02*
X02866D01*
X02867Y03779*
X02871Y03773*
X02878Y03768*
X0288Y03768*
Y03782*
G37*
G36*
X02984Y03774D02*
X02976Y03772D01*
X02969Y03768*
X02965Y03761*
X02963Y03754*
X02965Y03746*
X02969Y03739*
X02971Y03738*
Y03732*
X02967Y0373*
X02965Y03731*
X02959Y03732*
X02952Y03731*
X02947Y03727*
X02945*
X0294Y03731*
X02933Y03732*
X02927Y03731*
X02921Y03727*
X0292*
X02914Y03731*
X02908Y03732*
X02901Y03731*
X02896Y03727*
X02894*
X02889Y03731*
X02882Y03732*
X02876Y03731*
X0287Y03727*
X02869*
X02863Y03731*
X02857Y03732*
X0285Y03731*
X02844Y03727*
X02843*
X02837Y03731*
X02831Y03732*
X02824Y03731*
X02819Y03727*
X02817*
X02812Y03731*
X0281Y03731*
Y03677*
Y03622*
X02807Y03621*
X02809Y03617*
X02792Y036*
X02791Y03598*
X02766*
Y03535*
X02835*
Y03598*
X02831*
X02829Y03603*
X02832Y03605*
X02865*
X02866Y03606*
X02869Y03603*
X02868Y03601*
X02864Y03598*
X02844*
Y03535*
X02913*
Y03598*
X02907*
X02905Y03603*
X02911Y03609*
X02914Y03613*
X02915Y03618*
Y0362*
X02919Y03623*
X02921Y03622*
Y03439*
X02918Y03436*
X02913Y03438*
Y03451*
X02844*
Y03433*
X02835*
Y03451*
X02766*
Y03433*
X02696*
Y03451*
X02657*
Y03433*
X02257*
X02255Y03437*
X02248Y03441*
X02241Y03443*
X02233Y03441*
X02226Y03437*
X02222Y0343*
X0222Y03423*
X02222Y03415*
X02226Y03408*
X02233Y03404*
X02241Y03402*
X02248Y03404*
X02255Y03408*
X02255Y03409*
X02657*
Y0339*
X02696*
Y03409*
X02766*
Y03388*
X02835*
Y03409*
X02844*
Y03388*
X02913*
Y03409*
X0292*
X02924Y0341*
X02928Y03412*
X02942Y03426*
X02944Y0343*
X02945Y03434*
Y03478*
X0295Y03479*
X0295Y03479*
X03059Y0337*
X03057Y03365*
X03057Y03366*
X03049Y03364*
X03042Y0336*
X03041Y03357*
X02913*
Y03377*
X02844*
Y03314*
X02864*
Y03307*
X02862Y03306*
X02858Y03299*
X02856Y03292*
X02858Y03284*
X02862Y03277*
X02864Y03276*
Y03256*
X02842*
Y03193*
X02911*
Y03256*
X02889*
Y03276*
X02891Y03277*
X02895Y03284*
X02897Y03292*
X02895Y03299*
X02891Y03306*
X02889Y03307*
Y03314*
X02913*
Y03333*
X03041*
X03042Y03331*
X03049Y03327*
X03057Y03325*
X03064Y03327*
X03071Y03331*
X03075Y03338*
X03077Y03346*
X03076Y03346*
X03081Y03348*
X03091Y03338*
Y03333*
X02926Y03168*
X02911*
Y03182*
X02842*
Y03166*
X02833*
Y03182*
X02764*
Y03162*
X02755*
X02738Y03179*
X02734Y03181*
X0273Y03182*
X02696*
Y03201*
X02657*
Y0314*
X02696*
Y03158*
X02725*
X02742Y03141*
X02746Y03138*
X02751Y03137*
X02754Y03138*
X02764*
Y03119*
X02833*
Y03142*
X02842*
Y03119*
X02911*
Y03144*
X02932*
X02936Y03145*
X0294Y03148*
X03116Y03323*
X0339*
X03391Y03321*
X03398Y03317*
X03403Y03316*
X03403Y03316*
X03403Y03311*
X03372*
Y03242*
X03435*
Y03291*
X0344Y03296*
X03442Y03299*
X03446Y03297*
Y03282*
X03473*
Y03311*
X03447*
X03446*
X03444Y03314*
Y03346*
X03443Y03349*
X03443Y0335*
X0344Y03354*
X03423Y03371*
X03424Y03374*
X03422Y03381*
X03418Y03388*
X03411Y03392*
X0341Y03392*
Y03394*
X03417Y03398*
X03421Y03405*
X03423Y03413*
X03421Y0342*
X03421Y0342*
X03423Y03425*
X03424*
X03432Y03426*
X03438Y03428*
X03444Y03433*
X03516Y03505*
X03521Y03504*
X03525Y03497*
X03529Y03494*
Y03489*
X03525Y03486*
X03521Y0348*
X0352Y03477*
X03539*
Y03467*
X0352*
X03521Y03465*
X03525Y03458*
X03529Y03455*
Y0345*
X03525Y03447*
X03521Y0344*
X0352Y03438*
X03539*
Y03428*
X0352*
X03521Y03425*
X03525Y03419*
X03529Y03416*
Y03411*
X03525Y03408*
X03521Y03401*
X0352Y03398*
X03539*
Y03393*
X03544*
Y03374*
X03547Y03375*
X03553Y03379*
X03556Y03384*
X03561*
X03564Y03379*
X03571Y03375*
X03574Y03374*
Y03393*
X03584*
Y03374*
X03586Y03375*
X03593Y03379*
X03596Y03384*
X03601*
X03604Y03379*
X0361Y03375*
X03613Y03374*
Y03393*
X03618*
Y03398*
X03637*
X03636Y03401*
X03632Y03408*
X03626Y03412*
Y03414*
X03632Y03419*
X03636Y03425*
X03637Y03428*
X03618*
Y03438*
X03637*
X03636Y0344*
X03632Y03447*
X03626Y03451*
Y03454*
X03632Y03458*
X03636Y03465*
X03637Y03467*
X03618*
Y03477*
X03637*
X03636Y0348*
X03632Y03486*
X03626Y03491*
Y03493*
X03632Y03497*
X03636Y03504*
X03641Y03505*
X03712Y03434*
X03718Y03429*
X03724Y03427*
X03731Y03426*
X03734Y03422*
X03732Y03414*
X03734Y03406*
X03738Y034*
X03744Y03396*
X03752Y03394*
X0376Y03396*
X03766Y034*
X03768Y03402*
X03789*
Y03383*
X03858*
Y03446*
X03789*
Y03426*
X03774*
X03772Y03431*
X03776Y03434*
X03781Y0344*
X03783Y03446*
X03784Y03454*
X03783Y03461*
X03781Y03467*
X03776Y03473*
X0377Y03478*
X03764Y0348*
X03757Y03481*
X03743*
X03654Y03571*
X03648Y03575*
X03641Y03578*
X03634Y03579*
X03523*
X03516Y03578*
X03509Y03575*
X03503Y03571*
X03413Y0348*
X03404*
X03396Y03479*
X0339Y03477*
X03384Y03472*
X03379Y03466*
X03377Y0346*
X03376Y03453*
X03377Y03445*
X03379Y03439*
X03384Y03433*
X03385Y03432*
X03386Y03431*
X03383Y03426*
X03371*
Y03446*
X03302*
Y03383*
X03371*
Y03402*
X03386*
X03388Y03398*
X03393Y03395*
Y0339*
X03389Y03388*
X03385Y03381*
X03383Y03374*
X03385Y03366*
X03389Y03359*
X03394Y03356*
Y03351*
X03391Y0335*
X0339Y03348*
X03116*
X02971Y03493*
Y03622*
X02975Y03624*
X02978Y03623*
X02984Y03621*
X02991Y03623*
X02997Y03626*
X02998*
X03004Y03623*
X0301Y03621*
X03017Y03623*
X03022Y03626*
X03024*
X03029Y03623*
X03036Y03621*
X03042Y03623*
X03048Y03626*
X03051Y03632*
X03053Y03638*
Y03705*
X03057Y03708*
X03061Y03707*
X03101*
Y03688*
X0317*
Y03751*
X03101*
Y03731*
X03066*
X03053Y03744*
X03049Y03747*
X03044Y03748*
X03027*
X03022Y03747*
X03019Y03744*
X03006Y03732*
X03006Y03731*
X03004Y03731*
X03Y03729*
X02996Y03731*
Y03738*
X02998Y03739*
X03002Y03746*
X03004Y03754*
X03002Y03761*
X02998Y03768*
X02991Y03772*
X02984Y03774*
G37*
G36*
X02487Y03683D02*
X02473D01*
X02473Y03681*
X02477Y03674*
X02484Y0367*
X02487Y03669*
Y03683*
G37*
G36*
X02757Y03598D02*
X02728D01*
Y03572*
X02757*
Y03598*
G37*
G36*
X03298Y03585D02*
X03284D01*
Y03571*
X03287Y03572*
X03293Y03576*
X03298Y03582*
X03298Y03585*
G37*
G36*
X02103Y03609D02*
Y03595D01*
X02117*
X02116Y03598*
X02112Y03604*
X02106Y03609*
X02103Y03609*
G37*
G36*
X02093D02*
X0209Y03609D01*
X02084Y03604*
X02079Y03598*
X02079Y03595*
X02093*
Y03609*
G37*
G36*
Y03585D02*
X02079D01*
X02079Y03582*
X02084Y03576*
X0209Y03572*
X02093Y03571*
Y03585*
G37*
G36*
X02757Y03562D02*
X02728D01*
Y03535*
X02757*
Y03562*
G37*
G36*
X03274Y03585D02*
X0326D01*
X0326Y03582*
X03265Y03576*
X03271Y03572*
X03274Y03571*
Y03585*
G37*
G36*
X02117D02*
X02103D01*
Y03571*
X02106Y03572*
X02112Y03576*
X02116Y03582*
X02117Y03585*
G37*
G36*
X03819Y03668D02*
X03789D01*
Y03642*
X03819*
Y03668*
G37*
G36*
X028Y03672D02*
X02788D01*
Y03638*
X0279Y03632*
X02793Y03626*
X02799Y03623*
X028Y03622*
Y03672*
G37*
G36*
X02775D02*
X02761D01*
Y03658*
X02763Y03658*
X0277Y03663*
X02774Y03669*
X02775Y03672*
G37*
G36*
X02751D02*
X02737D01*
X02737Y03669*
X02742Y03663*
X02748Y03658*
X02751Y03658*
Y03672*
G37*
G36*
X03284Y03609D02*
Y03595D01*
X03298*
X03298Y03598*
X03293Y03604*
X03287Y03609*
X03284Y03609*
G37*
G36*
X03274D02*
X03271Y03609D01*
X03265Y03604*
X0326Y03598*
X0326Y03595*
X03274*
Y03609*
G37*
G36*
X03858Y03632D02*
X03829D01*
Y03605*
X03858*
Y03632*
G37*
G36*
X03819D02*
X03789D01*
Y03605*
X03819*
Y03632*
G37*
G36*
X03077Y03112D02*
X03074Y03111D01*
X03068Y03107*
X03064Y031*
X03063Y03097*
X03077*
Y03112*
G37*
G36*
X0289D02*
Y03097D01*
X02904*
X02904Y031*
X029Y03107*
X02893Y03111*
X0289Y03112*
G37*
G36*
X02093Y03117D02*
X0209Y03116D01*
X02084Y03112*
X02079Y03106*
X02079Y03103*
X02093*
Y03117*
G37*
G36*
X03087Y03112D02*
Y03097D01*
X03101*
X03101Y031*
X03096Y03107*
X0309Y03111*
X03087Y03112*
G37*
G36*
X03865Y03093D02*
X03851D01*
X03851Y0309*
X03855Y03084*
X03862Y03079*
X03865Y03079*
Y03093*
G37*
G36*
X03692D02*
X03678D01*
Y03079*
X0368Y03079*
X03687Y03084*
X03691Y0309*
X03692Y03093*
G37*
G36*
X0288Y03112D02*
X02878Y03111D01*
X02871Y03107*
X02867Y031*
X02866Y03097*
X0288*
Y03112*
G37*
G36*
X03889Y03093D02*
X03875D01*
Y03079*
X03877Y03079*
X03884Y03084*
X03888Y0309*
X03889Y03093*
G37*
G36*
X02683Y03117D02*
X02681Y03116D01*
X02674Y03112*
X0267Y03106*
X02669Y03103*
X02683*
Y03117*
G37*
G36*
X02497D02*
Y03103D01*
X02511*
X0251Y03106*
X02506Y03112*
X02499Y03116*
X02497Y03117*
G37*
G36*
X03274D02*
X03271Y03116D01*
X03265Y03112*
X0326Y03106*
X0326Y03103*
X03274*
Y03117*
G37*
G36*
X02693D02*
Y03103D01*
X02708*
X02707Y03106*
X02703Y03112*
X02696Y03116*
X02693Y03117*
G37*
G36*
X0229D02*
X02287Y03116D01*
X02281Y03112*
X02276Y03106*
X02276Y03103*
X0229*
Y03117*
G37*
G36*
X02103D02*
Y03103D01*
X02117*
X02116Y03106*
X02112Y03112*
X02106Y03116*
X02103Y03117*
G37*
G36*
X02487D02*
X02484Y03116D01*
X02477Y03112*
X02473Y03106*
X02473Y03103*
X02487*
Y03117*
G37*
G36*
X023D02*
Y03103D01*
X02314*
X02313Y03106*
X02309Y03112*
X02302Y03116*
X023Y03117*
G37*
G36*
X03668Y03093D02*
X03654D01*
X03654Y0309*
X03659Y03084*
X03665Y03079*
X03668Y03079*
Y03093*
G37*
G36*
X02117D02*
X02103D01*
Y03079*
X02106Y03079*
X02112Y03084*
X02116Y0309*
X02117Y03093*
G37*
G36*
X02093D02*
X02079D01*
X02079Y0309*
X02084Y03084*
X0209Y03079*
X02093Y03079*
Y03093*
G37*
G36*
X02314D02*
X023D01*
Y03079*
X02302Y03079*
X02309Y03084*
X02313Y0309*
X02314Y03093*
G37*
G36*
X0229D02*
X02276D01*
X02276Y0309*
X02281Y03084*
X02287Y03079*
X0229Y03079*
Y03093*
G37*
G36*
X02904Y03087D02*
X0289D01*
Y03073*
X02893Y03074*
X029Y03078*
X02904Y03085*
X02904Y03087*
G37*
G36*
X0288D02*
X02866D01*
X02867Y03085*
X02871Y03078*
X02878Y03074*
X0288Y03073*
Y03087*
G37*
G36*
X03101D02*
X03087D01*
Y03073*
X0309Y03074*
X03096Y03078*
X03101Y03085*
X03101Y03087*
G37*
G36*
X03077D02*
X03063D01*
X03064Y03085*
X03068Y03078*
X03074Y03074*
X03077Y03073*
Y03087*
G37*
G36*
X03298Y03093D02*
X03284D01*
Y03079*
X03287Y03079*
X03293Y03084*
X03298Y0309*
X03298Y03093*
G37*
G36*
X03274D02*
X0326D01*
X0326Y0309*
X03265Y03084*
X03271Y03079*
X03274Y03079*
Y03093*
G37*
G36*
X03495D02*
X03481D01*
Y03079*
X03484Y03079*
X0349Y03084*
X03494Y0309*
X03495Y03093*
G37*
G36*
X03471D02*
X03457D01*
X03457Y0309*
X03462Y03084*
X03468Y03079*
X03471Y03079*
Y03093*
G37*
G36*
X02511D02*
X02497D01*
Y03079*
X02499Y03079*
X02506Y03084*
X0251Y0309*
X02511Y03093*
G37*
G36*
X02487D02*
X02473D01*
X02473Y0309*
X02477Y03084*
X02484Y03079*
X02487Y03079*
Y03093*
G37*
G36*
X02708D02*
X02693D01*
Y03079*
X02696Y03079*
X02703Y03084*
X02707Y0309*
X02708Y03093*
G37*
G36*
X02683D02*
X02669D01*
X0267Y0309*
X02674Y03084*
X02681Y03079*
X02683Y03079*
Y03093*
G37*
G36*
X03536Y03226D02*
Y03194D01*
X03568*
X03567Y03198*
X03563Y03207*
X03557Y03215*
X03549Y03221*
X0354Y03225*
X03536Y03226*
G37*
G36*
X03526D02*
X03521Y03225D01*
X03512Y03221*
X03504Y03215*
X03498Y03207*
X03494Y03198*
X03493Y03194*
X03526*
Y03226*
G37*
G36*
X03668Y03226D02*
X03636D01*
Y03194*
X03668*
Y03226*
G37*
G36*
X03626D02*
X03593D01*
Y03194*
X03626*
Y03226*
G37*
G36*
X02835Y03377D02*
X02766D01*
Y03314*
X02787*
Y03288*
X02785Y03287*
X02781Y0328*
X02779Y03273*
X02781Y03265*
X02784Y03261*
X02781Y03256*
X02764*
Y03193*
X02833*
Y03256*
X02818*
X02815Y03261*
X02818Y03265*
X0282Y03273*
X02818Y0328*
X02814Y03287*
X02812Y03288*
Y03314*
X02835*
Y03377*
G37*
G36*
X03568Y03184D02*
X03536D01*
Y03151*
X0354Y03152*
X03549Y03156*
X03557Y03162*
X03563Y0317*
X03567Y03179*
X03568Y03184*
G37*
G36*
X03436Y03226D02*
Y03194D01*
X03468*
X03467Y03198*
X03463Y03207*
X03457Y03215*
X03449Y03221*
X0344Y03225*
X03436Y03226*
G37*
G36*
X03426D02*
X03421Y03225D01*
X03412Y03221*
X03404Y03215*
X03398Y03207*
X03394Y03198*
X03393Y03194*
X03426*
Y03226*
G37*
G36*
X03545Y03272D02*
X03519D01*
Y03242*
X03545*
Y03272*
G37*
G36*
X03509D02*
X03483D01*
Y03242*
X03509*
Y03272*
G37*
G36*
X03656Y03311D02*
X03593D01*
Y03242*
X03656*
Y03264*
X03675*
X03676Y03262*
X03683Y03258*
X03691Y03256*
X03698Y03258*
X03705Y03262*
X03709Y03269*
X03711Y03277*
X03709Y03284*
X03705Y03291*
X03698Y03295*
X03691Y03297*
X03683Y03295*
X03676Y03291*
X03675Y03289*
X03656*
Y03311*
G37*
G36*
X03582Y03272D02*
X03555D01*
Y03242*
X03582*
Y03272*
G37*
G36*
X02659Y03254D02*
X02644D01*
Y03228*
X02659*
Y03254*
G37*
G36*
X02634D02*
X02619D01*
Y03228*
X02634*
Y03254*
G37*
G36*
X03473Y03272D02*
X03446D01*
Y03242*
X03473*
Y03272*
G37*
G36*
X02734Y03289D02*
X02694D01*
Y03228*
X02734*
Y03289*
G37*
G36*
X03526Y03184D02*
X03493D01*
X03494Y03179*
X03498Y0317*
X03504Y03162*
X03512Y03156*
X03521Y03152*
X03526Y03151*
Y03184*
G37*
G36*
X03865Y03117D02*
X03862Y03116D01*
X03855Y03112*
X03851Y03106*
X03851Y03103*
X03865*
Y03117*
G37*
G36*
X03678D02*
Y03103D01*
X03692*
X03691Y03106*
X03687Y03112*
X0368Y03116*
X03678Y03117*
G37*
G36*
X02196Y03283D02*
X02179Y03282D01*
X02163Y03277*
X02148Y03269*
X02135Y03258*
X02124Y03245*
X02116Y0323*
X02111Y03213*
X02109Y03196*
X02111Y03179*
X02116Y03163*
X02124Y03148*
X02135Y03135*
X02148Y03124*
X02163Y03116*
X02179Y03111*
X02196Y03109*
X02213Y03111*
X0223Y03116*
X02245Y03124*
X02258Y03135*
X02269Y03148*
X02277Y03163*
X02282Y03179*
X02283Y03196*
X02282Y03213*
X02277Y0323*
X02269Y03245*
X02258Y03258*
X02245Y03269*
X0223Y03277*
X02213Y03282*
X02196Y03283*
G37*
G36*
X03875Y03117D02*
Y03103D01*
X03889*
X03888Y03106*
X03884Y03112*
X03877Y03116*
X03875Y03117*
G37*
G36*
X03471D02*
X03468Y03116D01*
X03462Y03112*
X03457Y03106*
X03457Y03103*
X03471*
Y03117*
G37*
G36*
X03284D02*
Y03103D01*
X03298*
X03298Y03106*
X03293Y03112*
X03287Y03116*
X03284Y03117*
G37*
G36*
X03668D02*
X03665Y03116D01*
X03659Y03112*
X03654Y03106*
X03654Y03103*
X03668*
Y03117*
G37*
G36*
X03481D02*
Y03103D01*
X03495*
X03494Y03106*
X0349Y03112*
X03484Y03116*
X03481Y03117*
G37*
G36*
X03668Y03184D02*
X03636D01*
Y03151*
X03668*
Y03184*
G37*
G36*
X03626D02*
X03593D01*
Y03151*
X03626*
Y03184*
G37*
G36*
X03468D02*
X03436D01*
Y03151*
X0344Y03152*
X03449Y03156*
X03457Y03162*
X03463Y0317*
X03467Y03179*
X03468Y03184*
G37*
G36*
X03426D02*
X03393D01*
X03394Y03179*
X03398Y0317*
X03404Y03162*
X03412Y03156*
X03421Y03152*
X03426Y03151*
Y03184*
G37*
G36*
X03131Y03226D02*
X03121Y03225D01*
X03112Y03221*
X03104Y03215*
X03098Y03207*
X03094Y03198*
X03093Y03189*
X03094Y03179*
X03098Y0317*
X03104Y03162*
X03112Y03156*
X03121Y03152*
X03131Y03151*
X0314Y03152*
X03149Y03156*
X03157Y03162*
X03163Y0317*
X03167Y03179*
X03168Y03189*
X03167Y03198*
X03163Y03207*
X03157Y03215*
X03149Y03221*
X0314Y03225*
X03131Y03226*
G37*
G36*
X03771Y03283D02*
X03754Y03282D01*
X03738Y03277*
X03723Y03269*
X0371Y03258*
X03699Y03245*
X03691Y0323*
X03686Y03213*
X03684Y03196*
X03686Y03179*
X03691Y03163*
X03699Y03148*
X0371Y03135*
X03723Y03124*
X03738Y03116*
X03754Y03111*
X03771Y03109*
X03788Y03111*
X03804Y03116*
X0382Y03124*
X03833Y03135*
X03844Y03148*
X03852Y03163*
X03857Y03179*
X03858Y03196*
X03857Y03213*
X03852Y0323*
X03844Y03245*
X03833Y03258*
X0382Y03269*
X03804Y03277*
X03788Y03282*
X03771Y03283*
G37*
G36*
X03331Y03226D02*
X03321Y03225D01*
X03312Y03221*
X03304Y03215*
X03298Y03207*
X03294Y03198*
X03293Y03189*
X03294Y03179*
X03298Y0317*
X03304Y03162*
X03312Y03156*
X03321Y03152*
X03331Y03151*
X0334Y03152*
X03349Y03156*
X03357Y03162*
X03363Y0317*
X03367Y03179*
X03368Y03189*
X03367Y03198*
X03363Y03207*
X03357Y03215*
X03349Y03221*
X0334Y03225*
X03331Y03226*
G37*
G36*
X03231D02*
X03221Y03225D01*
X03212Y03221*
X03204Y03215*
X03198Y03207*
X03194Y03198*
X03193Y03189*
X03194Y03179*
X03198Y0317*
X03204Y03162*
X03212Y03156*
X03221Y03152*
X03231Y03151*
X0324Y03152*
X03249Y03156*
X03257Y03162*
X03263Y0317*
X03267Y03179*
X03268Y03189*
X03267Y03198*
X03263Y03207*
X03257Y03215*
X03249Y03221*
X0324Y03225*
X03231Y03226*
G37*
G36*
X03495Y0388D02*
X03481D01*
Y03866*
X03484Y03867*
X0349Y03871*
X03494Y03878*
X03495Y0388*
G37*
G36*
X0288Y04668D02*
X02866D01*
X02867Y04665*
X02871Y04659*
X02878Y04654*
X0288Y04654*
Y04668*
G37*
G36*
X02117D02*
X02103D01*
Y04654*
X02106Y04654*
X02112Y04659*
X02116Y04665*
X02117Y04668*
G37*
G36*
X02093Y04692D02*
X0209Y04691D01*
X02084Y04687*
X02079Y0468*
X02079Y04678*
X02093*
Y04692*
G37*
G36*
X02904Y04668D02*
X0289D01*
Y04654*
X02893Y04654*
X029Y04659*
X02904Y04665*
X02904Y04668*
G37*
G36*
X03362Y04611D02*
Y04597D01*
X03376*
X03375Y046*
X03371Y04606*
X03364Y0461*
X03362Y04611*
G37*
G36*
X03875Y04593D02*
Y04579D01*
X03889*
X03888Y04582*
X03884Y04588*
X03877Y04593*
X03875Y04593*
G37*
G36*
X02093Y04668D02*
X02079D01*
X02079Y04665*
X02084Y04659*
X0209Y04654*
X02093Y04654*
Y04668*
G37*
G36*
X03831Y0466D02*
X03823Y04658D01*
X03816Y04654*
X03812Y04647*
X0381Y0464*
X03811Y04637*
X03668Y04494*
X03661Y04497*
X03652Y04498*
X03642Y04497*
X03633Y04493*
X03625Y04487*
X03619Y04479*
X03615Y0447*
X03614Y04461*
X03615Y04451*
X03619Y04442*
X03625Y04434*
X03633Y04428*
X03642Y04424*
X03652Y04423*
X03661Y04424*
X0367Y04428*
X03678Y04434*
X03684Y04442*
X03688Y04451*
X03689Y04461*
X03688Y0447*
X03685Y04477*
X03828Y0462*
X03831Y04619*
X03838Y04621*
X03845Y04625*
X03849Y04632*
X03851Y0464*
X03849Y04647*
X03845Y04654*
X03838Y04658*
X03831Y0466*
G37*
G36*
X02093Y04865D02*
X02079D01*
X02079Y04862*
X02084Y04855*
X0209Y04851*
X02093Y04851*
Y04865*
G37*
G36*
X02196Y04858D02*
X02179Y04857D01*
X02163Y04852*
X02148Y04844*
X02135Y04833*
X02124Y0482*
X02116Y04804*
X02111Y04788*
X02109Y04771*
X02111Y04754*
X02116Y04738*
X02124Y04723*
X02135Y0471*
X02148Y04699*
X02163Y04691*
X02179Y04686*
X02196Y04684*
X02213Y04686*
X0223Y04691*
X02245Y04699*
X02258Y0471*
X02269Y04723*
X02273Y04731*
X02278Y0473*
X02279Y04726*
X02283Y04719*
X0229Y04715*
X02298Y04713*
X02305Y04715*
X02312Y04719*
X02316Y04726*
X02318Y04734*
X02317Y04736*
X02372Y0479*
X03223*
Y04768*
X03286*
Y04837*
X03223*
Y04815*
X02367*
X02362Y04814*
X02358Y04811*
X023Y04753*
X02298Y04754*
X0229Y04752*
X02285Y04749*
X02281Y04752*
X02282Y04754*
X02283Y04771*
X02282Y04788*
X02277Y04804*
X02269Y0482*
X02258Y04833*
X02245Y04844*
X0223Y04852*
X02213Y04857*
X02196Y04858*
G37*
G36*
X0229Y04865D02*
X02276D01*
X02276Y04862*
X02281Y04855*
X02287Y04851*
X0229Y04851*
Y04865*
G37*
G36*
X02117D02*
X02103D01*
Y04851*
X02106Y04851*
X02112Y04855*
X02116Y04862*
X02117Y04865*
G37*
G36*
X0288Y04692D02*
X02878Y04691D01*
X02871Y04687*
X02867Y0468*
X02866Y04678*
X0288*
Y04692*
G37*
G36*
X02103D02*
Y04678D01*
X02117*
X02116Y0468*
X02112Y04687*
X02106Y04691*
X02103Y04692*
G37*
G36*
X03771Y04858D02*
X03754Y04857D01*
X03738Y04852*
X03723Y04844*
X0371Y04833*
X03699Y0482*
X03691Y04804*
X03686Y04788*
X03684Y04771*
X03686Y04754*
X03691Y04738*
X03699Y04723*
X0371Y0471*
X03723Y04699*
X03738Y04691*
X03754Y04686*
X03771Y04684*
X03788Y04686*
X03804Y04691*
X0382Y04699*
X03833Y0471*
X03844Y04723*
X03852Y04738*
X03857Y04754*
X03858Y04771*
X03857Y04788*
X03852Y04804*
X03844Y0482*
X03833Y04833*
X0382Y04844*
X03804Y04852*
X03788Y04857*
X03771Y04858*
G37*
G36*
X0289Y04692D02*
Y04678D01*
X02904*
X02904Y0468*
X029Y04687*
X02893Y04691*
X0289Y04692*
G37*
G36*
X03865Y04593D02*
X03862Y04593D01*
X03855Y04588*
X03851Y04582*
X03851Y04579*
X03865*
Y04593*
G37*
G36*
X03757Y04498D02*
Y04466D01*
X03789*
X03788Y0447*
X03784Y04479*
X03778Y04487*
X0377Y04493*
X03761Y04497*
X03757Y04498*
G37*
G36*
X03747D02*
X03742Y04497D01*
X03733Y04493*
X03725Y04487*
X03719Y04479*
X03715Y0447*
X03714Y04466*
X03747*
Y04498*
G37*
G36*
X03889Y04498D02*
X03857D01*
Y04466*
X03889*
Y04498*
G37*
G36*
X03847D02*
X03814D01*
Y04466*
X03847*
Y04498*
G37*
G36*
X02117Y04471D02*
X02103D01*
Y04457*
X02106Y04457*
X02112Y04462*
X02116Y04468*
X02117Y04471*
G37*
G36*
X02093D02*
X02079D01*
X02079Y04468*
X02084Y04462*
X0209Y04457*
X02093Y04457*
Y04471*
G37*
G36*
X02904D02*
X0289D01*
Y04457*
X02893Y04457*
X029Y04462*
X02904Y04468*
X02904Y04471*
G37*
G36*
X0288D02*
X02866D01*
X02867Y04468*
X02871Y04462*
X02878Y04457*
X0288Y04457*
Y04471*
G37*
G36*
X03376Y04508D02*
X03362D01*
Y04494*
X03364Y04495*
X03371Y04499*
X03375Y04505*
X03376Y04508*
G37*
G36*
X03298Y04757D02*
X0329Y04756D01*
X03284Y04754*
X03278Y04749*
X03273Y04743*
X03271Y04737*
X0327Y0473*
Y04718*
X03179Y04628*
X03175Y04622*
X03172Y04615*
X03171Y04608*
Y04497*
X03172Y0449*
X03175Y04483*
X03179Y04477*
X0327Y04387*
Y04379*
X03271Y04371*
X03273Y04365*
X03277Y0436*
X03274Y04356*
X0323*
Y04348*
X03225Y04347*
X03222Y04352*
X03215Y04356*
X03208Y04358*
X032Y04356*
X03193Y04352*
X03189Y04345*
X03188Y0434*
X03184Y04337*
X03182Y04337*
X03162*
X03157Y04336*
X03153Y04334*
X03121Y04302*
X02704*
X02699Y04301*
X02695Y04298*
X02695*
X0265Y04253*
X02643Y04256*
X02634Y04257*
X02624Y04256*
X02615Y04252*
X02607Y04246*
X02601Y04238*
X02597Y04229*
X02596Y0422*
X02597Y0421*
X02601Y04201*
X02607Y04193*
X02615Y04187*
X02621Y04184*
Y03911*
X02605*
X02604*
X02601Y03914*
Y04015*
X02604Y04017*
X02608Y04024*
X0261Y04032*
X02608Y04039*
X02604Y04046*
X02597Y0405*
X0259Y04052*
X02582Y0405*
X02575Y04046*
X02571Y04039*
X02569Y04032*
X02571Y04024*
X02575Y04017*
X02576Y04017*
Y03588*
X02577Y03583*
X0258Y03579*
X02601Y03558*
X02604Y03556*
X02605Y03556*
X02609Y03555*
X0261Y0355*
Y03535*
X02679*
Y03598*
X0261*
Y0359*
X02605Y03588*
X02601Y03593*
Y03763*
X02605*
X02614*
X02624Y03761*
Y0368*
X02625Y03675*
X02628Y03671*
X02677Y03622*
X02676Y0362*
X02678Y03612*
X02682Y03605*
X02688Y03598*
Y03597*
Y03572*
X02718*
Y03598*
X02709*
X02708Y03603*
X02711Y03605*
X02715Y03612*
X02717Y0362*
X02715Y03627*
X02711Y03634*
X02704Y03638*
X02697Y0364*
X02694Y03639*
X02648Y03685*
Y03747*
X02782*
X02787Y03748*
X02791Y0375*
X02937Y03897*
X02938Y03898*
X0294Y03898*
X02945Y03902*
X02947*
X02952Y03898*
X02959Y03897*
X02965Y03898*
X02971Y03902*
X02972*
X02978Y03898*
X02984Y03897*
X02991Y03898*
X02997Y03902*
X02998*
X03004Y03898*
X0301Y03897*
X03017Y03898*
X03022Y03902*
X03024*
X03029Y03898*
X03036Y03897*
X03042Y03898*
X03048Y03902*
X03051Y03907*
X03053Y03914*
Y03979*
X03057Y03981*
X03066Y03973*
X0307Y0397*
X03074Y03969*
X03101*
Y03909*
X0317*
Y03972*
X03147*
X03147Y03973*
X03147Y03974*
X03144Y03978*
Y03978*
X03132Y0399*
X03128Y03993*
X03124Y03994*
X03079*
X03053Y0402*
X03049Y04023*
X03044Y04024*
X03027*
X03022Y04023*
X03019Y0402*
X03006Y04008*
X03006Y04007*
X03004Y04006*
X03001Y04005*
X02997Y04007*
Y04062*
X0302Y04085*
X03179*
X03183Y04086*
X03187Y04089*
X03195Y04097*
X03198Y04101*
X03199Y04106*
Y04113*
X03221*
Y04132*
X03231*
Y04112*
X033*
Y04123*
X03358*
Y04105*
X03397*
Y04166*
X0339*
Y04233*
X03394Y04236*
X03395Y04236*
Y04193*
X03435*
Y04254*
X03414*
X03412Y04259*
X03421Y04268*
X03424Y04272*
X03424Y04273*
X03425Y04277*
Y04364*
X03427Y04365*
X03431Y04372*
X03433Y0438*
X03431Y04387*
X03427Y04394*
X0342Y04398*
X03413Y044*
X03405Y04398*
X03398Y04394*
X03395Y04389*
X0339*
X03388Y04393*
X03386Y04394*
Y04396*
X03394Y04405*
X03424*
X03429Y04406*
X03432Y04408*
X03435Y04412*
X03436Y04416*
X03455*
Y04485*
X03392*
Y04447*
X03389Y0443*
X03384Y04428*
X03381Y04431*
Y04446*
X03318*
Y04424*
X03313Y04422*
X03245Y0449*
X03246Y04495*
X03253Y04499*
X03256Y04503*
X03261*
X03264Y04499*
X0327Y04495*
X03273Y04494*
Y04513*
X03283*
Y04494*
X03285Y04495*
X03292Y04499*
X03295Y04503*
X033*
X03303Y04499*
X0331Y04495*
X03312Y04494*
Y04513*
X03322*
Y04494*
X03325Y04495*
X03331Y04499*
X03334Y04503*
X03339*
X03342Y04499*
X03349Y04495*
X03352Y04494*
Y04513*
X03357*
Y04518*
X03376*
X03375Y04521*
X03371Y04527*
X03364Y04532*
Y04534*
X03371Y04538*
X03375Y04545*
X03376Y04548*
X03357*
Y04558*
X03376*
X03375Y0456*
X03371Y04567*
X03364Y04571*
Y04573*
X03371Y04578*
X03375Y04584*
X03376Y04587*
X03357*
Y04592*
X03352*
Y04611*
X03349Y0461*
X03342Y04606*
X03339Y04602*
X03334*
X03331Y04606*
X03325Y0461*
X03322Y04611*
Y04592*
X03312*
Y04611*
X0331Y0461*
X03303Y04606*
X033Y04602*
X03295*
X03292Y04606*
X03285Y0461*
X03283Y04611*
Y04592*
X03273*
Y04611*
X0327Y0461*
X03264Y04606*
X03261Y04602*
X03256*
X03253Y04606*
X03246Y0461*
X03245Y04615*
X03317Y04687*
X03322Y04693*
X03324Y04699*
X03325Y04707*
Y0473*
X03324Y04737*
X03322Y04743*
X03317Y04749*
X03311Y04754*
X03305Y04756*
X03298Y04757*
G37*
G36*
X03889Y04569D02*
X03875D01*
Y04555*
X03877Y04556*
X03884Y0456*
X03888Y04567*
X03889Y04569*
G37*
G36*
X03865D02*
X03851D01*
X03851Y04567*
X03855Y0456*
X03862Y04556*
X03865Y04555*
Y04569*
G37*
G36*
X02103Y04495D02*
Y04481D01*
X02117*
X02116Y04484*
X02112Y0449*
X02106Y04494*
X02103Y04495*
G37*
G36*
X02093D02*
X0209Y04494D01*
X02084Y0449*
X02079Y04484*
X02079Y04481*
X02093*
Y04495*
G37*
G36*
X0289D02*
Y04481D01*
X02904*
X02904Y04484*
X029Y0449*
X02893Y04494*
X0289Y04495*
G37*
G36*
X0288D02*
X02878Y04494D01*
X02871Y0449*
X02867Y04484*
X02866Y04481*
X0288*
Y04495*
G37*
G36*
X02693Y04889D02*
Y04875D01*
X02708*
X02707Y04877*
X02703Y04884*
X02696Y04888*
X02693Y04889*
G37*
G36*
X02683D02*
X02681Y04888D01*
X02674Y04884*
X0267Y04877*
X02669Y04875*
X02683*
Y04889*
G37*
G36*
X0289D02*
Y04875D01*
X02904*
X02904Y04877*
X029Y04884*
X02893Y04888*
X0289Y04889*
G37*
G36*
X0288D02*
X02878Y04888D01*
X02871Y04884*
X02867Y04877*
X02866Y04875*
X0288*
Y04889*
G37*
G36*
X023D02*
Y04875D01*
X02314*
X02313Y04877*
X02309Y04884*
X02302Y04888*
X023Y04889*
G37*
G36*
X0229D02*
X02287Y04888D01*
X02281Y04884*
X02276Y04877*
X02276Y04875*
X0229*
Y04889*
G37*
G36*
X02497D02*
Y04875D01*
X02511*
X0251Y04877*
X02506Y04884*
X02499Y04888*
X02497Y04889*
G37*
G36*
X02487D02*
X02484Y04888D01*
X02477Y04884*
X02473Y04877*
X02473Y04875*
X02487*
Y04889*
G37*
G36*
X03678D02*
Y04875D01*
X03692*
X03691Y04877*
X03687Y04884*
X0368Y04888*
X03678Y04889*
G37*
G36*
X03668D02*
X03665Y04888D01*
X03659Y04884*
X03654Y04877*
X03654Y04875*
X03668*
Y04889*
G37*
G36*
X03875D02*
Y04875D01*
X03889*
X03888Y04877*
X03884Y04884*
X03877Y04888*
X03875Y04889*
G37*
G36*
X03865D02*
X03862Y04888D01*
X03855Y04884*
X03851Y04877*
X03851Y04875*
X03865*
Y04889*
G37*
G36*
X03087D02*
Y04875D01*
X03101*
X03101Y04877*
X03096Y04884*
X0309Y04888*
X03087Y04889*
G37*
G36*
X03077D02*
X03074Y04888D01*
X03068Y04884*
X03064Y04877*
X03063Y04875*
X03077*
Y04889*
G37*
G36*
X03284D02*
Y04875D01*
X03298*
X03298Y04877*
X03293Y04884*
X03287Y04888*
X03284Y04889*
G37*
G36*
X03274D02*
X03271Y04888D01*
X03265Y04884*
X0326Y04877*
X0326Y04875*
X03274*
Y04889*
G37*
G36*
X02103D02*
Y04875D01*
X02117*
X02116Y04877*
X02112Y04884*
X02106Y04888*
X02103Y04889*
G37*
G36*
X0288Y04865D02*
X02866D01*
X02867Y04862*
X02871Y04855*
X02878Y04851*
X0288Y04851*
Y04865*
G37*
G36*
X02708D02*
X02693D01*
Y04851*
X02696Y04851*
X02703Y04855*
X02707Y04862*
X02708Y04865*
G37*
G36*
X03077D02*
X03063D01*
X03064Y04862*
X03068Y04855*
X03074Y04851*
X03077Y04851*
Y04865*
G37*
G36*
X02904D02*
X0289D01*
Y04851*
X02893Y04851*
X029Y04855*
X02904Y04862*
X02904Y04865*
G37*
G36*
X02487D02*
X02473D01*
X02473Y04862*
X02477Y04855*
X02484Y04851*
X02487Y04851*
Y04865*
G37*
G36*
X02314D02*
X023D01*
Y04851*
X02302Y04851*
X02309Y04855*
X02313Y04862*
X02314Y04865*
G37*
G36*
X02683D02*
X02669D01*
X0267Y04862*
X02674Y04855*
X02681Y04851*
X02683Y04851*
Y04865*
G37*
G36*
X02511D02*
X02497D01*
Y04851*
X02499Y04851*
X02506Y04855*
X0251Y04862*
X02511Y04865*
G37*
G36*
X03865D02*
X03851D01*
X03851Y04862*
X03855Y04855*
X03862Y04851*
X03865Y04851*
Y04865*
G37*
G36*
X03692D02*
X03678D01*
Y04851*
X0368Y04851*
X03687Y04855*
X03691Y04862*
X03692Y04865*
G37*
G36*
X02093Y04889D02*
X0209Y04888D01*
X02084Y04884*
X02079Y04877*
X02079Y04875*
X02093*
Y04889*
G37*
G36*
X03889Y04865D02*
X03875D01*
Y04851*
X03877Y04851*
X03884Y04855*
X03888Y04862*
X03889Y04865*
G37*
G36*
X03274D02*
X0326D01*
X0326Y04862*
X03265Y04855*
X03271Y04851*
X03274Y04851*
Y04865*
G37*
G36*
X03101D02*
X03087D01*
Y04851*
X0309Y04851*
X03096Y04855*
X03101Y04862*
X03101Y04865*
G37*
G36*
X03668D02*
X03654D01*
X03654Y04862*
X03659Y04855*
X03665Y04851*
X03668Y04851*
Y04865*
G37*
G36*
X03298D02*
X03284D01*
Y04851*
X03287Y04851*
X03293Y04855*
X03298Y04862*
X03298Y04865*
G37*
G36*
X03875Y03904D02*
Y0389D01*
X03889*
X03888Y03893*
X03884Y039*
X03877Y03904*
X03875Y03904*
G37*
G36*
X03865D02*
X03862Y03904D01*
X03855Y039*
X03851Y03893*
X03851Y0389*
X03865*
Y03904*
G37*
G36*
X03678D02*
Y0389D01*
X03692*
X03691Y03893*
X03687Y039*
X0368Y03904*
X03678Y03904*
G37*
G36*
X0321Y03972D02*
X0318D01*
Y03946*
X0321*
Y03972*
G37*
G36*
X0336Y04837D02*
X03297D01*
Y04768*
X0336*
Y04777*
X03365Y04779*
X03374Y04769*
Y04733*
X03372Y04732*
X03368Y04725*
X03366Y04718*
X03368Y0471*
X03372Y04703*
X03379Y04699*
X03387Y04697*
X03389Y04698*
X03464Y04623*
Y04317*
X03465Y04312*
X03467Y04308*
X03473Y04303*
X03471Y04298*
X03476Y04299*
X03477Y04299*
X03481Y04295*
Y04279*
Y0426*
X0348Y0426*
X03482Y04255*
X03467Y0424*
X03465Y04236*
X03464Y04232*
Y04096*
X03289Y03921*
X03269*
X03265Y0392*
X03265Y0392*
X03261Y03918*
X03254Y0391*
X0325Y03912*
X03249Y03912*
Y03936*
X0322*
Y03909*
X03246*
X03246Y03908*
X03248Y03905*
X03247Y03904*
X03244Y039*
X03244Y03898*
X0318*
Y03878*
X0317*
Y03898*
X03101*
Y03835*
X03123*
Y03825*
X03101*
Y03762*
X0317*
Y03825*
X03148*
Y03835*
X0317*
Y03854*
X0318*
Y03835*
X03249*
Y03843*
X03251Y03854*
X03256Y03855*
X0326Y03858*
X03264Y03862*
X03267Y03866*
X0327Y03868*
X03271Y03867*
X03279Y03865*
X03287Y03867*
X03293Y03871*
X03298Y03878*
X03299Y03885*
X03298Y03893*
X03297Y03894*
X03299Y03898*
X03303Y039*
X03484Y04082*
X03487Y04086*
X03488Y04091*
Y04227*
X03508Y04247*
X03511Y04251*
X03512Y04255*
Y04293*
X03511Y04298*
X03508Y04302*
X03488Y04322*
Y04628*
X03487Y04632*
X03487Y04633*
X03484Y04637*
X03406Y04715*
X03407Y04718*
X03405Y04725*
X03401Y04732*
X03399Y04733*
Y04775*
X03398Y04778*
X03398Y04779*
X03395Y04783*
X03367Y04811*
X03363Y04814*
X0336Y04814*
Y04837*
G37*
G36*
X0321Y03936D02*
X0318D01*
Y03909*
X0321*
Y03936*
G37*
G36*
X03889Y0388D02*
X03875D01*
Y03866*
X03877Y03867*
X03884Y03871*
X03888Y03878*
X03889Y0388*
G37*
G36*
X03865D02*
X03851D01*
X03851Y03878*
X03855Y03871*
X03862Y03867*
X03865Y03866*
Y0388*
G37*
G36*
X03692D02*
X03678D01*
Y03866*
X0368Y03867*
X03687Y03871*
X03691Y03878*
X03692Y0388*
G37*
G36*
X03668Y03904D02*
X03665Y03904D01*
X03659Y039*
X03654Y03893*
X03654Y0389*
X03668*
Y03904*
G37*
G36*
X03481D02*
Y0389D01*
X03495*
X03494Y03893*
X0349Y039*
X03484Y03904*
X03481Y03904*
G37*
G36*
X03471D02*
X03468Y03904D01*
X03462Y039*
X03457Y03893*
X03457Y0389*
X03471*
Y03904*
G37*
G36*
X03875Y04101D02*
Y04087D01*
X03889*
X03888Y0409*
X03884Y04096*
X03877Y04101*
X03875Y04101*
G37*
G36*
X03104Y04071D02*
X03101Y0407D01*
X03094Y04066*
X0309Y04059*
X03089Y04057*
X03104*
Y04071*
G37*
G36*
X03114D02*
Y04057D01*
X03128*
X03127Y04059*
X03123Y04066*
X03116Y0407*
X03114Y04071*
G37*
G36*
X03274Y04077D02*
X0326D01*
X0326Y04074*
X03265Y04068*
X03271Y04064*
X03274Y04063*
Y04077*
G37*
G36*
X03249Y03972D02*
X0322D01*
Y03946*
X03249*
Y03972*
G37*
G36*
X03104Y04047D02*
X03089D01*
X0309Y04044*
X03094Y04037*
X03101Y04033*
X03104Y04032*
Y04047*
G37*
G36*
X03128D02*
X03114D01*
Y04032*
X03116Y04033*
X03123Y04037*
X03127Y04044*
X03128Y04047*
G37*
G36*
X03274Y04101D02*
X03271Y04101D01*
X03265Y04096*
X0326Y0409*
X0326Y04087*
X03274*
Y04101*
G37*
G36*
X03284D02*
Y04087D01*
X03298*
X03298Y0409*
X03293Y04096*
X03287Y04101*
X03284Y04101*
G37*
G36*
X03865D02*
X03862Y04101D01*
X03855Y04096*
X03851Y0409*
X03851Y04087*
X03865*
Y04101*
G37*
G36*
X03298Y04077D02*
X03284D01*
Y04063*
X03287Y04064*
X03293Y04068*
X03298Y04074*
X03298Y04077*
G37*
G36*
X03865D02*
X03851D01*
X03851Y04074*
X03855Y04068*
X03862Y04064*
X03865Y04063*
Y04077*
G37*
G36*
X03889D02*
X03875D01*
Y04063*
X03877Y04064*
X03884Y04068*
X03888Y04074*
X03889Y04077*
G37*
G36*
X02206Y04371D02*
X02201Y0437D01*
X02192Y04366*
X02184Y0436*
X02178Y04352*
X02174Y04343*
X02173Y04339*
X02206*
Y04371*
G37*
G36*
X02216D02*
Y04339D01*
X02248*
X02247Y04343*
X02243Y04352*
X02237Y0436*
X02229Y04366*
X0222Y0437*
X02216Y04371*
G37*
G36*
X03552Y04498D02*
X03542Y04497D01*
X03533Y04493*
X03525Y04487*
X03519Y04479*
X03515Y0447*
X03514Y04461*
X03515Y04451*
X03519Y04442*
X03525Y04434*
X03533Y04428*
X03542Y04424*
X03552Y04423*
X03561Y04424*
X0357Y04428*
X03578Y04434*
X03584Y04442*
X03588Y04451*
X03589Y04461*
X03588Y0447*
X03584Y04479*
X03578Y04487*
X0357Y04493*
X03561Y04497*
X03552Y04498*
G37*
G36*
X02248Y04329D02*
X02216D01*
Y04296*
X0222Y04297*
X02229Y04301*
X02237Y04307*
X02243Y04315*
X02247Y04324*
X02248Y04329*
G37*
G36*
X02106Y04371D02*
X02073D01*
Y04339*
X02106*
Y04371*
G37*
G36*
X02148D02*
X02116D01*
Y04339*
X02148*
Y04371*
G37*
G36*
X03789Y04456D02*
X03757D01*
Y04423*
X03761Y04424*
X0377Y04428*
X03778Y04434*
X03784Y04442*
X03788Y04451*
X03789Y04456*
G37*
G36*
X03344Y04485D02*
X03318D01*
Y04456*
X03344*
Y04485*
G37*
G36*
X03381D02*
X03354D01*
Y04456*
X03381*
Y04485*
G37*
G36*
X03847Y04456D02*
X03814D01*
Y04423*
X03847*
Y04456*
G37*
G36*
X03889D02*
X03857D01*
Y04423*
X03889*
Y04456*
G37*
G36*
X03747D02*
X03714D01*
X03715Y04451*
X03719Y04442*
X03725Y04434*
X03733Y04428*
X03742Y04424*
X03747Y04423*
Y04456*
G37*
G36*
X02206Y04329D02*
X02173D01*
X02174Y04324*
X02178Y04315*
X02184Y04307*
X02192Y04301*
X02201Y04297*
X02206Y04296*
Y04329*
G37*
G36*
X03889Y04274D02*
X03875D01*
Y0426*
X03877Y0426*
X03884Y04265*
X03888Y04271*
X03889Y04274*
G37*
G36*
X03471Y04298D02*
X03468Y04298D01*
X03462Y04293*
X03457Y04287*
X03457Y04284*
X03471*
Y04298*
G37*
G36*
X03865D02*
X03862Y04298D01*
X03855Y04293*
X03851Y04287*
X03851Y04284*
X03865*
Y04298*
G37*
G36*
X03668Y0388D02*
X03654D01*
X03654Y03878*
X03659Y03871*
X03665Y03867*
X03668Y03866*
Y0388*
G37*
G36*
X03471Y04274D02*
X03457D01*
X03457Y04271*
X03462Y04265*
X03468Y0426*
X03471Y0426*
Y04274*
G37*
G36*
X03865D02*
X03851D01*
X03851Y04271*
X03855Y04265*
X03862Y0426*
X03865Y0426*
Y04274*
G37*
G36*
X02411Y04371D02*
X02401Y0437D01*
X02392Y04366*
X02384Y0436*
X02378Y04352*
X02374Y04343*
X02373Y04334*
X02374Y04324*
X02378Y04315*
X02384Y04307*
X02392Y04301*
X02401Y04297*
X02411Y04296*
X0242Y04297*
X02429Y04301*
X02437Y04307*
X02443Y04315*
X02447Y04324*
X02448Y04334*
X02447Y04343*
X02443Y04352*
X02437Y0436*
X02429Y04366*
X0242Y0437*
X02411Y04371*
G37*
G36*
X02106Y04329D02*
X02073D01*
Y04296*
X02106*
Y04329*
G37*
G36*
X02311Y04371D02*
X02301Y0437D01*
X02292Y04366*
X02284Y0436*
X02278Y04352*
X02274Y04343*
X02273Y04334*
X02274Y04324*
X02278Y04315*
X02284Y04307*
X02292Y04301*
X02301Y04297*
X02311Y04296*
X0232Y04297*
X02329Y04301*
X02337Y04307*
X02343Y04315*
X02347Y04324*
X02348Y04334*
X02347Y04343*
X02343Y04352*
X02337Y0436*
X02329Y04366*
X0232Y0437*
X02311Y04371*
G37*
G36*
X02148Y04329D02*
X02116D01*
Y04296*
X02148*
Y04329*
G37*
G36*
X03875Y04298D02*
Y04284D01*
X03889*
X03888Y04287*
X03884Y04293*
X03877Y04298*
X03875Y04298*
G37*
%LNv2-3*%
%LPD*%
G54D59*
X02993Y0411D02*
X03005D01*
X03006Y04109*
X03004Y04108*
X02974Y04078*
X02971Y04073*
X0297Y04068*
Y04009*
X02968Y04008*
X02966Y04009*
X02959Y0401*
X02951Y04009*
X02946Y04005*
X02946*
X02941Y04009*
X02933Y0401*
X02926Y04009*
X02924Y04008*
X02922Y04009*
Y04078*
X02974Y04129*
X02993*
Y0411*
X03397Y04364D02*
X03398Y04363D01*
Y04283*
X03367Y04252*
X03364Y04247*
X03363Y04242*
Y04172*
X03362Y04171*
X03358Y04175*
X03357Y04171*
X03343*
Y04151*
X03349Y04152*
X03354Y04155*
X03355Y04154*
Y0415*
X03302*
Y04177*
X03229*
Y04159*
X03223*
Y04178*
X0315*
Y04114*
X03148Y04112*
X03145*
Y04113*
Y04178*
X03072*
Y04159*
X03066*
Y04178*
X02993*
Y04159*
X02968*
X02962Y04158*
X02958Y04155*
X02897Y04094*
X02898Y04095*
X02897Y04095*
Y04171*
X02896Y04175*
X02896Y04176*
X02893Y04181*
X0287Y04204*
X02872Y04209*
X02874Y0422*
X02872Y0423*
X02868Y0424*
X02862Y04248*
X02854Y04254*
X02844Y04258*
X02834Y0426*
X02823Y04258*
X02813Y04254*
X02805Y04248*
X02799Y0424*
X02795Y0423*
X02793Y0422*
X02795Y04209*
X02799Y04199*
X02805Y04191*
X02813Y04185*
X02823Y04181*
X02834Y04179*
X02844Y04181*
X02849Y04183*
X02868Y04165*
Y04108*
X02866Y04108*
X02867Y04107*
X0277Y04204*
X02772Y04209*
X02774Y0422*
X02772Y0423*
X02768Y0424*
X02762Y04248*
X02754Y04254*
X02744Y04258*
X02734Y0426*
X02723Y04258*
X02713Y04254*
X02705Y04248*
X02699Y0424*
X02695Y0423*
X02693Y0422*
X02695Y04209*
X02699Y04199*
X02705Y04191*
X02713Y04185*
X02723Y04181*
X02734Y04179*
X02744Y04181*
X02749Y04183*
X02842Y0409*
Y04009*
X0284Y04008*
X02838Y04009*
X02831Y0401*
X02823Y04009*
X02818Y04005*
X02818*
X02813Y04009*
X02805Y0401*
X02798Y04009*
X02791Y04005*
X02787Y03998*
X02786Y03991*
Y03967*
X02648*
Y04182*
X02654Y04185*
X02662Y04191*
X02668Y04199*
X02672Y04209*
X02674Y0422*
X02672Y0423*
X0267Y04235*
X0271Y04275*
X03094*
Y04253*
X03072*
Y04185*
X03145*
Y04253*
X03123*
Y04275*
X03126*
X03132Y04276*
X03136Y04279*
X03149Y04292*
X03151Y04292*
X03156Y04286*
X03163Y04281*
X03169Y04279*
X03172Y04267*
Y04253*
X0315*
Y04185*
X03223*
Y04253*
X03201*
Y04281*
X03203Y04283*
X03203Y04283*
X03233Y04253*
X03232Y04252*
X03229*
Y04184*
X03302*
Y04252*
X03276*
X03245Y04283*
X03245Y04285*
X03295*
Y04346*
X03297Y04348*
X03297Y04348*
X033Y04349*
X03302Y04347*
Y04285*
X0337*
Y04355*
X03372Y04356*
X03373Y04356*
X03382Y04358*
X03389Y04363*
X03392Y04367*
X03394*
X03397Y04364*
X02786Y03914D02*
X02787Y03906D01*
X02791Y039*
X02798Y03896*
X02805Y03894*
X02813Y03896*
X02818Y03899*
X02818*
X02821Y03898*
X02821Y03895*
X02817Y03891*
X02745*
Y03913*
X02677*
Y0384*
X02745*
Y03862*
X02811*
X02812Y0386*
X02763Y03812*
X02745*
Y03834*
X02677*
Y03774*
X0267*
Y03834*
X02648*
Y0384*
X0267*
Y03913*
X02648*
Y03938*
X02786*
Y03914*
%LNv2-4*%
%LPC*%
G36*
X03064Y0425D02*
X03035D01*
Y04224*
X03064*
Y0425*
G37*
G36*
X03025D02*
X02995D01*
Y04224*
X03025*
Y0425*
G37*
G36*
X0336Y04219D02*
X03345D01*
Y04193*
X0336*
Y04219*
G37*
G36*
X02929Y04257D02*
X02896D01*
Y04225*
X02929*
Y04257*
G37*
G36*
X0336Y04254D02*
X03345D01*
Y04229*
X0336*
Y04254*
G37*
G36*
X03335D02*
X0332D01*
Y04229*
X03335*
Y04254*
G37*
G36*
X02971Y04257D02*
X02939D01*
Y04225*
X02971*
Y04257*
G37*
G36*
X02929Y04215D02*
X02896D01*
Y04182*
X02929*
Y04215*
G37*
G36*
X03345Y04192D02*
Y04178D01*
X03359*
X03359Y04181*
X03354Y04187*
X03348Y04192*
X03345Y04192*
G37*
G36*
X03335Y04168D02*
X03321D01*
X03322Y04165*
X03326Y04159*
X03332Y04155*
X03335Y04154*
Y04168*
G37*
G36*
X02971Y04215D02*
X02939D01*
Y04182*
X02971*
Y04215*
G37*
G36*
X03335Y04219D02*
X0332D01*
Y04193*
X03326*
X03328Y04188*
X03326Y04187*
X03322Y04181*
X03321Y04178*
X03335*
Y04192*
X0334Y04193*
Y04193*
X03335*
Y04219*
G37*
G36*
X03064Y04214D02*
X03035D01*
Y04187*
X03064*
Y04214*
G37*
G36*
X03025D02*
X02995D01*
Y04187*
X03025*
Y04214*
G37*
%LNv2-5*%
%LPD*%
G54D12*
X03404Y03453D02*
X03424D01*
X03523Y03551*
X03634*
X03732Y03454*
X03757*
X03297Y04379D02*
Y04398D01*
X03199Y04497D02*
X03297Y04398D01*
X03199Y04497D02*
Y04608D01*
X03298Y04707*
Y0473*
G54D14*
X03337Y03414D03*
Y03489D03*
X03824Y03414D03*
Y03489D03*
Y03637D03*
Y03562D03*
X03215Y03866D03*
Y03941D03*
X02723Y03567D03*
Y03492D03*
X02645D03*
Y03567D03*
X03109Y04144D03*
Y04219D03*
X0303D03*
Y04144D03*
X03136Y03941D03*
Y03866D03*
Y03719D03*
Y03794D03*
X02879Y03567D03*
Y03492D03*
X02801Y03567D03*
Y03492D03*
Y0342D03*
Y03345D03*
X02879Y0342D03*
Y03345D03*
X03187Y04144D03*
Y04219D03*
X02799Y0315D03*
Y03225D03*
X03266Y04143D03*
Y04218D03*
X02877Y0315D03*
Y03225D03*
G54D15*
X0355Y03277D03*
X03625D03*
X03261Y04322D03*
X03336D03*
X03478Y03277D03*
X03403D03*
X03349Y04451D03*
X03424D03*
X03254Y04803D03*
X03329D03*
X02711Y03877D03*
X02636D03*
X02711Y03798D03*
X02636D03*
G54D25*
X03337Y03414D02*
X03401D01*
X03403Y03413*
X03337Y03489D02*
Y03512D01*
X03362Y03537*
X03625Y03277D02*
X03691D01*
X03824Y03489D02*
Y03562D01*
X03531Y03076D02*
Y03189D01*
X02079Y03076D02*
Y04254D01*
X02111Y04286*
X02069Y04676D02*
X02111Y04634D01*
X02069Y04676D02*
Y04887D01*
X03894*
X03644Y0308D02*
X03894D01*
X03631Y03093D02*
X03644Y0308D01*
X03631Y03093D02*
Y03189D01*
X02111Y04286D02*
Y04334D01*
Y04634*
X03824Y03637D02*
X03893D01*
X03894Y0308D02*
Y04887D01*
X03752Y03414D02*
X03824D01*
X03336Y04322D02*
Y04378D01*
X03338Y0438*
X03224Y04322D02*
X03261D01*
X03208Y04338D02*
X03224Y04322D01*
X03403Y03277D02*
X03432Y03305D01*
Y03346*
X03404Y03374D02*
X03432Y03346D01*
X03349Y04451D02*
Y04487D01*
X03357Y04495*
Y04513*
X03424Y04417D02*
Y04451D01*
X03389Y04417D02*
X03424D01*
X03374Y04402D02*
X03389Y04417D01*
X03374Y04379D02*
Y04402D01*
X02903Y03672D02*
X02908Y03677D01*
X02903Y03618D02*
Y03672D01*
X02879Y03593D02*
X02903Y03618D01*
X02879Y03567D02*
Y03593D01*
X02877Y03672D02*
X02882Y03677D01*
X02877Y0363D02*
Y03672D01*
X02865Y03618D02*
X02877Y0363D01*
X02801Y03592D02*
X02827Y03618D01*
X02801Y03567D02*
Y03592D01*
X02827Y03618D02*
X02865D01*
X02723Y03567D02*
Y03644D01*
X02756Y03677*
X02805*
X02241Y03492D02*
X02645D01*
X02879D01*
X02242Y03421D02*
X0269D01*
X02241Y03423D02*
X02242Y03421D01*
X02933Y03434D02*
Y03677D01*
X0292Y03421D02*
X02933Y03434D01*
X0269Y03421D02*
X0292D01*
X02677Y0317D02*
X0273D01*
X028Y03229D02*
Y03273D01*
Y03344*
X02678Y0326D02*
Y03332D01*
X0254Y0326D02*
X0254Y0326D01*
X02678Y03332D02*
X02714D01*
X0254Y03079D02*
Y0326D01*
X02079Y03076D02*
X03531D01*
X02589Y04031D02*
X0259Y04032D01*
X02589Y03588D02*
Y04031D01*
Y03588D02*
X02609Y03567D01*
X02645*
X02852Y03905D02*
Y03947D01*
X02711Y03877D02*
X02823D01*
X02852Y03905*
Y03947D02*
X02857Y03952D01*
X02877Y03905D02*
Y03947D01*
X02711Y03798D02*
X02769D01*
X02877Y03905*
Y03947D02*
X02882Y03952D01*
X02636Y03761D02*
Y03798D01*
X02928Y03905D02*
Y03947D01*
X02638Y03759D02*
X02782D01*
X02928Y03905*
Y03947D02*
X02933Y03952D01*
X02934Y04219D02*
X0303D01*
Y04144D02*
X03109D01*
X02634Y0422D02*
X02704Y0429D01*
X02968Y04144D02*
X0303D01*
X02908Y04084D02*
X02968Y04144D01*
X02908Y03952D02*
Y04084D01*
X02834Y0422D02*
X02882Y04171D01*
Y03952D02*
Y04171D01*
X02734Y0422D02*
X02857Y04096D01*
Y03952D02*
Y04096D01*
X03413Y04277D02*
Y0438D01*
X03378Y04242D02*
X03413Y04277D01*
X03378Y04135D02*
Y04242D01*
X03273Y04135D02*
X03378D01*
X03265Y04144D02*
X03273Y04135D01*
X03187Y04144D02*
X03265D01*
X03187Y04106D02*
Y04144D01*
X03179Y04098D02*
X03187Y04106D01*
X03015Y04098D02*
X03179D01*
X02984Y04067D02*
X03015Y04098D01*
X02984Y03952D02*
Y04067D01*
X02298Y04734D02*
X02367Y04803D01*
X03254*
X03329D02*
X03359D01*
X03387Y04775*
Y04718D02*
Y04775D01*
X03136Y03794D02*
Y03866D01*
X03044Y03736D02*
X03061Y03719D01*
X03027Y03736D02*
X03044D01*
X03015Y03724D02*
X03027Y03736D01*
X03015Y03682D02*
Y03724D01*
X0301Y03677D02*
X03015Y03682D01*
X03061Y03719D02*
X03136D01*
X03044Y04011D02*
X03074Y03982D01*
X03027Y04011D02*
X03044D01*
X03015Y03999D02*
X03027Y04011D01*
X03015Y03957D02*
Y03999D01*
X03074Y03982D02*
X03124D01*
X03136Y0397*
Y03941D02*
Y0397D01*
X03215Y03941D02*
Y04012D01*
X03175Y04052D02*
X03215Y04012D01*
X03109Y04052D02*
X03175D01*
X0334Y04173D02*
Y04224D01*
X02751Y0315D02*
X02799D01*
X0273Y0317D02*
X02751Y0315D01*
X02636Y0368D02*
X02697Y0362D01*
X02636Y0368D02*
Y03761D01*
X02638Y03759*
X02877Y03225D02*
Y03292D01*
Y03343*
X02883Y03156D02*
X02932D01*
X028Y03154D02*
X02878D01*
X02932Y03156D02*
X03111Y03336D01*
X03406*
X02959Y03488D02*
Y03677D01*
Y03488D02*
X03111Y03336D01*
X02879Y03345D02*
X03056D01*
X03057Y03346*
X02984Y03678D02*
Y03754D01*
Y03678D02*
X02984Y03677D01*
X03531Y03189D02*
Y03226D01*
X0355Y03245*
X0254Y0326D02*
X02678D01*
X0355Y03245D02*
Y03276D01*
Y03277*
X03478Y03276D02*
X0355D01*
X03187Y04219D02*
Y04287D01*
X03172Y04302D02*
X03187Y04287D01*
X03126Y0429D02*
X03162Y04325D01*
X03182*
X03266Y04242*
Y04218D02*
Y04242D01*
X03103Y04225D02*
X03109Y04219D01*
Y04289*
X02704Y0429D02*
X03126D01*
X02634Y03952D02*
X02805D01*
X02634Y038D02*
Y0422D01*
X03652Y04461D02*
X03831Y0464D01*
X03387Y04718D02*
X03476Y04628D01*
Y04317D02*
Y04628D01*
Y04317D02*
X035Y04293D01*
Y04255D02*
Y04293D01*
X03476Y04232D02*
X035Y04255D01*
X03476Y04091D02*
Y04232D01*
X03294Y03909D02*
X03476Y04091D01*
X03269Y03909D02*
X03294D01*
X03255Y03895D02*
X03269Y03909D01*
X03255Y0387D02*
Y03895D01*
X03251Y03866D02*
X03255Y0387D01*
X03136Y03866D02*
X03251D01*
G54D26*
X02196Y03196D03*
X03771D03*
Y04771D03*
X02196D03*
G54D27*
X03131Y03189D03*
X03231D03*
X03331D03*
X03431D03*
X03531D03*
X02211Y04334D03*
X02311D03*
X02411D03*
X03752Y04461D03*
X03652D03*
X03552D03*
X02834Y0422D03*
X02734D03*
X02634D03*
G54D28*
X03631Y03189D03*
X02111Y04334D03*
X03852Y04461D03*
X02934Y0422D03*
G54D29*
X03757Y03454D03*
X03404Y03453D03*
X03298Y0473D03*
X03297Y04379D03*
X03403Y03413D03*
X03362Y03537D03*
X03404Y03374D03*
X03691Y03277D03*
X03752Y03414D03*
X03338Y0438D03*
X03208Y04338D03*
X03406Y03336D03*
X03374Y04379D03*
X03413Y0438D03*
X03387Y04718D03*
X02298Y04734D03*
X0259Y04032D03*
X02241Y03492D03*
X02241Y03423D03*
X028Y03273D03*
X03109Y04052D03*
X0334Y04173D03*
X02697Y0362D03*
X02877Y03292D03*
X03057Y03346D03*
X02984Y03754D03*
X03172Y04302D03*
X02756Y03677D03*
X03579Y03433D03*
X03539D03*
X03579Y03472D03*
X03539D03*
X03579Y03512D03*
X03539D03*
X03618D03*
Y03472D03*
Y03433D03*
Y03393D03*
X03539D03*
X03579D03*
X03357Y04592D03*
X03831Y0464D03*
X03317Y04592D03*
X03357Y04553D03*
Y04513D03*
X03317D03*
X03278Y04592D03*
X03238D03*
Y04513D03*
X03278Y04553D03*
X03238D03*
X03317D03*
X03278Y04513D03*
X02098Y03098D03*
X02295D03*
X02492D03*
X02688D03*
X02885Y03092D03*
X03082D03*
X03279Y03098D03*
X03476D03*
X03673D03*
X0387D03*
Y03295D03*
Y03688D03*
Y03885D03*
Y04082D03*
Y04279D03*
Y04574D03*
Y0487D03*
X03673D03*
X03279D03*
X03082D03*
X02885D03*
X02688D03*
X02492D03*
X02295D03*
X02098D03*
Y04673D03*
Y04476D03*
Y0359D03*
Y03295D03*
X02295D03*
X02492D03*
X03279Y0359D03*
X03673Y03885D03*
X03476D03*
X03279D03*
Y04082D03*
X03476Y04279D03*
X02885Y03787D03*
X02492Y03688D03*
X02885Y04673D03*
Y04476D03*
X03879Y03492D03*
G54D30*
X03036Y03677D03*
X0301D03*
X02984D03*
X02959D03*
X02933D03*
X02908D03*
X02882D03*
X02857D03*
X02831D03*
X02805D03*
X03036Y03952D03*
X0301D03*
X02984D03*
X02959D03*
X02933D03*
X02908D03*
X02882D03*
X02857D03*
X02831D03*
X02805D03*
G54D31*
X02677Y03421D03*
X02639Y03332D03*
X02714D03*
X03378Y04135D03*
X03415Y04224D03*
X0334D03*
X02677Y0317D03*
X02714Y03259D03*
X02639D03*
G54D32*
X03345Y0455D03*
G54D33*
X03579Y03409D03*
G54D34*
X03576Y03509D03*
G54D35*
X03261Y04555D03*
M02*