%FSTAX23Y23*%
%MOIN*%
%SFA1B1*%

%IPPOS*%
%ADD41R,0.061149X0.055244*%
%ADD42R,0.055244X0.061149*%
%ADD52C,0.165480*%
%ADD53C,0.067055*%
%ADD54R,0.067055X0.067055*%
%ADD55C,0.031622*%
%ADD56O,0.025716X0.102488*%
%ADD57R,0.031622X0.053275*%
%LNv2-1*%
%LPD*%
G54D41*
X03337Y03414D03*
Y03489D03*
X03824Y03414D03*
Y03489D03*
Y03637D03*
Y03562D03*
X03215Y03866D03*
Y03941D03*
X02723Y03567D03*
Y03492D03*
X02645D03*
Y03567D03*
X03109Y04144D03*
Y04219D03*
X0303D03*
Y04144D03*
X03136Y03941D03*
Y03866D03*
Y03719D03*
Y03794D03*
X02879Y03567D03*
Y03492D03*
X02801Y03567D03*
Y03492D03*
Y0342D03*
Y03345D03*
X02879Y0342D03*
Y03345D03*
X03187Y04144D03*
Y04219D03*
X02799Y0315D03*
Y03225D03*
X03266Y04143D03*
Y04218D03*
X02877Y0315D03*
Y03225D03*
G54D42*
X0355Y03277D03*
X03625D03*
X03261Y04322D03*
X03336D03*
X03478Y03277D03*
X03403D03*
X03349Y04451D03*
X03424D03*
X03254Y04803D03*
X03329D03*
X02711Y03877D03*
X02636D03*
X02711Y03798D03*
X02636D03*
G54D52*
X02196Y03196D03*
X03771D03*
Y04771D03*
X02196D03*
G54D53*
X03131Y03189D03*
X03231D03*
X03331D03*
X03431D03*
X03531D03*
X02211Y04334D03*
X02311D03*
X02411D03*
X03752Y04461D03*
X03652D03*
X03552D03*
X02834Y0422D03*
X02734D03*
X02634D03*
G54D54*
X03631Y03189D03*
X02111Y04334D03*
X03852Y04461D03*
X02934Y0422D03*
G54D55*
X03757Y03454D03*
X03404Y03453D03*
X03298Y0473D03*
X03297Y04379D03*
X03403Y03413D03*
X03362Y03537D03*
X03404Y03374D03*
X03691Y03277D03*
X03752Y03414D03*
X03338Y0438D03*
X03208Y04338D03*
X03406Y03336D03*
X03374Y04379D03*
X03413Y0438D03*
X03387Y04718D03*
X02298Y04734D03*
X0259Y04032D03*
X02241Y03492D03*
X02241Y03423D03*
X028Y03273D03*
X03109Y04052D03*
X0334Y04173D03*
X02697Y0362D03*
X02877Y03292D03*
X03057Y03346D03*
X02984Y03754D03*
X03172Y04302D03*
X02756Y03677D03*
X03579Y03433D03*
X03539D03*
X03579Y03472D03*
X03539D03*
X03579Y03512D03*
X03539D03*
X03618D03*
Y03472D03*
Y03433D03*
Y03393D03*
X03539D03*
X03579D03*
X03357Y04592D03*
X03831Y0464D03*
X03317Y04592D03*
X03357Y04553D03*
Y04513D03*
X03317D03*
X03278Y04592D03*
X03238D03*
Y04513D03*
X03278Y04553D03*
X03238D03*
X03317D03*
X03278Y04513D03*
X02098Y03098D03*
X02295D03*
X02492D03*
X02688D03*
X02885Y03092D03*
X03082D03*
X03279Y03098D03*
X03476D03*
X03673D03*
X0387D03*
Y03295D03*
Y03688D03*
Y03885D03*
Y04082D03*
Y04279D03*
Y04574D03*
Y0487D03*
X03673D03*
X03279D03*
X03082D03*
X02885D03*
X02688D03*
X02492D03*
X02295D03*
X02098D03*
Y04673D03*
Y04476D03*
Y0359D03*
Y03295D03*
X02295D03*
X02492D03*
X03279Y0359D03*
X03673Y03885D03*
X03476D03*
X03279D03*
Y04082D03*
X03476Y04279D03*
X02885Y03787D03*
X02492Y03688D03*
X02885Y04673D03*
Y04476D03*
X03879Y03492D03*
G54D56*
X03036Y03677D03*
X0301D03*
X02984D03*
X02959D03*
X02933D03*
X02908D03*
X02882D03*
X02857D03*
X02831D03*
X02805D03*
X03036Y03952D03*
X0301D03*
X02984D03*
X02959D03*
X02933D03*
X02908D03*
X02882D03*
X02857D03*
X02831D03*
X02805D03*
G54D57*
X02677Y03421D03*
X02639Y03332D03*
X02714D03*
X03378Y04135D03*
X03415Y04224D03*
X0334D03*
X02677Y0317D03*
X02714Y03259D03*
X02639D03*
M02*