%FSLAX25Y25*%
%MOIN*%
G70*
G01*
G75*
G04 Layer_Color=65535*
%ADD10R,0.03937X0.03150*%
%ADD11R,0.02756X0.02559*%
%ADD12R,0.02756X0.01969*%
%ADD13R,0.02559X0.02756*%
%ADD14R,0.01969X0.02756*%
%ADD15R,0.05118X0.03543*%
%ADD16R,0.03543X0.05118*%
%ADD17R,0.04921X0.05906*%
%ADD18R,0.05906X0.04921*%
%ADD19O,0.11221X0.02362*%
%ADD20O,0.09843X0.02362*%
%ADD21R,0.08268X0.22047*%
%ADD22R,0.02362X0.05512*%
%ADD23C,0.02362*%
%ADD24C,0.01969*%
%ADD25C,0.01000*%
%ADD26C,0.01181*%
%ADD27C,0.19685*%
%ADD28R,0.05906X0.08268*%
%ADD29O,0.05906X0.08268*%
%ADD30R,0.08268X0.05906*%
%ADD31O,0.08268X0.05906*%
%ADD32C,0.02756*%
%ADD33C,0.03150*%
%ADD34C,0.02165*%
%ADD35C,0.00984*%
%ADD36C,0.00787*%
G36*
X551968Y419882D02*
X547244D01*
Y420275D01*
X551968D01*
Y419882D01*
D02*
G37*
G36*
X561024D02*
X556299D01*
Y420275D01*
X561024D01*
Y419882D01*
D02*
G37*
G36*
X533465D02*
X528740D01*
Y420275D01*
X533465D01*
Y419882D01*
D02*
G37*
G36*
X542913D02*
X538189D01*
Y420275D01*
X542913D01*
Y419882D01*
D02*
G37*
G36*
X752362Y420079D02*
X747638D01*
Y420472D01*
X752362D01*
Y420079D01*
D02*
G37*
G36*
X761417D02*
X756693D01*
Y420472D01*
X761417D01*
Y420079D01*
D02*
G37*
G36*
X733858D02*
X729134D01*
Y420472D01*
X733858D01*
Y420079D01*
D02*
G37*
G36*
X743307D02*
X738583D01*
Y420472D01*
X743307D01*
Y420079D01*
D02*
G37*
G36*
X656693Y418701D02*
X651968D01*
Y419094D01*
X656693D01*
Y418701D01*
D02*
G37*
G36*
X829134Y418898D02*
X824409D01*
Y419291D01*
X829134D01*
Y418898D01*
D02*
G37*
G36*
X637795Y418701D02*
X633071D01*
Y419094D01*
X637795D01*
Y418701D01*
D02*
G37*
G36*
X647244D02*
X642520D01*
Y419094D01*
X647244D01*
Y418701D01*
D02*
G37*
G36*
X857087Y418898D02*
X852362D01*
Y419291D01*
X857087D01*
Y418898D01*
D02*
G37*
G36*
X629134Y418898D02*
X624409D01*
Y419291D01*
X629134D01*
Y418898D01*
D02*
G37*
G36*
X838189Y418898D02*
X833465D01*
Y419291D01*
X838189D01*
Y418898D01*
D02*
G37*
G36*
X847638D02*
X842913D01*
Y419291D01*
X847638D01*
Y418898D01*
D02*
G37*
G36*
X549852Y425394D02*
X551575D01*
Y425000D01*
X547638D01*
Y425394D01*
X549360D01*
X547638Y428150D01*
X551575D01*
X549852Y425394D01*
D02*
G37*
G36*
X558908D02*
X560630D01*
Y425000D01*
X556693D01*
Y425394D01*
X558415D01*
X556693Y428150D01*
X560630D01*
X558908Y425394D01*
D02*
G37*
G36*
X531348D02*
X533071D01*
Y425000D01*
X529134D01*
Y425394D01*
X530856D01*
X529134Y428150D01*
X533071D01*
X531348Y425394D01*
D02*
G37*
G36*
X540797D02*
X542520D01*
Y425000D01*
X538583D01*
Y425394D01*
X540305D01*
X538583Y428150D01*
X542520D01*
X540797Y425394D01*
D02*
G37*
G36*
X750246Y425591D02*
X751968D01*
Y425197D01*
X748032D01*
Y425591D01*
X749754D01*
X748032Y428346D01*
X751968D01*
X750246Y425591D01*
D02*
G37*
G36*
X759301D02*
X761024D01*
Y425197D01*
X757087D01*
Y425591D01*
X758809D01*
X757087Y428346D01*
X761024D01*
X759301Y425591D01*
D02*
G37*
G36*
X731742D02*
X733465D01*
Y425197D01*
X729528D01*
Y425591D01*
X731250D01*
X729528Y428346D01*
X733465D01*
X731742Y425591D01*
D02*
G37*
G36*
X741191D02*
X742913D01*
Y425197D01*
X738976D01*
Y425591D01*
X740699D01*
X738976Y428346D01*
X742913D01*
X741191Y425591D01*
D02*
G37*
G36*
X654577Y424213D02*
X656299D01*
Y423819D01*
X652362D01*
Y424213D01*
X654085D01*
X652362Y426968D01*
X656299D01*
X654577Y424213D01*
D02*
G37*
G36*
X827018Y424409D02*
X828740D01*
Y424016D01*
X824803D01*
Y424409D01*
X826526D01*
X824803Y427165D01*
X828740D01*
X827018Y424409D01*
D02*
G37*
G36*
X635679Y424213D02*
X637402D01*
Y423819D01*
X633465D01*
Y424213D01*
X635187D01*
X633465Y426968D01*
X637402D01*
X635679Y424213D01*
D02*
G37*
G36*
X645128D02*
X646850D01*
Y423819D01*
X642913D01*
Y424213D01*
X644636D01*
X642913Y426968D01*
X646850D01*
X645128Y424213D01*
D02*
G37*
G36*
X854970Y424409D02*
X856693D01*
Y424016D01*
X852756D01*
Y424409D01*
X854478D01*
X852756Y427165D01*
X856693D01*
X854970Y424409D01*
D02*
G37*
G36*
X627018Y424409D02*
X628740D01*
Y424016D01*
X624803D01*
Y424409D01*
X626526D01*
X624803Y427165D01*
X628740D01*
X627018Y424409D01*
D02*
G37*
G36*
X836073Y424409D02*
X837795D01*
Y424016D01*
X833858D01*
Y424409D01*
X835581D01*
X833858Y427165D01*
X837795D01*
X836073Y424409D01*
D02*
G37*
G36*
X845522D02*
X847244D01*
Y424016D01*
X843307D01*
Y424409D01*
X845030D01*
X843307Y427165D01*
X847244D01*
X845522Y424409D01*
D02*
G37*
D23*
X584350Y382480D02*
G03*
X584350Y382480I-1181J0D01*
G01*
X583957Y449409D02*
G03*
X583957Y449409I-1181J0D01*
G01*
X784350Y449606D02*
G03*
X784350Y449606I-1181J0D01*
G01*
X784744Y382677D02*
G03*
X784744Y382677I-1181J0D01*
G01*
D25*
X561909Y450689D02*
Y453150D01*
X549114D02*
X561909D01*
X549114Y450689D02*
Y453150D01*
Y435433D02*
Y437894D01*
Y435433D02*
X561909D01*
Y437894D01*
X762303Y450886D02*
Y453346D01*
X749508D02*
X762303D01*
X749508Y450886D02*
Y453346D01*
Y435630D02*
Y438091D01*
Y435630D02*
X762303D01*
Y438091D01*
X621161Y435433D02*
Y437894D01*
Y435433D02*
X633957D01*
Y437894D01*
Y450689D02*
Y453150D01*
X621161D02*
X633957D01*
X621161Y450689D02*
Y453150D01*
X821555Y435630D02*
Y438091D01*
Y435630D02*
X834350D01*
Y438091D01*
Y450886D02*
Y453346D01*
X821555D02*
X834350D01*
X821555Y450886D02*
Y453346D01*
X618307Y359744D02*
X620768D01*
X618307Y346949D02*
Y359744D01*
Y346949D02*
X620768D01*
X633563D02*
X636024D01*
Y359744D01*
X633563D02*
X636024D01*
X818701Y359941D02*
X821161D01*
X818701Y347146D02*
Y359941D01*
Y347146D02*
X821161D01*
X833957D02*
X836417D01*
Y359941D01*
X833957D02*
X836417D01*
X563878Y354232D02*
Y356693D01*
X551083D02*
X563878D01*
X551083Y354232D02*
Y356693D01*
Y338976D02*
Y341437D01*
Y338976D02*
X563878D01*
Y341437D01*
X764272Y354429D02*
Y356890D01*
X751476D02*
X764272D01*
X751476Y354429D02*
Y356890D01*
Y339173D02*
Y341634D01*
Y339173D02*
X764272D01*
Y341634D01*
X490158Y372835D02*
X500394D01*
X490158Y351575D02*
X500394D01*
X490158D02*
Y354331D01*
X500394Y351575D02*
Y354331D01*
Y370472D02*
Y372835D01*
X490158Y370472D02*
Y372835D01*
X686614Y373228D02*
X696850D01*
X686614Y351968D02*
X696850D01*
X686614D02*
Y354724D01*
X696850Y351968D02*
Y354724D01*
Y370866D02*
Y373228D01*
X686614Y370866D02*
Y373228D01*
X565748Y301969D02*
Y312205D01*
X544488Y301969D02*
Y312205D01*
X547244D01*
X544488Y301969D02*
X547244D01*
X563386D02*
X565748D01*
X563386Y312205D02*
X565748D01*
X745276Y301181D02*
Y311417D01*
X766535Y301181D02*
Y311417D01*
X763779Y301181D02*
X766535D01*
X763779Y311417D02*
X766535D01*
X745276D02*
X747638D01*
X745276Y301181D02*
X747638D01*
X616929Y333268D02*
Y343504D01*
X638189Y333268D02*
Y343504D01*
X635433Y333268D02*
X638189D01*
X635433Y343504D02*
X638189D01*
X616929D02*
X619291D01*
X616929Y333268D02*
X619291D01*
X817323Y333465D02*
Y343701D01*
X838583Y333465D02*
Y343701D01*
X835827Y333465D02*
X838583D01*
X835827Y343701D02*
X838583D01*
X817323D02*
X819685D01*
X817323Y333465D02*
X819685D01*
X697638Y438976D02*
X707874D01*
X697638Y460236D02*
X707874D01*
Y457480D02*
Y460236D01*
X697638Y457480D02*
Y460236D01*
Y438976D02*
Y441339D01*
X707874Y438976D02*
Y441339D01*
X685039Y438976D02*
X695276D01*
X685039Y460236D02*
X695276D01*
Y457480D02*
Y460236D01*
X685039Y457480D02*
Y460236D01*
Y438976D02*
Y441339D01*
X695276Y438976D02*
Y441339D01*
X502756Y453543D02*
X512992D01*
X502756Y432283D02*
X512992D01*
X502756D02*
Y435039D01*
X512992Y432283D02*
Y435039D01*
Y451181D02*
Y453543D01*
X502756Y451181D02*
Y453543D01*
X490945D02*
X501181D01*
X490945Y432283D02*
X501181D01*
X490945D02*
Y435039D01*
X501181Y432283D02*
Y435039D01*
Y451181D02*
Y453543D01*
X490945Y451181D02*
Y453543D01*
X640158Y333268D02*
Y343504D01*
X661417Y333268D02*
Y343504D01*
X658661Y333268D02*
X661417D01*
X658661Y343504D02*
X661417D01*
X640158D02*
X642520D01*
X640158Y333268D02*
X642520D01*
X840551Y333465D02*
Y343701D01*
X861811Y333465D02*
Y343701D01*
X859055Y333465D02*
X861811D01*
X859055Y343701D02*
X861811D01*
X840551D02*
X842913D01*
X840551Y333465D02*
X842913D01*
X616929Y376181D02*
Y386417D01*
X638189Y376181D02*
Y386417D01*
X635433Y376181D02*
X638189D01*
X635433Y386417D02*
X638189D01*
X616929D02*
X619291D01*
X616929Y376181D02*
X619291D01*
X817323Y376378D02*
Y386614D01*
X838583Y376378D02*
Y386614D01*
X835827Y376378D02*
X838583D01*
X835827Y386614D02*
X838583D01*
X817323D02*
X819685D01*
X817323Y376378D02*
X819685D01*
X638189Y308465D02*
Y318701D01*
X616929Y308465D02*
Y318701D01*
X619685D01*
X616929Y308465D02*
X619685D01*
X635827D02*
X638189D01*
X635827Y318701D02*
X638189D01*
X800000Y308268D02*
Y318504D01*
X821260Y308268D02*
Y318504D01*
X818504Y308268D02*
X821260D01*
X818504Y318504D02*
X821260D01*
X800000D02*
X802362D01*
X800000Y308268D02*
X802362D01*
X616929Y320669D02*
Y330905D01*
X638189Y320669D02*
Y330905D01*
X635433Y320669D02*
X638189D01*
X635433Y330905D02*
X638189D01*
X616929D02*
X619291D01*
X616929Y320669D02*
X619291D01*
X817323Y320866D02*
Y331102D01*
X838583Y320866D02*
Y331102D01*
X835827Y320866D02*
X838583D01*
X835827Y331102D02*
X838583D01*
X817323D02*
X819685D01*
X817323Y320866D02*
X819685D01*
X588976Y310827D02*
Y321063D01*
X567717Y310827D02*
Y321063D01*
X570472D01*
X567717Y310827D02*
X570472D01*
X586614D02*
X588976D01*
X586614Y321063D02*
X588976D01*
X789370Y311023D02*
Y321260D01*
X768110Y311023D02*
Y321260D01*
X770866D01*
X768110Y311023D02*
X770866D01*
X787008D02*
X789370D01*
X787008Y321260D02*
X789370D01*
X500000Y337402D02*
Y347638D01*
X478740Y337402D02*
Y347638D01*
X481496D01*
X478740Y337402D02*
X481496D01*
X497638D02*
X500000D01*
X497638Y347638D02*
X500000D01*
X697441Y337441D02*
Y347677D01*
X676181Y337441D02*
Y347677D01*
X678937D01*
X676181Y337441D02*
X678937D01*
X695079D02*
X697441D01*
X695079Y347677D02*
X697441D01*
X500394Y377953D02*
Y388189D01*
X479134Y377953D02*
Y388189D01*
X481890D01*
X479134Y377953D02*
X481890D01*
X498032D02*
X500394D01*
X498032Y388189D02*
X500394D01*
X697441Y377441D02*
Y387677D01*
X676181Y377441D02*
Y387677D01*
X678937D01*
X676181Y377441D02*
X678937D01*
X695079D02*
X697441D01*
X695079Y387677D02*
X697441D01*
X544882Y326378D02*
Y336614D01*
X566142Y326378D02*
Y336614D01*
X563386Y326378D02*
X566142D01*
X563386Y336614D02*
X566142D01*
X544882D02*
X547244D01*
X544882Y326378D02*
X547244D01*
X745276Y325000D02*
Y335236D01*
X766535Y325000D02*
Y335236D01*
X763779Y325000D02*
X766535D01*
X763779Y335236D02*
X766535D01*
X745276D02*
X747638D01*
X745276Y325000D02*
X747638D01*
X780709Y459252D02*
Y469488D01*
X801968Y459252D02*
Y469488D01*
X799213Y459252D02*
X801968D01*
X799213Y469488D02*
X801968D01*
X780709D02*
X783071D01*
X780709Y459252D02*
X783071D01*
X831496Y459547D02*
Y469783D01*
X810236Y459547D02*
Y469783D01*
X812992D01*
X810236Y459547D02*
X812992D01*
X829134D02*
X831496D01*
X829134Y469783D02*
X831496D01*
X582283Y459350D02*
Y469587D01*
X603543Y459350D02*
Y469587D01*
X600787Y459350D02*
X603543D01*
X600787Y469587D02*
X603543D01*
X582283D02*
X584646D01*
X582283Y459350D02*
X584646D01*
X630709D02*
Y469587D01*
X609449Y459350D02*
Y469587D01*
X612205D01*
X609449Y459350D02*
X612205D01*
X628346D02*
X630709D01*
X628346Y469587D02*
X630709D01*
X533071Y341339D02*
Y383858D01*
X528346D02*
X533071D01*
X528346Y341339D02*
X533071D01*
X511811D02*
X516535D01*
X511811D02*
Y383858D01*
X516535D01*
X542126Y390158D02*
Y401968D01*
X502756D02*
X542126D01*
X502756Y390158D02*
Y401968D01*
Y323228D02*
Y338976D01*
Y323228D02*
X542126D01*
Y338976D01*
X544488Y366732D02*
X547244D01*
X544488Y358858D02*
X547244D01*
X553543D02*
X556299D01*
X553543Y366732D02*
X556299D01*
Y358858D02*
Y366732D01*
X544488Y358858D02*
Y366732D01*
X483071Y455905D02*
Y459055D01*
X481496Y457480D02*
X484646D01*
X680709Y487795D02*
X683858D01*
X681496Y488976D02*
X683071D01*
X660630Y487795D02*
X663779D01*
X661417Y488976D02*
X662992D01*
X670472Y487795D02*
X673622D01*
X671260Y488976D02*
X672835D01*
X651181Y488976D02*
X652756D01*
X650394Y487795D02*
X653543D01*
X635039Y345669D02*
X638386D01*
X627953Y338583D02*
X635039Y345669D01*
X638386D02*
X651476D01*
X653051Y347244D01*
Y350000D01*
X853051Y346850D02*
Y349606D01*
X851476Y345276D02*
X853051Y346850D01*
X838386Y345276D02*
X851476D01*
X827953Y338189D02*
X835039Y345276D01*
X838386D01*
X553543Y369488D02*
X556299D01*
X553543Y377362D02*
X556299D01*
X544488D02*
X547244D01*
X544488Y369488D02*
X547244D01*
X544488D02*
Y377362D01*
X556299Y369488D02*
Y377362D01*
X633465Y362008D02*
X636221D01*
X633465Y369882D02*
X636221D01*
X624409D02*
X627165D01*
X624409Y362008D02*
X627165D01*
X624409D02*
Y369882D01*
X636221Y362008D02*
Y369882D01*
X753937Y369685D02*
X756693D01*
X753937Y377559D02*
X756693D01*
X744882D02*
X747638D01*
X744882Y369685D02*
X747638D01*
X744882D02*
Y377559D01*
X756693Y369685D02*
Y377559D01*
X744882Y366929D02*
X747638D01*
X744882Y359055D02*
X747638D01*
X753937D02*
X756693D01*
X753937Y366929D02*
X756693D01*
Y359055D02*
Y366929D01*
X744882Y359055D02*
Y366929D01*
X730441Y341299D02*
Y383819D01*
X725716D02*
X730441D01*
X725716Y341299D02*
X730441D01*
X709181D02*
X713905D01*
X709181D02*
Y383819D01*
X713905D01*
X739496Y390118D02*
Y401929D01*
X700126D02*
X739496D01*
X700126Y390118D02*
Y401929D01*
Y323189D02*
Y338937D01*
Y323189D02*
X739496D01*
Y338937D01*
X833858Y362205D02*
X836614D01*
X833858Y370079D02*
X836614D01*
X824803D02*
X827559D01*
X824803Y362205D02*
X827559D01*
X824803D02*
Y370079D01*
X836614Y362205D02*
Y370079D01*
X712520Y465453D02*
X715669D01*
X512894Y463878D02*
X514468D01*
X512106Y465059D02*
X515256D01*
X713307Y464272D02*
X714882D01*
X472441Y295276D02*
Y492126D01*
Y295276D02*
X866142D01*
Y492126D01*
X472441D02*
X866142D01*
X764173Y323228D02*
X766535D01*
X764173Y312992D02*
X766535D01*
X745276D02*
X748032D01*
X745276Y323228D02*
X748032D01*
X745276Y312992D02*
Y323228D01*
X766535Y312992D02*
Y323228D01*
X563779Y325197D02*
X566142D01*
X563779Y314961D02*
X566142D01*
X544882D02*
X547638D01*
X544882Y325197D02*
X547638D01*
X544882Y314961D02*
Y325197D01*
X566142Y314961D02*
Y325197D01*
D35*
X573524Y386555D02*
G03*
X573524Y386555I-492J0D01*
G01*
Y453602D02*
G03*
X573524Y453602I-492J0D01*
G01*
X773917Y453799D02*
G03*
X773917Y453799I-492J0D01*
G01*
Y386752D02*
G03*
X773917Y386752I-492J0D01*
G01*
D36*
X579232Y325000D02*
Y386417D01*
X602658Y325000D02*
Y386417D01*
X579232D02*
X602658D01*
X579232Y325000D02*
X602658D01*
X578839Y402165D02*
Y453346D01*
X603839Y402165D02*
Y453346D01*
X578839D02*
X603839D01*
X578839Y402165D02*
X603839D01*
X616575Y473543D02*
Y483543D01*
X596575Y473543D02*
X616575D01*
X596575D02*
Y483543D01*
X616575D01*
X709094Y486654D02*
X769095D01*
X709094Y466653D02*
Y486654D01*
Y466653D02*
X769095D01*
Y486654D01*
X479252Y453819D02*
X489252D01*
Y433819D02*
Y453819D01*
X479252Y433819D02*
X489252D01*
X479252D02*
Y453819D01*
X779232Y402362D02*
Y453543D01*
X804232Y402362D02*
Y453543D01*
X779232D02*
X804232D01*
X779232Y402362D02*
X804232D01*
X779626Y325197D02*
Y386614D01*
X803051Y325197D02*
Y386614D01*
X779626D02*
X803051D01*
X779626Y325197D02*
X803051D01*
X670433Y302087D02*
X690433D01*
X670433Y332087D02*
X690433D01*
Y302087D02*
Y332087D01*
X670433Y302087D02*
Y332087D01*
Y302087D02*
Y321253D01*
X816969Y473740D02*
Y483740D01*
X796969Y473740D02*
X816969D01*
X796969D02*
Y483740D01*
X816969D01*
X647047Y466653D02*
X687047D01*
X647047Y486654D02*
X687047D01*
X647047Y466653D02*
Y486654D01*
X687047Y466653D02*
Y486654D01*
X508701Y486457D02*
X568701D01*
X508701Y466457D02*
Y486457D01*
Y466457D02*
X568701D01*
Y486457D01*
X833563Y465158D02*
Y469880D01*
X835924D01*
X836712Y469093D01*
Y467519D01*
X835924Y466732D01*
X833563D01*
X835137D02*
X836712Y465158D01*
X840647D02*
Y469880D01*
X838286Y467519D01*
X841434D01*
X633465Y456890D02*
Y461613D01*
X635826D01*
X636613Y460825D01*
Y459251D01*
X635826Y458464D01*
X633465D01*
X635039D02*
X636613Y456890D01*
X640549D02*
Y461613D01*
X638187Y459251D01*
X641336D01*
X774901Y475589D02*
X774113Y476376D01*
X772539D01*
X771752Y475589D01*
Y472441D01*
X772539Y471654D01*
X774113D01*
X774901Y472441D01*
X776475D02*
X777262Y471654D01*
X778836D01*
X779623Y472441D01*
Y475589D01*
X778836Y476376D01*
X777262D01*
X776475Y475589D01*
Y474802D01*
X777262Y474015D01*
X779623D01*
X579723Y475786D02*
X578936Y476573D01*
X577362D01*
X576575Y475786D01*
Y472638D01*
X577362Y471850D01*
X578936D01*
X579723Y472638D01*
X581298D02*
X582085Y471850D01*
X583659D01*
X584446Y472638D01*
Y475786D01*
X583659Y476573D01*
X582085D01*
X581298Y475786D01*
Y474999D01*
X582085Y474212D01*
X584446D01*
X701770Y433269D02*
X702558Y434056D01*
Y435630D01*
X701770Y436417D01*
X698622D01*
X697835Y435630D01*
Y434056D01*
X698622Y433269D01*
X697835Y431694D02*
X702558D01*
Y429333D01*
X701770Y428546D01*
X700196D01*
X699409Y429333D01*
Y431694D01*
X697835Y423823D02*
Y426972D01*
X700983Y423823D01*
X701770D01*
X702558Y424610D01*
Y426184D01*
X701770Y426972D01*
X697835Y419100D02*
Y422249D01*
X700983Y419100D01*
X701770D01*
X702558Y419887D01*
Y421461D01*
X701770Y422249D01*
X688975Y433269D02*
X689762Y434056D01*
Y435630D01*
X688975Y436417D01*
X685826D01*
X685039Y435630D01*
Y434056D01*
X685826Y433269D01*
X685039Y431694D02*
X689762D01*
Y429333D01*
X688975Y428546D01*
X687401D01*
X686614Y429333D01*
Y431694D01*
X685039Y423823D02*
Y426972D01*
X688188Y423823D01*
X688975D01*
X689762Y424610D01*
Y426184D01*
X688975Y426972D01*
X685039Y422249D02*
Y420674D01*
Y421461D01*
X689762D01*
X688975Y422249D01*
X507085Y426773D02*
X507872Y427560D01*
Y429134D01*
X507085Y429921D01*
X503937D01*
X503150Y429134D01*
Y427560D01*
X503937Y426773D01*
X503150Y425198D02*
X507872D01*
Y422837D01*
X507085Y422050D01*
X505511D01*
X504724Y422837D01*
Y425198D01*
X503150Y420475D02*
Y418901D01*
Y419688D01*
X507872D01*
X507085Y420475D01*
X503150Y413391D02*
Y416540D01*
X506298Y413391D01*
X507085D01*
X507872Y414178D01*
Y415753D01*
X507085Y416540D01*
X496849Y427166D02*
X497636Y427953D01*
Y429528D01*
X496849Y430315D01*
X493701D01*
X492913Y429528D01*
Y427953D01*
X493701Y427166D01*
X492913Y425592D02*
X497636D01*
Y423231D01*
X496849Y422443D01*
X495275D01*
X494488Y423231D01*
Y425592D01*
X492913Y420869D02*
Y419295D01*
Y420082D01*
X497636D01*
X496849Y420869D01*
X492913Y416933D02*
Y415359D01*
Y416146D01*
X497636D01*
X496849Y416933D01*
X479921Y430709D02*
X484644D01*
Y428347D01*
X483857Y427560D01*
X482283D01*
X481496Y428347D01*
Y430709D01*
X484644Y425986D02*
X479921D01*
X481496Y424411D01*
X479921Y422837D01*
X484644D01*
X479921Y421263D02*
X484644D01*
Y418901D01*
X483857Y418114D01*
X482283D01*
X481496Y418901D01*
Y421263D01*
Y419689D02*
X479921Y418114D01*
X703446Y468601D02*
X702659Y467814D01*
Y466240D01*
X703446Y465453D01*
X706595D01*
X707382Y466240D01*
Y467814D01*
X706595Y468601D01*
X705020D01*
Y467027D01*
X707382Y470176D02*
X702659D01*
Y472537D01*
X703446Y473324D01*
X705020D01*
X705808Y472537D01*
Y470176D01*
X702659Y474898D02*
Y476473D01*
Y475686D01*
X707382D01*
Y474898D01*
Y476473D01*
X702659Y481196D02*
Y479621D01*
X703446Y478834D01*
X706595D01*
X707382Y479621D01*
Y481196D01*
X706595Y481983D01*
X703446D01*
X702659Y481196D01*
X707382Y486706D02*
Y483557D01*
X704233Y486706D01*
X703446D01*
X702659Y485919D01*
Y484344D01*
X703446Y483557D01*
X502757Y470865D02*
X501970Y470078D01*
Y468504D01*
X502757Y467717D01*
X505906D01*
X506693Y468504D01*
Y470078D01*
X505906Y470865D01*
X504331D01*
Y469291D01*
X506693Y472439D02*
X501970D01*
Y474801D01*
X502757Y475588D01*
X504331D01*
X505119Y474801D01*
Y472439D01*
X501970Y477162D02*
Y478737D01*
Y477949D01*
X506693D01*
Y477162D01*
Y478737D01*
X501970Y483460D02*
Y481885D01*
X502757Y481098D01*
X505906D01*
X506693Y481885D01*
Y483460D01*
X505906Y484247D01*
X502757D01*
X501970Y483460D01*
X506693Y485821D02*
Y487395D01*
Y486608D01*
X501970D01*
X502757Y485821D01*
X639864Y473917D02*
Y477066D01*
Y475492D01*
X644587D01*
Y478640D02*
X639864D01*
Y481002D01*
X640651Y481789D01*
X642225D01*
X643012Y481002D01*
Y478640D01*
Y480215D02*
X644587Y481789D01*
X639864Y483363D02*
X644587Y486512D01*
X639864D02*
X644587Y483363D01*
X537401Y335825D02*
X536613Y336613D01*
X535039D01*
X534252Y335825D01*
Y332677D01*
X535039Y331890D01*
X536613D01*
X537401Y332677D01*
X538975Y331890D02*
X540549D01*
X539762D01*
Y336613D01*
X538975Y335825D01*
X745275Y341337D02*
X744487Y342124D01*
X742913D01*
X742126Y341337D01*
Y338189D01*
X742913Y337402D01*
X744487D01*
X745275Y338189D01*
X746849Y337402D02*
X748423D01*
X747636D01*
Y342124D01*
X746849Y341337D01*
X495668Y394093D02*
X494881Y394880D01*
X493307D01*
X492520Y394093D01*
Y390945D01*
X493307Y390158D01*
X494881D01*
X495668Y390945D01*
X500391Y390158D02*
X497243D01*
X500391Y393306D01*
Y394093D01*
X499604Y394880D01*
X498030D01*
X497243Y394093D01*
X692125Y394684D02*
X691338Y395471D01*
X689763D01*
X688976Y394684D01*
Y391535D01*
X689763Y390748D01*
X691338D01*
X692125Y391535D01*
X696848Y390748D02*
X693699D01*
X696848Y393897D01*
Y394684D01*
X696061Y395471D01*
X694486D01*
X693699Y394684D01*
X495668Y334644D02*
X494881Y335432D01*
X493307D01*
X492520Y334644D01*
Y331496D01*
X493307Y330709D01*
X494881D01*
X495668Y331496D01*
X497243Y334644D02*
X498030Y335432D01*
X499604D01*
X500391Y334644D01*
Y333857D01*
X499604Y333070D01*
X498817D01*
X499604D01*
X500391Y332283D01*
Y331496D01*
X499604Y330709D01*
X498030D01*
X497243Y331496D01*
X668897Y346455D02*
X668110Y347243D01*
X666535D01*
X665748Y346455D01*
Y343307D01*
X666535Y342520D01*
X668110D01*
X668897Y343307D01*
X670471Y346455D02*
X671258Y347243D01*
X672832D01*
X673620Y346455D01*
Y345668D01*
X672832Y344881D01*
X672045D01*
X672832D01*
X673620Y344094D01*
Y343307D01*
X672832Y342520D01*
X671258D01*
X670471Y343307D01*
X594487Y314959D02*
X593700Y315746D01*
X592126D01*
X591339Y314959D01*
Y311811D01*
X592126Y311024D01*
X593700D01*
X594487Y311811D01*
X598423Y311024D02*
Y315746D01*
X596062Y313385D01*
X599210D01*
X792127Y314566D02*
X791340Y313779D01*
Y312205D01*
X792127Y311417D01*
X795276D01*
X796063Y312205D01*
Y313779D01*
X795276Y314566D01*
X796063Y318502D02*
X791340D01*
X793702Y316140D01*
Y319289D01*
X643798Y324310D02*
X643011Y325097D01*
X641437D01*
X640650Y324310D01*
Y321161D01*
X641437Y320374D01*
X643011D01*
X643798Y321161D01*
X648521Y325097D02*
X645372D01*
Y322736D01*
X646947Y323523D01*
X647734D01*
X648521Y322736D01*
Y321161D01*
X647734Y320374D01*
X646160D01*
X645372Y321161D01*
X810432Y324900D02*
X809645Y325687D01*
X808071D01*
X807283Y324900D01*
Y321752D01*
X808071Y320965D01*
X809645D01*
X810432Y321752D01*
X815155Y325687D02*
X812006D01*
Y323326D01*
X813581Y324113D01*
X814368D01*
X815155Y323326D01*
Y321752D01*
X814368Y320965D01*
X812794D01*
X812006Y321752D01*
X643601Y312499D02*
X642814Y313286D01*
X641240D01*
X640453Y312499D01*
Y309350D01*
X641240Y308563D01*
X642814D01*
X643601Y309350D01*
X648324Y313286D02*
X646750Y312499D01*
X645176Y310924D01*
Y309350D01*
X645963Y308563D01*
X647537D01*
X648324Y309350D01*
Y310137D01*
X647537Y310924D01*
X645176D01*
X826968Y312007D02*
X826180Y312794D01*
X824606D01*
X823819Y312007D01*
Y308858D01*
X824606Y308071D01*
X826180D01*
X826968Y308858D01*
X831690Y312794D02*
X830116Y312007D01*
X828542Y310432D01*
Y308858D01*
X829329Y308071D01*
X830903D01*
X831690Y308858D01*
Y309645D01*
X830903Y310432D01*
X828542D01*
X633759Y391731D02*
X632972Y392518D01*
X631398D01*
X630611Y391731D01*
Y388582D01*
X631398Y387795D01*
X632972D01*
X633759Y388582D01*
X635334Y392518D02*
X638482D01*
Y391731D01*
X635334Y388582D01*
Y387795D01*
X833857Y392715D02*
X833070Y393502D01*
X831496D01*
X830709Y392715D01*
Y389567D01*
X831496Y388779D01*
X833070D01*
X833857Y389567D01*
X835431Y393502D02*
X838580D01*
Y392715D01*
X835431Y389567D01*
Y388779D01*
X658267Y349605D02*
X657480Y350392D01*
X655905D01*
X655118Y349605D01*
Y346456D01*
X655905Y345669D01*
X657480D01*
X658267Y346456D01*
X659841Y349605D02*
X660628Y350392D01*
X662202D01*
X662990Y349605D01*
Y348818D01*
X662202Y348031D01*
X662990Y347244D01*
Y346456D01*
X662202Y345669D01*
X660628D01*
X659841Y346456D01*
Y347244D01*
X660628Y348031D01*
X659841Y348818D01*
Y349605D01*
X660628Y348031D02*
X662202D01*
X843700Y330707D02*
X842913Y331494D01*
X841338D01*
X840551Y330707D01*
Y327559D01*
X841338Y326772D01*
X842913D01*
X843700Y327559D01*
X845274Y330707D02*
X846061Y331494D01*
X847635D01*
X848423Y330707D01*
Y329920D01*
X847635Y329133D01*
X848423Y328346D01*
Y327559D01*
X847635Y326772D01*
X846061D01*
X845274Y327559D01*
Y328346D01*
X846061Y329133D01*
X845274Y329920D01*
Y330707D01*
X846061Y329133D02*
X847635D01*
X629134Y405905D02*
X624411D01*
Y408267D01*
X625198Y409054D01*
X626772D01*
X627560Y408267D01*
Y405905D01*
Y407480D02*
X629134Y409054D01*
X624411Y410628D02*
X629134D01*
X626772D01*
Y413777D01*
X624411D01*
X629134D01*
X828740Y405905D02*
X824017D01*
Y408267D01*
X824804Y409054D01*
X826379D01*
X827166Y408267D01*
Y405905D01*
Y407480D02*
X828740Y409054D01*
X824017Y410628D02*
X828740D01*
X826379D01*
Y413777D01*
X824017D01*
X828740D01*
X637402Y405709D02*
X632679D01*
Y408070D01*
X633466Y408857D01*
X635040D01*
X635827Y408070D01*
Y405709D01*
Y407283D02*
X637402Y408857D01*
Y410431D02*
X634253D01*
X632679Y412006D01*
X634253Y413580D01*
X637402D01*
X635040D01*
Y410431D01*
X837795Y405905D02*
X833072D01*
Y408267D01*
X833860Y409054D01*
X835434D01*
X836221Y408267D01*
Y405905D01*
Y407480D02*
X837795Y409054D01*
Y410628D02*
X834647D01*
X833072Y412203D01*
X834647Y413777D01*
X837795D01*
X835434D01*
Y410628D01*
X646850Y405709D02*
X642128D01*
Y408070D01*
X642915Y408857D01*
X644489D01*
X645276Y408070D01*
Y405709D01*
X646850Y410431D02*
X643702D01*
X642128Y412006D01*
X643702Y413580D01*
X646850D01*
X644489D01*
Y410431D01*
X847638Y405905D02*
X842915D01*
Y408267D01*
X843702Y409054D01*
X845276D01*
X846064Y408267D01*
Y405905D01*
X847638Y410628D02*
X844489D01*
X842915Y412203D01*
X844489Y413777D01*
X847638D01*
X845276D01*
Y410628D01*
X656693Y405905D02*
X651970D01*
Y408267D01*
X652757Y409054D01*
X654331D01*
X655119Y408267D01*
Y405905D01*
Y407480D02*
X656693Y409054D01*
Y410628D02*
X651970D01*
Y412990D01*
X652757Y413777D01*
X654331D01*
X655119Y412990D01*
Y410628D01*
X857087Y405905D02*
X852364D01*
Y408267D01*
X853151Y409054D01*
X854725D01*
X855512Y408267D01*
Y405905D01*
Y407480D02*
X857087Y409054D01*
Y410628D02*
X852364D01*
Y412990D01*
X853151Y413777D01*
X854725D01*
X855512Y412990D01*
Y410628D01*
X561417Y407087D02*
X556694D01*
Y409448D01*
X557482Y410235D01*
X559056D01*
X559843Y409448D01*
Y407087D01*
Y408661D02*
X561417Y410235D01*
X557482Y414958D02*
X556694Y414171D01*
Y412597D01*
X557482Y411809D01*
X558269D01*
X559056Y412597D01*
Y414171D01*
X559843Y414958D01*
X560630D01*
X561417Y414171D01*
Y412597D01*
X560630Y411809D01*
X761024Y407087D02*
X756301D01*
Y409448D01*
X757088Y410235D01*
X758662D01*
X759449Y409448D01*
Y407087D01*
Y408661D02*
X761024Y410235D01*
X757088Y414958D02*
X756301Y414171D01*
Y412597D01*
X757088Y411809D01*
X757875D01*
X758662Y412597D01*
Y414171D01*
X759449Y414958D01*
X760237D01*
X761024Y414171D01*
Y412597D01*
X760237Y411809D01*
X547246Y406890D02*
Y410038D01*
Y408464D01*
X551968D01*
X547246Y411613D02*
X551968D01*
Y413974D01*
X551181Y414761D01*
X548033D01*
X547246Y413974D01*
Y411613D01*
X747246Y407087D02*
Y410235D01*
Y408661D01*
X751968D01*
X747246Y411809D02*
X751968D01*
Y414171D01*
X751181Y414958D01*
X748033D01*
X747246Y414171D01*
Y411809D01*
X537797Y406890D02*
Y410038D01*
Y408464D01*
X542520D01*
Y411613D02*
X537797D01*
Y413974D01*
X538584Y414761D01*
X540158D01*
X540945Y413974D01*
Y411613D01*
X738978Y407874D02*
Y411023D01*
Y409448D01*
X743701D01*
Y412597D02*
X738978D01*
Y414958D01*
X739765Y415745D01*
X741339D01*
X742127Y414958D01*
Y412597D01*
X528348Y406890D02*
Y410038D01*
Y408464D01*
X533071D01*
X528348Y414761D02*
Y411613D01*
X533071D01*
Y414761D01*
X530709Y411613D02*
Y413187D01*
X728742Y407087D02*
Y410235D01*
Y408661D01*
X733465D01*
X728742Y414958D02*
Y411809D01*
X733465D01*
Y414958D01*
X731103Y411809D02*
Y413384D01*
X561810Y362991D02*
X561023Y363778D01*
X559449D01*
X558661Y362991D01*
Y359842D01*
X559449Y359055D01*
X561023D01*
X561810Y359842D01*
X563384Y359055D02*
Y362204D01*
X564959Y363778D01*
X566533Y362204D01*
Y359055D01*
Y361417D01*
X563384D01*
X762499Y365747D02*
X761712Y366534D01*
X760138D01*
X759350Y365747D01*
Y362598D01*
X760138Y361811D01*
X761712D01*
X762499Y362598D01*
X764073Y361811D02*
Y364960D01*
X765648Y366534D01*
X767222Y364960D01*
Y361811D01*
Y364173D01*
X764073D01*
X562499Y376278D02*
X561712Y377065D01*
X560138D01*
X559350Y376278D01*
Y373130D01*
X560138Y372342D01*
X561712D01*
X562499Y373130D01*
X564073Y377065D02*
Y372342D01*
X566435D01*
X567222Y373130D01*
Y373917D01*
X566435Y374704D01*
X564073D01*
X566435D01*
X567222Y375491D01*
Y376278D01*
X566435Y377065D01*
X564073D01*
X762302Y376377D02*
X761515Y377164D01*
X759941D01*
X759154Y376377D01*
Y373228D01*
X759941Y372441D01*
X761515D01*
X762302Y373228D01*
X763876Y377164D02*
Y372441D01*
X766238D01*
X767025Y373228D01*
Y374015D01*
X766238Y374802D01*
X763876D01*
X766238D01*
X767025Y375589D01*
Y376377D01*
X766238Y377164D01*
X763876D01*
X638779Y369684D02*
Y364961D01*
X641141D01*
X641928Y365748D01*
Y366535D01*
X641141Y367322D01*
X638779D01*
X641141D01*
X641928Y368109D01*
Y368896D01*
X641141Y369684D01*
X638779D01*
X643502D02*
X646651D01*
X645077D01*
Y364961D01*
X839370Y366928D02*
Y362205D01*
X841731D01*
X842519Y362992D01*
Y363779D01*
X841731Y364566D01*
X839370D01*
X841731D01*
X842519Y365353D01*
Y366141D01*
X841731Y366928D01*
X839370D01*
X844093D02*
X847241D01*
X845667D01*
Y362205D01*
X618504Y478345D02*
Y473622D01*
X620865D01*
X621653Y474409D01*
Y475196D01*
X620865Y475983D01*
X618504D01*
X620865D01*
X621653Y476771D01*
Y477558D01*
X620865Y478345D01*
X618504D01*
X626375D02*
X623227D01*
Y475983D01*
X624801D01*
X623227D01*
Y473622D01*
X627950D02*
Y478345D01*
X630311D01*
X631098Y477558D01*
Y475983D01*
X630311Y475196D01*
X627950D01*
X629524D02*
X631098Y473622D01*
X818898Y485825D02*
Y481102D01*
X821259D01*
X822046Y481889D01*
Y482677D01*
X821259Y483464D01*
X818898D01*
X821259D01*
X822046Y484251D01*
Y485038D01*
X821259Y485825D01*
X818898D01*
X826769D02*
X823621D01*
Y483464D01*
X825195D01*
X823621D01*
Y481102D01*
X828343D02*
Y485825D01*
X830705D01*
X831492Y485038D01*
Y483464D01*
X830705Y482677D01*
X828343D01*
X829918D02*
X831492Y481102D01*
X692913Y306888D02*
Y302165D01*
X696062D01*
X697636D02*
Y306888D01*
X699998D01*
X700785Y306101D01*
Y304527D01*
X699998Y303740D01*
X697636D01*
X702359Y306888D02*
Y302165D01*
X704721D01*
X705508Y302953D01*
Y303740D01*
X704721Y304527D01*
X702359D01*
X704721D01*
X705508Y305314D01*
Y306101D01*
X704721Y306888D01*
X702359D01*
X707082D02*
Y302165D01*
Y303740D01*
X710231Y306888D01*
X707869Y304527D01*
X710231Y302165D01*
X534252Y307874D02*
Y312597D01*
X536613D01*
X537401Y311810D01*
Y310236D01*
X536613Y309448D01*
X534252D01*
X535826D02*
X537401Y307874D01*
X542123D02*
X538975D01*
X542123Y311023D01*
Y311810D01*
X541336Y312597D01*
X539762D01*
X538975Y311810D01*
X735039Y303937D02*
Y308660D01*
X737401D01*
X738188Y307873D01*
Y306298D01*
X737401Y305511D01*
X735039D01*
X736614D02*
X738188Y303937D01*
X742911D02*
X739762D01*
X742911Y307086D01*
Y307873D01*
X742124Y308660D01*
X740549D01*
X739762Y307873D01*
X507874Y365158D02*
X503151D01*
Y367519D01*
X503938Y368306D01*
X505513D01*
X506300Y367519D01*
Y365158D01*
Y366732D02*
X507874Y368306D01*
X503151Y373029D02*
X503938Y371455D01*
X505513Y369880D01*
X507087D01*
X507874Y370668D01*
Y372242D01*
X507087Y373029D01*
X506300D01*
X505513Y372242D01*
Y369880D01*
X703740Y365158D02*
X699017D01*
Y367519D01*
X699804Y368306D01*
X701379D01*
X702166Y367519D01*
Y365158D01*
Y366732D02*
X703740Y368306D01*
X699017Y373029D02*
X699804Y371455D01*
X701379Y369880D01*
X702953D01*
X703740Y370668D01*
Y372242D01*
X702953Y373029D01*
X702166D01*
X701379Y372242D01*
Y369880D01*
X638976Y347835D02*
Y352557D01*
X641338D01*
X642125Y351770D01*
Y350196D01*
X641338Y349409D01*
X638976D01*
X640551D02*
X642125Y347835D01*
X643699Y351770D02*
X644486Y352557D01*
X646061D01*
X646848Y351770D01*
Y350983D01*
X646061Y350196D01*
X645274D01*
X646061D01*
X646848Y349409D01*
Y348622D01*
X646061Y347835D01*
X644486D01*
X643699Y348622D01*
X839764Y346654D02*
Y351376D01*
X842125D01*
X842912Y350589D01*
Y349015D01*
X842125Y348228D01*
X839764D01*
X841338D02*
X842912Y346654D01*
X844487Y350589D02*
X845274Y351376D01*
X846848D01*
X847635Y350589D01*
Y349802D01*
X846848Y349015D01*
X846061D01*
X846848D01*
X847635Y348228D01*
Y347441D01*
X846848Y346654D01*
X845274D01*
X844487Y347441D01*
X549213Y339370D02*
X544490D01*
Y341732D01*
X545277Y342519D01*
X546851D01*
X547638Y341732D01*
Y339370D01*
Y340944D02*
X549213Y342519D01*
Y344093D02*
X544490D01*
X549213Y347242D01*
X544490D01*
X549213Y348816D02*
Y350390D01*
Y349603D01*
X544490D01*
X545277Y348816D01*
X738583Y351969D02*
Y356691D01*
X740944D01*
X741731Y355904D01*
Y354330D01*
X740944Y353543D01*
X738583D01*
X740157D02*
X741731Y351969D01*
X743306D02*
Y356691D01*
X746454Y351969D01*
Y356691D01*
X748028Y351969D02*
X749603D01*
X748816D01*
Y356691D01*
X748028Y355904D01*
X638287Y354921D02*
Y359644D01*
X640649D01*
X641436Y358857D01*
Y357283D01*
X640649Y356496D01*
X638287D01*
X639862D02*
X641436Y354921D01*
X643010D02*
Y359644D01*
X646159Y354921D01*
Y359644D01*
X650882Y354921D02*
X647733D01*
X650882Y358070D01*
Y358857D01*
X650095Y359644D01*
X648520D01*
X647733Y358857D01*
X840158Y354724D02*
Y359447D01*
X842519D01*
X843306Y358660D01*
Y357086D01*
X842519Y356299D01*
X840158D01*
X841732D02*
X843306Y354724D01*
X844880D02*
Y359447D01*
X848029Y354724D01*
Y359447D01*
X852752Y354724D02*
X849603D01*
X852752Y357873D01*
Y358660D01*
X851965Y359447D01*
X850390D01*
X849603Y358660D01*
X640650Y435532D02*
X635927D01*
Y437893D01*
X636714Y438680D01*
X638288D01*
X639075Y437893D01*
Y435532D01*
Y437106D02*
X640650Y438680D01*
Y440254D02*
X635927D01*
X640650Y443403D01*
X635927D01*
X636714Y444977D02*
X635927Y445764D01*
Y447339D01*
X636714Y448126D01*
X637501D01*
X638288Y447339D01*
Y446552D01*
Y447339D01*
X639075Y448126D01*
X639862D01*
X640650Y447339D01*
Y445764D01*
X639862Y444977D01*
X841339Y435827D02*
X836616D01*
Y438188D01*
X837403Y438975D01*
X838977D01*
X839764Y438188D01*
Y435827D01*
Y437401D02*
X841339Y438975D01*
Y440550D02*
X836616D01*
X841339Y443698D01*
X836616D01*
X837403Y445272D02*
X836616Y446060D01*
Y447634D01*
X837403Y448421D01*
X838190D01*
X838977Y447634D01*
Y446847D01*
Y447634D01*
X839764Y448421D01*
X840551D01*
X841339Y447634D01*
Y446060D01*
X840551Y445272D01*
X546949Y435728D02*
X542226D01*
Y438090D01*
X543013Y438877D01*
X544587D01*
X545374Y438090D01*
Y435728D01*
Y437303D02*
X546949Y438877D01*
Y440451D02*
X542226D01*
X546949Y443600D01*
X542226D01*
X546949Y447536D02*
X542226D01*
X544587Y445174D01*
Y448323D01*
X747244Y435433D02*
X742521D01*
Y437794D01*
X743308Y438582D01*
X744883D01*
X745670Y437794D01*
Y435433D01*
Y437007D02*
X747244Y438582D01*
Y440156D02*
X742521D01*
X747244Y443304D01*
X742521D01*
X747244Y447240D02*
X742521D01*
X744883Y444879D01*
Y448027D01*
X577560Y393109D02*
Y389173D01*
X578347Y388386D01*
X579921D01*
X580708Y389173D01*
Y393109D01*
X582282Y388386D02*
X583857D01*
X583070D01*
Y393109D01*
X582282Y392321D01*
X777953Y393305D02*
Y389370D01*
X778740Y388583D01*
X780315D01*
X781102Y389370D01*
Y393305D01*
X782676Y388583D02*
X784250D01*
X783463D01*
Y393305D01*
X782676Y392518D01*
X577166Y460825D02*
Y456889D01*
X577953Y456102D01*
X579527D01*
X580314Y456889D01*
Y460825D01*
X585037Y456102D02*
X581889D01*
X585037Y459251D01*
Y460038D01*
X584250Y460825D01*
X582676D01*
X581889Y460038D01*
X777560Y461022D02*
Y457086D01*
X778347Y456299D01*
X779921D01*
X780708Y457086D01*
Y461022D01*
X785431Y456299D02*
X782282D01*
X785431Y459448D01*
Y460235D01*
X784644Y461022D01*
X783070D01*
X782282Y460235D01*
X502756Y321258D02*
X505904Y316535D01*
Y321258D02*
X502756Y316535D01*
X507479D02*
X509053D01*
X508266D01*
Y321258D01*
X507479Y320471D01*
X700000Y408660D02*
X703149Y403937D01*
Y408660D02*
X700000Y403937D01*
X704723D02*
X706297D01*
X705510D01*
Y408660D01*
X704723Y407873D01*
X735039Y313386D02*
Y318109D01*
X737401D01*
X738188Y317322D01*
Y315747D01*
X737401Y314960D01*
X735039D01*
X736614D02*
X738188Y313386D01*
X742124D02*
Y318109D01*
X739762Y315747D01*
X742911D01*
X535039Y314961D02*
Y319684D01*
X537401D01*
X538188Y318896D01*
Y317322D01*
X537401Y316535D01*
X535039D01*
X536614D02*
X538188Y314961D01*
X542124D02*
Y319684D01*
X539762Y317322D01*
X542911D01*
X677953Y460236D02*
Y464959D01*
X680314D01*
X681101Y464172D01*
Y462598D01*
X680314Y461810D01*
X677953D01*
X679527D02*
X681101Y460236D01*
X685824D02*
X682676D01*
X685824Y463385D01*
Y464172D01*
X685037Y464959D01*
X683463D01*
X682676Y464172D01*
X657874Y460236D02*
Y464959D01*
X660236D01*
X661023Y464172D01*
Y462598D01*
X660236Y461810D01*
X657874D01*
X659448D02*
X661023Y460236D01*
X662597D02*
X664171D01*
X663384D01*
Y464959D01*
X662597Y464172D01*
X668110Y464959D02*
X671259D01*
X669685D01*
Y460236D01*
X675982D02*
X672833D01*
X675982Y463385D01*
Y464172D01*
X675195Y464959D01*
X673620D01*
X672833Y464172D01*
X648032Y464959D02*
X651180D01*
X649606D01*
Y460236D01*
X652754D02*
X654329D01*
X653542D01*
Y464959D01*
X652754Y464172D01*
X652854Y307282D02*
Y302559D01*
X656003D01*
X657577D02*
Y307282D01*
X659939D01*
X660726Y306495D01*
Y304921D01*
X659939Y304133D01*
X657577D01*
X665449Y302559D02*
X662300D01*
X665449Y305708D01*
Y306495D01*
X664662Y307282D01*
X663087D01*
X662300Y306495D01*
X667023Y302559D02*
X668597D01*
X667810D01*
Y307282D01*
X667023Y306495D01*
X651968Y330313D02*
Y325590D01*
X655117D01*
X656691D02*
Y330313D01*
X659053D01*
X659840Y329526D01*
Y327952D01*
X659053Y327165D01*
X656691D01*
X661414Y325590D02*
X662989D01*
X662201D01*
Y330313D01*
X661414Y329526D01*
X668499Y325590D02*
X665350D01*
X668499Y328739D01*
Y329526D01*
X667711Y330313D01*
X666137D01*
X665350Y329526D01*
X761614Y465845D02*
X764763D01*
X763189D01*
Y461122D01*
X766337Y465845D02*
Y461122D01*
X768699D01*
X769486Y461909D01*
Y465058D01*
X768699Y465845D01*
X766337D01*
X761614Y459939D02*
X764763D01*
X763189D01*
Y455217D01*
X769486Y459152D02*
X768699Y459939D01*
X767124D01*
X766337Y459152D01*
Y456004D01*
X767124Y455217D01*
X768699D01*
X769486Y456004D01*
X751279Y461024D02*
Y465746D01*
X753641D01*
X754428Y464959D01*
Y463385D01*
X753641Y462598D01*
X751279D01*
X752854D02*
X754428Y461024D01*
X756002Y465746D02*
Y461024D01*
X758364D01*
X759151Y461811D01*
Y464959D01*
X758364Y465746D01*
X756002D01*
X751181Y455118D02*
Y459841D01*
X753543D01*
X754330Y459054D01*
Y457480D01*
X753543Y456692D01*
X751181D01*
X752755D02*
X754330Y455118D01*
X759053Y459054D02*
X758265Y459841D01*
X756691D01*
X755904Y459054D01*
Y455905D01*
X756691Y455118D01*
X758265D01*
X759053Y455905D01*
X740945Y455118D02*
Y459841D01*
X743306D01*
X744094Y459054D01*
Y457480D01*
X743306Y456692D01*
X740945D01*
X742519D02*
X744094Y455118D01*
X748816Y459054D02*
X748029Y459841D01*
X746455D01*
X745668Y459054D01*
Y458267D01*
X746455Y457480D01*
X748029D01*
X748816Y456692D01*
Y455905D01*
X748029Y455118D01*
X746455D01*
X745668Y455905D01*
X740551Y465746D02*
X743700D01*
X742126D01*
Y461024D01*
X748423Y465746D02*
X745274D01*
Y461024D01*
X748423D01*
X745274Y463385D02*
X746848D01*
X731102Y459841D02*
X734251D01*
X732677D01*
Y455118D01*
X735825D02*
Y459841D01*
X738187D01*
X738974Y459054D01*
Y457480D01*
X738187Y456692D01*
X735825D01*
X731102Y461024D02*
Y465746D01*
X733464D01*
X734251Y464959D01*
Y463385D01*
X733464Y462598D01*
X731102D01*
X732677D02*
X734251Y461024D01*
X735825D02*
Y465746D01*
X738187D01*
X738974Y464959D01*
Y463385D01*
X738187Y462598D01*
X735825D01*
X720866Y455118D02*
Y459841D01*
X723228D01*
X724015Y459054D01*
Y457480D01*
X723228Y456692D01*
X720866D01*
X722440D02*
X724015Y455118D01*
X725589Y459841D02*
Y455118D01*
Y457480D01*
X728738D01*
Y459841D01*
Y455118D01*
X720866Y461024D02*
Y465746D01*
X723228D01*
X724015Y464959D01*
Y463385D01*
X723228Y462598D01*
X720866D01*
X722440D02*
X724015Y461024D01*
X725589D02*
Y464172D01*
X727163Y465746D01*
X728738Y464172D01*
Y461024D01*
Y463385D01*
X725589D01*
X710630Y455217D02*
Y459939D01*
X712991D01*
X713778Y459152D01*
Y457578D01*
X712991Y456791D01*
X710630D01*
X715353Y455217D02*
Y458365D01*
X716927Y459939D01*
X718501Y458365D01*
Y455217D01*
Y457578D01*
X715353D01*
X510236Y455217D02*
Y459939D01*
X512598D01*
X513385Y459152D01*
Y457578D01*
X512598Y456791D01*
X510236D01*
X514959Y455217D02*
Y458365D01*
X516533Y459939D01*
X518108Y458365D01*
Y455217D01*
Y457578D01*
X514959D01*
X520472Y461024D02*
Y465746D01*
X522834D01*
X523621Y464959D01*
Y463385D01*
X522834Y462598D01*
X520472D01*
X522047D02*
X523621Y461024D01*
X525195D02*
Y464172D01*
X526770Y465746D01*
X528344Y464172D01*
Y461024D01*
Y463385D01*
X525195D01*
X520472Y455118D02*
Y459841D01*
X522834D01*
X523621Y459054D01*
Y457480D01*
X522834Y456692D01*
X520472D01*
X522047D02*
X523621Y455118D01*
X525195Y459841D02*
Y455118D01*
Y457480D01*
X528344D01*
Y459841D01*
Y455118D01*
X530709Y461024D02*
Y465746D01*
X533070D01*
X533857Y464959D01*
Y463385D01*
X533070Y462598D01*
X530709D01*
X532283D02*
X533857Y461024D01*
X535431D02*
Y465746D01*
X537793D01*
X538580Y464959D01*
Y463385D01*
X537793Y462598D01*
X535431D01*
X530709Y459841D02*
X533857D01*
X532283D01*
Y455118D01*
X535431D02*
Y459841D01*
X537793D01*
X538580Y459054D01*
Y457480D01*
X537793Y456692D01*
X535431D01*
X540158Y465746D02*
X543306D01*
X541732D01*
Y461024D01*
X548029Y465746D02*
X544880D01*
Y461024D01*
X548029D01*
X544880Y463385D02*
X546455D01*
X540551Y455118D02*
Y459841D01*
X542913D01*
X543700Y459054D01*
Y457480D01*
X542913Y456692D01*
X540551D01*
X542126D02*
X543700Y455118D01*
X548423Y459054D02*
X547636Y459841D01*
X546061D01*
X545274Y459054D01*
Y458267D01*
X546061Y457480D01*
X547636D01*
X548423Y456692D01*
Y455905D01*
X547636Y455118D01*
X546061D01*
X545274Y455905D01*
X550787Y455118D02*
Y459841D01*
X553149D01*
X553936Y459054D01*
Y457480D01*
X553149Y456692D01*
X550787D01*
X552362D02*
X553936Y455118D01*
X558659Y459054D02*
X557872Y459841D01*
X556297D01*
X555510Y459054D01*
Y455905D01*
X556297Y455118D01*
X557872D01*
X558659Y455905D01*
X550886Y461024D02*
Y465746D01*
X553247D01*
X554034Y464959D01*
Y463385D01*
X553247Y462598D01*
X550886D01*
X552460D02*
X554034Y461024D01*
X555609Y465746D02*
Y461024D01*
X557970D01*
X558757Y461811D01*
Y464959D01*
X557970Y465746D01*
X555609D01*
X561221Y459939D02*
X564369D01*
X562795D01*
Y455217D01*
X569092Y459152D02*
X568305Y459939D01*
X566730D01*
X565943Y459152D01*
Y456004D01*
X566730Y455217D01*
X568305D01*
X569092Y456004D01*
X561221Y465845D02*
X564369D01*
X562795D01*
Y461122D01*
X565943Y465845D02*
Y461122D01*
X568305D01*
X569092Y461909D01*
Y465058D01*
X568305Y465845D01*
X565943D01*
M02*
