M48
;Layer_Color=9474304
;FILE_FORMAT=4:4
METRIC
;TYPE=PLATED
T1F00S00C0.3500
T2F00S00C0.4000
T3F00S00C0.9100
T4F00S00C3.0000
%
T01
X01431000Y00929500
X01414000Y00949500
X01476000Y00946500
X01485000Y00933500
X01492000Y00916500
X01492000Y00901500
X01524258Y00907242
X01525000Y00919500
X01523000Y00888500
X01525000Y00966000
X01567000Y00959000
X01574250Y00946000
X01580827Y00936046
X01479250Y01013250
X01448000Y01018000
X01373000Y00997000
X01335997Y01052998
X01331250Y01066750
X01330000Y01080000
X01328000Y01095000
X01334000Y01115000
X01332250Y01127750
X01346000Y01133000
X01347000Y01122000
X01345000Y01153000
X01354000Y01154000
X01372000Y01141000
X01617500Y01179500
X01667500Y01167500
X01786000Y01106000
X01837000Y01095500
X01839000Y01080500
X01840250Y01067250
X01844997Y01053498
X01843000Y01115500
X01841250Y01128250
X01855000Y01133500
X01856000Y01122500
X01854000Y01153500
X01863000Y01154500
X01881000Y01141500
X01870500Y00990000
X01923000Y00950000
X01940000Y00930000
X01703476Y00860883
X02001000Y00902000
X02001000Y00917000
X01994000Y00934000
X01985000Y00947000
X02035000Y00966000
X02034000Y00920000
X02033258Y00907742
X02032000Y00889000
X02090000Y00935000
X02089000Y00945000
X02089000Y00956000
X02020000Y01199000
T02
X01230500Y00924500
X01399000Y00896750
X01380500Y00870750
X01455750Y00818000
X01568250Y00905000
X01573750Y00921750
X01580000Y00985000
X01573750Y01031000
X01479250Y01026750
X01453000Y01160750
X01538500Y01179500
X01290000Y01165000
X01290000Y01085000
X01592750Y01049750
X01630500Y00968500
X01612000Y00948500
X01732000Y00920750
X01691000Y00845000
X01665500Y00845000
X01876750Y00876000
X01900750Y00888000
X01964500Y00819075
X01973750Y01010250
X01805000Y01155000
X01731000Y01155000
X01997500Y01165642
X02069000Y01157000
X02094000Y01049000
X02135000Y01054500
X02094000Y00985000
X02112000Y00952750
X02098000Y00915250
X02078750Y00905000
X02099250Y00808750
X02175000Y00876250
X02097000Y01192500
X01587000Y01199000
T03
X01715600Y00780000
X01741000Y00780000
X01230000Y01114600
X01230000Y01140000
X01715600Y00830800
X01741000Y00830800
X01741000Y00805400
X01715600Y00805400
X02037000Y01216000
X02062400Y01216000
X01940800Y01223400
X01915400Y01223400
X01890000Y01223400
X01864600Y01223400
X01839200Y01223400
X01813800Y01223400
X01813800Y01198000
X01839200Y01198000
X01864600Y01198000
X01890000Y01198000
X01915400Y01198000
X01940800Y01198000
X01732400Y01198000
X01732400Y01223400
X01707000Y01223400
X01707000Y01198000
X01681600Y01198000
X01681600Y01223400
X01656200Y01223400
X01656200Y01198000
X01553400Y01215500
X01528000Y01215500
X01431800Y01222900
X01406400Y01222900
X01381000Y01222900
X01355600Y01222900
X01330200Y01222900
X01304800Y01222900
X01304800Y01197500
X01330200Y01197500
X01355600Y01197500
X01381000Y01197500
X01406400Y01197500
X01431800Y01197500
T04
X02160000Y00790000
X01240000Y00790000
X02160000Y01210000
X01240000Y01210000
M30
