%FSLAX25Y25*%
%MOIN*%
G70*
G01*
G75*
G04 Layer_Color=32896*
%ADD10R,0.03937X0.03150*%
%ADD11R,0.02756X0.02559*%
%ADD12R,0.02756X0.01969*%
%ADD13R,0.02559X0.02756*%
%ADD14R,0.01969X0.02756*%
%ADD15R,0.05118X0.03543*%
%ADD16R,0.03543X0.05118*%
%ADD17R,0.04921X0.05906*%
%ADD18R,0.05906X0.04921*%
%ADD19O,0.11221X0.02362*%
%ADD20O,0.09843X0.02362*%
%ADD21R,0.08268X0.22047*%
%ADD22R,0.02362X0.05512*%
%ADD23C,0.02362*%
%ADD24C,0.01969*%
%ADD25C,0.01000*%
%ADD26C,0.01181*%
%ADD27C,0.19685*%
%ADD28R,0.05906X0.08268*%
%ADD29O,0.05906X0.08268*%
%ADD30R,0.08268X0.05906*%
%ADD31O,0.08268X0.05906*%
%ADD32C,0.02756*%
%ADD33C,0.03150*%
%ADD34C,0.02165*%
%ADD35C,0.00984*%
%ADD36C,0.00787*%
%ADD37R,0.04724X0.03937*%
%ADD38R,0.03543X0.03347*%
%ADD39R,0.03543X0.02756*%
%ADD40R,0.03347X0.03543*%
%ADD41R,0.02756X0.03543*%
%ADD42R,0.05906X0.04331*%
%ADD43R,0.04331X0.05906*%
%ADD44R,0.05709X0.06693*%
%ADD45R,0.06693X0.05709*%
%ADD46O,0.12008X0.03150*%
%ADD47O,0.10630X0.03150*%
%ADD48R,0.09055X0.22835*%
%ADD49C,0.20472*%
%ADD50R,0.06693X0.09055*%
%ADD51O,0.06693X0.09055*%
%ADD52R,0.09055X0.06693*%
%ADD53O,0.09055X0.06693*%
%ADD54C,0.03543*%
%ADD55C,0.03937*%
D35*
X707874Y411417D02*
Y416927D01*
X704201Y411417D01*
Y416927D01*
X701446Y411417D02*
X699609D01*
X698691Y412336D01*
Y414172D01*
X699609Y415091D01*
X701446D01*
X702364Y414172D01*
Y412336D01*
X701446Y411417D01*
X696854Y415091D02*
Y411417D01*
Y413254D01*
X695936Y414172D01*
X695017Y415091D01*
X694099D01*
X691344Y411417D02*
Y415091D01*
X690426D01*
X689507Y414172D01*
Y411417D01*
Y414172D01*
X688589Y415091D01*
X687671Y414172D01*
Y411417D01*
X684916Y415091D02*
X683079D01*
X682161Y414172D01*
Y411417D01*
X684916D01*
X685834Y412336D01*
X684916Y413254D01*
X682161D01*
X680324Y411417D02*
X678487D01*
X679405D01*
Y416927D01*
X680324D01*
X675732Y411417D02*
X673896D01*
X674814D01*
Y416927D01*
X675732D01*
X671140Y415091D02*
Y412336D01*
X670222Y411417D01*
X667467D01*
Y410499D01*
X668386Y409581D01*
X669304D01*
X667467Y411417D02*
Y415091D01*
X660120Y411417D02*
X658284D01*
X659202D01*
Y416927D01*
X660120D01*
X654610Y411417D02*
X652774D01*
X651855Y412336D01*
Y414172D01*
X652774Y415091D01*
X654610D01*
X655529Y414172D01*
Y412336D01*
X654610Y411417D01*
X650019Y415091D02*
Y412336D01*
X649100Y411417D01*
X648182Y412336D01*
X647264Y411417D01*
X646345Y412336D01*
Y415091D01*
X644509Y411417D02*
Y412336D01*
X643590D01*
Y411417D01*
X644509D01*
X707677Y425195D02*
Y419685D01*
X704922D01*
X704004Y420603D01*
Y421522D01*
X704922Y422440D01*
X707677D01*
X704922D01*
X704004Y423358D01*
Y424277D01*
X704922Y425195D01*
X707677D01*
X698494D02*
X702167D01*
Y422440D01*
X700330D01*
X702167D01*
Y419685D01*
X696657D02*
Y425195D01*
X693902D01*
X692984Y424277D01*
Y422440D01*
X693902Y421522D01*
X696657D01*
X694820D02*
X692984Y419685D01*
X691147Y422440D02*
X687474D01*
X680127Y419685D02*
Y425195D01*
X677372D01*
X676454Y424277D01*
Y422440D01*
X677372Y421522D01*
X680127D01*
X674617Y423358D02*
Y420603D01*
X673699Y419685D01*
X670944D01*
Y423358D01*
X669107Y419685D02*
X667270D01*
X668189D01*
Y425195D01*
X669107D01*
X664515Y419685D02*
X662679D01*
X663597D01*
Y425195D01*
X664515D01*
X654414D02*
Y419685D01*
Y422440D01*
X653495Y423358D01*
X651658D01*
X650740Y422440D01*
Y419685D01*
X648904D02*
X647067D01*
X647985D01*
Y423358D01*
X648904D01*
X642475Y417848D02*
X641557D01*
X640638Y418767D01*
Y423358D01*
X643394D01*
X644312Y422440D01*
Y420603D01*
X643394Y419685D01*
X640638D01*
X638802Y425195D02*
Y419685D01*
Y422440D01*
X637884Y423358D01*
X636047D01*
X635128Y422440D01*
Y419685D01*
X626863Y424277D02*
Y423358D01*
X627782D01*
X625945D01*
X626863D01*
Y420603D01*
X625945Y419685D01*
X622272D02*
X620435D01*
X619517Y420603D01*
Y422440D01*
X620435Y423358D01*
X622272D01*
X623190Y422440D01*
Y420603D01*
X622272Y419685D01*
X608497Y425195D02*
Y419685D01*
X611252D01*
X612170Y420603D01*
Y422440D01*
X611252Y423358D01*
X608497D01*
X606660Y419685D02*
X604823D01*
X605742D01*
Y423358D01*
X606660D01*
X602068Y419685D02*
X599313D01*
X598395Y420603D01*
X599313Y421522D01*
X601150D01*
X602068Y422440D01*
X601150Y423358D01*
X598395D01*
X595640D02*
X593803D01*
X592885Y422440D01*
Y419685D01*
X595640D01*
X596558Y420603D01*
X595640Y421522D01*
X592885D01*
X591048Y425195D02*
Y419685D01*
X588293D01*
X587375Y420603D01*
Y421522D01*
Y422440D01*
X588293Y423358D01*
X591048D01*
X585538Y419685D02*
X583702D01*
X584620D01*
Y425195D01*
X585538D01*
X578192Y419685D02*
X580028D01*
X580946Y420603D01*
Y422440D01*
X580028Y423358D01*
X578192D01*
X577273Y422440D01*
Y421522D01*
X580946D01*
X569926Y425195D02*
Y419685D01*
X567171D01*
X566253Y420603D01*
Y421522D01*
Y422440D01*
X567171Y423358D01*
X569926D01*
X564416D02*
Y420603D01*
X563498Y419685D01*
X560743D01*
Y423358D01*
X557988Y419685D02*
Y424277D01*
Y422440D01*
X558906D01*
X557070D01*
X557988D01*
Y424277D01*
X557070Y425195D01*
X553396Y419685D02*
Y424277D01*
Y422440D01*
X554315D01*
X552478D01*
X553396D01*
Y424277D01*
X552478Y425195D01*
X546968Y419685D02*
X548805D01*
X549723Y420603D01*
Y422440D01*
X548805Y423358D01*
X546968D01*
X546050Y422440D01*
Y421522D01*
X549723D01*
X544213Y423358D02*
Y419685D01*
Y421522D01*
X543295Y422440D01*
X542376Y423358D01*
X541458D01*
X538703Y419685D02*
X535948D01*
X535030Y420603D01*
X535948Y421522D01*
X537785D01*
X538703Y422440D01*
X537785Y423358D01*
X535030D01*
X533193Y419685D02*
Y420603D01*
X532275D01*
Y419685D01*
X533193D01*
X854823Y460234D02*
Y454331D01*
Y457282D01*
X850887D01*
Y460234D01*
Y454331D01*
X845967D02*
X847935D01*
X848919Y455315D01*
Y457282D01*
X847935Y458266D01*
X845967D01*
X844983Y457282D01*
Y456299D01*
X848919D01*
X842032Y458266D02*
X840064D01*
X839080Y457282D01*
Y454331D01*
X842032D01*
X843016Y455315D01*
X842032Y456299D01*
X839080D01*
X833176Y460234D02*
Y454331D01*
X836128D01*
X837112Y455315D01*
Y457282D01*
X836128Y458266D01*
X833176D01*
X828257Y454331D02*
X830225D01*
X831208Y455315D01*
Y457282D01*
X830225Y458266D01*
X828257D01*
X827273Y457282D01*
Y456299D01*
X831208D01*
X825305Y458266D02*
Y454331D01*
Y456299D01*
X824321Y457282D01*
X823337Y458266D01*
X822353D01*
X813498Y454331D02*
Y460234D01*
X810546D01*
X809562Y459250D01*
Y457282D01*
X810546Y456299D01*
X813498D01*
X807594Y454331D02*
X805626D01*
X806610D01*
Y458266D01*
X807594D01*
X802674Y454331D02*
Y458266D01*
X799723D01*
X798739Y457282D01*
Y454331D01*
X790867D02*
Y460234D01*
X788899Y458266D01*
X786931Y460234D01*
Y454331D01*
X783980Y458266D02*
X782012D01*
X781028Y457282D01*
Y454331D01*
X783980D01*
X784964Y455315D01*
X783980Y456299D01*
X781028D01*
X779060Y452363D02*
Y458266D01*
X776108D01*
X775124Y457282D01*
Y455315D01*
X776108Y454331D01*
X779060D01*
X773156Y452363D02*
Y458266D01*
X770205D01*
X769221Y457282D01*
Y455315D01*
X770205Y454331D01*
X773156D01*
X767253D02*
X765285D01*
X766269D01*
Y458266D01*
X767253D01*
X762333Y454331D02*
Y458266D01*
X759381D01*
X758397Y457282D01*
Y454331D01*
X754462Y452363D02*
X753478D01*
X752494Y453347D01*
Y458266D01*
X755446D01*
X756429Y457282D01*
Y455315D01*
X755446Y454331D01*
X752494D01*
X750526D02*
X747574D01*
X746590Y455315D01*
X747574Y456299D01*
X749542D01*
X750526Y457282D01*
X749542Y458266D01*
X746590D01*
X854724Y443898D02*
Y449408D01*
X851969D01*
X851051Y448489D01*
Y446653D01*
X851969Y445734D01*
X854724D01*
X852888D02*
X851051Y443898D01*
X849214D02*
Y447571D01*
X847378Y449408D01*
X845541Y447571D01*
Y443898D01*
Y446653D01*
X849214D01*
X838194D02*
X834521D01*
X827174Y443898D02*
Y449408D01*
X824419D01*
X823501Y448489D01*
Y446653D01*
X824419Y445734D01*
X827174D01*
X825338D02*
X823501Y443898D01*
X821664Y449408D02*
X817991Y443898D01*
Y449408D02*
X821664Y443898D01*
X810644D02*
Y447571D01*
X808807Y449408D01*
X806971Y447571D01*
Y443898D01*
Y446653D01*
X810644D01*
X801461Y447571D02*
X804216D01*
X805134Y446653D01*
Y444816D01*
X804216Y443898D01*
X801461D01*
X795951Y442061D02*
Y447571D01*
X798706D01*
X799624Y446653D01*
Y444816D01*
X798706Y443898D01*
X795951D01*
X794114Y447571D02*
Y444816D01*
X793196Y443898D01*
X790441D01*
Y447571D01*
X788604Y443898D02*
X786767D01*
X787686D01*
Y447571D01*
X788604D01*
X784012D02*
Y443898D01*
Y445734D01*
X783094Y446653D01*
X782176Y447571D01*
X781257D01*
X775747Y443898D02*
X777584D01*
X778502Y444816D01*
Y446653D01*
X777584Y447571D01*
X775747D01*
X774829Y446653D01*
Y445734D01*
X778502D01*
X854724Y433660D02*
X851051D01*
X852888D01*
Y428150D01*
X845541Y433660D02*
X849214D01*
Y428150D01*
X845541D01*
X849214Y430905D02*
X847378D01*
X838194D02*
X834521D01*
X827174Y433660D02*
X823501D01*
X825338D01*
Y428150D01*
X821664Y433660D02*
X817991Y428150D01*
Y433660D02*
X821664Y428150D01*
X806971Y433660D02*
X810644D01*
Y428150D01*
X806971D01*
X810644Y430905D02*
X808807D01*
X805134Y428150D02*
Y431823D01*
X802379D01*
X801461Y430905D01*
Y428150D01*
X798706Y431823D02*
X796869D01*
X795951Y430905D01*
Y428150D01*
X798706D01*
X799624Y429068D01*
X798706Y429986D01*
X795951D01*
X794114Y433660D02*
Y428150D01*
X791359D01*
X790441Y429068D01*
Y429986D01*
Y430905D01*
X791359Y431823D01*
X794114D01*
X788604Y428150D02*
X786767D01*
X787686D01*
Y433660D01*
X788604D01*
X781257Y428150D02*
X783094D01*
X784012Y429068D01*
Y430905D01*
X783094Y431823D01*
X781257D01*
X780339Y430905D01*
Y429986D01*
X784012D01*
X854823Y410038D02*
X851149D01*
X852986D01*
Y404528D01*
X849313Y410038D02*
Y404528D01*
X846558D01*
X845640Y405446D01*
Y409119D01*
X846558Y410038D01*
X849313D01*
X838293Y407283D02*
X834619D01*
X827273Y410038D02*
X823599D01*
X825436D01*
Y404528D01*
X821763Y410038D02*
X818089Y404528D01*
Y410038D02*
X821763Y404528D01*
X810743Y410038D02*
Y404528D01*
X807988D01*
X807069Y405446D01*
Y409119D01*
X807988Y410038D01*
X810743D01*
X804314Y408201D02*
X802478D01*
X801559Y407283D01*
Y404528D01*
X804314D01*
X805233Y405446D01*
X804314Y406364D01*
X801559D01*
X798804Y409119D02*
Y408201D01*
X799722D01*
X797886D01*
X798804D01*
Y405446D01*
X797886Y404528D01*
X794212Y408201D02*
X792376D01*
X791458Y407283D01*
Y404528D01*
X794212D01*
X795131Y405446D01*
X794212Y406364D01*
X791458D01*
X854724Y412402D02*
Y417912D01*
X851969D01*
X851051Y416993D01*
Y415157D01*
X851969Y414238D01*
X854724D01*
X852888D02*
X851051Y412402D01*
X849214Y417912D02*
X845541Y412402D01*
Y417912D02*
X849214Y412402D01*
X838194Y415157D02*
X834521D01*
X827174Y412402D02*
Y417912D01*
X824419D01*
X823501Y416993D01*
Y415157D01*
X824419Y414238D01*
X827174D01*
X825338D02*
X823501Y412402D01*
X821664Y417912D02*
X817991Y412402D01*
Y417912D02*
X821664Y412402D01*
X810644Y417912D02*
Y412402D01*
Y415157D01*
X806971D01*
Y417912D01*
Y412402D01*
X804216D02*
X802379D01*
X801461Y413320D01*
Y415157D01*
X802379Y416075D01*
X804216D01*
X805134Y415157D01*
Y413320D01*
X804216Y412402D01*
X799624D02*
X797787D01*
X798706D01*
Y417912D01*
X799624D01*
X791359D02*
Y412402D01*
X794114D01*
X795032Y413320D01*
Y415157D01*
X794114Y416075D01*
X791359D01*
X854724Y420276D02*
Y425786D01*
X851969D01*
X851051Y424867D01*
Y423031D01*
X851969Y422112D01*
X854724D01*
X849214Y420276D02*
Y423949D01*
X847378Y425786D01*
X845541Y423949D01*
Y420276D01*
Y423031D01*
X849214D01*
X838194D02*
X834521D01*
X827174Y420276D02*
Y425786D01*
X824419D01*
X823501Y424867D01*
Y423031D01*
X824419Y422112D01*
X827174D01*
X821664Y425786D02*
Y420276D01*
X817991D01*
X816154Y425786D02*
Y420276D01*
X812481D01*
X805134D02*
Y423949D01*
X803298Y425786D01*
X801461Y423949D01*
Y420276D01*
Y423031D01*
X805134D01*
X795951Y423949D02*
X798706D01*
X799624Y423031D01*
Y421194D01*
X798706Y420276D01*
X795951D01*
X790441Y418439D02*
Y423949D01*
X793196D01*
X794114Y423031D01*
Y421194D01*
X793196Y420276D01*
X790441D01*
X788604Y423949D02*
Y421194D01*
X787686Y420276D01*
X784931D01*
Y423949D01*
X783094Y420276D02*
X781257D01*
X782176D01*
Y423949D01*
X783094D01*
X778502D02*
Y420276D01*
Y422112D01*
X777584Y423031D01*
X776666Y423949D01*
X775747D01*
X770237Y420276D02*
X772074D01*
X772992Y421194D01*
Y423031D01*
X772074Y423949D01*
X770237D01*
X769319Y423031D01*
Y422112D01*
X772992D01*
X854724Y436024D02*
Y441534D01*
X851969D01*
X851051Y440615D01*
Y438779D01*
X851969Y437860D01*
X854724D01*
X852888D02*
X851051Y436024D01*
X845541Y440615D02*
X846459Y441534D01*
X848296D01*
X849214Y440615D01*
Y439697D01*
X848296Y438779D01*
X846459D01*
X845541Y437860D01*
Y436942D01*
X846459Y436024D01*
X848296D01*
X849214Y436942D01*
X838194Y438779D02*
X834521D01*
X827174Y436024D02*
Y441534D01*
X824419D01*
X823501Y440615D01*
Y438779D01*
X824419Y437860D01*
X827174D01*
X825338D02*
X823501Y436024D01*
X821664Y441534D02*
X817991Y436024D01*
Y441534D02*
X821664Y436024D01*
X806971Y440615D02*
X807889Y441534D01*
X809726D01*
X810644Y440615D01*
Y439697D01*
X809726Y438779D01*
X807889D01*
X806971Y437860D01*
Y436942D01*
X807889Y436024D01*
X809726D01*
X810644Y436942D01*
X805134Y436024D02*
X801461Y439697D01*
X799624Y436024D02*
Y441534D01*
X795951Y436024D01*
Y441534D01*
X854724Y362793D02*
X851051D01*
X852888D01*
Y357283D01*
X849214D02*
X847378D01*
X848296D01*
Y362793D01*
X849214Y361875D01*
X839113Y360038D02*
X835439D01*
X828093Y357283D02*
Y360957D01*
X826256Y362793D01*
X824419Y360957D01*
Y357283D01*
Y360038D01*
X828093D01*
X822583Y357283D02*
Y360957D01*
X819828D01*
X818909Y360038D01*
Y357283D01*
X816154Y360957D02*
X814318D01*
X813399Y360038D01*
Y357283D01*
X816154D01*
X817072Y358202D01*
X816154Y359120D01*
X813399D01*
X811563Y357283D02*
X809726D01*
X810644D01*
Y362793D01*
X811563D01*
X806052Y357283D02*
X804216D01*
X803298Y358202D01*
Y360038D01*
X804216Y360957D01*
X806052D01*
X806971Y360038D01*
Y358202D01*
X806052Y357283D01*
X799624Y355447D02*
X798706D01*
X797787Y356365D01*
Y360957D01*
X800543D01*
X801461Y360038D01*
Y358202D01*
X800543Y357283D01*
X797787D01*
X790441Y362793D02*
X786767D01*
X788604D01*
Y357283D01*
X784931Y362793D02*
X781257Y357283D01*
Y362793D02*
X784931Y357283D01*
X771156Y362793D02*
X772992D01*
X773911Y361875D01*
Y358202D01*
X772992Y357283D01*
X771156D01*
X770237Y358202D01*
Y361875D01*
X771156Y362793D01*
X768401Y360957D02*
Y358202D01*
X767482Y357283D01*
X764727D01*
Y360957D01*
X761972Y361875D02*
Y360957D01*
X762891D01*
X761054D01*
X761972D01*
Y358202D01*
X761054Y357283D01*
X751870D02*
Y361875D01*
Y360038D01*
X752789D01*
X750952D01*
X751870D01*
Y361875D01*
X750952Y362793D01*
X747279Y357283D02*
X745442D01*
X744524Y358202D01*
Y360038D01*
X745442Y360957D01*
X747279D01*
X748197Y360038D01*
Y358202D01*
X747279Y357283D01*
X742687Y360957D02*
Y357283D01*
Y359120D01*
X741769Y360038D01*
X740850Y360957D01*
X739932D01*
X731667Y357283D02*
Y362793D01*
X729830Y360957D01*
X727994Y362793D01*
Y357283D01*
X725239D02*
X723402D01*
X722484Y358202D01*
Y360038D01*
X723402Y360957D01*
X725239D01*
X726157Y360038D01*
Y358202D01*
X725239Y357283D01*
X716974Y362793D02*
Y357283D01*
X719729D01*
X720647Y358202D01*
Y360038D01*
X719729Y360957D01*
X716974D01*
X712382Y357283D02*
X714219D01*
X715137Y358202D01*
Y360038D01*
X714219Y360957D01*
X712382D01*
X711464Y360038D01*
Y359120D01*
X715137D01*
X709627Y357283D02*
Y360957D01*
X708709D01*
X707790Y360038D01*
Y357283D01*
Y360038D01*
X706872Y360957D01*
X705954Y360038D01*
Y357283D01*
X698607D02*
X696770D01*
X697689D01*
Y362793D01*
X698607Y361875D01*
X854724Y388779D02*
Y394290D01*
X851969D01*
X851051Y393371D01*
Y391534D01*
X851969Y390616D01*
X854724D01*
X852888D02*
X851051Y388779D01*
X849214Y394290D02*
Y388779D01*
X846459D01*
X845541Y389698D01*
Y393371D01*
X846459Y394290D01*
X849214D01*
X838194Y391534D02*
X834521D01*
X827174Y388779D02*
Y394290D01*
X824419D01*
X823501Y393371D01*
Y391534D01*
X824419Y390616D01*
X827174D01*
X825338D02*
X823501Y388779D01*
X821664Y394290D02*
X817991Y388779D01*
Y394290D02*
X821664Y388779D01*
X810644Y394290D02*
Y388779D01*
X807889D01*
X806971Y389698D01*
Y393371D01*
X807889Y394290D01*
X810644D01*
X804216Y392453D02*
X802379D01*
X801461Y391534D01*
Y388779D01*
X804216D01*
X805134Y389698D01*
X804216Y390616D01*
X801461D01*
X798706Y393371D02*
Y392453D01*
X799624D01*
X797787D01*
X798706D01*
Y389698D01*
X797787Y388779D01*
X794114Y392453D02*
X792277D01*
X791359Y391534D01*
Y388779D01*
X794114D01*
X795032Y389698D01*
X794114Y390616D01*
X791359D01*
X854724Y402164D02*
X851051D01*
X852888D01*
Y396654D01*
X845541Y401245D02*
X846459Y402164D01*
X848296D01*
X849214Y401245D01*
Y397572D01*
X848296Y396654D01*
X846459D01*
X845541Y397572D01*
X838194Y399409D02*
X834521D01*
X827174Y402164D02*
X823501D01*
X825338D01*
Y396654D01*
X821664Y402164D02*
X817991Y396654D01*
Y402164D02*
X821664Y396654D01*
X806971Y401245D02*
X807889Y402164D01*
X809726D01*
X810644Y401245D01*
Y397572D01*
X809726Y396654D01*
X807889D01*
X806971Y397572D01*
X805134Y396654D02*
X803298D01*
X804216D01*
Y402164D01*
X805134D01*
X799624Y396654D02*
X797787D01*
X796869Y397572D01*
Y399409D01*
X797787Y400327D01*
X799624D01*
X800543Y399409D01*
Y397572D01*
X799624Y396654D01*
X791359Y400327D02*
X794114D01*
X795032Y399409D01*
Y397572D01*
X794114Y396654D01*
X791359D01*
X789522D02*
Y402164D01*
Y398490D02*
X786767Y400327D01*
X789522Y398490D02*
X786767Y396654D01*
X854724Y373031D02*
Y378541D01*
X851969D01*
X851051Y377623D01*
Y375786D01*
X851969Y374868D01*
X854724D01*
X852888D02*
X851051Y373031D01*
X849214D02*
Y378541D01*
X846459D01*
X845541Y377623D01*
Y375786D01*
X846459Y374868D01*
X849214D01*
X838194Y375786D02*
X834521D01*
X827174Y373031D02*
Y378541D01*
X824419D01*
X823501Y377623D01*
Y375786D01*
X824419Y374868D01*
X827174D01*
X825338D02*
X823501Y373031D01*
X821664Y378541D02*
X817991Y373031D01*
Y378541D02*
X821664Y373031D01*
X810644D02*
Y378541D01*
X807889D01*
X806971Y377623D01*
Y375786D01*
X807889Y374868D01*
X810644D01*
X804216Y373031D02*
X802379D01*
X801461Y373950D01*
Y375786D01*
X802379Y376705D01*
X804216D01*
X805134Y375786D01*
Y373950D01*
X804216Y373031D01*
X799624Y376705D02*
Y373950D01*
X798706Y373031D01*
X797787Y373950D01*
X796869Y373031D01*
X795951Y373950D01*
Y376705D01*
X791359Y373031D02*
X793196D01*
X794114Y373950D01*
Y375786D01*
X793196Y376705D01*
X791359D01*
X790441Y375786D01*
Y374868D01*
X794114D01*
X788604Y376705D02*
Y373031D01*
Y374868D01*
X787686Y375786D01*
X786767Y376705D01*
X785849D01*
X773911Y377623D02*
X774829Y378541D01*
X776666D01*
X777584Y377623D01*
Y376705D01*
X776666Y375786D01*
X774829D01*
X773911Y374868D01*
Y373950D01*
X774829Y373031D01*
X776666D01*
X777584Y373950D01*
X771156Y376705D02*
X769319D01*
X768401Y375786D01*
Y373031D01*
X771156D01*
X772074Y373950D01*
X771156Y374868D01*
X768401D01*
X766564Y376705D02*
X764727Y373031D01*
X762891Y376705D01*
X758299Y373031D02*
X760136D01*
X761054Y373950D01*
Y375786D01*
X760136Y376705D01*
X758299D01*
X757381Y375786D01*
Y374868D01*
X761054D01*
X854724Y370668D02*
X851051D01*
X852888D01*
Y365158D01*
X849214D02*
Y370668D01*
X846459D01*
X845541Y369749D01*
Y367913D01*
X846459Y366994D01*
X849214D01*
X838194Y367913D02*
X834521D01*
X827174Y370668D02*
X823501D01*
X825338D01*
Y365158D01*
X821664Y370668D02*
X817991Y365158D01*
Y370668D02*
X821664Y365158D01*
X810644D02*
Y370668D01*
X807889D01*
X806971Y369749D01*
Y367913D01*
X807889Y366994D01*
X810644D01*
X804216Y365158D02*
X802379D01*
X801461Y366076D01*
Y367913D01*
X802379Y368831D01*
X804216D01*
X805134Y367913D01*
Y366076D01*
X804216Y365158D01*
X799624Y368831D02*
Y366076D01*
X798706Y365158D01*
X797787Y366076D01*
X796869Y365158D01*
X795951Y366076D01*
Y368831D01*
X791359Y365158D02*
X793196D01*
X794114Y366076D01*
Y367913D01*
X793196Y368831D01*
X791359D01*
X790441Y367913D01*
Y366994D01*
X794114D01*
X788604Y368831D02*
Y365158D01*
Y366994D01*
X787686Y367913D01*
X786767Y368831D01*
X785849D01*
X773911Y369749D02*
X774829Y370668D01*
X776666D01*
X777584Y369749D01*
Y368831D01*
X776666Y367913D01*
X774829D01*
X773911Y366994D01*
Y366076D01*
X774829Y365158D01*
X776666D01*
X777584Y366076D01*
X771156Y368831D02*
X769319D01*
X768401Y367913D01*
Y365158D01*
X771156D01*
X772074Y366076D01*
X771156Y366994D01*
X768401D01*
X766564Y368831D02*
X764727Y365158D01*
X762891Y368831D01*
X758299Y365158D02*
X760136D01*
X761054Y366076D01*
Y367913D01*
X760136Y368831D01*
X758299D01*
X757381Y367913D01*
Y366994D01*
X761054D01*
X854724Y380906D02*
Y386416D01*
X851969D01*
X851051Y385497D01*
Y383661D01*
X851969Y382742D01*
X854724D01*
X852888D02*
X851051Y380906D01*
X845541Y385497D02*
X846459Y386416D01*
X848296D01*
X849214Y385497D01*
Y381824D01*
X848296Y380906D01*
X846459D01*
X845541Y381824D01*
X838194Y383661D02*
X834521D01*
X827174Y380906D02*
Y386416D01*
X824419D01*
X823501Y385497D01*
Y383661D01*
X824419Y382742D01*
X827174D01*
X825338D02*
X823501Y380906D01*
X821664Y386416D02*
X817991Y380906D01*
Y386416D02*
X821664Y380906D01*
X806971Y385497D02*
X807889Y386416D01*
X809726D01*
X810644Y385497D01*
Y381824D01*
X809726Y380906D01*
X807889D01*
X806971Y381824D01*
X805134Y380906D02*
X803298D01*
X804216D01*
Y386416D01*
X805134D01*
X799624Y380906D02*
X797787D01*
X796869Y381824D01*
Y383661D01*
X797787Y384579D01*
X799624D01*
X800543Y383661D01*
Y381824D01*
X799624Y380906D01*
X791359Y384579D02*
X794114D01*
X795032Y383661D01*
Y381824D01*
X794114Y380906D01*
X791359D01*
X789522D02*
Y386416D01*
Y382742D02*
X786767Y384579D01*
X789522Y382742D02*
X786767Y380906D01*
X854724Y354920D02*
X851051D01*
X852888D01*
Y349409D01*
X845541D02*
X849214D01*
X845541Y353083D01*
Y354001D01*
X846459Y354920D01*
X848296D01*
X849214Y354001D01*
X838194Y352164D02*
X834521D01*
X827174Y349409D02*
Y353083D01*
X825338Y354920D01*
X823501Y353083D01*
Y349409D01*
Y352164D01*
X827174D01*
X821664Y349409D02*
Y353083D01*
X818909D01*
X817991Y352164D01*
Y349409D01*
X815236Y353083D02*
X813399D01*
X812481Y352164D01*
Y349409D01*
X815236D01*
X816154Y350328D01*
X815236Y351246D01*
X812481D01*
X810644Y349409D02*
X808807D01*
X809726D01*
Y354920D01*
X810644D01*
X805134Y349409D02*
X803298D01*
X802379Y350328D01*
Y352164D01*
X803298Y353083D01*
X805134D01*
X806052Y352164D01*
Y350328D01*
X805134Y349409D01*
X798706Y347573D02*
X797787D01*
X796869Y348491D01*
Y353083D01*
X799624D01*
X800543Y352164D01*
Y350328D01*
X799624Y349409D01*
X796869D01*
X789522Y354920D02*
X785849D01*
X787686D01*
Y349409D01*
X784012Y354920D02*
X780339Y349409D01*
Y354920D02*
X784012Y349409D01*
X770237Y354920D02*
X772074D01*
X772992Y354001D01*
Y350328D01*
X772074Y349409D01*
X770237D01*
X769319Y350328D01*
Y354001D01*
X770237Y354920D01*
X767482Y353083D02*
Y350328D01*
X766564Y349409D01*
X763809D01*
Y353083D01*
X761054Y354001D02*
Y353083D01*
X761972D01*
X760136D01*
X761054D01*
Y350328D01*
X760136Y349409D01*
X750952D02*
Y354001D01*
Y352164D01*
X751870D01*
X750034D01*
X750952D01*
Y354001D01*
X750034Y354920D01*
X746360Y349409D02*
X744524D01*
X743606Y350328D01*
Y352164D01*
X744524Y353083D01*
X746360D01*
X747279Y352164D01*
Y350328D01*
X746360Y349409D01*
X741769Y353083D02*
Y349409D01*
Y351246D01*
X740850Y352164D01*
X739932Y353083D01*
X739014D01*
X730749Y349409D02*
Y354920D01*
X728912Y353083D01*
X727075Y354920D01*
Y349409D01*
X724320D02*
X722484D01*
X721565Y350328D01*
Y352164D01*
X722484Y353083D01*
X724320D01*
X725239Y352164D01*
Y350328D01*
X724320Y349409D01*
X716055Y354920D02*
Y349409D01*
X718810D01*
X719729Y350328D01*
Y352164D01*
X718810Y353083D01*
X716055D01*
X711464Y349409D02*
X713300D01*
X714219Y350328D01*
Y352164D01*
X713300Y353083D01*
X711464D01*
X710545Y352164D01*
Y351246D01*
X714219D01*
X708709Y349409D02*
Y353083D01*
X707790D01*
X706872Y352164D01*
Y349409D01*
Y352164D01*
X705954Y353083D01*
X705035Y352164D01*
Y349409D01*
X694015D02*
X697689D01*
X694015Y353083D01*
Y354001D01*
X694934Y354920D01*
X696770D01*
X697689Y354001D01*
X854724Y341535D02*
Y347045D01*
X851969D01*
X851051Y346127D01*
Y344290D01*
X851969Y343372D01*
X854724D01*
X852888D02*
X851051Y341535D01*
X849214D02*
X847378D01*
X848296D01*
Y347045D01*
X849214Y346127D01*
X839113Y344290D02*
X835439D01*
X828093Y341535D02*
Y345209D01*
X826256Y347045D01*
X824419Y345209D01*
Y341535D01*
Y344290D01*
X828093D01*
X822583Y341535D02*
Y345209D01*
X819828D01*
X818909Y344290D01*
Y341535D01*
X816154Y345209D02*
X814318D01*
X813399Y344290D01*
Y341535D01*
X816154D01*
X817072Y342454D01*
X816154Y343372D01*
X813399D01*
X811563Y341535D02*
X809726D01*
X810644D01*
Y347045D01*
X811563D01*
X806052Y341535D02*
X804216D01*
X803298Y342454D01*
Y344290D01*
X804216Y345209D01*
X806052D01*
X806971Y344290D01*
Y342454D01*
X806052Y341535D01*
X799624Y339699D02*
X798706D01*
X797787Y340617D01*
Y345209D01*
X800543D01*
X801461Y344290D01*
Y342454D01*
X800543Y341535D01*
X797787D01*
X790441D02*
Y347045D01*
X787686D01*
X786767Y346127D01*
Y344290D01*
X787686Y343372D01*
X790441D01*
X788604D02*
X786767Y341535D01*
X784931Y347045D02*
X781257Y341535D01*
Y347045D02*
X784931Y341535D01*
X773911Y347045D02*
X772074D01*
X772992D01*
Y341535D01*
X773911D01*
X772074D01*
X769319D02*
Y345209D01*
X766564D01*
X765646Y344290D01*
Y341535D01*
X757381D02*
Y346127D01*
Y344290D01*
X758299D01*
X756462D01*
X757381D01*
Y346127D01*
X756462Y347045D01*
X752789Y341535D02*
X750952D01*
X750034Y342454D01*
Y344290D01*
X750952Y345209D01*
X752789D01*
X753707Y344290D01*
Y342454D01*
X752789Y341535D01*
X748197Y345209D02*
Y341535D01*
Y343372D01*
X747279Y344290D01*
X746360Y345209D01*
X745442D01*
X737177Y341535D02*
Y347045D01*
X735340Y345209D01*
X733504Y347045D01*
Y341535D01*
X730749D02*
X728912D01*
X727994Y342454D01*
Y344290D01*
X728912Y345209D01*
X730749D01*
X731667Y344290D01*
Y342454D01*
X730749Y341535D01*
X722484Y347045D02*
Y341535D01*
X725239D01*
X726157Y342454D01*
Y344290D01*
X725239Y345209D01*
X722484D01*
X717892Y341535D02*
X719729D01*
X720647Y342454D01*
Y344290D01*
X719729Y345209D01*
X717892D01*
X716974Y344290D01*
Y343372D01*
X720647D01*
X715137Y341535D02*
Y345209D01*
X714219D01*
X713300Y344290D01*
Y341535D01*
Y344290D01*
X712382Y345209D01*
X711464Y344290D01*
Y341535D01*
X704117D02*
X702280D01*
X703199D01*
Y347045D01*
X704117Y346127D01*
X704004Y457282D02*
X705840D01*
X704922D01*
Y452690D01*
X705840Y451772D01*
X706759D01*
X707677Y452690D01*
X702167Y455445D02*
Y452690D01*
X701249Y451772D01*
X698494D01*
Y455445D01*
X696657Y451772D02*
Y455445D01*
X695739D01*
X694820Y454527D01*
Y451772D01*
Y454527D01*
X693902Y455445D01*
X692984Y454527D01*
Y451772D01*
X691147Y449935D02*
Y455445D01*
X688392D01*
X687474Y454527D01*
Y452690D01*
X688392Y451772D01*
X691147D01*
X682882D02*
X684719D01*
X685637Y452690D01*
Y454527D01*
X684719Y455445D01*
X682882D01*
X681964Y454527D01*
Y453608D01*
X685637D01*
X680127Y455445D02*
Y451772D01*
Y453608D01*
X679209Y454527D01*
X678290Y455445D01*
X677372D01*
X674617Y451772D02*
X671862D01*
X670944Y452690D01*
X671862Y453608D01*
X673699D01*
X674617Y454527D01*
X673699Y455445D01*
X670944D01*
X704004Y440615D02*
X704922Y441534D01*
X706759D01*
X707677Y440615D01*
Y436942D01*
X706759Y436024D01*
X704922D01*
X704004Y436942D01*
X702167Y441534D02*
Y436024D01*
X699412D01*
X698494Y436942D01*
Y437860D01*
X699412Y438779D01*
X702167D01*
X699412D01*
X698494Y439697D01*
Y440615D01*
X699412Y441534D01*
X702167D01*
X691147Y438779D02*
X687474D01*
X676454Y441534D02*
X678290D01*
X677372D01*
Y436942D01*
X678290Y436024D01*
X679209D01*
X680127Y436942D01*
X674617Y439697D02*
Y436942D01*
X673699Y436024D01*
X670944D01*
Y439697D01*
X669107Y436024D02*
Y439697D01*
X668189D01*
X667270Y438779D01*
Y436024D01*
Y438779D01*
X666352Y439697D01*
X665434Y438779D01*
Y436024D01*
X663597Y434187D02*
Y439697D01*
X660842D01*
X659924Y438779D01*
Y436942D01*
X660842Y436024D01*
X663597D01*
X655332D02*
X657169D01*
X658087Y436942D01*
Y438779D01*
X657169Y439697D01*
X655332D01*
X654414Y438779D01*
Y437860D01*
X658087D01*
X652577Y439697D02*
Y436024D01*
Y437860D01*
X651658Y438779D01*
X650740Y439697D01*
X649822D01*
X646148Y435105D02*
X645230Y436024D01*
Y436942D01*
X646148D01*
Y436024D01*
X645230D01*
X646148Y435105D01*
X647067Y434187D01*
X632373Y440615D02*
X633292Y441534D01*
X635128D01*
X636047Y440615D01*
Y436942D01*
X635128Y436024D01*
X633292D01*
X632373Y436942D01*
X630537Y436024D02*
X628700D01*
X629618D01*
Y441534D01*
X630537D01*
X625945Y436024D02*
Y441534D01*
Y437860D02*
X623190Y439697D01*
X625945Y437860D02*
X623190Y436024D01*
X620435Y441534D02*
Y436024D01*
X617680D01*
X616762Y436942D01*
Y440615D01*
X617680Y441534D01*
X620435D01*
X614925Y436024D02*
X613088D01*
X614007D01*
Y439697D01*
X614925D01*
X610333D02*
X608497Y436024D01*
X606660Y439697D01*
X604823Y441534D02*
Y436024D01*
X602068D01*
X601150Y436942D01*
Y437860D01*
X602068Y438779D01*
X604823D01*
X602068D01*
X601150Y439697D01*
Y440615D01*
X602068Y441534D01*
X604823D01*
X599313Y436024D02*
Y436942D01*
X598395D01*
Y436024D01*
X599313D01*
X589212Y441534D02*
Y436024D01*
X586456D01*
X585538Y436942D01*
Y440615D01*
X586456Y441534D01*
X589212D01*
X580946Y436024D02*
X582783D01*
X583702Y436942D01*
Y438779D01*
X582783Y439697D01*
X580946D01*
X580028Y438779D01*
Y437860D01*
X583702D01*
X577273Y436024D02*
Y440615D01*
Y438779D01*
X578192D01*
X576355D01*
X577273D01*
Y440615D01*
X576355Y441534D01*
X572681Y439697D02*
X570845D01*
X569926Y438779D01*
Y436024D01*
X572681D01*
X573600Y436942D01*
X572681Y437860D01*
X569926D01*
X568090Y439697D02*
Y436942D01*
X567171Y436024D01*
X564416D01*
Y439697D01*
X562580Y436024D02*
X560743D01*
X561661D01*
Y441534D01*
X562580D01*
X557070Y440615D02*
Y439697D01*
X557988D01*
X556151D01*
X557070D01*
Y436942D01*
X556151Y436024D01*
X547886Y441534D02*
Y436024D01*
Y438779D01*
X544213D01*
Y441534D01*
Y436024D01*
X542376Y441534D02*
X540540D01*
X541458D01*
Y436024D01*
X542376D01*
X540540D01*
X534111Y440615D02*
X535030Y441534D01*
X536866D01*
X537785Y440615D01*
Y436942D01*
X536866Y436024D01*
X535030D01*
X534111Y436942D01*
Y438779D01*
X535948D01*
X532275Y441534D02*
Y436024D01*
Y438779D01*
X528601D01*
Y441534D01*
Y436024D01*
X517581Y440615D02*
X518500Y441534D01*
X520336D01*
X521254Y440615D01*
Y439697D01*
X520336Y438779D01*
X518500D01*
X517581Y437860D01*
Y436942D01*
X518500Y436024D01*
X520336D01*
X521254Y436942D01*
X514826Y440615D02*
Y439697D01*
X515744D01*
X513908D01*
X514826D01*
Y436942D01*
X513908Y436024D01*
X510234Y439697D02*
X508398D01*
X507479Y438779D01*
Y436024D01*
X510234D01*
X511153Y436942D01*
X510234Y437860D01*
X507479D01*
X504724Y440615D02*
Y439697D01*
X505643D01*
X503806D01*
X504724D01*
Y436942D01*
X503806Y436024D01*
X498296D02*
X500133D01*
X501051Y436942D01*
Y438779D01*
X500133Y439697D01*
X498296D01*
X497378Y438779D01*
Y437860D01*
X501051D01*
X707677Y433660D02*
Y428150D01*
X704922D01*
X704004Y429068D01*
Y429986D01*
X704922Y430905D01*
X707677D01*
X704922D01*
X704004Y431823D01*
Y432741D01*
X704922Y433660D01*
X707677D01*
X702167D02*
X698494D01*
X700330D01*
Y428150D01*
X691147Y430905D02*
X687474D01*
X676454Y433660D02*
X678290D01*
X677372D01*
Y429068D01*
X678290Y428150D01*
X679209D01*
X680127Y429068D01*
X674617Y431823D02*
Y429068D01*
X673699Y428150D01*
X670944D01*
Y431823D01*
X669107Y428150D02*
Y431823D01*
X668189D01*
X667270Y430905D01*
Y428150D01*
Y430905D01*
X666352Y431823D01*
X665434Y430905D01*
Y428150D01*
X663597Y426313D02*
Y431823D01*
X660842D01*
X659924Y430905D01*
Y429068D01*
X660842Y428150D01*
X663597D01*
X655332D02*
X657169D01*
X658087Y429068D01*
Y430905D01*
X657169Y431823D01*
X655332D01*
X654414Y430905D01*
Y429986D01*
X658087D01*
X652577Y431823D02*
Y428150D01*
Y429986D01*
X651658Y430905D01*
X650740Y431823D01*
X649822D01*
X646148Y427231D02*
X645230Y428150D01*
Y429068D01*
X646148D01*
Y428150D01*
X645230D01*
X646148Y427231D01*
X647067Y426313D01*
X636047Y433660D02*
Y428150D01*
X633292D01*
X632373Y429068D01*
Y429986D01*
X633292Y430905D01*
X636047D01*
X633292D01*
X632373Y431823D01*
Y432741D01*
X633292Y433660D01*
X636047D01*
X630537D02*
X626863D01*
X628700D01*
Y428150D01*
X615843Y432741D02*
X616762Y433660D01*
X618598D01*
X619517Y432741D01*
Y431823D01*
X618598Y430905D01*
X616762D01*
X615843Y429986D01*
Y429068D01*
X616762Y428150D01*
X618598D01*
X619517Y429068D01*
X611252Y428150D02*
X613088D01*
X614007Y429068D01*
Y430905D01*
X613088Y431823D01*
X611252D01*
X610333Y430905D01*
Y429986D01*
X614007D01*
X607578Y432741D02*
Y431823D01*
X608497D01*
X606660D01*
X607578D01*
Y429068D01*
X606660Y428150D01*
X603905D02*
Y429068D01*
X602987D01*
Y428150D01*
X603905D01*
X593803Y433660D02*
Y428150D01*
X591048D01*
X590130Y429068D01*
Y432741D01*
X591048Y433660D01*
X593803D01*
X585538Y428150D02*
X587375D01*
X588293Y429068D01*
Y430905D01*
X587375Y431823D01*
X585538D01*
X584620Y430905D01*
Y429986D01*
X588293D01*
X581865Y428150D02*
Y432741D01*
Y430905D01*
X582783D01*
X580946D01*
X581865D01*
Y432741D01*
X580946Y433660D01*
X577273Y431823D02*
X575436D01*
X574518Y430905D01*
Y428150D01*
X577273D01*
X578192Y429068D01*
X577273Y429986D01*
X574518D01*
X572681Y431823D02*
Y429068D01*
X571763Y428150D01*
X569008D01*
Y431823D01*
X567171Y428150D02*
X565335D01*
X566253D01*
Y433660D01*
X567171D01*
X561661Y432741D02*
Y431823D01*
X562580D01*
X560743D01*
X561661D01*
Y429068D01*
X560743Y428150D01*
X552478Y433660D02*
Y428150D01*
Y430905D01*
X548805D01*
Y433660D01*
Y428150D01*
X546968Y433660D02*
X545131D01*
X546050D01*
Y428150D01*
X546968D01*
X545131D01*
X538703Y432741D02*
X539621Y433660D01*
X541458D01*
X542376Y432741D01*
Y429068D01*
X541458Y428150D01*
X539621D01*
X538703Y429068D01*
Y430905D01*
X540540D01*
X536866Y433660D02*
Y428150D01*
Y430905D01*
X533193D01*
Y433660D01*
Y428150D01*
X522173Y432741D02*
X523091Y433660D01*
X524928D01*
X525846Y432741D01*
Y431823D01*
X524928Y430905D01*
X523091D01*
X522173Y429986D01*
Y429068D01*
X523091Y428150D01*
X524928D01*
X525846Y429068D01*
X519418Y432741D02*
Y431823D01*
X520336D01*
X518500D01*
X519418D01*
Y429068D01*
X518500Y428150D01*
X514826Y431823D02*
X512990D01*
X512071Y430905D01*
Y428150D01*
X514826D01*
X515744Y429068D01*
X514826Y429986D01*
X512071D01*
X509316Y432741D02*
Y431823D01*
X510234D01*
X508398D01*
X509316D01*
Y429068D01*
X508398Y428150D01*
X502888D02*
X504724D01*
X505643Y429068D01*
Y430905D01*
X504724Y431823D01*
X502888D01*
X501969Y430905D01*
Y429986D01*
X505643D01*
X704004Y448489D02*
X704922Y449408D01*
X706759D01*
X707677Y448489D01*
Y444816D01*
X706759Y443898D01*
X704922D01*
X704004Y444816D01*
X702167Y443898D02*
Y447571D01*
X700330Y449408D01*
X698494Y447571D01*
Y443898D01*
Y446653D01*
X702167D01*
X691147D02*
X687474D01*
X676454Y449408D02*
X678290D01*
X677372D01*
Y444816D01*
X678290Y443898D01*
X679209D01*
X680127Y444816D01*
X674617Y447571D02*
Y444816D01*
X673699Y443898D01*
X670944D01*
Y447571D01*
X669107Y443898D02*
Y447571D01*
X668189D01*
X667270Y446653D01*
Y443898D01*
Y446653D01*
X666352Y447571D01*
X665434Y446653D01*
Y443898D01*
X663597Y442061D02*
Y447571D01*
X660842D01*
X659924Y446653D01*
Y444816D01*
X660842Y443898D01*
X663597D01*
X655332D02*
X657169D01*
X658087Y444816D01*
Y446653D01*
X657169Y447571D01*
X655332D01*
X654414Y446653D01*
Y445734D01*
X658087D01*
X652577Y447571D02*
Y443898D01*
Y445734D01*
X651658Y446653D01*
X650740Y447571D01*
X649822D01*
X646148Y442979D02*
X645230Y443898D01*
Y444816D01*
X646148D01*
Y443898D01*
X645230D01*
X646148Y442979D01*
X647067Y442061D01*
X632373Y448489D02*
X633292Y449408D01*
X635128D01*
X636047Y448489D01*
Y444816D01*
X635128Y443898D01*
X633292D01*
X632373Y444816D01*
X630537Y443898D02*
X628700D01*
X629618D01*
Y449408D01*
X630537D01*
X625945Y443898D02*
Y449408D01*
Y445734D02*
X623190Y447571D01*
X625945Y445734D02*
X623190Y443898D01*
X620435Y449408D02*
Y443898D01*
X617680D01*
X616762Y444816D01*
Y448489D01*
X617680Y449408D01*
X620435D01*
X614925Y443898D02*
X613088D01*
X614007D01*
Y447571D01*
X614925D01*
X610333D02*
X608497Y443898D01*
X606660Y447571D01*
X604823Y443898D02*
Y447571D01*
X602987Y449408D01*
X601150Y447571D01*
Y443898D01*
Y446653D01*
X604823D01*
X599313Y443898D02*
Y444816D01*
X598395D01*
Y443898D01*
X599313D01*
X589212Y449408D02*
Y443898D01*
X586456D01*
X585538Y444816D01*
Y448489D01*
X586456Y449408D01*
X589212D01*
X580946Y443898D02*
X582783D01*
X583702Y444816D01*
Y446653D01*
X582783Y447571D01*
X580946D01*
X580028Y446653D01*
Y445734D01*
X583702D01*
X577273Y443898D02*
Y448489D01*
Y446653D01*
X578192D01*
X576355D01*
X577273D01*
Y448489D01*
X576355Y449408D01*
X572681Y447571D02*
X570845D01*
X569926Y446653D01*
Y443898D01*
X572681D01*
X573600Y444816D01*
X572681Y445734D01*
X569926D01*
X568090Y447571D02*
Y444816D01*
X567171Y443898D01*
X564416D01*
Y447571D01*
X562580Y443898D02*
X560743D01*
X561661D01*
Y449408D01*
X562580D01*
X557070Y448489D02*
Y447571D01*
X557988D01*
X556151D01*
X557070D01*
Y444816D01*
X556151Y443898D01*
X547886Y449408D02*
Y443898D01*
Y446653D01*
X544213D01*
Y449408D01*
Y443898D01*
X542376Y449408D02*
X540540D01*
X541458D01*
Y443898D01*
X542376D01*
X540540D01*
X534111Y448489D02*
X535030Y449408D01*
X536866D01*
X537785Y448489D01*
Y444816D01*
X536866Y443898D01*
X535030D01*
X534111Y444816D01*
Y446653D01*
X535948D01*
X532275Y449408D02*
Y443898D01*
Y446653D01*
X528601D01*
Y449408D01*
Y443898D01*
X517581Y448489D02*
X518500Y449408D01*
X520336D01*
X521254Y448489D01*
Y447571D01*
X520336Y446653D01*
X518500D01*
X517581Y445734D01*
Y444816D01*
X518500Y443898D01*
X520336D01*
X521254Y444816D01*
X514826Y448489D02*
Y447571D01*
X515744D01*
X513908D01*
X514826D01*
Y444816D01*
X513908Y443898D01*
X510234Y447571D02*
X508398D01*
X507479Y446653D01*
Y443898D01*
X510234D01*
X511153Y444816D01*
X510234Y445734D01*
X507479D01*
X504724Y448489D02*
Y447571D01*
X505643D01*
X503806D01*
X504724D01*
Y444816D01*
X503806Y443898D01*
X498296D02*
X500133D01*
X501051Y444816D01*
Y446653D01*
X500133Y447571D01*
X498296D01*
X497378Y446653D01*
Y445734D01*
X501051D01*
X707677Y399801D02*
X704004D01*
X705840D01*
Y394291D01*
X698494Y399801D02*
X702167D01*
Y394291D01*
X698494D01*
X702167Y397046D02*
X700330D01*
X691147D02*
X687474D01*
X680127Y399801D02*
Y394291D01*
X677372D01*
X676454Y395210D01*
Y398883D01*
X677372Y399801D01*
X680127D01*
X671862Y394291D02*
X673699D01*
X674617Y395210D01*
Y397046D01*
X673699Y397965D01*
X671862D01*
X670944Y397046D01*
Y396128D01*
X674617D01*
X668189Y394291D02*
Y398883D01*
Y397046D01*
X669107D01*
X667270D01*
X668189D01*
Y398883D01*
X667270Y399801D01*
X663597Y397965D02*
X661760D01*
X660842Y397046D01*
Y394291D01*
X663597D01*
X664515Y395210D01*
X663597Y396128D01*
X660842D01*
X659005Y397965D02*
Y395210D01*
X658087Y394291D01*
X655332D01*
Y397965D01*
X653495Y394291D02*
X651658D01*
X652577D01*
Y399801D01*
X653495D01*
X647985Y398883D02*
Y397965D01*
X648904D01*
X647067D01*
X647985D01*
Y395210D01*
X647067Y394291D01*
X638802Y399801D02*
Y394291D01*
Y397046D01*
X635128D01*
Y399801D01*
Y394291D01*
X633292Y399801D02*
X631455D01*
X632373D01*
Y394291D01*
X633292D01*
X631455D01*
X625027Y398883D02*
X625945Y399801D01*
X627782D01*
X628700Y398883D01*
Y395210D01*
X627782Y394291D01*
X625945D01*
X625027Y395210D01*
Y397046D01*
X626863D01*
X623190Y399801D02*
Y394291D01*
Y397046D01*
X619517D01*
Y399801D01*
Y394291D01*
X608497Y398883D02*
X609415Y399801D01*
X611252D01*
X612170Y398883D01*
Y397965D01*
X611252Y397046D01*
X609415D01*
X608497Y396128D01*
Y395210D01*
X609415Y394291D01*
X611252D01*
X612170Y395210D01*
X605742Y398883D02*
Y397965D01*
X606660D01*
X604823D01*
X605742D01*
Y395210D01*
X604823Y394291D01*
X601150Y397965D02*
X599313D01*
X598395Y397046D01*
Y394291D01*
X601150D01*
X602068Y395210D01*
X601150Y396128D01*
X598395D01*
X595640Y398883D02*
Y397965D01*
X596558D01*
X594722D01*
X595640D01*
Y395210D01*
X594722Y394291D01*
X589212D02*
X591048D01*
X591967Y395210D01*
Y397046D01*
X591048Y397965D01*
X589212D01*
X588293Y397046D01*
Y396128D01*
X591967D01*
X586456Y394291D02*
Y395210D01*
X585538D01*
Y394291D01*
X586456D01*
X707677Y378543D02*
Y384053D01*
X704922D01*
X704004Y383135D01*
Y381298D01*
X704922Y380380D01*
X707677D01*
X705840D02*
X704004Y378543D01*
X702167D02*
Y384053D01*
X699412D01*
X698494Y383135D01*
Y381298D01*
X699412Y380380D01*
X702167D01*
X691147Y381298D02*
X687474D01*
X680127Y384053D02*
Y378543D01*
X677372D01*
X676454Y379462D01*
Y383135D01*
X677372Y384053D01*
X680127D01*
X671862Y378543D02*
X673699D01*
X674617Y379462D01*
Y381298D01*
X673699Y382217D01*
X671862D01*
X670944Y381298D01*
Y380380D01*
X674617D01*
X668189Y378543D02*
Y383135D01*
Y381298D01*
X669107D01*
X667270D01*
X668189D01*
Y383135D01*
X667270Y384053D01*
X663597Y382217D02*
X661760D01*
X660842Y381298D01*
Y378543D01*
X663597D01*
X664515Y379462D01*
X663597Y380380D01*
X660842D01*
X659005Y382217D02*
Y379462D01*
X658087Y378543D01*
X655332D01*
Y382217D01*
X653495Y378543D02*
X651658D01*
X652577D01*
Y384053D01*
X653495D01*
X647985Y383135D02*
Y382217D01*
X648904D01*
X647067D01*
X647985D01*
Y379462D01*
X647067Y378543D01*
X638802Y384053D02*
Y378543D01*
X635128D01*
X630537Y384053D02*
X632373D01*
X633292Y383135D01*
Y379462D01*
X632373Y378543D01*
X630537D01*
X629618Y379462D01*
Y383135D01*
X630537Y384053D01*
X627782D02*
Y378543D01*
X625945Y380380D01*
X624108Y378543D01*
Y384053D01*
X613088Y383135D02*
X614007Y384053D01*
X615843D01*
X616762Y383135D01*
Y382217D01*
X615843Y381298D01*
X614007D01*
X613088Y380380D01*
Y379462D01*
X614007Y378543D01*
X615843D01*
X616762Y379462D01*
X610333Y383135D02*
Y382217D01*
X611252D01*
X609415D01*
X610333D01*
Y379462D01*
X609415Y378543D01*
X605742Y382217D02*
X603905D01*
X602987Y381298D01*
Y378543D01*
X605742D01*
X606660Y379462D01*
X605742Y380380D01*
X602987D01*
X600232Y383135D02*
Y382217D01*
X601150D01*
X599313D01*
X600232D01*
Y379462D01*
X599313Y378543D01*
X593803D02*
X595640D01*
X596558Y379462D01*
Y381298D01*
X595640Y382217D01*
X593803D01*
X592885Y381298D01*
Y380380D01*
X596558D01*
X591048Y378543D02*
Y379462D01*
X590130D01*
Y378543D01*
X591048D01*
X707677Y391927D02*
X704004D01*
X705840D01*
Y386417D01*
X702167D02*
Y391927D01*
X699412D01*
X698494Y391009D01*
Y389172D01*
X699412Y388254D01*
X702167D01*
X691147Y389172D02*
X687474D01*
X680127Y391927D02*
Y386417D01*
X677372D01*
X676454Y387336D01*
Y391009D01*
X677372Y391927D01*
X680127D01*
X671862Y386417D02*
X673699D01*
X674617Y387336D01*
Y389172D01*
X673699Y390091D01*
X671862D01*
X670944Y389172D01*
Y388254D01*
X674617D01*
X668189Y386417D02*
Y391009D01*
Y389172D01*
X669107D01*
X667270D01*
X668189D01*
Y391009D01*
X667270Y391927D01*
X663597Y390091D02*
X661760D01*
X660842Y389172D01*
Y386417D01*
X663597D01*
X664515Y387336D01*
X663597Y388254D01*
X660842D01*
X659005Y390091D02*
Y387336D01*
X658087Y386417D01*
X655332D01*
Y390091D01*
X653495Y386417D02*
X651658D01*
X652577D01*
Y391927D01*
X653495D01*
X647985Y391009D02*
Y390091D01*
X648904D01*
X647067D01*
X647985D01*
Y387336D01*
X647067Y386417D01*
X638802Y391927D02*
Y386417D01*
X635128D01*
X630537Y391927D02*
X632373D01*
X633292Y391009D01*
Y387336D01*
X632373Y386417D01*
X630537D01*
X629618Y387336D01*
Y391009D01*
X630537Y391927D01*
X627782D02*
Y386417D01*
X625945Y388254D01*
X624108Y386417D01*
Y391927D01*
X613088Y391009D02*
X614007Y391927D01*
X615843D01*
X616762Y391009D01*
Y390091D01*
X615843Y389172D01*
X614007D01*
X613088Y388254D01*
Y387336D01*
X614007Y386417D01*
X615843D01*
X616762Y387336D01*
X610333Y391009D02*
Y390091D01*
X611252D01*
X609415D01*
X610333D01*
Y387336D01*
X609415Y386417D01*
X605742Y390091D02*
X603905D01*
X602987Y389172D01*
Y386417D01*
X605742D01*
X606660Y387336D01*
X605742Y388254D01*
X602987D01*
X600232Y391009D02*
Y390091D01*
X601150D01*
X599313D01*
X600232D01*
Y387336D01*
X599313Y386417D01*
X593803D02*
X595640D01*
X596558Y387336D01*
Y389172D01*
X595640Y390091D01*
X593803D01*
X592885Y389172D01*
Y388254D01*
X596558D01*
X707677Y370669D02*
Y376179D01*
X704922D01*
X704004Y375261D01*
Y373424D01*
X704922Y372506D01*
X707677D01*
X705840D02*
X704004Y370669D01*
X702167Y376179D02*
Y370669D01*
Y373424D01*
X698494D01*
Y376179D01*
Y370669D01*
X691147Y373424D02*
X687474D01*
X680127Y376179D02*
Y370669D01*
X677372D01*
X676454Y371588D01*
Y375261D01*
X677372Y376179D01*
X680127D01*
X671862Y370669D02*
X673699D01*
X674617Y371588D01*
Y373424D01*
X673699Y374343D01*
X671862D01*
X670944Y373424D01*
Y372506D01*
X674617D01*
X668189Y370669D02*
Y375261D01*
Y373424D01*
X669107D01*
X667270D01*
X668189D01*
Y375261D01*
X667270Y376179D01*
X663597Y374343D02*
X661760D01*
X660842Y373424D01*
Y370669D01*
X663597D01*
X664515Y371588D01*
X663597Y372506D01*
X660842D01*
X659005Y374343D02*
Y371588D01*
X658087Y370669D01*
X655332D01*
Y374343D01*
X653495Y370669D02*
X651658D01*
X652577D01*
Y376179D01*
X653495D01*
X647985Y375261D02*
Y374343D01*
X648904D01*
X647067D01*
X647985D01*
Y371588D01*
X647067Y370669D01*
X638802Y376179D02*
Y370669D01*
Y373424D01*
X635128D01*
Y376179D01*
Y370669D01*
X633292Y376179D02*
X631455D01*
X632373D01*
Y370669D01*
X633292D01*
X631455D01*
X625027Y375261D02*
X625945Y376179D01*
X627782D01*
X628700Y375261D01*
Y371588D01*
X627782Y370669D01*
X625945D01*
X625027Y371588D01*
Y373424D01*
X626863D01*
X623190Y376179D02*
Y370669D01*
Y373424D01*
X619517D01*
Y376179D01*
Y370669D01*
X608497Y375261D02*
X609415Y376179D01*
X611252D01*
X612170Y375261D01*
Y374343D01*
X611252Y373424D01*
X609415D01*
X608497Y372506D01*
Y371588D01*
X609415Y370669D01*
X611252D01*
X612170Y371588D01*
X605742Y375261D02*
Y374343D01*
X606660D01*
X604823D01*
X605742D01*
Y371588D01*
X604823Y370669D01*
X601150Y374343D02*
X599313D01*
X598395Y373424D01*
Y370669D01*
X601150D01*
X602068Y371588D01*
X601150Y372506D01*
X598395D01*
X595640Y375261D02*
Y374343D01*
X596558D01*
X594722D01*
X595640D01*
Y371588D01*
X594722Y370669D01*
X589212D02*
X591048D01*
X591967Y371588D01*
Y373424D01*
X591048Y374343D01*
X589212D01*
X588293Y373424D01*
Y372506D01*
X591967D01*
X854724Y333661D02*
Y339171D01*
X851969D01*
X851051Y338253D01*
Y336416D01*
X851969Y335498D01*
X854724D01*
X852888D02*
X851051Y333661D01*
X845541D02*
X849214D01*
X845541Y337335D01*
Y338253D01*
X846459Y339171D01*
X848296D01*
X849214Y338253D01*
X838194Y336416D02*
X834521D01*
X827174Y333661D02*
Y337335D01*
X825338Y339171D01*
X823501Y337335D01*
Y333661D01*
Y336416D01*
X827174D01*
X821664Y333661D02*
Y337335D01*
X818909D01*
X817991Y336416D01*
Y333661D01*
X815236Y337335D02*
X813399D01*
X812481Y336416D01*
Y333661D01*
X815236D01*
X816154Y334580D01*
X815236Y335498D01*
X812481D01*
X810644Y333661D02*
X808807D01*
X809726D01*
Y339171D01*
X810644D01*
X805134Y333661D02*
X803298D01*
X802379Y334580D01*
Y336416D01*
X803298Y337335D01*
X805134D01*
X806052Y336416D01*
Y334580D01*
X805134Y333661D01*
X798706Y331825D02*
X797787D01*
X796869Y332743D01*
Y337335D01*
X799624D01*
X800543Y336416D01*
Y334580D01*
X799624Y333661D01*
X796869D01*
X789522D02*
Y339171D01*
X786767D01*
X785849Y338253D01*
Y336416D01*
X786767Y335498D01*
X789522D01*
X787686D02*
X785849Y333661D01*
X784012Y339171D02*
X780339Y333661D01*
Y339171D02*
X784012Y333661D01*
X772992Y339171D02*
X771156D01*
X772074D01*
Y333661D01*
X772992D01*
X771156D01*
X768401D02*
Y337335D01*
X765646D01*
X764727Y336416D01*
Y333661D01*
X756462D02*
Y338253D01*
Y336416D01*
X757381D01*
X755544D01*
X756462D01*
Y338253D01*
X755544Y339171D01*
X751870Y333661D02*
X750034D01*
X749116Y334580D01*
Y336416D01*
X750034Y337335D01*
X751870D01*
X752789Y336416D01*
Y334580D01*
X751870Y333661D01*
X747279Y337335D02*
Y333661D01*
Y335498D01*
X746360Y336416D01*
X745442Y337335D01*
X744524D01*
X736259Y333661D02*
Y339171D01*
X734422Y337335D01*
X732585Y339171D01*
Y333661D01*
X729830D02*
X727994D01*
X727075Y334580D01*
Y336416D01*
X727994Y337335D01*
X729830D01*
X730749Y336416D01*
Y334580D01*
X729830Y333661D01*
X721565Y339171D02*
Y333661D01*
X724320D01*
X725239Y334580D01*
Y336416D01*
X724320Y337335D01*
X721565D01*
X716974Y333661D02*
X718810D01*
X719729Y334580D01*
Y336416D01*
X718810Y337335D01*
X716974D01*
X716055Y336416D01*
Y335498D01*
X719729D01*
X714219Y333661D02*
Y337335D01*
X713300D01*
X712382Y336416D01*
Y333661D01*
Y336416D01*
X711464Y337335D01*
X710545Y336416D01*
Y333661D01*
X699525D02*
X703199D01*
X699525Y337335D01*
Y338253D01*
X700444Y339171D01*
X702280D01*
X703199Y338253D01*
X707677Y407675D02*
Y402165D01*
X704922D01*
X704004Y403084D01*
Y406757D01*
X704922Y407675D01*
X707677D01*
X699412Y402165D02*
X701249D01*
X702167Y403084D01*
Y404920D01*
X701249Y405839D01*
X699412D01*
X698494Y404920D01*
Y404002D01*
X702167D01*
X695739Y402165D02*
Y406757D01*
Y404920D01*
X696657D01*
X694820D01*
X695739D01*
Y406757D01*
X694820Y407675D01*
X691147Y405839D02*
X689310D01*
X688392Y404920D01*
Y402165D01*
X691147D01*
X692065Y403084D01*
X691147Y404002D01*
X688392D01*
X686555Y405839D02*
Y403084D01*
X685637Y402165D01*
X682882D01*
Y405839D01*
X681045Y402165D02*
X679209D01*
X680127D01*
Y407675D01*
X681045D01*
X675535Y406757D02*
Y405839D01*
X676454D01*
X674617D01*
X675535D01*
Y403084D01*
X674617Y402165D01*
X669107D02*
X670944D01*
X671862Y403084D01*
Y404920D01*
X670944Y405839D01*
X669107D01*
X668189Y404920D01*
Y404002D01*
X671862D01*
X662679Y407675D02*
Y402165D01*
X665434D01*
X666352Y403084D01*
Y404920D01*
X665434Y405839D01*
X662679D01*
X651658Y406757D02*
X652577Y407675D01*
X654414D01*
X655332Y406757D01*
Y403084D01*
X654414Y402165D01*
X652577D01*
X651658Y403084D01*
X648904Y402165D02*
X647067D01*
X646148Y403084D01*
Y404920D01*
X647067Y405839D01*
X648904D01*
X649822Y404920D01*
Y403084D01*
X648904Y402165D01*
X644312D02*
Y405839D01*
X641557D01*
X640638Y404920D01*
Y402165D01*
X638802D02*
Y405839D01*
X636047D01*
X635128Y404920D01*
Y402165D01*
X630537D02*
X632373D01*
X633292Y403084D01*
Y404920D01*
X632373Y405839D01*
X630537D01*
X629618Y404920D01*
Y404002D01*
X633292D01*
X624108Y405839D02*
X626863D01*
X627782Y404920D01*
Y403084D01*
X626863Y402165D01*
X624108D01*
X621353Y406757D02*
Y405839D01*
X622272D01*
X620435D01*
X621353D01*
Y403084D01*
X620435Y402165D01*
X617680D02*
X615843D01*
X616762D01*
Y405839D01*
X617680D01*
X612170Y402165D02*
X610333D01*
X609415Y403084D01*
Y404920D01*
X610333Y405839D01*
X612170D01*
X613088Y404920D01*
Y403084D01*
X612170Y402165D01*
X607578D02*
Y405839D01*
X604823D01*
X603905Y404920D01*
Y402165D01*
X602068D02*
X599313D01*
X598395Y403084D01*
X599313Y404002D01*
X601150D01*
X602068Y404920D01*
X601150Y405839D01*
X598395D01*
M02*
