%FSLAX25Y25*%
%MOIN*%
G70*
G01*
G75*
G04 Layer_Color=16711935*
%ADD10R,0.03937X0.03150*%
%ADD11R,0.02756X0.02559*%
%ADD12R,0.02756X0.01969*%
%ADD13R,0.02559X0.02756*%
%ADD14R,0.01969X0.02756*%
%ADD15R,0.05118X0.03543*%
%ADD16R,0.03543X0.05118*%
%ADD17R,0.04921X0.05906*%
%ADD18R,0.05906X0.04921*%
%ADD19O,0.11221X0.02362*%
%ADD20O,0.09843X0.02362*%
%ADD21R,0.08268X0.22047*%
%ADD22R,0.02362X0.05512*%
%ADD23C,0.02362*%
%ADD24C,0.01969*%
%ADD25C,0.01000*%
%ADD26C,0.01181*%
%ADD27C,0.19685*%
%ADD28R,0.05906X0.08268*%
%ADD29O,0.05906X0.08268*%
%ADD30R,0.08268X0.05906*%
%ADD31O,0.08268X0.05906*%
%ADD32C,0.02756*%
%ADD33C,0.03150*%
%ADD34C,0.02165*%
%ADD35C,0.00984*%
%ADD36C,0.00787*%
%ADD37R,0.04724X0.03937*%
%ADD38R,0.03543X0.03347*%
%ADD39R,0.03543X0.02756*%
%ADD40R,0.03347X0.03543*%
%ADD41R,0.02756X0.03543*%
%ADD42R,0.05906X0.04331*%
%ADD43R,0.04331X0.05906*%
%ADD44R,0.05709X0.06693*%
%ADD45R,0.06693X0.05709*%
%ADD46O,0.12008X0.03150*%
%ADD47O,0.10630X0.03150*%
%ADD48R,0.09055X0.22835*%
%ADD49C,0.20472*%
%ADD50R,0.06693X0.09055*%
%ADD51O,0.06693X0.09055*%
%ADD52R,0.09055X0.06693*%
%ADD53O,0.09055X0.06693*%
%ADD54C,0.03543*%
%ADD55C,0.03937*%
D49*
X850394Y476378D02*
D03*
X488189D02*
D03*
Y311024D02*
D03*
X850394D02*
D03*
D50*
X601575Y478543D02*
D03*
X764094Y481653D02*
D03*
X801968Y478740D02*
D03*
X652047Y471654D02*
D03*
X563701Y481457D02*
D03*
D51*
X611575Y478543D02*
D03*
X714094Y471654D02*
D03*
Y481653D02*
D03*
X724094Y471654D02*
D03*
Y481653D02*
D03*
X734094Y471654D02*
D03*
Y481653D02*
D03*
X744095Y471654D02*
D03*
Y481653D02*
D03*
X754095Y471654D02*
D03*
Y481653D02*
D03*
X764094Y471654D02*
D03*
X811969Y478740D02*
D03*
X682047Y481653D02*
D03*
Y471654D02*
D03*
X672047Y481653D02*
D03*
Y471654D02*
D03*
X662047Y481653D02*
D03*
Y471654D02*
D03*
X652047Y481653D02*
D03*
X513701Y471457D02*
D03*
Y481457D02*
D03*
X523701Y471457D02*
D03*
Y481457D02*
D03*
X533701Y471457D02*
D03*
Y481457D02*
D03*
X543701Y471457D02*
D03*
Y481457D02*
D03*
X553701Y471457D02*
D03*
Y481457D02*
D03*
X563701Y471457D02*
D03*
D52*
X484252Y438819D02*
D03*
X675433Y327087D02*
D03*
D53*
X484252Y448819D02*
D03*
X685433Y327087D02*
D03*
X675433Y317087D02*
D03*
X685433D02*
D03*
X675433Y307087D02*
D03*
X685433D02*
D03*
D54*
X540551Y392520D02*
D03*
X736417Y389764D02*
D03*
X795276Y472047D02*
D03*
X656496Y459646D02*
D03*
X636811Y464370D02*
D03*
D55*
X665748Y332677D02*
D03*
M02*
