%FSAX44Y44*%
%MOMM*%
G71*
G01*
G75*
G04 Layer_Color=2752767*
%ADD10C,0.1524*%
%ADD11C,0.1524*%
%ADD12C,1.0000*%
%ADD13R,2.8000X1.3500*%
%ADD14R,1.3500X1.2000*%
%ADD15R,1.2000X1.3500*%
%ADD16R,5.5500X4.2500*%
%ADD17R,4.2500X5.5500*%
%ADD18R,2.5000X1.7000*%
%ADD19R,2.4500X2.2500*%
%ADD20R,1.3500X2.8000*%
%ADD21O,1.7000X0.3500*%
%ADD22R,3.0000X4.2000*%
%ADD23R,4.2000X3.0000*%
%ADD24O,0.3500X1.7000*%
%ADD25C,0.2032*%
%ADD26C,4.0000*%
%ADD27C,1.5000*%
%ADD28R,1.5000X1.5000*%
%ADD29C,0.6000*%
%ADD30O,0.4500X2.4000*%
%ADD31R,0.6000X1.1500*%
%ADD32R,4.8067X3.2941*%
%ADD33R,3.1565X4.8934*%
%ADD34R,2.0828X0.6604*%
%ADD35R,1.6764X2.0828*%
%ADD36C,0.2500*%
%ADD37C,0.6000*%
%ADD38C,0.2000*%
%ADD39C,0.4500*%
%ADD40R,3.0032X1.5532*%
%ADD41R,1.5532X1.4032*%
%ADD42R,1.4032X1.5532*%
%ADD43R,5.7532X4.4532*%
%ADD44R,4.4532X5.7532*%
%ADD45R,2.7032X1.9032*%
%ADD46R,2.6532X2.4532*%
%ADD47R,1.5532X3.0032*%
%ADD48O,1.9032X0.5532*%
%ADD49R,3.2032X4.4032*%
%ADD50R,4.4032X3.2032*%
%ADD51O,0.5532X1.9032*%
%ADD52C,4.2032*%
%ADD53C,1.7032*%
%ADD54R,1.7032X1.7032*%
%ADD55C,0.8032*%
%ADD56O,0.6532X2.6032*%
%ADD57R,0.8032X1.3532*%
%ADD58C,0.1693*%
D11*
X00552920Y00806920D02*
Y00817080D01*
X00563080D01*
Y00806920D01*
X00552920D01*
X00952920D02*
Y00817080D01*
X00963080D01*
Y00806920D01*
X00952920D01*
Y01206920D02*
Y01217080D01*
X00963080D01*
Y01206920D01*
X00952920D01*
X00552920D02*
Y01217080D01*
X00563080D01*
Y01206920D01*
X00552920D01*
X00954278Y00872236D02*
X00949198Y00882396D01*
X00959358D01*
X00954278Y00872236D01*
X00864616Y00871982D02*
X00859536Y00882142D01*
X00869696D01*
X00864616Y00871982D01*
X00837692Y01196340D02*
X00832612Y01206500D01*
X00842772D01*
X00837692Y01196340D01*
X00837674Y01107186D02*
X00832594Y01117346D01*
X00842754D01*
X00837674Y01107186D01*
X00864362Y00861822D02*
X00859282Y00871982D01*
X00869442D01*
X00864362Y00861822D01*
X00853948Y00893318D02*
X00848868Y00903478D01*
X00859028D01*
X00853948Y00893318D01*
X00864616Y00851916D02*
X00859536Y00862076D01*
X00869696D01*
X00864616Y00851916D01*
X00937514Y00827278D02*
X00932434Y00837438D01*
X00942594D01*
X00937514Y00827278D01*
X00953160Y00862228D02*
X00948080Y00872388D01*
X00958240D01*
X00953160Y00862228D01*
X00847852Y01107440D02*
X00842772Y01117600D01*
X00852932D01*
X00847852Y01107440D01*
X00814832Y01096772D02*
X00809752Y01106932D01*
X00819912D01*
X00814832Y01096772D01*
X00865124Y00842264D02*
X00860044Y00852424D01*
X00870204D01*
X00865124Y00842264D01*
X00856996Y01107186D02*
X00851916Y01117346D01*
X00862076D01*
X00856996Y01107186D01*
X00866902Y01107440D02*
X00861822Y01117600D01*
X00871982D01*
X00866902Y01107440D01*
X00860298Y01193292D02*
X00855218Y01203452D01*
X00865378D01*
X00860298Y01193292D01*
X00583692Y01197356D02*
X00578612Y01207516D01*
X00588772D01*
X00583692Y01197356D01*
X00657860Y01019048D02*
X00652780Y01029208D01*
X00662940D01*
X00657860Y01019048D01*
X00569316Y00882040D02*
X00564236Y00892200D01*
X00574396D01*
X00569316Y00882040D01*
X00569214Y00864362D02*
X00564134Y00874522D01*
X00574294D01*
X00569214Y00864362D01*
X00711200Y00826262D02*
X00706120Y00836422D01*
X00716280D01*
X00711200Y00826262D01*
X00789686Y01024128D02*
X00784606Y01034288D01*
X00794766D01*
X00789686Y01024128D01*
X00848512Y01055014D02*
X00843432Y01065174D01*
X00853592D01*
X00848512Y01055014D01*
X00685038Y00914400D02*
X00679958Y00924560D01*
X00690118D01*
X00685038Y00914400D01*
X00730758Y00831088D02*
X00725678Y00841248D01*
X00735838D01*
X00730758Y00831088D01*
X00776478Y00844804D02*
X00771398Y00854964D01*
X00781558D01*
X00776478Y00844804D01*
X00757936Y00948436D02*
X00752856Y00958596D01*
X00763016D01*
X00757936Y00948436D01*
X00805688Y01087628D02*
X00800608Y01097788D01*
X00810768D01*
X00805688Y01087628D01*
X00700076Y00928930D02*
X00694996Y00939090D01*
X00705156D01*
X00700076Y00928930D01*
X00909066Y00866982D02*
X00903986Y00877142D01*
X00914146D01*
X00909066Y00866982D01*
X00899066D02*
X00893986Y00877142D01*
X00904146D01*
X00899066Y00866982D01*
X00909066Y00876982D02*
X00903986Y00887142D01*
X00914146D01*
X00909066Y00876982D01*
X00899066D02*
X00893986Y00887142D01*
X00904146D01*
X00899066Y00876982D01*
X00909066Y00886982D02*
X00903986Y00897142D01*
X00914146D01*
X00909066Y00886982D01*
X00899066D02*
X00893986Y00897142D01*
X00904146D01*
X00899066Y00886982D01*
X00919066D02*
X00913986Y00897142D01*
X00924146D01*
X00919066Y00886982D01*
Y00876982D02*
X00913986Y00887142D01*
X00924146D01*
X00919066Y00876982D01*
Y00866982D02*
X00913986Y00877142D01*
X00924146D01*
X00919066Y00866982D01*
Y00856982D02*
X00913986Y00867142D01*
X00924146D01*
X00919066Y00856982D01*
X00899066D02*
X00893986Y00867142D01*
X00904146D01*
X00899066Y00856982D01*
X00909066D02*
X00903986Y00867142D01*
X00914146D01*
X00909066Y00856982D01*
X00852692Y01161382D02*
X00847612Y01171542D01*
X00857772D01*
X00852692Y01161382D01*
X00973074Y01173480D02*
X00967994Y01183640D01*
X00978154D01*
X00973074Y01173480D01*
X00842692Y01161382D02*
X00837612Y01171542D01*
X00847772D01*
X00842692Y01161382D01*
X00852692Y01151382D02*
X00847612Y01161542D01*
X00857772D01*
X00852692Y01151382D01*
Y01141382D02*
X00847612Y01151542D01*
X00857772D01*
X00852692Y01141382D01*
X00842692D02*
X00837612Y01151542D01*
X00847772D01*
X00842692Y01141382D01*
X00832692Y01161382D02*
X00827612Y01171542D01*
X00837772D01*
X00832692Y01161382D01*
X00822692D02*
X00817612Y01171542D01*
X00827772D01*
X00822692Y01161382D01*
Y01141382D02*
X00817612Y01151542D01*
X00827772D01*
X00822692Y01141382D01*
X00832692Y01151382D02*
X00827612Y01161542D01*
X00837772D01*
X00832692Y01151382D01*
X00822692D02*
X00817612Y01161542D01*
X00827772D01*
X00822692Y01151382D01*
X00842692D02*
X00837612Y01161542D01*
X00847772D01*
X00842692Y01151382D01*
X00832692Y01141382D02*
X00827612Y01151542D01*
X00837772D01*
X00832692Y01141382D01*
X00533000Y00781920D02*
X00527920Y00792080D01*
X00538080D01*
X00533000Y00781920D01*
X00583000D02*
X00577920Y00792080D01*
X00588080D01*
X00583000Y00781920D01*
X00633000D02*
X00627920Y00792080D01*
X00638080D01*
X00633000Y00781920D01*
X00683000D02*
X00677920Y00792080D01*
X00688080D01*
X00683000Y00781920D01*
X00733000Y00780524D02*
X00727920Y00790684D01*
X00738080D01*
X00733000Y00780524D01*
X00783000D02*
X00777920Y00790684D01*
X00788080D01*
X00783000Y00780524D01*
X00833000Y00781920D02*
X00827920Y00792080D01*
X00838080D01*
X00833000Y00781920D01*
X00883000D02*
X00877920Y00792080D01*
X00888080D01*
X00883000Y00781920D01*
X00933000D02*
X00927920Y00792080D01*
X00938080D01*
X00933000Y00781920D01*
X00983000D02*
X00977920Y00792080D01*
X00988080D01*
X00983000Y00781920D01*
Y00831920D02*
X00977920Y00842080D01*
X00988080D01*
X00983000Y00831920D01*
Y00931920D02*
X00977920Y00942080D01*
X00988080D01*
X00983000Y00931920D01*
Y00981920D02*
X00977920Y00992080D01*
X00988080D01*
X00983000Y00981920D01*
Y01031920D02*
X00977920Y01042080D01*
X00988080D01*
X00983000Y01031920D01*
Y01081920D02*
X00977920Y01092080D01*
X00988080D01*
X00983000Y01081920D01*
Y01156920D02*
X00977920Y01167080D01*
X00988080D01*
X00983000Y01156920D01*
Y01231920D02*
X00977920Y01242080D01*
X00988080D01*
X00983000Y01231920D01*
X00933000D02*
X00927920Y01242080D01*
X00938080D01*
X00933000Y01231920D01*
X00833000D02*
X00827920Y01242080D01*
X00838080D01*
X00833000Y01231920D01*
X00783000D02*
X00777920Y01242080D01*
X00788080D01*
X00783000Y01231920D01*
X00733000D02*
X00727920Y01242080D01*
X00738080D01*
X00733000Y01231920D01*
X00683000D02*
X00677920Y01242080D01*
X00688080D01*
X00683000Y01231920D01*
X00633000D02*
X00627920Y01242080D01*
X00638080D01*
X00633000Y01231920D01*
X00583000D02*
X00577920Y01242080D01*
X00588080D01*
X00583000Y01231920D01*
X00533000D02*
X00527920Y01242080D01*
X00538080D01*
X00533000Y01231920D01*
Y01181920D02*
X00527920Y01192080D01*
X00538080D01*
X00533000Y01181920D01*
Y01131920D02*
X00527920Y01142080D01*
X00538080D01*
X00533000Y01131920D01*
Y00906920D02*
X00527920Y00917080D01*
X00538080D01*
X00533000Y00906920D01*
Y00831920D02*
X00527920Y00842080D01*
X00538080D01*
X00533000Y00831920D01*
X00583000D02*
X00577920Y00842080D01*
X00588080D01*
X00583000Y00831920D01*
X00633000D02*
X00627920Y00842080D01*
X00638080D01*
X00633000Y00831920D01*
X00833000Y00906920D02*
X00827920Y00917080D01*
X00838080D01*
X00833000Y00906920D01*
X00933000Y00981920D02*
X00927920Y00992080D01*
X00938080D01*
X00933000Y00981920D01*
X00883000D02*
X00877920Y00992080D01*
X00888080D01*
X00883000Y00981920D01*
X00833000D02*
X00827920Y00992080D01*
X00838080D01*
X00833000Y00981920D01*
Y01031920D02*
X00827920Y01042080D01*
X00838080D01*
X00833000Y01031920D01*
X00883000Y01081920D02*
X00877920Y01092080D01*
X00888080D01*
X00883000Y01081920D01*
X00733000Y00956920D02*
X00727920Y00967080D01*
X00738080D01*
X00733000Y00956920D01*
X00633000Y00931920D02*
X00627920Y00942080D01*
X00638080D01*
X00633000Y00931920D01*
X00733000Y01181920D02*
X00727920Y01192080D01*
X00738080D01*
X00733000Y01181920D01*
Y01131920D02*
X00727920Y01142080D01*
X00738080D01*
X00733000Y01131920D01*
X00985400Y00881920D02*
X00980320Y00892080D01*
X00990480D01*
X00985400Y00881920D01*
D58*
X00800354Y00810006D02*
G03*
X00800354Y00810006I-00005080J00000000D01*
G01*
X00825754D02*
G03*
X00825754Y00810006I-00005080J00000000D01*
G01*
X00851154D02*
G03*
X00851154Y00810006I-00005080J00000000D01*
G01*
X00876554D02*
G03*
X00876554Y00810006I-00005080J00000000D01*
G01*
X00901954D02*
G03*
X00901954Y00810006I-00005080J00000000D01*
G01*
X00927354D02*
G03*
X00927354Y00810006I-00005080J00000000D01*
G01*
X00541274Y01100836D02*
G03*
X00541274Y01100836I-00005080J00000000D01*
G01*
X00566674D02*
G03*
X00566674Y01100836I-00005080J00000000D01*
G01*
X00592074D02*
G03*
X00592074Y01100836I-00005080J00000000D01*
G01*
X00617474D02*
G03*
X00617474Y01100836I-00005080J00000000D01*
G01*
X00983488Y01133094D02*
G03*
X00983488Y01133094I-00005080J00000000D01*
G01*
X00958088D02*
G03*
X00958088Y01133094I-00005080J00000000D01*
G01*
X00932688D02*
G03*
X00932688Y01133094I-00005080J00000000D01*
G01*
X00907288D02*
G03*
X00907288Y01133094I-00005080J00000000D01*
G01*
X00750316Y01071880D02*
G03*
X00750316Y01071880I-00005080J00000000D01*
G01*
X00724916D02*
G03*
X00724916Y01071880I-00005080J00000000D01*
G01*
X00699516D02*
G03*
X00699516Y01071880I-00005080J00000000D01*
G01*
X00674116D02*
G03*
X00674116Y01071880I-00005080J00000000D01*
G01*
M02*
