M48
;Layer_Color=9474304
;FILE_FORMAT=4:4
METRIC
;TYPE=PLATED
T1F00S00C0.3000
T2F00S00C0.9000
T3F00S00C3.5000
%
T01
X00833000Y00787000
X00883000
X00933000
X00983000
X00783000Y00785604
X00733000
X00683000Y00787000
X00633000
X00583000
X00533000
Y00837000
X00583000
X00569214Y00869442
X00569316Y00887120
X00533000Y00912000
X00633000Y00937000
X00685038Y00919480
X00700076Y00934010
X00733000Y00962000
X00757936Y00953516
X00789686Y01029208
X00657860Y01024128
X00733000Y01137000
Y01187000
X00533000
Y01137000
X00633000Y00837000
X00711200Y00831342
X00730758Y00836168
X00776478Y00849884
X00865124Y00847344
X00864616Y00856996
X00864362Y00866902
X00864616Y00877062
X00853948Y00898398
X00833000Y00912000
Y00987000
X00883000
X00933000
X00983000
Y00937000
X00985400Y00887000
X00954278Y00877316
X00953160Y00867308
X00919066Y00872062
X00909066
X00899066
Y00882062
X00909066
Y00892062
X00899066
X00919066
Y00882062
Y00862062
X00909066
X00899066
X00937514Y00832358
X00983000Y00837000
Y01037000
Y01087000
Y01162000
X00973074Y01178560
X00852692Y01166462
X00842692
X00832692
X00822692
Y01156462
Y01146462
X00832692
Y01156462
X00842692
Y01146462
X00852692
Y01156462
X00856996Y01112266
X00847852Y01112520
X00837674Y01112266
X00866902Y01112520
X00883000Y01087000
X00848512Y01060094
X00833000Y01037000
X00814832Y01101852
X00805688Y01092708
X00837692Y01201420
X00860298Y01198372
X00833000Y01237000
X00933000
X00983000
X00783000
X00733000
X00683000
X00633000
X00583000
X00583692Y01202436
X00533000Y01237000
T02
X00536194Y01100836
X00561594
X00586994
X00612394
X00669036Y01071880
X00694436
X00719836
X00745236
X00902208Y01133094
X00927608
X00953008
X00978408
X00922274Y00810006
X00896874
X00871474
X00846074
X00820674
X00795274
T03
X00558000Y00812000
X00958000
Y01212000
X00558000
M30
