%FSLAX44Y44*%
%MOMM*%
G71*
G01*
G75*
G04 Layer_Color=16711935*
%ADD10O,2.2000X0.6000*%
%ADD11R,0.9000X1.3000*%
%ADD12R,1.4000X0.6000*%
%ADD13R,1.3000X0.9000*%
%ADD14R,1.2500X1.5000*%
%ADD15R,0.6000X1.5000*%
%ADD16C,0.2540*%
%ADD17R,1.5000X1.5000*%
%ADD18C,1.5000*%
%ADD19C,4.7600*%
%ADD20R,1.6900X1.6900*%
%ADD21C,1.6900*%
%ADD22C,6.0000*%
%ADD23C,6.0000*%
%ADD24C,3.0000*%
%ADD25C,1.2700*%
%ADD26C,0.2500*%
%ADD27C,0.6000*%
%ADD28C,0.2000*%
%ADD29C,0.2540*%
%ADD30C,0.2032*%
%ADD31C,0.1500*%
%ADD32C,0.1016*%
%ADD33O,2.4032X0.8032*%
%ADD34R,1.1032X1.5032*%
%ADD35R,1.5032X1.1032*%
%ADD36R,1.4532X1.7032*%
%ADD37R,0.8032X1.7032*%
%ADD38R,1.7032X1.7032*%
%ADD39C,1.7032*%
%ADD40C,4.9632*%
%ADD41R,1.8932X1.8932*%
%ADD42C,1.8932*%
%ADD43C,6.2032*%
%ADD44C,6.2032*%
%ADD45C,3.2032*%
%ADD46C,1.4732*%
D38*
X179070Y90170D02*
D03*
D39*
Y115570D02*
D03*
D40*
X670070Y95000D02*
D03*
X919970D02*
D03*
X280180D02*
D03*
X530080D02*
D03*
D41*
X850420Y109200D02*
D03*
X460530D02*
D03*
D42*
X836570Y80800D02*
D03*
X822720Y109200D02*
D03*
X808870Y80800D02*
D03*
X795020Y109200D02*
D03*
X781170Y80800D02*
D03*
X767320Y109200D02*
D03*
X753470Y80800D02*
D03*
X739620Y109200D02*
D03*
X446680Y80800D02*
D03*
X432830Y109200D02*
D03*
X418980Y80800D02*
D03*
X405130Y109200D02*
D03*
X391280Y80800D02*
D03*
X377430Y109200D02*
D03*
X363580Y80800D02*
D03*
X349730Y109200D02*
D03*
D43*
X1099999Y182999D02*
D03*
X99999D02*
D03*
D44*
X675000Y253000D02*
D03*
X786892D02*
D03*
D45*
X898774D02*
D03*
X958850D02*
D03*
D46*
X475500Y211250D02*
D03*
X280750Y223000D02*
D03*
M02*
