%FSLAX44Y44*%
%MOMM*%
G71*
G01*
G75*
G04 Layer_Physical_Order=1*
G04 Layer_Color=255*
%ADD10O,2.2000X0.6000*%
%ADD11R,0.9000X1.3000*%
%ADD12R,1.4000X0.6000*%
%ADD13R,1.3000X0.9000*%
%ADD14R,1.2500X1.5000*%
%ADD15R,0.6000X1.5000*%
%ADD16C,0.2540*%
%ADD17R,1.5000X1.5000*%
%ADD18C,1.5000*%
%ADD19C,4.7600*%
%ADD20R,1.6900X1.6900*%
%ADD21C,1.6900*%
%ADD22C,6.0000*%
%ADD23C,6.0000*%
%ADD24C,3.0000*%
%ADD25C,1.2700*%
G36*
X1066800Y6350D02*
X584200D01*
Y59615D01*
X693920D01*
X695407Y59911D01*
X696667Y60753D01*
X735093Y99180D01*
X736751Y98493D01*
X739620Y98115D01*
X742489Y98493D01*
X745162Y99600D01*
X747458Y101362D01*
X749220Y103658D01*
X750327Y106331D01*
X750705Y109200D01*
X750327Y112069D01*
X749220Y114742D01*
X747458Y117038D01*
X745162Y118800D01*
X742489Y119907D01*
X739620Y120285D01*
X736751Y119907D01*
X734078Y118800D01*
X731782Y117038D01*
X730020Y114742D01*
X728913Y112069D01*
X728535Y109200D01*
X728913Y106331D01*
X729600Y104673D01*
X692311Y67385D01*
X671075D01*
X671026Y68616D01*
X671026D01*
X671025Y68654D01*
X674203Y68904D01*
X678235Y69872D01*
X682065Y71458D01*
X685600Y73625D01*
X688753Y76317D01*
X691445Y79470D01*
X693612Y83005D01*
X695198Y86835D01*
X696166Y90867D01*
X696491Y95000D01*
X696166Y99133D01*
X695198Y103165D01*
X693612Y106995D01*
X691445Y110530D01*
X688753Y113683D01*
X685600Y116375D01*
X682065Y118542D01*
X678235Y120128D01*
X674203Y121096D01*
X670070Y121421D01*
X665937Y121096D01*
X661905Y120128D01*
X658075Y118542D01*
X654540Y116375D01*
X651387Y113683D01*
X648695Y110530D01*
X646528Y106995D01*
X644942Y103165D01*
X643974Y99133D01*
X643649Y95000D01*
X643974Y90867D01*
X644942Y86835D01*
X646528Y83005D01*
X648695Y79470D01*
X651387Y76317D01*
X654540Y73625D01*
X658075Y71458D01*
X661905Y69872D01*
X665937Y68904D01*
X669115Y68654D01*
X669065Y67385D01*
X584200D01*
Y292100D01*
X1066800D01*
Y6350D01*
D02*
G37*
%LPC*%
G36*
X754740Y91718D02*
Y82070D01*
X764388D01*
X764177Y83669D01*
X763070Y86342D01*
X761308Y88638D01*
X759013Y90400D01*
X756339Y91507D01*
X754740Y91718D01*
D02*
G37*
G36*
X752200D02*
X750601Y91507D01*
X747928Y90400D01*
X745632Y88638D01*
X743870Y86342D01*
X742763Y83669D01*
X742552Y82070D01*
X752200D01*
Y91718D01*
D02*
G37*
G36*
X835300D02*
X833701Y91507D01*
X831028Y90400D01*
X828732Y88638D01*
X826970Y86342D01*
X825863Y83669D01*
X825652Y82070D01*
X835300D01*
Y91718D01*
D02*
G37*
G36*
X767320Y120285D02*
X764451Y119907D01*
X761778Y118800D01*
X759482Y117038D01*
X757720Y114742D01*
X756613Y112069D01*
X756235Y109200D01*
X756613Y106331D01*
X757720Y103658D01*
X759482Y101362D01*
X761778Y99600D01*
X764451Y98493D01*
X767320Y98115D01*
X770189Y98493D01*
X772862Y99600D01*
X775158Y101362D01*
X776920Y103658D01*
X778027Y106331D01*
X778405Y109200D01*
X778027Y112069D01*
X776920Y114742D01*
X775158Y117038D01*
X772862Y118800D01*
X770189Y119907D01*
X767320Y120285D01*
D02*
G37*
G36*
X837840Y91718D02*
Y82070D01*
X847488D01*
X847277Y83669D01*
X846170Y86342D01*
X844408Y88638D01*
X842113Y90400D01*
X839439Y91507D01*
X837840Y91718D01*
D02*
G37*
G36*
X847488Y79530D02*
X837840D01*
Y69882D01*
X839439Y70093D01*
X842113Y71200D01*
X844408Y72962D01*
X846170Y75258D01*
X847277Y77931D01*
X847488Y79530D01*
D02*
G37*
G36*
X808870Y91885D02*
X806001Y91507D01*
X803328Y90400D01*
X801032Y88638D01*
X799270Y86342D01*
X798163Y83669D01*
X797785Y80800D01*
X798163Y77931D01*
X799270Y75258D01*
X801032Y72962D01*
X803328Y71200D01*
X806001Y70093D01*
X808870Y69715D01*
X811739Y70093D01*
X814413Y71200D01*
X816708Y72962D01*
X818470Y75258D01*
X819577Y77931D01*
X819955Y80800D01*
X819577Y83669D01*
X818470Y86342D01*
X816708Y88638D01*
X814413Y90400D01*
X811739Y91507D01*
X808870Y91885D01*
D02*
G37*
G36*
X781170D02*
X778301Y91507D01*
X775628Y90400D01*
X773332Y88638D01*
X771570Y86342D01*
X770463Y83669D01*
X770085Y80800D01*
X770463Y77931D01*
X771570Y75258D01*
X773332Y72962D01*
X775628Y71200D01*
X778301Y70093D01*
X781170Y69715D01*
X784039Y70093D01*
X786712Y71200D01*
X789008Y72962D01*
X790770Y75258D01*
X791877Y77931D01*
X792255Y80800D01*
X791877Y83669D01*
X790770Y86342D01*
X789008Y88638D01*
X786712Y90400D01*
X784039Y91507D01*
X781170Y91885D01*
D02*
G37*
G36*
X919970Y121421D02*
X915837Y121096D01*
X911805Y120128D01*
X907975Y118542D01*
X904440Y116375D01*
X901287Y113683D01*
X898595Y110530D01*
X896428Y106995D01*
X894842Y103165D01*
X893874Y99133D01*
X893549Y95000D01*
X893874Y90867D01*
X894842Y86835D01*
X896428Y83005D01*
X898595Y79470D01*
X901287Y76317D01*
X904440Y73625D01*
X907975Y71458D01*
X911805Y69872D01*
X915837Y68904D01*
X919970Y68579D01*
X924103Y68904D01*
X928135Y69872D01*
X931965Y71458D01*
X935500Y73625D01*
X938653Y76317D01*
X941345Y79470D01*
X943512Y83005D01*
X945098Y86835D01*
X946066Y90867D01*
X946392Y95000D01*
X946066Y99133D01*
X945098Y103165D01*
X943512Y106995D01*
X941345Y110530D01*
X938653Y113683D01*
X935500Y116375D01*
X931965Y118542D01*
X928135Y120128D01*
X924103Y121096D01*
X919970Y121421D01*
D02*
G37*
G36*
X835300Y79530D02*
X825652D01*
X825863Y77931D01*
X826970Y75258D01*
X828732Y72962D01*
X831028Y71200D01*
X833701Y70093D01*
X835300Y69882D01*
Y79530D01*
D02*
G37*
G36*
X764388D02*
X754740D01*
Y69882D01*
X756339Y70093D01*
X759013Y71200D01*
X761308Y72962D01*
X763070Y75258D01*
X764177Y77931D01*
X764388Y79530D01*
D02*
G37*
G36*
X752200D02*
X742552D01*
X742763Y77931D01*
X743870Y75258D01*
X745632Y72962D01*
X747928Y71200D01*
X750601Y70093D01*
X752200Y69882D01*
Y79530D01*
D02*
G37*
G36*
X785622Y285541D02*
X781786Y285239D01*
X776805Y284043D01*
X772074Y282083D01*
X767706Y279407D01*
X763812Y276080D01*
X760485Y272186D01*
X757809Y267819D01*
X755849Y263086D01*
X754653Y258106D01*
X754351Y254270D01*
X785622D01*
Y285541D01*
D02*
G37*
G36*
X976350Y251730D02*
X960120D01*
Y235500D01*
X962288Y235714D01*
X965595Y236717D01*
X968642Y238346D01*
X971313Y240537D01*
X973504Y243208D01*
X975133Y246255D01*
X976136Y249562D01*
X976350Y251730D01*
D02*
G37*
G36*
X957580D02*
X941350D01*
X941564Y249562D01*
X942567Y246255D01*
X944195Y243208D01*
X946387Y240537D01*
X949058Y238346D01*
X952105Y236717D01*
X955412Y235714D01*
X957580Y235500D01*
Y251730D01*
D02*
G37*
G36*
X960120Y270500D02*
Y254270D01*
X976350D01*
X976136Y256439D01*
X975133Y259745D01*
X973504Y262792D01*
X971313Y265463D01*
X968642Y267654D01*
X965595Y269283D01*
X962288Y270286D01*
X960120Y270500D01*
D02*
G37*
G36*
X957580D02*
X955412Y270286D01*
X952105Y269283D01*
X949058Y267654D01*
X946387Y265463D01*
X944195Y262792D01*
X942567Y259745D01*
X941564Y256439D01*
X941350Y254270D01*
X957580D01*
Y270500D01*
D02*
G37*
G36*
X788162Y285541D02*
Y254270D01*
X819433D01*
X819131Y258106D01*
X817935Y263086D01*
X815975Y267819D01*
X813299Y272186D01*
X809972Y276080D01*
X806078Y279407D01*
X801711Y282083D01*
X796979Y284043D01*
X791998Y285239D01*
X788162Y285541D01*
D02*
G37*
G36*
X898774Y270625D02*
X895335Y270286D01*
X892029Y269283D01*
X888982Y267654D01*
X886311Y265463D01*
X884119Y262792D01*
X882491Y259745D01*
X881488Y256439D01*
X881149Y253000D01*
X881488Y249562D01*
X882491Y246255D01*
X884119Y243208D01*
X886311Y240537D01*
X888982Y238346D01*
X892029Y236717D01*
X895335Y235714D01*
X898774Y235375D01*
X902212Y235714D01*
X905519Y236717D01*
X908566Y238346D01*
X911237Y240537D01*
X913428Y243208D01*
X915057Y246255D01*
X916060Y249562D01*
X916399Y253000D01*
X916060Y256439D01*
X915057Y259745D01*
X913428Y262792D01*
X911237Y265463D01*
X908566Y267654D01*
X905519Y269283D01*
X902212Y270286D01*
X898774Y270625D01*
D02*
G37*
G36*
X861410Y120190D02*
X839430D01*
Y98210D01*
X861410D01*
Y120190D01*
D02*
G37*
G36*
X822720Y120285D02*
X819851Y119907D01*
X817178Y118800D01*
X814882Y117038D01*
X813120Y114742D01*
X812013Y112069D01*
X811635Y109200D01*
X812013Y106331D01*
X813120Y103658D01*
X814882Y101362D01*
X817178Y99600D01*
X819851Y98493D01*
X822720Y98115D01*
X825589Y98493D01*
X828262Y99600D01*
X830558Y101362D01*
X832320Y103658D01*
X833427Y106331D01*
X833805Y109200D01*
X833427Y112069D01*
X832320Y114742D01*
X830558Y117038D01*
X828262Y118800D01*
X825589Y119907D01*
X822720Y120285D01*
D02*
G37*
G36*
X795020D02*
X792151Y119907D01*
X789478Y118800D01*
X787182Y117038D01*
X785420Y114742D01*
X784313Y112069D01*
X783935Y109200D01*
X784313Y106331D01*
X785420Y103658D01*
X787182Y101362D01*
X789478Y99600D01*
X792151Y98493D01*
X795020Y98115D01*
X797889Y98493D01*
X800562Y99600D01*
X802858Y101362D01*
X804620Y103658D01*
X805727Y106331D01*
X806105Y109200D01*
X805727Y112069D01*
X804620Y114742D01*
X802858Y117038D01*
X800562Y118800D01*
X797889Y119907D01*
X795020Y120285D01*
D02*
G37*
G36*
X819433Y251730D02*
X788162D01*
Y220459D01*
X791998Y220761D01*
X796979Y221957D01*
X801711Y223917D01*
X806078Y226593D01*
X809972Y229920D01*
X813299Y233814D01*
X815975Y238181D01*
X817935Y242913D01*
X819131Y247894D01*
X819433Y251730D01*
D02*
G37*
G36*
X785622D02*
X754351D01*
X754653Y247894D01*
X755849Y242913D01*
X757809Y238181D01*
X760485Y233814D01*
X763812Y229920D01*
X767706Y226593D01*
X772074Y223917D01*
X776805Y221957D01*
X781786Y220761D01*
X785622Y220459D01*
Y251730D01*
D02*
G37*
G36*
X675000Y285641D02*
X669894Y285239D01*
X664913Y284043D01*
X660182Y282083D01*
X655814Y279407D01*
X651920Y276080D01*
X648593Y272186D01*
X645917Y267819D01*
X643957Y263086D01*
X642761Y258106D01*
X642359Y253000D01*
X642761Y247894D01*
X643957Y242913D01*
X645917Y238181D01*
X648593Y233814D01*
X651920Y229920D01*
X655814Y226593D01*
X660182Y223917D01*
X664913Y221957D01*
X669894Y220761D01*
X675000Y220359D01*
X680106Y220761D01*
X685087Y221957D01*
X689818Y223917D01*
X694186Y226593D01*
X698080Y229920D01*
X701407Y233814D01*
X704083Y238181D01*
X706043Y242913D01*
X707239Y247894D01*
X707641Y253000D01*
X707239Y258106D01*
X706043Y263086D01*
X704083Y267819D01*
X701407Y272186D01*
X698080Y276080D01*
X694186Y279407D01*
X689818Y282083D01*
X685087Y284043D01*
X680106Y285239D01*
X675000Y285641D01*
D02*
G37*
%LPD*%
D10*
X130680Y83820D02*
D03*
Y96520D02*
D03*
Y109220D02*
D03*
Y121920D02*
D03*
X82680Y83820D02*
D03*
Y96520D02*
D03*
Y109220D02*
D03*
Y121920D02*
D03*
X362540Y232150D02*
D03*
Y244850D02*
D03*
Y257550D02*
D03*
Y270250D02*
D03*
X314540Y232150D02*
D03*
Y244850D02*
D03*
Y257550D02*
D03*
Y270250D02*
D03*
D11*
X340250Y160250D02*
D03*
X316250D02*
D03*
X377000Y160000D02*
D03*
X401000D02*
D03*
D12*
X456750Y195250D02*
D03*
Y203250D02*
D03*
Y211250D02*
D03*
X496500Y195000D02*
D03*
Y203000D02*
D03*
Y211000D02*
D03*
D13*
X207000Y270000D02*
D03*
Y246000D02*
D03*
X244000Y270250D02*
D03*
Y246250D02*
D03*
D14*
X280120Y245050D02*
D03*
Y270050D02*
D03*
D15*
X205000Y164492D02*
D03*
X196100Y183000D02*
D03*
X213900D02*
D03*
D16*
X314340Y245050D02*
X314540Y244850D01*
X280120Y245050D02*
X314340D01*
X280120Y270050D02*
X280320Y270250D01*
X314540D01*
X143510Y109220D02*
X162560Y90170D01*
X179070D01*
X153670Y115570D02*
X179070D01*
X147320Y121920D02*
X153670Y115570D01*
X130680Y121920D02*
X147320D01*
X82680D02*
X101600D01*
X130680Y109220D02*
X143510D01*
X114300D02*
X130680D01*
X101600Y121920D02*
X114300Y109220D01*
X244200Y270050D02*
X280120D01*
X244000Y270250D02*
X244200Y270050D01*
X207250Y270250D02*
X244000D01*
X207000Y270000D02*
X207250Y270250D01*
X263800Y257550D02*
X314540D01*
X252500Y246250D02*
X263800Y257550D01*
X244000Y246250D02*
X252500D01*
X213650Y215900D02*
X244000Y246250D01*
X213650Y179750D02*
Y215900D01*
X195850Y179750D02*
Y215850D01*
X205250Y225250D01*
Y244250D01*
X207000Y246000D01*
X340500Y160000D02*
X377000D01*
X340250Y160250D02*
X340500Y160000D01*
X316250Y160250D02*
Y230440D01*
X316380Y230310D01*
X314540Y232150D02*
X316250Y230440D01*
X362540Y198460D02*
Y232150D01*
Y198460D02*
X401000Y160000D01*
X363580Y80800D02*
X373942D01*
X314540Y257550D02*
X319471D01*
X182250Y267750D02*
X200250Y285750D01*
X346400Y244850D02*
X362540D01*
X316250Y142680D02*
Y160250D01*
Y142680D02*
X349730Y109200D01*
X179070Y115570D02*
X204070D01*
X213650Y125150D01*
Y179750D01*
X339750Y251500D02*
X346400Y244850D01*
X200250Y285750D02*
X327500D01*
X339750Y273500D01*
Y251500D02*
Y273500D01*
X340250Y160250D02*
Y239000D01*
X331125Y248125D02*
X340250Y239000D01*
X314540Y270250D02*
X326250D01*
X331125Y265375D01*
Y248125D02*
Y265375D01*
X373942Y80800D02*
X391500Y98358D01*
Y105492D01*
X391250Y105742D02*
X391500Y105492D01*
Y130500D01*
X401000Y140000D01*
Y160000D01*
X447000Y203250D02*
X456750D01*
X392700Y257550D02*
X447000Y203250D01*
X362540Y257550D02*
X392700D01*
X362540Y270250D02*
X461250D01*
X512000Y219500D01*
X497690Y204190D02*
X505078D01*
X512000Y211112D02*
Y219500D01*
X505078Y204190D02*
X512000Y211112D01*
X496500Y203000D02*
X497690Y204190D01*
X345000Y75500D02*
X357000Y63500D01*
X345000Y75500D02*
Y87132D01*
X365170Y107302D01*
Y121460D01*
X377000Y133290D01*
Y160000D01*
X457000Y195000D02*
X496500D01*
X456750Y211250D02*
X475500D01*
X496250D01*
X496500Y211000D01*
X280750Y223000D02*
Y244420D01*
X280120Y245050D02*
X280750Y244420D01*
X693920Y63500D02*
X739620Y109200D01*
X496500Y87700D02*
Y195000D01*
X357000Y63500D02*
X520700D01*
X693920D01*
X496500Y87700D02*
X520700Y63500D01*
X202500Y164000D02*
X204750Y161750D01*
X182250Y171750D02*
Y267750D01*
Y171750D02*
X190000Y164000D01*
X202500D01*
D17*
X179070Y90170D02*
D03*
D18*
Y115570D02*
D03*
D19*
X670070Y95000D02*
D03*
X919970D02*
D03*
X280180D02*
D03*
X530080D02*
D03*
D20*
X850420Y109200D02*
D03*
X460530D02*
D03*
D21*
X836570Y80800D02*
D03*
X822720Y109200D02*
D03*
X808870Y80800D02*
D03*
X795020Y109200D02*
D03*
X781170Y80800D02*
D03*
X767320Y109200D02*
D03*
X753470Y80800D02*
D03*
X739620Y109200D02*
D03*
X446680Y80800D02*
D03*
X432830Y109200D02*
D03*
X418980Y80800D02*
D03*
X405130Y109200D02*
D03*
X391280Y80800D02*
D03*
X377430Y109200D02*
D03*
X363580Y80800D02*
D03*
X349730Y109200D02*
D03*
D22*
X1099999Y182999D02*
D03*
X99999D02*
D03*
D23*
X675000Y253000D02*
D03*
X786892D02*
D03*
D24*
X898774D02*
D03*
X958850D02*
D03*
D25*
X475500Y211250D02*
D03*
X280750Y223000D02*
D03*
M02*
