M48
;Layer_Color=9474304
;FILE_FORMAT=4:4
METRIC,LZ
;TYPE=PLATED
T1F00S00C0.7112
T2F00S00C0.9000
T3F00S00C1.0900
T4F00S00C1.5000
T5F00S00C3.0000
T6F00S00C3.2600
T7F00S00C3.5000
%
T01
X004755Y0021125
X0028075Y00223
T02
X0017907Y0009017
Y0011557
T03
X0036358Y000808
X0039128
X0041898
X0044668
X0075347
X0078117
X0080887
X0083657
X0085042Y001092
X0082272
X0079502
X0076732
X0073962
X0046053
X0043283
X0040513
X0037743
X0034973
T04
X00898774Y00253
X0095885
T05
X00675Y00253
X00786892
T06
X0028018Y00095
X0053008
X0067007
X0091997
T07
X01099999Y00182999
X00099999
M30
