%FSLAX44Y44*%
%MOMM*%
G71*
G01*
G75*
G04 Layer_Physical_Order=2*
G04 Layer_Color=16711680*
%ADD10O,2.2000X0.6000*%
%ADD11R,0.9000X1.3000*%
%ADD12R,1.4000X0.6000*%
%ADD13R,1.3000X0.9000*%
%ADD14R,1.2500X1.5000*%
%ADD15R,0.6000X1.5000*%
%ADD16C,0.2540*%
%ADD17R,1.5000X1.5000*%
%ADD18C,1.5000*%
%ADD19C,4.7600*%
%ADD20R,1.6900X1.6900*%
%ADD21C,1.6900*%
%ADD22C,6.0000*%
%ADD23C,6.0000*%
%ADD24C,3.0000*%
%ADD25C,1.2700*%
G36*
X1198750Y1750D02*
X1198250Y1250D01*
X1250D01*
Y298750D01*
X1198750D01*
Y1750D01*
D02*
G37*
%LPC*%
G36*
X782440Y91718D02*
Y82070D01*
X792088D01*
X791877Y83669D01*
X790770Y86342D01*
X789008Y88638D01*
X786712Y90400D01*
X784039Y91507D01*
X782440Y91718D01*
D02*
G37*
G36*
X807600D02*
X806001Y91507D01*
X803328Y90400D01*
X801032Y88638D01*
X799270Y86342D01*
X798163Y83669D01*
X797952Y82070D01*
X807600D01*
Y91718D01*
D02*
G37*
G36*
X810140D02*
Y82070D01*
X819788D01*
X819577Y83669D01*
X818470Y86342D01*
X816708Y88638D01*
X814413Y90400D01*
X811739Y91507D01*
X810140Y91718D01*
D02*
G37*
G36*
X177800Y88900D02*
X169030D01*
Y80130D01*
X177800D01*
Y88900D01*
D02*
G37*
G36*
X189110D02*
X180340D01*
Y80130D01*
X189110D01*
Y88900D01*
D02*
G37*
G36*
X779900Y91718D02*
X778301Y91507D01*
X775628Y90400D01*
X773332Y88638D01*
X771570Y86342D01*
X770463Y83669D01*
X770252Y82070D01*
X779900D01*
Y91718D01*
D02*
G37*
G36*
X177800Y100210D02*
X169030D01*
Y91440D01*
X177800D01*
Y100210D01*
D02*
G37*
G36*
X739620Y120285D02*
X736751Y119907D01*
X734078Y118800D01*
X731782Y117038D01*
X730020Y114742D01*
X728913Y112069D01*
X728535Y109200D01*
X728913Y106331D01*
X730020Y103658D01*
X731782Y101362D01*
X734078Y99600D01*
X736751Y98493D01*
X739620Y98115D01*
X742489Y98493D01*
X745162Y99600D01*
X747458Y101362D01*
X749220Y103658D01*
X750327Y106331D01*
X750705Y109200D01*
X750327Y112069D01*
X749220Y114742D01*
X747458Y117038D01*
X745162Y118800D01*
X742489Y119907D01*
X739620Y120285D01*
D02*
G37*
G36*
X795020D02*
X792151Y119907D01*
X789478Y118800D01*
X787182Y117038D01*
X785420Y114742D01*
X784313Y112069D01*
X783935Y109200D01*
X784313Y106331D01*
X785420Y103658D01*
X787182Y101362D01*
X789478Y99600D01*
X792151Y98493D01*
X795020Y98115D01*
X797889Y98493D01*
X800562Y99600D01*
X802858Y101362D01*
X804620Y103658D01*
X805727Y106331D01*
X806105Y109200D01*
X805727Y112069D01*
X804620Y114742D01*
X802858Y117038D01*
X800562Y118800D01*
X797889Y119907D01*
X795020Y120285D01*
D02*
G37*
G36*
X822720D02*
X819851Y119907D01*
X817178Y118800D01*
X814882Y117038D01*
X813120Y114742D01*
X812013Y112069D01*
X811635Y109200D01*
X812013Y106331D01*
X813120Y103658D01*
X814882Y101362D01*
X817178Y99600D01*
X819851Y98493D01*
X822720Y98115D01*
X825589Y98493D01*
X828262Y99600D01*
X830558Y101362D01*
X832320Y103658D01*
X833427Y106331D01*
X833805Y109200D01*
X833427Y112069D01*
X832320Y114742D01*
X830558Y117038D01*
X828262Y118800D01*
X825589Y119907D01*
X822720Y120285D01*
D02*
G37*
G36*
X189110Y100210D02*
X180340D01*
Y91440D01*
X189110D01*
Y100210D01*
D02*
G37*
G36*
X405130Y120285D02*
X402261Y119907D01*
X399588Y118800D01*
X397292Y117038D01*
X395530Y114742D01*
X394423Y112069D01*
X394045Y109200D01*
X394423Y106331D01*
X395530Y103658D01*
X397292Y101362D01*
X399588Y99600D01*
X402261Y98493D01*
X405130Y98115D01*
X407999Y98493D01*
X410672Y99600D01*
X412968Y101362D01*
X414730Y103658D01*
X415837Y106331D01*
X416215Y109200D01*
X415837Y112069D01*
X414730Y114742D01*
X412968Y117038D01*
X410672Y118800D01*
X407999Y119907D01*
X405130Y120285D01*
D02*
G37*
G36*
X432830D02*
X429961Y119907D01*
X427288Y118800D01*
X424992Y117038D01*
X423230Y114742D01*
X422123Y112069D01*
X421745Y109200D01*
X422123Y106331D01*
X423230Y103658D01*
X424992Y101362D01*
X427288Y99600D01*
X429961Y98493D01*
X432830Y98115D01*
X435699Y98493D01*
X438372Y99600D01*
X440668Y101362D01*
X442430Y103658D01*
X443537Y106331D01*
X443915Y109200D01*
X443537Y112069D01*
X442430Y114742D01*
X440668Y117038D01*
X438372Y118800D01*
X435699Y119907D01*
X432830Y120285D01*
D02*
G37*
G36*
X363580Y91885D02*
X360711Y91507D01*
X358038Y90400D01*
X355742Y88638D01*
X353980Y86342D01*
X352873Y83669D01*
X352495Y80800D01*
X352873Y77931D01*
X353980Y75258D01*
X355742Y72962D01*
X358038Y71200D01*
X360711Y70093D01*
X363580Y69715D01*
X366449Y70093D01*
X369123Y71200D01*
X371418Y72962D01*
X373180Y75258D01*
X374287Y77931D01*
X374665Y80800D01*
X374287Y83669D01*
X373180Y86342D01*
X371418Y88638D01*
X369123Y90400D01*
X366449Y91507D01*
X363580Y91885D01*
D02*
G37*
G36*
X391280D02*
X388411Y91507D01*
X385738Y90400D01*
X383442Y88638D01*
X381680Y86342D01*
X380573Y83669D01*
X380195Y80800D01*
X380573Y77931D01*
X381680Y75258D01*
X383442Y72962D01*
X385738Y71200D01*
X388411Y70093D01*
X391280Y69715D01*
X394149Y70093D01*
X396822Y71200D01*
X399118Y72962D01*
X400880Y75258D01*
X401987Y77931D01*
X402365Y80800D01*
X401987Y83669D01*
X400880Y86342D01*
X399118Y88638D01*
X396822Y90400D01*
X394149Y91507D01*
X391280Y91885D01*
D02*
G37*
G36*
X418980D02*
X416111Y91507D01*
X413438Y90400D01*
X411142Y88638D01*
X409380Y86342D01*
X408273Y83669D01*
X407895Y80800D01*
X408273Y77931D01*
X409380Y75258D01*
X411142Y72962D01*
X413438Y71200D01*
X416111Y70093D01*
X418980Y69715D01*
X421849Y70093D01*
X424523Y71200D01*
X426818Y72962D01*
X428580Y75258D01*
X429687Y77931D01*
X430065Y80800D01*
X429687Y83669D01*
X428580Y86342D01*
X426818Y88638D01*
X424523Y90400D01*
X421849Y91507D01*
X418980Y91885D01*
D02*
G37*
G36*
X530080Y121421D02*
X525947Y121096D01*
X521915Y120128D01*
X518085Y118542D01*
X514550Y116375D01*
X511397Y113683D01*
X508705Y110530D01*
X506538Y106995D01*
X504952Y103165D01*
X503984Y99133D01*
X503658Y95000D01*
X503984Y90867D01*
X504952Y86835D01*
X506538Y83005D01*
X508705Y79470D01*
X511397Y76317D01*
X514550Y73625D01*
X518085Y71458D01*
X521915Y69872D01*
X525947Y68904D01*
X530080Y68579D01*
X534213Y68904D01*
X538245Y69872D01*
X542075Y71458D01*
X545610Y73625D01*
X548763Y76317D01*
X551455Y79470D01*
X553622Y83005D01*
X555208Y86835D01*
X556176Y90867D01*
X556502Y95000D01*
X556176Y99133D01*
X555208Y103165D01*
X553622Y106995D01*
X551455Y110530D01*
X548763Y113683D01*
X545610Y116375D01*
X542075Y118542D01*
X538245Y120128D01*
X534213Y121096D01*
X530080Y121421D01*
D02*
G37*
G36*
X670070D02*
X665937Y121096D01*
X661905Y120128D01*
X658075Y118542D01*
X654540Y116375D01*
X651387Y113683D01*
X648695Y110530D01*
X646528Y106995D01*
X644942Y103165D01*
X643974Y99133D01*
X643649Y95000D01*
X643974Y90867D01*
X644942Y86835D01*
X646528Y83005D01*
X648695Y79470D01*
X651387Y76317D01*
X654540Y73625D01*
X658075Y71458D01*
X661905Y69872D01*
X665937Y68904D01*
X670070Y68579D01*
X674203Y68904D01*
X678235Y69872D01*
X682065Y71458D01*
X685600Y73625D01*
X688753Y76317D01*
X691445Y79470D01*
X693612Y83005D01*
X695198Y86835D01*
X696166Y90867D01*
X696491Y95000D01*
X696166Y99133D01*
X695198Y103165D01*
X693612Y106995D01*
X691445Y110530D01*
X688753Y113683D01*
X685600Y116375D01*
X682065Y118542D01*
X678235Y120128D01*
X674203Y121096D01*
X670070Y121421D01*
D02*
G37*
G36*
X919970D02*
X915837Y121096D01*
X911805Y120128D01*
X907975Y118542D01*
X904440Y116375D01*
X901287Y113683D01*
X898595Y110530D01*
X896428Y106995D01*
X894842Y103165D01*
X893874Y99133D01*
X893549Y95000D01*
X893874Y90867D01*
X894842Y86835D01*
X896428Y83005D01*
X898595Y79470D01*
X901287Y76317D01*
X904440Y73625D01*
X907975Y71458D01*
X911805Y69872D01*
X915837Y68904D01*
X919970Y68579D01*
X924103Y68904D01*
X928135Y69872D01*
X931965Y71458D01*
X935500Y73625D01*
X938653Y76317D01*
X941345Y79470D01*
X943512Y83005D01*
X945098Y86835D01*
X946066Y90867D01*
X946392Y95000D01*
X946066Y99133D01*
X945098Y103165D01*
X943512Y106995D01*
X941345Y110530D01*
X938653Y113683D01*
X935500Y116375D01*
X931965Y118542D01*
X928135Y120128D01*
X924103Y121096D01*
X919970Y121421D01*
D02*
G37*
G36*
X446680Y91885D02*
X443811Y91507D01*
X441138Y90400D01*
X438842Y88638D01*
X437080Y86342D01*
X435973Y83669D01*
X435595Y80800D01*
X435973Y77931D01*
X437080Y75258D01*
X438842Y72962D01*
X441138Y71200D01*
X443811Y70093D01*
X446680Y69715D01*
X449549Y70093D01*
X452223Y71200D01*
X454518Y72962D01*
X456280Y75258D01*
X457387Y77931D01*
X457765Y80800D01*
X457387Y83669D01*
X456280Y86342D01*
X454518Y88638D01*
X452223Y90400D01*
X449549Y91507D01*
X446680Y91885D01*
D02*
G37*
G36*
X792088Y79530D02*
X782440D01*
Y69882D01*
X784039Y70093D01*
X786712Y71200D01*
X789008Y72962D01*
X790770Y75258D01*
X791877Y77931D01*
X792088Y79530D01*
D02*
G37*
G36*
X807600D02*
X797952D01*
X798163Y77931D01*
X799270Y75258D01*
X801032Y72962D01*
X803328Y71200D01*
X806001Y70093D01*
X807600Y69882D01*
Y79530D01*
D02*
G37*
G36*
X819788D02*
X810140D01*
Y69882D01*
X811739Y70093D01*
X814413Y71200D01*
X816708Y72962D01*
X818470Y75258D01*
X819577Y77931D01*
X819788Y79530D01*
D02*
G37*
G36*
X753470Y91885D02*
X750601Y91507D01*
X747928Y90400D01*
X745632Y88638D01*
X743870Y86342D01*
X742763Y83669D01*
X742385Y80800D01*
X742763Y77931D01*
X743870Y75258D01*
X745632Y72962D01*
X747928Y71200D01*
X750601Y70093D01*
X753470Y69715D01*
X756339Y70093D01*
X759013Y71200D01*
X761308Y72962D01*
X763070Y75258D01*
X764177Y77931D01*
X764555Y80800D01*
X764177Y83669D01*
X763070Y86342D01*
X761308Y88638D01*
X759013Y90400D01*
X756339Y91507D01*
X753470Y91885D01*
D02*
G37*
G36*
X836570D02*
X833701Y91507D01*
X831028Y90400D01*
X828732Y88638D01*
X826970Y86342D01*
X825863Y83669D01*
X825485Y80800D01*
X825863Y77931D01*
X826970Y75258D01*
X828732Y72962D01*
X831028Y71200D01*
X833701Y70093D01*
X836570Y69715D01*
X839439Y70093D01*
X842113Y71200D01*
X844408Y72962D01*
X846170Y75258D01*
X847277Y77931D01*
X847655Y80800D01*
X847277Y83669D01*
X846170Y86342D01*
X844408Y88638D01*
X842113Y90400D01*
X839439Y91507D01*
X836570Y91885D01*
D02*
G37*
G36*
X779900Y79530D02*
X770252D01*
X770463Y77931D01*
X771570Y75258D01*
X773332Y72962D01*
X775628Y71200D01*
X778301Y70093D01*
X779900Y69882D01*
Y79530D01*
D02*
G37*
G36*
X707541Y251730D02*
X676270D01*
Y220459D01*
X680106Y220761D01*
X685087Y221957D01*
X689818Y223917D01*
X694186Y226593D01*
X698080Y229920D01*
X701407Y233814D01*
X704083Y238181D01*
X706043Y242913D01*
X707239Y247894D01*
X707541Y251730D01*
D02*
G37*
G36*
X279480Y231800D02*
X278429Y231661D01*
X276267Y230765D01*
X274410Y229340D01*
X272985Y227483D01*
X272089Y225321D01*
X271950Y224270D01*
X279480D01*
Y231800D01*
D02*
G37*
G36*
X282020D02*
Y224270D01*
X289550D01*
X289411Y225321D01*
X288515Y227483D01*
X287090Y229340D01*
X285233Y230765D01*
X283071Y231661D01*
X282020Y231800D01*
D02*
G37*
G36*
X289550Y221730D02*
X282020D01*
Y214200D01*
X283071Y214339D01*
X285233Y215235D01*
X287090Y216660D01*
X288515Y218517D01*
X289411Y220679D01*
X289550Y221730D01*
D02*
G37*
G36*
X786892Y285641D02*
X781786Y285239D01*
X776805Y284043D01*
X772074Y282083D01*
X767706Y279407D01*
X763812Y276080D01*
X760485Y272186D01*
X757809Y267819D01*
X755849Y263086D01*
X754653Y258106D01*
X754251Y253000D01*
X754653Y247894D01*
X755849Y242913D01*
X757809Y238181D01*
X760485Y233814D01*
X763812Y229920D01*
X767706Y226593D01*
X772074Y223917D01*
X776805Y221957D01*
X781786Y220761D01*
X786892Y220359D01*
X791998Y220761D01*
X796979Y221957D01*
X801711Y223917D01*
X806078Y226593D01*
X809972Y229920D01*
X813299Y233814D01*
X815975Y238181D01*
X817935Y242913D01*
X819131Y247894D01*
X819533Y253000D01*
X819131Y258106D01*
X817935Y263086D01*
X815975Y267819D01*
X813299Y272186D01*
X809972Y276080D01*
X806078Y279407D01*
X801711Y282083D01*
X796979Y284043D01*
X791998Y285239D01*
X786892Y285641D01*
D02*
G37*
G36*
X673730Y251730D02*
X642459D01*
X642761Y247894D01*
X643957Y242913D01*
X645917Y238181D01*
X648593Y233814D01*
X651920Y229920D01*
X655814Y226593D01*
X660182Y223917D01*
X664913Y221957D01*
X669894Y220761D01*
X673730Y220459D01*
Y251730D01*
D02*
G37*
G36*
X958850Y270625D02*
X955412Y270286D01*
X952105Y269283D01*
X949058Y267654D01*
X946387Y265463D01*
X944195Y262792D01*
X942567Y259745D01*
X941564Y256439D01*
X941225Y253000D01*
X941564Y249562D01*
X942567Y246255D01*
X944195Y243208D01*
X946387Y240537D01*
X949058Y238346D01*
X952105Y236717D01*
X955412Y235714D01*
X958850Y235375D01*
X962288Y235714D01*
X965595Y236717D01*
X968642Y238346D01*
X971313Y240537D01*
X973504Y243208D01*
X975133Y246255D01*
X976136Y249562D01*
X976475Y253000D01*
X976136Y256439D01*
X975133Y259745D01*
X973504Y262792D01*
X971313Y265463D01*
X968642Y267654D01*
X965595Y269283D01*
X962288Y270286D01*
X958850Y270625D01*
D02*
G37*
G36*
X676270Y285541D02*
Y254270D01*
X707541D01*
X707239Y258106D01*
X706043Y263086D01*
X704083Y267819D01*
X701407Y272186D01*
X698080Y276080D01*
X694186Y279407D01*
X689818Y282083D01*
X685087Y284043D01*
X680106Y285239D01*
X676270Y285541D01*
D02*
G37*
G36*
X897504Y270500D02*
X895335Y270286D01*
X892029Y269283D01*
X888982Y267654D01*
X886311Y265463D01*
X884119Y262792D01*
X882491Y259745D01*
X881488Y256439D01*
X881274Y254270D01*
X897504D01*
Y270500D01*
D02*
G37*
G36*
X900044D02*
Y254270D01*
X916274D01*
X916060Y256439D01*
X915057Y259745D01*
X913428Y262792D01*
X911237Y265463D01*
X908566Y267654D01*
X905519Y269283D01*
X902212Y270286D01*
X900044Y270500D01*
D02*
G37*
G36*
X897504Y251730D02*
X881274D01*
X881488Y249562D01*
X882491Y246255D01*
X884119Y243208D01*
X886311Y240537D01*
X888982Y238346D01*
X892029Y236717D01*
X895335Y235714D01*
X897504Y235500D01*
Y251730D01*
D02*
G37*
G36*
X916274D02*
X900044D01*
Y235500D01*
X902212Y235714D01*
X905519Y236717D01*
X908566Y238346D01*
X911237Y240537D01*
X913428Y243208D01*
X915057Y246255D01*
X916060Y249562D01*
X916274Y251730D01*
D02*
G37*
G36*
X673730Y285541D02*
X669894Y285239D01*
X664913Y284043D01*
X660182Y282083D01*
X655814Y279407D01*
X651920Y276080D01*
X648593Y272186D01*
X645917Y267819D01*
X643957Y263086D01*
X642761Y258106D01*
X642459Y254270D01*
X673730D01*
Y285541D01*
D02*
G37*
G36*
X279480Y221730D02*
X271950D01*
X272089Y220679D01*
X272985Y218517D01*
X274410Y216660D01*
X276267Y215235D01*
X278429Y214339D01*
X279480Y214200D01*
Y221730D01*
D02*
G37*
G36*
X778238Y107930D02*
X768590D01*
Y98282D01*
X770189Y98493D01*
X772862Y99600D01*
X775158Y101362D01*
X776920Y103658D01*
X778027Y106331D01*
X778238Y107930D01*
D02*
G37*
G36*
X766050Y120118D02*
X764451Y119907D01*
X761778Y118800D01*
X759482Y117038D01*
X757720Y114742D01*
X756613Y112069D01*
X756402Y110470D01*
X766050D01*
Y120118D01*
D02*
G37*
G36*
X768590D02*
Y110470D01*
X778238D01*
X778027Y112069D01*
X776920Y114742D01*
X775158Y117038D01*
X772862Y118800D01*
X770189Y119907D01*
X768590Y120118D01*
D02*
G37*
G36*
X471520Y120190D02*
X449540D01*
Y98210D01*
X471520D01*
Y120190D01*
D02*
G37*
G36*
X861410D02*
X839430D01*
Y98210D01*
X861410D01*
Y120190D01*
D02*
G37*
G36*
X766050Y107930D02*
X756402D01*
X756613Y106331D01*
X757720Y103658D01*
X759482Y101362D01*
X761778Y99600D01*
X764451Y98493D01*
X766050Y98282D01*
Y107930D01*
D02*
G37*
G36*
X353658Y126495D02*
X268744D01*
X267257Y126199D01*
X265997Y125357D01*
X260095Y119455D01*
X188328D01*
X187840Y120633D01*
X186231Y122731D01*
X184133Y124340D01*
X181691Y125352D01*
X179070Y125697D01*
X176449Y125352D01*
X174007Y124340D01*
X171909Y122731D01*
X170300Y120633D01*
X169288Y118191D01*
X168943Y115570D01*
X169288Y112949D01*
X170300Y110507D01*
X171909Y108409D01*
X174007Y106800D01*
X176449Y105788D01*
X179070Y105443D01*
X181691Y105788D01*
X184133Y106800D01*
X186231Y108409D01*
X187840Y110507D01*
X188328Y111685D01*
X258274D01*
X258806Y110532D01*
X258805Y110530D01*
X256638Y106995D01*
X255052Y103165D01*
X254084Y99133D01*
X253759Y95000D01*
X254084Y90867D01*
X255052Y86835D01*
X256638Y83005D01*
X258805Y79470D01*
X261497Y76317D01*
X264650Y73625D01*
X268185Y71458D01*
X272015Y69872D01*
X276047Y68904D01*
X280180Y68579D01*
X284313Y68904D01*
X288345Y69872D01*
X292175Y71458D01*
X295710Y73625D01*
X298863Y76317D01*
X301555Y79470D01*
X303722Y83005D01*
X305308Y86835D01*
X306276Y90867D01*
X306602Y95000D01*
X306276Y99133D01*
X305308Y103165D01*
X303722Y106995D01*
X301555Y110530D01*
X298863Y113683D01*
X295710Y116375D01*
X292175Y118542D01*
X292212Y118725D01*
X342115D01*
X342523Y117523D01*
X341892Y117038D01*
X340130Y114742D01*
X339023Y112069D01*
X338645Y109200D01*
X339023Y106331D01*
X340130Y103658D01*
X341892Y101362D01*
X344188Y99600D01*
X346861Y98493D01*
X349730Y98115D01*
X352599Y98493D01*
X355272Y99600D01*
X357568Y101362D01*
X359330Y103658D01*
X360437Y106331D01*
X360716Y108448D01*
X361918Y108856D01*
X364321Y106453D01*
X365582Y105611D01*
X367068Y105315D01*
X367144D01*
X367830Y103658D01*
X369592Y101362D01*
X371888Y99600D01*
X374561Y98493D01*
X377430Y98115D01*
X380299Y98493D01*
X382972Y99600D01*
X385268Y101362D01*
X387030Y103658D01*
X388137Y106331D01*
X388515Y109200D01*
X388137Y112069D01*
X387030Y114742D01*
X385268Y117038D01*
X382972Y118800D01*
X380299Y119907D01*
X377430Y120285D01*
X374561Y119907D01*
X371888Y118800D01*
X369592Y117038D01*
X368065Y115048D01*
X366797Y114965D01*
X356405Y125357D01*
X355145Y126199D01*
X353658Y126495D01*
D02*
G37*
G36*
X484300Y209980D02*
X476770D01*
Y202451D01*
X477821Y202589D01*
X479983Y203485D01*
X481840Y204910D01*
X483265Y206767D01*
X484161Y208929D01*
X484300Y209980D01*
D02*
G37*
G36*
X474230Y220049D02*
X473179Y219911D01*
X471017Y219015D01*
X469160Y217590D01*
X467735Y215733D01*
X466839Y213571D01*
X466701Y212520D01*
X474230D01*
Y220049D01*
D02*
G37*
G36*
X476770D02*
Y212520D01*
X484300D01*
X484161Y213571D01*
X483265Y215733D01*
X481840Y217590D01*
X479983Y219015D01*
X477821Y219911D01*
X476770Y220049D01*
D02*
G37*
G36*
X99999Y215639D02*
X94893Y215238D01*
X89913Y214042D01*
X85181Y212082D01*
X80813Y209406D01*
X76919Y206079D01*
X73592Y202185D01*
X70916Y197817D01*
X68956Y193085D01*
X67760Y188105D01*
X67358Y182999D01*
X67760Y177893D01*
X68956Y172913D01*
X70916Y168181D01*
X73592Y163813D01*
X76919Y159919D01*
X80813Y156592D01*
X85181Y153916D01*
X89913Y151956D01*
X94893Y150760D01*
X99999Y150358D01*
X105105Y150760D01*
X110085Y151956D01*
X114817Y153916D01*
X119185Y156592D01*
X123079Y159919D01*
X126406Y163813D01*
X129082Y168181D01*
X131042Y172913D01*
X132238Y177893D01*
X132640Y182999D01*
X132238Y188105D01*
X131042Y193085D01*
X129082Y197817D01*
X126406Y202185D01*
X123079Y206079D01*
X119185Y209406D01*
X114817Y212082D01*
X110085Y214042D01*
X105105Y215238D01*
X99999Y215639D01*
D02*
G37*
G36*
X1099999D02*
X1094893Y215238D01*
X1089912Y214042D01*
X1085181Y212082D01*
X1080813Y209406D01*
X1076919Y206079D01*
X1073592Y202185D01*
X1070916Y197817D01*
X1068956Y193085D01*
X1067760Y188105D01*
X1067358Y182999D01*
X1067760Y177893D01*
X1068956Y172913D01*
X1070916Y168181D01*
X1073592Y163813D01*
X1076919Y159919D01*
X1080813Y156592D01*
X1085181Y153916D01*
X1089912Y151956D01*
X1094893Y150760D01*
X1099999Y150358D01*
X1105105Y150760D01*
X1110086Y151956D01*
X1114818Y153916D01*
X1119185Y156592D01*
X1123079Y159919D01*
X1126406Y163813D01*
X1129082Y168181D01*
X1131042Y172913D01*
X1132238Y177893D01*
X1132639Y182999D01*
X1132238Y188105D01*
X1131042Y193085D01*
X1129082Y197817D01*
X1126406Y202185D01*
X1123079Y206079D01*
X1119185Y209406D01*
X1114818Y212082D01*
X1110086Y214042D01*
X1105105Y215238D01*
X1099999Y215639D01*
D02*
G37*
G36*
X474230Y209980D02*
X466701D01*
X466839Y208929D01*
X467735Y206767D01*
X469160Y204910D01*
X471017Y203485D01*
X473179Y202589D01*
X474230Y202451D01*
Y209980D01*
D02*
G37*
%LPD*%
D16*
X367068Y109200D02*
X377430D01*
X261704Y115570D02*
X268744Y122610D01*
X353658D02*
X367068Y109200D01*
X268744Y122610D02*
X353658D01*
X179070Y115570D02*
X261704D01*
D17*
X179070Y90170D02*
D03*
D18*
Y115570D02*
D03*
D19*
X670070Y95000D02*
D03*
X919970D02*
D03*
X280180D02*
D03*
X530080D02*
D03*
D20*
X850420Y109200D02*
D03*
X460530D02*
D03*
D21*
X836570Y80800D02*
D03*
X822720Y109200D02*
D03*
X808870Y80800D02*
D03*
X795020Y109200D02*
D03*
X781170Y80800D02*
D03*
X767320Y109200D02*
D03*
X753470Y80800D02*
D03*
X739620Y109200D02*
D03*
X446680Y80800D02*
D03*
X432830Y109200D02*
D03*
X418980Y80800D02*
D03*
X405130Y109200D02*
D03*
X391280Y80800D02*
D03*
X377430Y109200D02*
D03*
X363580Y80800D02*
D03*
X349730Y109200D02*
D03*
D22*
X1099999Y182999D02*
D03*
X99999D02*
D03*
D23*
X675000Y253000D02*
D03*
X786892D02*
D03*
D24*
X898774D02*
D03*
X958850D02*
D03*
D25*
X475500Y211250D02*
D03*
X280750Y223000D02*
D03*
M02*
