%FSLAX24Y24*%
%MOIN*%
G70*
G01*
G75*
G04 Layer_Physical_Order=5*
G04 Layer_Color=16711680*
%ADD10R,0.0591X0.0551*%
%ADD11R,0.0551X0.0591*%
%ADD12R,0.0669X0.0453*%
%ADD13O,0.0984X0.0276*%
%ADD14O,0.0276X0.0984*%
%ADD15O,0.0276X0.0906*%
%ADD16O,0.0906X0.0276*%
%ADD17R,0.0453X0.0669*%
%ADD18R,0.0394X0.0551*%
%ADD19R,0.0551X0.0394*%
%ADD20R,0.0669X0.0984*%
%ADD21R,0.0571X0.1437*%
%ADD22O,0.0118X0.0492*%
%ADD23R,0.0984X0.0669*%
%ADD24R,0.1437X0.0571*%
%ADD25R,0.1201X0.0394*%
%ADD26R,0.2559X0.2185*%
%ADD27C,0.0300*%
%ADD28C,0.0100*%
%ADD29C,0.0200*%
%ADD30C,0.0060*%
%ADD31C,0.0250*%
%ADD32C,0.0500*%
%ADD33C,0.1000*%
%ADD34C,0.0600*%
%ADD35C,0.0400*%
%ADD36C,0.0150*%
%ADD37C,0.0600*%
%ADD38C,0.1496*%
%ADD39C,0.0591*%
%ADD40R,0.0591X0.0591*%
%ADD41C,0.0394*%
%ADD42C,0.2756*%
%ADD43O,0.1339X0.0787*%
%ADD44O,0.1024X0.1339*%
%ADD45C,0.0866*%
%ADD46C,0.0787*%
%ADD47R,0.0591X0.0591*%
%ADD48C,0.1260*%
%ADD49C,0.1000*%
%ADD50C,0.1969*%
%ADD51C,0.1575*%
%ADD52R,0.0600X0.0600*%
%ADD53O,0.0591X0.0827*%
%ADD54R,0.0591X0.0827*%
%ADD55O,0.0827X0.0591*%
%ADD56R,0.0827X0.0591*%
%ADD57C,0.0500*%
%ADD58C,0.0315*%
%ADD59C,0.0236*%
%ADD60C,0.0400*%
%ADD61C,0.0197*%
%ADD62C,0.0754*%
%ADD63C,0.1660*%
%ADD64C,0.0518*%
%ADD65C,0.1778*%
%ADD66O,0.1345X0.0794*%
%ADD67O,0.1030X0.1345*%
%ADD68C,0.1069*%
%ADD69C,0.0991*%
%ADD70C,0.1109*%
G04:AMPARAMS|DCode=71|XSize=119.055mil|YSize=119.055mil|CornerRadius=0mil|HoleSize=0mil|Usage=FLASHONLY|Rotation=0.000|XOffset=0mil|YOffset=0mil|HoleType=Round|Shape=Relief|Width=10mil|Gap=10mil|Entries=4|*
%AMTHD71*
7,0,0,0.1191,0.0991,0.0100,45*
%
%ADD71THD71*%
G04:AMPARAMS|DCode=72|XSize=130.866mil|YSize=130.866mil|CornerRadius=0mil|HoleSize=0mil|Usage=FLASHONLY|Rotation=0.000|XOffset=0mil|YOffset=0mil|HoleType=Round|Shape=Relief|Width=10mil|Gap=10mil|Entries=4|*
%AMTHD72*
7,0,0,0.1309,0.1109,0.0100,45*
%
%ADD72THD72*%
G04:AMPARAMS|DCode=73|XSize=95.433mil|YSize=95.433mil|CornerRadius=0mil|HoleSize=0mil|Usage=FLASHONLY|Rotation=0.000|XOffset=0mil|YOffset=0mil|HoleType=Round|Shape=Relief|Width=10mil|Gap=10mil|Entries=4|*
%AMTHD73*
7,0,0,0.0954,0.0754,0.0100,45*
%
%ADD73THD73*%
%ADD74C,0.1581*%
%ADD75C,0.1620*%
%ADD76C,0.0715*%
%ADD77C,0.0833*%
%ADD78C,0.0794*%
G04:AMPARAMS|DCode=79|XSize=91.496mil|YSize=91.496mil|CornerRadius=0mil|HoleSize=0mil|Usage=FLASHONLY|Rotation=0.000|XOffset=0mil|YOffset=0mil|HoleType=Round|Shape=Relief|Width=10mil|Gap=10mil|Entries=4|*
%AMTHD79*
7,0,0,0.0915,0.0715,0.0100,45*
%
%ADD79THD79*%
G04:AMPARAMS|DCode=80|XSize=88mil|YSize=88mil|CornerRadius=0mil|HoleSize=0mil|Usage=FLASHONLY|Rotation=0.000|XOffset=0mil|YOffset=0mil|HoleType=Round|Shape=Relief|Width=10mil|Gap=10mil|Entries=4|*
%AMTHD80*
7,0,0,0.0880,0.0680,0.0100,45*
%
%ADD80THD80*%
G04:AMPARAMS|DCode=81|XSize=79.685mil|YSize=79.685mil|CornerRadius=0mil|HoleSize=0mil|Usage=FLASHONLY|Rotation=0.000|XOffset=0mil|YOffset=0mil|HoleType=Round|Shape=Relief|Width=10mil|Gap=10mil|Entries=4|*
%AMTHD81*
7,0,0,0.0797,0.0597,0.0100,45*
%
%ADD81THD81*%
%ADD82C,0.0680*%
%ADD83C,0.0597*%
G04:AMPARAMS|DCode=84|XSize=80mil|YSize=80mil|CornerRadius=0mil|HoleSize=0mil|Usage=FLASHONLY|Rotation=0.000|XOffset=0mil|YOffset=0mil|HoleType=Round|Shape=Relief|Width=10mil|Gap=10mil|Entries=4|*
%AMTHD84*
7,0,0,0.0800,0.0600,0.0100,45*
%
%ADD84THD84*%
%ADD85C,0.0650*%
G04:AMPARAMS|DCode=86|XSize=71.811mil|YSize=71.811mil|CornerRadius=0mil|HoleSize=0mil|Usage=FLASHONLY|Rotation=0.000|XOffset=0mil|YOffset=0mil|HoleType=Round|Shape=Relief|Width=10mil|Gap=10mil|Entries=4|*
%AMTHD86*
7,0,0,0.0718,0.0518,0.0100,45*
%
%ADD86THD86*%
G04:AMPARAMS|DCode=87|XSize=185.984mil|YSize=185.984mil|CornerRadius=0mil|HoleSize=0mil|Usage=FLASHONLY|Rotation=0.000|XOffset=0mil|YOffset=0mil|HoleType=Round|Shape=Relief|Width=10mil|Gap=10mil|Entries=4|*
%AMTHD87*
7,0,0,0.1860,0.1660,0.0100,45*
%
%ADD87THD87*%
%AMTHOVALD88*
21,1,0.0551,0.0994,0,0,360.0*
1,1,0.0994,-0.0276,0.0000*
1,1,0.0994,0.0276,0.0000*
21,0,0.0551,0.0794,0,0,360.0*
1,0,0.0794,-0.0276,0.0000*
1,0,0.0794,0.0276,0.0000*
4,0,4,-0.0240,-0.0035,-0.0592,-0.0387,-0.0662,-0.0316,-0.0311,0.0035,-0.0240,-0.0035,0.0*
4,0,4,0.0311,-0.0035,0.0662,0.0316,0.0592,0.0387,0.0240,0.0035,0.0311,-0.0035,0.0*
4,0,4,-0.0311,-0.0035,-0.0662,0.0316,-0.0592,0.0387,-0.0240,0.0035,-0.0311,-0.0035,0.0*
4,0,4,0.0240,-0.0035,0.0592,-0.0387,0.0662,-0.0316,0.0311,0.0035,0.0240,-0.0035,0.0*
%
%ADD88THOVALD88*%

%ADD89C,0.0080*%
D27*
X117549Y84898D02*
X122759Y79688D01*
X117380Y84898D02*
X117549D01*
X117182Y85096D02*
X117380Y84898D01*
X117182Y85096D02*
Y85265D01*
X93459Y108988D02*
X117182Y85265D01*
X118598Y85461D02*
X123231Y80828D01*
X118598Y85461D02*
Y85683D01*
X117966Y86314D02*
X118598Y85683D01*
X117745Y86314D02*
X117966D01*
X93932Y110128D02*
X117745Y86314D01*
X118228Y85294D02*
X123074Y80448D01*
X118228Y85294D02*
Y85530D01*
X117813Y85944D02*
X118228Y85530D01*
X117577Y85944D02*
X117813D01*
X93774Y109748D02*
X117577Y85944D01*
X117858Y85126D02*
X122917Y80068D01*
X117858Y85126D02*
Y85376D01*
X117660Y85574D02*
X117858Y85376D01*
X117410Y85574D02*
X117660D01*
X93617Y109368D02*
X117410Y85574D01*
X122759Y79688D02*
X158070D01*
X66274Y109748D02*
X93774D01*
X123231Y80828D02*
X158060D01*
X123074Y80448D02*
X158217D01*
X122917Y80068D02*
X158227D01*
X160242Y42123D02*
X160630Y41736D01*
X160630Y66342D02*
Y77665D01*
X158227Y80068D02*
X160630Y77665D01*
X160250Y66820D02*
Y77508D01*
X158070Y79688D02*
X160250Y77508D01*
X160242Y132096D02*
X160630Y132484D01*
X160242Y102868D02*
Y132096D01*
Y102868D02*
X160250Y102860D01*
X159780Y82010D02*
Y92873D01*
X158217Y80448D02*
X159780Y82010D01*
X159400Y82168D02*
Y93030D01*
X158060Y80828D02*
X159400Y82168D01*
X159780Y92873D02*
X160630Y93723D01*
Y104925D01*
X160250Y93880D02*
Y102860D01*
X159400Y93030D02*
X160250Y93880D01*
X126067Y6128D02*
X126884Y6945D01*
X106681Y7037D02*
X107591Y6128D01*
X65231Y62043D02*
X72547Y54728D01*
X91631D01*
X95184Y51175D01*
Y50520D02*
Y51175D01*
Y50520D02*
X95232Y50472D01*
Y14328D02*
Y50472D01*
Y14328D02*
X99831Y9728D01*
X66431Y110128D02*
X93932D01*
X65532Y111028D02*
X66431Y110128D01*
X65532Y111028D02*
Y116445D01*
X62984Y118993D02*
X65532Y116445D01*
X65152Y110870D02*
X66274Y109748D01*
X65152Y110870D02*
Y114825D01*
X62984Y116993D02*
X65152Y114825D01*
X66117Y109368D02*
X93617D01*
X64771Y110713D02*
X66117Y109368D01*
X64771Y110713D02*
Y113205D01*
X62984Y114993D02*
X64771Y113205D01*
X65959Y108988D02*
X93459D01*
X64391Y110555D02*
X65959Y108988D01*
X64391Y110555D02*
Y112028D01*
X63426Y112993D02*
X64391Y112028D01*
X62984Y112993D02*
X63426D01*
X128884Y6945D02*
X128910Y6970D01*
X99831Y9728D02*
X112332D01*
X160242Y66812D02*
X160250Y66820D01*
X160242Y42100D02*
Y66812D01*
X107591Y6128D02*
X115932D01*
X126067D01*
X112332Y9728D02*
X115932Y6128D01*
D28*
X8194Y77600D02*
X8244D01*
X1340Y97330D02*
Y124420D01*
X1160Y96510D02*
Y124495D01*
X980Y86654D02*
Y124569D01*
X800Y85834D02*
Y124644D01*
X1340Y97330D02*
X2820Y95850D01*
X1160Y96510D02*
X2820Y94850D01*
Y95850D02*
X3346D01*
X2820Y94850D02*
X3346D01*
X800Y85834D02*
X2610Y84024D01*
X980Y86654D02*
X2610Y85024D01*
X3346D01*
X2610Y84024D02*
X3346D01*
X4859Y108699D02*
X5256D01*
X5681Y109124D01*
X6080D01*
X3346Y73409D02*
X3946D01*
X6080Y104124D02*
X7677Y102527D01*
X6080Y103124D02*
X7500Y101704D01*
X6080Y102124D02*
X7330Y100874D01*
X7310D02*
X7330D01*
X7310Y98694D02*
Y100874D01*
Y98694D02*
X7874Y98130D01*
X7500Y99587D02*
Y101704D01*
Y99587D02*
X7972Y99114D01*
X7677Y100394D02*
Y102527D01*
Y100394D02*
X7972Y100098D01*
X6080Y101124D02*
X7140Y100064D01*
Y98578D02*
Y100064D01*
Y98578D02*
X7185Y98534D01*
Y97933D02*
Y98534D01*
Y97933D02*
X7972Y97146D01*
X8131Y100643D02*
X8669Y101181D01*
X8131Y101643D02*
X8716Y102228D01*
X8131Y102643D02*
X8645Y103157D01*
X8131Y103643D02*
Y103801D01*
Y105643D02*
X8645Y106157D01*
X8131Y106643D02*
X8645Y107157D01*
X8131Y107643D02*
X8645Y108157D01*
X8131Y108643D02*
X8645Y109157D01*
X8131Y109643D02*
X8645Y110157D01*
X8131Y110643D02*
X8716Y111228D01*
X8131Y111643D02*
X8693Y112205D01*
X8131Y112643D02*
X8544D01*
X8131Y113643D02*
X8661Y114173D01*
X8131Y114643D02*
X8547Y115059D01*
X8131Y104643D02*
X8705Y105217D01*
X8131Y103801D02*
X8593Y104262D01*
X5630Y105674D02*
X6080Y106124D01*
X3346Y94850D02*
X4480Y95984D01*
X3346Y95850D02*
X4310Y96814D01*
Y108150D01*
X4859Y108699D01*
X3946Y73409D02*
X7987Y77450D01*
X6080Y112124D02*
X7579Y113623D01*
X6080Y113124D02*
X7409Y114453D01*
X6080Y114124D02*
X7239Y115283D01*
X7579Y113623D02*
Y116043D01*
X7693Y116157D01*
X7069Y118168D02*
X7995Y119094D01*
X7239Y117377D02*
X8071Y118209D01*
X7409Y114453D02*
Y116661D01*
X7874Y117126D01*
X7239Y115283D02*
Y117377D01*
X7069Y116113D02*
Y118168D01*
X6080Y115124D02*
X7069Y116113D01*
X4480Y95984D02*
Y96636D01*
X5630Y97786D01*
Y105674D01*
X11417Y34215D02*
X12719D01*
X9537Y32335D02*
X11417Y34215D01*
X8051Y30603D02*
X8531Y31083D01*
X9331D01*
X9537Y31289D01*
Y32335D01*
X9756Y32029D02*
X11773Y34045D01*
X9756Y30642D02*
Y32029D01*
X9281Y30167D02*
X9756Y30642D01*
X8051Y29603D02*
X8156D01*
X8720Y30167D01*
X9281D01*
X11782Y33528D02*
X14031D01*
X12719Y34215D02*
X46703Y68199D01*
X13569Y34045D02*
X48090Y68566D01*
X11773Y34045D02*
X13569D01*
X48090Y68566D02*
Y68635D01*
X155095Y92623D02*
X158770Y96298D01*
X154131Y91660D02*
X155095Y92623D01*
X89531Y130518D02*
X89760D01*
X90135Y130893D01*
X89458Y130445D02*
X89531Y130518D01*
X88884Y130445D02*
X89458D01*
X147831Y111728D02*
X155532D01*
X147031Y112528D02*
X147831Y111728D01*
Y111428D02*
X155532D01*
X147132Y112128D02*
X147831Y111428D01*
X40500Y63150D02*
X44105Y66755D01*
X15976Y63150D02*
X40500D01*
X44110Y66750D02*
Y66760D01*
X44123Y66373D02*
X45530Y67780D01*
Y69622D01*
X65181Y129636D02*
X77510D01*
X59915Y126230D02*
X62855Y129170D01*
X59915Y121875D02*
Y126230D01*
Y121875D02*
X60684Y121106D01*
Y116196D02*
Y121106D01*
X90592Y107840D02*
X93800D01*
X80776Y98024D02*
X90592Y107840D01*
X61828Y98024D02*
X80776D01*
X90252Y107260D02*
X93800D01*
X80846Y97854D02*
X90252Y107260D01*
X62658Y97854D02*
X80846D01*
X79649Y130318D02*
X80311D01*
X79549Y130218D02*
X79649Y130318D01*
X22955Y130218D02*
X79549D01*
X78922Y129858D02*
X79055Y129724D01*
X79472Y129308D01*
X80377D01*
X20071Y129858D02*
X78922D01*
X82483Y131545D02*
X83135Y130893D01*
X80185Y131545D02*
X82483D01*
X24132Y131643D02*
X24630Y131145D01*
X54384D01*
X79085Y130445D02*
X80185Y131545D01*
X55085Y130445D02*
X79085D01*
X54384Y131145D02*
X55085Y130445D01*
X81560Y130318D02*
X82135Y130893D01*
X81560Y129717D02*
Y130318D01*
X81183Y129340D02*
X81560Y129717D01*
X80410Y129340D02*
X81183D01*
X80377Y129308D02*
X80410Y129340D01*
X19131Y131494D02*
X19557Y131069D01*
Y130372D02*
Y131069D01*
X19131Y131494D02*
Y131643D01*
X19557Y130372D02*
X20071Y129858D01*
X80933Y130893D02*
X81135D01*
X80311Y130318D02*
X80411Y130218D01*
X80460D01*
X81135Y130893D01*
X22132Y131494D02*
X22557Y131069D01*
Y130617D02*
Y131069D01*
X22132Y131494D02*
Y131643D01*
X22557Y130617D02*
X22955Y130218D01*
X81560Y130717D02*
Y131069D01*
X81311Y131318D02*
X81560Y131069D01*
X81188Y130345D02*
X81560Y130717D01*
X80984Y130345D02*
X81188D01*
X80560Y131318D02*
X81311D01*
X80560Y129920D02*
X80984Y130345D01*
X80560Y129717D02*
Y129920D01*
X80353Y129510D02*
X80560Y129717D01*
X80135Y130893D02*
X80560Y131318D01*
X21584Y130245D02*
X21791Y130038D01*
X21131Y131643D02*
X21584Y131190D01*
Y130245D02*
Y131190D01*
X80339Y129510D02*
X80353D01*
X80307Y129478D02*
X80339Y129510D01*
X79963Y129478D02*
X80307D01*
X21791Y130038D02*
X79402D01*
X79963Y129478D01*
X92225Y133803D02*
X95135Y130893D01*
X39240Y133803D02*
X92225D01*
X38952Y133515D02*
X39240Y133803D01*
X36645Y133515D02*
X38952D01*
X36279Y133149D02*
X36645Y133515D01*
X26131Y131643D02*
X27637Y133149D01*
X36279D01*
X65117Y129331D02*
X77008D01*
X64610Y128824D02*
X65117Y129331D01*
X64272Y128824D02*
X64610D01*
X62940Y129000D02*
X64096D01*
X64272Y128824D01*
X60865Y126925D02*
X62940Y129000D01*
X60865Y115376D02*
Y126925D01*
X60132Y114643D02*
X60865Y115376D01*
X64540Y128994D02*
X65181Y129636D01*
X64342Y128994D02*
X64540D01*
X62855Y129170D02*
X64166D01*
X64342Y128994D01*
X60132Y115643D02*
X60684Y116196D01*
X39029Y134313D02*
X93422D01*
X38959Y134483D02*
X93506D01*
X38888Y134653D02*
X93591D01*
X97170Y131074D01*
Y110110D02*
Y131074D01*
X93337Y134143D02*
X96630Y130850D01*
X39100Y134143D02*
X93337D01*
X93422Y134313D02*
X96810Y130925D01*
X93506Y134483D02*
X96990Y130999D01*
X92656Y133973D02*
X95560Y131069D01*
X39170Y133973D02*
X92656D01*
X88395Y133633D02*
X91135Y130893D01*
X39311Y133633D02*
X88395D01*
X38892Y133695D02*
X39170Y133973D01*
X38927Y133970D02*
X39100Y134143D01*
X38931Y134214D02*
X39029Y134313D01*
X38860Y134384D02*
X38959Y134483D01*
X38790Y134554D02*
X38888Y134653D01*
X86565Y133463D02*
X89135Y130893D01*
X39381Y133463D02*
X86565D01*
X86336Y133293D02*
X88560Y131069D01*
X39452Y133293D02*
X86336D01*
X85506Y133123D02*
X87135Y131494D01*
X39013Y133335D02*
X39311Y133633D01*
X36720Y133335D02*
X39013D01*
X36354Y132969D02*
X36720Y133335D01*
X34457Y132969D02*
X36354D01*
X33131Y131643D02*
X34457Y132969D01*
X88560Y130769D02*
X88884Y130445D01*
X88560Y130769D02*
Y131069D01*
X39128Y132969D02*
X39452Y133293D01*
X37457Y132969D02*
X39128D01*
X36131Y131643D02*
X37457Y132969D01*
X39073Y133155D02*
X39381Y133463D01*
X36795Y133155D02*
X39073D01*
X35131Y131643D02*
X35283D01*
X36795Y133155D01*
X87736Y130893D02*
X88135D01*
X87311Y130468D02*
X87736Y130893D01*
X86585Y130842D02*
X86959Y130468D01*
X87311D01*
X39593Y132953D02*
X84776D01*
X38283Y131643D02*
X39593Y132953D01*
X84776D02*
X86585Y131145D01*
X38131Y131643D02*
X38283D01*
X86585Y130842D02*
Y131145D01*
X87135Y130893D02*
Y131494D01*
X39522Y133123D02*
X85506D01*
X39188Y132789D02*
X39522Y133123D01*
X38675Y132789D02*
X39188D01*
X37530Y131643D02*
X38675Y132789D01*
X37132Y131643D02*
X37530D01*
X85736Y130893D02*
X86135D01*
X85311Y130468D02*
X85736Y130893D01*
X84684Y130742D02*
X84959Y130468D01*
X85311D01*
X40737Y132249D02*
X83381D01*
X84684Y130945D01*
X40132Y131643D02*
X40737Y132249D01*
X84684Y130742D02*
Y130945D01*
X83701Y132429D02*
X85135Y130994D01*
Y130893D02*
Y130994D01*
X39132Y131643D02*
X39917Y132429D01*
X83701D01*
X82861Y132069D02*
X84036Y130893D01*
X84135D01*
X42132Y131643D02*
X42557Y132069D01*
X82861D01*
X61065Y97174D02*
X67884Y90354D01*
X73634Y84605D01*
X87516Y82068D02*
X87941Y81642D01*
X87516Y82068D02*
Y83113D01*
X87941Y81493D02*
Y81642D01*
X60132Y94643D02*
X62831D01*
X73430Y84045D02*
X86585D01*
X87516Y83113D01*
X62831Y94643D02*
X73430Y84045D01*
X88385Y82445D02*
X88941Y81888D01*
X88385Y82445D02*
Y82651D01*
X88941Y81493D02*
Y81888D01*
X60132Y95643D02*
X62086D01*
X73485Y84245D02*
X86791D01*
X88385Y82651D01*
X62086Y95643D02*
X73485Y84245D01*
X94562Y92987D02*
X94596Y93022D01*
X94528Y92953D02*
X94562Y92987D01*
X94262Y93560D02*
Y96496D01*
X94259Y92656D02*
Y93557D01*
X96996Y81064D02*
Y89919D01*
X94259Y92656D02*
X96996Y89919D01*
X96305Y80372D02*
X96996Y81064D01*
X91366Y81918D02*
Y82669D01*
X90941Y81493D02*
X91366Y81918D01*
X92062Y80372D02*
X96305D01*
X69483Y86643D02*
X69485Y86645D01*
X60132Y86643D02*
X69483D01*
X89251Y84785D02*
X91366Y82669D01*
X90941Y81493D02*
X92062Y80372D01*
X72185Y86645D02*
X74044Y84785D01*
X89251D01*
X93947Y92728D02*
Y96014D01*
Y92728D02*
X96826Y89848D01*
X92366Y81918D02*
Y82669D01*
X96826Y81134D02*
Y89848D01*
X96234Y80542D02*
X96826Y81134D01*
X92892Y80542D02*
X96234D01*
X91941Y81493D02*
X92366Y81918D01*
X91941Y81493D02*
X92892Y80542D01*
X71804Y87025D02*
X72342D01*
X60132Y87643D02*
X60630Y87145D01*
X68984D01*
X74402Y84965D02*
X90071D01*
X72342Y87025D02*
X74402Y84965D01*
X90071D02*
X92366Y82669D01*
X71684Y87145D02*
X71804Y87025D01*
X93661Y92773D02*
Y95512D01*
Y92773D02*
X96656Y89778D01*
X93366Y81918D02*
Y82669D01*
X96656Y81205D02*
Y89778D01*
X96164Y80712D02*
X96656Y81205D01*
X93722Y80712D02*
X96164D01*
X92941Y81493D02*
X93366Y81918D01*
X92941Y81493D02*
X93722Y80712D01*
X68529Y87645D02*
X68597Y87577D01*
X68485Y87645D02*
X68529D01*
X71185D02*
X71304Y87525D01*
X60132Y88643D02*
X61130Y87645D01*
X68485D01*
X74476Y85145D02*
X90891D01*
X72096Y87525D02*
X74476Y85145D01*
X90891D02*
X93366Y82669D01*
X71304Y87525D02*
X72096D01*
X93346Y92847D02*
X96486Y89708D01*
X94366Y81918D02*
Y82669D01*
X91711Y85325D02*
X94366Y82669D01*
X93346Y92847D02*
Y94980D01*
X96486Y81275D02*
Y89708D01*
X96093Y80882D02*
X96486Y81275D01*
X94552Y80882D02*
X96093D01*
X93941Y81493D02*
X94366Y81918D01*
X93941Y81493D02*
X94552Y80882D01*
X67984Y88145D02*
X68085D01*
X60132Y89643D02*
X61630Y88145D01*
X67984D01*
X71851Y88025D02*
X74551Y85325D01*
X70805Y88025D02*
X71851D01*
X74551Y85325D02*
X91711D01*
X70684Y88145D02*
X70805Y88025D01*
X97166Y80994D02*
Y89989D01*
X94528Y92628D02*
X97166Y89989D01*
X96375Y80202D02*
X97166Y80994D01*
X94528Y92628D02*
Y92953D01*
X88232Y80202D02*
X96375D01*
X73355Y83865D02*
X85665D01*
X63577Y93643D02*
X73355Y83865D01*
X85665D02*
X86516Y83013D01*
X60132Y93643D02*
X63577D01*
X86941Y81493D02*
Y81642D01*
Y81493D02*
X88232Y80202D01*
X86516Y82068D02*
Y83013D01*
Y82068D02*
X86941Y81642D01*
X94528Y93504D02*
X94781Y93251D01*
X97679Y81266D02*
Y89717D01*
X94781Y92615D02*
X97679Y89717D01*
X96445Y80032D02*
X97679Y81266D01*
X94781Y92615D02*
Y93251D01*
X87402Y80032D02*
X96445D01*
X73281Y83685D02*
X84544D01*
X64322Y92643D02*
X73281Y83685D01*
X84544D02*
X85516Y82713D01*
X60132Y92643D02*
X64322D01*
X85941Y81493D02*
Y81642D01*
Y81493D02*
X87402Y80032D01*
X85516Y82068D02*
Y82713D01*
Y82068D02*
X85941Y81642D01*
X94567Y94035D02*
X94951Y93652D01*
X97849Y81196D02*
Y89818D01*
X94951Y92717D02*
X97849Y89818D01*
X96516Y79862D02*
X97849Y81196D01*
X94951Y92717D02*
Y93652D01*
X86572Y79862D02*
X96516D01*
X73206Y83505D02*
X83531D01*
X65068Y91643D02*
X73206Y83505D01*
X83531D02*
X84516Y82520D01*
X60132Y91643D02*
X65068D01*
X84941Y81493D02*
Y81642D01*
Y81493D02*
X86572Y79862D01*
X84516Y82068D02*
Y82520D01*
Y82068D02*
X84941Y81642D01*
X93041Y88533D02*
Y94459D01*
X92822Y88313D02*
X93041Y88533D01*
X92809Y88313D02*
X92822D01*
X92598Y88103D02*
X92809Y88313D01*
X95366Y81918D02*
Y82669D01*
X92531Y85505D02*
X95366Y82669D01*
X94941Y81493D02*
X95366Y81918D01*
X92598Y85572D02*
Y88103D01*
X92531Y85505D02*
X92598Y85572D01*
X67484Y88645D02*
X67585D01*
X60132Y90643D02*
X62130Y88645D01*
X67484D01*
X71606Y88525D02*
X74626Y85505D01*
X70304Y88525D02*
X71606D01*
X74626Y85505D02*
X92531D01*
X70184Y88645D02*
X70304Y88525D01*
X90366Y80864D02*
X90384Y80846D01*
X61782Y98071D02*
X61828Y98024D01*
X62432Y97628D02*
X62658Y97854D01*
X61065Y97174D02*
Y112710D01*
X60884Y97099D02*
Y104890D01*
Y97099D02*
X73559Y84425D01*
X96811Y109104D02*
X96909Y109006D01*
X96772Y109104D02*
X96811D01*
X114496Y91380D02*
X117323D01*
X117660Y91043D01*
X95980Y109020D02*
X114252Y90748D01*
X10711Y134554D02*
X38790D01*
X10795Y134384D02*
X38860D01*
X10880Y134214D02*
X38931D01*
X1160Y124495D02*
X10880Y134214D01*
X980Y124569D02*
X10795Y134384D01*
X800Y124644D02*
X10711Y134554D01*
X10890Y133970D02*
X38927D01*
X36571Y133695D02*
X38892D01*
X1340Y124420D02*
X10890Y133970D01*
X36205Y133329D02*
X36571Y133695D01*
X144882Y112598D02*
X145061D01*
X144642Y112838D02*
X144882Y112598D01*
X143542Y113939D02*
X144642Y112838D01*
X143242Y113617D02*
X144732Y112128D01*
X143242Y113617D02*
Y120728D01*
X144732Y112128D02*
X147132D01*
X139766Y90748D02*
X141161Y92143D01*
X114252Y90748D02*
X139766D01*
X138647Y91043D02*
X140161Y92558D01*
X117660Y91043D02*
X138647D01*
X119300Y60700D02*
Y60750D01*
X64000Y67000D02*
Y71050D01*
Y63696D02*
Y67000D01*
X63972Y67028D02*
X64000Y67000D01*
X63231Y67028D02*
X63972D01*
X64000Y71050D02*
Y75000D01*
X63978Y71028D02*
X64000Y71050D01*
X63231Y71028D02*
X63978D01*
X64000Y75000D02*
Y77450D01*
X63972Y75028D02*
X64000Y75000D01*
X63231Y75028D02*
X63972D01*
X65400Y78850D02*
X68950D01*
X64000Y77450D02*
X65400Y78850D01*
X63231Y62928D02*
X64000Y63696D01*
X10650Y55477D02*
X10727Y55554D01*
X10804D01*
X14339Y59089D02*
Y63800D01*
X10804Y55554D02*
X14339Y59089D01*
X14952Y64173D02*
X15378Y63748D01*
X14201Y64173D02*
X14952D01*
X13850Y63822D02*
X14201Y64173D01*
X59618Y98130D02*
X60132Y98643D01*
X58661Y98130D02*
X59618D01*
X57350Y96819D02*
X58661Y98130D01*
X57350Y80225D02*
Y96819D01*
X45950Y70042D02*
Y80200D01*
X45530Y69622D02*
X45950Y70042D01*
X15176Y62950D02*
X40700D01*
X14378Y63748D02*
X15176Y62950D01*
X13850Y59334D02*
Y63822D01*
X10650Y56134D02*
X13850Y59334D01*
X46310Y70147D02*
Y84270D01*
X46490Y69790D02*
Y84345D01*
X46670Y69390D02*
Y84419D01*
X46850Y69790D02*
Y84494D01*
X14829Y79200D02*
X15378Y79748D01*
X104345Y5700D02*
X126404D01*
X104345D02*
X105681Y7037D01*
X157510Y97882D02*
Y107649D01*
X152031Y92403D02*
X157510Y97882D01*
X155532Y109628D02*
X157510Y107649D01*
X151192Y81528D02*
X152031Y82368D01*
Y92403D01*
X138342Y134849D02*
Y135248D01*
Y134849D02*
X138767Y134424D01*
Y128707D02*
Y134424D01*
X138527Y128466D02*
X138767Y128707D01*
X138527Y123489D02*
Y128466D01*
X138342Y123304D02*
X138527Y123489D01*
X138342Y122828D02*
Y123304D01*
Y122828D02*
X141142Y120028D01*
Y112523D02*
Y120028D01*
Y112523D02*
X144037Y109628D01*
X155532D01*
Y109928D02*
X157690Y107769D01*
Y97638D02*
Y107769D01*
X152331Y92279D02*
X157690Y97638D01*
X155532Y110228D02*
X157870Y107889D01*
Y97393D02*
Y107889D01*
X152632Y92155D02*
X157870Y97393D01*
X155532Y110528D02*
X158050Y108009D01*
Y97149D02*
Y108009D01*
X152931Y92030D02*
X158050Y97149D01*
X155532Y110828D02*
X158230Y108129D01*
Y96905D02*
Y108129D01*
X153231Y91906D02*
X158230Y96905D01*
X155532Y111128D02*
X158410Y108249D01*
Y96660D02*
Y108249D01*
X153532Y91782D02*
X158410Y96660D01*
X155532Y111428D02*
X158590Y108369D01*
Y96416D02*
Y108369D01*
X153832Y91658D02*
X158590Y96416D01*
X147342Y134849D02*
Y135248D01*
Y134849D02*
X147767Y134424D01*
Y128707D02*
Y134424D01*
X147342Y128281D02*
X147767Y128707D01*
X147342Y122828D02*
Y128281D01*
X143842Y119328D02*
X147342Y122828D01*
X143842Y114517D02*
Y119328D01*
Y114517D02*
X145831Y112528D01*
X147031D01*
X155532Y111728D02*
X158770Y108489D01*
Y96298D02*
Y108489D01*
X154131Y82605D02*
Y91660D01*
Y82605D02*
X155209Y81528D01*
X155252D01*
X49307Y68803D02*
X56831Y76328D01*
X14031Y33528D02*
X49307Y68803D01*
X48090Y68800D02*
X48255D01*
X56652Y77197D01*
X46703Y68199D02*
X56472Y77968D01*
X45710Y69192D02*
X46703Y68199D01*
X45710Y69192D02*
Y69547D01*
X46310Y70147D01*
X46850Y69790D02*
X47250Y69390D01*
X46090D02*
X46490Y69790D01*
X35234Y96110D02*
X46850Y84494D01*
X35159Y95930D02*
X46670Y84419D01*
X35085Y95750D02*
X46490Y84345D01*
X35010Y95570D02*
X46310Y84270D01*
X56652Y77197D02*
Y103765D01*
X56831Y76328D02*
Y101945D01*
X57031Y75577D02*
Y99328D01*
X56472Y77968D02*
Y104585D01*
X137732Y105293D02*
X138130D01*
X137520Y103480D02*
X138157Y104117D01*
X103545Y103480D02*
X137520D01*
X138130Y105293D02*
X138555Y105719D01*
X138908D01*
X139157Y105469D01*
Y105117D02*
Y105469D01*
X138908Y104868D02*
X139157Y105117D01*
X138705Y104868D02*
X138908D01*
X138157Y104320D02*
X138705Y104868D01*
X138157Y104117D02*
Y104320D01*
X138713Y105293D02*
X138731D01*
X138139Y104719D02*
X138713Y105293D01*
X137555Y104719D02*
X138139D01*
X137306Y104469D02*
X137555Y104719D01*
X137306Y103886D02*
Y104469D01*
X137080Y103660D02*
X137306Y103886D01*
X96990Y110035D02*
Y130999D01*
Y110035D02*
X103545Y103480D01*
X103620Y103660D02*
X137080D01*
X97170Y110110D02*
X103620Y103660D01*
X96810Y109893D02*
Y130925D01*
X95980Y109063D02*
X96810Y109893D01*
X95980Y109020D02*
Y109063D01*
Y109600D02*
X96120D01*
X96630Y110110D01*
Y130850D01*
X59635Y76140D02*
X60132Y75643D01*
X58880Y76140D02*
X59635D01*
X58120Y76900D02*
X58880Y76140D01*
X58120Y76900D02*
Y79010D01*
X57350Y79780D02*
X58120Y79010D01*
X59635Y75140D02*
X60132Y74643D01*
X58950Y75140D02*
X59635D01*
X57850Y76240D02*
X58950Y75140D01*
X57850Y76240D02*
Y78835D01*
X57350Y79335D02*
X57850Y78835D01*
X57610Y74480D02*
Y78643D01*
X59605Y73170D02*
X60132Y72643D01*
X58920Y73170D02*
X59605D01*
X57610Y74480D02*
X58920Y73170D01*
X57350Y78903D02*
X57610Y78643D01*
X58955Y72218D02*
X60308D01*
X57350Y73823D02*
X58955Y72218D01*
X57350Y73823D02*
Y78472D01*
X53743Y79787D02*
X56170D01*
X53559Y79341D02*
X56170D01*
X53380Y78910D02*
X56170D01*
X126404Y5700D02*
X127431Y6728D01*
X103645Y6000D02*
X104682Y7037D01*
X133916Y126413D02*
Y134424D01*
X133472Y125968D02*
X133916Y126413D01*
X133472Y123639D02*
Y125968D01*
X132431Y123128D02*
Y125828D01*
X131832Y126428D02*
X132431Y125828D01*
X131832Y126428D02*
Y134339D01*
X131458Y122154D02*
X132431Y123128D01*
X130705Y122154D02*
X131458D01*
X131115Y121744D02*
X131577D01*
X130831Y126428D02*
Y134360D01*
X130295Y125891D02*
X130831Y126428D01*
X130295Y122564D02*
Y125891D01*
X131832Y134339D02*
X132342Y134849D01*
X130342D02*
X130831Y134360D01*
X133916Y134424D02*
X134342Y134849D01*
Y135248D01*
X131577Y121744D02*
X133472Y123639D01*
X132342Y134849D02*
Y135248D01*
X129832Y123027D02*
Y133157D01*
Y123027D02*
X129885Y122975D01*
X128916Y134072D02*
X129832Y133157D01*
X130342Y134849D02*
Y135248D01*
X128916Y134072D02*
Y134673D01*
X128342Y135248D02*
X128916Y134673D01*
X131732Y105293D02*
Y109028D01*
X141161Y92143D02*
Y104465D01*
X140731Y104895D02*
X141161Y104465D01*
X140731Y104895D02*
Y105293D01*
X140161Y92558D02*
Y104465D01*
X139732Y104895D02*
X140161Y104465D01*
X139732Y104895D02*
Y105293D01*
X149232Y63793D02*
Y69760D01*
X149595Y70123D01*
X149627D02*
X152331Y72828D01*
X149595Y70123D02*
X149627D01*
X152331Y72828D02*
Y78468D01*
X150232Y63793D02*
Y69760D01*
X150595Y70123D01*
X150627D02*
X152632Y72128D01*
X150595Y70123D02*
X150627D01*
X152632Y72128D02*
Y78748D01*
X152931Y71528D02*
Y79028D01*
X151231Y69828D02*
X152931Y71528D01*
X151231Y63793D02*
Y69828D01*
X153231Y70828D02*
Y78748D01*
X152232Y69828D02*
X153231Y70828D01*
X152232Y63793D02*
Y69828D01*
X155232Y63793D02*
Y69928D01*
X154131Y71028D02*
X155232Y69928D01*
X154131Y71028D02*
Y77908D01*
X154232Y63793D02*
Y70128D01*
X153832Y70528D02*
X154232Y70128D01*
X153832Y70528D02*
Y78188D01*
X153532Y70528D02*
Y78468D01*
X153231Y70228D02*
X153532Y70528D01*
X153231Y63793D02*
Y70228D01*
X154732Y63293D02*
X155232Y63793D01*
X153731Y63293D02*
X154232Y63793D01*
X144583Y111628D02*
X146732D01*
X142942Y113269D02*
X144583Y111628D01*
X151732Y82628D02*
Y92528D01*
X151732Y82628D02*
X151732Y82628D01*
X151732Y82605D02*
Y82628D01*
X150654Y81528D02*
X151732Y82605D01*
X153832Y82368D02*
X154671Y81528D01*
X152732Y63293D02*
X153231Y63793D01*
X151732Y63293D02*
X152232Y63793D01*
X150731Y63293D02*
X151231Y63793D01*
X149732Y63293D02*
X150232Y63793D01*
X148731Y63293D02*
X149232Y63793D01*
X147732Y63293D02*
X147797D01*
X148231Y63728D01*
X157270Y98066D02*
Y107589D01*
X155532Y109328D02*
X157270Y107589D01*
X151732Y92528D02*
X157270Y98066D01*
X150611Y81528D02*
X150654D01*
X150611Y79028D02*
X151732Y77908D01*
X137767Y128707D02*
Y134424D01*
X137342Y134849D02*
X137767Y134424D01*
X137342Y128281D02*
X137767Y128707D01*
X137342Y134849D02*
Y135248D01*
Y122828D02*
Y128281D01*
X143913Y109328D02*
X155532D01*
X140842Y112399D02*
Y119328D01*
X137342Y122828D02*
X140842Y119328D01*
Y112399D02*
X143913Y109328D01*
X151192Y79028D02*
X152031Y78188D01*
X152331Y82088D02*
Y92279D01*
X151771Y81528D02*
X152331Y82088D01*
X151771Y79028D02*
X152331Y78468D01*
X139767Y128707D02*
Y134424D01*
X139342Y134849D02*
X139767Y134424D01*
X139527Y128466D02*
X139767Y128707D01*
X139342Y134849D02*
Y135248D01*
X139527Y123489D02*
Y128466D01*
X141442Y112647D02*
X144162Y109928D01*
X139342Y122828D02*
X141442Y120728D01*
X144162Y109928D02*
X155532D01*
X139342Y122828D02*
Y123304D01*
X139527Y123489D01*
X152632Y81808D02*
Y92155D01*
X152352Y81528D02*
X152632Y81808D01*
X152352Y79028D02*
X152632Y78748D01*
X140767Y128707D02*
Y134424D01*
X140342Y134849D02*
X140767Y134424D01*
X140527Y128466D02*
X140767Y128707D01*
X140342Y134849D02*
Y135248D01*
X140527Y123489D02*
Y128466D01*
X141742Y112772D02*
X144286Y110228D01*
X140342Y122828D02*
X141742Y121428D01*
X144286Y110228D02*
X155532D01*
X140342Y122828D02*
Y123304D01*
X140527Y123489D01*
X141742Y112772D02*
Y121428D01*
X152931Y81528D02*
Y92030D01*
X144410Y110528D02*
X155532D01*
X141767Y128707D02*
Y134424D01*
X141342Y134849D02*
X141767Y134424D01*
X141527Y128466D02*
X141767Y128707D01*
X141342Y134849D02*
Y135248D01*
X141527Y123489D02*
Y128466D01*
X142042Y112896D02*
Y122128D01*
X141342Y122828D02*
X142042Y122128D01*
Y112896D02*
X144410Y110528D01*
X141342Y123304D02*
X141527Y123489D01*
X141342Y122828D02*
Y123304D01*
X153231Y81808D02*
Y91906D01*
Y81808D02*
X153511Y81528D01*
X153231Y78748D02*
X153511Y79028D01*
X142767Y128707D02*
Y134424D01*
X142342Y134849D02*
X142767Y134424D01*
X142527Y128466D02*
X142767Y128707D01*
X142342Y134849D02*
Y135248D01*
X142527Y123489D02*
Y128466D01*
X144534Y110828D02*
X155532D01*
X142342Y113020D02*
X144534Y110828D01*
X142342Y123304D02*
X142527Y123489D01*
X153532Y82088D02*
X154092Y81528D01*
X153532Y82088D02*
Y91782D01*
Y78468D02*
X154092Y79028D01*
X143767Y123729D02*
Y134424D01*
X143342Y134849D02*
X143767Y134424D01*
X143342Y123304D02*
X143767Y123729D01*
X143342Y134849D02*
Y135248D01*
Y122828D02*
Y123304D01*
X144659Y111128D02*
X155532D01*
X142642Y113145D02*
X144659Y111128D01*
X142642Y122128D02*
X143342Y122828D01*
X153832Y78188D02*
X154671Y79028D01*
X144767Y128707D02*
Y134424D01*
X144342Y134849D02*
X144767Y134424D01*
X144342Y128281D02*
X144767Y128707D01*
X144342Y134849D02*
Y135248D01*
Y122828D02*
Y128281D01*
X142942Y121428D02*
X144342Y122828D01*
X154131Y77908D02*
X155252Y79028D01*
X146342Y134849D02*
X146767Y134424D01*
Y128707D02*
Y134424D01*
X146342Y134849D02*
Y135248D01*
Y128281D02*
X146767Y128707D01*
X146342Y122828D02*
Y128281D01*
X143542Y120028D02*
X146342Y122828D01*
X143242Y120728D02*
X145342Y122828D01*
Y128281D02*
X145767Y128707D01*
X145342Y134849D02*
X145767Y134424D01*
X145342Y134849D02*
Y135248D01*
Y122828D02*
Y128281D01*
X145767Y128707D02*
Y134424D01*
X141732Y105293D02*
Y108428D01*
X139931Y110228D02*
X141732Y108428D01*
X131077Y110228D02*
X139931D01*
X142732Y105293D02*
Y107728D01*
X140031Y110428D02*
X142732Y107728D01*
X131131Y110428D02*
X140031D01*
X143731Y105293D02*
Y107028D01*
X139431Y111328D02*
X143731Y107028D01*
X131583Y111328D02*
X139431D01*
X131607Y111728D02*
X133731D01*
X128631Y114703D02*
X131607Y111728D01*
X136732Y105293D02*
Y108828D01*
X135532Y110028D02*
X136732Y108828D01*
X131022Y110028D02*
X135532D01*
X135731Y105293D02*
Y108928D01*
X134931Y109728D02*
X135731Y108928D01*
X134732Y105293D02*
Y108828D01*
X134131Y109428D02*
X134732Y108828D01*
X130731Y105293D02*
Y109209D01*
X127732Y105293D02*
Y111785D01*
X128331Y114579D02*
X131583Y111328D01*
X127732Y113828D02*
X131131Y110428D01*
X127551Y113753D02*
X131077Y110228D01*
X127372Y113678D02*
X131022Y110028D01*
X127372Y113678D02*
Y113842D01*
X127132Y114082D02*
X127372Y113842D01*
X127551Y113753D02*
Y114086D01*
X127431Y114206D02*
X127551Y114086D01*
X127132Y114082D02*
Y126738D01*
X126832Y113958D02*
X131062Y109728D01*
X126832Y113958D02*
Y126038D01*
X131062Y109728D02*
X134931D01*
X126531Y113833D02*
X130937Y109428D01*
X134131D01*
X129195Y113291D02*
X131559Y110928D01*
X128032Y114455D02*
X129195Y113291D01*
X122451Y128418D02*
X126231Y124638D01*
Y113709D02*
Y124638D01*
X122012Y128611D02*
Y128858D01*
X122205Y128418D02*
X122451D01*
X118342Y134849D02*
X118767Y134424D01*
Y134072D02*
Y134424D01*
X118342Y134849D02*
Y135248D01*
Y132528D02*
X122012Y128858D01*
Y128611D02*
X122205Y128418D01*
X118342Y133647D02*
X118767Y134072D01*
X118342Y132528D02*
Y133647D01*
X123451Y128418D02*
X126531Y125338D01*
X123012Y128611D02*
Y128858D01*
X123205Y128418D02*
X123451D01*
X119342Y134849D02*
X119767Y134424D01*
Y134072D02*
Y134424D01*
X119342Y134849D02*
Y135248D01*
Y132528D02*
X123012Y128858D01*
Y128611D02*
X123205Y128418D01*
X119342Y133647D02*
X119767Y134072D01*
X119342Y132528D02*
Y133647D01*
X124451Y128418D02*
X126832Y126038D01*
X124012Y128611D02*
Y128858D01*
X124205Y128418D02*
X124451D01*
X120342Y134849D02*
X120767Y134424D01*
Y134072D02*
Y134424D01*
X120342Y134849D02*
Y135248D01*
Y132528D02*
X124012Y128858D01*
Y128611D02*
X124205Y128418D01*
X120342Y133647D02*
X120767Y134072D01*
X120342Y132528D02*
Y133647D01*
X125451Y128418D02*
X127132Y126738D01*
X125012Y128611D02*
Y128858D01*
X125205Y128418D02*
X125451D01*
X121342Y134849D02*
X121767Y134424D01*
Y134072D02*
Y134424D01*
X121342Y134849D02*
Y135248D01*
Y132528D02*
X125012Y128858D01*
Y128611D02*
X125205Y128418D01*
X121342Y133647D02*
X121767Y134072D01*
X121342Y132528D02*
Y133647D01*
X126451Y128418D02*
X127431Y127438D01*
X126012Y128611D02*
Y128858D01*
X126205Y128418D02*
X126451D01*
X122342Y134849D02*
X122767Y134424D01*
Y134072D02*
Y134424D01*
X122342Y134849D02*
Y135248D01*
Y132528D02*
X126012Y128858D01*
Y128611D02*
X126205Y128418D01*
X122342Y133647D02*
X122767Y134072D01*
X122342Y132528D02*
Y133647D01*
X127357Y128418D02*
X127732Y128043D01*
X127012Y128611D02*
Y128858D01*
X127205Y128418D02*
X127357D01*
X123342Y134849D02*
X123767Y134424D01*
Y134072D02*
Y134424D01*
X123342Y134849D02*
Y135248D01*
Y132528D02*
X127012Y128858D01*
Y128611D02*
X127205Y128418D01*
X123342Y133647D02*
X123767Y134072D01*
X123342Y132528D02*
Y133647D01*
X124767Y134072D02*
Y134424D01*
X124342Y134849D02*
X124767Y134424D01*
X124342Y132528D02*
X127712Y129158D01*
X124342Y133647D02*
X124767Y134072D01*
X124342Y134849D02*
Y135248D01*
Y132528D02*
Y133647D01*
X127712Y128487D02*
Y129158D01*
X128331Y114579D02*
Y128292D01*
X128012Y128611D02*
Y129858D01*
Y128611D02*
X128331Y128292D01*
X125342Y134849D02*
X125767Y134424D01*
Y134072D02*
Y134424D01*
X125342Y134849D02*
Y135248D01*
Y133647D02*
X125767Y134072D01*
X125342Y132528D02*
X128012Y129858D01*
X125342Y132528D02*
Y133647D01*
X126767Y134072D02*
Y134424D01*
X126342Y134849D02*
X126767Y134424D01*
X126342Y132528D02*
X128672Y130198D01*
X126342Y133647D02*
X126767Y134072D01*
X126342Y134849D02*
Y135248D01*
Y132528D02*
Y133647D01*
X128672Y128611D02*
Y130198D01*
X128631Y128571D02*
X128672Y128611D01*
X128932Y114828D02*
Y130938D01*
X127767Y134072D02*
Y134424D01*
X127342Y134849D02*
X127767Y134424D01*
X127342Y134849D02*
Y135248D01*
Y133647D02*
X127767Y134072D01*
X127342Y132528D02*
X128932Y130938D01*
X127342Y132528D02*
Y133647D01*
X126231Y113709D02*
X130731Y109209D01*
X121205Y128418D02*
X121451D01*
X125932Y123938D01*
X121012Y128611D02*
Y128858D01*
Y128611D02*
X121205Y128418D01*
X117342Y134849D02*
X117767Y134424D01*
Y134072D02*
Y134424D01*
X117342Y134849D02*
Y135248D01*
Y133647D02*
X117767Y134072D01*
X117342Y132528D02*
X121012Y128858D01*
X117342Y132528D02*
Y133647D01*
X125932Y113585D02*
X127732Y111785D01*
X125932Y113585D02*
Y123938D01*
X95560Y130717D02*
Y131069D01*
X94284Y131345D02*
X94684Y130945D01*
Y130742D02*
Y130945D01*
Y130742D02*
X94959Y130468D01*
X92485Y131345D02*
X94284D01*
X92135Y130995D02*
X92485Y131345D01*
X95311Y130468D02*
X95560Y130717D01*
X94959Y130468D02*
X95311D01*
X92135Y130893D02*
Y130995D01*
X23131Y131643D02*
X24817Y133329D01*
X36205D01*
X89366Y82068D02*
X89941Y81493D01*
X89366Y82068D02*
Y82669D01*
X87611Y84425D02*
X89366Y82669D01*
X73559Y84425D02*
X87611D01*
X90366Y80864D02*
Y82669D01*
X88431Y84605D02*
X90366Y82669D01*
X73634Y84605D02*
X88431D01*
X60132Y105643D02*
X60884Y104890D01*
X60132Y113643D02*
X61065Y112710D01*
X8051Y28603D02*
X8626Y29178D01*
X9228D01*
X58922Y101218D02*
X59308D01*
X59733Y101643D01*
X60132D01*
X9228Y29178D02*
X13397Y33348D01*
X14802D01*
X57031Y99328D02*
X58922Y101218D01*
X58955Y104069D02*
X59173D01*
X59747Y104643D01*
X60132D01*
X58955Y106069D02*
X59173D01*
X56652Y103765D02*
X58955Y106069D01*
X59173D02*
X59747Y106643D01*
X60132D01*
X7907Y38803D02*
X8051D01*
X127431Y6728D02*
Y7328D01*
X127240Y7519D02*
X127431Y7328D01*
X126459Y7519D02*
X127240D01*
X125885Y6945D02*
X126459Y7519D01*
X104682Y7037D02*
X105172Y7528D01*
X113832D01*
X124486Y6945D02*
X124885D01*
X124061Y7370D02*
X124486Y6945D01*
X115389Y7370D02*
X124061D01*
X56831Y101945D02*
X58955Y104069D01*
X59073Y107069D02*
X60308D01*
X60557Y106819D01*
Y106467D02*
Y106819D01*
X60308Y106218D02*
X60557Y106467D01*
X60105Y106218D02*
X60308D01*
X59706Y105819D02*
X60105Y106218D01*
X59706Y105467D02*
Y105819D01*
Y105467D02*
X60105Y105069D01*
X60308D01*
X60631Y104745D01*
Y103143D02*
Y104745D01*
X60132Y102643D02*
X60631Y103143D01*
X56472Y104585D02*
X58955Y107069D01*
X59073D01*
X59073Y107069D01*
X148254Y58732D02*
Y59737D01*
X147828Y58307D02*
X148254Y58732D01*
X147828Y49683D02*
Y58307D01*
Y23944D02*
Y31780D01*
Y23944D02*
X148254Y23518D01*
X147828Y31780D02*
X148231Y32183D01*
Y49280D01*
X147828Y49683D02*
X148231Y49280D01*
X101732Y78043D02*
X102232Y78543D01*
X101732Y68083D02*
Y78043D01*
Y68083D02*
X102134Y67680D01*
Y48407D02*
Y67680D01*
X101906Y48178D02*
X102134Y48407D01*
X101906Y42062D02*
Y48178D01*
X7291Y29363D02*
Y38188D01*
Y29363D02*
X8051Y28603D01*
X7291Y38188D02*
X7907Y38803D01*
X7111Y26848D02*
X7832Y26128D01*
X6931Y26773D02*
X8177Y25528D01*
X7111Y26848D02*
Y43863D01*
X8051Y44803D01*
X6931Y26773D02*
Y45683D01*
X8051Y46803D01*
X101906Y42062D02*
X102331Y41637D01*
X39108Y93182D02*
Y110590D01*
X153832Y82368D02*
Y91658D01*
X60800Y26128D02*
X77822D01*
X97950Y6000D01*
X103645D01*
X78072Y25528D02*
X97900Y5700D01*
X104345D01*
X9300Y77953D02*
X10547Y79200D01*
X14829D01*
X128932Y114828D02*
X131539Y112220D01*
X138805D01*
X145731Y105293D01*
X15010Y100098D02*
X18998Y96110D01*
X14995Y99114D02*
X18180Y95930D01*
X35159D01*
X18998Y96110D02*
X35234D01*
X15157Y97146D02*
X16733Y95570D01*
X35010D01*
X17439Y95750D02*
X35085D01*
X39443Y93457D02*
Y110865D01*
X39758Y93772D02*
Y111180D01*
Y93772D02*
X53743Y79787D01*
X39443Y93457D02*
X53559Y79341D01*
X39108Y93182D02*
X53380Y78910D01*
X38878Y92892D02*
X53310Y78460D01*
X38878Y92892D02*
Y110300D01*
X53310Y78460D02*
X56170D01*
X32099Y118209D02*
X39443Y110865D01*
X31843Y119094D02*
X39758Y111180D01*
X32572Y117126D02*
X39108Y110590D01*
X7995Y119094D02*
X31843D01*
X23150Y103157D02*
X23157Y103150D01*
X25591D01*
X21468Y115059D02*
X21567Y115157D01*
X23150D01*
X23346Y114961D01*
X30315D01*
X32583Y116594D02*
X38878Y110300D01*
X17830Y116157D02*
X18268Y116594D01*
X32583D01*
X14858Y115248D02*
X17866D01*
X18907Y116289D01*
X30561D01*
X30709D01*
X142942Y113269D02*
Y121428D01*
X142342Y113020D02*
Y123304D01*
X142642Y113145D02*
Y122128D01*
X141442Y112647D02*
Y120728D01*
X143542Y113939D02*
Y120028D01*
X127712Y128487D02*
X128032Y128167D01*
X128631Y114703D02*
Y128571D01*
X133731Y105293D02*
Y109028D01*
X128032Y114455D02*
Y128167D01*
X127431Y114206D02*
Y127438D01*
X127732Y113828D02*
Y128043D01*
X126531Y113833D02*
Y125338D01*
X14802Y33348D02*
X57031Y75577D01*
X15059Y98130D02*
X17439Y95750D01*
X15059Y98130D02*
X15059Y98130D01*
X15378Y63748D02*
X15976Y63150D01*
X40700Y62950D02*
X44123Y66373D01*
X96772Y109104D02*
X114496Y91380D01*
X60308Y72218D02*
X60557Y72467D01*
Y73218D01*
X60132Y73643D02*
X60557Y73218D01*
X7832Y26128D02*
X60800D01*
X61281Y26728D02*
Y82493D01*
X60132Y83643D02*
X61281Y82493D01*
X8177Y25528D02*
X78072D01*
X60132Y82643D02*
X60800Y81975D01*
Y26128D02*
Y81975D01*
X112763Y47496D02*
X113584Y48317D01*
X112763Y51496D02*
X113584D01*
X112752Y59303D02*
X113584D01*
Y59484D01*
X114850Y60750D01*
X113584Y48317D02*
Y51496D01*
X152031Y73628D02*
Y78188D01*
X151732Y73417D02*
Y77908D01*
X151902Y73347D02*
Y73498D01*
X152031Y73628D01*
X147787Y69473D02*
X147864D01*
X148052Y69661D01*
X148599Y70113D02*
X148668D01*
X151902Y73347D01*
X148529Y70283D02*
X148597D01*
X151732Y73417D01*
X148052Y69661D02*
Y69806D01*
X148529Y70283D01*
X148231Y63728D02*
Y69746D01*
X148599Y70113D01*
X147678Y69364D02*
X147787Y69473D01*
X147678Y64827D02*
Y69364D01*
X146732Y63293D02*
X147316Y63878D01*
Y64465D01*
X147678Y64827D01*
X146143Y65191D02*
X146147Y65187D01*
X112752Y55303D02*
X113578D01*
X113584Y51496D02*
Y55309D01*
Y59303D01*
X113578Y55303D02*
X113584Y55309D01*
X114850Y60750D02*
X119300D01*
X7972Y97146D02*
X15157D01*
X7874Y98130D02*
X15059D01*
X7972Y99114D02*
X14995D01*
X7972Y100098D02*
X15010D01*
X8669Y101181D02*
X24803D01*
X8716Y102228D02*
X25197D01*
X8645Y103157D02*
X23150D01*
X8593Y104262D02*
X8926D01*
X8959Y104228D01*
X9304D01*
X9337Y104262D01*
X25984D01*
X8705Y105217D02*
X26378D01*
X8645Y106157D02*
X26772D01*
X8645Y107157D02*
X27165D01*
X8645Y108157D02*
X27559D01*
X8645Y109157D02*
X27953D01*
X8645Y110157D02*
X28346D01*
X8716Y111228D02*
X28740D01*
X8693Y112205D02*
X29134D01*
X8544Y112643D02*
X9129Y113228D01*
X29616D01*
X8661Y114173D02*
X29921D01*
X8547Y115059D02*
X21468D01*
X8071Y118209D02*
X32099D01*
X7874Y117126D02*
X32572D01*
X7693Y116157D02*
X17830D01*
X174705Y984D02*
X226378D01*
X174705Y4429D02*
X196358D01*
X174705Y3445D02*
X196358D01*
X174705D02*
Y4429D01*
X196358Y3445D02*
Y4429D01*
X174705Y3445D02*
X175689Y4429D01*
Y3445D02*
X176673Y4429D01*
Y3445D02*
X177657Y4429D01*
Y3445D02*
X178642Y4429D01*
Y3445D02*
X179626Y4429D01*
Y3445D02*
X180610Y4429D01*
Y3445D02*
X181594Y4429D01*
Y3445D02*
X182579Y4429D01*
Y3445D02*
X183563Y4429D01*
Y3445D02*
X184547Y4429D01*
Y3445D02*
X185532Y4429D01*
Y3445D02*
X186516Y4429D01*
Y3445D02*
X187500Y4429D01*
Y3445D02*
X188484Y4429D01*
Y3445D02*
X189468Y4429D01*
Y3445D02*
X190453Y4429D01*
Y3445D02*
X191437Y4429D01*
Y3445D02*
X192421Y4429D01*
Y3445D02*
X193406Y4429D01*
Y3445D02*
X194390Y4429D01*
Y3445D02*
X195374Y4429D01*
Y3445D02*
X196358Y4429D01*
X174705Y17717D02*
X196358D01*
X174705Y16732D02*
X196358D01*
X174705D02*
Y17717D01*
X196358Y16732D02*
Y17717D01*
X174705Y16732D02*
X175689Y17717D01*
Y16732D02*
X176673Y17717D01*
Y16732D02*
X177657Y17717D01*
Y16732D02*
X178642Y17717D01*
Y16732D02*
X179626Y17717D01*
Y16732D02*
X180610Y17717D01*
Y16732D02*
X181594Y17717D01*
Y16732D02*
X182579Y17717D01*
Y16732D02*
X183563Y17717D01*
Y16732D02*
X184547Y17717D01*
Y16732D02*
X185532Y17717D01*
Y16732D02*
X186516Y17717D01*
Y16732D02*
X187500Y17717D01*
Y16732D02*
X188484Y17717D01*
Y16732D02*
X189468Y17717D01*
Y16732D02*
X190453Y17717D01*
Y16732D02*
X191437Y17717D01*
Y16732D02*
X192421Y17717D01*
Y16732D02*
X193406Y17717D01*
Y16732D02*
X194390Y17717D01*
Y16732D02*
X195374Y17717D01*
Y16732D02*
X196358Y17717D01*
X174705Y5906D02*
X196358D01*
X174705Y4921D02*
X196358D01*
X174705D02*
Y5906D01*
X196358Y4921D02*
Y5906D01*
X174705Y4921D02*
X175689Y5906D01*
Y4921D02*
X176673Y5906D01*
Y4921D02*
X177657Y5906D01*
Y4921D02*
X178642Y5906D01*
Y4921D02*
X179626Y5906D01*
Y4921D02*
X180610Y5906D01*
Y4921D02*
X181594Y5906D01*
Y4921D02*
X182579Y5906D01*
Y4921D02*
X183563Y5906D01*
Y4921D02*
X184547Y5906D01*
Y4921D02*
X185532Y5906D01*
Y4921D02*
X186516Y5906D01*
Y4921D02*
X187500Y5906D01*
Y4921D02*
X188484Y5906D01*
Y4921D02*
X189468Y5906D01*
Y4921D02*
X190453Y5906D01*
Y4921D02*
X191437Y5906D01*
Y4921D02*
X192421Y5906D01*
Y4921D02*
X193406Y5906D01*
Y4921D02*
X194390Y5906D01*
Y4921D02*
X195374Y5906D01*
Y4921D02*
X196358Y5906D01*
X195374D02*
X196358Y6890D01*
X194390Y5906D02*
X195374Y6890D01*
X193406Y5906D02*
X194390Y6890D01*
X192421Y5906D02*
X193406Y6890D01*
X191437Y5906D02*
X192421Y6890D01*
X190453Y5906D02*
X191437Y6890D01*
X189468Y5906D02*
X190453Y6890D01*
X188484Y5906D02*
X189468Y6890D01*
X187500Y5906D02*
X188484Y6890D01*
X186516Y5906D02*
X187500Y6890D01*
X185532Y5906D02*
X186516Y6890D01*
X184547Y5906D02*
X185532Y6890D01*
X183563Y5906D02*
X184547Y6890D01*
X182579Y5906D02*
X183563Y6890D01*
X181594Y5906D02*
X182579Y6890D01*
X180610Y5906D02*
X181594Y6890D01*
X179626Y5906D02*
X180610Y6890D01*
X178642Y5906D02*
X179626Y6890D01*
X177657Y5906D02*
X178642Y6890D01*
X176673Y5906D02*
X177657Y6890D01*
X175689Y5906D02*
X176673Y6890D01*
X174705Y5906D02*
X175689Y6890D01*
X196358Y5906D02*
Y6890D01*
X174705Y5906D02*
Y6890D01*
Y5906D02*
X196358D01*
X174705Y6890D02*
X196358D01*
Y7382D02*
Y8366D01*
X174705Y7382D02*
Y8366D01*
Y7382D02*
X196358D01*
X174705Y8366D02*
X196358D01*
X174705Y9843D02*
X196358D01*
X174705Y8858D02*
X196358D01*
X174705D02*
Y9843D01*
X196358Y8858D02*
Y9843D01*
X174705Y8858D02*
X175689Y9843D01*
Y8858D02*
X176673Y9843D01*
Y8858D02*
X177657Y9843D01*
Y8858D02*
X178642Y9843D01*
Y8858D02*
X179626Y9843D01*
Y8858D02*
X180610Y9843D01*
Y8858D02*
X181594Y9843D01*
Y8858D02*
X182579Y9843D01*
Y8858D02*
X183563Y9843D01*
Y8858D02*
X184547Y9843D01*
Y8858D02*
X185532Y9843D01*
Y8858D02*
X186516Y9843D01*
Y8858D02*
X187500Y9843D01*
Y8858D02*
X188484Y9843D01*
Y8858D02*
X189468Y9843D01*
Y8858D02*
X190453Y9843D01*
Y8858D02*
X191437Y9843D01*
Y8858D02*
X192421Y9843D01*
Y8858D02*
X193406Y9843D01*
Y8858D02*
X194390Y9843D01*
Y8858D02*
X195374Y9843D01*
Y8858D02*
X196358Y9843D01*
Y12795D01*
X174705Y9843D02*
Y12795D01*
Y9843D02*
X196358D01*
X174705Y12795D02*
X196358D01*
X174705Y15256D02*
X196358D01*
X174705Y14272D02*
X196358D01*
X174705D02*
Y15256D01*
X196358Y14272D02*
Y15256D01*
X174705Y13780D02*
X196358D01*
X174705Y12795D02*
X196358D01*
X174705D02*
Y13780D01*
X196358Y12795D02*
Y13780D01*
X174705Y12795D02*
X175689Y13780D01*
Y12795D02*
X176673Y13780D01*
Y12795D02*
X177657Y13780D01*
Y12795D02*
X178642Y13780D01*
Y12795D02*
X179626Y13780D01*
Y12795D02*
X180610Y13780D01*
Y12795D02*
X181594Y13780D01*
Y12795D02*
X182579Y13780D01*
Y12795D02*
X183563Y13780D01*
Y12795D02*
X184547Y13780D01*
Y12795D02*
X185532Y13780D01*
Y12795D02*
X186516Y13780D01*
Y12795D02*
X187500Y13780D01*
Y12795D02*
X188484Y13780D01*
Y12795D02*
X189468Y13780D01*
Y12795D02*
X190453Y13780D01*
Y12795D02*
X191437Y13780D01*
Y12795D02*
X192421Y13780D01*
Y12795D02*
X193406Y13780D01*
Y12795D02*
X194390Y13780D01*
Y12795D02*
X195374Y13780D01*
Y12795D02*
X196358Y13780D01*
X174705Y16732D02*
X196358D01*
X174705Y15748D02*
X196358D01*
X174705D02*
Y16732D01*
X196358Y15748D02*
Y16732D01*
X174705Y15748D02*
X175689Y16732D01*
Y15748D02*
X176673Y16732D01*
Y15748D02*
X177657Y16732D01*
Y15748D02*
X178642Y16732D01*
Y15748D02*
X179626Y16732D01*
Y15748D02*
X180610Y16732D01*
Y15748D02*
X181594Y16732D01*
Y15748D02*
X182579Y16732D01*
Y15748D02*
X183563Y16732D01*
Y15748D02*
X184547Y16732D01*
Y15748D02*
X185532Y16732D01*
Y15748D02*
X186516Y16732D01*
Y15748D02*
X187500Y16732D01*
Y15748D02*
X188484Y16732D01*
Y15748D02*
X189468Y16732D01*
Y15748D02*
X190453Y16732D01*
Y15748D02*
X191437Y16732D01*
Y15748D02*
X192421Y16732D01*
Y15748D02*
X193406Y16732D01*
Y15748D02*
X194390Y16732D01*
Y15748D02*
X195374Y16732D01*
Y15748D02*
X196358Y16732D01*
X195374Y3445D02*
X196358Y4429D01*
X194390Y3445D02*
X195374Y4429D01*
X193406Y3445D02*
X194390Y4429D01*
X192421Y3445D02*
X193406Y4429D01*
X191437Y3445D02*
X192421Y4429D01*
X190453Y3445D02*
X191437Y4429D01*
X189468Y3445D02*
X190453Y4429D01*
X188484Y3445D02*
X189468Y4429D01*
X187500Y3445D02*
X188484Y4429D01*
X186516Y3445D02*
X187500Y4429D01*
X185532Y3445D02*
X186516Y4429D01*
X184547Y3445D02*
X185532Y4429D01*
X183563Y3445D02*
X184547Y4429D01*
X182579Y3445D02*
X183563Y4429D01*
X181594Y3445D02*
X182579Y4429D01*
X180610Y3445D02*
X181594Y4429D01*
X179626Y3445D02*
X180610Y4429D01*
X178642Y3445D02*
X179626Y4429D01*
X177657Y3445D02*
X178642Y4429D01*
X176673Y3445D02*
X177657Y4429D01*
X175689Y3445D02*
X176673Y4429D01*
X174705Y3445D02*
X175689Y4429D01*
X196358Y3445D02*
Y4429D01*
X174705Y3445D02*
Y4429D01*
Y3445D02*
X196358D01*
X174705Y4429D02*
X196358D01*
X195374Y18209D02*
X196358Y19193D01*
X194390Y18209D02*
X195374Y19193D01*
X193406Y18209D02*
X194390Y19193D01*
X192421Y18209D02*
X193406Y19193D01*
X191437Y18209D02*
X192421Y19193D01*
X190453Y18209D02*
X191437Y19193D01*
X189468Y18209D02*
X190453Y19193D01*
X188484Y18209D02*
X189468Y19193D01*
X187500Y18209D02*
X188484Y19193D01*
X186516Y18209D02*
X187500Y19193D01*
X185532Y18209D02*
X186516Y19193D01*
X184547Y18209D02*
X185532Y19193D01*
X183563Y18209D02*
X184547Y19193D01*
X182579Y18209D02*
X183563Y19193D01*
X181594Y18209D02*
X182579Y19193D01*
X180610Y18209D02*
X181594Y19193D01*
X179626Y18209D02*
X180610Y19193D01*
X178642Y18209D02*
X179626Y19193D01*
X177657Y18209D02*
X178642Y19193D01*
X176673Y18209D02*
X177657Y19193D01*
X175689Y18209D02*
X176673Y19193D01*
X174705Y18209D02*
X175689Y19193D01*
X196358Y18209D02*
Y19193D01*
X174705Y18209D02*
Y19193D01*
Y18209D02*
X196358D01*
X174705Y19193D02*
X196358D01*
X195374Y19685D02*
X196358Y20669D01*
X194390Y19685D02*
X195374Y20669D01*
X193406Y19685D02*
X194390Y20669D01*
X192421Y19685D02*
X193406Y20669D01*
X191437Y19685D02*
X192421Y20669D01*
X190453Y19685D02*
X191437Y20669D01*
X189468Y19685D02*
X190453Y20669D01*
X188484Y19685D02*
X189468Y20669D01*
X187500Y19685D02*
X188484Y20669D01*
X186516Y19685D02*
X187500Y20669D01*
X185532Y19685D02*
X186516Y20669D01*
X184547Y19685D02*
X185532Y20669D01*
X183563Y19685D02*
X184547Y20669D01*
X182579Y19685D02*
X183563Y20669D01*
X181594Y19685D02*
X182579Y20669D01*
X180610Y19685D02*
X181594Y20669D01*
X179626Y19685D02*
X180610Y20669D01*
X178642Y19685D02*
X179626Y20669D01*
X177657Y19685D02*
X178642Y20669D01*
X176673Y19685D02*
X177657Y20669D01*
X175689Y19685D02*
X176673Y20669D01*
X174705Y19685D02*
X175689Y20669D01*
X196358Y19685D02*
Y20669D01*
X174705Y19685D02*
Y20669D01*
Y19685D02*
X196358D01*
X174705Y20669D02*
X196358D01*
X195374Y1969D02*
X196358Y2953D01*
X194390Y1969D02*
X195374Y2953D01*
X193406Y1969D02*
X194390Y2953D01*
X192421Y1969D02*
X193406Y2953D01*
X191437Y1969D02*
X192421Y2953D01*
X190453Y1969D02*
X191437Y2953D01*
X189468Y1969D02*
X190453Y2953D01*
X188484Y1969D02*
X189468Y2953D01*
X187500Y1969D02*
X188484Y2953D01*
X186516Y1969D02*
X187500Y2953D01*
X185532Y1969D02*
X186516Y2953D01*
X184547Y1969D02*
X185532Y2953D01*
X183563Y1969D02*
X184547Y2953D01*
X182579Y1969D02*
X183563Y2953D01*
X181594Y1969D02*
X182579Y2953D01*
X180610Y1969D02*
X181594Y2953D01*
X179626Y1969D02*
X180610Y2953D01*
X178642Y1969D02*
X179626Y2953D01*
X177657Y1969D02*
X178642Y2953D01*
X176673Y1969D02*
X177657Y2953D01*
X175689Y1969D02*
X176673Y2953D01*
X174705Y1969D02*
X175689Y2953D01*
X196358Y1969D02*
Y2953D01*
X174705Y1969D02*
Y2953D01*
Y1969D02*
X196358D01*
X174705Y2953D02*
X196358D01*
X196850Y2461D02*
X197343Y1969D01*
Y2953D01*
X196850Y2461D02*
X197343Y2953D01*
X196850Y2461D02*
X201280D01*
X196850Y3937D02*
X197343Y3445D01*
Y4429D01*
X196850Y3937D02*
X197343Y4429D01*
X196850Y3937D02*
X201280D01*
X196850Y5413D02*
X197343Y4921D01*
Y5906D01*
X196850Y5413D02*
X197343Y5906D01*
X196850Y5413D02*
X201280D01*
X196850Y6398D02*
X197343Y5906D01*
Y6890D01*
X196850Y6398D02*
X197343Y6890D01*
X196850Y6398D02*
X201280D01*
X196850Y9350D02*
X197343Y8858D01*
Y9843D01*
X196850Y9350D02*
X197343Y9843D01*
X196850Y9350D02*
X201280D01*
X196850Y13287D02*
X197343Y12795D01*
Y13780D01*
X196850Y13287D02*
X197343Y13780D01*
X196850Y13287D02*
X201280D01*
X196850Y16240D02*
X197343Y15748D01*
Y16732D01*
X196850Y16240D02*
X197343Y16732D01*
X196850Y16240D02*
X201280D01*
X196850Y17224D02*
X197343Y16732D01*
Y17717D01*
X196850Y17224D02*
X197343Y17717D01*
X196850Y17224D02*
X201280D01*
X196850Y11319D02*
X197343Y10827D01*
Y11811D01*
X196850Y11319D02*
X197343Y11811D01*
X196850Y11319D02*
X206201D01*
X196850Y7874D02*
X197343Y7382D01*
Y8366D01*
X196850Y7874D02*
X197343Y8366D01*
X196850Y7874D02*
X206201D01*
X196850Y14764D02*
X197343Y14272D01*
Y15256D01*
X196850Y14764D02*
X197343Y15256D01*
X196850Y14764D02*
X206201D01*
X196850Y18701D02*
X197343Y18209D01*
Y19193D01*
X196850Y18701D02*
X197343Y19193D01*
X196850Y18701D02*
X201280D01*
X196850Y20177D02*
X197343Y19685D01*
Y20669D01*
X196850Y20177D02*
X197343Y20669D01*
X196850Y20177D02*
X201280D01*
X174705Y23130D02*
X226870D01*
D29*
X1710Y79740D02*
X1808D01*
X1809Y79739D01*
X3750Y120800D02*
X6400D01*
X6700Y120500D01*
X1809Y79739D02*
Y84499D01*
X570Y85738D02*
X1809Y84499D01*
X570Y85738D02*
Y125630D01*
X6080Y107452D02*
X6555Y107927D01*
X6080Y107124D02*
Y107452D01*
X4700Y81750D02*
X8650Y77800D01*
X6080Y116124D02*
X6693Y116737D01*
X6080Y118124D02*
X6700Y118744D01*
Y120500D01*
X6693Y116737D02*
Y118228D01*
X7205Y118740D01*
Y119717D01*
X8131Y120643D01*
X1614Y123984D02*
X1720Y124090D01*
X1614Y120807D02*
Y123984D01*
Y120807D02*
X2978Y119443D01*
X3278D01*
X3553Y119168D01*
Y118868D02*
Y119168D01*
Y118868D02*
X3830Y118591D01*
Y112627D02*
Y118591D01*
Y112627D02*
X6555Y109902D01*
Y107927D02*
Y109902D01*
X4700Y81750D02*
Y96541D01*
X6102Y97943D01*
Y99803D01*
X147897Y136003D02*
X148622Y135278D01*
Y112642D02*
Y135278D01*
X148190Y112160D02*
Y112243D01*
X113653Y136003D02*
X147897D01*
X147747Y135723D02*
X148189Y135281D01*
Y113110D02*
Y135281D01*
X112793Y135143D02*
X113653Y136003D01*
X10083Y135143D02*
X112793D01*
X112919Y134873D02*
X113769Y135723D01*
X38797Y134873D02*
X112919D01*
X38719Y134795D02*
X38797Y134873D01*
X570Y125630D02*
X10083Y135143D01*
X10365Y134795D02*
X38719D01*
X1740Y126170D02*
X10365Y134795D01*
X77650Y25200D02*
X83240Y19610D01*
X8140Y25200D02*
X77650D01*
X3000Y30340D02*
X8140Y25200D01*
X148564Y107960D02*
X150484Y106040D01*
X150985D02*
X151732Y105293D01*
X150484Y106040D02*
X150985D01*
X153165Y105860D02*
X153731Y105293D01*
X151561Y105860D02*
X153165D01*
X151101Y106320D02*
X151561Y105860D01*
X150600Y106320D02*
X151101D01*
X148530Y108390D02*
X150600Y106320D01*
X148352Y107960D02*
X148564D01*
X148100Y108212D02*
X148352Y107960D01*
X151732Y105293D02*
X152732D01*
X153731D02*
X154732D01*
X148100Y108212D02*
Y108780D01*
X148120Y108800D01*
X113769Y135723D02*
X147747D01*
X8051Y52803D02*
Y53248D01*
X10031Y55228D01*
Y35428D02*
Y55228D01*
X7531Y32123D02*
X8051Y31603D01*
X7531Y32123D02*
Y32928D01*
X10031Y35428D01*
Y55228D02*
Y61128D01*
Y62028D01*
X7630Y3240D02*
X21100D01*
X24440Y6580D01*
X28628D01*
X30252Y8203D01*
X28714Y3240D02*
X38288D01*
X43251Y8203D01*
X48252Y4787D02*
X49798Y3240D01*
X48252Y4787D02*
Y8203D01*
X68402Y5720D02*
X70882Y3240D01*
X63735Y5720D02*
X68402D01*
X61251Y8203D02*
X63735Y5720D01*
X66252Y8203D02*
X67475Y6980D01*
X70090D01*
X71890Y5180D01*
X89800D01*
X91740Y3240D01*
X91966D01*
X79251Y8203D02*
X81595Y5860D01*
X91400D01*
X92020Y5240D01*
X111050D01*
X113050Y3240D01*
X62241Y118993D02*
X62984D01*
X61741Y119493D02*
X62241Y118993D01*
Y116993D02*
X62984D01*
X61741Y117493D02*
X62241Y116993D01*
Y114993D02*
X62984D01*
X61741Y115493D02*
X62241Y114993D01*
Y112993D02*
X62984D01*
X61741Y113493D02*
X62241Y112993D01*
X8650Y69401D02*
Y77800D01*
Y69401D02*
X10031Y68020D01*
Y62028D02*
Y68020D01*
X48250Y66350D02*
X48300Y66300D01*
X113269Y42947D02*
X117836D01*
X109011Y47205D02*
X113269Y42947D01*
X114017Y45073D02*
Y55640D01*
X114732Y56354D01*
X148190Y112160D02*
Y113091D01*
X136143Y29522D02*
X139017Y26648D01*
X136104Y29522D02*
X136143D01*
X134590Y31035D02*
X136104Y29522D01*
X134590Y31035D02*
Y32649D01*
X123968Y43272D02*
X134590Y32649D01*
X123092Y43272D02*
X123968D01*
X122866Y43498D02*
X123092Y43272D01*
X115513Y43498D02*
X122866D01*
X115198Y43813D02*
X115513Y43498D01*
X115198Y43813D02*
Y48104D01*
X114822Y48480D02*
X115198Y48104D01*
X114732Y48480D02*
X114822D01*
X113190Y34718D02*
X118663Y29246D01*
X135670D01*
X106683Y48863D02*
Y52013D01*
X113190Y34718D02*
Y42356D01*
X106683Y48863D02*
X113190Y42356D01*
X104667Y54029D02*
X106683Y52013D01*
X103308Y54029D02*
X104667D01*
X103308Y53459D02*
X104332D01*
X112689Y34511D02*
Y42002D01*
X104332Y53459D02*
X106182Y51608D01*
Y48509D02*
Y51608D01*
X118466Y28734D02*
X135474D01*
X106182Y48509D02*
X112689Y42002D01*
Y34511D02*
X118466Y28734D01*
X77191Y65265D02*
X77669Y64788D01*
X73693Y65265D02*
X77191D01*
X73381Y65578D02*
X73693Y65265D01*
X65789Y65578D02*
X73381D01*
X65323Y66043D02*
X65789Y65578D01*
X65231Y66043D02*
X65323D01*
X74351Y68911D02*
X78072Y65191D01*
X74351Y68911D02*
Y69096D01*
X73926Y69522D02*
X74351Y69096D01*
X65670Y69522D02*
X73926D01*
X65231Y69961D02*
X65670Y69522D01*
X65231Y69961D02*
Y70043D01*
X109011Y47205D02*
Y51446D01*
X102993Y57464D02*
X109011Y51446D01*
X102993Y57464D02*
Y57593D01*
X122245Y5270D02*
X122363Y5388D01*
X122245Y5270D02*
X122285Y5230D01*
X136064D01*
X135710Y11687D02*
X138663Y14640D01*
X141694D01*
X138151Y23537D02*
Y26057D01*
X135474Y28734D02*
X138151Y26057D01*
X138584Y24482D02*
Y26333D01*
X135670Y29246D02*
X138584Y26333D01*
X111852Y26333D02*
X132718D01*
X106930Y31254D02*
X111852Y26333D01*
X106930Y31254D02*
Y46215D01*
X103174Y49971D02*
X106930Y46215D01*
X103174Y49971D02*
Y51424D01*
X102521Y52077D02*
X103174Y51424D01*
X102521Y52077D02*
Y62002D01*
X135113Y20703D02*
X140434D01*
X134660Y20249D02*
X135113Y20703D01*
X115691Y20249D02*
X134660D01*
X109726Y26215D02*
X115691Y20249D01*
X96537Y26215D02*
X109726D01*
X141497Y18695D02*
Y20860D01*
X140041Y22317D02*
X141497Y20860D01*
X136733Y22317D02*
X140041D01*
X132718Y26333D02*
X136733Y22317D01*
X141458Y51923D02*
X146025Y56490D01*
X145788Y56938D02*
X146025Y56702D01*
Y56490D02*
Y56702D01*
X145788Y58324D02*
X146025Y58560D01*
X145788Y56938D02*
Y58324D01*
X146458Y58585D02*
X146719Y58324D01*
Y56572D02*
Y58324D01*
X142551Y52404D02*
X146719Y56572D01*
X141884Y51478D02*
Y51784D01*
Y51478D02*
X141891Y51470D01*
Y45191D02*
Y51470D01*
X142504Y52404D02*
X142551D01*
X141884Y51784D02*
X142504Y52404D01*
X141458Y45012D02*
Y51923D01*
X141891Y45191D02*
X142560Y44522D01*
X141458Y45012D02*
X142254Y44215D01*
X145401Y70647D02*
Y75475D01*
X146143Y76218D01*
Y65191D02*
Y69905D01*
X145401Y70647D02*
X146143Y69905D01*
X144112Y81687D02*
X144147Y81722D01*
Y88825D01*
X146064Y90742D01*
X146143Y76218D02*
Y77789D01*
X146064Y90742D02*
X148623D01*
X149922Y92041D01*
Y94955D01*
X153362Y98394D01*
Y98947D01*
X153578Y99163D01*
X154131D01*
X155395Y100427D01*
Y103972D01*
X155266Y104101D02*
X155395Y103972D01*
X155266Y104101D02*
Y105902D01*
X154662Y106506D02*
X155266Y105902D01*
X146713Y65191D02*
Y69251D01*
X147101Y69640D01*
Y73531D01*
X144647Y81722D02*
X144682Y81687D01*
X144647Y81722D02*
Y88825D01*
X146064Y90242D01*
X146713Y76444D02*
X147886Y75271D01*
X146713Y76444D02*
Y77789D01*
X146064Y90242D02*
X148623D01*
X147101Y73531D02*
X147886Y74315D01*
Y75271D01*
X148623Y90242D02*
X150422Y92041D01*
Y94955D01*
X154361Y98894D01*
Y98947D01*
X155842Y100427D01*
X155895D01*
Y103799D01*
X156197Y104101D01*
Y105777D01*
X155065Y106909D02*
X156197Y105777D01*
X146025Y58560D02*
Y62081D01*
X146458Y58585D02*
Y62081D01*
X142836Y17396D02*
X142915D01*
X142254Y17977D02*
Y44215D01*
Y17977D02*
X142836Y17396D01*
X142560Y19207D02*
Y44522D01*
Y19207D02*
X142796Y18970D01*
D30*
X8131Y115643D02*
X8527Y115248D01*
X5200Y82350D02*
X5700D01*
X6100Y81400D02*
X6466D01*
X5700Y82350D02*
X7550Y80500D01*
X6466Y81400D02*
X7496Y80370D01*
X12795Y17520D02*
Y18570D01*
Y17520D02*
X13845D01*
X12795Y16470D02*
Y17520D01*
X11745D02*
X12795D01*
X134921Y39803D02*
Y40853D01*
Y39803D02*
X135971D01*
X134921Y38753D02*
Y39803D01*
X133871D02*
X134921D01*
X22047Y120472D02*
Y121522D01*
Y120472D02*
X23097D01*
X22047Y119422D02*
Y120472D01*
X20997D02*
X22047D01*
X98584Y88200D02*
X98869Y88486D01*
X85437Y99118D02*
X87594D01*
X87598Y99114D01*
X85433D02*
X85437Y99118D01*
X85000Y98900D02*
X85100D01*
X85104Y98896D01*
X76575Y99114D02*
X76596Y99135D01*
X93661Y123374D02*
X94016Y123020D01*
Y120354D02*
Y123020D01*
Y120354D02*
X94252Y120118D01*
X93135Y130893D02*
X93661Y130366D01*
Y123374D02*
Y130366D01*
X94740Y124394D02*
X94835Y124299D01*
Y124269D02*
Y124299D01*
Y124269D02*
X95011Y124093D01*
X95041D01*
X95150Y123984D01*
X94740Y124394D02*
Y130288D01*
X95150Y122536D02*
Y123984D01*
X94135Y130893D02*
X94740Y130288D01*
X95150Y122536D02*
X95312Y122374D01*
Y120118D02*
Y122374D01*
X96024Y130787D02*
X96063Y130748D01*
Y129882D02*
Y130748D01*
X85000Y120000D02*
Y123809D01*
X84616Y124193D02*
X85000Y123809D01*
X84616Y124193D02*
Y130412D01*
X86000Y120000D02*
Y123803D01*
X85616Y124187D02*
X86000Y123803D01*
X85616Y124187D02*
Y130325D01*
X87530Y130057D02*
Y130238D01*
Y130057D02*
X87530Y130057D01*
Y129729D02*
Y130057D01*
X87530Y129729D02*
X87530Y129729D01*
X87530Y124193D02*
Y129729D01*
Y130238D02*
X87616Y130325D01*
X87530Y124193D02*
X88000Y123722D01*
X87000Y120000D02*
Y123728D01*
X86616Y124112D02*
X87000Y123728D01*
X86616Y124112D02*
Y130412D01*
X88000Y120000D02*
Y123722D01*
X89000Y120000D02*
Y123756D01*
X88616Y124140D02*
X89000Y123756D01*
X88616Y124140D02*
Y130325D01*
X90000Y120000D02*
Y123740D01*
X89587Y124154D02*
X90000Y123740D01*
X89587Y124154D02*
Y130280D01*
X91000Y120000D02*
Y123764D01*
X90616Y124148D02*
X91000Y123764D01*
X90616Y124148D02*
Y130412D01*
X92000Y120000D02*
Y123846D01*
X91616Y124230D02*
X92000Y123846D01*
X91616Y124230D02*
Y130325D01*
X91135Y130806D02*
Y130893D01*
Y130806D02*
X91616Y130325D01*
X90135Y130893D02*
X90616Y130412D01*
X88135Y130806D02*
X88616Y130325D01*
X88135Y130806D02*
Y130893D01*
X86135D02*
X86616Y130412D01*
X84135Y130893D02*
X84616Y130412D01*
X132520Y121368D02*
X133780Y122628D01*
X130591Y121368D02*
X132520D01*
X129360Y122598D02*
X130591Y121368D01*
X146201Y95350D02*
Y108484D01*
X145647Y94796D02*
X146201Y95350D01*
X145647Y92822D02*
Y94796D01*
X144872Y92047D02*
X145647Y92822D01*
X104659Y89734D02*
X108415D01*
X108445Y89764D01*
X67884Y90354D02*
X71102Y93573D01*
X80502D01*
X98200Y88200D02*
X98616Y88616D01*
X98869Y88486D02*
X103594D01*
X98616Y88616D02*
X103540D01*
X103594Y88486D02*
X103632Y88524D01*
X103632D01*
X103540Y88616D02*
X104659Y89734D01*
X103632Y88524D02*
X104429Y89321D01*
X107953D01*
X131201Y63824D02*
X131732Y63293D01*
X131201Y63824D02*
Y77264D01*
X132201Y63824D02*
Y77264D01*
Y63824D02*
X132732Y63293D01*
X133201Y63824D02*
Y77264D01*
Y63824D02*
X133731Y63293D01*
X134201Y63824D02*
Y77264D01*
Y63824D02*
X134732Y63293D01*
X135201Y63824D02*
Y77264D01*
Y63824D02*
X135731Y63293D01*
X136201Y63824D02*
Y77264D01*
Y63824D02*
X136732Y63293D01*
X137201Y63824D02*
Y77264D01*
Y63824D02*
X137732Y63293D01*
X138201Y63824D02*
Y77264D01*
Y63824D02*
X138731Y63293D01*
X139201Y63824D02*
Y77264D01*
Y63824D02*
X139732Y63293D01*
X140201Y63824D02*
Y77264D01*
Y63824D02*
X140731Y63293D01*
X141201Y63824D02*
Y77264D01*
Y63824D02*
X141732Y63293D01*
X142201Y63824D02*
Y77264D01*
Y63824D02*
X142732Y63293D01*
X143201Y63824D02*
Y77264D01*
Y63824D02*
X143731Y63293D01*
X144201Y63824D02*
Y77264D01*
Y63824D02*
X144732Y63293D01*
X145201Y63824D02*
Y77264D01*
Y63824D02*
X145731Y63293D01*
X7550Y80500D02*
X34534D01*
X7496Y80370D02*
X34480D01*
X34534Y80500D02*
X44284Y70750D01*
X45400D01*
X34480Y80370D02*
X44318Y70532D01*
X45388D01*
X45650Y70270D01*
X76617Y99114D02*
X78051D01*
X76950Y98850D02*
X78450D01*
X76596Y99135D02*
X76617Y99114D01*
X87196Y98896D02*
X87200Y98900D01*
X85104Y98896D02*
X87196D01*
X8527Y115248D02*
X14858D01*
D31*
X13701Y13811D02*
X23701D01*
Y9811D02*
Y13811D01*
X13701Y9811D02*
X23701D01*
X13701D02*
Y13811D01*
D32*
X22800Y10311D02*
Y13310D01*
X21301Y11811D01*
X23300D01*
D34*
X9600Y24720D02*
X77280D01*
X9050D02*
X9600D01*
X8500D02*
X9050D01*
X82425Y19575D02*
X83015Y18985D01*
X77280Y24720D02*
X82425Y19575D01*
D35*
X169291Y0D02*
Y137795D01*
X0Y0D02*
X169291D01*
X0D02*
Y137795D01*
X169291D01*
D36*
X174705Y55034D02*
X175005D01*
X174855D01*
Y54134D01*
X174705D01*
X175005D01*
X175454D02*
Y55034D01*
X175904D01*
X176054Y54884D01*
Y54584D01*
X175904Y54434D01*
X175454D01*
X176954Y54884D02*
X176804Y55034D01*
X176504D01*
X176354Y54884D01*
Y54284D01*
X176504Y54134D01*
X176804D01*
X176954Y54284D01*
X177254Y54584D02*
X177854D01*
X178753Y55034D02*
X178454Y54884D01*
X178154Y54584D01*
Y54284D01*
X178304Y54134D01*
X178603D01*
X178753Y54284D01*
Y54434D01*
X178603Y54584D01*
X178154D01*
X179053Y54884D02*
X179203Y55034D01*
X179503D01*
X179653Y54884D01*
Y54284D01*
X179503Y54134D01*
X179203D01*
X179053Y54284D01*
Y54884D01*
X179953Y54134D02*
X180253D01*
X180103D01*
Y55034D01*
X179953Y54884D01*
X181303Y54134D02*
X180703D01*
X181303Y54734D01*
Y54884D01*
X181153Y55034D01*
X180853D01*
X180703Y54884D01*
X183102D02*
X182952Y55034D01*
X182652D01*
X182502Y54884D01*
Y54284D01*
X182652Y54134D01*
X182952D01*
X183102Y54284D01*
X183402Y54134D02*
X183702D01*
X183552D01*
Y55034D01*
X183402D01*
X184302Y54734D02*
X184602D01*
X184751Y54584D01*
Y54134D01*
X184302D01*
X184152Y54284D01*
X184302Y54434D01*
X184751D01*
X185051Y54134D02*
X185501D01*
X185651Y54284D01*
X185501Y54434D01*
X185201D01*
X185051Y54584D01*
X185201Y54734D01*
X185651D01*
X185951Y54134D02*
X186401D01*
X186551Y54284D01*
X186401Y54434D01*
X186101D01*
X185951Y54584D01*
X186101Y54734D01*
X186551D01*
X188350Y54134D02*
X187751D01*
X188350Y54734D01*
Y54884D01*
X188200Y55034D01*
X187900D01*
X187751Y54884D01*
X190150Y55034D02*
X189550D01*
Y54134D01*
X190150D01*
X189550Y54584D02*
X189850D01*
X190450Y54734D02*
X191049Y54134D01*
X190750Y54434D01*
X191049Y54734D01*
X190450Y54134D01*
X191949Y54734D02*
X191499D01*
X191349Y54584D01*
Y54284D01*
X191499Y54134D01*
X191949D01*
X192699D02*
X192399D01*
X192249Y54284D01*
Y54584D01*
X192399Y54734D01*
X192699D01*
X192849Y54584D01*
Y54434D01*
X192249D01*
X193149Y53834D02*
Y54734D01*
X193599D01*
X193749Y54584D01*
Y54284D01*
X193599Y54134D01*
X193149D01*
X194198Y54884D02*
Y54734D01*
X194048D01*
X194348D01*
X194198D01*
Y54284D01*
X194348Y54134D01*
X195848Y54734D02*
X196148D01*
X196298Y54584D01*
Y54134D01*
X195848D01*
X195698Y54284D01*
X195848Y54434D01*
X196298D01*
X196598Y54134D02*
X197048D01*
X197197Y54284D01*
X197048Y54434D01*
X196748D01*
X196598Y54584D01*
X196748Y54734D01*
X197197D01*
X198397Y55034D02*
Y54134D01*
X198847D01*
X198997Y54284D01*
Y54434D01*
Y54584D01*
X198847Y54734D01*
X198397D01*
X199747Y54134D02*
X199447D01*
X199297Y54284D01*
Y54584D01*
X199447Y54734D01*
X199747D01*
X199897Y54584D01*
Y54434D01*
X199297D01*
X200196Y54134D02*
X200496D01*
X200346D01*
Y55034D01*
X200196D01*
X201096Y54134D02*
X201396D01*
X201546Y54284D01*
Y54584D01*
X201396Y54734D01*
X201096D01*
X200946Y54584D01*
Y54284D01*
X201096Y54134D01*
X201846Y54734D02*
Y54284D01*
X201996Y54134D01*
X202146Y54284D01*
X202296Y54134D01*
X202446Y54284D01*
Y54734D01*
X174705Y40354D02*
Y40954D01*
X175005Y41254D01*
X175305Y40954D01*
Y40354D01*
Y40804D01*
X174705D01*
X175604Y40354D02*
X175904D01*
X175754D01*
Y41254D01*
X175604D01*
X176354Y40354D02*
X176654D01*
X176504D01*
Y41254D01*
X176354D01*
X178454Y40354D02*
X178154D01*
X178004Y40504D01*
Y40804D01*
X178154Y40954D01*
X178454D01*
X178603Y40804D01*
Y40654D01*
X178004D01*
X178903Y40954D02*
X179503Y40354D01*
X179203Y40654D01*
X179503Y40954D01*
X178903Y40354D01*
X179803Y40054D02*
Y40954D01*
X180253D01*
X180403Y40804D01*
Y40504D01*
X180253Y40354D01*
X179803D01*
X180853D02*
X181153D01*
X181303Y40504D01*
Y40804D01*
X181153Y40954D01*
X180853D01*
X180703Y40804D01*
Y40504D01*
X180853Y40354D01*
X181602D02*
X182052D01*
X182202Y40504D01*
X182052Y40654D01*
X181752D01*
X181602Y40804D01*
X181752Y40954D01*
X182202D01*
X182952Y40354D02*
X182652D01*
X182502Y40504D01*
Y40804D01*
X182652Y40954D01*
X182952D01*
X183102Y40804D01*
Y40654D01*
X182502D01*
X184002Y41254D02*
Y40354D01*
X183552D01*
X183402Y40504D01*
Y40804D01*
X183552Y40954D01*
X184002D01*
X185801D02*
X185351D01*
X185201Y40804D01*
Y40504D01*
X185351Y40354D01*
X185801D01*
X186251D02*
X186551D01*
X186701Y40504D01*
Y40804D01*
X186551Y40954D01*
X186251D01*
X186101Y40804D01*
Y40504D01*
X186251Y40354D01*
X187001Y40054D02*
Y40954D01*
X187451D01*
X187601Y40804D01*
Y40504D01*
X187451Y40354D01*
X187001D01*
X187900Y40054D02*
Y40954D01*
X188350D01*
X188500Y40804D01*
Y40504D01*
X188350Y40354D01*
X187900D01*
X189250D02*
X188950D01*
X188800Y40504D01*
Y40804D01*
X188950Y40954D01*
X189250D01*
X189400Y40804D01*
Y40654D01*
X188800D01*
X189700Y40954D02*
Y40354D01*
Y40654D01*
X189850Y40804D01*
X190000Y40954D01*
X190150D01*
X191649D02*
X191949D01*
X192099Y40804D01*
Y40354D01*
X191649D01*
X191499Y40504D01*
X191649Y40654D01*
X192099D01*
X192399Y40954D02*
Y40354D01*
Y40654D01*
X192549Y40804D01*
X192699Y40954D01*
X192849D01*
X193749Y40354D02*
X193449D01*
X193299Y40504D01*
Y40804D01*
X193449Y40954D01*
X193749D01*
X193899Y40804D01*
Y40654D01*
X193299D01*
X194348Y40954D02*
X194648D01*
X194798Y40804D01*
Y40354D01*
X194348D01*
X194198Y40504D01*
X194348Y40654D01*
X194798D01*
X195098Y40354D02*
X195548D01*
X195698Y40504D01*
X195548Y40654D01*
X195248D01*
X195098Y40804D01*
X195248Y40954D01*
X195698D01*
X196898Y40354D02*
X197347D01*
X197497Y40504D01*
X197347Y40654D01*
X197048D01*
X196898Y40804D01*
X197048Y40954D01*
X197497D01*
X197797Y41254D02*
Y40354D01*
Y40804D01*
X197947Y40954D01*
X198247D01*
X198397Y40804D01*
Y40354D01*
X198847Y40954D02*
X199147D01*
X199297Y40804D01*
Y40354D01*
X198847D01*
X198697Y40504D01*
X198847Y40654D01*
X199297D01*
X199597Y40354D02*
X199897D01*
X199747D01*
Y41254D01*
X199597D01*
X200346Y40354D02*
X200646D01*
X200496D01*
Y41254D01*
X200346D01*
X201996D02*
Y40354D01*
X202446D01*
X202596Y40504D01*
Y40654D01*
Y40804D01*
X202446Y40954D01*
X201996D01*
X203345Y40354D02*
X203046D01*
X202896Y40504D01*
Y40804D01*
X203046Y40954D01*
X203345D01*
X203495Y40804D01*
Y40654D01*
X202896D01*
X205295Y40954D02*
X204845D01*
X204695Y40804D01*
Y40504D01*
X204845Y40354D01*
X205295D01*
X205745D02*
X206045D01*
X206195Y40504D01*
Y40804D01*
X206045Y40954D01*
X205745D01*
X205595Y40804D01*
Y40504D01*
X205745Y40354D01*
X206494Y40954D02*
X206794Y40354D01*
X207094Y40954D01*
X207844Y40354D02*
X207544D01*
X207394Y40504D01*
Y40804D01*
X207544Y40954D01*
X207844D01*
X207994Y40804D01*
Y40654D01*
X207394D01*
X208294Y40954D02*
Y40354D01*
Y40654D01*
X208444Y40804D01*
X208594Y40954D01*
X208744D01*
X209643Y40354D02*
X209344D01*
X209194Y40504D01*
Y40804D01*
X209344Y40954D01*
X209643D01*
X209793Y40804D01*
Y40654D01*
X209194D01*
X210693Y41254D02*
Y40354D01*
X210243D01*
X210093Y40504D01*
Y40804D01*
X210243Y40954D01*
X210693D01*
X211893D02*
Y40504D01*
X212043Y40354D01*
X212193Y40504D01*
X212343Y40354D01*
X212493Y40504D01*
Y40954D01*
X212792Y40354D02*
X213092D01*
X212942D01*
Y40954D01*
X212792D01*
X213692Y41104D02*
Y40954D01*
X213542D01*
X213842D01*
X213692D01*
Y40504D01*
X213842Y40354D01*
X214292Y41254D02*
Y40354D01*
Y40804D01*
X214442Y40954D01*
X214742D01*
X214892Y40804D01*
Y40354D01*
X216691Y41254D02*
X216091D01*
Y40354D01*
X216691D01*
X216091Y40804D02*
X216391D01*
X216991Y40354D02*
Y41254D01*
X217591Y40354D01*
Y41254D01*
X217891D02*
X218191D01*
X218041D01*
Y40354D01*
X217891D01*
X218191D01*
X219240Y41104D02*
X219090Y41254D01*
X218790D01*
X218641Y41104D01*
Y40504D01*
X218790Y40354D01*
X219090D01*
X219240Y40504D01*
Y40804D01*
X218940D01*
X174705Y37317D02*
Y36417D01*
X175155D01*
X175305Y36567D01*
Y36717D01*
X175155Y36867D01*
X174705D01*
X175155D01*
X175305Y37017D01*
Y37167D01*
X175155Y37317D01*
X174705D01*
X175754Y36417D02*
X176054D01*
X176204Y36567D01*
Y36867D01*
X176054Y37017D01*
X175754D01*
X175604Y36867D01*
Y36567D01*
X175754Y36417D01*
X176654Y37017D02*
X176954D01*
X177104Y36867D01*
Y36417D01*
X176654D01*
X176504Y36567D01*
X176654Y36717D01*
X177104D01*
X177404Y37017D02*
Y36417D01*
Y36717D01*
X177554Y36867D01*
X177704Y37017D01*
X177854D01*
X178903Y37317D02*
Y36417D01*
X178454D01*
X178304Y36567D01*
Y36867D01*
X178454Y37017D01*
X178903D01*
X180703Y37167D02*
X180553Y37317D01*
X180253D01*
X180103Y37167D01*
Y37017D01*
X180253Y36867D01*
X180553D01*
X180703Y36717D01*
Y36567D01*
X180553Y36417D01*
X180253D01*
X180103Y36567D01*
X181003Y37317D02*
Y36417D01*
Y36867D01*
X181153Y37017D01*
X181453D01*
X181602Y36867D01*
Y36417D01*
X182052Y37017D02*
X182352D01*
X182502Y36867D01*
Y36417D01*
X182052D01*
X181902Y36567D01*
X182052Y36717D01*
X182502D01*
X182802Y36417D02*
X183102D01*
X182952D01*
Y37317D01*
X182802D01*
X183552Y36417D02*
X183852D01*
X183702D01*
Y37317D01*
X183552D01*
X185201D02*
Y36417D01*
X185651D01*
X185801Y36567D01*
Y36717D01*
Y36867D01*
X185651Y37017D01*
X185201D01*
X186551Y36417D02*
X186251D01*
X186101Y36567D01*
Y36867D01*
X186251Y37017D01*
X186551D01*
X186701Y36867D01*
Y36717D01*
X186101D01*
X187900Y36417D02*
X188350D01*
X188500Y36567D01*
X188350Y36717D01*
X188050D01*
X187900Y36867D01*
X188050Y37017D01*
X188500D01*
X188950Y36417D02*
X189250D01*
X189400Y36567D01*
Y36867D01*
X189250Y37017D01*
X188950D01*
X188800Y36867D01*
Y36567D01*
X188950Y36417D01*
X189700D02*
X190000D01*
X189850D01*
Y37317D01*
X189700D01*
X191049D02*
Y36417D01*
X190600D01*
X190450Y36567D01*
Y36867D01*
X190600Y37017D01*
X191049D01*
X191799Y36417D02*
X191499D01*
X191349Y36567D01*
Y36867D01*
X191499Y37017D01*
X191799D01*
X191949Y36867D01*
Y36717D01*
X191349D01*
X192249Y37017D02*
Y36417D01*
Y36717D01*
X192399Y36867D01*
X192549Y37017D01*
X192699D01*
X194048Y36417D02*
Y37017D01*
X194198D01*
X194348Y36867D01*
Y36417D01*
Y36867D01*
X194498Y37017D01*
X194648Y36867D01*
Y36417D01*
X195098Y37017D02*
X195398D01*
X195548Y36867D01*
Y36417D01*
X195098D01*
X194948Y36567D01*
X195098Y36717D01*
X195548D01*
X195848Y36417D02*
X196298D01*
X196448Y36567D01*
X196298Y36717D01*
X195998D01*
X195848Y36867D01*
X195998Y37017D01*
X196448D01*
X196748Y36417D02*
Y37317D01*
Y36717D02*
X197197Y37017D01*
X196748Y36717D02*
X197197Y36417D01*
X198097D02*
X197797D01*
X197647Y36567D01*
Y36867D01*
X197797Y37017D01*
X198097D01*
X198247Y36867D01*
Y36717D01*
X197647D01*
X199147Y37317D02*
Y36417D01*
X198697D01*
X198547Y36567D01*
Y36867D01*
X198697Y37017D01*
X199147D01*
X199597Y36267D02*
X199747Y36417D01*
Y36567D01*
X199597D01*
Y36417D01*
X199747D01*
X199597Y36267D01*
X199447Y36117D01*
X201246Y37317D02*
Y36417D01*
X201696D01*
X201846Y36567D01*
Y36717D01*
Y36867D01*
X201696Y37017D01*
X201246D01*
X202296Y36417D02*
X202596D01*
X202746Y36567D01*
Y36867D01*
X202596Y37017D01*
X202296D01*
X202146Y36867D01*
Y36567D01*
X202296Y36417D01*
X203196Y37167D02*
Y37017D01*
X203046D01*
X203345D01*
X203196D01*
Y36567D01*
X203345Y36417D01*
X203795Y37317D02*
Y36417D01*
Y36867D01*
X203945Y37017D01*
X204245D01*
X204395Y36867D01*
Y36417D01*
X205595D02*
X206045D01*
X206195Y36567D01*
X206045Y36717D01*
X205745D01*
X205595Y36867D01*
X205745Y37017D01*
X206195D01*
X206494Y36417D02*
X206794D01*
X206644D01*
Y37017D01*
X206494D01*
X207844Y37317D02*
Y36417D01*
X207394D01*
X207244Y36567D01*
Y36867D01*
X207394Y37017D01*
X207844D01*
X208594Y36417D02*
X208294D01*
X208144Y36567D01*
Y36867D01*
X208294Y37017D01*
X208594D01*
X208744Y36867D01*
Y36717D01*
X208144D01*
X209044Y36417D02*
X209493D01*
X209643Y36567D01*
X209493Y36717D01*
X209194D01*
X209044Y36867D01*
X209194Y37017D01*
X209643D01*
X210093Y36267D02*
X210243Y36417D01*
Y36567D01*
X210093D01*
Y36417D01*
X210243D01*
X210093Y36267D01*
X209943Y36117D01*
X174705Y25506D02*
Y24606D01*
X175305D01*
X175754Y25206D02*
X176054D01*
X176204Y25056D01*
Y24606D01*
X175754D01*
X175604Y24756D01*
X175754Y24906D01*
X176204D01*
X176504Y25206D02*
Y24756D01*
X176654Y24606D01*
X177104D01*
Y24456D01*
X176954Y24306D01*
X176804D01*
X177104Y24606D02*
Y25206D01*
X177854Y24606D02*
X177554D01*
X177404Y24756D01*
Y25056D01*
X177554Y25206D01*
X177854D01*
X178004Y25056D01*
Y24906D01*
X177404D01*
X178304Y25206D02*
Y24606D01*
Y24906D01*
X178454Y25056D01*
X178603Y25206D01*
X178753D01*
X180703Y25356D02*
X180553Y25506D01*
X180253D01*
X180103Y25356D01*
Y25206D01*
X180253Y25056D01*
X180553D01*
X180703Y24906D01*
Y24756D01*
X180553Y24606D01*
X180253D01*
X180103Y24756D01*
X181153Y25356D02*
Y25206D01*
X181003D01*
X181303D01*
X181153D01*
Y24756D01*
X181303Y24606D01*
X181902Y25206D02*
X182202D01*
X182352Y25056D01*
Y24606D01*
X181902D01*
X181752Y24756D01*
X181902Y24906D01*
X182352D01*
X183252Y25206D02*
X182802D01*
X182652Y25056D01*
Y24756D01*
X182802Y24606D01*
X183252D01*
X183552D02*
Y25506D01*
Y24906D02*
X184002Y25206D01*
X183552Y24906D02*
X184002Y24606D01*
X185351Y25506D02*
Y24756D01*
X185501Y24606D01*
X185801D01*
X185951Y24756D01*
Y25506D01*
X186251Y24306D02*
Y25206D01*
X186701D01*
X186851Y25056D01*
Y24756D01*
X186701Y24606D01*
X186251D01*
X188200Y25206D02*
X188500D01*
X188650Y25056D01*
Y24606D01*
X188200D01*
X188050Y24756D01*
X188200Y24906D01*
X188650D01*
X188950Y24606D02*
X189400D01*
X189550Y24756D01*
X189400Y24906D01*
X189100D01*
X188950Y25056D01*
X189100Y25206D01*
X189550D01*
X190899Y24606D02*
Y25356D01*
Y25056D01*
X190750D01*
X191049D01*
X190899D01*
Y25356D01*
X191049Y25506D01*
X191649Y24606D02*
X191949D01*
X192099Y24756D01*
Y25056D01*
X191949Y25206D01*
X191649D01*
X191499Y25056D01*
Y24756D01*
X191649Y24606D01*
X192399D02*
X192699D01*
X192549D01*
Y25506D01*
X192399D01*
X193149Y24606D02*
X193449D01*
X193299D01*
Y25506D01*
X193149D01*
X194048Y24606D02*
X194348D01*
X194498Y24756D01*
Y25056D01*
X194348Y25206D01*
X194048D01*
X193899Y25056D01*
Y24756D01*
X194048Y24606D01*
X194798Y25206D02*
Y24756D01*
X194948Y24606D01*
X195098Y24756D01*
X195248Y24606D01*
X195398Y24756D01*
Y25206D01*
X195698Y24606D02*
X196148D01*
X196298Y24756D01*
X196148Y24906D01*
X195848D01*
X195698Y25056D01*
X195848Y25206D01*
X196298D01*
X196598D02*
X196748D01*
Y25056D01*
X196598D01*
Y25206D01*
Y24756D02*
X196748D01*
Y24606D01*
X196598D01*
Y24756D01*
X175305Y50947D02*
X175155Y51097D01*
X174855D01*
X174705Y50947D01*
Y50347D01*
X174855Y50197D01*
X175155D01*
X175305Y50347D01*
X175754Y50197D02*
X176054D01*
X176204Y50347D01*
Y50647D01*
X176054Y50797D01*
X175754D01*
X175604Y50647D01*
Y50347D01*
X175754Y50197D01*
X176504Y50797D02*
Y50197D01*
Y50497D01*
X176654Y50647D01*
X176804Y50797D01*
X176954D01*
X177854Y50197D02*
X177554D01*
X177404Y50347D01*
Y50647D01*
X177554Y50797D01*
X177854D01*
X178004Y50647D01*
Y50497D01*
X177404D01*
X179203Y50197D02*
Y51097D01*
X179503Y50797D01*
X179803Y51097D01*
Y50197D01*
X180253Y50797D02*
X180553D01*
X180703Y50647D01*
Y50197D01*
X180253D01*
X180103Y50347D01*
X180253Y50497D01*
X180703D01*
X181153Y50947D02*
Y50797D01*
X181003D01*
X181303D01*
X181153D01*
Y50347D01*
X181303Y50197D01*
X182202D02*
X181902D01*
X181752Y50347D01*
Y50647D01*
X181902Y50797D01*
X182202D01*
X182352Y50647D01*
Y50497D01*
X181752D01*
X182652Y50797D02*
Y50197D01*
Y50497D01*
X182802Y50647D01*
X182952Y50797D01*
X183102D01*
X183552Y50197D02*
X183852D01*
X183702D01*
Y50797D01*
X183552D01*
X184452D02*
X184751D01*
X184901Y50647D01*
Y50197D01*
X184452D01*
X184302Y50347D01*
X184452Y50497D01*
X184901D01*
X185201Y50197D02*
X185501D01*
X185351D01*
Y51097D01*
X185201D01*
X186851D02*
X187151D01*
X187001D01*
Y50197D01*
X186851D01*
X187151D01*
X187601D02*
Y50797D01*
X188050D01*
X188200Y50647D01*
Y50197D01*
X189400D02*
Y50797D01*
X189700Y51097D01*
X190000Y50797D01*
Y50197D01*
Y50647D01*
X189400D01*
X190899Y50797D02*
X190450D01*
X190300Y50647D01*
Y50347D01*
X190450Y50197D01*
X190899D01*
X191799Y50797D02*
X191349D01*
X191199Y50647D01*
Y50347D01*
X191349Y50197D01*
X191799D01*
X192249D02*
X192549D01*
X192699Y50347D01*
Y50647D01*
X192549Y50797D01*
X192249D01*
X192099Y50647D01*
Y50347D01*
X192249Y50197D01*
X192999Y50797D02*
Y50197D01*
Y50497D01*
X193149Y50647D01*
X193299Y50797D01*
X193449D01*
X194498Y51097D02*
Y50197D01*
X194048D01*
X193899Y50347D01*
Y50647D01*
X194048Y50797D01*
X194498D01*
X194948D02*
X195248D01*
X195398Y50647D01*
Y50197D01*
X194948D01*
X194798Y50347D01*
X194948Y50497D01*
X195398D01*
X195698Y50197D02*
Y50797D01*
X196148D01*
X196298Y50647D01*
Y50197D01*
X197197Y50797D02*
X196748D01*
X196598Y50647D01*
Y50347D01*
X196748Y50197D01*
X197197D01*
X197947D02*
X197647D01*
X197497Y50347D01*
Y50647D01*
X197647Y50797D01*
X197947D01*
X198097Y50647D01*
Y50497D01*
X197497D01*
X199297Y50797D02*
Y50347D01*
X199447Y50197D01*
X199597Y50347D01*
X199747Y50197D01*
X199897Y50347D01*
Y50797D01*
X200196Y50197D02*
X200496D01*
X200346D01*
Y50797D01*
X200196D01*
X201096Y50947D02*
Y50797D01*
X200946D01*
X201246D01*
X201096D01*
Y50347D01*
X201246Y50197D01*
X201696Y51097D02*
Y50197D01*
Y50647D01*
X201846Y50797D01*
X202146D01*
X202296Y50647D01*
Y50197D01*
X203495Y51097D02*
X203795D01*
X203645D01*
Y50197D01*
X203495D01*
X203795D01*
X204245D02*
Y51097D01*
X204695D01*
X204845Y50947D01*
Y50647D01*
X204695Y50497D01*
X204245D01*
X205745Y50947D02*
X205595Y51097D01*
X205295D01*
X205145Y50947D01*
Y50347D01*
X205295Y50197D01*
X205595D01*
X205745Y50347D01*
X206045Y50647D02*
X206644D01*
X207394Y50197D02*
Y51097D01*
X206944Y50647D01*
X207544D01*
X207844Y50197D02*
X208144D01*
X207994D01*
Y51097D01*
X207844Y50947D01*
X208594D02*
X208744Y51097D01*
X209044D01*
X209194Y50947D01*
Y50347D01*
X209044Y50197D01*
X208744D01*
X208594Y50347D01*
Y50947D01*
X209493Y50197D02*
X209793D01*
X209643D01*
Y51097D01*
X209493Y50947D01*
X210243Y50197D02*
X210843Y50797D01*
X211743Y50197D02*
X211143D01*
X211743Y50797D01*
Y50947D01*
X211593Y51097D01*
X211293D01*
X211143Y50947D01*
X212642Y51097D02*
X212343Y50947D01*
X212043Y50647D01*
Y50347D01*
X212193Y50197D01*
X212493D01*
X212642Y50347D01*
Y50497D01*
X212493Y50647D01*
X212043D01*
X174705Y48228D02*
Y49128D01*
X175155D01*
X175305Y48978D01*
Y48678D01*
X175155Y48528D01*
X174705D01*
X175604Y48828D02*
Y48228D01*
Y48528D01*
X175754Y48678D01*
X175904Y48828D01*
X176054D01*
X176954Y48228D02*
X176654D01*
X176504Y48378D01*
Y48678D01*
X176654Y48828D01*
X176954D01*
X177104Y48678D01*
Y48528D01*
X176504D01*
X177404Y48678D02*
X178004D01*
X178304Y48228D02*
Y49128D01*
X178753D01*
X178903Y48978D01*
Y48678D01*
X178753Y48528D01*
X178304D01*
X179203Y48828D02*
Y48228D01*
Y48528D01*
X179353Y48678D01*
X179503Y48828D01*
X179653D01*
X180553Y48228D02*
X180253D01*
X180103Y48378D01*
Y48678D01*
X180253Y48828D01*
X180553D01*
X180703Y48678D01*
Y48528D01*
X180103D01*
X181303Y47928D02*
X181453D01*
X181602Y48078D01*
Y48828D01*
X181153D01*
X181003Y48678D01*
Y48378D01*
X181153Y48228D01*
X181602D01*
X182802D02*
Y49128D01*
X183102Y48828D01*
X183402Y49128D01*
Y48228D01*
X183852Y48828D02*
X184152D01*
X184302Y48678D01*
Y48228D01*
X183852D01*
X183702Y48378D01*
X183852Y48528D01*
X184302D01*
X184751Y48978D02*
Y48828D01*
X184602D01*
X184901D01*
X184751D01*
Y48378D01*
X184901Y48228D01*
X185801D02*
X185501D01*
X185351Y48378D01*
Y48678D01*
X185501Y48828D01*
X185801D01*
X185951Y48678D01*
Y48528D01*
X185351D01*
X186251Y48828D02*
Y48228D01*
Y48528D01*
X186401Y48678D01*
X186551Y48828D01*
X186701D01*
X187151Y48228D02*
X187451D01*
X187301D01*
Y48828D01*
X187151D01*
X188050D02*
X188350D01*
X188500Y48678D01*
Y48228D01*
X188050D01*
X187900Y48378D01*
X188050Y48528D01*
X188500D01*
X188800Y48228D02*
X189100D01*
X188950D01*
Y49128D01*
X188800D01*
X190450D02*
X190750D01*
X190600D01*
Y48228D01*
X190450D01*
X190750D01*
X191199D02*
Y48828D01*
X191649D01*
X191799Y48678D01*
Y48228D01*
X192999D02*
Y48828D01*
X193299Y49128D01*
X193599Y48828D01*
Y48228D01*
Y48678D01*
X192999D01*
X194498Y48828D02*
X194048D01*
X193899Y48678D01*
Y48378D01*
X194048Y48228D01*
X194498D01*
X195398Y48828D02*
X194948D01*
X194798Y48678D01*
Y48378D01*
X194948Y48228D01*
X195398D01*
X195848D02*
X196148D01*
X196298Y48378D01*
Y48678D01*
X196148Y48828D01*
X195848D01*
X195698Y48678D01*
Y48378D01*
X195848Y48228D01*
X196598Y48828D02*
Y48228D01*
Y48528D01*
X196748Y48678D01*
X196898Y48828D01*
X197048D01*
X198097Y49128D02*
Y48228D01*
X197647D01*
X197497Y48378D01*
Y48678D01*
X197647Y48828D01*
X198097D01*
X198547D02*
X198847D01*
X198997Y48678D01*
Y48228D01*
X198547D01*
X198397Y48378D01*
X198547Y48528D01*
X198997D01*
X199297Y48228D02*
Y48828D01*
X199747D01*
X199897Y48678D01*
Y48228D01*
X200796Y48828D02*
X200346D01*
X200196Y48678D01*
Y48378D01*
X200346Y48228D01*
X200796D01*
X201546D02*
X201246D01*
X201096Y48378D01*
Y48678D01*
X201246Y48828D01*
X201546D01*
X201696Y48678D01*
Y48528D01*
X201096D01*
X202896Y48828D02*
Y48378D01*
X203046Y48228D01*
X203196Y48378D01*
X203345Y48228D01*
X203495Y48378D01*
Y48828D01*
X203795Y48228D02*
X204095D01*
X203945D01*
Y48828D01*
X203795D01*
X204695Y48978D02*
Y48828D01*
X204545D01*
X204845D01*
X204695D01*
Y48378D01*
X204845Y48228D01*
X205295Y49128D02*
Y48228D01*
Y48678D01*
X205445Y48828D01*
X205745D01*
X205895Y48678D01*
Y48228D01*
X207094Y49128D02*
X207394D01*
X207244D01*
Y48228D01*
X207094D01*
X207394D01*
X207844D02*
Y49128D01*
X208294D01*
X208444Y48978D01*
Y48678D01*
X208294Y48528D01*
X207844D01*
X209344Y48978D02*
X209194Y49128D01*
X208894D01*
X208744Y48978D01*
Y48378D01*
X208894Y48228D01*
X209194D01*
X209344Y48378D01*
X209643Y48678D02*
X210243D01*
X210993Y48228D02*
Y49128D01*
X210543Y48678D01*
X211143D01*
X211443Y48228D02*
X211743D01*
X211593D01*
Y49128D01*
X211443Y48978D01*
X212193D02*
X212343Y49128D01*
X212642D01*
X212792Y48978D01*
Y48378D01*
X212642Y48228D01*
X212343D01*
X212193Y48378D01*
Y48978D01*
X213092Y48228D02*
X213392D01*
X213242D01*
Y49128D01*
X213092Y48978D01*
X213842Y48228D02*
X214442Y48828D01*
X215342Y48228D02*
X214742D01*
X215342Y48828D01*
Y48978D01*
X215192Y49128D01*
X214892D01*
X214742Y48978D01*
X216241Y49128D02*
X215941Y48978D01*
X215641Y48678D01*
Y48378D01*
X215791Y48228D01*
X216091D01*
X216241Y48378D01*
Y48528D01*
X216091Y48678D01*
X215641D01*
X174705Y30512D02*
Y31412D01*
X175155D01*
X175305Y31262D01*
Y30962D01*
X175155Y30812D01*
X174705D01*
X175005D02*
X175305Y30512D01*
X176054D02*
X175754D01*
X175604Y30662D01*
Y30962D01*
X175754Y31112D01*
X176054D01*
X176204Y30962D01*
Y30812D01*
X175604D01*
X176804Y30212D02*
X176954D01*
X177104Y30362D01*
Y31112D01*
X176654D01*
X176504Y30962D01*
Y30662D01*
X176654Y30512D01*
X177104D01*
X177404D02*
X177704D01*
X177554D01*
Y31112D01*
X177404D01*
X178154Y30512D02*
X178603D01*
X178753Y30662D01*
X178603Y30812D01*
X178304D01*
X178154Y30962D01*
X178304Y31112D01*
X178753D01*
X179203Y31262D02*
Y31112D01*
X179053D01*
X179353D01*
X179203D01*
Y30662D01*
X179353Y30512D01*
X179803Y31112D02*
Y30512D01*
Y30812D01*
X179953Y30962D01*
X180103Y31112D01*
X180253D01*
X180853D02*
X181153D01*
X181303Y30962D01*
Y30512D01*
X180853D01*
X180703Y30662D01*
X180853Y30812D01*
X181303D01*
X181752Y31262D02*
Y31112D01*
X181602D01*
X181902D01*
X181752D01*
Y30662D01*
X181902Y30512D01*
X182352D02*
X182652D01*
X182502D01*
Y31112D01*
X182352D01*
X183252Y30512D02*
X183552D01*
X183702Y30662D01*
Y30962D01*
X183552Y31112D01*
X183252D01*
X183102Y30962D01*
Y30662D01*
X183252Y30512D01*
X184002D02*
Y31112D01*
X184452D01*
X184602Y30962D01*
Y30512D01*
X185801D02*
X186251D01*
X186401Y30662D01*
X186251Y30812D01*
X185951D01*
X185801Y30962D01*
X185951Y31112D01*
X186401D01*
X186701Y31412D02*
Y30512D01*
Y30962D01*
X186851Y31112D01*
X187151D01*
X187301Y30962D01*
Y30512D01*
X187751Y31112D02*
X188050D01*
X188200Y30962D01*
Y30512D01*
X187751D01*
X187601Y30662D01*
X187751Y30812D01*
X188200D01*
X188500Y30512D02*
X188800D01*
X188650D01*
Y31412D01*
X188500D01*
X189250Y30512D02*
X189550D01*
X189400D01*
Y31412D01*
X189250D01*
X190899Y30512D02*
Y31112D01*
X191349D01*
X191499Y30962D01*
Y30512D01*
X191949D02*
X192249D01*
X192399Y30662D01*
Y30962D01*
X192249Y31112D01*
X191949D01*
X191799Y30962D01*
Y30662D01*
X191949Y30512D01*
X192849Y31262D02*
Y31112D01*
X192699D01*
X192999D01*
X192849D01*
Y30662D01*
X192999Y30512D01*
X194798D02*
X194498D01*
X194348Y30662D01*
Y30962D01*
X194498Y31112D01*
X194798D01*
X194948Y30962D01*
Y30812D01*
X194348D01*
X195248Y31112D02*
X195848Y30512D01*
X195548Y30812D01*
X195848Y31112D01*
X195248Y30512D01*
X196748Y31112D02*
X196298D01*
X196148Y30962D01*
Y30662D01*
X196298Y30512D01*
X196748D01*
X197497D02*
X197197D01*
X197048Y30662D01*
Y30962D01*
X197197Y31112D01*
X197497D01*
X197647Y30962D01*
Y30812D01*
X197048D01*
X198397Y30512D02*
X198097D01*
X197947Y30662D01*
Y30962D01*
X198097Y31112D01*
X198397D01*
X198547Y30962D01*
Y30812D01*
X197947D01*
X199447Y31412D02*
Y30512D01*
X198997D01*
X198847Y30662D01*
Y30962D01*
X198997Y31112D01*
X199447D01*
X200646Y30962D02*
X201246D01*
X200946Y31262D02*
Y30662D01*
X201546Y30512D02*
X202146Y31112D01*
X202446Y30962D02*
X203046D01*
X204245Y31262D02*
X204395Y31412D01*
X204695D01*
X204845Y31262D01*
Y30662D01*
X204695Y30512D01*
X204395D01*
X204245Y30662D01*
Y31262D01*
X205145Y30512D02*
Y30662D01*
X205295D01*
Y30512D01*
X205145D01*
X205895Y31262D02*
X206045Y31412D01*
X206344D01*
X206494Y31262D01*
Y30662D01*
X206344Y30512D01*
X206045D01*
X205895Y30662D01*
Y31262D01*
X206794D02*
X206944Y31412D01*
X207244D01*
X207394Y31262D01*
Y30662D01*
X207244Y30512D01*
X206944D01*
X206794Y30662D01*
Y31262D01*
X207694D02*
X207844Y31412D01*
X208144D01*
X208294Y31262D01*
Y31112D01*
X208144Y30962D01*
X207994D01*
X208144D01*
X208294Y30812D01*
Y30662D01*
X208144Y30512D01*
X207844D01*
X207694Y30662D01*
X174705Y35049D02*
Y34599D01*
X174855Y34449D01*
X175305D01*
Y35049D01*
X175604Y34449D02*
X176054D01*
X176204Y34599D01*
X176054Y34749D01*
X175754D01*
X175604Y34899D01*
X175754Y35049D01*
X176204D01*
X176504Y34449D02*
X176804D01*
X176654D01*
Y35049D01*
X176504D01*
X177254Y34449D02*
Y35049D01*
X177704D01*
X177854Y34899D01*
Y34449D01*
X178454Y34149D02*
X178603D01*
X178753Y34299D01*
Y35049D01*
X178304D01*
X178154Y34899D01*
Y34599D01*
X178304Y34449D01*
X178753D01*
X179953D02*
X180253D01*
X180103D01*
Y35349D01*
X179953D01*
X180703Y34449D02*
X181003D01*
X180853D01*
Y35049D01*
X180703D01*
X182052Y34149D02*
Y35049D01*
X181602D01*
X181453Y34899D01*
Y34599D01*
X181602Y34449D01*
X182052D01*
X182352Y35049D02*
Y34599D01*
X182502Y34449D01*
X182952D01*
Y35049D01*
X183252Y34449D02*
X183552D01*
X183402D01*
Y35049D01*
X183252D01*
X184602Y35349D02*
Y34449D01*
X184152D01*
X184002Y34599D01*
Y34899D01*
X184152Y35049D01*
X184602D01*
X185801Y34149D02*
Y35049D01*
X186251D01*
X186401Y34899D01*
Y34599D01*
X186251Y34449D01*
X185801D01*
X186701Y35349D02*
Y34449D01*
Y34899D01*
X186851Y35049D01*
X187151D01*
X187301Y34899D01*
Y34449D01*
X187751D02*
X188050D01*
X188200Y34599D01*
Y34899D01*
X188050Y35049D01*
X187751D01*
X187601Y34899D01*
Y34599D01*
X187751Y34449D01*
X188650Y35199D02*
Y35049D01*
X188500D01*
X188800D01*
X188650D01*
Y34599D01*
X188800Y34449D01*
X189400D02*
X189700D01*
X189850Y34599D01*
Y34899D01*
X189700Y35049D01*
X189400D01*
X189250Y34899D01*
Y34599D01*
X189400Y34449D01*
X190150Y34899D02*
X190750D01*
X191049Y34449D02*
X191349D01*
X191199D01*
Y35049D01*
X191049D01*
X191799Y34449D02*
Y35049D01*
X191949D01*
X192099Y34899D01*
Y34449D01*
Y34899D01*
X192249Y35049D01*
X192399Y34899D01*
Y34449D01*
X192849Y35049D02*
X193149D01*
X193299Y34899D01*
Y34449D01*
X192849D01*
X192699Y34599D01*
X192849Y34749D01*
X193299D01*
X193899Y34149D02*
X194048D01*
X194198Y34299D01*
Y35049D01*
X193749D01*
X193599Y34899D01*
Y34599D01*
X193749Y34449D01*
X194198D01*
X194948D02*
X194648D01*
X194498Y34599D01*
Y34899D01*
X194648Y35049D01*
X194948D01*
X195098Y34899D01*
Y34749D01*
X194498D01*
X195548Y35049D02*
X195848D01*
X195998Y34899D01*
Y34449D01*
X195548D01*
X195398Y34599D01*
X195548Y34749D01*
X195998D01*
X196298Y35349D02*
Y34449D01*
X196748D01*
X196898Y34599D01*
Y34749D01*
Y34899D01*
X196748Y35049D01*
X196298D01*
X197197Y34449D02*
X197497D01*
X197347D01*
Y35349D01*
X197197D01*
X198397Y34449D02*
X198097D01*
X197947Y34599D01*
Y34899D01*
X198097Y35049D01*
X198397D01*
X198547Y34899D01*
Y34749D01*
X197947D01*
X199747Y34449D02*
Y35049D01*
X199897D01*
X200047Y34899D01*
Y34449D01*
Y34899D01*
X200196Y35049D01*
X200346Y34899D01*
Y34449D01*
X200796Y35049D02*
X201096D01*
X201246Y34899D01*
Y34449D01*
X200796D01*
X200646Y34599D01*
X200796Y34749D01*
X201246D01*
X201696Y35199D02*
Y35049D01*
X201546D01*
X201846D01*
X201696D01*
Y34599D01*
X201846Y34449D01*
X202746D02*
X202446D01*
X202296Y34599D01*
Y34899D01*
X202446Y35049D01*
X202746D01*
X202896Y34899D01*
Y34749D01*
X202296D01*
X203196Y35049D02*
Y34449D01*
Y34749D01*
X203345Y34899D01*
X203495Y35049D01*
X203645D01*
X204095Y34449D02*
X204395D01*
X204245D01*
Y35049D01*
X204095D01*
X204995D02*
X205295D01*
X205445Y34899D01*
Y34449D01*
X204995D01*
X204845Y34599D01*
X204995Y34749D01*
X205445D01*
X205745Y34449D02*
X206045D01*
X205895D01*
Y35349D01*
X205745D01*
X207694Y34449D02*
X207394Y34749D01*
Y35049D01*
X207694Y35349D01*
X208144D02*
Y34449D01*
X208744D01*
X209044D02*
Y35349D01*
X209493D01*
X209643Y35199D01*
Y34899D01*
X209493Y34749D01*
X209044D01*
X209943Y35349D02*
X210243D01*
X210093D01*
Y34449D01*
X209943D01*
X210243D01*
X210693D02*
X210993Y34749D01*
Y35049D01*
X210693Y35349D01*
X211443Y34449D02*
Y34599D01*
X211593D01*
Y34449D01*
X211443D01*
X174705Y32480D02*
Y33380D01*
X175005Y33080D01*
X175305Y33380D01*
Y32480D01*
X175754Y33080D02*
X176054D01*
X176204Y32930D01*
Y32480D01*
X175754D01*
X175604Y32630D01*
X175754Y32780D01*
X176204D01*
X176654Y33230D02*
Y33080D01*
X176504D01*
X176804D01*
X176654D01*
Y32630D01*
X176804Y32480D01*
X177704D02*
X177404D01*
X177254Y32630D01*
Y32930D01*
X177404Y33080D01*
X177704D01*
X177854Y32930D01*
Y32780D01*
X177254D01*
X178154Y33080D02*
Y32480D01*
Y32780D01*
X178304Y32930D01*
X178454Y33080D01*
X178603D01*
X179203D02*
X179503D01*
X179653Y32930D01*
Y32480D01*
X179203D01*
X179053Y32630D01*
X179203Y32780D01*
X179653D01*
X179953Y32480D02*
X180253D01*
X180103D01*
Y33080D01*
X179953D01*
X180703Y32480D02*
X181003D01*
X180853D01*
Y33380D01*
X180703D01*
X182352Y32480D02*
X182802D01*
X182952Y32630D01*
X182802Y32780D01*
X182502D01*
X182352Y32930D01*
X182502Y33080D01*
X182952D01*
X183252Y33380D02*
Y32480D01*
Y32930D01*
X183402Y33080D01*
X183702D01*
X183852Y32930D01*
Y32480D01*
X184302Y33080D02*
X184602D01*
X184751Y32930D01*
Y32480D01*
X184302D01*
X184152Y32630D01*
X184302Y32780D01*
X184751D01*
X185051Y32480D02*
X185351D01*
X185201D01*
Y33380D01*
X185051D01*
X185801Y32480D02*
X186101D01*
X185951D01*
Y33380D01*
X185801D01*
X187451D02*
Y32480D01*
X187900D01*
X188050Y32630D01*
Y32780D01*
Y32930D01*
X187900Y33080D01*
X187451D01*
X188800Y32480D02*
X188500D01*
X188350Y32630D01*
Y32930D01*
X188500Y33080D01*
X188800D01*
X188950Y32930D01*
Y32780D01*
X188350D01*
X190150Y33380D02*
Y32480D01*
X190600D01*
X190750Y32630D01*
Y32780D01*
X190600Y32930D01*
X190150D01*
X190600D01*
X190750Y33080D01*
Y33230D01*
X190600Y33380D01*
X190150D01*
X191049Y32480D02*
X191349D01*
X191199D01*
Y33380D01*
X191049D01*
X191949Y33080D02*
X192249D01*
X192399Y32930D01*
Y32480D01*
X191949D01*
X191799Y32630D01*
X191949Y32780D01*
X192399D01*
X193299Y33080D02*
X192849D01*
X192699Y32930D01*
Y32630D01*
X192849Y32480D01*
X193299D01*
X193599D02*
Y33380D01*
Y32780D02*
X194048Y33080D01*
X193599Y32780D02*
X194048Y32480D01*
X195398D02*
X195698D01*
X195548D01*
Y33080D01*
X195398D01*
X196148Y32480D02*
Y33080D01*
X196598D01*
X196748Y32930D01*
Y32480D01*
X198547Y33080D02*
X198097D01*
X197947Y32930D01*
Y32630D01*
X198097Y32480D01*
X198547D01*
X198997D02*
X199297D01*
X199447Y32630D01*
Y32930D01*
X199297Y33080D01*
X198997D01*
X198847Y32930D01*
Y32630D01*
X198997Y32480D01*
X199747D02*
X200047D01*
X199897D01*
Y33380D01*
X199747D01*
X200646Y32480D02*
X200946D01*
X201096Y32630D01*
Y32930D01*
X200946Y33080D01*
X200646D01*
X200496Y32930D01*
Y32630D01*
X200646Y32480D01*
X201396Y33080D02*
Y32480D01*
Y32780D01*
X201546Y32930D01*
X201696Y33080D01*
X201846D01*
X202296Y32480D02*
Y32630D01*
X202446D01*
Y32480D01*
X202296D01*
X175305Y29293D02*
X175155Y29443D01*
X174855D01*
X174705Y29293D01*
Y29143D01*
X174855Y28993D01*
X175155D01*
X175305Y28843D01*
Y28693D01*
X175155Y28543D01*
X174855D01*
X174705Y28693D01*
X175754Y28543D02*
X176054D01*
X176204Y28693D01*
Y28993D01*
X176054Y29143D01*
X175754D01*
X175604Y28993D01*
Y28693D01*
X175754Y28543D01*
X176504D02*
X176804D01*
X176654D01*
Y29443D01*
X176504D01*
X177854D02*
Y28543D01*
X177404D01*
X177254Y28693D01*
Y28993D01*
X177404Y29143D01*
X177854D01*
X178603Y28543D02*
X178304D01*
X178154Y28693D01*
Y28993D01*
X178304Y29143D01*
X178603D01*
X178753Y28993D01*
Y28843D01*
X178154D01*
X179053Y29143D02*
Y28543D01*
Y28843D01*
X179203Y28993D01*
X179353Y29143D01*
X179503D01*
X180853Y28543D02*
Y29143D01*
X181003D01*
X181153Y28993D01*
Y28543D01*
Y28993D01*
X181303Y29143D01*
X181453Y28993D01*
Y28543D01*
X181902Y29143D02*
X182202D01*
X182352Y28993D01*
Y28543D01*
X181902D01*
X181752Y28693D01*
X181902Y28843D01*
X182352D01*
X182652Y28543D02*
X183102D01*
X183252Y28693D01*
X183102Y28843D01*
X182802D01*
X182652Y28993D01*
X182802Y29143D01*
X183252D01*
X183552Y28543D02*
Y29443D01*
Y28843D02*
X184002Y29143D01*
X183552Y28843D02*
X184002Y28543D01*
X185351D02*
X185801D01*
X185951Y28693D01*
X185801Y28843D01*
X185501D01*
X185351Y28993D01*
X185501Y29143D01*
X185951D01*
X186251Y29443D02*
Y28543D01*
Y28993D01*
X186401Y29143D01*
X186701D01*
X186851Y28993D01*
Y28543D01*
X187301Y29143D02*
X187601D01*
X187751Y28993D01*
Y28543D01*
X187301D01*
X187151Y28693D01*
X187301Y28843D01*
X187751D01*
X188050Y28543D02*
X188350D01*
X188200D01*
Y29443D01*
X188050D01*
X188800Y28543D02*
X189100D01*
X188950D01*
Y29443D01*
X188800D01*
X190450D02*
Y28543D01*
X190899D01*
X191049Y28693D01*
Y28843D01*
Y28993D01*
X190899Y29143D01*
X190450D01*
X191799Y28543D02*
X191499D01*
X191349Y28693D01*
Y28993D01*
X191499Y29143D01*
X191799D01*
X191949Y28993D01*
Y28843D01*
X191349D01*
X193149Y28243D02*
Y29143D01*
X193599D01*
X193749Y28993D01*
Y28693D01*
X193599Y28543D01*
X193149D01*
X194048D02*
X194348D01*
X194198D01*
Y29443D01*
X194048D01*
X194948Y29143D02*
X195248D01*
X195398Y28993D01*
Y28543D01*
X194948D01*
X194798Y28693D01*
X194948Y28843D01*
X195398D01*
X196298Y29143D02*
X195848D01*
X195698Y28993D01*
Y28693D01*
X195848Y28543D01*
X196298D01*
X197048D02*
X196748D01*
X196598Y28693D01*
Y28993D01*
X196748Y29143D01*
X197048D01*
X197197Y28993D01*
Y28843D01*
X196598D01*
X198097Y29443D02*
Y28543D01*
X197647D01*
X197497Y28693D01*
Y28993D01*
X197647Y29143D01*
X198097D01*
X199447Y28543D02*
X199747D01*
X199897Y28693D01*
Y28993D01*
X199747Y29143D01*
X199447D01*
X199297Y28993D01*
Y28693D01*
X199447Y28543D01*
X200196Y29143D02*
X200496Y28543D01*
X200796Y29143D01*
X201546Y28543D02*
X201246D01*
X201096Y28693D01*
Y28993D01*
X201246Y29143D01*
X201546D01*
X201696Y28993D01*
Y28843D01*
X201096D01*
X201996Y29143D02*
Y28543D01*
Y28843D01*
X202146Y28993D01*
X202296Y29143D01*
X202446D01*
X203795Y29443D02*
Y28543D01*
X204245D01*
X204395Y28693D01*
Y28843D01*
Y28993D01*
X204245Y29143D01*
X203795D01*
X204845D02*
X205145D01*
X205295Y28993D01*
Y28543D01*
X204845D01*
X204695Y28693D01*
X204845Y28843D01*
X205295D01*
X205595Y29143D02*
Y28543D01*
Y28843D01*
X205745Y28993D01*
X205895Y29143D01*
X206045D01*
X206944Y28543D02*
X206644D01*
X206494Y28693D01*
Y28993D01*
X206644Y29143D01*
X206944D01*
X207094Y28993D01*
Y28843D01*
X206494D01*
X208894Y29143D02*
X208444D01*
X208294Y28993D01*
Y28693D01*
X208444Y28543D01*
X208894D01*
X209344D02*
X209643D01*
X209793Y28693D01*
Y28993D01*
X209643Y29143D01*
X209344D01*
X209194Y28993D01*
Y28693D01*
X209344Y28543D01*
X210093Y28243D02*
Y29143D01*
X210543D01*
X210693Y28993D01*
Y28693D01*
X210543Y28543D01*
X210093D01*
X210993Y28243D02*
Y29143D01*
X211443D01*
X211593Y28993D01*
Y28693D01*
X211443Y28543D01*
X210993D01*
X212343D02*
X212043D01*
X211893Y28693D01*
Y28993D01*
X212043Y29143D01*
X212343D01*
X212493Y28993D01*
Y28843D01*
X211893D01*
X212792Y29143D02*
Y28543D01*
Y28843D01*
X212942Y28993D01*
X213092Y29143D01*
X213242D01*
X174705Y44291D02*
Y45191D01*
X175005Y44891D01*
X175305Y45191D01*
Y44291D01*
X175754Y44891D02*
X176054D01*
X176204Y44741D01*
Y44291D01*
X175754D01*
X175604Y44441D01*
X175754Y44591D01*
X176204D01*
X176504Y44891D02*
X177104Y44291D01*
X176804Y44591D01*
X177104Y44891D01*
X176504Y44291D01*
X177404D02*
X177704D01*
X177554D01*
Y44891D01*
X177404D01*
X178154Y44291D02*
Y44891D01*
X178304D01*
X178454Y44741D01*
Y44291D01*
Y44741D01*
X178603Y44891D01*
X178753Y44741D01*
Y44291D01*
X179053Y44891D02*
Y44441D01*
X179203Y44291D01*
X179653D01*
Y44891D01*
X179953Y44291D02*
Y44891D01*
X180103D01*
X180253Y44741D01*
Y44291D01*
Y44741D01*
X180403Y44891D01*
X180553Y44741D01*
Y44291D01*
X181752Y45191D02*
Y44291D01*
X182202D01*
X182352Y44441D01*
Y44591D01*
Y44741D01*
X182202Y44891D01*
X181752D01*
X182802Y44291D02*
X183102D01*
X183252Y44441D01*
Y44741D01*
X183102Y44891D01*
X182802D01*
X182652Y44741D01*
Y44441D01*
X182802Y44291D01*
X183552Y44891D02*
Y44441D01*
X183702Y44291D01*
X183852Y44441D01*
X184002Y44291D01*
X184152Y44441D01*
Y44891D01*
X185501D02*
X185801D01*
X185951Y44741D01*
Y44291D01*
X185501D01*
X185351Y44441D01*
X185501Y44591D01*
X185951D01*
X186251Y44291D02*
Y44891D01*
X186701D01*
X186851Y44741D01*
Y44291D01*
X187751Y45191D02*
Y44291D01*
X187301D01*
X187151Y44441D01*
Y44741D01*
X187301Y44891D01*
X187751D01*
X189100Y45041D02*
Y44891D01*
X188950D01*
X189250D01*
X189100D01*
Y44441D01*
X189250Y44291D01*
X189700Y44891D02*
Y44441D01*
X189850Y44291D01*
X190000Y44441D01*
X190150Y44291D01*
X190300Y44441D01*
Y44891D01*
X190600Y44291D02*
X190899D01*
X190750D01*
Y44891D01*
X190600D01*
X191349Y44291D02*
X191799D01*
X191949Y44441D01*
X191799Y44591D01*
X191499D01*
X191349Y44741D01*
X191499Y44891D01*
X191949D01*
X192399Y45041D02*
Y44891D01*
X192249D01*
X192549D01*
X192399D01*
Y44441D01*
X192549Y44291D01*
X193899D02*
X194348D01*
X194498Y44441D01*
X194348Y44591D01*
X194048D01*
X193899Y44741D01*
X194048Y44891D01*
X194498D01*
X194798Y45191D02*
Y44291D01*
Y44741D01*
X194948Y44891D01*
X195248D01*
X195398Y44741D01*
Y44291D01*
X195848Y44891D02*
X196148D01*
X196298Y44741D01*
Y44291D01*
X195848D01*
X195698Y44441D01*
X195848Y44591D01*
X196298D01*
X196598Y44291D02*
X196898D01*
X196748D01*
Y45191D01*
X196598D01*
X197347Y44291D02*
X197647D01*
X197497D01*
Y45191D01*
X197347D01*
X198997Y44291D02*
Y44891D01*
X199447D01*
X199597Y44741D01*
Y44291D01*
X200047D02*
X200346D01*
X200496Y44441D01*
Y44741D01*
X200346Y44891D01*
X200047D01*
X199897Y44741D01*
Y44441D01*
X200047Y44291D01*
X200946Y45041D02*
Y44891D01*
X200796D01*
X201096D01*
X200946D01*
Y44441D01*
X201096Y44291D01*
X202896D02*
X202596D01*
X202446Y44441D01*
Y44741D01*
X202596Y44891D01*
X202896D01*
X203046Y44741D01*
Y44591D01*
X202446D01*
X203345Y44891D02*
X203945Y44291D01*
X203645Y44591D01*
X203945Y44891D01*
X203345Y44291D01*
X204845Y44891D02*
X204395D01*
X204245Y44741D01*
Y44441D01*
X204395Y44291D01*
X204845D01*
X205595D02*
X205295D01*
X205145Y44441D01*
Y44741D01*
X205295Y44891D01*
X205595D01*
X205745Y44741D01*
Y44591D01*
X205145D01*
X206494Y44291D02*
X206195D01*
X206045Y44441D01*
Y44741D01*
X206195Y44891D01*
X206494D01*
X206644Y44741D01*
Y44591D01*
X206045D01*
X207544Y45191D02*
Y44291D01*
X207094D01*
X206944Y44441D01*
Y44741D01*
X207094Y44891D01*
X207544D01*
X208744Y44741D02*
X209344D01*
X209044Y45041D02*
Y44441D01*
X209643Y44291D02*
X210243Y44891D01*
X210543Y44741D02*
X211143D01*
X212343Y45041D02*
X212493Y45191D01*
X212792D01*
X212942Y45041D01*
Y44441D01*
X212792Y44291D01*
X212493D01*
X212343Y44441D01*
Y45041D01*
X213242Y44291D02*
Y44441D01*
X213392D01*
Y44291D01*
X213242D01*
X213992Y45041D02*
X214142Y45191D01*
X214442D01*
X214592Y45041D01*
Y44441D01*
X214442Y44291D01*
X214142D01*
X213992Y44441D01*
Y45041D01*
X214892Y44291D02*
X215192D01*
X215042D01*
Y45191D01*
X214892Y45041D01*
X215641D02*
X215791Y45191D01*
X216091D01*
X216241Y45041D01*
Y44441D01*
X216091Y44291D01*
X215791D01*
X215641Y44441D01*
Y45041D01*
X217591Y44291D02*
X217291D01*
Y45191D01*
X217591D01*
X218041Y44291D02*
Y44441D01*
X218191D01*
Y44291D01*
X218041D01*
X219390D02*
X218790D01*
X219390Y44891D01*
Y45041D01*
X219240Y45191D01*
X218940D01*
X218790Y45041D01*
X220290Y45191D02*
X219690D01*
Y44741D01*
X219990Y44891D01*
X220140D01*
X220290Y44741D01*
Y44441D01*
X220140Y44291D01*
X219840D01*
X219690Y44441D01*
X221040Y44291D02*
Y45191D01*
X220590Y44741D01*
X221190D01*
X221490Y44291D02*
Y44891D01*
X221640D01*
X221789Y44741D01*
Y44291D01*
Y44741D01*
X221939Y44891D01*
X222089Y44741D01*
Y44291D01*
X222389D02*
Y44891D01*
X222539D01*
X222689Y44741D01*
Y44291D01*
Y44741D01*
X222839Y44891D01*
X222989Y44741D01*
Y44291D01*
X223289D02*
X223589D01*
Y45191D01*
X223289D01*
X224938Y43991D02*
Y44891D01*
X225388D01*
X225538Y44741D01*
Y44441D01*
X225388Y44291D01*
X224938D01*
X226288D02*
X225988D01*
X225838Y44441D01*
Y44741D01*
X225988Y44891D01*
X226288D01*
X226438Y44741D01*
Y44591D01*
X225838D01*
X226738Y44891D02*
Y44291D01*
Y44591D01*
X226888Y44741D01*
X227038Y44891D01*
X227188D01*
X228537Y44291D02*
X228837D01*
X228687D01*
Y44891D01*
X228537D01*
X229287Y44291D02*
Y44891D01*
X229737D01*
X229887Y44741D01*
Y44291D01*
X230787Y44891D02*
X230337D01*
X230187Y44741D01*
Y44441D01*
X230337Y44291D01*
X230787D01*
X231086Y45191D02*
Y44291D01*
Y44741D01*
X231236Y44891D01*
X231536D01*
X231686Y44741D01*
Y44291D01*
X231986D02*
Y44441D01*
X232136D01*
Y44291D01*
X231986D01*
X218012Y-234D02*
X218162Y-85D01*
X218462D01*
X218612Y-234D01*
Y-834D01*
X218462Y-984D01*
X218162D01*
X218012Y-834D01*
Y-234D01*
X218912Y-984D02*
Y-834D01*
X219061D01*
Y-984D01*
X218912D01*
X219661Y-234D02*
X219811Y-85D01*
X220111D01*
X220261Y-234D01*
Y-834D01*
X220111Y-984D01*
X219811D01*
X219661Y-834D01*
Y-234D01*
X221161Y-85D02*
X220861Y-234D01*
X220561Y-534D01*
Y-834D01*
X220711Y-984D01*
X221011D01*
X221161Y-834D01*
Y-684D01*
X221011Y-534D01*
X220561D01*
X222061Y-984D02*
X221461D01*
X222061Y-384D01*
Y-234D01*
X221911Y-85D01*
X221611D01*
X221461Y-234D01*
X223260Y-984D02*
X223560D01*
X223410D01*
Y-384D01*
X223260D01*
X224010Y-984D02*
Y-384D01*
X224460D01*
X224610Y-534D01*
Y-984D01*
X226109D02*
X225809Y-684D01*
Y-384D01*
X226109Y-85D01*
X226559Y-534D02*
X227159D01*
X226859Y-234D02*
Y-834D01*
X227459Y-984D02*
X228059Y-384D01*
X228358Y-534D02*
X228958D01*
X230158Y-234D02*
X230308Y-85D01*
X230608D01*
X230758Y-234D01*
Y-834D01*
X230608Y-984D01*
X230308D01*
X230158Y-834D01*
Y-234D01*
X231058Y-984D02*
Y-834D01*
X231208D01*
Y-984D01*
X231058D01*
X231807Y-234D02*
X231957Y-85D01*
X232257D01*
X232407Y-234D01*
Y-834D01*
X232257Y-984D01*
X231957D01*
X231807Y-834D01*
Y-234D01*
X232707Y-984D02*
X233007D01*
X232857D01*
Y-85D01*
X232707Y-234D01*
X233457D02*
X233607Y-85D01*
X233907D01*
X234057Y-234D01*
Y-834D01*
X233907Y-984D01*
X233607D01*
X233457Y-834D01*
Y-234D01*
X235256Y-984D02*
X235556D01*
X235406D01*
Y-384D01*
X235256D01*
X236006Y-984D02*
Y-384D01*
X236456D01*
X236606Y-534D01*
Y-984D01*
X236906D02*
X237206Y-684D01*
Y-384D01*
X236906Y-85D01*
X212106D02*
X212706D01*
X212406D01*
Y-984D01*
X213456Y-85D02*
X213156D01*
X213006Y-234D01*
Y-834D01*
X213156Y-984D01*
X213456D01*
X213606Y-834D01*
Y-234D01*
X213456Y-85D01*
X213906D02*
X214506D01*
X214206D01*
Y-984D01*
X214805D02*
Y-384D01*
X215105Y-85D01*
X215405Y-384D01*
Y-984D01*
Y-534D01*
X214805D01*
X215705Y-85D02*
Y-984D01*
X216305D01*
X218012Y5671D02*
X218162Y5821D01*
X218462D01*
X218612Y5671D01*
Y5071D01*
X218462Y4921D01*
X218162D01*
X218012Y5071D01*
Y5671D01*
X218912Y4921D02*
Y5071D01*
X219061D01*
Y4921D01*
X218912D01*
X219661Y5671D02*
X219811Y5821D01*
X220111D01*
X220261Y5671D01*
Y5071D01*
X220111Y4921D01*
X219811D01*
X219661Y5071D01*
Y5671D01*
X220561D02*
X220711Y5821D01*
X221011D01*
X221161Y5671D01*
Y5071D01*
X221011Y4921D01*
X220711D01*
X220561Y5071D01*
Y5671D01*
X221461D02*
X221611Y5821D01*
X221911D01*
X222061Y5671D01*
Y5071D01*
X221911Y4921D01*
X221611D01*
X221461Y5071D01*
Y5671D01*
X222360Y5821D02*
X222960D01*
Y5671D01*
X222360Y5071D01*
Y4921D01*
X224160D02*
X224460D01*
X224310D01*
Y5521D01*
X224160D01*
X224910Y4921D02*
Y5521D01*
X225359D01*
X225509Y5371D01*
Y4921D01*
X218012Y6655D02*
X218162Y6805D01*
X218462D01*
X218612Y6655D01*
Y6055D01*
X218462Y5906D01*
X218162D01*
X218012Y6055D01*
Y6655D01*
X218912Y5906D02*
Y6055D01*
X219061D01*
Y5906D01*
X218912D01*
X219661Y6655D02*
X219811Y6805D01*
X220111D01*
X220261Y6655D01*
Y6055D01*
X220111Y5906D01*
X219811D01*
X219661Y6055D01*
Y6655D01*
X220561D02*
X220711Y6805D01*
X221011D01*
X221161Y6655D01*
Y6055D01*
X221011Y5906D01*
X220711D01*
X220561Y6055D01*
Y6655D01*
X221461D02*
X221611Y6805D01*
X221911D01*
X222061Y6655D01*
Y6055D01*
X221911Y5906D01*
X221611D01*
X221461Y6055D01*
Y6655D01*
X222360Y6805D02*
X222960D01*
Y6655D01*
X222360Y6055D01*
Y5906D01*
X224160D02*
X224460D01*
X224310D01*
Y6505D01*
X224160D01*
X224910Y5906D02*
Y6505D01*
X225359D01*
X225509Y6355D01*
Y5906D01*
X218012Y9608D02*
X218162Y9758D01*
X218462D01*
X218612Y9608D01*
Y9008D01*
X218462Y8858D01*
X218162D01*
X218012Y9008D01*
Y9608D01*
X218912Y8858D02*
Y9008D01*
X219061D01*
Y8858D01*
X218912D01*
X219661Y9608D02*
X219811Y9758D01*
X220111D01*
X220261Y9608D01*
Y9008D01*
X220111Y8858D01*
X219811D01*
X219661Y9008D01*
Y9608D01*
X220561D02*
X220711Y9758D01*
X221011D01*
X221161Y9608D01*
Y9008D01*
X221011Y8858D01*
X220711D01*
X220561Y9008D01*
Y9608D01*
X221461D02*
X221611Y9758D01*
X221911D01*
X222061Y9608D01*
Y9008D01*
X221911Y8858D01*
X221611D01*
X221461Y9008D01*
Y9608D01*
X222360Y9758D02*
X222960D01*
Y9608D01*
X222360Y9008D01*
Y8858D01*
X224160D02*
X224460D01*
X224310D01*
Y9458D01*
X224160D01*
X224910Y8858D02*
Y9458D01*
X225359D01*
X225509Y9308D01*
Y8858D01*
X218012Y13545D02*
X218162Y13695D01*
X218462D01*
X218612Y13545D01*
Y12945D01*
X218462Y12795D01*
X218162D01*
X218012Y12945D01*
Y13545D01*
X218912Y12795D02*
Y12945D01*
X219061D01*
Y12795D01*
X218912D01*
X219661Y13545D02*
X219811Y13695D01*
X220111D01*
X220261Y13545D01*
Y12945D01*
X220111Y12795D01*
X219811D01*
X219661Y12945D01*
Y13545D01*
X220561D02*
X220711Y13695D01*
X221011D01*
X221161Y13545D01*
Y12945D01*
X221011Y12795D01*
X220711D01*
X220561Y12945D01*
Y13545D01*
X221461D02*
X221611Y13695D01*
X221911D01*
X222061Y13545D01*
Y12945D01*
X221911Y12795D01*
X221611D01*
X221461Y12945D01*
Y13545D01*
X222360Y13695D02*
X222960D01*
Y13545D01*
X222360Y12945D01*
Y12795D01*
X224160D02*
X224460D01*
X224310D01*
Y13395D01*
X224160D01*
X224910Y12795D02*
Y13395D01*
X225359D01*
X225509Y13245D01*
Y12795D01*
X218012Y17482D02*
X218162Y17632D01*
X218462D01*
X218612Y17482D01*
Y16882D01*
X218462Y16732D01*
X218162D01*
X218012Y16882D01*
Y17482D01*
X218912Y16732D02*
Y16882D01*
X219061D01*
Y16732D01*
X218912D01*
X219661Y17482D02*
X219811Y17632D01*
X220111D01*
X220261Y17482D01*
Y16882D01*
X220111Y16732D01*
X219811D01*
X219661Y16882D01*
Y17482D01*
X220561D02*
X220711Y17632D01*
X221011D01*
X221161Y17482D01*
Y16882D01*
X221011Y16732D01*
X220711D01*
X220561Y16882D01*
Y17482D01*
X221461D02*
X221611Y17632D01*
X221911D01*
X222061Y17482D01*
Y16882D01*
X221911Y16732D01*
X221611D01*
X221461Y16882D01*
Y17482D01*
X222360Y17632D02*
X222960D01*
Y17482D01*
X222360Y16882D01*
Y16732D01*
X224160D02*
X224460D01*
X224310D01*
Y17332D01*
X224160D01*
X224910Y16732D02*
Y17332D01*
X225359D01*
X225509Y17182D01*
Y16732D01*
X218012Y16498D02*
X218162Y16648D01*
X218462D01*
X218612Y16498D01*
Y15898D01*
X218462Y15748D01*
X218162D01*
X218012Y15898D01*
Y16498D01*
X218912Y15748D02*
Y15898D01*
X219061D01*
Y15748D01*
X218912D01*
X219661Y16498D02*
X219811Y16648D01*
X220111D01*
X220261Y16498D01*
Y15898D01*
X220111Y15748D01*
X219811D01*
X219661Y15898D01*
Y16498D01*
X220561D02*
X220711Y16648D01*
X221011D01*
X221161Y16498D01*
Y15898D01*
X221011Y15748D01*
X220711D01*
X220561Y15898D01*
Y16498D01*
X221461D02*
X221611Y16648D01*
X221911D01*
X222061Y16498D01*
Y15898D01*
X221911Y15748D01*
X221611D01*
X221461Y15898D01*
Y16498D01*
X222360Y16648D02*
X222960D01*
Y16498D01*
X222360Y15898D01*
Y15748D01*
X224160D02*
X224460D01*
X224310D01*
Y16348D01*
X224160D01*
X224910Y15748D02*
Y16348D01*
X225359D01*
X225509Y16198D01*
Y15748D01*
X218012Y22553D02*
X218612D01*
X218312D01*
Y21654D01*
X218912Y22553D02*
Y21654D01*
Y22103D01*
X219061Y22253D01*
X219361D01*
X219511Y22103D01*
Y21654D01*
X219811D02*
X220111D01*
X219961D01*
Y22253D01*
X219811D01*
X221161D02*
X220711D01*
X220561Y22103D01*
Y21804D01*
X220711Y21654D01*
X221161D01*
X221461D02*
Y22553D01*
Y21953D02*
X221911Y22253D01*
X221461Y21953D02*
X221911Y21654D01*
X222360D02*
Y22253D01*
X222810D01*
X222960Y22103D01*
Y21654D01*
X223710D02*
X223410D01*
X223260Y21804D01*
Y22103D01*
X223410Y22253D01*
X223710D01*
X223860Y22103D01*
Y21953D01*
X223260D01*
X224160Y21654D02*
X224610D01*
X224760Y21804D01*
X224610Y21953D01*
X224310D01*
X224160Y22103D01*
X224310Y22253D01*
X224760D01*
X225060Y21654D02*
X225509D01*
X225659Y21804D01*
X225509Y21953D01*
X225209D01*
X225060Y22103D01*
X225209Y22253D01*
X225659D01*
X207185Y21654D02*
Y22553D01*
X207485Y22253D01*
X207785Y22553D01*
Y21654D01*
X208085D02*
Y22253D01*
X208385Y22553D01*
X208685Y22253D01*
Y21654D01*
Y22103D01*
X208085D01*
X208984Y22553D02*
X209584D01*
X209284D01*
Y21654D01*
X210484Y22553D02*
X209884D01*
Y21654D01*
X210484D01*
X209884Y22103D02*
X210184D01*
X210784Y21654D02*
Y22553D01*
X211234D01*
X211384Y22403D01*
Y22103D01*
X211234Y21953D01*
X210784D01*
X211084D02*
X211384Y21654D01*
X211684Y22553D02*
X211983D01*
X211834D01*
Y21654D01*
X211684D01*
X211983D01*
X212433D02*
Y22253D01*
X212733Y22553D01*
X213033Y22253D01*
Y21654D01*
Y22103D01*
X212433D01*
X213333Y22553D02*
Y21654D01*
X213933D01*
X200787Y22553D02*
Y21654D01*
X201387D01*
X201687D02*
Y22253D01*
X201987Y22553D01*
X202287Y22253D01*
Y21654D01*
Y22103D01*
X201687D01*
X202587Y22553D02*
Y22403D01*
X202887Y22103D01*
X203187Y22403D01*
Y22553D01*
X202887Y22103D02*
Y21654D01*
X204086Y22553D02*
X203487D01*
Y21654D01*
X204086D01*
X203487Y22103D02*
X203786D01*
X204386Y21654D02*
Y22553D01*
X204836D01*
X204986Y22403D01*
Y22103D01*
X204836Y21953D01*
X204386D01*
X204686D02*
X204986Y21654D01*
X202371Y2718D02*
X202222Y2868D01*
X201922D01*
X201772Y2718D01*
Y2118D01*
X201922Y1969D01*
X202222D01*
X202371Y2118D01*
Y2418D01*
X202072D01*
X202671Y2868D02*
Y1969D01*
X203121D01*
X203271Y2118D01*
Y2268D01*
X203121Y2418D01*
X202671D01*
X203121D01*
X203271Y2568D01*
Y2718D01*
X203121Y2868D01*
X202671D01*
X204021D02*
X203721D01*
X203571Y2718D01*
Y2118D01*
X203721Y1969D01*
X204021D01*
X204171Y2118D01*
Y2718D01*
X204021Y2868D01*
X202371Y4195D02*
X202222Y4345D01*
X201922D01*
X201772Y4195D01*
Y3595D01*
X201922Y3445D01*
X202222D01*
X202371Y3595D01*
Y3895D01*
X202072D01*
X202671Y4345D02*
Y3445D01*
X203121D01*
X203271Y3595D01*
Y3745D01*
X203121Y3895D01*
X202671D01*
X203121D01*
X203271Y4045D01*
Y4195D01*
X203121Y4345D01*
X202671D01*
X204171Y4195D02*
X204021Y4345D01*
X203721D01*
X203571Y4195D01*
Y4045D01*
X203721Y3895D01*
X204021D01*
X204171Y3745D01*
Y3595D01*
X204021Y3445D01*
X203721D01*
X203571Y3595D01*
X202371Y6163D02*
X202222Y6313D01*
X201922D01*
X201772Y6163D01*
Y5563D01*
X201922Y5413D01*
X202222D01*
X202371Y5563D01*
Y5863D01*
X202072D01*
X202671Y6313D02*
Y5413D01*
X203121D01*
X203271Y5563D01*
Y5713D01*
X203121Y5863D01*
X202671D01*
X203121D01*
X203271Y6013D01*
Y6163D01*
X203121Y6313D01*
X202671D01*
X203571D02*
Y5413D01*
X204171D01*
X202371Y9608D02*
X202222Y9758D01*
X201922D01*
X201772Y9608D01*
Y9008D01*
X201922Y8858D01*
X202222D01*
X202371Y9008D01*
Y9308D01*
X202072D01*
X202671Y8858D02*
Y9758D01*
X203121D01*
X203271Y9608D01*
Y9308D01*
X203121Y9158D01*
X202671D01*
X204171Y8858D02*
X203571D01*
X204171Y9458D01*
Y9608D01*
X204021Y9758D01*
X203721D01*
X203571Y9608D01*
X202371Y13545D02*
X202222Y13695D01*
X201922D01*
X201772Y13545D01*
Y12945D01*
X201922Y12795D01*
X202222D01*
X202371Y12945D01*
Y13245D01*
X202072D01*
X202671Y12795D02*
Y13695D01*
X203121D01*
X203271Y13545D01*
Y13245D01*
X203121Y13095D01*
X202671D01*
X203571Y12795D02*
X203871D01*
X203721D01*
Y13695D01*
X203571Y13545D01*
X202371Y16990D02*
X202222Y17140D01*
X201922D01*
X201772Y16990D01*
Y16390D01*
X201922Y16240D01*
X202222D01*
X202371Y16390D01*
Y16690D01*
X202072D01*
X202671Y17140D02*
X203271D01*
X202971D01*
Y16240D01*
X203571Y17140D02*
Y16240D01*
X204171D01*
X202371Y18958D02*
X202222Y19108D01*
X201922D01*
X201772Y18958D01*
Y18359D01*
X201922Y18209D01*
X202222D01*
X202371Y18359D01*
Y18659D01*
X202072D01*
X202671Y19108D02*
X203271D01*
X202971D01*
Y18209D01*
X204171Y18958D02*
X204021Y19108D01*
X203721D01*
X203571Y18958D01*
Y18808D01*
X203721Y18659D01*
X204021D01*
X204171Y18509D01*
Y18359D01*
X204021Y18209D01*
X203721D01*
X203571Y18359D01*
X202371Y20435D02*
X202222Y20585D01*
X201922D01*
X201772Y20435D01*
Y19835D01*
X201922Y19685D01*
X202222D01*
X202371Y19835D01*
Y20135D01*
X202072D01*
X202671Y20585D02*
X203271D01*
X202971D01*
Y19685D01*
X204021Y20585D02*
X203721D01*
X203571Y20435D01*
Y19835D01*
X203721Y19685D01*
X204021D01*
X204171Y19835D01*
Y20435D01*
X204021Y20585D01*
X207785Y11577D02*
X207635Y11726D01*
X207335D01*
X207185Y11577D01*
Y10977D01*
X207335Y10827D01*
X207635D01*
X207785Y10977D01*
X208235Y10827D02*
X208535D01*
X208685Y10977D01*
Y11277D01*
X208535Y11427D01*
X208235D01*
X208085Y11277D01*
Y10977D01*
X208235Y10827D01*
X208984Y11427D02*
Y10827D01*
Y11127D01*
X209134Y11277D01*
X209284Y11427D01*
X209434D01*
X210334Y10827D02*
X210034D01*
X209884Y10977D01*
Y11277D01*
X210034Y11427D01*
X210334D01*
X210484Y11277D01*
Y11127D01*
X209884D01*
X207185Y14272D02*
Y15171D01*
X207635D01*
X207785Y15021D01*
Y14722D01*
X207635Y14572D01*
X207185D01*
X208085Y14871D02*
Y14272D01*
Y14572D01*
X208235Y14722D01*
X208385Y14871D01*
X208535D01*
X209434Y14272D02*
X209134D01*
X208984Y14422D01*
Y14722D01*
X209134Y14871D01*
X209434D01*
X209584Y14722D01*
Y14572D01*
X208984D01*
X209884Y14722D02*
X210484D01*
X210784Y14272D02*
Y15171D01*
X211234D01*
X211384Y15021D01*
Y14722D01*
X211234Y14572D01*
X210784D01*
X211684Y14871D02*
Y14272D01*
Y14572D01*
X211834Y14722D01*
X211983Y14871D01*
X212133D01*
X213033Y14272D02*
X212733D01*
X212583Y14422D01*
Y14722D01*
X212733Y14871D01*
X213033D01*
X213183Y14722D01*
Y14572D01*
X212583D01*
X213783Y13972D02*
X213933D01*
X214083Y14122D01*
Y14871D01*
X213633D01*
X213483Y14722D01*
Y14422D01*
X213633Y14272D01*
X214083D01*
X207185Y7382D02*
Y8282D01*
X207635D01*
X207785Y8132D01*
Y7832D01*
X207635Y7682D01*
X207185D01*
X208085Y7982D02*
Y7382D01*
Y7682D01*
X208235Y7832D01*
X208385Y7982D01*
X208535D01*
X209434Y7382D02*
X209134D01*
X208984Y7532D01*
Y7832D01*
X209134Y7982D01*
X209434D01*
X209584Y7832D01*
Y7682D01*
X208984D01*
X209884Y7832D02*
X210484D01*
X210784Y7382D02*
Y8282D01*
X211234D01*
X211384Y8132D01*
Y7832D01*
X211234Y7682D01*
X210784D01*
X211684Y7982D02*
Y7382D01*
Y7682D01*
X211834Y7832D01*
X211983Y7982D01*
X212133D01*
X213033Y7382D02*
X212733D01*
X212583Y7532D01*
Y7832D01*
X212733Y7982D01*
X213033D01*
X213183Y7832D01*
Y7682D01*
X212583D01*
X213783Y7082D02*
X213933D01*
X214083Y7232D01*
Y7982D01*
X213633D01*
X213483Y7832D01*
Y7532D01*
X213633Y7382D01*
X214083D01*
X207785Y6655D02*
X207635Y6805D01*
X207335D01*
X207185Y6655D01*
Y6055D01*
X207335Y5906D01*
X207635D01*
X207785Y6055D01*
X208235Y5906D02*
X208535D01*
X208685Y6055D01*
Y6355D01*
X208535Y6505D01*
X208235D01*
X208085Y6355D01*
Y6055D01*
X208235Y5906D01*
X208984Y5606D02*
Y6505D01*
X209434D01*
X209584Y6355D01*
Y6055D01*
X209434Y5906D01*
X208984D01*
X209884Y5606D02*
Y6505D01*
X210334D01*
X210484Y6355D01*
Y6055D01*
X210334Y5906D01*
X209884D01*
X211234D02*
X210934D01*
X210784Y6055D01*
Y6355D01*
X210934Y6505D01*
X211234D01*
X211384Y6355D01*
Y6205D01*
X210784D01*
X211684Y6505D02*
Y5906D01*
Y6205D01*
X211834Y6355D01*
X211983Y6505D01*
X212133D01*
X207185Y4921D02*
Y5821D01*
X207635D01*
X207785Y5671D01*
Y5371D01*
X207635Y5221D01*
X207185D01*
X208085Y4921D02*
X208385D01*
X208235D01*
Y5821D01*
X208085D01*
X208984Y5521D02*
X209284D01*
X209434Y5371D01*
Y4921D01*
X208984D01*
X208835Y5071D01*
X208984Y5221D01*
X209434D01*
X209884Y5671D02*
Y5521D01*
X209734D01*
X210034D01*
X209884D01*
Y5071D01*
X210034Y4921D01*
X210484D02*
X210784D01*
X210634D01*
Y5521D01*
X210484D01*
X211234Y4921D02*
Y5521D01*
X211684D01*
X211834Y5371D01*
Y4921D01*
X212433Y4621D02*
X212583D01*
X212733Y4771D01*
Y5521D01*
X212283D01*
X212133Y5371D01*
Y5071D01*
X212283Y4921D01*
X212733D01*
X207185Y16732D02*
Y17632D01*
X207635D01*
X207785Y17482D01*
Y17182D01*
X207635Y17032D01*
X207185D01*
X208085Y16732D02*
X208385D01*
X208235D01*
Y17632D01*
X208085D01*
X208984Y17332D02*
X209284D01*
X209434Y17182D01*
Y16732D01*
X208984D01*
X208835Y16882D01*
X208984Y17032D01*
X209434D01*
X209884Y17482D02*
Y17332D01*
X209734D01*
X210034D01*
X209884D01*
Y16882D01*
X210034Y16732D01*
X210484D02*
X210784D01*
X210634D01*
Y17332D01*
X210484D01*
X211234Y16732D02*
Y17332D01*
X211684D01*
X211834Y17182D01*
Y16732D01*
X212433Y16432D02*
X212583D01*
X212733Y16582D01*
Y17332D01*
X212283D01*
X212133Y17182D01*
Y16882D01*
X212283Y16732D01*
X212733D01*
X207785Y16498D02*
X207635Y16648D01*
X207335D01*
X207185Y16498D01*
Y15898D01*
X207335Y15748D01*
X207635D01*
X207785Y15898D01*
X208235Y15748D02*
X208535D01*
X208685Y15898D01*
Y16198D01*
X208535Y16348D01*
X208235D01*
X208085Y16198D01*
Y15898D01*
X208235Y15748D01*
X208984Y15448D02*
Y16348D01*
X209434D01*
X209584Y16198D01*
Y15898D01*
X209434Y15748D01*
X208984D01*
X209884Y15448D02*
Y16348D01*
X210334D01*
X210484Y16198D01*
Y15898D01*
X210334Y15748D01*
X209884D01*
X211234D02*
X210934D01*
X210784Y15898D01*
Y16198D01*
X210934Y16348D01*
X211234D01*
X211384Y16198D01*
Y16048D01*
X210784D01*
X211684Y16348D02*
Y15748D01*
Y16048D01*
X211834Y16198D01*
X211983Y16348D01*
X212133D01*
X207785Y9608D02*
X207635Y9758D01*
X207335D01*
X207185Y9608D01*
Y9008D01*
X207335Y8858D01*
X207635D01*
X207785Y9008D01*
X208235Y8858D02*
X208535D01*
X208685Y9008D01*
Y9308D01*
X208535Y9458D01*
X208235D01*
X208085Y9308D01*
Y9008D01*
X208235Y8858D01*
X208984Y8558D02*
Y9458D01*
X209434D01*
X209584Y9308D01*
Y9008D01*
X209434Y8858D01*
X208984D01*
X209884Y8558D02*
Y9458D01*
X210334D01*
X210484Y9308D01*
Y9008D01*
X210334Y8858D01*
X209884D01*
X211234D02*
X210934D01*
X210784Y9008D01*
Y9308D01*
X210934Y9458D01*
X211234D01*
X211384Y9308D01*
Y9158D01*
X210784D01*
X211684Y9458D02*
Y8858D01*
Y9158D01*
X211834Y9308D01*
X211983Y9458D01*
X212133D01*
X207785Y13545D02*
X207635Y13695D01*
X207335D01*
X207185Y13545D01*
Y12945D01*
X207335Y12795D01*
X207635D01*
X207785Y12945D01*
X208235Y12795D02*
X208535D01*
X208685Y12945D01*
Y13245D01*
X208535Y13395D01*
X208235D01*
X208085Y13245D01*
Y12945D01*
X208235Y12795D01*
X208984Y12495D02*
Y13395D01*
X209434D01*
X209584Y13245D01*
Y12945D01*
X209434Y12795D01*
X208984D01*
X209884Y12495D02*
Y13395D01*
X210334D01*
X210484Y13245D01*
Y12945D01*
X210334Y12795D01*
X209884D01*
X211234D02*
X210934D01*
X210784Y12945D01*
Y13245D01*
X210934Y13395D01*
X211234D01*
X211384Y13245D01*
Y13095D01*
X210784D01*
X211684Y13395D02*
Y12795D01*
Y13095D01*
X211834Y13245D01*
X211983Y13395D01*
X212133D01*
D37*
X3083Y118973D02*
D03*
Y116973D02*
D03*
Y117973D02*
D03*
X2083Y118473D02*
D03*
Y116473D02*
D03*
Y117473D02*
D03*
X3083Y114973D02*
D03*
Y115973D02*
D03*
X2083Y115473D02*
D03*
X3083Y106858D02*
D03*
Y104858D02*
D03*
Y105858D02*
D03*
X2083Y106358D02*
D03*
Y104358D02*
D03*
Y105358D02*
D03*
X3083Y102858D02*
D03*
Y103858D02*
D03*
X2083Y103358D02*
D03*
X145731Y87543D02*
D03*
Y88543D02*
D03*
X146731Y87543D02*
D03*
Y88543D02*
D03*
X147731Y87543D02*
D03*
Y88543D02*
D03*
X148731Y87543D02*
D03*
Y88543D02*
D03*
X149731Y87543D02*
D03*
X122731Y74293D02*
D03*
Y75293D02*
D03*
X123731Y74293D02*
D03*
Y75293D02*
D03*
X124731Y74293D02*
D03*
Y75293D02*
D03*
X125731Y74293D02*
D03*
Y75293D02*
D03*
X126731Y74293D02*
D03*
Y75293D02*
D03*
X127731Y74293D02*
D03*
Y75293D02*
D03*
X128731Y74293D02*
D03*
Y75293D02*
D03*
X129731Y74293D02*
D03*
Y75293D02*
D03*
X130731Y74293D02*
D03*
Y75293D02*
D03*
X131731Y74293D02*
D03*
Y75293D02*
D03*
X132731Y74293D02*
D03*
Y75293D02*
D03*
X133731Y74293D02*
D03*
Y75293D02*
D03*
X134731Y74293D02*
D03*
Y75293D02*
D03*
X135731Y74293D02*
D03*
Y75293D02*
D03*
X136731Y74293D02*
D03*
Y75293D02*
D03*
X137731Y74293D02*
D03*
Y75293D02*
D03*
X138731Y74293D02*
D03*
Y75293D02*
D03*
X139731Y74293D02*
D03*
Y75293D02*
D03*
X140731Y74293D02*
D03*
Y75293D02*
D03*
X141731Y74293D02*
D03*
Y75293D02*
D03*
X142731Y74293D02*
D03*
Y75293D02*
D03*
X143731Y74293D02*
D03*
Y75293D02*
D03*
X144731Y74293D02*
D03*
X122731Y93293D02*
D03*
Y94293D02*
D03*
X123731Y93293D02*
D03*
Y94293D02*
D03*
X124731Y93293D02*
D03*
Y94293D02*
D03*
X125731Y93293D02*
D03*
Y94293D02*
D03*
X126731Y93293D02*
D03*
Y94293D02*
D03*
X127731Y93293D02*
D03*
Y94293D02*
D03*
X128731Y93293D02*
D03*
Y94293D02*
D03*
X129731Y93293D02*
D03*
Y94293D02*
D03*
X130731Y93293D02*
D03*
Y94293D02*
D03*
X131731Y93293D02*
D03*
Y94293D02*
D03*
X132731Y93293D02*
D03*
Y94293D02*
D03*
X133731Y93293D02*
D03*
Y94293D02*
D03*
X134731Y93293D02*
D03*
Y94293D02*
D03*
X135731Y93293D02*
D03*
Y94293D02*
D03*
X136731Y93293D02*
D03*
Y94293D02*
D03*
X137731Y93293D02*
D03*
Y94293D02*
D03*
X138731Y93293D02*
D03*
Y94293D02*
D03*
X139731Y93293D02*
D03*
Y94293D02*
D03*
X140731Y93293D02*
D03*
Y94293D02*
D03*
X141731Y93293D02*
D03*
Y94293D02*
D03*
X142731Y93293D02*
D03*
Y94293D02*
D03*
X143731Y93293D02*
D03*
Y94293D02*
D03*
X144731Y93293D02*
D03*
X9850Y1950D02*
D03*
Y1100D02*
D03*
X30850Y950D02*
D03*
Y1890D02*
D03*
X45640Y4530D02*
D03*
X44630D02*
D03*
X66396Y4529D02*
D03*
X65656D02*
D03*
X108596D02*
D03*
X107856D02*
D03*
X87496D02*
D03*
X86756D02*
D03*
D38*
X2579Y121772D02*
D03*
Y112175D02*
D03*
Y109656D02*
D03*
Y100059D02*
D03*
D39*
X3346Y84024D02*
D03*
Y85024D02*
D03*
Y86024D02*
D03*
X3346Y94850D02*
D03*
Y95850D02*
D03*
Y96850D02*
D03*
Y73409D02*
D03*
Y74409D02*
D03*
Y75409D02*
D03*
X6080Y113124D02*
D03*
X5080D02*
D03*
X6080Y112124D02*
D03*
X5080D02*
D03*
X6080Y115124D02*
D03*
X5080D02*
D03*
X6080Y114124D02*
D03*
X5080D02*
D03*
X6080Y116124D02*
D03*
X5080D02*
D03*
X6080Y118124D02*
D03*
X5080D02*
D03*
X6080Y117124D02*
D03*
X5080D02*
D03*
X6080Y120124D02*
D03*
X5080D02*
D03*
X6080Y119124D02*
D03*
X5080D02*
D03*
X6080Y102124D02*
D03*
X5080D02*
D03*
X6080Y101124D02*
D03*
X5080D02*
D03*
X6080Y104124D02*
D03*
X5080D02*
D03*
X6080Y103124D02*
D03*
X5080D02*
D03*
X6080Y105124D02*
D03*
X5080D02*
D03*
X6080Y107124D02*
D03*
X5080D02*
D03*
X6080Y106124D02*
D03*
X5080D02*
D03*
X6080Y109124D02*
D03*
X5080D02*
D03*
X6080Y108124D02*
D03*
X5080D02*
D03*
X55331Y122047D02*
D03*
X56331D02*
D03*
X57331D02*
D03*
X58331D02*
D03*
X59331D02*
D03*
X60331D02*
D03*
X61331D02*
D03*
X63315D02*
D03*
X64315D02*
D03*
X65315D02*
D03*
X66315D02*
D03*
X67315D02*
D03*
X68315D02*
D03*
X69315D02*
D03*
X9051Y52803D02*
D03*
X8051D02*
D03*
X27252Y8203D02*
D03*
Y9203D02*
D03*
X29251Y8203D02*
D03*
Y9203D02*
D03*
X31251Y8203D02*
D03*
Y9203D02*
D03*
X33252Y8203D02*
D03*
Y9203D02*
D03*
X34251Y8203D02*
D03*
Y9203D02*
D03*
X63252Y8203D02*
D03*
Y9203D02*
D03*
X65251Y8203D02*
D03*
Y9203D02*
D03*
X67252Y8203D02*
D03*
Y9203D02*
D03*
X69251Y8203D02*
D03*
Y9203D02*
D03*
X70251Y8203D02*
D03*
Y9203D02*
D03*
X45251Y8203D02*
D03*
Y9203D02*
D03*
X47252Y8203D02*
D03*
Y9203D02*
D03*
X52252Y8203D02*
D03*
Y9203D02*
D03*
X50251Y8203D02*
D03*
Y9203D02*
D03*
X51252Y8203D02*
D03*
Y9203D02*
D03*
X76251Y8203D02*
D03*
Y9203D02*
D03*
X77251Y8203D02*
D03*
Y9203D02*
D03*
X72251Y8203D02*
D03*
Y9203D02*
D03*
X74251Y8203D02*
D03*
Y9203D02*
D03*
X75251Y8203D02*
D03*
Y9203D02*
D03*
X30252Y8203D02*
D03*
Y9203D02*
D03*
X28252Y8203D02*
D03*
Y9203D02*
D03*
X32252Y8203D02*
D03*
Y9203D02*
D03*
X66252Y8203D02*
D03*
Y9203D02*
D03*
X64251Y8203D02*
D03*
Y9203D02*
D03*
X68252Y8203D02*
D03*
Y9203D02*
D03*
X48252Y8203D02*
D03*
Y9203D02*
D03*
X46252Y8203D02*
D03*
Y9203D02*
D03*
X49251Y8203D02*
D03*
Y9203D02*
D03*
X79251Y8203D02*
D03*
Y9203D02*
D03*
X78251Y8203D02*
D03*
Y9203D02*
D03*
X73251Y8203D02*
D03*
Y9203D02*
D03*
X8051Y38803D02*
D03*
X9051D02*
D03*
X94251Y26203D02*
D03*
X93251D02*
D03*
X94251Y30203D02*
D03*
X93251D02*
D03*
X94251Y32203D02*
D03*
X93251D02*
D03*
X94251Y34203D02*
D03*
X93251D02*
D03*
X94251Y37203D02*
D03*
X93251D02*
D03*
X94251Y43203D02*
D03*
X93251D02*
D03*
X94251Y45203D02*
D03*
X93251D02*
D03*
X94251Y47203D02*
D03*
X93251D02*
D03*
X94251Y28203D02*
D03*
X93251D02*
D03*
X94251Y36203D02*
D03*
X93251D02*
D03*
X94251Y39203D02*
D03*
X93251D02*
D03*
X94251Y42203D02*
D03*
X93251D02*
D03*
X94251Y44203D02*
D03*
X93251D02*
D03*
X94251Y46203D02*
D03*
X93251D02*
D03*
X94251Y48203D02*
D03*
X93251D02*
D03*
X94251Y31203D02*
D03*
X93251D02*
D03*
X94251Y33203D02*
D03*
X93251D02*
D03*
X94251Y35203D02*
D03*
X93251D02*
D03*
X94251Y38203D02*
D03*
X93251D02*
D03*
X94251Y27203D02*
D03*
X93251D02*
D03*
X94251Y29203D02*
D03*
X93251D02*
D03*
X8051Y43803D02*
D03*
X9051D02*
D03*
X8051Y37803D02*
D03*
X9051D02*
D03*
X8051Y41803D02*
D03*
X9051D02*
D03*
X8051Y47803D02*
D03*
X9051D02*
D03*
X8051Y45803D02*
D03*
X9051D02*
D03*
X8051Y27603D02*
D03*
X9051D02*
D03*
X40251Y8203D02*
D03*
Y9203D02*
D03*
X42251Y8203D02*
D03*
Y9203D02*
D03*
X36251Y8203D02*
D03*
Y9203D02*
D03*
X38251Y8203D02*
D03*
Y9203D02*
D03*
X39251Y8203D02*
D03*
Y9203D02*
D03*
X58251Y8203D02*
D03*
Y9203D02*
D03*
X60251Y8203D02*
D03*
Y9203D02*
D03*
X56251Y8203D02*
D03*
Y9203D02*
D03*
X54251Y8203D02*
D03*
Y9203D02*
D03*
X55251Y8203D02*
D03*
Y9203D02*
D03*
X94251Y41203D02*
D03*
X93251D02*
D03*
X94251Y40203D02*
D03*
X93251D02*
D03*
X8051Y40803D02*
D03*
X9051D02*
D03*
X8051Y42803D02*
D03*
X9051D02*
D03*
X8051Y50803D02*
D03*
X9051D02*
D03*
X8051Y48803D02*
D03*
X9051D02*
D03*
X8051Y46803D02*
D03*
X9051D02*
D03*
X8051Y44803D02*
D03*
X9051D02*
D03*
X43251Y8203D02*
D03*
Y9203D02*
D03*
X41251Y8203D02*
D03*
Y9203D02*
D03*
X37251Y8203D02*
D03*
Y9203D02*
D03*
X61251Y8203D02*
D03*
Y9203D02*
D03*
X59251Y8203D02*
D03*
Y9203D02*
D03*
X57251Y8203D02*
D03*
Y9203D02*
D03*
X94251Y24203D02*
D03*
X93251D02*
D03*
X94251Y25203D02*
D03*
X93251D02*
D03*
X8051Y29603D02*
D03*
X9051D02*
D03*
X8051Y30603D02*
D03*
X9051D02*
D03*
X8051Y32603D02*
D03*
X9051D02*
D03*
X8051Y28603D02*
D03*
X9051D02*
D03*
X8051Y39803D02*
D03*
X9051D02*
D03*
X8051Y51803D02*
D03*
X9051D02*
D03*
X8051Y31603D02*
D03*
X9051D02*
D03*
X8051Y49803D02*
D03*
X9051D02*
D03*
X87311Y19977D02*
D03*
X84886Y30745D02*
D03*
X83886D02*
D03*
X84886Y31745D02*
D03*
X83886D02*
D03*
X84886Y32745D02*
D03*
X83886D02*
D03*
X84886Y33745D02*
D03*
X83886D02*
D03*
X84886Y34745D02*
D03*
X83886D02*
D03*
X84886Y35745D02*
D03*
X83886D02*
D03*
X84886Y36745D02*
D03*
X83886D02*
D03*
X84886Y37745D02*
D03*
X83886D02*
D03*
X84886Y38745D02*
D03*
X83886D02*
D03*
X84886Y39745D02*
D03*
X83886D02*
D03*
X84886Y40745D02*
D03*
X83886D02*
D03*
X84886Y41745D02*
D03*
X17563Y41832D02*
D03*
X16563D02*
D03*
X17563Y42832D02*
D03*
X16563D02*
D03*
X17563Y43832D02*
D03*
X16563D02*
D03*
X17563Y44832D02*
D03*
X16563D02*
D03*
X17563Y45832D02*
D03*
X16563D02*
D03*
X17563Y46832D02*
D03*
X16563D02*
D03*
X17563Y47832D02*
D03*
X16563D02*
D03*
X17563Y48832D02*
D03*
X16563D02*
D03*
X31049Y21023D02*
D03*
X32049Y22023D02*
D03*
X31049D02*
D03*
X32049Y23023D02*
D03*
X31049D02*
D03*
X32049Y24023D02*
D03*
X31049D02*
D03*
X79637Y44750D02*
D03*
X78637Y43750D02*
D03*
X79637D02*
D03*
X78637Y42750D02*
D03*
X79637D02*
D03*
X78637Y41750D02*
D03*
X79637D02*
D03*
X64907Y21023D02*
D03*
X65907Y22023D02*
D03*
X64907D02*
D03*
X65907Y23023D02*
D03*
X64907D02*
D03*
X65907Y24023D02*
D03*
X64907D02*
D03*
X45778Y44750D02*
D03*
X44778Y43750D02*
D03*
X45778D02*
D03*
X44778Y42750D02*
D03*
X45778D02*
D03*
X44778Y41750D02*
D03*
X45778D02*
D03*
X47978Y21023D02*
D03*
X48978Y22023D02*
D03*
X47978D02*
D03*
X48978Y23023D02*
D03*
X47978D02*
D03*
X48978Y24023D02*
D03*
X47978D02*
D03*
X62707Y44750D02*
D03*
X61707Y43750D02*
D03*
X62707D02*
D03*
X61707Y42750D02*
D03*
X62707D02*
D03*
X61707Y41750D02*
D03*
X62707D02*
D03*
X17563Y31115D02*
D03*
X16563Y30115D02*
D03*
X17563D02*
D03*
X16563Y29115D02*
D03*
X17563D02*
D03*
X94251Y23203D02*
D03*
X93251D02*
D03*
X9132Y83643D02*
D03*
X8131D02*
D03*
X9132Y85643D02*
D03*
X8131D02*
D03*
X9132Y87643D02*
D03*
X8131D02*
D03*
X9132Y89643D02*
D03*
X8131D02*
D03*
X9132Y91643D02*
D03*
X8131D02*
D03*
X9132Y93643D02*
D03*
X8131D02*
D03*
X9132Y95643D02*
D03*
X8131D02*
D03*
X9132Y97643D02*
D03*
X8131D02*
D03*
X9132Y99643D02*
D03*
X8131D02*
D03*
X9132Y101643D02*
D03*
X8131D02*
D03*
X9132Y103643D02*
D03*
X8131D02*
D03*
X9132Y105643D02*
D03*
X8131D02*
D03*
X9132Y107643D02*
D03*
X8131D02*
D03*
X9132Y109643D02*
D03*
X8131D02*
D03*
X9132Y111643D02*
D03*
X8131D02*
D03*
X9132Y113643D02*
D03*
X8131D02*
D03*
X9132Y115643D02*
D03*
X8131D02*
D03*
X9132Y117643D02*
D03*
X8131D02*
D03*
X9132Y119643D02*
D03*
X8131D02*
D03*
X15378Y78748D02*
D03*
Y79748D02*
D03*
X14378Y78748D02*
D03*
Y79748D02*
D03*
X13378Y78748D02*
D03*
Y79748D02*
D03*
X12378Y78748D02*
D03*
Y79748D02*
D03*
X9132Y82643D02*
D03*
X8131D02*
D03*
X9132Y84643D02*
D03*
X8131D02*
D03*
X9132Y86643D02*
D03*
X8131D02*
D03*
X9132Y88643D02*
D03*
X8131D02*
D03*
X9132Y90643D02*
D03*
X8131D02*
D03*
X9132Y92643D02*
D03*
X8131D02*
D03*
X9132Y94643D02*
D03*
X8131D02*
D03*
X9132Y96643D02*
D03*
X8131D02*
D03*
X9132Y98643D02*
D03*
X8131D02*
D03*
X9132Y100643D02*
D03*
X8131D02*
D03*
X9132Y102643D02*
D03*
X8131D02*
D03*
X9132Y104643D02*
D03*
X8131D02*
D03*
X9132Y106643D02*
D03*
X8131D02*
D03*
X9132Y108643D02*
D03*
X8131D02*
D03*
X9132Y110643D02*
D03*
X8131D02*
D03*
X9132Y112643D02*
D03*
X8131D02*
D03*
X9132Y114643D02*
D03*
X8131D02*
D03*
X9132Y116643D02*
D03*
X8131D02*
D03*
X9132Y118643D02*
D03*
X8131D02*
D03*
Y81643D02*
D03*
X9132D02*
D03*
X15378Y64748D02*
D03*
Y63748D02*
D03*
X14378Y64748D02*
D03*
Y63748D02*
D03*
X8131Y120643D02*
D03*
X9132D02*
D03*
X13378Y63748D02*
D03*
Y64748D02*
D03*
X51132Y130643D02*
D03*
Y131643D02*
D03*
X49131Y130643D02*
D03*
Y131643D02*
D03*
X47132Y130643D02*
D03*
Y131643D02*
D03*
X45132Y130643D02*
D03*
Y131643D02*
D03*
X43131Y130643D02*
D03*
Y131643D02*
D03*
X41132Y130643D02*
D03*
Y131643D02*
D03*
X39132Y130643D02*
D03*
Y131643D02*
D03*
X37132Y130643D02*
D03*
Y131643D02*
D03*
X35131Y130643D02*
D03*
Y131643D02*
D03*
X33131Y130643D02*
D03*
Y131643D02*
D03*
X31131Y130643D02*
D03*
Y131643D02*
D03*
X29132Y130643D02*
D03*
Y131643D02*
D03*
X27132Y130643D02*
D03*
Y131643D02*
D03*
X25131Y130643D02*
D03*
Y131643D02*
D03*
X23131Y130643D02*
D03*
Y131643D02*
D03*
X21131Y130643D02*
D03*
Y131643D02*
D03*
X19131Y130643D02*
D03*
Y131643D02*
D03*
X17132Y130643D02*
D03*
Y131643D02*
D03*
X15131Y130643D02*
D03*
Y131643D02*
D03*
X54131Y130643D02*
D03*
Y131643D02*
D03*
X52132Y130643D02*
D03*
Y131643D02*
D03*
X50132Y130643D02*
D03*
Y131643D02*
D03*
X48131Y130643D02*
D03*
Y131643D02*
D03*
X46132Y130643D02*
D03*
Y131643D02*
D03*
X44131Y130643D02*
D03*
Y131643D02*
D03*
X42132Y130643D02*
D03*
Y131643D02*
D03*
X40132Y130643D02*
D03*
Y131643D02*
D03*
X38131Y130643D02*
D03*
Y131643D02*
D03*
X36131Y130643D02*
D03*
Y131643D02*
D03*
X34132Y130643D02*
D03*
Y131643D02*
D03*
X32132Y130643D02*
D03*
Y131643D02*
D03*
X30131Y130643D02*
D03*
Y131643D02*
D03*
X28131Y130643D02*
D03*
Y131643D02*
D03*
X26131Y130643D02*
D03*
Y131643D02*
D03*
X24132Y130643D02*
D03*
Y131643D02*
D03*
X22132Y130643D02*
D03*
Y131643D02*
D03*
X20131Y130643D02*
D03*
Y131643D02*
D03*
X18132Y130643D02*
D03*
Y131643D02*
D03*
X12378Y63748D02*
D03*
Y64748D02*
D03*
X53131Y131643D02*
D03*
Y130643D02*
D03*
X59131Y74643D02*
D03*
X60132D02*
D03*
X59131Y72643D02*
D03*
X60132D02*
D03*
X16132Y131643D02*
D03*
Y130643D02*
D03*
X59131Y118643D02*
D03*
X60132D02*
D03*
X59131Y116643D02*
D03*
X60132D02*
D03*
X59131Y114643D02*
D03*
X60132D02*
D03*
X59131Y112643D02*
D03*
X60132D02*
D03*
X59131Y110643D02*
D03*
X60132D02*
D03*
X59131Y108643D02*
D03*
X60132D02*
D03*
X59131Y106643D02*
D03*
X60132D02*
D03*
X59131Y104643D02*
D03*
X60132D02*
D03*
X59131Y102643D02*
D03*
X60132D02*
D03*
X59131Y100643D02*
D03*
X60132D02*
D03*
X59131Y98643D02*
D03*
X60132D02*
D03*
X59131Y94643D02*
D03*
X60132D02*
D03*
X59131Y92643D02*
D03*
X60132D02*
D03*
X59131Y90643D02*
D03*
X60132D02*
D03*
X59131Y88643D02*
D03*
X60132D02*
D03*
X59131Y86643D02*
D03*
X60132D02*
D03*
X59131Y84643D02*
D03*
X60132D02*
D03*
X59131Y82643D02*
D03*
X60132D02*
D03*
X59131Y75643D02*
D03*
X60132D02*
D03*
X59131Y73643D02*
D03*
X60132D02*
D03*
Y71643D02*
D03*
X59131D02*
D03*
Y119643D02*
D03*
X60132D02*
D03*
X59131Y115643D02*
D03*
X60132D02*
D03*
X59131Y113643D02*
D03*
X60132D02*
D03*
X59131Y111643D02*
D03*
X60132D02*
D03*
X59131Y109643D02*
D03*
X60132D02*
D03*
X59131Y105643D02*
D03*
X60132D02*
D03*
X59131Y103643D02*
D03*
X60132D02*
D03*
X59131Y101643D02*
D03*
X60132D02*
D03*
X59131Y99643D02*
D03*
X60132D02*
D03*
X59131Y97643D02*
D03*
X60132D02*
D03*
X59131Y95643D02*
D03*
X60132D02*
D03*
X59131Y93643D02*
D03*
X60132D02*
D03*
X59131Y89643D02*
D03*
X60132D02*
D03*
X59131Y87643D02*
D03*
X60132D02*
D03*
X59131Y83643D02*
D03*
X60132D02*
D03*
Y81643D02*
D03*
X59131D02*
D03*
Y107643D02*
D03*
X60132D02*
D03*
X59131Y117643D02*
D03*
X60132D02*
D03*
X59131Y85643D02*
D03*
X60132D02*
D03*
X59131Y91643D02*
D03*
X60132D02*
D03*
X59131Y96643D02*
D03*
X60132D02*
D03*
X59131Y120643D02*
D03*
X60132D02*
D03*
X59131Y76643D02*
D03*
X60132D02*
D03*
X100681Y8037D02*
D03*
Y7037D02*
D03*
X99682Y8037D02*
D03*
Y7037D02*
D03*
X103681Y8037D02*
D03*
Y7037D02*
D03*
X110681Y8037D02*
D03*
Y7037D02*
D03*
X109682Y8037D02*
D03*
Y7037D02*
D03*
X107682Y8037D02*
D03*
Y7037D02*
D03*
X108681Y8037D02*
D03*
Y7037D02*
D03*
X102682Y8037D02*
D03*
Y7037D02*
D03*
X101681Y8037D02*
D03*
Y7037D02*
D03*
X105681Y8037D02*
D03*
Y7037D02*
D03*
X104682Y8037D02*
D03*
Y7037D02*
D03*
X106681Y8037D02*
D03*
Y7037D02*
D03*
X149254Y59737D02*
D03*
X148254D02*
D03*
X126342Y135248D02*
D03*
Y134248D02*
D03*
X124342Y135248D02*
D03*
Y134248D02*
D03*
X122342Y135248D02*
D03*
Y134248D02*
D03*
X120342Y135248D02*
D03*
Y134248D02*
D03*
X118342Y135248D02*
D03*
Y134248D02*
D03*
X146342Y135248D02*
D03*
Y134248D02*
D03*
X144342Y135248D02*
D03*
Y134248D02*
D03*
X142342Y135248D02*
D03*
Y134248D02*
D03*
X140342Y135248D02*
D03*
Y134248D02*
D03*
X138342Y135248D02*
D03*
Y134248D02*
D03*
X128342Y135248D02*
D03*
Y134248D02*
D03*
X130342Y135248D02*
D03*
Y134248D02*
D03*
X132342Y135248D02*
D03*
Y134248D02*
D03*
X134342Y135248D02*
D03*
Y134248D02*
D03*
X127342Y135248D02*
D03*
Y134248D02*
D03*
X125342Y135248D02*
D03*
Y134248D02*
D03*
X123342Y135248D02*
D03*
Y134248D02*
D03*
X121342Y135248D02*
D03*
Y134248D02*
D03*
X119342Y135248D02*
D03*
Y134248D02*
D03*
X117342Y135248D02*
D03*
Y134248D02*
D03*
X147342Y135248D02*
D03*
Y134248D02*
D03*
X145342Y135248D02*
D03*
Y134248D02*
D03*
X143342Y135248D02*
D03*
Y134248D02*
D03*
X141342Y135248D02*
D03*
Y134248D02*
D03*
X139342Y135248D02*
D03*
Y134248D02*
D03*
X137342Y135248D02*
D03*
Y134248D02*
D03*
X114342Y135248D02*
D03*
Y134248D02*
D03*
X115342Y135248D02*
D03*
Y134248D02*
D03*
X136342Y135248D02*
D03*
Y134248D02*
D03*
X116342Y135248D02*
D03*
Y134248D02*
D03*
X129342Y135248D02*
D03*
Y134248D02*
D03*
X131342Y135248D02*
D03*
Y134248D02*
D03*
X133342Y135248D02*
D03*
Y134248D02*
D03*
X135342Y135248D02*
D03*
Y134248D02*
D03*
X90941Y81493D02*
D03*
Y82493D02*
D03*
X91941Y81493D02*
D03*
Y82493D02*
D03*
X92941Y81493D02*
D03*
Y82493D02*
D03*
X93941Y81493D02*
D03*
Y82493D02*
D03*
X94941Y81493D02*
D03*
Y82493D02*
D03*
X95941Y81493D02*
D03*
Y82493D02*
D03*
X84941Y81493D02*
D03*
Y82493D02*
D03*
X85941Y81493D02*
D03*
Y82493D02*
D03*
X86941Y81493D02*
D03*
Y82493D02*
D03*
X87941Y81493D02*
D03*
Y82493D02*
D03*
X88941Y81493D02*
D03*
Y82493D02*
D03*
X89941Y81493D02*
D03*
Y82493D02*
D03*
X112741Y120493D02*
D03*
X111741D02*
D03*
X112741Y116493D02*
D03*
X111741D02*
D03*
X112741Y118493D02*
D03*
X111741D02*
D03*
X112741Y114493D02*
D03*
X111741D02*
D03*
X61741Y119493D02*
D03*
X62741D02*
D03*
X61741Y117493D02*
D03*
X62741D02*
D03*
X61741Y115493D02*
D03*
X62741D02*
D03*
X61741Y113493D02*
D03*
X62741D02*
D03*
X83941Y81493D02*
D03*
Y82493D02*
D03*
X91135Y130893D02*
D03*
Y129893D02*
D03*
X90135Y130893D02*
D03*
Y129893D02*
D03*
X89135Y130893D02*
D03*
Y129893D02*
D03*
X88135Y130893D02*
D03*
Y129893D02*
D03*
X87135Y130893D02*
D03*
Y129893D02*
D03*
X86135Y130893D02*
D03*
Y129893D02*
D03*
X85135Y130893D02*
D03*
Y129893D02*
D03*
X84135Y130893D02*
D03*
Y129893D02*
D03*
X83135Y130893D02*
D03*
Y129893D02*
D03*
X82135Y130893D02*
D03*
Y129893D02*
D03*
X81135Y130893D02*
D03*
Y129893D02*
D03*
X80135Y130893D02*
D03*
Y129893D02*
D03*
X95135Y130893D02*
D03*
Y129893D02*
D03*
X94135Y130893D02*
D03*
Y129893D02*
D03*
X93135Y130893D02*
D03*
Y129893D02*
D03*
X92135Y130893D02*
D03*
Y129893D02*
D03*
X82941Y81493D02*
D03*
Y82493D02*
D03*
X61741Y118493D02*
D03*
X62741D02*
D03*
X61741Y112493D02*
D03*
X62741D02*
D03*
X61741Y114493D02*
D03*
X62741D02*
D03*
X61741Y116493D02*
D03*
X62741D02*
D03*
X81941Y81493D02*
D03*
Y82493D02*
D03*
X112741Y113493D02*
D03*
X111741D02*
D03*
X112741Y115493D02*
D03*
X111741D02*
D03*
X112741Y117493D02*
D03*
X111741D02*
D03*
X112741Y119493D02*
D03*
X111741D02*
D03*
X80941Y81493D02*
D03*
Y82493D02*
D03*
X119531Y39937D02*
D03*
Y40937D02*
D03*
X118532Y39937D02*
D03*
Y40937D02*
D03*
X119885Y7945D02*
D03*
Y6945D02*
D03*
X120885Y7945D02*
D03*
Y6945D02*
D03*
X130885Y7945D02*
D03*
Y6945D02*
D03*
X129885Y7945D02*
D03*
Y6945D02*
D03*
X123884Y7945D02*
D03*
Y6945D02*
D03*
X128884Y7945D02*
D03*
Y6945D02*
D03*
X127885Y7945D02*
D03*
Y6945D02*
D03*
X121884Y7945D02*
D03*
Y6945D02*
D03*
X122885Y7945D02*
D03*
Y6945D02*
D03*
X125885Y7945D02*
D03*
Y6945D02*
D03*
X124885Y7945D02*
D03*
Y6945D02*
D03*
X126884Y7945D02*
D03*
Y6945D02*
D03*
X122531Y39937D02*
D03*
Y40937D02*
D03*
X121531Y39937D02*
D03*
Y40937D02*
D03*
X123532Y39937D02*
D03*
Y40937D02*
D03*
X120532D02*
D03*
Y39937D02*
D03*
X110037Y39418D02*
D03*
X111037D02*
D03*
X110037Y38419D02*
D03*
X111037D02*
D03*
X110037Y34418D02*
D03*
X111037D02*
D03*
X110037Y36418D02*
D03*
X111037D02*
D03*
X110037Y35419D02*
D03*
X111037D02*
D03*
Y37418D02*
D03*
X110037D02*
D03*
X88488Y72337D02*
D03*
Y71337D02*
D03*
X65231Y64043D02*
D03*
X66231D02*
D03*
X65231Y65043D02*
D03*
X66231D02*
D03*
X65231Y66043D02*
D03*
X66231D02*
D03*
X65231Y68043D02*
D03*
X66231D02*
D03*
X65231Y69043D02*
D03*
X66231D02*
D03*
X65231Y70043D02*
D03*
X66231D02*
D03*
X65231Y72043D02*
D03*
X66231D02*
D03*
X65231Y73043D02*
D03*
X66231D02*
D03*
X65231Y74043D02*
D03*
X66231D02*
D03*
X65231Y76043D02*
D03*
X66231D02*
D03*
X65231Y77043D02*
D03*
X66231D02*
D03*
X63231Y63928D02*
D03*
Y64928D02*
D03*
Y72028D02*
D03*
Y73028D02*
D03*
X65231Y62043D02*
D03*
X66231D02*
D03*
X87488Y72337D02*
D03*
Y71337D02*
D03*
X65231Y63043D02*
D03*
X66231D02*
D03*
X65231Y67043D02*
D03*
X66231D02*
D03*
X65231Y71043D02*
D03*
X66231D02*
D03*
X65231Y75043D02*
D03*
X66231D02*
D03*
X63231Y76028D02*
D03*
Y77028D02*
D03*
Y68028D02*
D03*
Y69028D02*
D03*
X137583Y59171D02*
D03*
Y58171D02*
D03*
X114732Y44543D02*
D03*
X115731D02*
D03*
X114732Y46512D02*
D03*
X115731D02*
D03*
X114732Y47496D02*
D03*
X115731D02*
D03*
X114732Y48480D02*
D03*
X115731D02*
D03*
X114732Y50449D02*
D03*
X115731D02*
D03*
X114732Y51433D02*
D03*
X115731D02*
D03*
X114732Y52417D02*
D03*
X115731D02*
D03*
X114732Y54386D02*
D03*
X115731D02*
D03*
X114732Y55370D02*
D03*
X115731D02*
D03*
X114732Y56354D02*
D03*
X115731D02*
D03*
X114732Y58323D02*
D03*
X115731D02*
D03*
X114732Y59307D02*
D03*
X115731D02*
D03*
X112763Y50496D02*
D03*
Y49496D02*
D03*
Y46496D02*
D03*
Y45496D02*
D03*
X112752Y58303D02*
D03*
Y57303D02*
D03*
Y54303D02*
D03*
Y53303D02*
D03*
X136583Y59171D02*
D03*
Y58171D02*
D03*
X114732Y45528D02*
D03*
X115731D02*
D03*
X114732Y49465D02*
D03*
X115731D02*
D03*
X114732Y53402D02*
D03*
X115731D02*
D03*
X114732Y57339D02*
D03*
X115731D02*
D03*
X102232Y78543D02*
D03*
X101231D02*
D03*
X103331Y42637D02*
D03*
Y41637D02*
D03*
X102331Y42637D02*
D03*
Y41637D02*
D03*
X101332Y42637D02*
D03*
Y41637D02*
D03*
X100331Y42637D02*
D03*
Y41637D02*
D03*
X101231Y75543D02*
D03*
Y76543D02*
D03*
X102232Y75543D02*
D03*
Y76543D02*
D03*
X98231Y75543D02*
D03*
Y76543D02*
D03*
X99232Y75543D02*
D03*
Y76543D02*
D03*
X100232Y75543D02*
D03*
Y76543D02*
D03*
X97232Y75543D02*
D03*
Y76543D02*
D03*
X103231Y75543D02*
D03*
Y76543D02*
D03*
X96231Y75543D02*
D03*
Y76543D02*
D03*
X95232Y75543D02*
D03*
Y76543D02*
D03*
X94232Y75543D02*
D03*
Y76543D02*
D03*
X99332Y42637D02*
D03*
Y41637D02*
D03*
X98331Y42637D02*
D03*
Y41637D02*
D03*
X97331Y42637D02*
D03*
Y41637D02*
D03*
X96332Y42637D02*
D03*
Y41637D02*
D03*
X151254Y23518D02*
D03*
Y24518D02*
D03*
X149254Y23518D02*
D03*
Y24518D02*
D03*
X150254Y23518D02*
D03*
Y24518D02*
D03*
X148254Y23518D02*
D03*
Y24518D02*
D03*
X149254Y58131D02*
D03*
Y57131D02*
D03*
X150254Y58131D02*
D03*
Y57131D02*
D03*
X148254Y58131D02*
D03*
Y57131D02*
D03*
X147254Y58131D02*
D03*
Y57131D02*
D03*
X146254Y58131D02*
D03*
Y57131D02*
D03*
X145254Y58131D02*
D03*
Y57131D02*
D03*
X151254Y58131D02*
D03*
Y57131D02*
D03*
X147254Y23518D02*
D03*
Y24518D02*
D03*
X146254Y23518D02*
D03*
Y24518D02*
D03*
X145254Y23518D02*
D03*
Y24518D02*
D03*
X144254Y23518D02*
D03*
Y24518D02*
D03*
Y58131D02*
D03*
Y57131D02*
D03*
X143254Y58131D02*
D03*
Y57131D02*
D03*
X142254Y58131D02*
D03*
Y57131D02*
D03*
X71234Y114542D02*
D03*
X72234Y115542D02*
D03*
X71234D02*
D03*
X72234Y116542D02*
D03*
X71234D02*
D03*
X72234Y117542D02*
D03*
X71234D02*
D03*
X94545Y89779D02*
D03*
X93545D02*
D03*
X92545D02*
D03*
X91545D02*
D03*
X90545D02*
D03*
X89545D02*
D03*
X88545D02*
D03*
X87545D02*
D03*
X86545D02*
D03*
X85545D02*
D03*
X84545D02*
D03*
X83545D02*
D03*
X82545D02*
D03*
X81545D02*
D03*
X80545D02*
D03*
X103923Y117476D02*
D03*
X102923Y116476D02*
D03*
X103923D02*
D03*
X102923Y115476D02*
D03*
X103923D02*
D03*
X102923Y114476D02*
D03*
X103923D02*
D03*
X95545Y122700D02*
D03*
X94545D02*
D03*
X93545D02*
D03*
X92545D02*
D03*
X91545D02*
D03*
X90545D02*
D03*
X89545D02*
D03*
X88545D02*
D03*
X87545D02*
D03*
X86545D02*
D03*
X85545D02*
D03*
X84545D02*
D03*
X83545D02*
D03*
X82545D02*
D03*
X81545D02*
D03*
X73886Y72231D02*
D03*
Y71231D02*
D03*
Y70231D02*
D03*
Y67731D02*
D03*
Y66731D02*
D03*
Y65731D02*
D03*
Y63231D02*
D03*
Y62231D02*
D03*
Y61231D02*
D03*
Y76731D02*
D03*
Y75731D02*
D03*
Y74731D02*
D03*
X85386Y61731D02*
D03*
X123285Y54737D02*
D03*
Y53737D02*
D03*
Y52737D02*
D03*
Y50237D02*
D03*
Y49237D02*
D03*
Y48237D02*
D03*
Y45737D02*
D03*
Y44737D02*
D03*
Y43737D02*
D03*
Y59237D02*
D03*
Y58237D02*
D03*
Y57237D02*
D03*
X134785Y44237D02*
D03*
X144781Y32583D02*
D03*
X145781D02*
D03*
X146781D02*
D03*
X147781D02*
D03*
X148781D02*
D03*
X149781D02*
D03*
X150781D02*
D03*
X149781Y49128D02*
D03*
X142781D02*
D03*
X143781D02*
D03*
X144781D02*
D03*
X145781D02*
D03*
X146781D02*
D03*
X147781D02*
D03*
X148781D02*
D03*
X150781D02*
D03*
X124094Y32165D02*
D03*
X123094D02*
D03*
X122094D02*
D03*
X121094D02*
D03*
X120094D02*
D03*
X133294Y20715D02*
D03*
X132294D02*
D03*
X131294D02*
D03*
X117884Y19445D02*
D03*
X118884D02*
D03*
X119884D02*
D03*
X127064Y21855D02*
D03*
X128064D02*
D03*
X129064D02*
D03*
X103794Y31971D02*
D03*
X102794D02*
D03*
X101794D02*
D03*
X100794D02*
D03*
X99794D02*
D03*
X112994Y20521D02*
D03*
X111994D02*
D03*
X110994D02*
D03*
X97584Y19251D02*
D03*
X98584D02*
D03*
X99584D02*
D03*
X106764Y21661D02*
D03*
X107764D02*
D03*
X108764D02*
D03*
X160732Y83293D02*
D03*
X161731D02*
D03*
X160732Y92293D02*
D03*
X161731D02*
D03*
X160732Y84293D02*
D03*
X161731D02*
D03*
X160732Y91293D02*
D03*
X161731D02*
D03*
X160732Y85293D02*
D03*
X161731D02*
D03*
X160732Y90293D02*
D03*
X161731D02*
D03*
X160732Y86293D02*
D03*
X161731D02*
D03*
X160732Y89293D02*
D03*
X161731D02*
D03*
X160732Y87293D02*
D03*
X161731D02*
D03*
X160732Y88293D02*
D03*
X161731D02*
D03*
X111732Y64293D02*
D03*
Y63293D02*
D03*
X112732Y64293D02*
D03*
Y63293D02*
D03*
X113731Y64293D02*
D03*
Y63293D02*
D03*
X114732Y64293D02*
D03*
Y63293D02*
D03*
X115731Y64293D02*
D03*
Y63293D02*
D03*
X116732Y64293D02*
D03*
Y63293D02*
D03*
X117732Y64293D02*
D03*
Y63293D02*
D03*
X118731Y64293D02*
D03*
Y63293D02*
D03*
X119732Y64293D02*
D03*
Y63293D02*
D03*
X120731Y64293D02*
D03*
Y63293D02*
D03*
X121732Y64293D02*
D03*
Y63293D02*
D03*
X122732Y64293D02*
D03*
Y63293D02*
D03*
X123731Y64293D02*
D03*
Y63293D02*
D03*
X124732Y64293D02*
D03*
Y63293D02*
D03*
X125731Y64293D02*
D03*
Y63293D02*
D03*
X126732Y64293D02*
D03*
Y63293D02*
D03*
X127732Y64293D02*
D03*
Y63293D02*
D03*
X128731Y64293D02*
D03*
Y63293D02*
D03*
X129732Y64293D02*
D03*
Y63293D02*
D03*
X130731Y64293D02*
D03*
Y63293D02*
D03*
X131732Y64293D02*
D03*
Y63293D02*
D03*
X132732Y64293D02*
D03*
Y63293D02*
D03*
X133731Y64293D02*
D03*
Y63293D02*
D03*
X134732Y64293D02*
D03*
Y63293D02*
D03*
X135731Y64293D02*
D03*
Y63293D02*
D03*
X136732Y64293D02*
D03*
Y63293D02*
D03*
X137732Y64293D02*
D03*
Y63293D02*
D03*
X138731Y64293D02*
D03*
Y63293D02*
D03*
X139732Y64293D02*
D03*
Y63293D02*
D03*
X140731Y64293D02*
D03*
Y63293D02*
D03*
X141732Y64293D02*
D03*
Y63293D02*
D03*
X142732Y64293D02*
D03*
Y63293D02*
D03*
X143731Y64293D02*
D03*
Y63293D02*
D03*
X144732Y64293D02*
D03*
Y63293D02*
D03*
X145731Y64293D02*
D03*
Y63293D02*
D03*
X146732Y64293D02*
D03*
Y63293D02*
D03*
X147732Y64293D02*
D03*
Y63293D02*
D03*
X148731Y64293D02*
D03*
Y63293D02*
D03*
X149732Y64293D02*
D03*
Y63293D02*
D03*
X150731Y64293D02*
D03*
Y63293D02*
D03*
X151732Y64293D02*
D03*
Y63293D02*
D03*
X152732Y64293D02*
D03*
Y63293D02*
D03*
X153731Y64293D02*
D03*
Y63293D02*
D03*
X154732Y64293D02*
D03*
Y63293D02*
D03*
X155731Y64293D02*
D03*
Y63293D02*
D03*
X111732Y104293D02*
D03*
Y105293D02*
D03*
X112732Y104293D02*
D03*
Y105293D02*
D03*
X113731Y104293D02*
D03*
Y105293D02*
D03*
X114732Y104293D02*
D03*
Y105293D02*
D03*
X115731Y104293D02*
D03*
Y105293D02*
D03*
X116732Y104293D02*
D03*
Y105293D02*
D03*
X117732Y104293D02*
D03*
Y105293D02*
D03*
X118731Y104293D02*
D03*
Y105293D02*
D03*
X119732Y104293D02*
D03*
Y105293D02*
D03*
X120731Y104293D02*
D03*
Y105293D02*
D03*
X121732Y104293D02*
D03*
Y105293D02*
D03*
X122732Y104293D02*
D03*
Y105293D02*
D03*
X123731Y104293D02*
D03*
Y105293D02*
D03*
X124732Y104293D02*
D03*
Y105293D02*
D03*
X125731Y104293D02*
D03*
Y105293D02*
D03*
X126732Y104293D02*
D03*
Y105293D02*
D03*
X127732Y104293D02*
D03*
Y105293D02*
D03*
X128731Y104293D02*
D03*
Y105293D02*
D03*
X129732Y104293D02*
D03*
Y105293D02*
D03*
X130731Y104293D02*
D03*
Y105293D02*
D03*
X131732Y104293D02*
D03*
Y105293D02*
D03*
X132732Y104293D02*
D03*
Y105293D02*
D03*
X133731Y104293D02*
D03*
Y105293D02*
D03*
X134732Y104293D02*
D03*
Y105293D02*
D03*
X135731Y104293D02*
D03*
Y105293D02*
D03*
X136732Y104293D02*
D03*
Y105293D02*
D03*
X137732Y104293D02*
D03*
Y105293D02*
D03*
X138731Y104293D02*
D03*
Y105293D02*
D03*
X139732Y104293D02*
D03*
Y105293D02*
D03*
X140731Y104293D02*
D03*
Y105293D02*
D03*
X141732Y104293D02*
D03*
Y105293D02*
D03*
X142732Y104293D02*
D03*
Y105293D02*
D03*
X143731Y104293D02*
D03*
Y105293D02*
D03*
X144732Y104293D02*
D03*
Y105293D02*
D03*
X145731Y104293D02*
D03*
Y105293D02*
D03*
X146732Y104293D02*
D03*
Y105293D02*
D03*
X147732Y104293D02*
D03*
Y105293D02*
D03*
X148731Y104293D02*
D03*
Y105293D02*
D03*
X149732Y104293D02*
D03*
Y105293D02*
D03*
X150731Y104293D02*
D03*
Y105293D02*
D03*
X151732Y104293D02*
D03*
Y105293D02*
D03*
X152732Y104293D02*
D03*
Y105293D02*
D03*
X153731Y104293D02*
D03*
Y105293D02*
D03*
X155731Y104293D02*
D03*
Y105293D02*
D03*
X156732Y104293D02*
D03*
Y105293D02*
D03*
X154732Y104293D02*
D03*
Y105293D02*
D03*
X156732Y64293D02*
D03*
Y63293D02*
D03*
X47585Y75258D02*
D03*
Y74258D02*
D03*
X48684Y73258D02*
D03*
Y74258D02*
D03*
Y75258D02*
D03*
X96709Y50958D02*
D03*
X97709D02*
D03*
X98709D02*
D03*
X99709D02*
D03*
X100709D02*
D03*
X101709D02*
D03*
X102709D02*
D03*
X101709Y67504D02*
D03*
X94709D02*
D03*
X95709D02*
D03*
X96709D02*
D03*
X97709D02*
D03*
X98709D02*
D03*
X99709D02*
D03*
X100709D02*
D03*
X102709D02*
D03*
D40*
X3346Y83024D02*
D03*
X3346Y93850D02*
D03*
Y72409D02*
D03*
X87311Y20977D02*
D03*
X83886Y41745D02*
D03*
X32049Y21023D02*
D03*
X78637Y44750D02*
D03*
X65907Y21023D02*
D03*
X44778Y44750D02*
D03*
X48978Y21023D02*
D03*
X61707Y44750D02*
D03*
X16563Y31115D02*
D03*
X63231Y62928D02*
D03*
Y71028D02*
D03*
Y75028D02*
D03*
Y67028D02*
D03*
X112763Y51496D02*
D03*
Y47496D02*
D03*
X112752Y59303D02*
D03*
Y55303D02*
D03*
X72234Y114542D02*
D03*
X102923Y117476D02*
D03*
X73886Y73231D02*
D03*
Y68731D02*
D03*
Y64231D02*
D03*
Y77731D02*
D03*
X85386Y62731D02*
D03*
X123285Y55737D02*
D03*
Y51237D02*
D03*
Y46737D02*
D03*
Y60237D02*
D03*
X134785Y45237D02*
D03*
X47585Y73258D02*
D03*
D41*
X4832Y134375D02*
D03*
X4970Y133858D02*
D03*
X3937Y134892D02*
D03*
X4454Y134753D02*
D03*
X4832Y133342D02*
D03*
X4454Y132963D02*
D03*
X3937Y132825D02*
D03*
X3420Y134753D02*
D03*
X3042Y134375D02*
D03*
X2904Y133858D02*
D03*
X3420Y132963D02*
D03*
X3042Y133342D02*
D03*
X85067Y16942D02*
D03*
X84280Y16154D02*
D03*
X83492Y16942D02*
D03*
X84280Y17729D02*
D03*
X84962Y16548D02*
D03*
X84674Y16260D02*
D03*
X84962Y17336D02*
D03*
X84674Y17624D02*
D03*
X83598Y17336D02*
D03*
X83886Y17624D02*
D03*
X83598Y16548D02*
D03*
X83886Y16260D02*
D03*
X20894Y48832D02*
D03*
X20107Y48044D02*
D03*
X19319Y48832D02*
D03*
X20107Y49619D02*
D03*
X20789Y48438D02*
D03*
X20500Y48150D02*
D03*
X20789Y49225D02*
D03*
X20500Y49514D02*
D03*
X19425Y49225D02*
D03*
X19713Y49514D02*
D03*
X19425Y48438D02*
D03*
X19713Y48150D02*
D03*
X85067Y48832D02*
D03*
X84280Y48044D02*
D03*
X83492Y48832D02*
D03*
X84280Y49619D02*
D03*
X84962Y48438D02*
D03*
X84674Y48150D02*
D03*
X84962Y49225D02*
D03*
X84674Y49514D02*
D03*
X83598Y49225D02*
D03*
X83886Y49514D02*
D03*
X83598Y48438D02*
D03*
X83886Y48150D02*
D03*
X17744Y16942D02*
D03*
X16957Y16154D02*
D03*
X16170Y16942D02*
D03*
X16957Y17729D02*
D03*
X17639Y16548D02*
D03*
X17351Y16260D02*
D03*
X17639Y17336D02*
D03*
X17351Y17624D02*
D03*
X16275Y17336D02*
D03*
X16563Y17624D02*
D03*
X16275Y16548D02*
D03*
X16563Y16260D02*
D03*
X102303Y90527D02*
D03*
X103336Y91560D02*
D03*
X104370Y90527D02*
D03*
X103336Y89493D02*
D03*
X102442Y91043D02*
D03*
X102820Y91422D02*
D03*
X102442Y90010D02*
D03*
X102820Y89632D02*
D03*
X104231Y90010D02*
D03*
X103853Y89632D02*
D03*
X104232Y91043D02*
D03*
X103853Y91421D02*
D03*
X70807Y90527D02*
D03*
X71840Y91560D02*
D03*
X72874Y90527D02*
D03*
X71840Y89493D02*
D03*
X70946Y91043D02*
D03*
X71324Y91422D02*
D03*
X70946Y90010D02*
D03*
X71324Y89632D02*
D03*
X72735Y90010D02*
D03*
X72357Y89632D02*
D03*
X72735Y91043D02*
D03*
X72357Y91421D02*
D03*
X102302Y122018D02*
D03*
X103336Y123051D02*
D03*
X104369Y122018D02*
D03*
X103336Y120984D02*
D03*
X102441Y122534D02*
D03*
X102819Y122913D02*
D03*
X102441Y121501D02*
D03*
X102819Y121123D02*
D03*
X104231Y121501D02*
D03*
X103852Y121123D02*
D03*
X104231Y122534D02*
D03*
X103852Y122912D02*
D03*
X70807Y122023D02*
D03*
X71840Y123056D02*
D03*
X72874Y122023D02*
D03*
X71840Y120989D02*
D03*
X70946Y122539D02*
D03*
X71324Y122918D02*
D03*
X70946Y121506D02*
D03*
X71324Y121128D02*
D03*
X72735Y121506D02*
D03*
X72357Y121128D02*
D03*
X72735Y122539D02*
D03*
X72357Y122918D02*
D03*
X85724Y77531D02*
D03*
X84936Y76743D02*
D03*
X84149Y77531D02*
D03*
X84936Y78318D02*
D03*
X85618Y77137D02*
D03*
X85330Y76849D02*
D03*
X85618Y77924D02*
D03*
X85330Y78213D02*
D03*
X84254Y77924D02*
D03*
X84543Y78213D02*
D03*
X84254Y77137D02*
D03*
X84543Y76849D02*
D03*
X135122Y60037D02*
D03*
X134335Y59250D02*
D03*
X133548Y60037D02*
D03*
X134335Y60824D02*
D03*
X135017Y59643D02*
D03*
X134729Y59355D02*
D03*
X135017Y60431D02*
D03*
X134729Y60719D02*
D03*
X133653Y60431D02*
D03*
X133941Y60719D02*
D03*
X133653Y59643D02*
D03*
X133941Y59355D02*
D03*
X139393Y48341D02*
D03*
X138606Y49128D02*
D03*
X139393Y49916D02*
D03*
X140181Y49128D02*
D03*
X139000Y48447D02*
D03*
X138711Y48735D02*
D03*
X139787Y48447D02*
D03*
X140075Y48735D02*
D03*
X139787Y49810D02*
D03*
X140075Y49522D02*
D03*
X139000Y49810D02*
D03*
X138711Y49522D02*
D03*
X139393Y31806D02*
D03*
X138606Y32593D02*
D03*
X139393Y33380D02*
D03*
X140181Y32593D02*
D03*
X139000Y31911D02*
D03*
X138711Y32199D02*
D03*
X139787Y31911D02*
D03*
X140075Y32199D02*
D03*
X139787Y33275D02*
D03*
X140075Y32987D02*
D03*
X139000Y33275D02*
D03*
X138711Y32987D02*
D03*
X155929Y31806D02*
D03*
X155141Y32593D02*
D03*
X155929Y33380D02*
D03*
X156716Y32593D02*
D03*
X155535Y31911D02*
D03*
X155247Y32199D02*
D03*
X156323Y31911D02*
D03*
X156611Y32199D02*
D03*
X156323Y33275D02*
D03*
X156611Y32987D02*
D03*
X155535Y33275D02*
D03*
X155247Y32987D02*
D03*
X155929Y48341D02*
D03*
X155141Y49128D02*
D03*
X155929Y49916D02*
D03*
X156716Y49128D02*
D03*
X155535Y48447D02*
D03*
X155247Y48735D02*
D03*
X156323Y48447D02*
D03*
X156611Y48735D02*
D03*
X156323Y49810D02*
D03*
X156611Y49522D02*
D03*
X155535Y49810D02*
D03*
X155247Y49522D02*
D03*
X134223Y16338D02*
D03*
X133436Y15551D02*
D03*
X132649Y16338D02*
D03*
X133436Y17126D02*
D03*
X134118Y15944D02*
D03*
X133830Y15656D02*
D03*
X134118Y16732D02*
D03*
X133830Y17020D02*
D03*
X132754Y16732D02*
D03*
X133042Y17020D02*
D03*
X132754Y15944D02*
D03*
X133042Y15656D02*
D03*
X117294D02*
D03*
X117006Y15944D02*
D03*
X117294Y17020D02*
D03*
X117006Y16732D02*
D03*
X118082Y17020D02*
D03*
X118370Y16732D02*
D03*
X118082Y15656D02*
D03*
X118370Y15944D02*
D03*
X117688Y17126D02*
D03*
X116901Y16338D02*
D03*
X117688Y15551D02*
D03*
X118475Y16338D02*
D03*
X133042Y31404D02*
D03*
X132754Y31693D02*
D03*
X133042Y32768D02*
D03*
X132754Y32480D02*
D03*
X133830Y32768D02*
D03*
X134118Y32480D02*
D03*
X133830Y31404D02*
D03*
X134118Y31693D02*
D03*
X133436Y32874D02*
D03*
X132649Y32086D02*
D03*
X133436Y31299D02*
D03*
X134223Y32086D02*
D03*
X113923Y16144D02*
D03*
X113136Y15357D02*
D03*
X112349Y16144D02*
D03*
X113136Y16932D02*
D03*
X113818Y15751D02*
D03*
X113530Y15463D02*
D03*
X113818Y16538D02*
D03*
X113530Y16826D02*
D03*
X112454Y16538D02*
D03*
X112742Y16826D02*
D03*
X112454Y15751D02*
D03*
X112742Y15463D02*
D03*
X96994D02*
D03*
X96706Y15751D02*
D03*
X96994Y16826D02*
D03*
X96706Y16538D02*
D03*
X97782Y16826D02*
D03*
X98070Y16538D02*
D03*
X97782Y15463D02*
D03*
X98070Y15751D02*
D03*
X97388Y16932D02*
D03*
X96601Y16144D02*
D03*
X97388Y15357D02*
D03*
X98175Y16144D02*
D03*
X112742Y31211D02*
D03*
X112454Y31499D02*
D03*
X112742Y32574D02*
D03*
X112454Y32286D02*
D03*
X113530Y32574D02*
D03*
X113818Y32286D02*
D03*
X113530Y31211D02*
D03*
X113818Y31499D02*
D03*
X113136Y32680D02*
D03*
X112349Y31893D02*
D03*
X113136Y31105D02*
D03*
X113923Y31893D02*
D03*
X23688Y64179D02*
D03*
X23309Y63800D02*
D03*
X21898Y64179D02*
D03*
X22276Y63800D02*
D03*
X21898Y65212D02*
D03*
X22276Y65590D02*
D03*
X23688Y65212D02*
D03*
X23309Y65590D02*
D03*
X21759Y64695D02*
D03*
X22793Y63662D02*
D03*
X23826Y64695D02*
D03*
X22793Y65729D02*
D03*
X114735Y107823D02*
D03*
X115523Y108610D02*
D03*
X116310Y107823D02*
D03*
X115523Y107035D02*
D03*
X114841Y108217D02*
D03*
X115129Y108505D02*
D03*
X114841Y107429D02*
D03*
X115129Y107141D02*
D03*
X116205Y107429D02*
D03*
X115917Y107141D02*
D03*
X116205Y108217D02*
D03*
X115917Y108505D02*
D03*
X115905Y124938D02*
D03*
X116193Y124650D02*
D03*
X115905Y123574D02*
D03*
X116193Y123862D02*
D03*
X115117Y123574D02*
D03*
X114829Y123862D02*
D03*
X115117Y124938D02*
D03*
X114829Y124650D02*
D03*
X115511Y123469D02*
D03*
X116298Y124256D02*
D03*
X115511Y125043D02*
D03*
X114724Y124256D02*
D03*
X152125Y108402D02*
D03*
X152413Y108114D02*
D03*
X152125Y107039D02*
D03*
X152413Y107327D02*
D03*
X151338Y107039D02*
D03*
X151050Y107327D02*
D03*
X151338Y108402D02*
D03*
X151050Y108114D02*
D03*
X151732Y106933D02*
D03*
X152519Y107720D02*
D03*
X151732Y108508D02*
D03*
X150944Y107720D02*
D03*
Y124256D02*
D03*
X151732Y125043D02*
D03*
X152519Y124256D02*
D03*
X151732Y123469D02*
D03*
X151050Y124650D02*
D03*
X151338Y124938D02*
D03*
X151050Y123862D02*
D03*
X151338Y123574D02*
D03*
X152413Y123862D02*
D03*
X152125Y123574D02*
D03*
X152413Y124650D02*
D03*
X152125Y124938D02*
D03*
X91321Y66716D02*
D03*
X90534Y67504D02*
D03*
X91321Y68291D02*
D03*
X92109Y67504D02*
D03*
X90928Y66822D02*
D03*
X90639Y67110D02*
D03*
X91715Y66822D02*
D03*
X92003Y67110D02*
D03*
X91715Y68185D02*
D03*
X92003Y67897D02*
D03*
X90928Y68185D02*
D03*
X90639Y67897D02*
D03*
X91321Y50181D02*
D03*
X90534Y50968D02*
D03*
X91321Y51756D02*
D03*
X92109Y50968D02*
D03*
X90928Y50286D02*
D03*
X90639Y50574D02*
D03*
X91715Y50286D02*
D03*
X92003Y50574D02*
D03*
X91715Y51650D02*
D03*
X92003Y51362D02*
D03*
X90928Y51650D02*
D03*
X90639Y51362D02*
D03*
X107857Y50181D02*
D03*
X107069Y50968D02*
D03*
X107857Y51756D02*
D03*
X108644Y50968D02*
D03*
X107463Y50286D02*
D03*
X107175Y50574D02*
D03*
X108250Y50286D02*
D03*
X108539Y50574D02*
D03*
X108250Y51650D02*
D03*
X108539Y51362D02*
D03*
X107463Y51650D02*
D03*
X107175Y51362D02*
D03*
X107857Y66716D02*
D03*
X107069Y67504D02*
D03*
X107857Y68291D02*
D03*
X108644Y67504D02*
D03*
X107463Y66822D02*
D03*
X107175Y67110D02*
D03*
X108250Y66822D02*
D03*
X108539Y67110D02*
D03*
X108250Y68185D02*
D03*
X108539Y67897D02*
D03*
X107463Y68185D02*
D03*
X107175Y67897D02*
D03*
X150680Y42791D02*
D03*
X151058Y42412D02*
D03*
X150541Y43307D02*
D03*
X150680Y43824D02*
D03*
X151058Y44202D02*
D03*
X151575Y42274D02*
D03*
X152091Y42412D02*
D03*
X152470Y42791D02*
D03*
X152091Y44202D02*
D03*
X151575Y44341D02*
D03*
X152608Y43307D02*
D03*
X152470Y43824D02*
D03*
X132963Y54602D02*
D03*
X133342Y54223D02*
D03*
X132825Y55118D02*
D03*
X132963Y55635D02*
D03*
X133342Y56013D02*
D03*
X133858Y54085D02*
D03*
X134375Y54223D02*
D03*
X134753Y54602D02*
D03*
X134375Y56013D02*
D03*
X133858Y56152D02*
D03*
X134892Y55118D02*
D03*
X134753Y55635D02*
D03*
X40444Y113657D02*
D03*
X40822Y113278D02*
D03*
X40305Y114173D02*
D03*
X40444Y114690D02*
D03*
X40822Y115068D02*
D03*
X41339Y113140D02*
D03*
X41855Y113278D02*
D03*
X42233Y113657D02*
D03*
X41855Y115068D02*
D03*
X41339Y115207D02*
D03*
X42372Y114173D02*
D03*
X42234Y114690D02*
D03*
X83751Y11294D02*
D03*
X84129Y10916D02*
D03*
X83612Y11811D02*
D03*
X83751Y12328D02*
D03*
X84129Y12706D02*
D03*
X84646Y10778D02*
D03*
X85162Y10916D02*
D03*
X85541Y11294D02*
D03*
X85162Y12706D02*
D03*
X84646Y12844D02*
D03*
X85679Y11811D02*
D03*
X85541Y12328D02*
D03*
X85719Y93972D02*
D03*
X86098Y93593D02*
D03*
X85581Y94488D02*
D03*
X85719Y95005D02*
D03*
X86097Y95383D02*
D03*
X86614Y93455D02*
D03*
X87131Y93593D02*
D03*
X87509Y93972D02*
D03*
X87131Y95383D02*
D03*
X86614Y95522D02*
D03*
X87648Y94488D02*
D03*
X87509Y95005D02*
D03*
X140837Y88066D02*
D03*
X141216Y87688D02*
D03*
X140699Y88583D02*
D03*
X140837Y89099D02*
D03*
X141216Y89478D02*
D03*
X141732Y87549D02*
D03*
X142249Y87688D02*
D03*
X142627Y88066D02*
D03*
X142249Y89478D02*
D03*
X141732Y89616D02*
D03*
X142766Y88583D02*
D03*
X142627Y89099D02*
D03*
X127058Y34917D02*
D03*
X127436Y34538D02*
D03*
X126919Y35433D02*
D03*
X127058Y35950D02*
D03*
X127436Y36328D02*
D03*
X127953Y34400D02*
D03*
X128469Y34538D02*
D03*
X128848Y34917D02*
D03*
X128469Y36328D02*
D03*
X127953Y36467D02*
D03*
X128986Y35433D02*
D03*
X128848Y35950D02*
D03*
X28633Y34917D02*
D03*
X29011Y34538D02*
D03*
X28494Y35433D02*
D03*
X28633Y35950D02*
D03*
X29011Y36328D02*
D03*
X29528Y34400D02*
D03*
X30044Y34538D02*
D03*
X30422Y34917D02*
D03*
X30044Y36328D02*
D03*
X29528Y36467D02*
D03*
X30561Y35433D02*
D03*
X30423Y35950D02*
D03*
X22727Y84129D02*
D03*
X23106Y83751D02*
D03*
X22589Y84646D02*
D03*
X22727Y85162D02*
D03*
X23105Y85541D02*
D03*
X23622Y83612D02*
D03*
X24139Y83751D02*
D03*
X24517Y84129D02*
D03*
X24139Y85541D02*
D03*
X23622Y85679D02*
D03*
X24656Y84646D02*
D03*
X24517Y85162D02*
D03*
X105404Y62476D02*
D03*
X105783Y62097D02*
D03*
X105266Y62992D02*
D03*
X105404Y63509D02*
D03*
X105782Y63887D02*
D03*
X106299Y61959D02*
D03*
X106816Y62097D02*
D03*
X107194Y62476D02*
D03*
X106816Y63887D02*
D03*
X106299Y64026D02*
D03*
X107333Y62992D02*
D03*
X107194Y63509D02*
D03*
X58160Y52633D02*
D03*
X58539Y52255D02*
D03*
X58022Y53150D02*
D03*
X58160Y53666D02*
D03*
X58538Y54045D02*
D03*
X59055Y52116D02*
D03*
X59572Y52255D02*
D03*
X59950Y52633D02*
D03*
X59572Y54044D02*
D03*
X59055Y54183D02*
D03*
X60089Y53150D02*
D03*
X59950Y53666D02*
D03*
X162491Y80192D02*
D03*
X162869Y79814D02*
D03*
X162352Y80709D02*
D03*
X162491Y81225D02*
D03*
X162869Y81604D02*
D03*
X163386Y79675D02*
D03*
X163902Y79814D02*
D03*
X164281Y80192D02*
D03*
X163902Y81604D02*
D03*
X163386Y81742D02*
D03*
X164419Y80709D02*
D03*
X164281Y81225D02*
D03*
X151389Y4483D02*
D03*
X151767Y4105D02*
D03*
X151250Y5000D02*
D03*
X151389Y5517D02*
D03*
X151767Y5895D02*
D03*
X152283Y3967D02*
D03*
X152800Y4105D02*
D03*
X153178Y4483D02*
D03*
X152800Y5895D02*
D03*
X152283Y6033D02*
D03*
X153317Y5000D02*
D03*
X153178Y5517D02*
D03*
X10916Y7357D02*
D03*
X11294Y6979D02*
D03*
X10778Y7874D02*
D03*
X10916Y8391D02*
D03*
X11294Y8769D02*
D03*
X11811Y6841D02*
D03*
X12328Y6979D02*
D03*
X12706Y7357D02*
D03*
X12328Y8769D02*
D03*
X11811Y8907D02*
D03*
X12844Y7874D02*
D03*
X12706Y8391D02*
D03*
X99499Y131373D02*
D03*
X99877Y130995D02*
D03*
X99360Y131890D02*
D03*
X99499Y132406D02*
D03*
X99877Y132785D02*
D03*
X100394Y130856D02*
D03*
X100910Y130995D02*
D03*
X101289Y131373D02*
D03*
X100910Y132785D02*
D03*
X100394Y132923D02*
D03*
X101427Y131890D02*
D03*
X101289Y132407D02*
D03*
X156585Y133342D02*
D03*
X156964Y132963D02*
D03*
X156447Y133858D02*
D03*
X156585Y134375D02*
D03*
X156964Y134753D02*
D03*
X157480Y132825D02*
D03*
X157997Y132963D02*
D03*
X158375Y133342D02*
D03*
X157997Y134753D02*
D03*
X157480Y134892D02*
D03*
X158514Y133858D02*
D03*
X158375Y134375D02*
D03*
D42*
X3937Y133858D02*
D03*
X103336Y90527D02*
D03*
X71840D02*
D03*
X103336Y122018D02*
D03*
X71840Y122023D02*
D03*
X22793Y64695D02*
D03*
X151575Y43307D02*
D03*
X133858Y55118D02*
D03*
X41339Y114173D02*
D03*
X84646Y11811D02*
D03*
X86614Y94488D02*
D03*
X141732Y88583D02*
D03*
X127953Y35433D02*
D03*
X29528D02*
D03*
X23622Y84646D02*
D03*
X106299Y62992D02*
D03*
X59055Y53150D02*
D03*
X163386Y80709D02*
D03*
X152283Y5000D02*
D03*
X11811Y7874D02*
D03*
X100394Y131890D02*
D03*
X157480Y133858D02*
D03*
D43*
X164370Y38268D02*
D03*
X164380Y62864D02*
D03*
X164360Y102243D02*
D03*
X164350Y129814D02*
D03*
D44*
X167520Y40354D02*
D03*
X167530Y64951D02*
D03*
X167510Y104330D02*
D03*
X167500Y131901D02*
D03*
D45*
X164961Y40354D02*
D03*
X164971Y64951D02*
D03*
X164951Y104330D02*
D03*
X164941Y131901D02*
D03*
D46*
X167520Y41831D02*
D03*
Y38878D02*
D03*
X167530Y66427D02*
D03*
Y63474D02*
D03*
X167510Y105806D02*
D03*
Y102853D02*
D03*
X167500Y133377D02*
D03*
Y130424D02*
D03*
D47*
X54331Y122047D02*
D03*
X62315D02*
D03*
X150254Y59737D02*
D03*
X100232Y78543D02*
D03*
X95545Y89779D02*
D03*
X80545Y122700D02*
D03*
X143781Y32583D02*
D03*
X151781Y49128D02*
D03*
X119094Y32165D02*
D03*
X134294Y20715D02*
D03*
X116884Y19445D02*
D03*
X126064Y21855D02*
D03*
X98794Y31971D02*
D03*
X113994Y20521D02*
D03*
X96584Y19251D02*
D03*
X105764Y21661D02*
D03*
X95709Y50958D02*
D03*
X103709Y67504D02*
D03*
D48*
X8780Y18504D02*
D03*
X2756D02*
D03*
X8780Y11614D02*
D03*
X2756D02*
D03*
D49*
X70882Y3240D02*
D03*
X66882D02*
D03*
X68882D02*
D03*
X165541Y96440D02*
D03*
Y98440D02*
D03*
X165531Y123995D02*
D03*
Y125995D02*
D03*
X3543Y35402D02*
D03*
Y39402D02*
D03*
Y37402D02*
D03*
X165551Y32465D02*
D03*
Y34465D02*
D03*
X165561Y57061D02*
D03*
Y59061D02*
D03*
X3543Y67142D02*
D03*
Y65142D02*
D03*
Y57906D02*
D03*
Y55906D02*
D03*
X7630Y3240D02*
D03*
X3630D02*
D03*
X5630D02*
D03*
X28714D02*
D03*
X24714D02*
D03*
X26714D02*
D03*
X49798D02*
D03*
X45798D02*
D03*
X47798D02*
D03*
X91966D02*
D03*
X87966D02*
D03*
X89966D02*
D03*
X113050D02*
D03*
X109050D02*
D03*
X111050D02*
D03*
D50*
X84280Y16942D02*
D03*
X20107Y48832D02*
D03*
X84280D02*
D03*
X16957Y16942D02*
D03*
X84936Y77531D02*
D03*
X134335Y60037D02*
D03*
X139393Y49128D02*
D03*
Y32593D02*
D03*
X155929D02*
D03*
Y49128D02*
D03*
X133436Y16338D02*
D03*
X117688D02*
D03*
X133436Y32086D02*
D03*
X113136Y16144D02*
D03*
X97388D02*
D03*
X113136Y31893D02*
D03*
X146731Y74793D02*
D03*
Y93793D02*
D03*
X120731Y76043D02*
D03*
Y92543D02*
D03*
X115511Y124256D02*
D03*
X115523Y107823D02*
D03*
X151732Y107720D02*
D03*
Y124256D02*
D03*
X91321Y67504D02*
D03*
Y50968D02*
D03*
X107857D02*
D03*
Y67504D02*
D03*
D51*
X117688Y32086D02*
D03*
X97388Y31893D02*
D03*
D52*
X149731Y88543D02*
D03*
X144731Y75293D02*
D03*
Y94293D02*
D03*
D53*
X25660Y119742D02*
D03*
X26660D02*
D03*
X27660D02*
D03*
X28660D02*
D03*
X29660D02*
D03*
X34660D02*
D03*
X33660D02*
D03*
X32660D02*
D03*
X31660D02*
D03*
X30660D02*
D03*
X40660D02*
D03*
X41660D02*
D03*
X42660D02*
D03*
X43660D02*
D03*
X44660D02*
D03*
X39660D02*
D03*
X38660D02*
D03*
X37660D02*
D03*
X36660D02*
D03*
X35660D02*
D03*
X26660Y120742D02*
D03*
X27660D02*
D03*
X28660D02*
D03*
X29660D02*
D03*
X34660D02*
D03*
X33660D02*
D03*
X32660D02*
D03*
X31660D02*
D03*
X30660D02*
D03*
X40660D02*
D03*
X41660D02*
D03*
X42660D02*
D03*
X43660D02*
D03*
X44660D02*
D03*
X39660D02*
D03*
X38660D02*
D03*
X37660D02*
D03*
X36660D02*
D03*
X35660D02*
D03*
X143102Y123783D02*
D03*
X142102Y124783D02*
D03*
Y123783D02*
D03*
X141102Y124783D02*
D03*
Y123783D02*
D03*
X140102Y124783D02*
D03*
Y123783D02*
D03*
X139102Y124783D02*
D03*
Y123783D02*
D03*
X138102Y124783D02*
D03*
Y123783D02*
D03*
X123062Y123764D02*
D03*
X122062Y124764D02*
D03*
Y123764D02*
D03*
X121062Y124764D02*
D03*
Y123764D02*
D03*
X120062Y124764D02*
D03*
Y123764D02*
D03*
X119062Y124764D02*
D03*
Y123764D02*
D03*
X118062Y124764D02*
D03*
Y123764D02*
D03*
X131897Y124783D02*
D03*
X132897Y123783D02*
D03*
Y124783D02*
D03*
X133897Y123783D02*
D03*
Y124783D02*
D03*
X134897Y123783D02*
D03*
Y124783D02*
D03*
D54*
X25660Y120742D02*
D03*
X143102Y124783D02*
D03*
X123062Y124764D02*
D03*
X131897Y123783D02*
D03*
D55*
X48060Y95942D02*
D03*
Y96942D02*
D03*
Y97942D02*
D03*
Y98942D02*
D03*
Y99942D02*
D03*
Y104942D02*
D03*
Y103942D02*
D03*
Y102942D02*
D03*
Y101942D02*
D03*
Y100942D02*
D03*
Y110942D02*
D03*
Y111942D02*
D03*
Y112942D02*
D03*
Y113942D02*
D03*
Y114942D02*
D03*
Y109942D02*
D03*
Y108942D02*
D03*
Y107942D02*
D03*
Y106942D02*
D03*
Y105942D02*
D03*
X47060Y96942D02*
D03*
Y97942D02*
D03*
Y98942D02*
D03*
Y99942D02*
D03*
Y104942D02*
D03*
Y103942D02*
D03*
Y102942D02*
D03*
Y101942D02*
D03*
Y100942D02*
D03*
Y110942D02*
D03*
Y111942D02*
D03*
Y112942D02*
D03*
Y113942D02*
D03*
Y114942D02*
D03*
Y109942D02*
D03*
Y108942D02*
D03*
Y107942D02*
D03*
Y106942D02*
D03*
Y105942D02*
D03*
X21860Y115742D02*
D03*
Y114742D02*
D03*
Y113742D02*
D03*
Y112742D02*
D03*
Y111742D02*
D03*
Y106742D02*
D03*
Y107742D02*
D03*
Y108742D02*
D03*
Y109742D02*
D03*
Y110742D02*
D03*
Y100742D02*
D03*
Y99742D02*
D03*
Y98742D02*
D03*
Y97742D02*
D03*
Y96742D02*
D03*
Y101742D02*
D03*
Y102742D02*
D03*
Y103742D02*
D03*
Y104742D02*
D03*
Y105742D02*
D03*
X22860Y114742D02*
D03*
Y113742D02*
D03*
Y112742D02*
D03*
Y111742D02*
D03*
Y106742D02*
D03*
Y107742D02*
D03*
Y108742D02*
D03*
Y109742D02*
D03*
Y110742D02*
D03*
Y100742D02*
D03*
Y99742D02*
D03*
Y98742D02*
D03*
Y97742D02*
D03*
Y96742D02*
D03*
Y101742D02*
D03*
Y102742D02*
D03*
Y103742D02*
D03*
Y104742D02*
D03*
Y105742D02*
D03*
X115117Y121500D02*
D03*
D56*
X47060Y95942D02*
D03*
X22860Y115742D02*
D03*
X115117Y120500D02*
D03*
D57*
X6614Y89606D02*
D03*
X1710Y79740D02*
D03*
X3750Y120800D02*
D03*
X3456Y76606D02*
D03*
X1740Y126170D02*
D03*
X1720Y124090D02*
D03*
X6102Y99803D02*
D03*
X3000Y90120D02*
D03*
X8194Y77600D02*
D03*
X148622Y112894D02*
D03*
X148190Y112160D02*
D03*
X72185Y86645D02*
D03*
X69485D02*
D03*
X71684Y87145D02*
D03*
X68984D02*
D03*
X71185Y87645D02*
D03*
X68485D02*
D03*
X70684Y88145D02*
D03*
X67984D02*
D03*
X70184Y88645D02*
D03*
X67484D02*
D03*
X61782Y98071D02*
D03*
X96909Y109006D02*
D03*
X145061Y112598D02*
D03*
X82950Y19060D02*
D03*
X9600Y24720D02*
D03*
X9050D02*
D03*
X8500D02*
D03*
X100733Y20750D02*
D03*
X101850D02*
D03*
X82450Y19599D02*
D03*
X81949Y20100D02*
D03*
X119300Y60700D02*
D03*
X68950Y78850D02*
D03*
X10650Y55477D02*
D03*
X10650Y56134D02*
D03*
X17750Y69150D02*
D03*
X10650Y69100D02*
D03*
X112992Y9055D02*
D03*
X148120Y108800D02*
D03*
X148530Y108390D02*
D03*
X49307Y68803D02*
D03*
X49450Y67969D02*
D03*
X48090Y68800D02*
D03*
X47250Y69390D02*
D03*
X46090D02*
D03*
X46670D02*
D03*
X93800Y107840D02*
D03*
Y107260D02*
D03*
X95980Y109020D02*
D03*
Y109600D02*
D03*
X131115Y121744D02*
D03*
X130705Y122154D02*
D03*
X130295Y122564D02*
D03*
X129885Y122975D02*
D03*
X62432Y97628D02*
D03*
X150611Y81528D02*
D03*
Y79028D02*
D03*
X151192Y81528D02*
D03*
Y79028D02*
D03*
X151771Y81528D02*
D03*
Y79028D02*
D03*
X152352Y81528D02*
D03*
Y79028D02*
D03*
X152931Y81528D02*
D03*
Y79028D02*
D03*
X153511Y81528D02*
D03*
Y79028D02*
D03*
X154092Y81528D02*
D03*
Y79028D02*
D03*
X154671Y81528D02*
D03*
Y79028D02*
D03*
X155252Y81528D02*
D03*
Y79028D02*
D03*
X146732Y111628D02*
D03*
X131732Y109028D02*
D03*
Y110928D02*
D03*
X83300Y19640D02*
D03*
X133750Y109000D02*
D03*
Y111750D02*
D03*
X9300Y77953D02*
D03*
X98500Y20750D02*
D03*
X99617D02*
D03*
X145571Y113484D02*
D03*
Y117984D02*
D03*
X146819Y123050D02*
D03*
X47552Y61752D02*
D03*
X48552D02*
D03*
X47533Y64533D02*
D03*
X48300Y66300D02*
D03*
X43500Y66700D02*
D03*
X39963Y66863D02*
D03*
X35463D02*
D03*
X39463Y64563D02*
D03*
X31559Y64441D02*
D03*
X32059Y66809D02*
D03*
X27559Y66841D02*
D03*
X65461Y126461D02*
D03*
X57291Y126591D02*
D03*
X56791Y124291D02*
D03*
X61291Y124259D02*
D03*
X64961Y124139D02*
D03*
X79950Y76850D02*
D03*
Y75900D02*
D03*
X80100Y60200D02*
D03*
Y61350D02*
D03*
X78679Y91571D02*
D03*
X75613Y101413D02*
D03*
X77913Y100913D02*
D03*
X126454Y90354D02*
D03*
X124100Y86350D02*
D03*
X126350Y85850D02*
D03*
X77913Y105413D02*
D03*
X126430Y82480D02*
D03*
X97450Y78800D02*
D03*
X96400D02*
D03*
X95500D02*
D03*
X124100Y78480D02*
D03*
X126450Y77980D02*
D03*
X108050Y74450D02*
D03*
X107050D02*
D03*
X106050D02*
D03*
X108050Y77362D02*
D03*
X107062D02*
D03*
X106062D02*
D03*
X117836Y42947D02*
D03*
X114017Y45073D02*
D03*
X139017Y26648D02*
D03*
X103308Y53459D02*
D03*
Y54029D02*
D03*
X78072Y65191D02*
D03*
X77669Y64788D02*
D03*
X102993Y57593D02*
D03*
X122245Y5270D02*
D03*
X136222Y5230D02*
D03*
X135710Y11687D02*
D03*
X141694Y14640D02*
D03*
X138584Y24482D02*
D03*
X140434Y20703D02*
D03*
X96537Y26215D02*
D03*
X141497Y18695D02*
D03*
X140946Y20152D02*
D03*
X144112Y81687D02*
D03*
X146143Y77789D02*
D03*
X154662Y106506D02*
D03*
X144682Y81687D02*
D03*
X146713Y77789D02*
D03*
X155065Y106909D02*
D03*
D58*
X2598Y71693D02*
D03*
X5654Y78738D02*
D03*
X3412Y79154D02*
D03*
X2654Y70138D02*
D03*
X164803Y60827D02*
D03*
X165748D02*
D03*
X158661Y95433D02*
D03*
Y94764D02*
D03*
X6350Y21200D02*
D03*
X6337Y20842D02*
D03*
X8052Y67165D02*
D03*
X8071Y57888D02*
D03*
X3937Y30906D02*
D03*
X152903Y34438D02*
D03*
X153497D02*
D03*
X159701Y123287D02*
D03*
X159646Y95470D02*
D03*
X159701Y56161D02*
D03*
Y31555D02*
D03*
X162011Y41142D02*
D03*
Y65748D02*
D03*
X159656Y103530D02*
D03*
X160630Y130508D02*
D03*
Y41736D02*
D03*
Y66342D02*
D03*
Y104925D02*
D03*
Y132484D02*
D03*
X150900Y117900D02*
D03*
X150700Y123000D02*
D03*
X162008Y126772D02*
D03*
X160984D02*
D03*
D59*
X5200Y82350D02*
D03*
X6100Y81400D02*
D03*
X11791Y33514D02*
D03*
X117520Y85236D02*
D03*
X89630Y130280D02*
D03*
X43890Y66090D02*
D03*
X44110Y66750D02*
D03*
X98200Y88200D02*
D03*
X98584D02*
D03*
X85000Y98900D02*
D03*
X87598Y99114D02*
D03*
X85433D02*
D03*
X76575D02*
D03*
X78051D02*
D03*
X78450Y98850D02*
D03*
X80768Y95581D02*
D03*
Y91081D02*
D03*
X79606Y130276D02*
D03*
X79055Y129724D02*
D03*
X79291Y130630D02*
D03*
X94252Y120118D02*
D03*
X95312D02*
D03*
X96024Y130787D02*
D03*
X96063Y129882D02*
D03*
X77008Y129331D02*
D03*
X77480Y129606D02*
D03*
X117402Y87559D02*
D03*
X117582Y87071D02*
D03*
X85616Y130325D02*
D03*
X87616D02*
D03*
X92000Y120000D02*
D03*
X91000D02*
D03*
X90000D02*
D03*
X89000D02*
D03*
X88000Y120000D02*
D03*
X87000D02*
D03*
X86000Y120000D02*
D03*
X85000D02*
D03*
X133780Y122628D02*
D03*
X129360Y122598D02*
D03*
X144872Y92047D02*
D03*
X146201Y108484D02*
D03*
X108445Y89764D02*
D03*
X96191Y96506D02*
D03*
X92461Y92510D02*
D03*
X92559Y96968D02*
D03*
X80502Y93573D02*
D03*
X107953Y89321D02*
D03*
X94528Y94035D02*
D03*
Y93504D02*
D03*
Y93022D02*
D03*
X93346Y94980D02*
D03*
X93661Y95512D02*
D03*
X94262Y96496D02*
D03*
X93947Y96014D02*
D03*
X93041Y94459D02*
D03*
X97441Y87500D02*
D03*
X98425D02*
D03*
X90384Y80846D02*
D03*
X64441Y129232D02*
D03*
X56272Y129331D02*
D03*
X70866Y132677D02*
D03*
X69882D02*
D03*
X68898D02*
D03*
X67913D02*
D03*
X66929D02*
D03*
X65945D02*
D03*
X64961D02*
D03*
X63976D02*
D03*
X62992D02*
D03*
X62008D02*
D03*
X61024D02*
D03*
X60039D02*
D03*
X59055D02*
D03*
X58071D02*
D03*
X57087D02*
D03*
X56102D02*
D03*
X153740Y113583D02*
D03*
Y114567D02*
D03*
Y115551D02*
D03*
Y116535D02*
D03*
Y117520D02*
D03*
Y118504D02*
D03*
Y119488D02*
D03*
Y120472D02*
D03*
Y121457D02*
D03*
Y122441D02*
D03*
X97933Y97047D02*
D03*
X106299Y87500D02*
D03*
X105315D02*
D03*
X104331D02*
D03*
X103346D02*
D03*
X102362D02*
D03*
X101378D02*
D03*
X100394D02*
D03*
X99409D02*
D03*
X75787Y91535D02*
D03*
X72343Y100886D02*
D03*
X69488Y90650D02*
D03*
Y91634D02*
D03*
Y92618D02*
D03*
Y93602D02*
D03*
Y94587D02*
D03*
Y95571D02*
D03*
Y96555D02*
D03*
Y97539D02*
D03*
X69488Y100492D02*
D03*
Y101476D02*
D03*
Y102461D02*
D03*
Y103445D02*
D03*
Y104429D02*
D03*
Y105413D02*
D03*
Y106398D02*
D03*
Y107382D02*
D03*
X117224Y91142D02*
D03*
Y90157D02*
D03*
Y89173D02*
D03*
Y88189D02*
D03*
X120835Y85827D02*
D03*
Y77953D02*
D03*
X117224Y77362D02*
D03*
Y78346D02*
D03*
Y79331D02*
D03*
Y80315D02*
D03*
Y81299D02*
D03*
Y82283D02*
D03*
Y83268D02*
D03*
Y84252D02*
D03*
X32087Y61122D02*
D03*
X40650Y58711D02*
D03*
X39665D02*
D03*
X38681D02*
D03*
X37697D02*
D03*
X36713D02*
D03*
X35728D02*
D03*
X34744D02*
D03*
X33760D02*
D03*
X32776D02*
D03*
X31791D02*
D03*
X30807D02*
D03*
X29823D02*
D03*
X28839D02*
D03*
X27854D02*
D03*
X26870D02*
D03*
X25886D02*
D03*
X57350Y80225D02*
D03*
X45950Y80200D02*
D03*
X57350Y79780D02*
D03*
Y79335D02*
D03*
Y78903D02*
D03*
Y78472D02*
D03*
X56170Y78479D02*
D03*
Y78910D02*
D03*
Y79341D02*
D03*
Y79787D02*
D03*
X3000Y30340D02*
D03*
X131201Y77264D02*
D03*
X132201D02*
D03*
X133201D02*
D03*
X134201D02*
D03*
X135201D02*
D03*
X136201D02*
D03*
X137201D02*
D03*
X138201D02*
D03*
X139201D02*
D03*
X140201D02*
D03*
X141201D02*
D03*
X142201D02*
D03*
X143201D02*
D03*
X144201D02*
D03*
X145201D02*
D03*
X24803Y101181D02*
D03*
X25197Y102228D02*
D03*
X25591Y103150D02*
D03*
X25984Y104262D02*
D03*
X26378Y105217D02*
D03*
X26772Y106157D02*
D03*
X27165Y107157D02*
D03*
X27559Y108157D02*
D03*
X27953Y109157D02*
D03*
X28346Y110157D02*
D03*
X28740Y111228D02*
D03*
X29134Y112205D02*
D03*
X29616Y113228D02*
D03*
X29921Y114173D02*
D03*
X30315Y114961D02*
D03*
X30709Y116289D02*
D03*
X141437Y115945D02*
D03*
X142650Y116500D02*
D03*
X142350Y117000D02*
D03*
X142950Y117500D02*
D03*
X143550Y119300D02*
D03*
X128050Y117300D02*
D03*
X127450Y116800D02*
D03*
X128650Y117900D02*
D03*
X126550Y115800D02*
D03*
X127750Y116300D02*
D03*
X39950Y60969D02*
D03*
X41634Y58711D02*
D03*
X42618D02*
D03*
X43602D02*
D03*
X44587D02*
D03*
X45571D02*
D03*
X46555D02*
D03*
X47539D02*
D03*
X48524D02*
D03*
X45400Y70750D02*
D03*
X45650Y70270D02*
D03*
X60800Y65950D02*
D03*
X61281Y65600D02*
D03*
X76950Y98850D02*
D03*
X87200Y98900D02*
D03*
X69488Y99508D02*
D03*
Y98524D02*
D03*
D60*
X3614Y45187D02*
D03*
X61300Y25600D02*
D03*
X7480Y65339D02*
D03*
Y64668D02*
D03*
X14552Y52803D02*
D03*
X27252Y14703D02*
D03*
X29251D02*
D03*
X31251D02*
D03*
X33252D02*
D03*
X34251D02*
D03*
X63252D02*
D03*
X65251D02*
D03*
X67252D02*
D03*
X69251D02*
D03*
X70251D02*
D03*
X45251D02*
D03*
X47252D02*
D03*
X52252D02*
D03*
X50251D02*
D03*
X51252D02*
D03*
X76251Y14703D02*
D03*
X77251D02*
D03*
X72251D02*
D03*
X74251D02*
D03*
X75251D02*
D03*
X30252Y14703D02*
D03*
X28252D02*
D03*
X32252D02*
D03*
X66252D02*
D03*
X64251D02*
D03*
X68252D02*
D03*
X48252D02*
D03*
X46252D02*
D03*
X49251D02*
D03*
X79251Y14703D02*
D03*
X78251D02*
D03*
X73251D02*
D03*
X14552Y38803D02*
D03*
X87752Y26203D02*
D03*
Y30203D02*
D03*
Y32203D02*
D03*
Y34203D02*
D03*
Y37203D02*
D03*
Y43203D02*
D03*
Y45203D02*
D03*
Y47203D02*
D03*
Y28203D02*
D03*
Y36203D02*
D03*
Y39203D02*
D03*
Y42203D02*
D03*
Y44203D02*
D03*
Y46203D02*
D03*
Y48203D02*
D03*
Y31203D02*
D03*
Y33203D02*
D03*
Y35203D02*
D03*
Y38203D02*
D03*
Y27203D02*
D03*
Y29203D02*
D03*
X14552Y43803D02*
D03*
Y37803D02*
D03*
Y41803D02*
D03*
Y47803D02*
D03*
Y45803D02*
D03*
Y27603D02*
D03*
X40251Y14703D02*
D03*
X42251D02*
D03*
X36251D02*
D03*
X38251D02*
D03*
X39251D02*
D03*
X58251D02*
D03*
X60251D02*
D03*
X56251D02*
D03*
X54251D02*
D03*
X55251D02*
D03*
X87752Y41203D02*
D03*
Y40203D02*
D03*
X14552Y40803D02*
D03*
Y42803D02*
D03*
Y50803D02*
D03*
Y48803D02*
D03*
Y46803D02*
D03*
Y44803D02*
D03*
X43251Y14703D02*
D03*
X41251D02*
D03*
X37251D02*
D03*
X61251D02*
D03*
X59251D02*
D03*
X57251D02*
D03*
X87752Y24203D02*
D03*
Y25203D02*
D03*
X14552Y29603D02*
D03*
Y30603D02*
D03*
Y32603D02*
D03*
Y28603D02*
D03*
Y39803D02*
D03*
Y51803D02*
D03*
Y31603D02*
D03*
Y49803D02*
D03*
X87752Y23203D02*
D03*
X14632Y83643D02*
D03*
Y85643D02*
D03*
Y87643D02*
D03*
Y89643D02*
D03*
Y91643D02*
D03*
Y93643D02*
D03*
Y95643D02*
D03*
Y99643D02*
D03*
Y101643D02*
D03*
Y103643D02*
D03*
Y105643D02*
D03*
Y107643D02*
D03*
Y109643D02*
D03*
Y111643D02*
D03*
Y113643D02*
D03*
Y117643D02*
D03*
Y119643D02*
D03*
X15378Y73248D02*
D03*
X14378D02*
D03*
X13378D02*
D03*
X12378D02*
D03*
X14632Y82643D02*
D03*
Y84643D02*
D03*
Y86643D02*
D03*
Y88643D02*
D03*
Y90643D02*
D03*
Y92643D02*
D03*
Y94643D02*
D03*
Y96643D02*
D03*
Y100643D02*
D03*
Y102643D02*
D03*
Y104643D02*
D03*
Y106643D02*
D03*
Y108643D02*
D03*
Y110643D02*
D03*
Y112643D02*
D03*
Y116643D02*
D03*
Y118643D02*
D03*
Y81643D02*
D03*
X15378Y70248D02*
D03*
X14378D02*
D03*
X14632Y120643D02*
D03*
X13378Y70248D02*
D03*
X51132Y125143D02*
D03*
X49131D02*
D03*
X47132D02*
D03*
X45132D02*
D03*
X43131D02*
D03*
X41132D02*
D03*
X39132D02*
D03*
X37132D02*
D03*
X35131D02*
D03*
X33131D02*
D03*
X31131D02*
D03*
X29132D02*
D03*
X27132D02*
D03*
X25131D02*
D03*
X23131D02*
D03*
X21131D02*
D03*
X19131D02*
D03*
X17132D02*
D03*
X15131D02*
D03*
X54131D02*
D03*
X52132D02*
D03*
X50132D02*
D03*
X48131D02*
D03*
X46132D02*
D03*
X44131D02*
D03*
X42132D02*
D03*
X40132D02*
D03*
X38131D02*
D03*
X36131D02*
D03*
X34132D02*
D03*
X32132D02*
D03*
X30131D02*
D03*
X28131D02*
D03*
X26131D02*
D03*
X24132D02*
D03*
X22132D02*
D03*
X20131D02*
D03*
X18132D02*
D03*
X12378Y70248D02*
D03*
X53131Y125143D02*
D03*
X53632Y72643D02*
D03*
X16132Y125143D02*
D03*
X53632Y118643D02*
D03*
Y116643D02*
D03*
Y114643D02*
D03*
Y112643D02*
D03*
Y110643D02*
D03*
Y108643D02*
D03*
Y106643D02*
D03*
Y104643D02*
D03*
Y102643D02*
D03*
X53706Y100671D02*
D03*
X53632Y98643D02*
D03*
Y94643D02*
D03*
Y92643D02*
D03*
Y90643D02*
D03*
Y88643D02*
D03*
Y86643D02*
D03*
Y84643D02*
D03*
Y82643D02*
D03*
Y73643D02*
D03*
Y71643D02*
D03*
Y119643D02*
D03*
Y115643D02*
D03*
Y113643D02*
D03*
Y111643D02*
D03*
Y109643D02*
D03*
Y105643D02*
D03*
Y103643D02*
D03*
Y101643D02*
D03*
Y99643D02*
D03*
Y97643D02*
D03*
Y95643D02*
D03*
Y93643D02*
D03*
Y89643D02*
D03*
Y87643D02*
D03*
Y83643D02*
D03*
Y81643D02*
D03*
Y107643D02*
D03*
Y117643D02*
D03*
Y85643D02*
D03*
Y91643D02*
D03*
Y96643D02*
D03*
Y120643D02*
D03*
Y76643D02*
D03*
X100681Y13537D02*
D03*
X99682D02*
D03*
X103681D02*
D03*
X110681D02*
D03*
X109682D02*
D03*
X107682D02*
D03*
X108681D02*
D03*
X102682D02*
D03*
X101681D02*
D03*
X105681D02*
D03*
X104682D02*
D03*
X106681D02*
D03*
X126342Y128748D02*
D03*
X124342D02*
D03*
X122342D02*
D03*
X120342D02*
D03*
X118342D02*
D03*
X146342D02*
D03*
X144342D02*
D03*
X142342D02*
D03*
X140342D02*
D03*
X138342D02*
D03*
X128342D02*
D03*
X130342D02*
D03*
X132342D02*
D03*
X134342D02*
D03*
X127342D02*
D03*
X125342D02*
D03*
X123342D02*
D03*
X121342D02*
D03*
X119342D02*
D03*
X117342D02*
D03*
X147342D02*
D03*
X145342D02*
D03*
X143342D02*
D03*
X141342D02*
D03*
X139342D02*
D03*
X137342D02*
D03*
X114342D02*
D03*
X115342D02*
D03*
X136342D02*
D03*
X116342D02*
D03*
X129342D02*
D03*
X131342D02*
D03*
X133342D02*
D03*
X135342D02*
D03*
X90941Y87993D02*
D03*
X91941D02*
D03*
X92941D02*
D03*
X93941D02*
D03*
X94941D02*
D03*
X95941D02*
D03*
X84941D02*
D03*
X85941D02*
D03*
X86941D02*
D03*
X87941D02*
D03*
X88941D02*
D03*
X89941D02*
D03*
X106241Y120493D02*
D03*
Y116493D02*
D03*
Y118493D02*
D03*
Y114493D02*
D03*
X68241Y119493D02*
D03*
Y117493D02*
D03*
Y115493D02*
D03*
Y113493D02*
D03*
X83941Y87993D02*
D03*
X91135Y124393D02*
D03*
X90135D02*
D03*
X89135D02*
D03*
X88135D02*
D03*
X87135D02*
D03*
X86135D02*
D03*
X85135D02*
D03*
X84135D02*
D03*
X83135D02*
D03*
X82135D02*
D03*
X81135D02*
D03*
X80135D02*
D03*
X95135D02*
D03*
X94135D02*
D03*
X93135D02*
D03*
X92135D02*
D03*
X82941Y87993D02*
D03*
X68241Y118493D02*
D03*
Y112493D02*
D03*
Y114493D02*
D03*
Y116493D02*
D03*
X81941Y87993D02*
D03*
X106241Y113493D02*
D03*
Y115493D02*
D03*
Y117493D02*
D03*
Y119493D02*
D03*
X80941Y87993D02*
D03*
X119531Y34437D02*
D03*
X118532D02*
D03*
X119885Y13445D02*
D03*
X120885D02*
D03*
X130885D02*
D03*
X129885D02*
D03*
X123884D02*
D03*
X128884D02*
D03*
X127885D02*
D03*
X121884D02*
D03*
X122885D02*
D03*
X125885D02*
D03*
X124885D02*
D03*
X126884D02*
D03*
X122531Y34437D02*
D03*
X121531D02*
D03*
X123532D02*
D03*
X120532D02*
D03*
X104537Y39418D02*
D03*
Y38419D02*
D03*
Y34418D02*
D03*
Y36418D02*
D03*
Y35419D02*
D03*
Y37418D02*
D03*
X88488Y65837D02*
D03*
X71732Y64043D02*
D03*
Y65043D02*
D03*
Y66043D02*
D03*
Y68043D02*
D03*
Y69043D02*
D03*
Y70043D02*
D03*
Y72043D02*
D03*
Y73043D02*
D03*
Y74043D02*
D03*
Y76043D02*
D03*
Y77043D02*
D03*
Y62043D02*
D03*
X87488Y65837D02*
D03*
X71732Y63043D02*
D03*
Y67043D02*
D03*
Y71043D02*
D03*
Y75043D02*
D03*
X137583Y52671D02*
D03*
X121231Y44543D02*
D03*
Y46512D02*
D03*
Y47496D02*
D03*
Y48480D02*
D03*
Y50449D02*
D03*
Y51433D02*
D03*
Y52417D02*
D03*
Y54386D02*
D03*
Y55370D02*
D03*
Y56354D02*
D03*
Y58323D02*
D03*
Y59307D02*
D03*
X136583Y52671D02*
D03*
X121231Y45528D02*
D03*
Y49465D02*
D03*
Y53402D02*
D03*
Y57339D02*
D03*
X103331Y48137D02*
D03*
X102331D02*
D03*
X101332D02*
D03*
X100331D02*
D03*
X101231Y70043D02*
D03*
X102232D02*
D03*
X98231D02*
D03*
X99232D02*
D03*
X100232D02*
D03*
X97232D02*
D03*
X103231D02*
D03*
X96231D02*
D03*
X95232D02*
D03*
X94232D02*
D03*
X99332Y48137D02*
D03*
X98331D02*
D03*
X97331D02*
D03*
X96332D02*
D03*
X151254Y30018D02*
D03*
X149254D02*
D03*
X150254D02*
D03*
X148254D02*
D03*
X149254Y51631D02*
D03*
X150254D02*
D03*
X148254D02*
D03*
X147254D02*
D03*
X146254D02*
D03*
X145254D02*
D03*
X151254D02*
D03*
X147254Y30018D02*
D03*
X146254D02*
D03*
X145254D02*
D03*
X144254D02*
D03*
Y51631D02*
D03*
X143254D02*
D03*
X142254D02*
D03*
X155232Y83293D02*
D03*
Y92293D02*
D03*
Y84293D02*
D03*
Y91293D02*
D03*
Y85293D02*
D03*
Y90293D02*
D03*
Y86293D02*
D03*
Y89293D02*
D03*
Y87293D02*
D03*
Y88293D02*
D03*
X111732Y69793D02*
D03*
X112732D02*
D03*
X113731D02*
D03*
X114732D02*
D03*
X115731D02*
D03*
X116732D02*
D03*
X117732D02*
D03*
X118731D02*
D03*
X119732D02*
D03*
X120731D02*
D03*
X121732D02*
D03*
X122732D02*
D03*
X123731D02*
D03*
X124732D02*
D03*
X125731D02*
D03*
X126732D02*
D03*
X127732D02*
D03*
X128731D02*
D03*
X129732D02*
D03*
X130731D02*
D03*
X131732D02*
D03*
X132732D02*
D03*
X133731D02*
D03*
X134732D02*
D03*
X135731D02*
D03*
X136732D02*
D03*
X137732D02*
D03*
X138731D02*
D03*
X139732D02*
D03*
X140731D02*
D03*
X141732D02*
D03*
X142732D02*
D03*
X143731D02*
D03*
X144732D02*
D03*
X145731D02*
D03*
X146732D02*
D03*
X147732D02*
D03*
X148731D02*
D03*
X149732D02*
D03*
X150731D02*
D03*
X151732D02*
D03*
X152732D02*
D03*
X153731D02*
D03*
X154732D02*
D03*
X155731D02*
D03*
X111732Y98793D02*
D03*
X112732D02*
D03*
X113731D02*
D03*
X114732D02*
D03*
X115731D02*
D03*
X116732D02*
D03*
X117732D02*
D03*
X118731D02*
D03*
X119732D02*
D03*
X120731D02*
D03*
X121732D02*
D03*
X122732D02*
D03*
X123731D02*
D03*
X124732D02*
D03*
X125731D02*
D03*
X126732D02*
D03*
X127732D02*
D03*
X128731D02*
D03*
X129732D02*
D03*
X130731D02*
D03*
X131732D02*
D03*
X132732D02*
D03*
X133731D02*
D03*
X134732D02*
D03*
X135731D02*
D03*
X136732D02*
D03*
X137732D02*
D03*
X138731D02*
D03*
X139732D02*
D03*
X140731D02*
D03*
X141732D02*
D03*
X142732D02*
D03*
X143731D02*
D03*
X144732D02*
D03*
X145731D02*
D03*
X146732D02*
D03*
X147732D02*
D03*
X148731D02*
D03*
X149732D02*
D03*
X150731D02*
D03*
X151732D02*
D03*
X152732D02*
D03*
X153731D02*
D03*
X155731D02*
D03*
X156732D02*
D03*
X154732D02*
D03*
X156732Y69793D02*
D03*
X53632Y75643D02*
D03*
Y74643D02*
D03*
X113832Y7528D02*
D03*
X115389Y7370D02*
D03*
X61281Y26728D02*
D03*
X10031Y62028D02*
D03*
Y61128D02*
D03*
X6600Y44163D02*
D03*
X3051Y45187D02*
D03*
X6000Y44163D02*
D03*
X7500Y55318D02*
D03*
Y55988D02*
D03*
X14632Y98643D02*
D03*
Y97643D02*
D03*
Y115643D02*
D03*
Y114643D02*
D03*
X141261Y44364D02*
D03*
X138111Y23537D02*
D03*
X102521Y62002D02*
D03*
X142836Y17396D02*
D03*
X142796Y18970D02*
D03*
D61*
X100505Y38900D02*
D03*
Y39900D02*
D03*
X101505Y38900D02*
D03*
X101005Y39400D02*
D03*
X101505Y39900D02*
D03*
D89*
X146025Y62081D02*
X146147Y62203D01*
Y65187D01*
X146317Y62222D02*
Y64795D01*
Y62222D02*
X146458Y62081D01*
X146317Y64795D02*
X146713Y65191D01*
M02*
