M48
;Layer_Color=9474304
;FILE_FORMAT=2:4
INCH,LZ
;TYPE=PLATED
T1F00S00C0.0118
T2F00S00C0.0197
T3F00S00C0.0200
T4F00S00C0.0250
T5F00S00C0.0280
T6F00S00C0.0315
T7F00S00C0.0354
T8F00S00C0.0394
T10F00S00C0.0433
T11F00S00C0.0591
T13F00S00C0.0669
T14F00S00C0.0709
T15F00S00C0.1181
T16F00S00C0.1220
T17F00S00C0.1260
T18F00S00C0.1378
%
T01
X1528Y004105
X152283Y003967
X151767Y004105
X151389Y004483
X15125Y005
X151389Y005517
X151767Y005895
X152283Y006033
X1528Y005895
X153178Y005517
X153317Y005
X153178Y004483
X13383Y015656
X133436Y015551
X133042Y015656
X118082
X117688Y015551
X117294Y015656
X113818Y015751
X11353Y015463
X113136Y015357
X112742Y015463
X112454Y015751
X09807
X097782Y015463
X097388Y015357
X096994Y015463
X096706Y015751
X085541Y012328
X085679Y011811
X085541Y011294
X085162Y010916
X084646Y010778
X084129Y010916
X083751Y011294
X083612Y011811
X083751Y012328
X084129Y012706
X084646Y012844
X085162Y012706
X012706Y008391
X012844Y007874
X012706Y007357
X012328Y006979
X011811Y006841
X011294Y006979
X010916Y007357
X010778Y007874
X010916Y008391
X011294Y008769
X011811Y008907
X012328Y008769
X003Y03034
X016275Y017336
X01617Y016942
X016275Y016548
X016563Y01626
X016957Y016154
X017351Y01626
X017639Y016548
X017744Y016942
X017639Y017336
X017351Y017624
X016957Y017729
X016563Y017624
X083598Y017336
X083492Y016942
X083598Y016548
X083886Y01626
X08428Y016154
X084674Y01626
X084962Y016548
X085067Y016942
X084962Y017336
X084674Y017624
X08428Y017729
X083886Y017624
X096994Y016826
X097388Y016932
X097782Y016826
X09807Y016538
X098175Y016144
X096601
X096706Y016538
X112454
X112349Y016144
X112742Y016826
X113136Y016932
X11353Y016826
X113818Y016538
X113923Y016144
X116901Y016338
X117006Y015944
Y016732
X117294Y01702
X117688Y017126
X118082Y01702
X11837Y016732
Y015944
X11353Y031211
X113136Y031105
X112742Y031211
X118475Y016338
X132649
X132754Y016732
X133042Y01702
X133436Y017126
X13383Y01702
X132754Y015944
X133436Y031299
X134118Y016732
X134223Y016338
X134118Y015944
X155535Y031911
X155929Y031806
X156323Y031911
X156611Y032199
X156716Y032593
X156611Y032987
X156323Y033275
X155929Y03338
X155535Y033275
X155247Y032987
X155141Y032593
X155247Y032199
X152091Y042412
X151575Y042274
X151058Y042412
X15068Y042791
X150541Y043307
X15068Y043824
X151058Y044202
X151575Y044341
X152091Y044202
X15247Y043824
X152608Y043307
X15247Y042791
X139787Y033275
X139393Y03338
X139Y033275
X138711Y032987
X138606Y032593
X138711Y032199
X139Y031911
X139393Y031806
X139787Y031911
X140075Y032199
X140181Y032593
X140075Y032987
X134118Y03248
X134223Y032086
X134118Y031693
X13383Y031404
X133042
X132754Y031693
X132649Y032086
X132754Y03248
X133042Y032768
X133436Y032874
X13383Y032768
X128469Y034538
X127953Y0344
X127436Y034538
X127058Y034917
X126919Y035433
X127058Y03595
X127436Y036328
X127953Y036467
X128469Y036328
X128848Y03595
X128986Y035433
X128848Y034917
X11353Y032574
X113136Y03268
X112742Y032574
X112454Y032286
X112349Y031893
X112454Y031499
X113818
X113923Y031893
X113818Y032286
X101505Y0389
X100505
Y0399
X101005Y0394
X101505Y0399
X030423Y03595
X030561Y035433
X030422Y034917
X030044Y034538
X029528Y0344
X029011Y034538
X028633Y034917
X028494Y035433
X028633Y03595
X029011Y036328
X029528Y036467
X030044Y036328
X011791Y033514
X019425Y048438
X019319Y048832
X019425Y049225
X019713Y049514
X020107Y049619
X0205Y049514
X020789Y049225
X020894Y048832
X020789Y048438
X0205Y04815
X020107Y048044
X019713Y04815
X025886Y058711
X02687
X027854
X028839
X029823
X030807
X031791
X032776
X03376
X034744
X035728
X036713
X037697
X038681
X039665
X03995Y060969
X032087Y061122
X04065Y058711
X041634
X042618
X043602
X044587
X045571
X046555
X047539
X048524
X058538Y054045
X059055Y054183
X059572Y054044
X05995Y053666
X060089Y05315
X05995Y052633
X059572Y052255
X059055Y052116
X058539Y052255
X05816Y052633
X058022Y05315
X05816Y053666
X083598Y049225
X083492Y048832
X083598Y048438
X083886Y04815
X08428Y048044
X084674Y04815
X084962Y048438
X085067Y048832
X084962Y049225
X084674Y049514
X08428Y049619
X083886Y049514
X090928Y050286
X091321Y050181
X091715Y050286
X092003Y050574
X092109Y050968
X092003Y051362
X091715Y05165
X091321Y051756
X090928Y05165
X090639Y051362
X090534Y050968
X090639Y050574
X107175
X107069Y050968
X107175Y051362
X107463Y05165
X107857Y051756
X10825Y05165
X108539Y051362
X108644Y050968
X108539Y050574
X10825Y050286
X107857Y050181
X107463Y050286
X106816Y062097
X106299Y061959
X105783Y062097
X105404Y062476
X107194
X133653Y060431
X133548Y060037
X133653Y059643
X133941Y059355
Y060719
X133858Y056152
X133342Y056013
X132963Y055635
X132825Y055118
X132963Y054602
X133342Y054223
X133858Y054085
X134375Y054223
X134753Y054602
X134892Y055118
X134753Y055635
X134375Y056013
X134335Y05925
X134729Y059355
X135017Y059643
X135122Y060037
X135017Y060431
X134729Y060719
X134335Y060824
X139Y04981
X139393Y049916
X139787Y04981
X140075Y049522
X140181Y049128
X140075Y048735
X139787Y048447
X139393Y048341
X139Y048447
X138711Y048735
X138606Y049128
X138711Y049522
X155247
X155141Y049128
X155247Y048735
X155535Y048447
X155929Y048341
X156323Y048447
X156611Y048735
X156716Y049128
X156611Y049522
X156323Y04981
X155929Y049916
X155535Y04981
X145201Y077264
X144201
X143201
X142201
X141201
X140201
X139201
X138201
X137201
X136201
X135201
X134201
X133201
X132201
X131201
X120835Y077953
X117224Y077362
X10825Y068185
X107857Y068291
X107463Y068185
X107175Y067897
X107069Y067504
X107175Y06711
X107463Y066822
X107857Y066716
X10825Y066822
X108539Y06711
X108644Y067504
X108539Y067897
X107194Y063509
X107333Y062992
X106816Y063887
X106299Y064026
X105782Y063887
X105404Y063509
X105266Y062992
X091715Y066822
X091321Y066716
X090928Y066822
X090639Y06711
X090534Y067504
X090639Y067897
X090928Y068185
X091321Y068291
X091715Y068185
X092003Y067897
X092109Y067504
X092003Y06711
X085618Y077137
X085724Y077531
X085618Y077924
X08533Y078213
X084543
X084254Y077924
X084149Y077531
X084254Y077137
X084543Y076849
X084936Y076743
X08533Y076849
X061281Y0656
X0608Y06595
X04389Y06609
X04411Y06675
X04565Y07027
X0454Y07075
X023688Y065212
X023826Y064695
X023688Y064179
X023309Y0638
X022793Y063662
X022276Y0638
X021898Y064179
X021759Y064695
X021898Y065212
X022276Y06559
X022793Y065729
X023309Y06559
X0061Y0814
X0052Y08235
X022727Y084129
X022589Y084646
X022727Y085162
X023105Y085541
X023622Y085679
X024139Y085541
X024517Y085162
X024656Y084646
X024517Y084129
X024139Y083751
X023622Y083612
X023106Y083751
X04595Y0802
X05617Y079787
Y079341
Y07891
Y078479
X05735Y078472
Y078903
Y079335
Y07978
Y080225
X069488Y09065
Y091634
Y092618
Y093602
X071324Y091422
X070946Y091043
X070807Y090527
X070946Y09001
X071324Y089632
X07184Y089493
X072357Y089632
X072735Y09001
X072874Y090527
X072735Y091043
X072357Y091421
X07184Y09156
X075787Y091535
X080768Y091081
X080502Y093573
X086098Y093593
X086614Y093455
X087131Y093593
X084936Y078318
X090384Y080846
X097441Y0875
X098425
X098584Y0882
X0982
X099409Y0875
X100394
X101378
X102362
X102442Y09001
X102303Y090527
X102442Y091043
X094528Y093022
Y093504
X092461Y09251
X10282Y091422
X103336Y09156
X103853Y091421
X104232Y091043
X10437Y090527
X104231Y09001
X103853Y089632
X103336Y089493
X10282Y089632
X103346Y0875
X104331
X105315
X106299
X107953Y089321
X108445Y089764
X117224Y090157
Y091142
Y089173
Y088189
X117402Y087559
X117582Y087071
X11752Y085236
X117224Y084252
Y083268
Y082283
Y081299
Y080315
Y079331
Y078346
X120835Y085827
X140837Y088066
X140699Y088583
X140837Y089099
X141216Y089478
X141732Y089616
X142249Y089478
X142627Y089099
X142766Y088583
X142627Y088066
X142249Y087688
X141732Y087549
X141216Y087688
X144872Y092047
X162869Y081604
X163386Y081742
X163902Y081604
X164281Y081225
X164419Y080709
X164281Y080192
X163902Y079814
X163386Y079675
X162869Y079814
X162491Y080192
X162352Y080709
X162491Y081225
X152125Y107039
X151732Y106933
X151338Y107039
X15105Y107327
X150944Y10772
X15105Y108114
X151338Y108402
X151732Y108508
X152125Y108402
X152413Y108114
X152519Y10772
X152413Y107327
X146201Y108484
X116205Y108217
X11631Y107823
X116205Y107429
X115917Y107141
X115523Y107035
X115129Y107141
X114841Y107429
X114735Y107823
X114841Y108217
X115129Y108505
X115523Y10861
X115917Y108505
X097933Y097047
X096191Y096506
X094262Y096496
X093947Y096014
X093661Y095512
X093346Y09498
X093041Y094459
X094528Y094035
X092559Y096968
X087509Y095005
X087648Y094488
X087509Y093972
X087598Y099114
X0872Y0989
X085433Y099114
X085Y0989
X086097Y095383
X086614Y095522
X087131Y095383
X085719Y095005
X085581Y094488
X085719Y093972
X080768Y095581
X07845Y09885
X078051Y099114
X07695Y09885
X076575Y099114
X072343Y100886
X069488Y100492
Y101476
Y102461
Y103445
Y104429
Y105413
Y106398
Y107382
X069488Y099508
Y098524
X069488Y097539
Y096555
Y095571
Y094587
X024803Y101181
X025197Y102228
X025591Y10315
X025984Y104262
X026378Y105217
X026772Y106157
X027165Y107157
X027559Y108157
X027953Y109157
X028346Y110157
X02874Y111228
X029134Y112205
X029616Y113228
X029921Y114173
X030315Y114961
X030709Y116289
X040305Y114173
X040444Y113657
X040822Y113278
X041339Y11314
X041855Y113278
X042233Y113657
X042372Y114173
X042234Y11469
X041855Y115068
X041339Y115207
X040822Y115068
X040444Y11469
X070946Y121506
X070807Y122023
X070946Y122539
X071324Y122918
X071324Y121128
X07184Y120989
X072357Y121128
X072735Y121506
X072874Y122023
X072735Y122539
X072357Y122918
X07184Y123056
X085Y12
X086
X087Y12
X088
X089Y12
X09
X091
X092
X094252Y120118
X095312
X102441Y121501
X102302Y122018
X102441Y122534
X102819Y122913
X103336Y123051
X103852Y122912
X104231Y122534
X104369Y122018
X104231Y121501
X103852Y121123
X103336Y120984
X102819Y121123
X115117Y123574
X115511Y123469
X115905Y123574
X116193Y123862
X116298Y124256
X116193Y12465
X115905Y124938
X115511Y125043
X115117Y124938
X114829Y12465
X114724Y124256
X114829Y123862
X12936Y122598
X13378Y122628
X12865Y1179
X12805Y1173
X12745Y1168
X12775Y1163
X12655Y1158
X141437Y115945
X14265Y1165
X14235Y117
X14295Y1175
X14355Y1193
X15374Y119488
Y118504
Y11752
Y116535
Y115551
Y114567
Y113583
Y120472
Y121457
Y122441
X152413Y123862
X152519Y124256
X152413Y12465
X152125Y124938
X151732Y125043
X151338Y124938
X15105Y12465
X150944Y124256
X15105Y123862
X151338Y123574
X151732Y123469
X152125Y123574
X156585Y133342
X156447Y133858
X156585Y134375
X156964Y134753
X15748Y134892
X157997Y134753
X158375Y134375
X158514Y133858
X158375Y133342
X157997Y132963
X15748Y132825
X156964Y132963
X101289Y132407
X101427Y13189
X101289Y131373
X10091Y130995
X100394Y130856
X099877Y130995
X099499Y131373
X09936Y13189
X099499Y132406
X099877Y132785
X100394Y132923
X10091Y132785
X096024Y130787
X096063Y129882
X08963Y13028
X087616Y130325
X085616
X079606Y130276
X079291Y13063
X079055Y129724
X07748Y129606
X077008Y129331
X070866Y132677
X069882
X068898
X067913
X066929
X065945
X064961
X063976
X062992
X062008
X061024
X060039
X059055
X058071
X057087
X056102
X056272Y129331
X064441Y129232
X004832Y133342
X00497Y133858
X004832Y134375
X004454Y134753
X003937Y134892
X00342Y134753
X003042Y134375
X002904Y133858
X003042Y133342
X00342Y132963
X003937Y132825
X004454Y132963
T02
X006337Y020842
X00635Y0212
X003937Y030906
X152903Y034438
X153497
X159701Y031555
X16063Y041736
X162011Y041142
X008071Y057888
X159701Y056161
X164803Y060827
X165748
X162011Y065748
X16063Y066342
X008052Y067165
X002654Y070138
X002598Y071693
X003412Y079154
X005654Y078738
X158661Y094764
Y095433
X159646Y09547
X159656Y10353
X16063Y104925
X159701Y123287
X1507Y123
X1509Y1179
X160984Y126772
X162008
X16063Y130508
Y132484
T03
X119885Y013445
X120885
X121884
X122885
X123884
X124885
X125885
X126884
X127885
X128884
X129885
X130885
X110681Y013537
X109682
X108681
X107682
X106681
X105681
X104682
X103681
X113832Y007528
X115389Y00737
X102682Y013537
X101681
X100681
X099682
X079251Y014703
X078251
X077251
X076251
X075251
X074251
X073251
X072251
X070251Y014703
X069251
X068252
X067252
X066252
X065251
X064251
X063252
X061251Y014703
X060251
X059251
X058251
X057251
X056251
X055251
X054251
X052252Y014703
X051252
X050251
X049251
X048252
X047252
X046252
X045251
X043251Y014703
X042251
X041251
X040251
X039251
X038251
X037251
X036251
X034251Y014703
X033252
X032252
X031251
X030252
X029251
X028252
X027252
X014552Y027603
Y028603
Y029603
Y030603
X061281Y026728
X0613Y0256
X087752Y025203
Y026203
Y027203
Y028203
Y029203
Y030203
Y031203
Y024203
Y023203
X138111Y023537
X142796Y01897
X142836Y017396
X144254Y030018
X145254
X146254
X147254
X148254
X149254
X150254
X151254
X141261Y044364
X121231Y044543
Y045528
Y046512
X121531Y034437
X122531
X123532
X120532
X119531
X118532
X104537Y034418
Y035419
Y036418
Y037418
Y038419
Y039418
X087752Y039203
Y038203
Y037203
Y036203
Y035203
Y034203
Y033203
Y032203
Y040203
Y041203
Y042203
Y043203
Y044203
Y045203
Y046203
X014552Y045803
Y046803
Y044803
Y043803
Y042803
Y041803
Y040803
Y039803
Y038803
Y037803
Y032603
Y031603
X0066Y044163
X006
X003614Y045187
X003051
X0075Y055318
Y055988
X010031Y061128
Y062028
X014552Y052803
Y051803
Y050803
Y049803
Y048803
Y047803
X071732Y062043
X087752Y048203
Y047203
X096332Y048137
X097331
X098331
X099332
X100331
X101332
X102331
X102521Y062002
X103331Y048137
X121231Y04848
Y049465
Y050449
Y051433
Y052417
Y053402
Y054386
Y05537
Y056354
Y057339
Y058323
Y059307
Y047496
X136583Y052671
X137583
X142254Y051631
X143254
X144254
X145254
X146254
X147254
X148254
X149254
X150254
X151254
X151732Y069793
X150731
X149732
X152732
X153731
X154732
X155731
X156732
X148731
X147732
X146732
X145731
X144732
X143731
X142732
X141732
X140731
X139732
X138731
X137732
X136732
X135731
X134732
X133731
X132732
X131732
X130731
X129732
X128731
X127732
X126732
X125731
X124732
X123731
X122732
X121732
X120731
X119732
X118731
X117732
X116732
X115731
X114732
X113731
X112732
X111732
X103231Y070043
X102232
X101231
X100232
X099232
X098231
X097232
X096231
X095232
X094232
X088488Y065837
X087488
X071732Y066043
Y065043
Y064043
Y063043
Y067043
Y068043
Y069043
Y070043
Y071043
Y072043
Y073043
Y074043
Y075043
Y076043
Y077043
X053632Y076643
Y075643
Y074643
Y073643
Y072643
Y071643
X015378Y070248
X014378
X013378
X012378
Y073248
X013378
X014378
X015378
X00748Y065339
Y064668
X014632Y081643
Y082643
Y083643
Y084643
Y085643
Y086643
Y087643
Y088643
Y089643
Y090643
Y091643
Y092643
Y093643
X053632
Y092643
Y091643
Y090643
Y089643
Y088643
Y087643
Y086643
Y085643
Y084643
Y083643
Y082643
Y081643
X080941Y087993
X081941
X082941
X083941
X084941
X085941
X086941
X087941
X088941
X089941
X090941
X091941
X092941
X093941
X094941
X095941
X155232Y088293
Y089293
Y090293
Y091293
Y092293
Y087293
Y086293
Y085293
Y084293
Y083293
X155731Y098793
X156732
X154732
X153731
X152732
X151732
X150731
X149732
X148731
X147732
X146732
X145731
X144732
X143731
X142732
X141732
X140731
X139732
X138731
X137732
X136732
X135731
X134732
X133731
X132732
X131732
X130731
X129732
X128731
X127732
X126732
X125731
X124732
X123731
X122732
X121732
X120731
X119732
X118731
X117732
X116732
X115731
X114732
X113731
X112732
X111732
X053632Y098643
Y099643
X053706Y100671
X053632Y101643
Y102643
Y103643
Y104643
Y105643
Y106643
Y107643
Y108643
Y097643
Y096643
Y095643
Y094643
X014632
Y095643
Y096643
Y097643
Y098643
Y099643
Y100643
Y101643
Y102643
Y103643
Y104643
Y105643
Y106643
Y107643
Y108643
Y109643
Y110643
Y111643
Y112643
Y113643
Y114643
Y115643
Y116643
Y117643
Y118643
Y119643
Y120643
X015131Y125143
X016132
X017132
X018132
X019131
X020131
X021131
X022132
X023131
X024132
X025131
X026131
X027132
X028131
X029132
X030131
X031131
X032132
X033131
X034132
X035131
X036131
X037132
X038131
X039132
X040132
X041132
X042132
X043131
X044131
X045132
X046132
X047132
X048131
X049131
X050132
X051132
X052132
X053131
X054131
X053632Y120643
Y119643
Y118643
Y117643
Y116643
Y115643
Y114643
Y113643
Y112643
Y111643
Y110643
Y109643
X068241Y112493
Y113493
Y114493
Y115493
Y116493
Y117493
Y118493
Y119493
X080135Y124393
X081135
X082135
X083135
X084135
X085135
X086135
X087135
X088135
X089135
X090135
X091135
X092135
X093135
X094135
X095135
X106241Y120493
Y119493
Y118493
Y117493
Y116493
Y115493
Y114493
Y113493
X134342Y128748
X135342
X136342
X137342
X138342
X139342
X140342
X141342
X142342
X143342
X144342
X145342
X146342
X147342
X133342
X132342
X131342
X130342
X129342
X128342
X127342
X126342
X125342
X124342
X123342
X122342
X121342
X120342
X119342
X118342
X117342
X116342
X115342
X114342
T04
X0833Y01964
T05
X136222Y00523
X13571Y011687
X141694Y01464
X122245Y00527
X112992Y009055
X00905Y02472
X0085
X0096
X081949Y0201
X08245Y019599
X08295Y01906
X0985Y02075
X099617
X100733
X10185
X096537Y026215
X139017Y026648
X138584Y024482
X140434Y020703
X140946Y020152
X141497Y018695
X117836Y042947
X114017Y045073
X01065Y055477
X01065Y056134
X047552Y061752
X048552
X0801Y06135
Y0602
X102993Y057593
X103308Y054029
Y053459
X1193Y0607
X146143Y077789
X146713
X12645Y07798
X10805Y077362
X107062
X106062
X10605Y07445
X10705
X10805
X07995Y0759
Y07685
X078072Y065191
X077669Y064788
X047533Y064533
X0483Y0663
X04809Y0688
X049307Y068803
X04945Y067969
X04725Y06939
X04667
X04609
X0435Y0667
X039963Y066863
X039463Y064563
X035463Y066863
X032059Y066809
X031559Y064441
X027559Y066841
X01775Y06915
X01065Y0691
X0093Y077953
X008194Y0776
X003456Y076606
X00171Y07974
X003Y09012
X006614Y089606
X067484Y088645
X067984Y088145
X068485Y087645
X068984Y087145
X069485Y086645
X071185Y087645
X070684Y088145
X070184Y088645
X06895Y07885
X072185Y086645
X071684Y087145
X078679Y091571
X0955Y0788
X0964
X09745
X1241Y07848
X12643Y08248
X12635Y08585
X1241Y08635
X126454Y090354
X144112Y081687
X144682
X150611Y081528
X151192
X151771
X152352
X152931
X153511
X154092
X154671
X155252
Y079028
X154671
X154092
X153511
X152931
X152352
X151771
X151192
X150611
X154662Y106506
X155065Y106909
X14853Y10839
X14812Y1088
X13375Y109
X131732Y109028
X096909Y109006
X09598Y10902
X0938Y10784
Y10726
X077913Y105413
Y100913
X075613Y101413
X062432Y097628
X061782Y098071
X006102Y099803
X00375Y1208
X00172Y12409
X056791Y124291
X061291Y124259
X064961Y124139
X09598Y1096
X131732Y110928
X13375Y11175
X131115Y121744
X130705Y122154
X130295Y122564
X129885Y122975
X146819Y12305
X145571Y117984
Y113484
X145061Y112598
X146732Y111628
X14819Y11216
X148622Y112894
X065461Y126461
X057291Y126591
X00174Y12617
T06
X107856Y004529
X108596
X087496
X086756
X066396
X065656
X04564Y00453
X04463
X03085Y00189
Y00095
X00985Y0011
Y00195
X134731Y074293
Y075293
X135731
Y074293
X136731
Y075293
X137731
Y074293
X138731
Y075293
X139731
Y074293
X140731
Y075293
X141731
Y074293
X142731
Y075293
X143731
Y074293
X144731
Y075293
X133731
X132731
X131731
X130731
X129731
X128731
X127731
X126731
X125731
X124731
X123731
X122731
Y074293
X123731
X124731
X125731
X126731
X127731
X128731
X129731
X130731
X131731
X132731
X133731
Y093293
X132731
X131731
X130731
X129731
X128731
X127731
X126731
X125731
X124731
X123731
X122731
X134731
X135731
X136731
X137731
X138731
X139731
X140731
X141731
X142731
X143731
X144731
X145731Y088543
Y087543
X146731
Y088543
X147731
Y087543
X148731
Y088543
X149731
Y087543
X144731Y094293
X143731
X142731
X141731
X140731
X139731
X138731
X137731
X136731
X135731
X134731
X133731
X132731
X131731
X130731
X129731
X128731
X127731
X126731
X125731
X124731
X123731
X122731
T07
X119885Y006945
Y007945
X120885
Y006945
X121884
Y007945
X122885
X123884
Y006945
X122885
X124885
X125885
Y007945
X124885
X126884
X127885
X128884
X129885
X130885
Y006945
X129885
X128884
X127885
X126884
X110681Y007037
Y008037
X109682
Y007037
X108681
X107682
Y008037
X108681
X106681
X105681
Y007037
X104682
X103681
Y008037
X104682
X106681Y007037
X102682
Y008037
X101681
X100681
Y007037
X099682
Y008037
X101681Y007037
X079251Y008203
Y009203
X078251
X077251
X076251
Y008203
X077251
X078251
X075251
X074251
Y009203
X075251
X073251
X072251
Y008203
X073251
X070251Y008203
X069251
Y009203
X070251
X068252
X067252
Y008203
X066252
X065251
Y009203
X066252
X064251
X063252
Y008203
X064251
X061251Y008203
X060251
Y009203
X061251
X059251
X058251
Y008203
X059251
X057251
X056251
Y009203
X057251
X068252Y008203
X055251Y008203
X054251
Y009203
X055251
X052252Y009203
Y008203
X051252
X050251
Y009203
X051252
X049251
X048252
X047252
Y008203
X048252
X049251
X046252
X045251
Y009203
X046252
X043251Y009203
X042251
Y008203
X043251
X041251
Y009203
X040251
Y008203
X039251
X038251
Y009203
X039251
X037251
X036251
Y008203
X037251
X034251Y008203
X033252
Y009203
X034251
X032252
X031251
Y008203
X030252
X029251
Y009203
X030252
X028252
X027252
Y008203
X028252
X032252
X009051Y027603
X008051
Y028603
Y029603
X009051
Y030603
X008051
X009051Y028603
X016563Y029115
Y030115
Y031115
X017563
Y030115
Y029115
X031049Y024023
Y023023
Y022023
Y021023
X032049
Y022023
Y023023
Y024023
X047978Y024023
Y023023
Y022023
Y021023
X048978
Y022023
Y023023
Y024023
X064907Y024023
Y023023
Y022023
Y021023
X065907
Y022023
Y023023
Y024023
X083886Y030745
X084886
X093251Y031203
Y030203
X094251
Y031203
Y029203
Y028203
X093251
Y027203
Y026203
X094251
Y027203
Y025203
Y024203
X093251
Y025203
Y023203
X094251
X096584Y019251
X097584
X098584
X099584
X087311Y019977
Y020977
X093251Y029203
X105764Y021661
X106764
X107764
X108764
X110994Y020521
X111994
X112994
X113994
X116884Y019445
X117884
X118884
X119884
X126064Y021855
X127064
X128064
X129064
X131294Y020715
X132294
X133294
X134294
X144254Y023518
X145254
X146254
X147254
X148254
X149254
Y024518
X148254
X147254
X146254
X145254
X144254
X150254
X151254
Y023518
X150254
X149781Y032583
X150781
X148781
X147781
X146781
X145781
X144781
X143781
X134785Y044237
Y045237
X123285Y045737
Y046737
Y044737
Y043737
X123532Y040937
X122531
Y039937
X121531
Y040937
X120532
X119531
Y039937
X118532
Y040937
X120532Y039937
X123532
X123094Y032165
X124094
X122094
X121094
X120094
X119094
X111037Y034418
X110037
Y035419
Y036418
X111037
Y035419
Y037418
Y038419
Y039418
X110037
Y038419
Y037418
X112763Y045496
Y046496
X114732Y046512
Y045528
Y044543
X115731
Y045528
Y046512
X103331Y042637
Y041637
X103794Y031971
X102794
X101794
X100794
X099794
X098794
X094251Y032203
X093251
Y033203
Y034203
X094251
Y033203
Y035203
Y036203
Y037203
X093251
Y036203
Y035203
Y038203
Y039203
X094251
Y038203
Y040203
Y041203
Y042203
Y043203
X093251
Y042203
Y041203
Y040203
Y044203
Y045203
X094251
Y044203
Y046203
X093251
X096332Y042637
X097331
X098331
X099332
X100331
X101332
X102331
Y041637
X101332
X100331
X099332
X098331
X097331
X096332
X084886Y041745
Y040745
Y039745
Y038745
Y037745
Y036745
Y035745
Y034745
Y033745
Y032745
Y031745
X083886
Y032745
Y033745
Y034745
Y035745
Y036745
Y037745
Y038745
Y039745
Y040745
Y041745
X079637Y04175
Y04275
Y04375
Y04475
X078637
Y04375
Y04275
Y04175
X062707Y04175
Y04275
Y04375
Y04475
X061707
Y04375
Y04275
Y04175
X045778Y04175
Y04275
Y04375
Y04475
X044778
Y04375
Y04275
Y04175
X017563Y041832
X016563
Y042832
X017563
Y043832
X016563
Y044832
X017563
Y045832
X016563
Y046832
X017563
X009051Y046803
Y045803
X008051
Y046803
Y044803
Y043803
X009051
Y042803
Y041803
X008051
Y040803
X009051
Y039803
Y038803
X008051
Y037803
X009051
X008051Y039803
Y042803
X009051Y044803
Y032603
X008051
Y031603
X009051
Y047803
X008051
Y048803
X009051
Y049803
Y050803
X008051
Y051803
Y052803
X009051
Y051803
X008051Y049803
X016563Y048832
Y047832
X017563
Y048832
X065231Y062043
X066231
X073886Y062231
Y061231
X085386Y061731
X095709Y050958
X096709
X097709
X098709
X099709
X100709
X101709
X102709
X094251Y048203
Y047203
X093251
Y048203
X112763Y047496
X114732
Y04848
Y049465
Y050449
Y051433
Y052417
Y053402
Y054386
Y05537
Y056354
Y057339
Y058323
Y059307
X115731
Y058323
Y057339
Y056354
Y05537
Y054386
Y053402
Y052417
Y051433
Y050449
Y049465
Y04848
Y047496
X112763Y049496
Y050496
Y051496
X112752Y053303
Y054303
Y055303
Y057303
Y058303
Y059303
X123285Y059237
Y060237
Y058237
Y057237
Y055737
Y054737
Y053737
Y052737
Y051237
Y050237
Y049237
Y048237
X142781Y049128
X143781
X144781
X145781
X146781
X147781
X148781
X149254Y057131
Y058131
X148254
Y057131
X147254
Y058131
X146254
Y057131
X145254
Y058131
X144254
Y057131
X143254
Y058131
X142254
Y057131
X137583Y058171
Y059171
X136583
Y058171
X148254Y059737
X149254
X150254
Y058131
Y057131
X151254
Y058131
X150781Y049128
X149781
X151781
X151732Y063293
X150731
X149732
Y064293
X150731
X151732
X152732
Y063293
X153731
Y064293
X154732
Y063293
X155731
Y064293
X156732
Y063293
X148731
X147732
X146732
X145731
X144732
X143731
X142732
X141732
X140731
X139732
X138731
X137732
X136732
X135731
X134732
Y064293
X135731
X136732
X137732
X138731
X139732
X140731
X141732
X142732
X143731
X144732
X145731
X146732
X147732
X148731
X133731
X132732
X131732
X130731
X129732
X128731
X127732
X126732
X125731
X124732
X123731
X122732
X121732
X120731
X119732
X118731
Y063293
X119732
X120731
X121732
X122732
X123731
X124732
X125731
X126732
X127732
X128731
X129732
X130731
X131732
X132732
X133731
X117732
X116732
X115731
X114732
X113731
X112732
X111732
Y064293
X112732
X113731
X114732
X115731
X116732
X117732
X103709Y067504
X103231Y075543
Y076543
X102232
X101231
Y075543
X102232
X100232
X099232
X098231
Y076543
X099232
X100232
X097232
Y075543
X096231
Y076543
X095232
Y075543
X094232
Y076543
X094709Y067504
X095709
X096709
X097709
X098709
X099709
X100709
X101709
X102709
X088488Y071337
Y072337
X087488
Y071337
X085386Y062731
X073886Y063231
Y064231
Y065731
Y066731
Y067731
Y068731
Y070231
Y071231
Y072231
Y073231
Y074731
Y075731
Y076731
Y077731
X066231Y077043
Y076043
X065231
Y077043
Y075043
Y074043
Y073043
Y072043
X066231
Y073043
Y074043
Y075043
X063231Y075028
Y076028
Y077028
X060132Y076643
Y075643
Y074643
X059131
Y075643
Y076643
Y073643
Y072643
X060132
Y073643
Y071643
X059131
X063231Y072028
Y071028
Y073028
X065231Y071043
Y070043
Y069043
Y068043
X066231
Y069043
Y070043
Y071043
Y067043
Y066043
Y065043
Y064043
X065231
Y065043
Y066043
Y067043
X063231Y067028
Y068028
Y069028
Y064928
Y063928
Y062928
X065231Y063043
X066231
X048684Y073258
Y074258
Y075258
X047585
Y074258
Y073258
X015378Y064748
Y063748
X014378
Y064748
X013378
Y063748
X012378
Y064748
X003346Y072409
Y073409
Y074409
Y075409
X003346Y083024
Y084024
Y085024
Y086024
X008131Y085643
Y084643
Y083643
Y082643
Y081643
Y086643
Y087643
Y088643
Y089643
Y090643
Y091643
Y092643
Y093643
X003346Y09385
X009132Y093643
Y092643
Y091643
Y090643
Y089643
Y088643
Y087643
Y086643
Y085643
Y084643
Y083643
Y082643
Y081643
X012378Y079748
X013378
X014378
X015378
Y078748
X014378
X013378
X012378
X059131Y081643
Y082643
X060132
Y083643
Y084643
X059131
Y083643
Y085643
Y086643
X060132
Y087643
Y088643
X059131
Y089643
Y090643
X060132
Y089643
Y091643
Y092643
X059131
Y093643
X060132
X059131Y091643
Y087643
X060132Y085643
Y081643
X080941Y081493
X081941
X082941
X083941
X084941
Y082493
X085941
Y081493
X086941
Y082493
X083941
X082941
X081941
X080941
X080545Y089779
X081545
X082545
X083545
X084545
X085545
X086545
X087545
X088545
X089545
X090545
X091545
X092545
X093545
X094545
X095545
X095941Y082493
X094941
X093941
X092941
X091941
X090941
Y081493
X091941
X092941
X093941
X094941
X095941
X089941
X088941
X087941
Y082493
X088941
X089941
X100232Y078543
X101231
X102232
X160732Y083293
X161731
Y084293
X160732
Y085293
X161731
Y086293
X160732
Y087293
X161731
Y088293
Y089293
Y090293
Y091293
Y092293
X160732
Y091293
Y090293
Y089293
Y088293
X156732Y104293
X155731
Y105293
X156732
X154732
X153731
X152732
X151732
X150731
X149732
Y104293
X150731
X151732
X152732
X153731
X154732
X148731
X147732
X146732
X145731
X144732
X143731
X142732
X141732
X140731
X139732
X138731
X137732
X136732
X135731
X134732
Y105293
X135731
X136732
X137732
X138731
X139732
X140731
X141732
X142732
X143731
X144732
X145731
X146732
X147732
X148731
X133731
X132732
X131732
X130731
X129732
X128731
X127732
X126732
X125731
X124732
X123731
X122732
X121732
X120731
X119732
X118731
Y104293
X119732
X120731
X121732
X122732
X123731
X124732
X125731
X126732
X127732
X128731
X129732
X130731
X131732
X132732
X133731
X117732
X116732
X115731
X114732
X113731
X112732
X111732
Y105293
X112732
X113731
X114732
X115731
X116732
X117732
X060132Y105643
Y106643
X059131
Y105643
Y104643
X060132
Y103643
Y102643
X059131
Y103643
Y101643
Y100643
X060132
Y101643
Y099643
Y098643
X059131
Y099643
Y097643
X060132
Y096643
Y095643
Y094643
X059131
Y095643
Y096643
Y107643
Y108643
X060132
Y107643
X009132
Y106643
Y105643
Y104643
Y103643
Y102643
Y101643
Y100643
Y099643
Y098643
Y097643
Y096643
Y095643
Y094643
Y108643
X008131
Y107643
Y106643
Y105643
Y104643
Y103643
Y102643
Y101643
Y100643
Y099643
Y098643
Y097643
Y096643
Y095643
Y094643
X003346Y09485
Y09585
Y09685
X00508Y101124
Y102124
X00608
Y101124
Y103124
Y104124
X00508
Y103124
Y105124
X00608
Y106124
Y107124
X00508
Y106124
Y108124
Y109124
X00608
Y108124
X003083Y106858
Y105858
Y104858
Y103858
Y102858
X002083Y103358
Y104358
Y105358
Y106358
X00508Y112124
Y113124
X00608
Y112124
Y114124
Y115124
X00508
Y114124
Y116124
X00608
Y117124
Y118124
X00508
Y117124
Y119124
Y120124
X00608
Y119124
X008131Y118643
Y117643
Y116643
Y115643
Y114643
Y113643
Y112643
Y111643
Y110643
Y109643
Y119643
Y120643
X003083Y118973
Y117973
Y116973
Y115973
Y114973
X002083Y115473
Y116473
Y117473
Y118473
X009132Y118643
Y117643
Y116643
Y115643
Y114643
Y113643
Y112643
Y111643
Y110643
Y109643
Y119643
Y120643
X054331Y122047
X055331
X056331
X057331
X058331
X059331
X060331
X061331
X062315
X063315
X064315
X065315
X066315
X067315
X068315
X069315
X071234Y117542
Y116542
Y115542
Y114542
X062741Y114493
Y115493
X061741
Y114493
Y113493
X062741
Y112493
X061741
X060132Y112643
X059131
Y113643
Y114643
X060132
Y115643
Y116643
X059131
Y115643
Y117643
Y118643
X060132
Y119643
X059131
Y120643
X060132
X061741Y119493
X062741
Y118493
Y117493
X061741
Y118493
Y116493
X062741
X060132Y117643
Y113643
Y111643
Y110643
X059131
Y111643
Y109643
X060132
X072234Y114542
Y115542
Y116542
Y117542
X080545Y1227
X081545
X082545
X083545
X084545
X085545
X086545
X087545
X088545
X089545
X090545
X091545
X092545
X093545
X094545
X095545
X102923Y117476
X103923
Y116476
X102923
Y115476
X103923
Y114476
X102923
X111741Y114493
X112741
Y113493
X111741
Y115493
Y116493
X112741
Y115493
Y117493
Y118493
X111741
Y117493
Y119493
Y120493
X112741
Y119493
X134342Y134248
Y135248
X135342
X136342
X137342
X138342
Y134248
X139342
X140342
Y135248
X141342
X142342
Y134248
X143342
X144342
Y135248
X145342
X146342
Y134248
X147342
Y135248
X145342Y134248
X143342Y135248
X141342Y134248
X139342Y135248
X137342Y134248
X136342
X135342
X133342
X132342
Y135248
X131342
X130342
Y134248
X129342
X128342
Y135248
X127342
X126342
Y134248
X127342
X125342
X124342
Y135248
X125342
X123342
X122342
Y134248
X123342
X121342
X120342
Y135248
X121342
X119342
Y134248
X129342Y135248
X131342Y134248
X133342Y135248
X118342
Y134248
X117342
Y135248
X116342
X115342
X114342
Y134248
X115342
X116342
X095135Y130893
Y129893
X094135
Y130893
X093135
Y129893
X092135
X091135
Y130893
X090135
Y129893
X089135
Y130893
X088135
Y129893
X092135Y130893
X087135
Y129893
X086135
Y130893
X085135
Y129893
X084135
Y130893
X083135
Y129893
X082135
Y130893
X081135
Y129893
X080135
Y130893
X054131Y130643
Y131643
X053131
X052132
X051132
Y130643
X052132
X053131
X050132
X049131
Y131643
X050132
X048131
X047132
Y130643
X048131
X046132
X045132
Y131643
X046132
X044131
X043131
Y130643
X044131
X042132
X041132
Y131643
X042132
X040132
X039132
Y130643
X040132
X038131
X037132
Y131643
X038131
X036131
X035131
Y130643
X036131
X034132
X033131
Y131643
X034132
X032132
X031131
Y130643
X032132
X030131
X029132
Y131643
X030131
X028131
X027132
Y130643
X028131
X026131
X025131
Y131643
X026131
X024132
X023131
Y130643
X024132
X022132
X021131
Y131643
X022132
X020131
X019131
Y130643
X020131
X018132
X017132
Y131643
X018132
X016132
X015131
Y130643
X016132
T08
X115117Y1205
Y1215
X118062Y123764
Y124764
X119062
X120062
X121062
X122062
X123062
Y123764
X122062
X121062
X120062
X119062
X131897Y123783
Y124783
X132897
Y123783
X133897
Y124783
X134897
Y123783
X138102
X139102
X140102
X141102
X142102
X143102
Y124783
X142102
X141102
X140102
X139102
X138102
T10
X04706Y095942
X04806
Y096942
Y097942
Y098942
Y099942
Y100942
Y101942
Y102942
Y103942
Y104942
Y105942
Y106942
Y107942
Y108942
X04706
Y107942
Y106942
Y105942
Y104942
Y103942
Y102942
Y101942
Y100942
Y099942
Y098942
Y097942
Y096942
X02286Y096742
X02186
Y097742
Y098742
Y099742
Y100742
Y101742
Y102742
Y103742
Y104742
Y105742
Y106742
Y107742
Y108742
X02286
Y107742
Y106742
Y105742
Y104742
Y103742
Y102742
Y101742
Y100742
Y099742
Y098742
Y097742
Y109742
X02186
Y110742
Y111742
Y112742
Y113742
Y114742
Y115742
X02286
Y114742
Y113742
Y112742
Y111742
Y110742
X02566Y119742
X02666
X02766
X02866
X02966
X03066
X03166
X03266
X03366
X03466
X03566
X03666
X03766
X03866
X03966
Y120742
X03866
X03766
X03666
X03566
X03466
X03366
X03266
X03166
X03066
X02966
X02866
X02766
X02666
X02566
X04066
Y119742
X04166
X04266
X04366
X04466
Y120742
X04366
X04266
X04166
X04706Y114942
X04806
Y113942
Y112942
Y111942
Y110942
Y109942
X04706
Y110942
Y111942
Y112942
Y113942
T11
X10905Y00324
X11105
X11305
X091966
X089966
X087966
X070882
X068882
X066882
X049798
X047798
X045798
X028714
X026714
X024714
X00763
X00563
X00363
X165551Y032465
Y034465
X16752Y038878
Y041831
X003543Y039402
Y037402
Y035402
Y055906
Y057906
X165561Y057061
Y059061
X16753Y063474
Y066427
X003543Y067142
Y065142
X165541Y09644
Y09844
X16751Y102853
Y105806
X165531Y123995
Y125995
X1675Y130424
Y133377
T13
X164961Y040354
X164971Y064951
X164951Y10433
X164941Y131901
T14
X002756Y011614
X00878
Y018504
X002756
T15
X016957Y016942
X08428
X097388Y016144
X113136
X117688Y016338
X133436
X155929Y032593
X139393
X133436Y032086
X113136Y031893
X020107Y048832
X08428
X091321Y050968
X107857
X139393Y049128
X134335Y060037
X155929Y049128
X107857Y067504
X091321
X084936Y077531
X151732Y10772
X115523Y107823
X115511Y124256
X151732
T16
X146731Y074793
X120731Y076043
Y092543
X146731Y093793
T17
X002579Y100059
Y109656
Y112175
Y121772
T18
X152283Y005
X084646Y011811
X011811Y007874
X151575Y043307
X127953Y035433
X117688Y032086
X097388Y031893
X029528Y035433
X059055Y05315
X133858Y055118
X106299Y062992
X022793Y064695
X023622Y084646
X07184Y090527
X103336
X141732Y088583
X163386Y080709
X086614Y094488
X041339Y114173
X07184Y122023
X103336Y122018
X15748Y133858
X100394Y13189
X003937Y133858
M30
